<svg width="1440" height="1024" viewBox="0 0 1440 1024" fill="none" xmlns="http://www.w3.org/2000/svg">
<rect width="1440" height="1024" fill="#F6F6F6"/>
<path d="M603.58 212.72L598.54 213C597.873 213.027 597.22 213.093 596.58 213.2C595.967 213.28 595.513 213.333 595.22 213.36H595.18C594.833 213.36 594.527 213.12 594.26 212.64C593.993 212.16 593.86 211.72 593.86 211.32C593.86 210.84 594.033 210.6 594.38 210.6C594.593 210.6 594.967 210.613 595.5 210.64C596.033 210.667 596.607 210.68 597.22 210.68C597.433 210.68 597.647 210.68 597.86 210.68C598.1 210.653 598.313 210.64 598.5 210.64L611.38 209.92C611.993 209.867 612.62 209.813 613.26 209.76C613.9 209.707 614.38 209.653 614.7 209.6H614.82C615.14 209.6 615.42 209.84 615.66 210.32C615.9 210.8 616.02 211.24 616.02 211.64C616.02 212.12 615.86 212.36 615.54 212.36C615.273 212.36 614.833 212.347 614.22 212.32C613.607 212.267 612.98 212.24 612.34 212.24C612.18 212.24 612.02 212.253 611.86 212.28C611.7 212.28 611.553 212.28 611.42 212.28L606.38 212.56L606.42 233.76C606.42 234.587 606.433 235.387 606.46 236.16C606.513 236.933 606.54 237.547 606.54 238C606.54 238.16 606.447 238.267 606.26 238.32C606.1 238.4 605.887 238.44 605.62 238.44C605.193 238.44 604.727 238.333 604.22 238.12C603.713 237.907 603.46 237.627 603.46 237.28C603.46 236.96 603.473 236.467 603.5 235.8C603.527 235.107 603.54 234.413 603.54 233.72L603.58 212.72ZM633.706 237.32C633.733 237.107 633.746 236.747 633.746 236.24C633.746 235.733 633.746 235.213 633.746 234.68C633.773 234.12 633.786 233.693 633.786 233.4V226.28C633.786 224.707 633.573 223.453 633.146 222.52C632.719 221.56 631.839 221.08 630.506 221.08C629.599 221.08 628.679 221.253 627.746 221.6C626.839 221.947 626.013 222.52 625.266 223.32C624.519 224.12 623.946 225.187 623.546 226.52C623.359 227.187 623.213 227.973 623.106 228.88C623.026 229.76 622.973 230.64 622.946 231.52C622.946 232.4 622.933 233.16 622.906 233.8V234.44C622.906 235.08 622.919 235.707 622.946 236.32C622.973 236.933 622.999 237.507 623.026 238.04C623.026 238.307 622.773 238.44 622.266 238.44C621.839 238.44 621.386 238.333 620.906 238.12C620.426 237.933 620.186 237.667 620.186 237.32C620.186 237.107 620.186 236.72 620.186 236.16C620.213 235.6 620.226 235.053 620.226 234.52C620.253 233.96 620.266 233.587 620.266 233.4V214.4C620.266 214.133 620.253 213.72 620.226 213.16C620.199 212.6 620.173 212.027 620.146 211.44C620.146 210.853 620.146 210.413 620.146 210.12C620.146 209.853 620.399 209.72 620.906 209.72C621.333 209.72 621.786 209.827 622.266 210.04C622.746 210.227 622.986 210.493 622.986 210.84C622.986 211.053 622.973 211.413 622.946 211.92C622.946 212.427 622.933 212.96 622.906 213.52C622.906 214.053 622.906 214.48 622.906 214.8V222.96C623.759 221.547 624.866 220.467 626.226 219.72C627.613 218.973 629.039 218.6 630.506 218.6C631.786 218.6 632.813 218.84 633.586 219.32C634.386 219.773 634.986 220.373 635.386 221.12C635.813 221.867 636.093 222.68 636.226 223.56C636.359 224.44 636.426 225.293 636.426 226.12V233.8C636.426 233.96 636.439 234.32 636.466 234.88C636.493 235.44 636.506 236.027 636.506 236.64C636.533 237.253 636.546 237.72 636.546 238.04C636.546 238.307 636.293 238.44 635.786 238.44C635.359 238.44 634.906 238.333 634.426 238.12C633.946 237.933 633.706 237.68 633.706 237.36V237.32ZM645.182 230.16V230.56C645.182 232.293 645.622 233.693 646.502 234.76C647.408 235.827 648.528 236.36 649.862 236.36C651.568 236.36 653.128 236.093 654.542 235.56C655.982 235 657.235 234.147 658.302 233C658.488 232.787 658.662 232.64 658.822 232.56C658.982 232.453 659.115 232.4 659.222 232.4C659.488 232.4 659.622 232.56 659.622 232.88C659.622 233.12 659.422 233.547 659.022 234.16C658.648 234.773 658.062 235.44 657.262 236.16C656.462 236.853 655.448 237.453 654.222 237.96C652.995 238.467 651.542 238.72 649.862 238.72C648.502 238.72 647.262 238.387 646.142 237.72C645.048 237.027 644.182 236.04 643.542 234.76C642.902 233.48 642.582 231.96 642.582 230.2V229.64C642.342 229.453 642.142 229.24 641.982 229C641.822 228.76 641.742 228.547 641.742 228.36C641.742 228.013 641.995 227.84 642.502 227.84C642.528 227.84 642.582 227.84 642.662 227.84C642.768 227.813 642.835 227.8 642.862 227.8C643.048 226.84 643.422 225.827 643.982 224.76C644.568 223.693 645.302 222.693 646.182 221.76C647.062 220.8 648.062 220.027 649.182 219.44C650.328 218.853 651.555 218.56 652.862 218.56C654.515 218.56 655.822 218.853 656.782 219.44C657.768 220 658.462 220.733 658.862 221.64C659.288 222.52 659.502 223.44 659.502 224.4C659.502 225.307 659.422 226.027 659.262 226.56C659.128 227.093 658.795 227.533 658.262 227.88C657.728 228.2 656.862 228.547 655.662 228.92C654.462 229.293 653.022 229.6 651.342 229.84C649.688 230.053 647.808 230.16 645.702 230.16H645.182ZM646.302 227.92C648.275 227.92 649.928 227.813 651.262 227.6C652.595 227.36 653.702 227.12 654.582 226.88C655.542 226.587 656.155 226.267 656.422 225.92C656.715 225.573 656.862 225.053 656.862 224.36C656.862 222.04 655.515 220.88 652.822 220.88C651.835 220.88 650.928 221.107 650.102 221.56C649.275 222.013 648.542 222.6 647.902 223.32C647.288 224.04 646.768 224.813 646.342 225.64C645.942 226.44 645.662 227.2 645.502 227.92H646.302ZM700.405 221.76C700.538 221.387 700.658 220.96 700.765 220.48C700.871 220 700.978 219.52 701.085 219.04C701.165 218.747 701.458 218.6 701.965 218.6C702.418 218.6 702.871 218.707 703.325 218.92C703.778 219.107 704.005 219.347 704.005 219.64C704.005 219.72 703.991 219.787 703.965 219.84C703.778 220.267 703.578 220.733 703.365 221.24C703.178 221.747 703.018 222.173 702.885 222.52L698.365 235.4C698.258 235.72 698.138 236.093 698.005 236.52C697.898 236.92 697.778 237.347 697.645 237.8C697.538 238.147 697.378 238.387 697.165 238.52C696.951 238.653 696.698 238.72 696.405 238.72C696.058 238.72 695.698 238.64 695.325 238.48C694.978 238.32 694.725 238.147 694.565 237.96C694.351 237.747 694.218 237.48 694.165 237.16C694.111 236.84 694.031 236.507 693.925 236.16L690.285 223.32L686.165 235.4C686.005 235.853 685.871 236.267 685.765 236.64C685.685 236.987 685.578 237.373 685.445 237.8C685.338 238.147 685.178 238.387 684.965 238.52C684.751 238.653 684.511 238.72 684.245 238.72C683.925 238.72 683.591 238.64 683.245 238.48C682.925 238.32 682.685 238.147 682.525 237.96C682.311 237.747 682.178 237.52 682.125 237.28C682.071 237.04 681.965 236.667 681.805 236.16L677.725 222.04C677.618 221.747 677.485 221.387 677.325 220.96C677.165 220.507 677.005 220.08 676.845 219.68C676.818 219.653 676.805 219.6 676.805 219.52C676.805 219.307 676.938 219.147 677.205 219.04C677.498 218.933 677.831 218.88 678.205 218.88C678.605 218.88 678.991 218.947 679.365 219.08C679.765 219.213 679.978 219.427 680.005 219.72C680.058 219.987 680.111 220.307 680.165 220.68C680.218 221.053 680.285 221.387 680.365 221.68L683.805 234.64L688.125 222.24C688.258 221.84 688.338 221.44 688.365 221.04C688.418 220.613 688.471 220.187 688.525 219.76C688.551 219.6 688.658 219.48 688.845 219.4C689.058 219.32 689.298 219.28 689.565 219.28C690.098 219.28 690.631 219.373 691.165 219.56C691.725 219.747 692.018 219.96 692.045 220.2C692.098 220.493 692.138 220.787 692.165 221.08C692.191 221.347 692.245 221.613 692.325 221.88L696.125 234.64L700.405 221.76ZM712.223 212.56C712.223 213.067 712.05 213.507 711.703 213.88C711.357 214.227 710.877 214.4 710.263 214.4C709.757 214.4 709.29 214.147 708.863 213.64C708.463 213.107 708.263 212.56 708.263 212C708.263 211.467 708.423 211.013 708.743 210.64C709.09 210.267 709.597 210.08 710.263 210.08C710.743 210.08 711.183 210.347 711.583 210.88C712.01 211.413 712.223 211.973 712.223 212.56ZM708.903 223.28C708.903 223.013 708.89 222.6 708.863 222.04C708.837 221.48 708.81 220.907 708.783 220.32C708.783 219.733 708.783 219.293 708.783 219C708.783 218.76 709.037 218.64 709.543 218.64C709.997 218.64 710.477 218.747 710.983 218.96C711.49 219.147 711.743 219.4 711.743 219.72C711.743 219.933 711.73 220.267 711.703 220.72C711.703 221.147 711.69 221.6 711.663 222.08C711.663 222.56 711.663 222.96 711.663 223.28V233.8C711.663 233.96 711.677 234.32 711.703 234.88C711.73 235.44 711.743 236.027 711.743 236.64C711.77 237.253 711.783 237.72 711.783 238.04C711.783 238.28 711.53 238.4 711.023 238.4C710.597 238.4 710.117 238.293 709.583 238.08C709.077 237.893 708.823 237.64 708.823 237.32C708.823 237.107 708.823 236.76 708.823 236.28C708.85 235.773 708.863 235.28 708.863 234.8C708.89 234.32 708.903 233.987 708.903 233.8V223.28ZM732.651 237.32C732.678 237.107 732.691 236.747 732.691 236.24C732.691 235.733 732.691 235.213 732.691 234.68C732.718 234.12 732.731 233.693 732.731 233.4V226.28C732.731 224.707 732.518 223.453 732.091 222.52C731.665 221.56 730.785 221.08 729.451 221.08C728.545 221.08 727.625 221.253 726.691 221.6C725.785 221.947 724.958 222.52 724.211 223.32C723.465 224.12 722.891 225.187 722.491 226.52C722.305 227.187 722.158 227.973 722.051 228.88C721.971 229.76 721.918 230.64 721.891 231.52C721.891 232.4 721.878 233.16 721.851 233.8V234.44C721.851 235.08 721.865 235.707 721.891 236.32C721.918 236.933 721.945 237.507 721.971 238.04C721.971 238.307 721.718 238.44 721.211 238.44C720.785 238.44 720.331 238.333 719.851 238.12C719.371 237.933 719.131 237.667 719.131 237.32C719.131 237.107 719.131 236.72 719.131 236.16C719.158 235.6 719.171 235.053 719.171 234.52C719.198 233.96 719.211 233.587 719.211 233.4V223.44C719.211 223.173 719.198 222.76 719.171 222.2C719.145 221.64 719.118 221.067 719.091 220.48C719.091 219.893 719.091 219.453 719.091 219.16C719.091 218.893 719.345 218.76 719.851 218.76C720.278 218.76 720.731 218.867 721.211 219.08C721.691 219.267 721.931 219.533 721.931 219.88C721.931 219.88 721.918 220.067 721.891 220.44C721.891 220.813 721.878 221.24 721.851 221.72C721.851 222.2 721.851 222.613 721.851 222.96C722.705 221.547 723.811 220.467 725.171 219.72C726.558 218.973 727.985 218.6 729.451 218.6C730.731 218.6 731.758 218.84 732.531 219.32C733.331 219.773 733.931 220.373 734.331 221.12C734.758 221.867 735.038 222.68 735.171 223.56C735.305 224.44 735.371 225.293 735.371 226.12V233.8C735.371 233.96 735.385 234.32 735.411 234.88C735.438 235.44 735.451 236.027 735.451 236.64C735.478 237.253 735.491 237.72 735.491 238.04C735.491 238.307 735.238 238.44 734.731 238.44C734.305 238.44 733.851 238.333 733.371 238.12C732.891 237.933 732.651 237.68 732.651 237.36V237.32ZM756.167 237.32C756.194 237.107 756.207 236.747 756.207 236.24C756.207 235.733 756.207 235.213 756.207 234.68C756.234 234.12 756.247 233.693 756.247 233.4V226.28C756.247 224.707 756.034 223.453 755.607 222.52C755.18 221.56 754.3 221.08 752.967 221.08C752.06 221.08 751.14 221.253 750.207 221.6C749.3 221.947 748.474 222.52 747.727 223.32C746.98 224.12 746.407 225.187 746.007 226.52C745.82 227.187 745.674 227.973 745.567 228.88C745.487 229.76 745.434 230.64 745.407 231.52C745.407 232.4 745.394 233.16 745.367 233.8V234.44C745.367 235.08 745.38 235.707 745.407 236.32C745.434 236.933 745.46 237.507 745.487 238.04C745.487 238.307 745.234 238.44 744.727 238.44C744.3 238.44 743.847 238.333 743.367 238.12C742.887 237.933 742.647 237.667 742.647 237.32C742.647 237.107 742.647 236.72 742.647 236.16C742.674 235.6 742.687 235.053 742.687 234.52C742.714 233.96 742.727 233.587 742.727 233.4V223.44C742.727 223.173 742.714 222.76 742.687 222.2C742.66 221.64 742.634 221.067 742.607 220.48C742.607 219.893 742.607 219.453 742.607 219.16C742.607 218.893 742.86 218.76 743.367 218.76C743.794 218.76 744.247 218.867 744.727 219.08C745.207 219.267 745.447 219.533 745.447 219.88C745.447 219.88 745.434 220.067 745.407 220.44C745.407 220.813 745.394 221.24 745.367 221.72C745.367 222.2 745.367 222.613 745.367 222.96C746.22 221.547 747.327 220.467 748.687 219.72C750.074 218.973 751.5 218.6 752.967 218.6C754.247 218.6 755.274 218.84 756.047 219.32C756.847 219.773 757.447 220.373 757.847 221.12C758.274 221.867 758.554 222.68 758.687 223.56C758.82 224.44 758.887 225.293 758.887 226.12V233.8C758.887 233.96 758.9 234.32 758.927 234.88C758.954 235.44 758.967 236.027 758.967 236.64C758.994 237.253 759.007 237.72 759.007 238.04C759.007 238.307 758.754 238.44 758.247 238.44C757.82 238.44 757.367 238.333 756.887 238.12C756.407 237.933 756.167 237.68 756.167 237.36V237.32ZM767.643 230.16V230.56C767.643 232.293 768.083 233.693 768.963 234.76C769.869 235.827 770.989 236.36 772.323 236.36C774.029 236.36 775.589 236.093 777.003 235.56C778.443 235 779.696 234.147 780.763 233C780.949 232.787 781.123 232.64 781.283 232.56C781.443 232.453 781.576 232.4 781.683 232.4C781.949 232.4 782.083 232.56 782.083 232.88C782.083 233.12 781.883 233.547 781.483 234.16C781.109 234.773 780.523 235.44 779.723 236.16C778.923 236.853 777.909 237.453 776.683 237.96C775.456 238.467 774.003 238.72 772.323 238.72C770.963 238.72 769.723 238.387 768.603 237.72C767.509 237.027 766.643 236.04 766.003 234.76C765.363 233.48 765.043 231.96 765.043 230.2V229.64C764.803 229.453 764.603 229.24 764.443 229C764.283 228.76 764.203 228.547 764.203 228.36C764.203 228.013 764.456 227.84 764.963 227.84C764.989 227.84 765.043 227.84 765.123 227.84C765.229 227.813 765.296 227.8 765.323 227.8C765.509 226.84 765.883 225.827 766.443 224.76C767.029 223.693 767.763 222.693 768.643 221.76C769.523 220.8 770.523 220.027 771.643 219.44C772.789 218.853 774.016 218.56 775.323 218.56C776.976 218.56 778.283 218.853 779.243 219.44C780.229 220 780.923 220.733 781.323 221.64C781.749 222.52 781.963 223.44 781.963 224.4C781.963 225.307 781.883 226.027 781.723 226.56C781.589 227.093 781.256 227.533 780.723 227.88C780.189 228.2 779.323 228.547 778.123 228.92C776.923 229.293 775.483 229.6 773.803 229.84C772.149 230.053 770.269 230.16 768.163 230.16H767.643ZM768.763 227.92C770.736 227.92 772.389 227.813 773.723 227.6C775.056 227.36 776.163 227.12 777.043 226.88C778.003 226.587 778.616 226.267 778.883 225.92C779.176 225.573 779.323 225.053 779.323 224.36C779.323 222.04 777.976 220.88 775.283 220.88C774.296 220.88 773.389 221.107 772.562 221.56C771.736 222.013 771.003 222.6 770.363 223.32C769.749 224.04 769.229 224.813 768.803 225.64C768.403 226.44 768.123 227.2 767.963 227.92H768.763ZM788.041 223.32C788.041 223.053 788.028 222.64 788.001 222.08C787.975 221.52 787.948 220.947 787.921 220.36C787.921 219.773 787.921 219.333 787.921 219.04C787.921 218.773 788.188 218.64 788.721 218.64C789.148 218.64 789.601 218.747 790.081 218.96C790.588 219.147 790.841 219.413 790.841 219.76C790.841 220.027 790.815 220.32 790.761 220.64C790.735 220.96 790.721 221.347 790.721 221.8C791.255 220.92 792.015 220.16 793.001 219.52C793.988 218.88 795.175 218.56 796.561 218.56C797.361 218.56 798.108 218.693 798.801 218.96C799.495 219.227 800.055 219.547 800.481 219.92C800.935 220.293 801.161 220.64 801.161 220.96C801.161 221.387 801.001 221.84 800.681 222.32C800.388 222.8 800.068 223.04 799.721 223.04C799.508 223.04 799.321 222.907 799.161 222.64C798.895 222.133 798.468 221.76 797.881 221.52C797.321 221.28 796.841 221.16 796.441 221.16C795.321 221.16 794.281 221.507 793.321 222.2C792.388 222.893 791.695 223.96 791.241 225.4C791.055 225.987 790.921 226.64 790.841 227.36C790.761 228.08 790.708 228.947 790.681 229.96C790.681 230.973 790.681 232.24 790.681 233.76C790.681 234.587 790.708 235.387 790.761 236.16C790.841 236.933 790.881 237.547 790.881 238C790.881 238.267 790.615 238.4 790.081 238.4C789.655 238.4 789.188 238.293 788.681 238.08C788.201 237.893 787.961 237.627 787.961 237.28C787.961 237.067 787.961 236.72 787.961 236.24C787.988 235.733 788.001 235.24 788.001 234.76C788.028 234.28 788.041 233.947 788.041 233.76V223.32ZM822.653 212.56C822.653 213.067 822.48 213.507 822.133 213.88C821.786 214.227 821.306 214.4 820.693 214.4C820.186 214.4 819.72 214.147 819.293 213.64C818.893 213.107 818.693 212.56 818.693 212C818.693 211.467 818.853 211.013 819.173 210.64C819.52 210.267 820.026 210.08 820.693 210.08C821.173 210.08 821.613 210.347 822.013 210.88C822.44 211.413 822.653 211.973 822.653 212.56ZM819.333 223.28C819.333 223.013 819.32 222.6 819.293 222.04C819.266 221.48 819.24 220.907 819.213 220.32C819.213 219.733 819.213 219.293 819.213 219C819.213 218.76 819.466 218.64 819.973 218.64C820.426 218.64 820.906 218.747 821.413 218.96C821.92 219.147 822.173 219.4 822.173 219.72C822.173 219.933 822.16 220.267 822.133 220.72C822.133 221.147 822.12 221.6 822.093 222.08C822.093 222.56 822.093 222.96 822.093 223.28V233.8C822.093 233.96 822.106 234.32 822.133 234.88C822.16 235.44 822.173 236.027 822.173 236.64C822.2 237.253 822.213 237.72 822.213 238.04C822.213 238.28 821.96 238.4 821.453 238.4C821.026 238.4 820.546 238.293 820.013 238.08C819.506 237.893 819.253 237.64 819.253 237.32C819.253 237.107 819.253 236.76 819.253 236.28C819.28 235.773 819.293 235.28 819.293 234.8C819.32 234.32 819.333 233.987 819.333 233.8V223.28ZM833.761 228.32C832.268 227.973 831.148 227.44 830.401 226.72C829.654 225.973 829.281 224.987 829.281 223.76C829.281 222.72 829.614 221.813 830.281 221.04C830.948 220.267 831.841 219.667 832.961 219.24C834.081 218.787 835.294 218.56 836.601 218.56C838.148 218.56 839.414 218.787 840.401 219.24C841.388 219.667 842.254 220.28 843.001 221.08C843.054 221.133 843.081 221.253 843.081 221.44C843.081 221.787 842.934 222.173 842.641 222.6C842.374 223.027 842.094 223.24 841.801 223.24C841.641 223.24 841.428 223.067 841.161 222.72C840.761 222.107 840.254 221.667 839.641 221.4C839.054 221.107 838.481 220.933 837.921 220.88C837.361 220.8 836.921 220.76 836.601 220.76C835.054 220.76 833.881 221.067 833.081 221.68C832.281 222.267 831.881 222.987 831.881 223.84C831.881 224.373 832.054 224.827 832.401 225.2C832.774 225.573 833.508 225.893 834.601 226.16L838.441 227.08C840.174 227.48 841.534 228.133 842.521 229.04C843.534 229.947 844.041 231.227 844.041 232.88C844.041 233.947 843.721 234.92 843.081 235.8C842.468 236.68 841.588 237.387 840.441 237.92C839.294 238.453 837.934 238.72 836.361 238.72C834.814 238.72 833.521 238.533 832.481 238.16C831.468 237.787 830.654 237.347 830.041 236.84C829.428 236.333 828.988 235.867 828.721 235.44C828.454 235.013 828.321 234.733 828.321 234.6C828.321 234.2 828.508 233.787 828.881 233.36C829.281 232.907 829.628 232.68 829.921 232.68C830.108 232.68 830.241 232.773 830.321 232.96C830.534 233.493 830.828 234.027 831.201 234.56C831.601 235.093 832.201 235.533 833.001 235.88C833.801 236.227 834.921 236.4 836.361 236.4C837.988 236.4 839.228 236.053 840.081 235.36C840.961 234.667 841.401 233.867 841.401 232.96C841.401 232.027 841.161 231.267 840.681 230.68C840.201 230.093 839.228 229.627 837.761 229.28L833.761 228.32Z" fill="#A45212"/>
<path d="M515.511 280C514.818 279.787 514.098 279.307 513.351 278.56C512.658 277.813 512.311 277.147 512.311 276.56C512.311 276.133 512.498 275.84 512.871 275.68C513.671 275.36 514.845 275.067 516.391 274.8C517.938 274.48 519.645 274.187 521.511 273.92C523.431 273.653 525.351 273.467 527.271 273.36C529.245 273.2 531.031 273.12 532.631 273.12C536.898 273.12 540.338 273.68 542.951 274.8C545.565 275.867 547.458 277.333 548.631 279.2C549.858 281.067 550.471 283.147 550.471 285.44C550.471 287.627 549.938 289.573 548.871 291.28C547.858 292.987 546.578 294.427 545.031 295.6C543.538 296.72 542.045 297.573 540.551 298.16C543.111 298.427 545.485 299.227 547.671 300.56C549.858 301.84 551.618 303.547 552.951 305.68C554.285 307.76 554.951 310.133 554.951 312.8C554.951 316.267 554.231 319.12 552.791 321.36C551.351 323.6 549.431 325.36 547.031 326.64C544.631 327.92 542.018 328.853 539.191 329.44C536.365 330.027 533.511 330.4 530.631 330.56C527.805 330.72 525.218 330.8 522.871 330.8C521.698 330.8 520.098 330.72 518.071 330.56C516.045 330.453 514.311 330.293 512.871 330.08C511.805 329.867 511.271 329.387 511.271 328.64C511.271 328.32 511.431 328.027 511.751 327.76C512.071 327.44 512.498 327.28 513.031 327.28C513.405 327.28 513.858 327.28 514.391 327.28C514.925 327.227 515.298 327.173 515.511 327.12V280ZM522.151 297.36C523.698 297.36 525.458 297.307 527.431 297.2C529.405 297.04 530.978 296.853 532.151 296.64C534.125 296.267 536.071 295.627 537.991 294.72C539.911 293.76 541.511 292.533 542.791 291.04C544.125 289.547 544.791 287.84 544.791 285.92C544.791 283.253 543.725 281.28 541.591 280C539.458 278.667 536.151 278 531.671 278C527.938 278 524.418 278.453 521.111 279.36V297.36H522.151ZM533.191 301.36C531.378 301.36 529.351 301.413 527.111 301.52C524.871 301.627 522.871 301.76 521.111 301.92V326.88C526.178 326.88 530.391 326.587 533.751 326C537.165 325.36 539.885 324.533 541.911 323.52C543.991 322.507 545.565 321.387 546.631 320.16C547.698 318.933 548.391 317.707 548.711 316.48C549.085 315.253 549.271 314.107 549.271 313.04C549.271 310.853 548.818 309.04 547.911 307.6C547.005 306.107 545.805 304.907 544.311 304C542.871 303.093 541.298 302.453 539.591 302.08C537.885 301.653 536.258 301.413 534.711 301.36H533.191ZM566.823 282.8C566.823 282.267 566.796 281.44 566.743 280.32C566.689 279.2 566.636 278.053 566.583 276.88C566.583 275.707 566.583 274.827 566.583 274.24C566.583 273.973 566.743 273.787 567.063 273.68C567.383 273.52 567.756 273.44 568.183 273.44C569.089 273.44 570.023 273.653 570.983 274.08C571.996 274.453 572.503 274.987 572.503 275.68C572.503 276.107 572.476 276.773 572.423 277.68C572.423 278.533 572.396 279.44 572.343 280.4C572.343 281.36 572.343 282.16 572.343 282.8V321.6C572.343 321.92 572.369 322.64 572.423 323.76C572.476 324.88 572.503 326.053 572.503 327.28C572.556 328.507 572.583 329.44 572.583 330.08C572.583 330.347 572.423 330.533 572.103 330.64C571.783 330.8 571.409 330.88 570.983 330.88C570.129 330.88 569.196 330.667 568.183 330.24C567.169 329.867 566.663 329.333 566.663 328.64C566.663 328.213 566.663 327.52 566.663 326.56C566.716 325.547 566.743 324.56 566.743 323.6C566.796 322.64 566.823 321.973 566.823 321.6V282.8ZM620.078 293.44C619.918 294.4 619.705 296.427 619.438 299.52C619.225 302.613 619.118 306.453 619.118 311.04C619.118 311.467 619.118 312.32 619.118 313.6C619.171 314.827 619.278 316.267 619.438 317.92C619.651 319.573 619.971 321.227 620.398 322.88C620.825 324.533 621.411 325.973 622.158 327.2C622.211 327.307 622.238 327.467 622.238 327.68C622.238 328.267 621.865 328.987 621.118 329.84C620.425 330.64 619.625 331.04 618.718 331.04C618.025 331.04 617.438 330.693 616.958 330C616.478 329.253 616.078 328.32 615.758 327.2C615.438 326.08 615.171 324.96 614.958 323.84C614.798 322.667 614.691 321.68 614.638 320.88C613.198 323.813 611.118 326.32 608.398 328.4C605.731 330.427 602.745 331.44 599.438 331.44C596.345 331.44 593.918 330.72 592.158 329.28C590.451 327.84 589.225 325.973 588.478 323.68C587.785 321.387 587.438 318.933 587.438 316.32V300.56C587.438 300.24 587.411 299.52 587.358 298.4C587.305 297.28 587.251 296.107 587.198 294.88C587.198 293.6 587.198 292.667 587.198 292.08C587.198 291.547 587.731 291.28 588.798 291.28C589.651 291.28 590.558 291.493 591.518 291.92C592.531 292.293 593.038 292.827 593.038 293.52C593.038 293.947 593.011 294.613 592.958 295.52C592.958 296.373 592.931 297.28 592.878 298.24C592.878 299.147 592.878 299.92 592.878 300.56V316C592.878 319.093 593.438 321.653 594.558 323.68C595.678 325.653 597.305 326.64 599.438 326.64C601.625 326.64 603.785 325.76 605.918 324C608.105 322.24 609.945 319.813 611.438 316.72C612.985 313.573 613.865 309.973 614.078 305.92C614.131 305.067 614.158 303.973 614.158 302.64C614.158 301.253 614.158 299.84 614.158 298.4V292C614.158 291.467 614.718 291.2 615.838 291.2C616.745 291.2 617.678 291.387 618.638 291.76C619.598 292.133 620.078 292.64 620.078 293.28V293.44ZM637.426 314.32V315.12C637.426 318.587 638.306 321.387 640.066 323.52C641.879 325.653 644.119 326.72 646.786 326.72C650.199 326.72 653.319 326.187 656.146 325.12C659.026 324 661.532 322.293 663.666 320C664.039 319.573 664.386 319.28 664.706 319.12C665.026 318.907 665.292 318.8 665.506 318.8C666.039 318.8 666.306 319.12 666.306 319.76C666.306 320.24 665.906 321.093 665.106 322.32C664.359 323.547 663.186 324.88 661.586 326.32C659.986 327.707 657.959 328.907 655.506 329.92C653.052 330.933 650.146 331.44 646.786 331.44C644.066 331.44 641.586 330.773 639.346 329.44C637.159 328.053 635.426 326.08 634.146 323.52C632.866 320.96 632.226 317.92 632.226 314.4V313.28C631.746 312.907 631.346 312.48 631.026 312C630.706 311.52 630.546 311.093 630.546 310.72C630.546 310.027 631.052 309.68 632.066 309.68C632.119 309.68 632.226 309.68 632.386 309.68C632.599 309.627 632.732 309.6 632.786 309.6C633.159 307.68 633.906 305.653 635.026 303.52C636.199 301.387 637.666 299.387 639.426 297.52C641.186 295.6 643.186 294.053 645.426 292.88C647.719 291.707 650.172 291.12 652.786 291.12C656.092 291.12 658.706 291.707 660.626 292.88C662.599 294 663.986 295.467 664.786 297.28C665.639 299.04 666.066 300.88 666.066 302.8C666.066 304.613 665.906 306.053 665.586 307.12C665.319 308.187 664.652 309.067 663.586 309.76C662.519 310.4 660.786 311.093 658.386 311.84C655.986 312.587 653.106 313.2 649.746 313.68C646.439 314.107 642.679 314.32 638.466 314.32H637.426ZM639.666 309.84C643.612 309.84 646.919 309.627 649.586 309.2C652.252 308.72 654.466 308.24 656.226 307.76C658.146 307.173 659.372 306.533 659.906 305.84C660.492 305.147 660.786 304.107 660.786 302.72C660.786 298.08 658.092 295.76 652.706 295.76C650.732 295.76 648.919 296.213 647.266 297.12C645.612 298.027 644.146 299.2 642.866 300.64C641.639 302.08 640.599 303.627 639.746 305.28C638.946 306.88 638.386 308.4 638.066 309.84H639.666ZM707.152 280.56H707.072C706.272 280.56 705.472 280.08 704.672 279.12C703.872 278.16 703.472 277.333 703.472 276.64C703.472 276.107 703.712 275.813 704.192 275.76C707.552 275.12 710.219 274.64 712.192 274.32C714.165 273.947 715.765 273.68 716.992 273.52C718.272 273.307 719.445 273.2 720.512 273.2C721.579 273.147 722.832 273.12 724.272 273.12C731.259 273.12 736.405 274.293 739.712 276.64C743.019 278.933 744.672 282.133 744.672 286.24C744.672 290.933 743.179 294.667 740.192 297.44C737.259 300.213 733.339 302.107 728.432 303.12C726.939 303.44 724.965 303.733 722.512 304C720.112 304.267 717.899 304.4 715.872 304.4C715.445 304.4 715.019 304.4 714.592 304.4C714.219 304.4 713.872 304.373 713.552 304.32C713.232 304.213 712.965 304.107 712.752 304V320.8C712.752 322.613 712.779 324.4 712.832 326.16C712.939 327.867 712.992 329.173 712.992 330.08C712.992 330.613 712.432 330.88 711.312 330.88C710.459 330.88 709.525 330.667 708.512 330.24C707.499 329.867 706.992 329.333 706.992 328.64C706.992 328 707.019 326.907 707.072 325.36C707.125 323.813 707.152 322.267 707.152 320.72V280.56ZM712.752 301.04C712.912 300.933 713.072 300.853 713.232 300.8C713.392 300.747 713.579 300.72 713.792 300.72C718.699 300.4 722.725 299.787 725.872 298.88C729.019 297.973 731.472 296.933 733.232 295.76C735.045 294.533 736.352 293.333 737.152 292.16C737.952 290.933 738.432 289.84 738.592 288.88C738.805 287.867 738.912 287.147 738.912 286.72C738.912 283.733 737.605 281.573 734.992 280.24C732.432 278.853 728.805 278.16 724.112 278.16C722.192 278.16 720.245 278.32 718.272 278.64C716.299 278.907 714.459 279.28 712.752 279.76V301.04ZM755.885 282.8C755.885 282.267 755.858 281.44 755.805 280.32C755.752 279.2 755.698 278.053 755.645 276.88C755.645 275.707 755.645 274.827 755.645 274.24C755.645 273.973 755.805 273.787 756.125 273.68C756.445 273.52 756.818 273.44 757.245 273.44C758.152 273.44 759.085 273.653 760.045 274.08C761.058 274.453 761.565 274.987 761.565 275.68C761.565 276.107 761.538 276.773 761.485 277.68C761.485 278.533 761.458 279.44 761.405 280.4C761.405 281.36 761.405 282.16 761.405 282.8V321.6C761.405 321.92 761.432 322.64 761.485 323.76C761.538 324.88 761.565 326.053 761.565 327.28C761.618 328.507 761.645 329.44 761.645 330.08C761.645 330.347 761.485 330.533 761.165 330.64C760.845 330.8 760.472 330.88 760.045 330.88C759.192 330.88 758.258 330.667 757.245 330.24C756.232 329.867 755.725 329.333 755.725 328.64C755.725 328.213 755.725 327.52 755.725 326.56C755.778 325.547 755.805 324.56 755.805 323.6C755.858 322.64 755.885 321.973 755.885 321.6V282.8ZM808.261 293.44C808.101 294.613 807.941 296.187 807.781 298.16C807.674 300.08 807.567 302.133 807.461 304.32C807.407 306.453 807.354 308.453 807.301 310.32C807.247 312.187 807.221 313.6 807.221 314.56C807.221 315.307 807.247 316.427 807.301 317.92C807.407 319.36 807.647 320.907 808.021 322.56C808.447 324.213 809.114 325.76 810.021 327.2C810.127 327.413 810.181 327.573 810.181 327.68C810.181 328.267 809.807 328.987 809.061 329.84C808.367 330.64 807.567 331.04 806.661 331.04C805.861 331.04 805.141 330.48 804.501 329.36C803.914 328.187 803.434 326.8 803.061 325.2C802.741 323.547 802.501 322 802.341 320.56C800.367 324.293 797.967 327.04 795.141 328.8C792.367 330.56 789.487 331.44 786.501 331.44C782.607 331.44 779.487 330.133 777.141 327.52C774.794 324.853 773.621 321.013 773.621 316C773.621 312.587 774.181 309.387 775.301 306.4C776.421 303.413 777.914 300.773 779.781 298.48C781.701 296.187 783.834 294.4 786.181 293.12C788.527 291.787 790.927 291.12 793.381 291.12C795.247 291.12 796.954 291.547 798.501 292.4C800.047 293.2 801.274 294.533 802.181 296.4V292C802.181 291.467 802.741 291.2 803.861 291.2C804.767 291.2 805.727 291.387 806.741 291.76C807.754 292.133 808.261 292.64 808.261 293.28V293.44ZM802.101 299.6C801.621 300.08 801.167 300.32 800.741 300.32C800.527 300.32 800.341 300.213 800.181 300C799.274 298.453 798.207 297.36 796.981 296.72C795.807 296.08 794.607 295.76 793.381 295.76C791.727 295.76 790.047 296.267 788.341 297.28C786.687 298.24 785.141 299.627 783.701 301.44C782.314 303.2 781.194 305.307 780.341 307.76C779.487 310.16 779.061 312.773 779.061 315.6C779.061 319.653 779.754 322.507 781.141 324.16C782.527 325.813 784.287 326.64 786.421 326.64C788.981 326.64 791.407 325.813 793.701 324.16C795.994 322.453 797.887 320.107 799.381 317.12C800.927 314.133 801.781 310.667 801.941 306.72C801.994 305.973 802.021 304.933 802.021 303.6C802.021 302.267 802.047 300.933 802.101 299.6ZM823.636 343.12C822.623 343.12 821.476 343.013 820.196 342.8C818.916 342.587 817.663 341.973 816.436 340.96C816.17 340.693 816.036 340.347 816.036 339.92C816.036 339.173 816.303 338.32 816.836 337.36C817.37 336.453 817.983 336 818.676 336C819.05 336 819.396 336.187 819.716 336.56C820.41 337.253 821.156 337.68 821.956 337.84C822.756 338 823.503 338.08 824.196 338.08C825.05 338.08 825.876 337.76 826.676 337.12C827.53 336.48 828.33 335.333 829.076 333.68L832.596 326.32L820.916 299.84C820.543 299.04 820.01 297.973 819.316 296.64C818.676 295.307 818.116 294.213 817.636 293.36C817.53 293.147 817.476 292.987 817.476 292.88C817.476 292.453 817.796 292.133 818.436 291.92C819.13 291.707 819.876 291.6 820.676 291.6C821.423 291.6 822.09 291.68 822.676 291.84C823.316 292 823.69 292.267 823.796 292.64C824.17 293.6 824.543 294.587 824.916 295.6C825.343 296.56 825.77 297.547 826.196 298.56L835.476 320.08L845.316 299.36C845.85 298.293 846.356 297.093 846.836 295.76C847.37 294.427 847.823 293.147 848.196 291.92C848.356 291.44 848.81 291.2 849.556 291.2C850.356 291.2 851.21 291.493 852.116 292.08C853.023 292.667 853.476 293.387 853.476 294.24C853.476 294.56 853.396 294.88 853.236 295.2C852.81 296 852.303 296.96 851.716 298.08C851.13 299.147 850.596 300.16 850.116 301.12L833.236 336.56C832.17 338.8 830.943 340.453 829.556 341.52C828.223 342.587 826.516 343.12 824.436 343.12H823.636ZM865.316 314.32V315.12C865.316 318.587 866.196 321.387 867.956 323.52C869.77 325.653 872.01 326.72 874.676 326.72C878.09 326.72 881.21 326.187 884.036 325.12C886.916 324 889.423 322.293 891.556 320C891.93 319.573 892.276 319.28 892.596 319.12C892.916 318.907 893.183 318.8 893.396 318.8C893.93 318.8 894.196 319.12 894.196 319.76C894.196 320.24 893.796 321.093 892.996 322.32C892.25 323.547 891.076 324.88 889.476 326.32C887.876 327.707 885.85 328.907 883.396 329.92C880.943 330.933 878.036 331.44 874.676 331.44C871.956 331.44 869.476 330.773 867.236 329.44C865.05 328.053 863.316 326.08 862.036 323.52C860.756 320.96 860.116 317.92 860.116 314.4V313.28C859.636 312.907 859.236 312.48 858.916 312C858.596 311.52 858.436 311.093 858.436 310.72C858.436 310.027 858.943 309.68 859.956 309.68C860.01 309.68 860.116 309.68 860.276 309.68C860.49 309.627 860.623 309.6 860.676 309.6C861.05 307.68 861.796 305.653 862.916 303.52C864.09 301.387 865.556 299.387 867.316 297.52C869.076 295.6 871.076 294.053 873.316 292.88C875.61 291.707 878.063 291.12 880.676 291.12C883.983 291.12 886.596 291.707 888.516 292.88C890.49 294 891.876 295.467 892.676 297.28C893.53 299.04 893.956 300.88 893.956 302.8C893.956 304.613 893.796 306.053 893.476 307.12C893.21 308.187 892.543 309.067 891.476 309.76C890.41 310.4 888.676 311.093 886.276 311.84C883.876 312.587 880.996 313.2 877.636 313.68C874.33 314.107 870.57 314.32 866.356 314.32H865.316ZM867.556 309.84C871.503 309.84 874.81 309.627 877.476 309.2C880.143 308.72 882.356 308.24 884.116 307.76C886.036 307.173 887.263 306.533 887.796 305.84C888.383 305.147 888.676 304.107 888.676 302.72C888.676 298.08 885.983 295.76 880.596 295.76C878.623 295.76 876.81 296.213 875.156 297.12C873.503 298.027 872.036 299.2 870.756 300.64C869.53 302.08 868.49 303.627 867.636 305.28C866.836 306.88 866.276 308.4 865.956 309.84H867.556ZM906.114 300.64C906.114 300.107 906.087 299.28 906.034 298.16C905.98 297.04 905.927 295.893 905.874 294.72C905.874 293.547 905.874 292.667 905.874 292.08C905.874 291.547 906.407 291.28 907.474 291.28C908.327 291.28 909.234 291.493 910.194 291.92C911.207 292.293 911.714 292.827 911.714 293.52C911.714 294.053 911.66 294.64 911.554 295.28C911.5 295.92 911.474 296.693 911.474 297.6C912.54 295.84 914.06 294.32 916.034 293.04C918.007 291.76 920.38 291.12 923.154 291.12C924.754 291.12 926.247 291.387 927.634 291.92C929.02 292.453 930.14 293.093 930.994 293.84C931.9 294.587 932.354 295.28 932.354 295.92C932.354 296.773 932.034 297.68 931.394 298.64C930.807 299.6 930.167 300.08 929.474 300.08C929.047 300.08 928.674 299.813 928.354 299.28C927.82 298.267 926.967 297.52 925.794 297.04C924.674 296.56 923.714 296.32 922.914 296.32C920.674 296.32 918.594 297.013 916.674 298.4C914.807 299.787 913.42 301.92 912.514 304.8C912.14 305.973 911.874 307.28 911.714 308.72C911.554 310.16 911.447 311.893 911.394 313.92C911.394 315.947 911.394 318.48 911.394 321.52C911.394 323.173 911.447 324.773 911.554 326.32C911.714 327.867 911.794 329.093 911.794 330C911.794 330.533 911.26 330.8 910.194 330.8C909.34 330.8 908.407 330.587 907.394 330.16C906.434 329.787 905.954 329.253 905.954 328.56C905.954 328.133 905.954 327.44 905.954 326.48C906.007 325.467 906.034 324.48 906.034 323.52C906.087 322.56 906.114 321.893 906.114 321.52V300.64Z" fill="#A45212"/>
<g filter="url(#filter0_d_2258_3984)">
<rect width="260" height="298" transform="translate(590 417)" fill="#F7E6D5"/>
<path d="M645 691C638.125 691 632.24 688.552 627.344 683.656C622.448 678.76 620 672.875 620 666V641.312C620 637.146 620.938 633.292 622.812 629.75C624.688 626.208 627.188 623.188 630.312 620.688C644.688 609.021 655.469 597.25 662.656 585.375C669.844 573.5 674.896 562.875 677.812 553.5H657.5C653.958 553.5 650.99 552.302 648.594 549.906C646.198 547.51 645 544.542 645 541C645 537.458 646.198 534.49 648.594 532.094C650.99 529.698 653.958 528.5 657.5 528.5H673.125C670.208 523.917 667.917 519.021 666.25 513.812C664.583 508.604 663.75 503.083 663.75 497.25C663.75 481.625 669.219 468.344 680.156 457.406C691.094 446.469 704.375 441 720 441C735.625 441 748.906 446.469 759.844 457.406C770.781 468.344 776.25 481.625 776.25 497.25C776.25 503.083 775.417 508.604 773.75 513.812C772.083 519.021 769.792 523.917 766.875 528.5H782.5C786.042 528.5 789.01 529.698 791.406 532.094C793.802 534.49 795 537.458 795 541C795 544.542 793.802 547.51 791.406 549.906C789.01 552.302 786.042 553.5 782.5 553.5H762.188C765.104 562.875 770.156 573.5 777.344 585.375C784.531 597.25 795.312 609.021 809.688 620.688C812.812 623.188 815.312 626.208 817.188 629.75C819.062 633.292 820 637.146 820 641.312V666C820 672.875 817.552 678.76 812.656 683.656C807.76 688.552 801.875 691 795 691H645ZM645 666H795V641C775.833 626 761.979 610.531 753.438 594.594C744.896 578.656 739.167 564.958 736.25 553.5H703.75C700.833 564.958 695.104 578.656 686.562 594.594C678.021 610.531 664.167 626 645 641V666ZM720 528.5C728.75 528.5 736.146 525.479 742.188 519.438C748.229 513.396 751.25 506 751.25 497.25C751.25 488.5 748.229 481.104 742.188 475.062C736.146 469.021 728.75 466 720 466C711.25 466 703.854 469.021 697.812 475.062C691.771 481.104 688.75 488.5 688.75 497.25C688.75 506 691.771 513.396 697.812 519.438C703.854 525.479 711.25 528.5 720 528.5Z" fill="#097FC5"/>
</g>
<g filter="url(#filter1_d_2258_3984)">
<rect x="671.5" y="779" width="97" height="45" rx="10" fill="#F3832D" shape-rendering="crispEdges"/>
<path d="M699.9 800.752L699.804 797.584C699.804 796.421 700.204 795.84 701.004 795.84C701.815 795.84 702.22 796.421 702.22 797.584C702.22 798.245 702.183 799.275 702.108 800.672C702.428 800.736 702.679 800.869 702.86 801.072C703.052 801.275 703.148 801.515 703.148 801.792C703.148 802.069 703.057 802.309 702.876 802.512C702.695 802.715 702.439 802.837 702.108 802.88L702.22 806.432C702.22 807.584 701.815 808.16 701.004 808.16C700.204 808.16 699.804 807.584 699.804 806.432L699.9 802.8L697.676 802.752L695.516 802.8L695.628 806.432C695.628 807.584 695.223 808.16 694.412 808.16C693.601 808.16 693.196 807.584 693.196 806.432L693.308 802.88C692.977 802.837 692.721 802.715 692.54 802.512C692.369 802.299 692.284 802.059 692.284 801.792C692.284 801.515 692.375 801.275 692.556 801.072C692.748 800.869 692.999 800.736 693.308 800.672L693.212 797.6C693.212 796.437 693.617 795.856 694.428 795.856C695.239 795.856 695.644 796.437 695.644 797.6C695.644 798.283 695.607 799.333 695.532 800.752L697.676 800.8C698.401 800.8 699.143 800.784 699.9 800.752ZM710.498 806.224C711.447 806.224 712.237 805.797 712.866 804.944C713.495 804.091 713.81 803.104 713.81 801.984C713.81 800.853 713.495 799.872 712.866 799.04C712.247 798.197 711.458 797.776 710.498 797.776C709.549 797.776 708.759 798.197 708.13 799.04C707.511 799.872 707.202 800.853 707.202 801.984C707.202 803.104 707.517 804.091 708.146 804.944C708.775 805.797 709.559 806.224 710.498 806.224ZM710.514 795.76C712.103 795.76 713.426 796.368 714.482 797.584C715.549 798.789 716.082 800.261 716.082 802C716.082 803.728 715.549 805.2 714.482 806.416C713.415 807.632 712.087 808.24 710.498 808.24C708.919 808.24 707.597 807.632 706.53 806.416C705.463 805.2 704.93 803.728 704.93 802C704.93 800.261 705.463 798.789 706.53 797.584C707.607 796.368 708.935 795.76 710.514 795.76ZM720.71 801.728L720.806 806.432C720.806 807.584 720.406 808.16 719.606 808.16C718.71 808.16 718.262 807.483 718.262 806.128C718.262 805.061 718.4 803.616 718.678 801.792C718.678 801.291 718.619 800.528 718.502 799.504C718.384 798.48 718.326 797.733 718.326 797.264C718.326 796.784 718.432 796.421 718.646 796.176C718.859 795.92 719.158 795.792 719.542 795.792C720.32 795.792 720.71 796.395 720.71 797.6C721.595 796.427 722.683 795.84 723.974 795.84C724.742 795.84 725.408 796.027 725.974 796.4C726.55 796.773 726.992 797.269 727.302 797.888C727.686 797.312 728.187 796.827 728.806 796.432C729.424 796.037 730.091 795.84 730.806 795.84C732.011 795.84 732.944 796.261 733.606 797.104C734.278 797.936 734.614 798.955 734.614 800.16L734.518 804.24C734.518 805.264 734.582 805.835 734.71 805.952C734.816 806.048 734.955 806.112 735.126 806.144C735.296 806.176 735.408 806.229 735.462 806.304C735.526 806.368 735.558 806.464 735.558 806.592C735.558 807.04 735.403 807.419 735.094 807.728C734.795 808.037 734.443 808.192 734.038 808.192C733.366 808.192 732.902 807.963 732.646 807.504C732.39 807.035 732.262 806.347 732.262 805.44L732.342 801.152C732.342 800.171 732.192 799.381 731.894 798.784C731.606 798.187 731.168 797.888 730.582 797.888C730.006 797.888 729.414 798.277 728.806 799.056C728.208 799.824 727.787 800.715 727.542 801.728L727.638 806.432C727.638 807.584 727.238 808.16 726.438 808.16C725.542 808.16 725.094 807.483 725.094 806.128C725.094 805.061 725.232 803.616 725.51 801.792C725.51 800.576 725.366 799.621 725.078 798.928C724.79 798.235 724.352 797.888 723.766 797.888C723.179 797.888 722.582 798.277 721.974 799.056C721.376 799.824 720.955 800.715 720.71 801.728ZM745.335 799.328C745.335 798.944 745.18 798.592 744.871 798.272C744.561 797.952 744.119 797.792 743.543 797.792C742.785 797.792 742.14 798.112 741.607 798.752C741.084 799.392 740.716 800.16 740.503 801.056C741.143 801.205 741.857 801.28 742.647 801.28C743.447 801.28 744.092 801.109 744.583 800.768C745.084 800.427 745.335 799.947 745.335 799.328ZM747.239 806.064C747.239 806.48 746.844 806.949 746.055 807.472C745.265 807.984 744.423 808.24 743.527 808.24C742.631 808.24 741.857 808.085 741.207 807.776C740.567 807.456 740.039 807.029 739.623 806.496C738.748 805.397 738.257 804.101 738.151 802.608C737.425 802.32 737.063 801.877 737.063 801.28C737.063 800.981 737.159 800.741 737.351 800.56C737.553 800.368 737.799 800.272 738.087 800.272C738.172 800.272 738.268 800.288 738.375 800.32C738.748 798.997 739.383 797.909 740.279 797.056C741.175 796.192 742.22 795.76 743.415 795.76C744.62 795.76 745.617 796.107 746.407 796.8C747.207 797.483 747.607 798.304 747.607 799.264C747.607 800.213 747.367 800.992 746.887 801.6C745.98 802.709 744.577 803.264 742.679 803.264C742.049 803.264 741.319 803.195 740.487 803.056C740.647 803.952 740.983 804.704 741.495 805.312C742.007 805.92 742.593 806.224 743.255 806.224C743.991 806.224 744.775 805.973 745.607 805.472C745.884 805.301 746.14 805.216 746.375 805.216C746.609 805.216 746.812 805.296 746.983 805.456C747.153 805.616 747.239 805.819 747.239 806.064Z" fill="white"/>
</g>
<defs>
<filter id="filter0_d_2258_3984" x="587" y="414" width="272" height="310" filterUnits="userSpaceOnUse" color-interpolation-filters="sRGB">
<feFlood flood-opacity="0" result="BackgroundImageFix"/>
<feColorMatrix in="SourceAlpha" type="matrix" values="0 0 0 0 0 0 0 0 0 0 0 0 0 0 0 0 0 0 127 0" result="hardAlpha"/>
<feOffset dx="3" dy="3"/>
<feGaussianBlur stdDeviation="3"/>
<feComposite in2="hardAlpha" operator="out"/>
<feColorMatrix type="matrix" values="0 0 0 0 0 0 0 0 0 0 0 0 0 0 0 0 0 0 0.25 0"/>
<feBlend mode="normal" in2="BackgroundImageFix" result="effect1_dropShadow_2258_3984"/>
<feBlend mode="normal" in="SourceGraphic" in2="effect1_dropShadow_2258_3984" result="shape"/>
</filter>
<filter id="filter1_d_2258_3984" x="669.5" y="777" width="107" height="55" filterUnits="userSpaceOnUse" color-interpolation-filters="sRGB">
<feFlood flood-opacity="0" result="BackgroundImageFix"/>
<feColorMatrix in="SourceAlpha" type="matrix" values="0 0 0 0 0 0 0 0 0 0 0 0 0 0 0 0 0 0 127 0" result="hardAlpha"/>
<feOffset dx="3" dy="3"/>
<feGaussianBlur stdDeviation="2.5"/>
<feComposite in2="hardAlpha" operator="out"/>
<feColorMatrix type="matrix" values="0 0 0 0 0 0 0 0 0 0 0 0 0 0 0 0 0 0 0.2 0"/>
<feBlend mode="normal" in2="BackgroundImageFix" result="effect1_dropShadow_2258_3984"/>
<feBlend mode="normal" in="SourceGraphic" in2="effect1_dropShadow_2258_3984" result="shape"/>
</filter>
</defs>
</svg>
