<svg width="1440" height="1024" viewBox="0 0 1440 1024" fill="none" xmlns="http://www.w3.org/2000/svg">
<rect width="1440" height="1024" fill="#303131"/>
<path d="M1128.82 424.245C1129.73 424.245 1130.57 423.333 1131.36 421.509C1132.27 419.684 1132.73 416.687 1132.73 412.516V346.443C1132.73 342.273 1132.27 339.34 1131.36 337.646C1130.57 335.822 1129.73 334.844 1128.82 334.714C1134.55 334.714 1140.41 334.323 1146.41 333.541C1152.4 332.629 1157.1 331.716 1160.48 330.804V338.624L1160.09 341.947L1160.48 342.338C1161.4 340.904 1162.83 339.34 1164.78 337.646C1166.87 335.822 1169.48 334.258 1172.6 332.955C1175.86 331.521 1179.64 330.804 1183.94 330.804C1190.33 330.804 1196 331.716 1200.95 333.541C1205.9 335.235 1209.42 336.995 1211.5 338.819L1205.64 365.014V370.878C1203.69 368.142 1201.01 365.34 1197.63 362.473C1194.37 359.605 1190.72 357.194 1186.68 355.24C1182.77 353.285 1178.73 352.307 1174.56 352.307C1169.87 352.307 1166.35 354.002 1164 357.39C1161.66 360.778 1160.48 366.122 1160.48 373.42V412.516C1160.48 416.687 1160.87 419.684 1161.66 421.509C1162.57 423.333 1163.48 424.245 1164.39 424.245H1128.82Z" fill="white"/>
<path d="M1072.44 426.2C1062.14 426.2 1053.54 425.158 1046.63 423.072C1039.86 420.857 1034.45 417.729 1030.41 413.689C1026.37 409.519 1023.5 404.502 1021.81 398.637C1020.11 392.772 1019.26 386.126 1019.26 378.698C1019.26 363.971 1023.37 352.307 1031.58 343.706C1039.79 335.105 1052.37 330.804 1069.31 330.804C1079.21 330.804 1087.23 332.173 1093.35 334.909C1099.61 337.646 1104.37 341.295 1107.62 345.856C1110.88 350.418 1113.1 355.5 1114.27 361.104C1115.57 366.578 1116.22 372.116 1116.22 377.72V386.908C1116.22 386.517 1114.4 386.126 1110.75 385.735C1107.23 385.214 1101.24 384.953 1092.77 384.953H1047.41C1047.41 392.121 1049.56 397.529 1053.87 401.178C1058.3 404.697 1065.46 406.456 1075.37 406.456C1083.71 406.456 1091.14 405.479 1097.65 403.524C1104.3 401.439 1109.12 399.484 1112.12 397.66V403.524L1114.07 418.381C1111.6 420.075 1106.84 421.834 1099.8 423.659C1092.77 425.353 1083.64 426.2 1072.44 426.2ZM1054.65 368.142H1088.47C1088.47 365.274 1087.81 362.473 1086.51 359.736C1085.34 356.999 1083.38 354.784 1080.65 353.089C1077.91 351.265 1074.13 350.353 1069.31 350.353C1064.49 350.353 1060.58 351.069 1057.58 352.503C1054.71 353.936 1052.56 355.696 1051.13 357.781C1049.83 359.866 1049.17 362.016 1049.17 364.232C1049.17 365.535 1049.56 366.513 1050.35 367.164C1051.13 367.816 1052.56 368.142 1054.65 368.142Z" fill="white"/>
<path d="M943.893 424.245C944.805 424.245 945.391 423.398 945.652 421.704C946.043 419.879 945.456 416.817 943.893 412.516C943.371 410.822 942.198 407.824 940.374 403.524C938.68 399.223 936.66 394.271 934.314 388.667C931.968 383.063 929.557 377.394 927.081 371.66C924.735 365.796 922.52 360.517 920.435 355.826C918.48 351.004 916.981 347.355 915.938 344.879C914.114 340.448 912.224 337.32 910.269 335.496C908.445 333.671 907.011 332.759 905.969 332.759H945.652C944.74 332.759 944.153 333.671 943.893 335.496C943.632 337.32 944.218 340.448 945.652 344.879C946.434 347.094 947.542 350.483 948.975 355.044C950.539 359.605 952.298 364.818 954.253 370.683C956.208 376.417 958.163 382.281 960.118 388.276C962.203 394.271 964.093 399.81 965.787 404.892H965.982C967.676 399.81 969.371 394.792 971.065 389.84C972.759 384.757 974.453 379.74 976.147 374.788C977.842 369.705 979.536 364.688 981.23 359.736C982.924 354.653 984.618 349.57 986.313 344.488C987.746 340.317 988.333 337.32 988.072 335.496C987.811 333.671 987.225 332.759 986.313 332.759H1025.21C1024.3 332.759 1023 333.671 1021.3 335.496C1019.61 337.19 1017.85 340.122 1016.03 344.292C1015.11 346.638 1013.68 350.157 1011.73 354.848C1009.77 359.41 1007.56 364.557 1005.08 370.292C1002.73 375.895 1000.32 381.499 997.846 387.103C995.5 392.707 993.415 397.79 991.591 402.351C989.766 406.912 988.463 410.301 987.681 412.516C986.247 416.947 985.661 420.01 985.922 421.704C986.182 423.398 986.769 424.245 987.681 424.245H943.893Z" fill="white"/>
<path d="M861.419 426.2C848.386 426.2 838.156 424.115 830.728 419.945C823.43 415.774 818.282 410.105 815.284 402.938C812.417 395.77 810.984 387.69 810.984 378.698C810.984 369.575 812.483 361.43 815.48 354.262C818.608 347.094 823.821 341.425 831.119 337.255C838.417 332.955 848.517 330.804 861.419 330.804C874.321 330.804 884.421 332.955 891.719 337.255C899.017 341.425 904.164 347.094 907.162 354.262C910.29 361.43 911.853 369.575 911.853 378.698C911.853 387.69 910.355 395.77 907.357 402.938C904.49 410.105 899.408 415.774 892.11 419.945C884.811 424.115 874.581 426.2 861.419 426.2ZM861.419 406.456C866.892 406.456 871.258 405.674 874.516 404.111C877.904 402.416 880.315 399.549 881.749 395.509C883.313 391.469 884.095 385.865 884.095 378.698C884.095 371.53 883.313 365.926 881.749 361.886C880.315 357.716 877.904 354.784 874.516 353.089C871.258 351.265 866.892 350.353 861.419 350.353C855.945 350.353 851.514 351.265 848.126 353.089C844.868 354.914 842.457 357.911 840.893 362.082C839.459 366.252 838.743 371.856 838.743 378.893C838.743 385.8 839.459 391.274 840.893 395.314C842.457 399.354 844.868 402.221 848.126 403.915C851.514 405.609 855.945 406.456 861.419 406.456Z" fill="white"/>
<path d="M714.289 426.2C703.994 426.2 695.392 425.158 688.485 423.072C681.709 420.857 676.3 417.729 672.26 413.689C668.22 409.519 665.353 404.502 663.659 398.637C661.965 392.772 661.118 386.126 661.118 378.698C661.118 363.971 665.223 352.307 673.433 343.706C681.643 335.105 694.22 330.804 711.161 330.804C721.066 330.804 729.081 332.173 735.206 334.909C741.461 337.646 746.218 341.295 749.476 345.856C752.734 350.418 754.95 355.5 756.123 361.104C757.426 366.578 758.078 372.116 758.078 377.72V386.908C758.078 386.517 756.253 386.126 752.604 385.735C749.085 385.214 743.09 384.953 734.619 384.953H689.267C689.267 392.121 691.418 397.529 695.718 401.178C700.149 404.697 707.317 406.456 717.221 406.456C725.562 406.456 732.99 405.479 739.507 403.524C746.153 401.439 750.975 399.484 753.972 397.66V403.524L755.927 418.381C753.451 420.075 748.694 421.834 741.657 423.659C734.619 425.353 725.497 426.2 714.289 426.2ZM696.5 368.142H730.319C730.319 365.274 729.667 362.473 728.364 359.736C727.191 356.999 725.236 354.784 722.5 353.089C719.763 351.265 715.983 350.353 711.161 350.353C706.34 350.353 702.43 351.069 699.432 352.503C696.565 353.936 694.415 355.696 692.981 357.781C691.678 359.866 691.027 362.016 691.027 364.232C691.027 365.535 691.418 366.513 692.2 367.164C692.981 367.816 694.415 368.142 696.5 368.142Z" fill="white"/>
<path d="M486.98 424.245C487.893 424.245 488.74 423.333 489.522 421.509C490.434 419.684 490.89 416.687 490.89 412.516V346.443C490.89 342.273 490.434 339.34 489.522 337.646C488.74 335.822 487.893 334.844 486.98 334.714C492.715 334.714 498.579 334.323 504.574 333.541C510.569 332.629 515.26 331.716 518.649 330.804V342.729L518.258 345.27L518.649 345.661C519.04 344.749 520.278 343.12 522.363 340.774C524.448 338.428 527.446 336.213 531.355 334.127C535.265 331.912 540.087 330.804 545.821 330.804C557.941 330.804 567.194 334.258 573.58 341.165C580.096 348.072 583.354 358.889 583.354 373.615V412.516C583.354 416.687 583.745 419.684 584.527 421.509C585.439 423.333 586.351 424.245 587.264 424.245H551.686C552.598 424.245 553.445 423.333 554.227 421.509C555.139 419.684 555.595 416.687 555.595 412.516V374.202C555.595 368.076 554.944 363.32 553.64 359.931C552.337 356.413 550.513 353.936 548.167 352.503C545.951 351.069 543.345 350.353 540.347 350.353C536.698 350.353 533.18 351.265 529.791 353.089C526.533 354.784 523.862 357.52 521.777 361.3C519.691 364.949 518.649 369.836 518.649 375.961V412.516C518.649 416.687 519.04 419.684 519.822 421.509C520.734 423.333 521.646 424.245 522.558 424.245H486.98ZM616.195 424.245C617.107 424.115 617.954 423.138 618.736 421.313C619.649 419.489 620.105 416.556 620.105 412.516V375.961C620.105 370.748 619.583 366.252 618.541 362.473C617.629 358.563 616.065 355.565 613.849 353.48C611.634 351.395 608.636 350.353 604.857 350.353C598.471 350.353 593.258 352.633 589.218 357.194C585.309 361.756 583.354 368.663 583.354 377.916H569.084C569.084 371.66 570.061 365.731 572.016 360.127C573.971 354.393 576.773 349.375 580.422 345.074C584.071 340.644 588.436 337.19 593.519 334.714C598.602 332.107 604.205 330.804 610.331 330.804C618.15 330.804 624.862 332.238 630.465 335.105C636.069 337.842 640.37 342.468 643.367 348.984C646.365 355.5 647.863 364.362 647.863 375.57V412.516C647.863 416.556 648.254 419.489 649.036 421.313C649.949 423.138 650.861 424.115 651.773 424.245H616.195Z" fill="white"/>
<path d="M408.732 426.2C397.003 426.2 387.62 423.92 380.582 419.358C373.675 414.667 370.222 407.173 370.222 396.878C370.222 389.71 372.046 383.911 375.695 379.48C379.344 375.049 384.296 371.791 390.552 369.705C396.938 367.49 404.171 366.382 412.251 366.382C418.245 366.382 423.328 366.903 427.498 367.946C431.799 368.989 435.253 370.096 437.859 371.269C440.465 372.442 442.16 373.289 442.942 373.811C442.942 368.337 442.355 363.906 441.182 360.518C440.009 356.999 437.859 354.458 434.731 352.894C431.734 351.2 427.498 350.353 422.025 350.353C414.075 350.353 407.038 351.134 400.913 352.698C394.787 354.262 389.77 356.087 385.86 358.172C382.081 360.257 379.475 362.016 378.041 363.45V357.585L376.086 338.428C376.998 337.907 379.409 337.06 383.319 335.887C387.229 334.714 392.572 333.606 399.349 332.564C406.125 331.391 414.205 330.804 423.589 330.804C436.491 330.804 446.33 332.694 453.107 336.473C459.883 340.122 464.51 345.4 466.986 352.307C469.592 359.214 470.896 367.555 470.896 377.329V412.516C470.896 416.165 471.287 418.837 472.069 420.531C472.981 422.095 473.893 423.333 474.805 424.245H443.137V420.14L443.528 416.426L443.137 416.035C442.094 417.208 440.596 418.381 438.641 419.554C436.686 420.727 434.275 421.834 431.408 422.877C428.541 423.789 425.218 424.571 421.438 425.223C417.659 425.874 413.424 426.2 408.732 426.2ZM417.92 406.456C423.393 406.456 427.954 406.065 431.604 405.283C435.383 404.371 438.25 403.198 440.205 401.765C442.16 400.201 443.137 398.376 443.137 396.291C443.137 393.294 440.856 390.818 436.295 388.863C431.864 386.908 425.804 385.931 418.115 385.931C410.687 385.931 405.409 386.973 402.281 389.058C399.284 391.143 397.785 393.75 397.785 396.878C397.785 400.787 399.544 403.394 403.063 404.697C406.582 405.87 411.534 406.456 417.92 406.456Z" fill="white"/>
<path d="M287.277 426.2C269.553 426.2 255.543 421.313 245.248 411.539C235.083 401.634 230 386.451 230 365.991C230 354.001 232.281 343.445 236.842 334.323C241.403 325.07 248.636 317.902 258.541 312.819C268.445 307.606 281.282 305 297.051 305C309.431 305 319.662 305.652 327.742 306.955C335.952 308.258 341.556 309.561 344.553 310.864V316.729L348.463 338.232C344.944 335.626 338.754 333.019 329.892 330.413C321.03 327.806 310.213 326.503 297.442 326.503C288.71 326.503 281.543 328.002 275.939 330.999C270.335 333.866 266.23 338.232 263.623 344.097C261.017 349.961 259.714 357.259 259.714 365.991C259.714 375.374 260.886 382.933 263.232 388.667C265.578 394.271 269.357 398.311 274.57 400.787C279.783 403.263 286.69 404.501 295.292 404.501C301.808 404.501 307.086 403.85 311.126 402.546C315.166 401.113 318.163 399.223 320.118 396.877C322.073 394.401 323.05 391.664 323.05 388.667V385.539C323.05 382.542 322.79 380.848 322.268 380.457C321.877 379.935 320.183 379.675 317.186 379.675H310.93C306.499 379.675 302.72 380.131 299.592 381.043C296.464 381.955 294.249 382.868 292.946 383.78L294.901 364.427V358.562H356.478C355.566 358.693 354.653 359.67 353.741 361.495C352.959 363.189 352.568 366.121 352.568 370.292V412.516C352.568 416.686 352.959 419.684 353.741 421.508C354.653 423.333 355.566 424.245 356.478 424.245H323.05V421.704L323.441 416.23L323.05 415.839C322.138 417.142 320.313 418.641 317.577 420.335C314.84 421.899 310.995 423.268 306.043 424.44C301.221 425.613 294.966 426.2 287.277 426.2Z" fill="white"/>
<g filter="url(#filter0_d_2123_1540)">
<path d="M1132.82 426.245C1133.73 426.245 1134.57 425.333 1135.36 423.509C1136.27 421.684 1136.73 418.687 1136.73 414.516V348.443C1136.73 344.273 1136.27 341.34 1135.36 339.646C1134.57 337.822 1133.73 336.844 1132.82 336.714C1138.55 336.714 1144.41 336.323 1150.41 335.541C1156.4 334.629 1161.1 333.716 1164.48 332.804V340.624L1164.09 343.947L1164.48 344.338C1165.4 342.904 1166.83 341.34 1168.78 339.646C1170.87 337.822 1173.48 336.258 1176.6 334.955C1179.86 333.521 1183.64 332.804 1187.94 332.804C1194.33 332.804 1200 333.716 1204.95 335.541C1209.9 337.235 1213.42 338.995 1215.5 340.819L1209.64 367.014V372.878C1207.69 370.142 1205.01 367.34 1201.63 364.473C1198.37 361.605 1194.72 359.194 1190.68 357.24C1186.77 355.285 1182.73 354.307 1178.56 354.307C1173.87 354.307 1170.35 356.002 1168 359.39C1165.66 362.778 1164.48 368.122 1164.48 375.42V414.516C1164.48 418.687 1164.87 421.684 1165.66 423.509C1166.57 425.333 1167.48 426.245 1168.39 426.245H1132.82Z" fill="#4DD5BC"/>
<path d="M1076.44 428.2C1066.14 428.2 1057.54 427.158 1050.63 425.072C1043.86 422.857 1038.45 419.729 1034.41 415.689C1030.37 411.519 1027.5 406.502 1025.81 400.637C1024.11 394.772 1023.26 388.126 1023.26 380.698C1023.26 365.971 1027.37 354.307 1035.58 345.706C1043.79 337.105 1056.37 332.804 1073.31 332.804C1083.21 332.804 1091.23 334.173 1097.35 336.909C1103.61 339.646 1108.37 343.295 1111.62 347.856C1114.88 352.418 1117.1 357.5 1118.27 363.104C1119.57 368.578 1120.22 374.116 1120.22 379.72V388.908C1120.22 388.517 1118.4 388.126 1114.75 387.735C1111.23 387.214 1105.24 386.953 1096.77 386.953H1051.41C1051.41 394.121 1053.56 399.529 1057.87 403.178C1062.3 406.697 1069.46 408.456 1079.37 408.456C1087.71 408.456 1095.14 407.479 1101.65 405.524C1108.3 403.439 1113.12 401.484 1116.12 399.66V405.524L1118.07 420.381C1115.6 422.075 1110.84 423.834 1103.8 425.659C1096.77 427.353 1087.64 428.2 1076.44 428.2ZM1058.65 370.142H1092.47C1092.47 367.274 1091.81 364.473 1090.51 361.736C1089.34 358.999 1087.38 356.784 1084.65 355.089C1081.91 353.265 1078.13 352.353 1073.31 352.353C1068.49 352.353 1064.58 353.069 1061.58 354.503C1058.71 355.936 1056.56 357.696 1055.13 359.781C1053.83 361.866 1053.17 364.016 1053.17 366.232C1053.17 367.535 1053.56 368.513 1054.35 369.164C1055.13 369.816 1056.56 370.142 1058.65 370.142Z" fill="#4DD5BC"/>
<path d="M947.893 426.245C948.805 426.245 949.391 425.398 949.652 423.704C950.043 421.879 949.456 418.817 947.893 414.516C947.371 412.822 946.198 409.824 944.374 405.524C942.68 401.223 940.66 396.271 938.314 390.667C935.968 385.063 933.557 379.394 931.081 373.66C928.735 367.796 926.52 362.517 924.435 357.826C922.48 353.004 920.981 349.355 919.938 346.879C918.114 342.448 916.224 339.32 914.269 337.496C912.445 335.671 911.011 334.759 909.969 334.759H949.652C948.74 334.759 948.153 335.671 947.893 337.496C947.632 339.32 948.218 342.448 949.652 346.879C950.434 349.094 951.542 352.483 952.975 357.044C954.539 361.605 956.298 366.818 958.253 372.683C960.208 378.417 962.163 384.281 964.118 390.276C966.203 396.271 968.093 401.81 969.787 406.892H969.982C971.676 401.81 973.371 396.792 975.065 391.84C976.759 386.757 978.453 381.74 980.147 376.788C981.842 371.705 983.536 366.688 985.23 361.736C986.924 356.653 988.618 351.57 990.313 346.488C991.746 342.317 992.333 339.32 992.072 337.496C991.811 335.671 991.225 334.759 990.313 334.759H1029.21C1028.3 334.759 1027 335.671 1025.3 337.496C1023.61 339.19 1021.85 342.122 1020.03 346.292C1019.11 348.638 1017.68 352.157 1015.73 356.848C1013.77 361.41 1011.56 366.557 1009.08 372.292C1006.73 377.895 1004.32 383.499 1001.85 389.103C999.5 394.707 997.415 399.79 995.591 404.351C993.766 408.912 992.463 412.301 991.681 414.516C990.247 418.947 989.661 422.01 989.922 423.704C990.182 425.398 990.769 426.245 991.681 426.245H947.893Z" fill="#4DD5BC"/>
<path d="M865.419 428.2C852.386 428.2 842.156 426.115 834.728 421.945C827.43 417.774 822.282 412.105 819.284 404.938C816.417 397.77 814.984 389.69 814.984 380.698C814.984 371.575 816.483 363.43 819.48 356.262C822.608 349.094 827.821 343.425 835.119 339.255C842.417 334.955 852.517 332.804 865.419 332.804C878.321 332.804 888.421 334.955 895.719 339.255C903.017 343.425 908.164 349.094 911.162 356.262C914.29 363.43 915.853 371.575 915.853 380.698C915.853 389.69 914.355 397.77 911.357 404.938C908.49 412.105 903.408 417.774 896.11 421.945C888.811 426.115 878.581 428.2 865.419 428.2ZM865.419 408.456C870.892 408.456 875.258 407.674 878.516 406.111C881.904 404.416 884.315 401.549 885.749 397.509C887.313 393.469 888.095 387.865 888.095 380.698C888.095 373.53 887.313 367.926 885.749 363.886C884.315 359.716 881.904 356.784 878.516 355.089C875.258 353.265 870.892 352.353 865.419 352.353C859.945 352.353 855.514 353.265 852.126 355.089C848.868 356.914 846.457 359.911 844.893 364.082C843.459 368.252 842.743 373.856 842.743 380.893C842.743 387.8 843.459 393.274 844.893 397.314C846.457 401.354 848.868 404.221 852.126 405.915C855.514 407.609 859.945 408.456 865.419 408.456Z" fill="#4DD5BC"/>
<path d="M718.289 428.2C707.994 428.2 699.392 427.158 692.485 425.072C685.709 422.857 680.3 419.729 676.26 415.689C672.22 411.519 669.353 406.502 667.659 400.637C665.965 394.772 665.118 388.126 665.118 380.698C665.118 365.971 669.223 354.307 677.433 345.706C685.643 337.105 698.22 332.804 715.161 332.804C725.066 332.804 733.081 334.173 739.206 336.909C745.461 339.646 750.218 343.295 753.476 347.856C756.734 352.418 758.95 357.5 760.123 363.104C761.426 368.578 762.078 374.116 762.078 379.72V388.908C762.078 388.517 760.253 388.126 756.604 387.735C753.085 387.214 747.09 386.953 738.619 386.953H693.267C693.267 394.121 695.418 399.529 699.718 403.178C704.149 406.697 711.317 408.456 721.221 408.456C729.562 408.456 736.99 407.479 743.507 405.524C750.153 403.439 754.975 401.484 757.972 399.66V405.524L759.927 420.381C757.451 422.075 752.694 423.834 745.657 425.659C738.619 427.353 729.497 428.2 718.289 428.2ZM700.5 370.142H734.319C734.319 367.274 733.667 364.473 732.364 361.736C731.191 358.999 729.236 356.784 726.5 355.089C723.763 353.265 719.983 352.353 715.161 352.353C710.34 352.353 706.43 353.069 703.432 354.503C700.565 355.936 698.415 357.696 696.981 359.781C695.678 361.866 695.027 364.016 695.027 366.232C695.027 367.535 695.418 368.513 696.2 369.164C696.981 369.816 698.415 370.142 700.5 370.142Z" fill="#4DD5BC"/>
<path d="M490.98 426.245C491.893 426.245 492.74 425.333 493.522 423.509C494.434 421.684 494.89 418.687 494.89 414.516V348.443C494.89 344.273 494.434 341.34 493.522 339.646C492.74 337.822 491.893 336.844 490.98 336.714C496.715 336.714 502.579 336.323 508.574 335.541C514.569 334.629 519.26 333.716 522.649 332.804V344.729L522.258 347.27L522.649 347.661C523.04 346.749 524.278 345.12 526.363 342.774C528.448 340.428 531.446 338.213 535.355 336.127C539.265 333.912 544.087 332.804 549.821 332.804C561.941 332.804 571.194 336.258 577.58 343.165C584.096 350.072 587.354 360.889 587.354 375.615V414.516C587.354 418.687 587.745 421.684 588.527 423.509C589.439 425.333 590.351 426.245 591.264 426.245H555.686C556.598 426.245 557.445 425.333 558.227 423.509C559.139 421.684 559.595 418.687 559.595 414.516V376.202C559.595 370.076 558.944 365.32 557.64 361.931C556.337 358.413 554.513 355.936 552.167 354.503C549.951 353.069 547.345 352.353 544.347 352.353C540.698 352.353 537.18 353.265 533.791 355.089C530.533 356.784 527.862 359.52 525.777 363.3C523.691 366.949 522.649 371.836 522.649 377.961V414.516C522.649 418.687 523.04 421.684 523.822 423.509C524.734 425.333 525.646 426.245 526.558 426.245H490.98ZM620.195 426.245C621.107 426.115 621.954 425.138 622.736 423.313C623.649 421.489 624.105 418.556 624.105 414.516V377.961C624.105 372.748 623.583 368.252 622.541 364.473C621.629 360.563 620.065 357.565 617.849 355.48C615.634 353.395 612.636 352.353 608.857 352.353C602.471 352.353 597.258 354.633 593.218 359.194C589.309 363.756 587.354 370.663 587.354 379.916H573.084C573.084 373.66 574.061 367.731 576.016 362.127C577.971 356.393 580.773 351.375 584.422 347.074C588.071 342.644 592.436 339.19 597.519 336.714C602.602 334.107 608.205 332.804 614.331 332.804C622.15 332.804 628.862 334.238 634.465 337.105C640.069 339.842 644.37 344.468 647.367 350.984C650.365 357.5 651.863 366.362 651.863 377.57V414.516C651.863 418.556 652.254 421.489 653.036 423.313C653.949 425.138 654.861 426.115 655.773 426.245H620.195Z" fill="#4DD5BC"/>
<path d="M412.732 428.2C401.003 428.2 391.62 425.92 384.582 421.358C377.675 416.667 374.222 409.173 374.222 398.878C374.222 391.71 376.046 385.911 379.695 381.48C383.344 377.049 388.296 373.791 394.552 371.705C400.938 369.49 408.171 368.382 416.251 368.382C422.245 368.382 427.328 368.903 431.498 369.946C435.799 370.989 439.253 372.096 441.859 373.269C444.465 374.442 446.16 375.289 446.942 375.811C446.942 370.337 446.355 365.906 445.182 362.518C444.009 358.999 441.859 356.458 438.731 354.894C435.734 353.2 431.498 352.353 426.025 352.353C418.075 352.353 411.038 353.134 404.913 354.698C398.787 356.262 393.77 358.087 389.86 360.172C386.081 362.257 383.475 364.016 382.041 365.45V359.585L380.086 340.428C380.998 339.907 383.409 339.06 387.319 337.887C391.229 336.714 396.572 335.606 403.349 334.564C410.125 333.391 418.205 332.804 427.589 332.804C440.491 332.804 450.33 334.694 457.107 338.473C463.883 342.122 468.51 347.4 470.986 354.307C473.592 361.214 474.896 369.555 474.896 379.329V414.516C474.896 418.165 475.287 420.837 476.069 422.531C476.981 424.095 477.893 425.333 478.805 426.245H447.137V422.14L447.528 418.426L447.137 418.035C446.094 419.208 444.596 420.381 442.641 421.554C440.686 422.727 438.275 423.834 435.408 424.877C432.541 425.789 429.218 426.571 425.438 427.223C421.659 427.874 417.424 428.2 412.732 428.2ZM421.92 408.456C427.393 408.456 431.954 408.065 435.604 407.283C439.383 406.371 442.25 405.198 444.205 403.765C446.16 402.201 447.137 400.376 447.137 398.291C447.137 395.294 444.856 392.818 440.295 390.863C435.864 388.908 429.804 387.931 422.115 387.931C414.687 387.931 409.409 388.973 406.281 391.058C403.284 393.143 401.785 395.75 401.785 398.878C401.785 402.787 403.544 405.394 407.063 406.697C410.582 407.87 415.534 408.456 421.92 408.456Z" fill="#4DD5BC"/>
<path d="M291.277 428.2C273.553 428.2 259.543 423.313 249.248 413.539C239.083 403.634 234 388.451 234 367.991C234 356.001 236.281 345.445 240.842 336.323C245.403 327.07 252.636 319.902 262.541 314.819C272.445 309.606 285.282 307 301.051 307C313.431 307 323.662 307.652 331.742 308.955C339.952 310.258 345.556 311.561 348.553 312.864V318.729L352.463 340.232C348.944 337.626 342.754 335.019 333.892 332.413C325.03 329.806 314.213 328.503 301.442 328.503C292.71 328.503 285.543 330.002 279.939 332.999C274.335 335.866 270.23 340.232 267.623 346.097C265.017 351.961 263.714 359.259 263.714 367.991C263.714 377.374 264.886 384.933 267.232 390.667C269.578 396.271 273.357 400.311 278.57 402.787C283.783 405.263 290.69 406.501 299.292 406.501C305.808 406.501 311.086 405.85 315.126 404.546C319.166 403.113 322.163 401.223 324.118 398.877C326.073 396.401 327.05 393.664 327.05 390.667V387.539C327.05 384.542 326.79 382.848 326.268 382.457C325.877 381.935 324.183 381.675 321.186 381.675H314.93C310.499 381.675 306.72 382.131 303.592 383.043C300.464 383.955 298.249 384.868 296.946 385.78L298.901 366.427V360.562H360.478C359.566 360.693 358.653 361.67 357.741 363.495C356.959 365.189 356.568 368.121 356.568 372.292V414.516C356.568 418.686 356.959 421.684 357.741 423.508C358.653 425.333 359.566 426.245 360.478 426.245H327.05V423.704L327.441 418.23L327.05 417.839C326.138 419.142 324.313 420.641 321.577 422.335C318.84 423.899 314.995 425.268 310.043 426.44C305.221 427.613 298.966 428.2 291.277 428.2Z" fill="#4DD5BC"/>
</g>
<path d="M653.029 576.2C653.151 576.2 653.272 576.078 653.393 575.836C653.515 575.593 653.575 575.194 653.575 574.64V562.16C653.575 561.605 653.515 561.215 653.393 560.99C653.272 560.747 653.151 560.617 653.029 560.6H667.667V561.12L668.187 563.616C667.754 563.425 666.991 563.226 665.899 563.018C664.807 562.792 663.49 562.68 661.947 562.68H657.553C657.033 562.68 656.721 562.723 656.617 562.81C656.531 562.879 656.487 563.096 656.487 563.46V566.424C656.487 566.805 656.531 567.03 656.617 567.1C656.721 567.169 657.025 567.204 657.527 567.204H661.817C662.823 567.204 663.629 567.152 664.235 567.048C664.859 566.926 665.267 566.805 665.457 566.684C665.388 566.909 665.31 567.178 665.223 567.49C665.137 567.802 665.067 568.114 665.015 568.426C664.963 568.738 664.937 569.024 664.937 569.284H657.527C657.025 569.284 656.721 569.318 656.617 569.388C656.531 569.44 656.487 569.665 656.487 570.064V574.64C656.487 575.212 656.548 575.619 656.669 575.862C656.791 576.087 656.912 576.2 657.033 576.2H653.029ZM669.905 576.2C670.027 576.2 670.139 576.078 670.243 575.836C670.365 575.593 670.425 575.194 670.425 574.64V565.592C670.425 565.037 670.365 564.647 670.243 564.422C670.139 564.179 670.027 564.049 669.905 564.032H673.077V574.64C673.077 575.194 673.129 575.593 673.233 575.836C673.355 576.078 673.476 576.2 673.597 576.2H669.905ZM671.491 561.536C670.989 561.536 670.599 561.397 670.321 561.12C670.044 560.825 669.905 560.487 669.905 560.106C669.905 559.707 670.035 559.369 670.295 559.092C670.573 558.814 670.971 558.676 671.491 558.676C672.011 558.676 672.401 558.814 672.661 559.092C672.939 559.369 673.077 559.707 673.077 560.106C673.077 560.487 672.939 560.825 672.661 561.12C672.384 561.397 671.994 561.536 671.491 561.536ZM675.821 576.2C675.943 576.2 676.055 576.078 676.159 575.836C676.281 575.593 676.341 575.194 676.341 574.64V565.852C676.341 565.297 676.281 564.907 676.159 564.682C676.055 564.439 675.943 564.309 675.821 564.292C676.584 564.292 677.243 564.24 677.797 564.136C678.369 564.014 678.768 563.893 678.993 563.772V565.358L678.941 565.696L678.993 565.748C679.253 565.418 679.583 565.106 679.981 564.812C680.397 564.517 680.909 564.274 681.515 564.084C682.122 563.876 682.833 563.772 683.647 563.772C685.259 563.772 686.49 564.231 687.339 565.15C688.206 566.068 688.639 567.507 688.639 569.466V574.64C688.639 575.194 688.691 575.593 688.795 575.836C688.917 576.078 689.038 576.2 689.159 576.2H685.467C685.589 576.2 685.701 576.078 685.805 575.836C685.927 575.593 685.987 575.194 685.987 574.64V569.544C685.987 568.521 685.857 567.724 685.597 567.152C685.337 566.58 684.973 566.181 684.505 565.956C684.055 565.713 683.526 565.592 682.919 565.592C682.278 565.592 681.654 565.73 681.047 566.008C680.441 566.285 679.947 566.727 679.565 567.334C679.184 567.94 678.993 568.755 678.993 569.778V574.64C678.993 575.194 679.045 575.593 679.149 575.836C679.271 576.078 679.392 576.2 679.513 576.2H675.821ZM696.352 576.46C694.463 576.46 693.137 576.122 692.374 575.446C691.611 574.752 691.23 573.825 691.23 572.664C691.23 571.849 691.429 571.156 691.828 570.584C692.244 569.994 692.859 569.544 693.674 569.232C694.506 568.92 695.555 568.764 696.82 568.764C697.721 568.764 698.501 568.833 699.16 568.972C699.836 569.093 700.382 569.24 700.798 569.414C701.231 569.587 701.535 569.734 701.708 569.856C701.708 568.833 701.578 568.01 701.318 567.386C701.075 566.762 700.677 566.311 700.122 566.034C699.567 565.739 698.813 565.592 697.86 565.592C696.837 565.592 695.919 565.713 695.104 565.956C694.307 566.181 693.665 566.432 693.18 566.71C692.695 566.97 692.391 567.16 692.27 567.282V566.762L692.01 564.812C692.166 564.742 692.504 564.63 693.024 564.474C693.544 564.3 694.229 564.144 695.078 564.006C695.927 563.85 696.924 563.772 698.068 563.772C699.524 563.772 700.711 563.98 701.63 564.396C702.566 564.794 703.251 565.418 703.684 566.268C704.135 567.1 704.36 568.157 704.36 569.44V574.64C704.36 575.125 704.412 575.48 704.516 575.706C704.637 575.914 704.759 576.078 704.88 576.2H701.708V575.42L701.76 574.926L701.708 574.9C701.431 575.16 701.101 575.385 700.72 575.576C700.339 575.766 699.923 575.931 699.472 576.07C699.021 576.191 698.527 576.286 697.99 576.356C697.47 576.425 696.924 576.46 696.352 576.46ZM697.21 574.614C698.146 574.614 698.952 574.518 699.628 574.328C700.304 574.137 700.815 573.886 701.162 573.574C701.526 573.244 701.708 572.872 701.708 572.456C701.708 571.936 701.361 571.494 700.668 571.13C699.992 570.766 698.935 570.584 697.496 570.584C696.161 570.584 695.217 570.757 694.662 571.104C694.125 571.45 693.856 571.97 693.856 572.664C693.856 573.34 694.116 573.834 694.636 574.146C695.173 574.458 696.031 574.614 697.21 574.614ZM707.232 576.2C707.353 576.2 707.466 576.078 707.57 575.836C707.691 575.593 707.752 575.194 707.752 574.64V559.82C707.752 559.265 707.691 558.875 707.57 558.65C707.466 558.407 707.353 558.277 707.232 558.26C707.995 558.26 708.653 558.208 709.208 558.104C709.78 557.982 710.179 557.861 710.404 557.74V574.64C710.404 575.194 710.456 575.593 710.56 575.836C710.681 576.078 710.803 576.2 710.924 576.2H707.232ZM726.405 576.46C724.776 576.46 723.406 576.373 722.297 576.2C721.205 576.026 720.46 575.853 720.061 575.68V575.16L719.515 572.924C719.966 573.288 720.754 573.669 721.881 574.068C723.025 574.449 724.412 574.64 726.041 574.64C727.116 574.64 727.922 574.57 728.459 574.432C728.996 574.276 729.352 574.076 729.525 573.834C729.698 573.574 729.785 573.288 729.785 572.976C729.785 572.612 729.655 572.326 729.395 572.118C729.152 571.892 728.684 571.71 727.991 571.572C727.315 571.416 726.31 571.26 724.975 571.104C723.519 570.93 722.392 570.679 721.595 570.35C720.815 570.02 720.278 569.604 719.983 569.102C719.688 568.582 719.541 567.966 719.541 567.256C719.541 566.701 719.688 566.155 719.983 565.618C720.278 565.08 720.824 564.638 721.621 564.292C722.436 563.945 723.588 563.772 725.079 563.772C726.691 563.772 728.043 563.858 729.135 564.032C730.244 564.205 730.998 564.378 731.397 564.552V565.072L731.917 567.048C731.484 566.736 730.695 566.415 729.551 566.086C728.407 565.756 727.029 565.592 725.417 565.592C724.134 565.592 723.276 565.739 722.843 566.034C722.41 566.311 722.193 566.675 722.193 567.126C722.193 567.386 722.245 567.62 722.349 567.828C722.453 568.018 722.661 568.192 722.973 568.348C723.302 568.504 723.788 568.642 724.429 568.764C725.088 568.885 725.963 569.006 727.055 569.128C728.528 569.284 729.646 569.526 730.409 569.856C731.172 570.185 731.692 570.601 731.969 571.104C732.264 571.589 732.411 572.161 732.411 572.82C732.411 573.53 732.212 574.163 731.813 574.718C731.432 575.255 730.799 575.68 729.915 575.992C729.031 576.304 727.861 576.46 726.405 576.46ZM741.259 576.46C739.457 576.46 738.035 576.182 736.995 575.628C735.973 575.073 735.253 574.319 734.837 573.366C734.421 572.412 734.213 571.338 734.213 570.142C734.213 568.027 734.785 566.441 735.929 565.384C737.091 564.326 738.781 563.798 740.999 563.798C742.351 563.798 743.487 563.884 744.405 564.058C745.324 564.231 745.957 564.396 746.303 564.552V565.072L746.823 567.334C746.477 566.97 745.818 566.597 744.847 566.216C743.877 565.817 742.655 565.618 741.181 565.618C740.436 565.618 739.725 565.748 739.049 566.008C738.391 566.25 737.853 566.701 737.437 567.36C737.039 568.018 736.839 568.954 736.839 570.168C736.839 571.346 737.056 572.265 737.489 572.924C737.923 573.565 738.521 574.007 739.283 574.25C740.046 574.492 740.913 574.614 741.883 574.614C743.114 574.614 744.128 574.423 744.925 574.042C745.74 573.66 746.286 573.288 746.563 572.924V573.444L746.823 575.212C746.494 575.489 745.844 575.766 744.873 576.044C743.92 576.321 742.715 576.46 741.259 576.46ZM755.47 576.46C753.737 576.46 752.376 576.182 751.388 575.628C750.417 575.073 749.733 574.319 749.334 573.366C748.953 572.412 748.762 571.338 748.762 570.142C748.762 568.928 748.961 567.845 749.36 566.892C749.776 565.938 750.469 565.184 751.44 564.63C752.411 564.058 753.754 563.772 755.47 563.772C757.186 563.772 758.529 564.058 759.5 564.63C760.471 565.184 761.155 565.938 761.554 566.892C761.97 567.845 762.178 568.928 762.178 570.142C762.178 571.338 761.979 572.412 761.58 573.366C761.199 574.319 760.523 575.073 759.552 575.628C758.581 576.182 757.221 576.46 755.47 576.46ZM755.47 574.614C756.545 574.614 757.377 574.44 757.966 574.094C758.555 573.747 758.963 573.244 759.188 572.586C759.413 571.91 759.526 571.095 759.526 570.142C759.526 569.188 759.405 568.374 759.162 567.698C758.937 567.022 758.529 566.502 757.94 566.138C757.368 565.774 756.545 565.592 755.47 565.592C754.413 565.592 753.589 565.782 753 566.164C752.411 566.528 751.995 567.056 751.752 567.75C751.527 568.426 751.414 569.232 751.414 570.168C751.414 571.086 751.527 571.884 751.752 572.56C751.977 573.218 752.385 573.73 752.974 574.094C753.563 574.44 754.395 574.614 755.47 574.614ZM764.282 576.2C764.404 576.2 764.516 576.078 764.62 575.836C764.742 575.593 764.802 575.194 764.802 574.64V565.852C764.802 565.297 764.742 564.907 764.62 564.682C764.516 564.439 764.404 564.309 764.282 564.292C765.045 564.292 765.704 564.24 766.258 564.136C766.83 564.014 767.229 563.893 767.454 563.772V565.072L767.402 565.514L767.454 565.566C767.714 565.219 768.026 564.916 768.39 564.656C768.772 564.378 769.205 564.162 769.69 564.006C770.176 563.85 770.73 563.772 771.354 563.772C772.169 563.772 772.871 563.893 773.46 564.136C774.067 564.361 774.5 564.595 774.76 564.838L774.24 567.022V567.802C774.015 567.524 773.686 567.238 773.252 566.944C772.836 566.632 772.36 566.372 771.822 566.164C771.285 565.956 770.713 565.852 770.106 565.852C769.413 565.852 768.798 566.129 768.26 566.684C767.723 567.238 767.454 568.157 767.454 569.44V574.64C767.454 575.194 767.506 575.593 767.61 575.836C767.732 576.078 767.853 576.2 767.974 576.2H764.282ZM782.209 576.46C780.839 576.46 779.713 576.304 778.829 575.992C777.945 575.662 777.251 575.212 776.749 574.64C776.246 574.068 775.891 573.4 775.683 572.638C775.492 571.875 775.397 571.043 775.397 570.142C775.397 568.183 775.951 566.632 777.061 565.488C778.187 564.344 779.851 563.772 782.053 563.772C783.335 563.772 784.367 563.945 785.147 564.292C785.944 564.638 786.542 565.098 786.941 565.67C787.357 566.242 787.634 566.866 787.773 567.542C787.929 568.2 788.007 568.85 788.007 569.492V570.714C788.007 570.662 787.764 570.61 787.279 570.558C786.811 570.488 786.013 570.454 784.887 570.454H778.049C778.049 571.736 778.43 572.75 779.193 573.496C779.955 574.241 781.091 574.614 782.599 574.614C783.899 574.614 784.965 574.458 785.797 574.146C786.646 573.816 787.209 573.496 787.487 573.184V573.704L787.747 575.42C787.365 575.645 786.689 575.879 785.719 576.122C784.765 576.347 783.595 576.46 782.209 576.46ZM779.089 568.738H785.407C785.407 568.287 785.311 567.819 785.121 567.334C784.93 566.848 784.592 566.441 784.107 566.112C783.621 565.765 782.937 565.592 782.053 565.592C781.307 565.592 780.657 565.722 780.103 565.982C779.548 566.224 779.115 566.545 778.803 566.944C778.508 567.342 778.361 567.767 778.361 568.218C778.361 568.391 778.413 568.521 778.517 568.608C778.621 568.694 778.811 568.738 779.089 568.738Z" fill="white"/>
<rect width="324" height="62" transform="translate(558.252 608.2)" fill="#86E9D6" fill-opacity="0.2"/>
<path d="M580.714 649.2C580.037 649.2 579.458 648.955 578.976 648.465C578.493 647.976 578.252 647.387 578.252 646.7V631.7C578.252 631.012 578.493 630.424 578.976 629.934C579.458 629.444 580.037 629.2 580.714 629.2H594.252C594.642 629.2 595.011 629.288 595.36 629.465C595.709 629.642 595.996 629.887 596.222 630.2L601.76 637.7C602.088 638.137 602.252 638.637 602.252 639.2C602.252 639.762 602.088 640.262 601.76 640.7L596.222 648.2C595.996 648.512 595.709 648.757 595.36 648.934C595.011 649.111 594.642 649.2 594.252 649.2H580.714Z" fill="#2BB1FF"/>
<path d="M607.452 647.2C607.564 647.2 607.676 647.088 607.788 646.864C607.9 646.64 607.956 646.272 607.956 645.76V634.24C607.956 633.728 607.9 633.368 607.788 633.16C607.676 632.936 607.564 632.816 607.452 632.8H616.428C617.676 632.8 618.652 632.944 619.356 633.232C620.06 633.52 620.556 633.936 620.844 634.48C621.132 635.008 621.276 635.632 621.276 636.352C621.276 636.928 621.172 637.416 620.964 637.816C620.772 638.2 620.524 638.504 620.22 638.728C619.916 638.952 619.612 639.12 619.308 639.232V639.28C620.348 639.52 621.132 639.952 621.66 640.576C622.188 641.184 622.452 642 622.452 643.024C622.452 643.712 622.316 644.376 622.044 645.016C621.772 645.656 621.268 646.184 620.532 646.6C619.812 647 618.764 647.2 617.388 647.2H607.452ZM612.612 644.536H616.212C617.124 644.536 617.772 644.408 618.156 644.152C618.556 643.88 618.756 643.448 618.756 642.856C618.756 642.296 618.54 641.864 618.108 641.56C617.676 641.24 616.964 641.08 615.972 641.08H612.636C612.156 641.08 611.868 641.112 611.772 641.176C611.692 641.24 611.652 641.456 611.652 641.824V643.816C611.652 644.168 611.692 644.376 611.772 644.44C611.868 644.504 612.148 644.536 612.612 644.536ZM612.636 638.632H615.468C616.236 638.632 616.78 638.504 617.1 638.248C617.436 637.976 617.604 637.576 617.604 637.048C617.604 636.52 617.444 636.128 617.124 635.872C616.82 635.616 616.276 635.488 615.492 635.488H612.612C612.132 635.488 611.852 635.52 611.772 635.584C611.692 635.632 611.652 635.84 611.652 636.208V637.912C611.652 638.264 611.692 638.472 611.772 638.536C611.868 638.6 612.156 638.632 612.636 638.632ZM624.374 647.2C624.486 647.2 624.598 647.088 624.71 646.864C624.822 646.64 624.878 646.272 624.878 645.76V632.08C624.878 631.568 624.822 631.2 624.71 630.976C624.614 630.752 624.51 630.64 624.398 630.64C625.454 630.64 626.31 630.592 626.966 630.496C627.638 630.384 628.078 630.272 628.286 630.16V645.76C628.286 646.272 628.334 646.64 628.43 646.864C628.542 647.088 628.654 647.2 628.766 647.2H624.374ZM635.875 647.44C634.947 647.44 634.155 647.28 633.499 646.96C632.843 646.624 632.347 646.056 632.011 645.256C631.675 644.44 631.507 643.312 631.507 641.872V637.408C631.507 636.896 631.451 636.528 631.339 636.304C631.243 636.08 631.139 635.968 631.027 635.968H635.443C635.331 635.968 635.211 636.08 635.083 636.304C634.971 636.528 634.915 636.896 634.915 637.408V642.208C634.915 643.216 635.099 643.936 635.467 644.368C635.851 644.8 636.291 645.016 636.787 645.016C637.491 645.016 638.035 644.856 638.419 644.536C638.803 644.2 639.075 643.768 639.235 643.24C639.395 642.696 639.475 642.128 639.475 641.536V637.408C639.475 636.896 639.419 636.536 639.307 636.328C639.211 636.104 639.107 635.984 638.995 635.968H642.883V645.76C642.883 646.272 642.931 646.64 643.027 646.864C643.139 647.088 643.251 647.2 643.363 647.2H639.475V646.264L639.523 645.784L639.475 645.736C639.315 645.976 639.115 646.2 638.875 646.408C638.635 646.616 638.363 646.8 638.059 646.96C637.755 647.104 637.419 647.216 637.051 647.296C636.683 647.392 636.291 647.44 635.875 647.44ZM651.516 647.44C650.252 647.44 649.196 647.312 648.348 647.056C647.516 646.784 646.852 646.4 646.356 645.904C645.86 645.392 645.508 644.776 645.3 644.056C645.092 643.336 644.988 642.52 644.988 641.608C644.988 639.8 645.492 638.368 646.5 637.312C647.508 636.256 649.052 635.728 651.132 635.728C652.348 635.728 653.332 635.896 654.084 636.232C654.852 636.568 655.436 637.016 655.836 637.576C656.236 638.136 656.508 638.76 656.652 639.448C656.812 640.12 656.892 640.8 656.892 641.488V642.616C656.892 642.568 656.668 642.52 656.22 642.472C655.788 642.408 655.052 642.376 654.012 642.376H648.444C648.444 643.256 648.708 643.92 649.236 644.368C649.78 644.8 650.66 645.016 651.876 645.016C652.9 645.016 653.812 644.896 654.612 644.656C655.428 644.4 656.02 644.16 656.388 643.936V644.656L656.628 646.48C656.324 646.688 655.74 646.904 654.876 647.128C654.012 647.336 652.892 647.44 651.516 647.44ZM649.332 640.312H653.484C653.484 639.96 653.404 639.616 653.244 639.28C653.1 638.944 652.86 638.672 652.524 638.464C652.188 638.24 651.724 638.128 651.132 638.128C650.54 638.128 650.06 638.216 649.692 638.392C649.34 638.568 649.076 638.784 648.9 639.04C648.74 639.296 648.66 639.56 648.66 639.832C648.66 639.992 648.708 640.112 648.804 640.192C648.9 640.272 649.076 640.312 649.332 640.312Z" fill="#2BB1FF"/>
<path d="M662.54 632.44C662.54 631.816 662.9 631.336 663.38 631.072L666.212 629.464C667.1 628.96 667.58 628.744 668.276 628.744C669.308 628.744 669.86 629.488 669.86 630.28V645.856C669.86 646.792 669.092 647.56 668.156 647.56C667.22 647.56 666.452 646.792 666.452 645.856V632.824L664.724 633.76C664.508 633.856 664.292 633.928 664.028 633.928C663.212 633.928 662.54 633.256 662.54 632.44ZM673.302 640.864V635.488C673.302 631.072 675.414 628.744 679.494 628.744C683.622 628.744 685.494 631.12 685.494 635.488V640.864C685.494 645.232 683.382 647.56 679.374 647.56C675.342 647.56 673.302 645.352 673.302 640.864ZM676.71 635.32V641.032C676.71 643.36 677.286 644.56 679.398 644.56C681.462 644.56 682.086 643.408 682.086 641.032V635.32C682.086 632.872 681.39 631.744 679.35 631.744C677.478 631.744 676.71 632.704 676.71 635.32Z" fill="#2BB1FF"/>
<path d="M721.714 649.2C721.037 649.2 720.458 648.955 719.976 648.465C719.493 647.976 719.252 647.387 719.252 646.7V631.7C719.252 631.012 719.493 630.424 719.976 629.934C720.458 629.444 721.037 629.2 721.714 629.2H735.252C735.642 629.2 736.011 629.288 736.36 629.465C736.709 629.642 736.996 629.887 737.222 630.2L742.76 637.7C743.088 638.137 743.252 638.637 743.252 639.2C743.252 639.762 743.088 640.262 742.76 640.7L737.222 648.2C736.996 648.512 736.709 648.757 736.36 648.934C736.011 649.111 735.642 649.2 735.252 649.2H721.714Z" fill="#F58E39"/>
<path d="M756.012 647.44C753.26 647.44 751.268 646.784 750.036 645.472C748.82 644.144 748.212 642.296 748.212 639.928C748.212 638.408 748.476 637.104 749.004 636.016C749.548 634.912 750.388 634.064 751.524 633.472C752.676 632.864 754.172 632.56 756.012 632.56H756.756C758.564 632.56 760.028 632.856 761.148 633.448C762.284 634.04 763.116 634.888 763.644 635.992C764.172 637.096 764.436 638.408 764.436 639.928C764.436 642.296 763.828 644.144 762.612 645.472C761.396 646.784 759.444 647.44 756.756 647.44H756.012ZM756.252 644.776H756.516C757.492 644.776 758.292 644.616 758.916 644.296C759.556 643.976 760.028 643.464 760.332 642.76C760.636 642.04 760.788 641.096 760.788 639.928C760.788 638.792 760.628 637.88 760.308 637.192C760.004 636.488 759.532 635.984 758.892 635.68C758.268 635.36 757.476 635.2 756.516 635.2H756.252C755.26 635.2 754.436 635.368 753.78 635.704C753.124 636.024 752.636 636.528 752.316 637.216C752.012 637.904 751.86 638.808 751.86 639.928C751.86 641.096 752.02 642.04 752.34 642.76C752.676 643.464 753.164 643.976 753.804 644.296C754.46 644.616 755.276 644.776 756.252 644.776ZM766.449 647.2C766.561 647.2 766.665 647.088 766.761 646.864C766.873 646.64 766.929 646.272 766.929 645.76V637.648C766.929 637.136 766.873 636.776 766.761 636.568C766.665 636.344 766.561 636.224 766.449 636.208C767.153 636.208 767.873 636.16 768.609 636.064C769.345 635.952 769.921 635.84 770.337 635.728V636.688L770.289 637.096L770.337 637.144C770.449 636.968 770.625 636.776 770.865 636.568C771.121 636.344 771.441 636.152 771.825 635.992C772.225 635.816 772.689 635.728 773.217 635.728C774.001 635.728 774.697 635.84 775.305 636.064C775.913 636.272 776.345 636.488 776.601 636.712L775.881 639.928V640.648C775.641 640.312 775.313 639.968 774.897 639.616C774.497 639.264 774.049 638.968 773.553 638.728C773.073 638.488 772.577 638.368 772.065 638.368C771.489 638.368 771.057 638.576 770.769 638.992C770.481 639.408 770.337 640.064 770.337 640.96V645.76C770.337 646.272 770.385 646.64 770.481 646.864C770.593 647.088 770.705 647.2 770.817 647.2H766.449ZM782.05 647.44C780.61 647.44 779.458 647.16 778.594 646.6C777.746 646.024 777.322 645.104 777.322 643.84C777.322 642.96 777.546 642.248 777.994 641.704C778.442 641.16 779.05 640.76 779.818 640.504C780.602 640.232 781.49 640.096 782.482 640.096C783.218 640.096 783.842 640.16 784.354 640.288C784.882 640.416 785.306 640.552 785.626 640.696C785.946 640.84 786.154 640.944 786.25 641.008C786.25 640.336 786.178 639.792 786.034 639.376C785.89 638.944 785.626 638.632 785.242 638.44C784.874 638.232 784.354 638.128 783.682 638.128C782.706 638.128 781.842 638.224 781.09 638.416C780.338 638.608 779.722 638.832 779.242 639.088C778.778 639.344 778.458 639.56 778.282 639.736V639.016L778.042 636.664C778.154 636.6 778.45 636.496 778.93 636.352C779.41 636.208 780.066 636.072 780.898 635.944C781.73 635.8 782.722 635.728 783.874 635.728C785.458 635.728 786.666 635.96 787.498 636.424C788.33 636.872 788.898 637.52 789.202 638.368C789.522 639.216 789.682 640.24 789.682 641.44V645.76C789.682 646.208 789.73 646.536 789.826 646.744C789.938 646.936 790.05 647.088 790.162 647.2H786.274V646.696L786.322 646.24L786.274 646.192C786.146 646.336 785.962 646.48 785.722 646.624C785.482 646.768 785.186 646.904 784.834 647.032C784.482 647.144 784.074 647.24 783.61 647.32C783.146 647.4 782.626 647.44 782.05 647.44ZM783.178 645.016C783.85 645.016 784.41 644.968 784.858 644.872C785.322 644.76 785.674 644.616 785.914 644.44C786.154 644.248 786.274 644.024 786.274 643.768C786.274 643.4 785.994 643.096 785.434 642.856C784.89 642.616 784.146 642.496 783.202 642.496C782.29 642.496 781.642 642.624 781.258 642.88C780.89 643.136 780.706 643.456 780.706 643.84C780.706 644.32 780.922 644.64 781.354 644.8C781.786 644.944 782.394 645.016 783.178 645.016ZM792.137 647.2C792.249 647.2 792.353 647.088 792.449 646.864C792.561 646.64 792.617 646.272 792.617 645.76V637.648C792.617 637.136 792.561 636.776 792.449 636.568C792.353 636.344 792.249 636.224 792.137 636.208C792.841 636.208 793.561 636.16 794.297 636.064C795.033 635.952 795.609 635.84 796.025 635.728V637.192L795.977 637.504L796.025 637.552C796.073 637.44 796.225 637.24 796.481 636.952C796.737 636.664 797.105 636.392 797.585 636.136C798.065 635.864 798.657 635.728 799.361 635.728C800.849 635.728 801.985 636.152 802.769 637C803.569 637.848 803.969 639.176 803.969 640.984V645.76C803.969 646.272 804.017 646.64 804.113 646.864C804.225 647.088 804.337 647.2 804.449 647.2H800.081C800.193 647.2 800.297 647.088 800.393 646.864C800.505 646.64 800.561 646.272 800.561 645.76V641.056C800.561 640.304 800.481 639.72 800.321 639.304C800.161 638.872 799.937 638.568 799.649 638.392C799.377 638.216 799.057 638.128 798.689 638.128C798.241 638.128 797.809 638.24 797.393 638.464C796.993 638.672 796.665 639.008 796.409 639.472C796.153 639.92 796.025 640.52 796.025 641.272V645.76C796.025 646.272 796.073 646.64 796.169 646.864C796.281 647.088 796.393 647.2 796.505 647.2H792.137ZM812.194 653.056C811.266 653.056 810.41 652.992 809.626 652.864C808.858 652.736 808.186 652.576 807.61 652.384C807.05 652.208 806.618 652.032 806.314 651.856L806.794 648.256V647.56C807.018 647.992 807.37 648.448 807.85 648.928C808.33 649.408 808.93 649.816 809.65 650.152C810.37 650.488 811.186 650.656 812.098 650.656C812.69 650.656 813.186 650.528 813.586 650.272C813.986 650.032 814.29 649.656 814.498 649.144C814.706 648.632 814.81 648 814.81 647.248V646.864L814.858 646.432L814.81 646.384C814.586 646.624 814.282 646.824 813.898 646.984C813.53 647.128 813.122 647.24 812.674 647.32C812.242 647.4 811.81 647.44 811.378 647.44C810.082 647.44 809.042 647.184 808.258 646.672C807.49 646.16 806.93 645.464 806.578 644.584C806.242 643.704 806.074 642.712 806.074 641.608C806.074 640.488 806.242 639.488 806.578 638.608C806.914 637.728 807.466 637.032 808.234 636.52C809.018 635.992 810.066 635.728 811.378 635.728C811.826 635.728 812.266 635.76 812.698 635.824C813.13 635.888 813.53 635.984 813.898 636.112C814.266 636.224 814.57 636.384 814.81 636.592L814.858 636.568L814.81 636.112V635.968H818.698C818.586 635.984 818.474 636.104 818.362 636.328C818.266 636.552 818.218 636.928 818.218 637.456V646.648C818.218 648.968 817.722 650.616 816.73 651.592C815.754 652.568 814.242 653.056 812.194 653.056ZM812.026 645.016C812.586 645.016 813.074 644.92 813.49 644.728C813.906 644.536 814.226 644.192 814.45 643.696C814.69 643.2 814.81 642.504 814.81 641.608C814.81 640.728 814.69 640.04 814.45 639.544C814.226 639.032 813.906 638.672 813.49 638.464C813.074 638.24 812.586 638.128 812.026 638.128C811.498 638.128 811.042 638.24 810.658 638.464C810.274 638.688 809.978 639.056 809.77 639.568C809.562 640.08 809.458 640.768 809.458 641.632C809.458 642.48 809.554 643.152 809.746 643.648C809.954 644.144 810.25 644.496 810.634 644.704C811.018 644.912 811.482 645.016 812.026 645.016ZM827.157 647.44C825.893 647.44 824.837 647.312 823.989 647.056C823.157 646.784 822.493 646.4 821.997 645.904C821.501 645.392 821.149 644.776 820.941 644.056C820.733 643.336 820.629 642.52 820.629 641.608C820.629 639.8 821.133 638.368 822.141 637.312C823.149 636.256 824.693 635.728 826.773 635.728C827.989 635.728 828.973 635.896 829.725 636.232C830.493 636.568 831.077 637.016 831.477 637.576C831.877 638.136 832.149 638.76 832.293 639.448C832.453 640.12 832.533 640.8 832.533 641.488V642.616C832.533 642.568 832.309 642.52 831.861 642.472C831.429 642.408 830.693 642.376 829.653 642.376H824.085C824.085 643.256 824.349 643.92 824.877 644.368C825.421 644.8 826.301 645.016 827.517 645.016C828.541 645.016 829.453 644.896 830.253 644.656C831.069 644.4 831.661 644.16 832.029 643.936V644.656L832.269 646.48C831.965 646.688 831.381 646.904 830.517 647.128C829.653 647.336 828.533 647.44 827.157 647.44ZM824.973 640.312H829.125C829.125 639.96 829.045 639.616 828.885 639.28C828.741 638.944 828.501 638.672 828.165 638.464C827.829 638.24 827.365 638.128 826.773 638.128C826.181 638.128 825.701 638.216 825.333 638.392C824.981 638.568 824.717 638.784 824.541 639.04C824.381 639.296 824.301 639.56 824.301 639.832C824.301 639.992 824.349 640.112 824.445 640.192C824.541 640.272 824.717 640.312 824.973 640.312Z" fill="#F58E39"/>
<path d="M838.54 635.44C838.54 634.816 838.9 634.336 839.38 634.072L842.212 632.464C843.1 631.96 843.58 631.744 844.276 631.744C845.308 631.744 845.86 632.488 845.86 633.28V648.856C845.86 649.792 845.092 650.56 844.156 650.56C843.22 650.56 842.452 649.792 842.452 648.856V635.824L840.724 636.76C840.508 636.856 840.292 636.928 840.028 636.928C839.212 636.928 838.54 636.256 838.54 635.44ZM861.278 644.728C861.278 648.04 858.806 650.56 854.966 650.56C851.078 650.56 848.702 647.968 848.702 644.776C848.702 642.88 849.83 640.936 850.574 639.448L853.766 632.848C854.078 632.248 854.606 631.744 855.35 631.744C856.262 631.744 856.982 632.368 856.982 633.28C856.982 633.568 856.886 633.928 856.766 634.144L854.342 639.04C854.582 638.968 855.206 638.944 855.47 638.944C858.974 639.016 861.278 641.416 861.278 644.728ZM857.798 644.68C857.798 643.072 856.814 641.68 854.966 641.68C853.07 641.68 852.11 643.072 852.11 644.704C852.11 646.48 853.262 647.656 854.966 647.656C856.838 647.656 857.798 646.216 857.798 644.68Z" fill="#F58E39"/>
<defs>
<filter id="filter0_d_2123_1540" x="219" y="299" width="997.505" height="137.2" filterUnits="userSpaceOnUse" color-interpolation-filters="sRGB">
<feFlood flood-opacity="0" result="BackgroundImageFix"/>
<feColorMatrix in="SourceAlpha" type="matrix" values="0 0 0 0 0 0 0 0 0 0 0 0 0 0 0 0 0 0 127 0" result="hardAlpha"/>
<feOffset dx="-7"/>
<feGaussianBlur stdDeviation="4"/>
<feComposite in2="hardAlpha" operator="out"/>
<feColorMatrix type="matrix" values="0 0 0 0 0.301961 0 0 0 0 0.835294 0 0 0 0 0.737255 0 0 0 0.5 0"/>
<feBlend mode="normal" in2="BackgroundImageFix" result="effect1_dropShadow_2123_1540"/>
<feBlend mode="normal" in="SourceGraphic" in2="effect1_dropShadow_2123_1540" result="shape"/>
</filter>
</defs>
</svg>
