<svg width="434" height="175" viewBox="0 0 434 175" fill="none" xmlns="http://www.w3.org/2000/svg">
<rect width="392" height="175" rx="20" fill="white"/>
<path d="M22.4 58C22.5867 58 22.7733 57.8133 22.96 57.44C23.1467 57.0667 23.24 56.4533 23.24 55.6V36.4C23.24 35.5467 23.1467 34.9467 22.96 34.6C22.7733 34.2267 22.5867 34.0267 22.4 34H28.6C28.5733 34.08 28.6667 34.32 28.88 34.72C29.12 35.12 29.5467 35.7067 30.16 36.48C30.3467 36.72 30.7333 37.2 31.32 37.92C31.9333 38.64 32.6933 39.5333 33.6 40.6C34.5067 41.64 35.48 42.7867 36.52 44.04C37.5867 45.2667 38.6533 46.52 39.72 47.8C40.8133 49.0533 41.8533 50.2533 42.84 51.4H42.92V36.4C42.92 35.5467 42.8267 34.9467 42.64 34.6C42.4533 34.2267 42.2667 34.0267 42.08 34H48.24C48.0533 34 47.8667 34.1867 47.68 34.56C47.4933 34.9333 47.4 35.56 47.4 36.44V55.6C47.4 56.4533 47.4933 57.0667 47.68 57.44C47.8667 57.8133 48.0533 58 48.24 58H43C43.0267 57.92 42.92 57.68 42.68 57.28C42.44 56.8533 42.0133 56.2667 41.4 55.52C41 55.0133 40.4133 54.3067 39.64 53.4C38.8933 52.4667 38.04 51.4133 37.08 50.24C36.12 49.04 35.0933 47.7867 34 46.48C32.9333 45.1733 31.8667 43.8667 30.8 42.56C29.76 41.2533 28.7733 40.04 27.84 38.92H27.72V55.6C27.72 56.4533 27.8133 57.0667 28 57.44C28.1867 57.8133 28.3733 58 28.56 58H22.4ZM62.345 58.4C59.6783 58.4 57.585 57.9733 56.065 57.12C54.5717 56.2667 53.5183 55.1067 52.905 53.64C52.3183 52.1733 52.025 50.52 52.025 48.68C52.025 46.8133 52.3317 45.1467 52.945 43.68C53.585 42.2133 54.6517 41.0533 56.145 40.2C57.6383 39.32 59.705 38.88 62.345 38.88C64.985 38.88 67.0517 39.32 68.545 40.2C70.0383 41.0533 71.0917 42.2133 71.705 43.68C72.345 45.1467 72.665 46.8133 72.665 48.68C72.665 50.52 72.3583 52.1733 71.745 53.64C71.1583 55.1067 70.1183 56.2667 68.625 57.12C67.1317 57.9733 65.0383 58.4 62.345 58.4ZM62.345 55.56C63.9983 55.56 65.2783 55.2933 66.185 54.76C67.0917 54.2267 67.7183 53.4533 68.065 52.44C68.4117 51.4 68.585 50.1467 68.585 48.68C68.585 47.2133 68.3983 45.96 68.025 44.92C67.6783 43.88 67.0517 43.08 66.145 42.52C65.265 41.96 63.9983 41.68 62.345 41.68C60.7183 41.68 59.4517 41.9733 58.545 42.56C57.6383 43.12 56.9983 43.9333 56.625 45C56.2783 46.04 56.105 47.28 56.105 48.72C56.105 50.1333 56.2783 51.36 56.625 52.4C56.9717 53.4133 57.5983 54.2 58.505 54.76C59.4117 55.2933 60.6917 55.56 62.345 55.56ZM83.7025 58.4C81.8625 58.4 80.5292 58.0133 79.7025 57.24C78.8758 56.44 78.4625 55.1467 78.4625 53.36V42.08H74.8625V39.28C76.0892 39.28 77.0492 39.1333 77.7425 38.84C78.4358 38.52 78.9292 37.9733 79.2225 37.2C79.5158 36.4267 79.6625 35.3467 79.6625 33.96H82.5425V39.28H90.1825C89.9958 39.5467 89.8092 39.9467 89.6225 40.48C89.4625 40.9867 89.3825 41.52 89.3825 42.08H82.5425V52.76C82.5425 53.9867 82.7692 54.76 83.2225 55.08C83.6758 55.4 84.2492 55.56 84.9425 55.56C85.6092 55.56 86.2225 55.4267 86.7825 55.16C87.3692 54.8667 87.8758 54.52 88.3025 54.12C88.7558 53.72 89.1025 53.3333 89.3425 52.96V54.2L89.7425 56.48C89.4758 56.7467 89.0625 57.04 88.5025 57.36C87.9425 57.6533 87.2625 57.8933 86.4625 58.08C85.6625 58.2933 84.7425 58.4 83.7025 58.4ZM102.466 58.4C100.359 58.4 98.6259 58.16 97.2659 57.68C95.9059 57.1733 94.8393 56.48 94.0659 55.6C93.2926 54.72 92.7459 53.6933 92.4259 52.52C92.1326 51.3467 91.9859 50.0667 91.9859 48.68C91.9859 45.6667 92.8393 43.28 94.5459 41.52C96.2793 39.76 98.8393 38.88 102.226 38.88C104.199 38.88 105.786 39.1467 106.986 39.68C108.213 40.2133 109.133 40.92 109.746 41.8C110.386 42.68 110.813 43.64 111.026 44.68C111.266 45.6933 111.386 46.6933 111.386 47.68V49.56C111.386 49.48 111.013 49.4 110.266 49.32C109.546 49.2133 108.319 49.16 106.586 49.16H96.0659C96.0659 51.1333 96.6526 52.6933 97.8259 53.84C98.9993 54.9867 100.746 55.56 103.066 55.56C105.066 55.56 106.706 55.32 107.986 54.84C109.293 54.3333 110.159 53.84 110.586 53.36V54.16L110.986 56.8C110.399 57.1467 109.359 57.5067 107.866 57.88C106.399 58.2267 104.599 58.4 102.466 58.4ZM97.6659 46.52H107.386C107.386 45.8267 107.239 45.1067 106.946 44.36C106.653 43.6133 106.133 42.9867 105.386 42.48C104.639 41.9467 103.586 41.68 102.226 41.68C101.079 41.68 100.079 41.88 99.2259 42.28C98.3726 42.6533 97.7059 43.1467 97.2259 43.76C96.7726 44.3733 96.5459 45.0267 96.5459 45.72C96.5459 45.9867 96.6259 46.1867 96.7859 46.32C96.9459 46.4533 97.2393 46.52 97.6659 46.52ZM118.209 46.4C117.435 46.4 116.835 46.1867 116.409 45.76C115.982 45.3067 115.769 44.7867 115.769 44.2C115.769 43.5867 115.969 43.0667 116.369 42.64C116.795 42.2133 117.409 42 118.209 42C119.009 42 119.609 42.2133 120.009 42.64C120.435 43.0667 120.649 43.5867 120.649 44.2C120.649 44.7867 120.435 45.3067 120.009 45.76C119.582 46.1867 118.982 46.4 118.209 46.4ZM118.209 58.4C117.435 58.4 116.835 58.1867 116.409 57.76C115.982 57.3067 115.769 56.7867 115.769 56.2C115.769 55.5867 115.969 55.0667 116.369 54.64C116.795 54.2133 117.409 54 118.209 54C119.009 54 119.609 54.2133 120.009 54.64C120.435 55.0667 120.649 55.5867 120.649 56.2C120.649 56.7867 120.435 57.3067 120.009 57.76C119.582 58.1867 118.982 58.4 118.209 58.4ZM21.44 88C21.552 88 21.664 87.888 21.776 87.664C21.888 87.44 21.944 87.072 21.944 86.56V75.04C21.944 74.528 21.888 74.168 21.776 73.96C21.664 73.736 21.552 73.616 21.44 73.6H34.952V74.08L35.432 76.384C35.032 76.208 34.328 76.024 33.32 75.832C32.312 75.624 31.096 75.52 29.672 75.52H25.616C25.136 75.52 24.848 75.56 24.752 75.64C24.672 75.704 24.632 75.904 24.632 76.24V78.976C24.632 79.328 24.672 79.536 24.752 79.6C24.848 79.664 25.128 79.696 25.592 79.696H29.552C30.48 79.696 31.224 79.648 31.784 79.552C32.36 79.44 32.736 79.328 32.912 79.216C32.848 79.424 32.776 79.672 32.696 79.96C32.616 80.248 32.552 80.536 32.504 80.824C32.456 81.112 32.432 81.376 32.432 81.616H25.592C25.128 81.616 24.848 81.648 24.752 81.712C24.672 81.76 24.632 81.968 24.632 82.336V86.56C24.632 87.088 24.688 87.464 24.8 87.688C24.912 87.896 25.024 88 25.136 88H21.44ZM41.5164 88.24C39.9164 88.24 38.6604 87.984 37.7484 87.472C36.8524 86.96 36.2204 86.264 35.8524 85.384C35.5004 84.504 35.3244 83.512 35.3244 82.408C35.3244 81.288 35.5084 80.288 35.8764 79.408C36.2604 78.528 36.9004 77.832 37.7964 77.32C38.6924 76.792 39.9324 76.528 41.5164 76.528C43.1004 76.528 44.3404 76.792 45.2364 77.32C46.1324 77.832 46.7644 78.528 47.1324 79.408C47.5164 80.288 47.7084 81.288 47.7084 82.408C47.7084 83.512 47.5244 84.504 47.1564 85.384C46.8044 86.264 46.1804 86.96 45.2844 87.472C44.3884 87.984 43.1324 88.24 41.5164 88.24ZM41.5164 86.536C42.5084 86.536 43.2764 86.376 43.8204 86.056C44.3644 85.736 44.7404 85.272 44.9484 84.664C45.1564 84.04 45.2604 83.288 45.2604 82.408C45.2604 81.528 45.1484 80.776 44.9244 80.152C44.7164 79.528 44.3404 79.048 43.7964 78.712C43.2684 78.376 42.5084 78.208 41.5164 78.208C40.5404 78.208 39.7804 78.384 39.2364 78.736C38.6924 79.072 38.3084 79.56 38.0844 80.2C37.8764 80.824 37.7724 81.568 37.7724 82.432C37.7724 83.28 37.8764 84.016 38.0844 84.64C38.2924 85.248 38.6684 85.72 39.2124 86.056C39.7564 86.376 40.5244 86.536 41.5164 86.536ZM49.6509 88C49.7629 88 49.8669 87.888 49.9629 87.664C50.0749 87.44 50.1309 87.072 50.1309 86.56V78.448C50.1309 77.936 50.0749 77.576 49.9629 77.368C49.8669 77.144 49.7629 77.024 49.6509 77.008C50.3549 77.008 50.9629 76.96 51.4749 76.864C52.0029 76.752 52.3709 76.64 52.5789 76.528V77.728L52.5309 78.136L52.5789 78.184C52.8189 77.864 53.1069 77.584 53.4429 77.344C53.7949 77.088 54.1949 76.888 54.6429 76.744C55.0909 76.6 55.6029 76.528 56.1789 76.528C56.9309 76.528 57.5789 76.64 58.1229 76.864C58.6829 77.072 59.0829 77.288 59.3229 77.512L58.8429 79.528V80.248C58.6349 79.992 58.3309 79.728 57.9309 79.456C57.5469 79.168 57.1069 78.928 56.6109 78.736C56.1149 78.544 55.5869 78.448 55.0269 78.448C54.3869 78.448 53.8189 78.704 53.3229 79.216C52.8269 79.728 52.5789 80.576 52.5789 81.76V86.56C52.5789 87.072 52.6269 87.44 52.7229 87.664C52.8349 87.888 52.9469 88 53.0589 88H49.6509ZM72.6905 88.24C71.4265 88.24 70.3865 88.096 69.5705 87.808C68.7545 87.504 68.1145 87.088 67.6505 86.56C67.1865 86.032 66.8585 85.416 66.6665 84.712C66.4905 84.008 66.4025 83.24 66.4025 82.408C66.4025 80.6 66.9145 79.168 67.9385 78.112C68.9785 77.056 70.5145 76.528 72.5465 76.528C73.7305 76.528 74.6825 76.688 75.4025 77.008C76.1385 77.328 76.6905 77.752 77.0585 78.28C77.4425 78.808 77.6985 79.384 77.8265 80.008C77.9705 80.616 78.0425 81.216 78.0425 81.808V82.936C78.0425 82.888 77.8185 82.84 77.3705 82.792C76.9385 82.728 76.2025 82.696 75.1625 82.696H68.8505C68.8505 83.88 69.2025 84.816 69.9065 85.504C70.6105 86.192 71.6585 86.536 73.0505 86.536C74.2505 86.536 75.2345 86.392 76.0025 86.104C76.7865 85.8 77.3065 85.504 77.5625 85.216V85.696L77.8025 87.28C77.4505 87.488 76.8265 87.704 75.9305 87.928C75.0505 88.136 73.9705 88.24 72.6905 88.24ZM69.8105 81.112H75.6425C75.6425 80.696 75.5545 80.264 75.3785 79.816C75.2025 79.368 74.8905 78.992 74.4425 78.688C73.9945 78.368 73.3625 78.208 72.5465 78.208C71.8585 78.208 71.2585 78.328 70.7465 78.568C70.2345 78.792 69.8345 79.088 69.5465 79.456C69.2745 79.824 69.1385 80.216 69.1385 80.632C69.1385 80.792 69.1865 80.912 69.2825 80.992C69.3785 81.072 69.5545 81.112 69.8105 81.112ZM84.6802 88.24C82.9362 88.24 81.7122 87.928 81.0082 87.304C80.3042 86.664 79.9522 85.808 79.9522 84.736C79.9522 83.984 80.1362 83.344 80.5042 82.816C80.8882 82.272 81.4562 81.856 82.2082 81.568C82.9762 81.28 83.9442 81.136 85.1122 81.136C85.9442 81.136 86.6642 81.2 87.2722 81.328C87.8962 81.44 88.4002 81.576 88.7842 81.736C89.1842 81.896 89.4642 82.032 89.6242 82.144C89.6242 81.2 89.5042 80.44 89.2642 79.864C89.0402 79.288 88.6722 78.872 88.1602 78.616C87.6482 78.344 86.9522 78.208 86.0722 78.208C85.1282 78.208 84.2802 78.32 83.5282 78.544C82.7922 78.752 82.2002 78.984 81.7522 79.24C81.3042 79.48 81.0242 79.656 80.9122 79.768V79.288L80.6722 77.488C80.8162 77.424 81.1282 77.32 81.6082 77.176C82.0882 77.016 82.7202 76.872 83.5042 76.744C84.2882 76.6 85.2082 76.528 86.2642 76.528C87.6082 76.528 88.7042 76.72 89.5522 77.104C90.4162 77.472 91.0482 78.048 91.4482 78.832C91.8642 79.6 92.0722 80.576 92.0722 81.76V86.56C92.0722 87.008 92.1202 87.336 92.2162 87.544C92.3282 87.736 92.4402 87.888 92.5522 88H89.6242V87.28L89.6722 86.824L89.6242 86.8C89.3682 87.04 89.0642 87.248 88.7122 87.424C88.3602 87.6 87.9762 87.752 87.5602 87.88C87.1442 87.992 86.6882 88.08 86.1922 88.144C85.7122 88.208 85.2082 88.24 84.6802 88.24ZM85.4722 86.536C86.3362 86.536 87.0802 86.448 87.7042 86.272C88.3282 86.096 88.8002 85.864 89.1202 85.576C89.4562 85.272 89.6242 84.928 89.6242 84.544C89.6242 84.064 89.3042 83.656 88.6642 83.32C88.0402 82.984 87.0642 82.816 85.7362 82.816C84.5042 82.816 83.6322 82.976 83.1202 83.296C82.6242 83.616 82.3762 84.096 82.3762 84.736C82.3762 85.36 82.6162 85.816 83.0962 86.104C83.5922 86.392 84.3842 86.536 85.4722 86.536ZM100.867 88.24C99.2034 88.24 97.8914 87.984 96.9314 87.472C95.9874 86.96 95.3234 86.264 94.9394 85.384C94.5554 84.504 94.3634 83.512 94.3634 82.408C94.3634 80.456 94.8914 78.992 95.9474 78.016C97.0194 77.04 98.5794 76.552 100.627 76.552C101.875 76.552 102.923 76.632 103.771 76.792C104.619 76.952 105.203 77.104 105.523 77.248V77.728L106.003 79.816C105.683 79.48 105.075 79.136 104.179 78.784C103.283 78.416 102.155 78.232 100.795 78.232C100.107 78.232 99.4514 78.352 98.8274 78.592C98.2194 78.816 97.7234 79.232 97.3394 79.84C96.9714 80.448 96.7874 81.312 96.7874 82.432C96.7874 83.52 96.9874 84.368 97.3874 84.976C97.7874 85.568 98.3394 85.976 99.0434 86.2C99.7474 86.424 100.547 86.536 101.443 86.536C102.579 86.536 103.515 86.36 104.251 86.008C105.003 85.656 105.507 85.312 105.763 84.976V85.456L106.003 87.088C105.699 87.344 105.099 87.6 104.203 87.856C103.323 88.112 102.211 88.24 100.867 88.24ZM108.057 88C108.169 88 108.273 87.888 108.369 87.664C108.481 87.44 108.537 87.072 108.537 86.56V72.88C108.537 72.368 108.481 72.008 108.369 71.8C108.273 71.576 108.169 71.456 108.057 71.44H110.985V77.992L110.937 78.304L110.985 78.352C111.225 78.048 111.529 77.76 111.897 77.488C112.281 77.216 112.753 76.992 113.313 76.816C113.873 76.624 114.529 76.528 115.281 76.528C116.769 76.528 117.905 76.952 118.689 77.8C119.489 78.648 119.889 79.976 119.889 81.784V86.56C119.889 87.072 119.937 87.44 120.033 87.664C120.145 87.888 120.257 88 120.369 88H116.961C117.073 88 117.177 87.888 117.273 87.664C117.385 87.44 117.441 87.072 117.441 86.56V81.856C117.441 80.912 117.321 80.176 117.081 79.648C116.841 79.12 116.505 78.752 116.073 78.544C115.657 78.32 115.169 78.208 114.609 78.208C114.017 78.208 113.441 78.336 112.881 78.592C112.321 78.848 111.865 79.256 111.513 79.816C111.161 80.376 110.985 81.128 110.985 82.072V86.56C110.985 87.072 111.033 87.44 111.129 87.664C111.241 87.888 111.353 88 111.465 88H108.057ZM134.406 88.24C132.902 88.24 131.638 88.16 130.614 88C129.606 87.84 128.918 87.68 128.55 87.52V87.04L128.046 84.976C128.462 85.312 129.19 85.664 130.23 86.032C131.286 86.384 132.566 86.56 134.07 86.56C135.062 86.56 135.806 86.496 136.302 86.368C136.798 86.224 137.126 86.04 137.286 85.816C137.446 85.576 137.526 85.312 137.526 85.024C137.526 84.688 137.406 84.424 137.166 84.232C136.942 84.024 136.51 83.856 135.87 83.728C135.246 83.584 134.318 83.44 133.086 83.296C131.742 83.136 130.702 82.904 129.966 82.6C129.246 82.296 128.75 81.912 128.478 81.448C128.206 80.968 128.07 80.4 128.07 79.744C128.07 79.232 128.206 78.728 128.478 78.232C128.75 77.736 129.254 77.328 129.99 77.008C130.742 76.688 131.806 76.528 133.182 76.528C134.67 76.528 135.918 76.608 136.926 76.768C137.95 76.928 138.646 77.088 139.014 77.248V77.728L139.494 79.552C139.094 79.264 138.366 78.968 137.31 78.664C136.254 78.36 134.982 78.208 133.494 78.208C132.31 78.208 131.518 78.344 131.118 78.616C130.718 78.872 130.518 79.208 130.518 79.624C130.518 79.864 130.566 80.08 130.662 80.272C130.758 80.448 130.95 80.608 131.238 80.752C131.542 80.896 131.99 81.024 132.582 81.136C133.19 81.248 133.998 81.36 135.006 81.472C136.366 81.616 137.398 81.84 138.102 82.144C138.806 82.448 139.286 82.832 139.542 83.296C139.814 83.744 139.95 84.272 139.95 84.88C139.95 85.536 139.766 86.12 139.398 86.632C139.046 87.128 138.462 87.52 137.646 87.808C136.83 88.096 135.75 88.24 134.406 88.24ZM147.901 88.24C146.637 88.24 145.597 88.096 144.781 87.808C143.965 87.504 143.325 87.088 142.861 86.56C142.397 86.032 142.069 85.416 141.877 84.712C141.701 84.008 141.613 83.24 141.613 82.408C141.613 80.6 142.125 79.168 143.149 78.112C144.189 77.056 145.725 76.528 147.757 76.528C148.941 76.528 149.893 76.688 150.613 77.008C151.349 77.328 151.901 77.752 152.269 78.28C152.653 78.808 152.909 79.384 153.037 80.008C153.181 80.616 153.253 81.216 153.253 81.808V82.936C153.253 82.888 153.029 82.84 152.581 82.792C152.149 82.728 151.413 82.696 150.373 82.696H144.061C144.061 83.88 144.413 84.816 145.117 85.504C145.821 86.192 146.869 86.536 148.261 86.536C149.461 86.536 150.445 86.392 151.213 86.104C151.997 85.8 152.517 85.504 152.773 85.216V85.696L153.013 87.28C152.661 87.488 152.037 87.704 151.141 87.928C150.261 88.136 149.181 88.24 147.901 88.24ZM145.021 81.112H150.853C150.853 80.696 150.765 80.264 150.589 79.816C150.413 79.368 150.101 78.992 149.653 78.688C149.205 78.368 148.573 78.208 147.757 78.208C147.069 78.208 146.469 78.328 145.957 78.568C145.445 78.792 145.045 79.088 144.757 79.456C144.485 79.824 144.349 80.216 144.349 80.632C144.349 80.792 144.397 80.912 144.493 80.992C144.589 81.072 144.765 81.112 145.021 81.112ZM159.987 88.24C158.883 88.24 158.083 88.008 157.587 87.544C157.091 87.064 156.843 86.288 156.843 85.216V78.448H154.683V76.768C155.419 76.768 155.995 76.68 156.411 76.504C156.827 76.312 157.123 75.984 157.299 75.52C157.475 75.056 157.563 74.408 157.563 73.576H159.291V76.768H163.875C163.763 76.928 163.651 77.168 163.539 77.488C163.443 77.792 163.395 78.112 163.395 78.448H159.291V84.856C159.291 85.592 159.427 86.056 159.699 86.248C159.971 86.44 160.315 86.536 160.731 86.536C161.131 86.536 161.499 86.456 161.835 86.296C162.187 86.12 162.491 85.912 162.747 85.672C163.019 85.432 163.227 85.2 163.371 84.976V85.72L163.611 87.088C163.451 87.248 163.203 87.424 162.867 87.616C162.531 87.792 162.123 87.936 161.643 88.048C161.163 88.176 160.611 88.24 159.987 88.24ZM169.901 88.24C168.797 88.24 167.997 88.008 167.501 87.544C167.005 87.064 166.757 86.288 166.757 85.216V78.448H164.597V76.768C165.333 76.768 165.909 76.68 166.325 76.504C166.741 76.312 167.037 75.984 167.213 75.52C167.389 75.056 167.477 74.408 167.477 73.576H169.205V76.768H173.789C173.677 76.928 173.565 77.168 173.453 77.488C173.357 77.792 173.309 78.112 173.309 78.448H169.205V84.856C169.205 85.592 169.341 86.056 169.613 86.248C169.885 86.44 170.229 86.536 170.645 86.536C171.045 86.536 171.413 86.456 171.749 86.296C172.101 86.12 172.405 85.912 172.661 85.672C172.933 85.432 173.141 85.2 173.285 84.976V85.72L173.525 87.088C173.365 87.248 173.117 87.424 172.781 87.616C172.445 87.792 172.037 87.936 171.557 88.048C171.077 88.176 170.525 88.24 169.901 88.24ZM175.135 88C175.247 88 175.351 87.888 175.447 87.664C175.559 87.44 175.615 87.072 175.615 86.56V78.208C175.615 77.696 175.559 77.336 175.447 77.128C175.351 76.904 175.247 76.784 175.135 76.768H178.063V86.56C178.063 87.072 178.111 87.44 178.207 87.664C178.319 87.888 178.431 88 178.543 88H175.135ZM176.599 74.464C176.135 74.464 175.775 74.336 175.519 74.08C175.263 73.808 175.135 73.496 175.135 73.144C175.135 72.776 175.255 72.464 175.495 72.208C175.751 71.952 176.119 71.824 176.599 71.824C177.079 71.824 177.439 71.952 177.679 72.208C177.935 72.464 178.063 72.776 178.063 73.144C178.063 73.496 177.935 73.808 177.679 74.08C177.423 74.336 177.063 74.464 176.599 74.464ZM180.596 88C180.708 88 180.812 87.888 180.908 87.664C181.02 87.44 181.076 87.072 181.076 86.56V78.448C181.076 77.936 181.02 77.576 180.908 77.368C180.812 77.144 180.708 77.024 180.596 77.008C181.3 77.008 181.908 76.96 182.42 76.864C182.948 76.752 183.316 76.64 183.524 76.528V77.992L183.476 78.304L183.524 78.352C183.764 78.048 184.068 77.76 184.436 77.488C184.82 77.216 185.292 76.992 185.852 76.816C186.412 76.624 187.068 76.528 187.82 76.528C189.308 76.528 190.444 76.952 191.228 77.8C192.028 78.648 192.428 79.976 192.428 81.784V86.56C192.428 87.072 192.476 87.44 192.572 87.664C192.684 87.888 192.796 88 192.908 88H189.5C189.612 88 189.716 87.888 189.812 87.664C189.924 87.44 189.98 87.072 189.98 86.56V81.856C189.98 80.912 189.86 80.176 189.62 79.648C189.38 79.12 189.044 78.752 188.612 78.544C188.196 78.32 187.708 78.208 187.148 78.208C186.556 78.208 185.98 78.336 185.42 78.592C184.86 78.848 184.404 79.256 184.052 79.816C183.7 80.376 183.524 81.128 183.524 82.072V86.56C183.524 87.072 183.572 87.44 183.668 87.664C183.78 87.888 183.892 88 184.004 88H180.596ZM200.819 93.856C199.891 93.856 199.035 93.792 198.251 93.664C197.483 93.536 196.811 93.376 196.235 93.184C195.675 93.008 195.243 92.832 194.939 92.656L195.419 90.496V89.8C195.643 90.136 195.995 90.488 196.475 90.856C196.955 91.224 197.555 91.536 198.275 91.792C198.995 92.048 199.811 92.176 200.723 92.176C201.795 92.176 202.587 92 203.099 91.648C203.627 91.296 203.971 90.808 204.131 90.184C204.307 89.56 204.395 88.848 204.395 88.048V87.16L204.443 86.728L204.395 86.68C204.187 86.952 203.899 87.208 203.531 87.448C203.163 87.688 202.723 87.88 202.211 88.024C201.699 88.168 201.123 88.24 200.483 88.24C198.963 88.24 197.779 87.984 196.931 87.472C196.099 86.96 195.515 86.264 195.179 85.384C194.859 84.504 194.699 83.512 194.699 82.408C194.699 81.288 194.859 80.288 195.179 79.408C195.515 78.528 196.099 77.832 196.931 77.32C197.779 76.792 198.963 76.528 200.483 76.528C201.123 76.528 201.691 76.592 202.187 76.72C202.683 76.832 203.115 76.992 203.483 77.2C203.851 77.392 204.155 77.624 204.395 77.896L204.443 77.872L204.395 77.416V76.768H207.323C207.211 76.784 207.099 76.904 206.987 77.128C206.891 77.352 206.843 77.728 206.843 78.256V87.448C206.843 89.768 206.347 91.416 205.355 92.392C204.379 93.368 202.867 93.856 200.819 93.856ZM200.651 86.536C201.643 86.536 202.411 86.384 202.955 86.08C203.499 85.76 203.875 85.296 204.083 84.688C204.291 84.064 204.395 83.304 204.395 82.408C204.395 81.528 204.283 80.776 204.059 80.152C203.851 79.528 203.475 79.048 202.931 78.712C202.403 78.376 201.643 78.208 200.651 78.208C199.755 78.208 199.051 78.384 198.539 78.736C198.027 79.072 197.659 79.56 197.435 80.2C197.227 80.824 197.123 81.568 197.123 82.432C197.123 83.28 197.227 84.016 197.435 84.64C197.643 85.248 198.003 85.72 198.515 86.056C199.043 86.376 199.755 86.536 200.651 86.536ZM220.129 90.16C219.889 90.16 219.561 90.056 219.145 89.848C218.745 89.64 218.305 89.312 217.825 88.864C217.345 88.432 216.889 87.856 216.457 87.136C216.041 86.4 215.697 85.512 215.425 84.472C215.153 83.432 215.017 82.216 215.017 80.824C215.017 79.432 215.153 78.224 215.425 77.2C215.697 76.176 216.041 75.312 216.457 74.608C216.889 73.904 217.345 73.344 217.825 72.928C218.305 72.496 218.745 72.184 219.145 71.992C219.561 71.8 219.889 71.704 220.129 71.704C220.129 71.912 220.177 72.104 220.273 72.28C220.385 72.456 220.489 72.584 220.585 72.664H220.345C220.025 72.664 219.657 72.808 219.241 73.096C218.825 73.384 218.417 73.848 218.017 74.488C217.633 75.112 217.313 75.944 217.057 76.984C216.801 78.024 216.673 79.304 216.673 80.824C216.673 82.328 216.801 83.616 217.057 84.688C217.313 85.744 217.633 86.608 218.017 87.28C218.417 87.952 218.825 88.44 219.241 88.744C219.657 89.048 220.025 89.2 220.345 89.2H220.585C220.489 89.296 220.385 89.432 220.273 89.608C220.177 89.8 220.129 89.984 220.129 90.16ZM222.792 88C222.904 88 223.008 87.888 223.104 87.664C223.216 87.44 223.272 87.072 223.272 86.56V75.04C223.272 74.528 223.216 74.168 223.104 73.96C222.992 73.736 222.88 73.616 222.768 73.6H230.64C232.096 73.6 233.24 73.8 234.072 74.2C234.92 74.584 235.52 75.136 235.872 75.856C236.224 76.56 236.4 77.384 236.4 78.328C236.4 79.32 236.216 80.184 235.848 80.92C235.496 81.64 234.896 82.2 234.048 82.6C233.216 82.984 232.08 83.176 230.64 83.176H225.96V86.56C225.96 87.072 226.016 87.44 226.128 87.664C226.24 87.888 226.352 88 226.464 88H222.792ZM226.944 81.28H230.136C231.176 81.28 231.952 81.152 232.464 80.896C232.976 80.64 233.312 80.288 233.472 79.84C233.648 79.392 233.736 78.888 233.736 78.328C233.736 77.736 233.632 77.232 233.424 76.816C233.216 76.4 232.848 76.088 232.32 75.88C231.808 75.656 231.08 75.544 230.136 75.544H226.944C226.448 75.544 226.16 75.576 226.08 75.64C226 75.688 225.96 75.872 225.96 76.192V80.608C225.96 80.928 226 81.12 226.08 81.184C226.16 81.248 226.448 81.28 226.944 81.28ZM238.442 88C238.554 88 238.658 87.888 238.754 87.664C238.866 87.44 238.922 87.072 238.922 86.56V72.88C238.922 72.368 238.866 72.008 238.754 71.8C238.658 71.576 238.554 71.456 238.442 71.44C239.146 71.44 239.754 71.392 240.266 71.296C240.794 71.184 241.162 71.072 241.37 70.96V86.56C241.37 87.072 241.418 87.44 241.514 87.664C241.626 87.888 241.738 88 241.85 88H238.442ZM248.743 88.24C246.999 88.24 245.775 87.928 245.071 87.304C244.367 86.664 244.015 85.808 244.015 84.736C244.015 83.984 244.199 83.344 244.567 82.816C244.951 82.272 245.519 81.856 246.271 81.568C247.039 81.28 248.007 81.136 249.175 81.136C250.007 81.136 250.727 81.2 251.335 81.328C251.959 81.44 252.463 81.576 252.847 81.736C253.247 81.896 253.527 82.032 253.687 82.144C253.687 81.2 253.567 80.44 253.327 79.864C253.103 79.288 252.735 78.872 252.223 78.616C251.711 78.344 251.015 78.208 250.135 78.208C249.191 78.208 248.343 78.32 247.591 78.544C246.855 78.752 246.263 78.984 245.815 79.24C245.367 79.48 245.087 79.656 244.975 79.768V79.288L244.735 77.488C244.879 77.424 245.191 77.32 245.671 77.176C246.151 77.016 246.783 76.872 247.567 76.744C248.351 76.6 249.271 76.528 250.327 76.528C251.671 76.528 252.767 76.72 253.615 77.104C254.479 77.472 255.111 78.048 255.511 78.832C255.927 79.6 256.135 80.576 256.135 81.76V86.56C256.135 87.008 256.183 87.336 256.279 87.544C256.391 87.736 256.503 87.888 256.615 88H253.687V87.28L253.735 86.824L253.687 86.8C253.431 87.04 253.127 87.248 252.775 87.424C252.423 87.6 252.039 87.752 251.623 87.88C251.207 87.992 250.751 88.08 250.255 88.144C249.775 88.208 249.271 88.24 248.743 88.24ZM249.535 86.536C250.399 86.536 251.143 86.448 251.767 86.272C252.391 86.096 252.863 85.864 253.183 85.576C253.519 85.272 253.687 84.928 253.687 84.544C253.687 84.064 253.367 83.656 252.727 83.32C252.103 82.984 251.127 82.816 249.799 82.816C248.567 82.816 247.695 82.976 247.183 83.296C246.687 83.616 246.439 84.096 246.439 84.736C246.439 85.36 246.679 85.816 247.159 86.104C247.655 86.392 248.447 86.536 249.535 86.536ZM258.834 93.856C257.874 93.856 257.114 93.76 256.554 93.568C255.994 93.376 255.634 93.192 255.474 93.016L255.954 90.496V89.776C256.066 90.112 256.25 90.464 256.506 90.832C256.746 91.216 257.058 91.536 257.442 91.792C257.826 92.048 258.258 92.176 258.738 92.176C259.282 92.176 259.746 92.064 260.13 91.84C260.514 91.632 260.85 91.328 261.138 90.928C261.442 90.528 261.73 90.064 262.002 89.536C262.322 88.896 262.522 88.456 262.602 88.216C262.506 88.088 262.354 87.792 262.146 87.328C261.938 86.864 261.69 86.304 261.402 85.648C261.114 84.976 260.81 84.264 260.49 83.512C260.186 82.76 259.882 82.032 259.578 81.328C259.274 80.624 259.002 80 258.762 79.456C258.522 78.912 258.338 78.52 258.21 78.28C257.938 77.768 257.69 77.392 257.466 77.152C257.242 76.912 257.082 76.784 256.986 76.768H260.898C260.77 76.768 260.682 76.888 260.634 77.128C260.602 77.352 260.69 77.736 260.898 78.28C261.026 78.584 261.202 79.024 261.426 79.6C261.65 80.16 261.898 80.8 262.17 81.52C262.442 82.224 262.722 82.944 263.01 83.68C263.298 84.4 263.562 85.072 263.802 85.696H263.826C264.082 85.04 264.362 84.336 264.666 83.584C264.97 82.832 265.266 82.096 265.554 81.376C265.858 80.656 266.122 80.016 266.346 79.456C266.586 78.896 266.762 78.488 266.874 78.232C267.098 77.72 267.186 77.352 267.138 77.128C267.09 76.904 267.002 76.784 266.874 76.768H270.642C270.546 76.784 270.394 76.904 270.186 77.128C269.994 77.336 269.77 77.696 269.514 78.208C269.37 78.48 269.146 78.944 268.842 79.6C268.554 80.256 268.218 81.008 267.834 81.856C267.45 82.704 267.058 83.584 266.658 84.496C266.258 85.392 265.882 86.24 265.53 87.04C265.178 87.824 264.882 88.472 264.642 88.984C264.146 90.056 263.618 90.952 263.058 91.672C262.514 92.408 261.898 92.952 261.21 93.304C260.522 93.672 259.73 93.856 258.834 93.856ZM277.042 88.24C275.778 88.24 274.738 88.096 273.922 87.808C273.106 87.504 272.466 87.088 272.002 86.56C271.538 86.032 271.21 85.416 271.018 84.712C270.842 84.008 270.754 83.24 270.754 82.408C270.754 80.6 271.266 79.168 272.29 78.112C273.33 77.056 274.866 76.528 276.898 76.528C278.082 76.528 279.034 76.688 279.754 77.008C280.49 77.328 281.042 77.752 281.41 78.28C281.794 78.808 282.05 79.384 282.178 80.008C282.322 80.616 282.394 81.216 282.394 81.808V82.936C282.394 82.888 282.17 82.84 281.722 82.792C281.29 82.728 280.554 82.696 279.514 82.696H273.202C273.202 83.88 273.554 84.816 274.258 85.504C274.962 86.192 276.01 86.536 277.402 86.536C278.602 86.536 279.586 86.392 280.354 86.104C281.138 85.8 281.658 85.504 281.914 85.216V85.696L282.154 87.28C281.802 87.488 281.178 87.704 280.282 87.928C279.402 88.136 278.322 88.24 277.042 88.24ZM274.162 81.112H279.994C279.994 80.696 279.906 80.264 279.73 79.816C279.554 79.368 279.242 78.992 278.794 78.688C278.346 78.368 277.714 78.208 276.898 78.208C276.21 78.208 275.61 78.328 275.098 78.568C274.586 78.792 274.186 79.088 273.898 79.456C273.626 79.824 273.49 80.216 273.49 80.632C273.49 80.792 273.538 80.912 273.634 80.992C273.73 81.072 273.906 81.112 274.162 81.112ZM284.448 88C284.56 88 284.664 87.888 284.76 87.664C284.872 87.44 284.928 87.072 284.928 86.56V78.448C284.928 77.936 284.872 77.576 284.76 77.368C284.664 77.144 284.56 77.024 284.448 77.008C285.152 77.008 285.76 76.96 286.272 76.864C286.8 76.752 287.168 76.64 287.376 76.528V77.728L287.328 78.136L287.376 78.184C287.616 77.864 287.904 77.584 288.24 77.344C288.592 77.088 288.992 76.888 289.44 76.744C289.888 76.6 290.4 76.528 290.976 76.528C291.728 76.528 292.376 76.64 292.92 76.864C293.48 77.072 293.88 77.288 294.12 77.512L293.64 79.528V80.248C293.432 79.992 293.128 79.728 292.728 79.456C292.344 79.168 291.904 78.928 291.408 78.736C290.912 78.544 290.384 78.448 289.824 78.448C289.184 78.448 288.616 78.704 288.12 79.216C287.624 79.728 287.376 80.576 287.376 81.76V86.56C287.376 87.072 287.424 87.44 287.52 87.664C287.632 87.888 287.744 88 287.856 88H284.448ZM306.047 88.24C304.303 88.24 303.079 87.928 302.375 87.304C301.671 86.664 301.319 85.808 301.319 84.736C301.319 83.984 301.503 83.344 301.871 82.816C302.255 82.272 302.823 81.856 303.575 81.568C304.343 81.28 305.311 81.136 306.479 81.136C307.311 81.136 308.031 81.2 308.639 81.328C309.263 81.44 309.767 81.576 310.151 81.736C310.551 81.896 310.831 82.032 310.991 82.144C310.991 81.2 310.871 80.44 310.631 79.864C310.407 79.288 310.039 78.872 309.527 78.616C309.015 78.344 308.319 78.208 307.439 78.208C306.495 78.208 305.647 78.32 304.895 78.544C304.159 78.752 303.567 78.984 303.119 79.24C302.671 79.48 302.391 79.656 302.279 79.768V79.288L302.039 77.488C302.183 77.424 302.495 77.32 302.975 77.176C303.455 77.016 304.087 76.872 304.871 76.744C305.655 76.6 306.575 76.528 307.631 76.528C308.975 76.528 310.071 76.72 310.919 77.104C311.783 77.472 312.415 78.048 312.815 78.832C313.231 79.6 313.439 80.576 313.439 81.76V86.56C313.439 87.008 313.487 87.336 313.583 87.544C313.695 87.736 313.807 87.888 313.919 88H310.991V87.28L311.039 86.824L310.991 86.8C310.735 87.04 310.431 87.248 310.079 87.424C309.727 87.6 309.343 87.752 308.927 87.88C308.511 87.992 308.055 88.08 307.559 88.144C307.079 88.208 306.575 88.24 306.047 88.24ZM306.839 86.536C307.703 86.536 308.447 86.448 309.071 86.272C309.695 86.096 310.167 85.864 310.487 85.576C310.823 85.272 310.991 84.928 310.991 84.544C310.991 84.064 310.671 83.656 310.031 83.32C309.407 82.984 308.431 82.816 307.103 82.816C305.871 82.816 304.999 82.976 304.487 83.296C303.991 83.616 303.743 84.096 303.743 84.736C303.743 85.36 303.983 85.816 304.463 86.104C304.959 86.392 305.751 86.536 306.839 86.536ZM315.995 88C316.107 88 316.211 87.888 316.307 87.664C316.419 87.44 316.475 87.072 316.475 86.56V78.448C316.475 77.936 316.419 77.576 316.307 77.368C316.211 77.144 316.107 77.024 315.995 77.008C316.699 77.008 317.307 76.96 317.819 76.864C318.347 76.752 318.715 76.64 318.923 76.528V77.992L318.875 78.304L318.923 78.352C319.163 78.048 319.467 77.76 319.835 77.488C320.219 77.216 320.691 76.992 321.251 76.816C321.811 76.624 322.467 76.528 323.219 76.528C324.707 76.528 325.843 76.952 326.627 77.8C327.427 78.648 327.827 79.976 327.827 81.784V86.56C327.827 87.072 327.875 87.44 327.971 87.664C328.083 87.888 328.195 88 328.307 88H324.899C325.011 88 325.115 87.888 325.211 87.664C325.323 87.44 325.379 87.072 325.379 86.56V81.856C325.379 80.912 325.259 80.176 325.019 79.648C324.779 79.12 324.443 78.752 324.011 78.544C323.595 78.32 323.107 78.208 322.547 78.208C321.955 78.208 321.379 78.336 320.819 78.592C320.259 78.848 319.803 79.256 319.451 79.816C319.099 80.376 318.923 81.128 318.923 82.072V86.56C318.923 87.072 318.971 87.44 319.067 87.664C319.179 87.888 319.291 88 319.403 88H315.995ZM335.882 88.24C334.362 88.24 333.178 87.984 332.33 87.472C331.498 86.96 330.914 86.264 330.578 85.384C330.258 84.504 330.098 83.512 330.098 82.408C330.098 81.288 330.258 80.288 330.578 79.408C330.914 78.528 331.498 77.832 332.33 77.32C333.178 76.792 334.362 76.528 335.882 76.528C336.522 76.528 337.09 76.592 337.586 76.72C338.082 76.832 338.514 76.992 338.882 77.2C339.25 77.392 339.554 77.624 339.794 77.896L339.842 77.872L339.794 77.416V72.88C339.794 72.368 339.738 72.008 339.626 71.8C339.53 71.576 339.426 71.456 339.314 71.44H342.242V86.56C342.242 87.072 342.29 87.44 342.386 87.664C342.498 87.888 342.61 88 342.722 88H339.794V87.256L339.866 86.8L339.794 86.776C339.554 87.048 339.25 87.296 338.882 87.52C338.514 87.744 338.082 87.92 337.586 88.048C337.09 88.176 336.522 88.24 335.882 88.24ZM336.05 86.536C336.866 86.536 337.522 86.416 338.018 86.176C338.514 85.92 338.89 85.592 339.146 85.192C339.402 84.776 339.57 84.328 339.65 83.848C339.746 83.368 339.794 82.888 339.794 82.408C339.794 81.992 339.746 81.544 339.65 81.064C339.554 80.568 339.378 80.104 339.122 79.672C338.866 79.24 338.49 78.888 337.994 78.616C337.498 78.344 336.85 78.208 336.05 78.208C334.706 78.208 333.778 78.592 333.266 79.36C332.77 80.128 332.522 81.152 332.522 82.432C332.522 83.28 332.618 84.016 332.81 84.64C333.018 85.248 333.378 85.72 333.89 86.056C334.402 86.376 335.122 86.536 336.05 86.536ZM21.44 118C21.552 118 21.664 117.888 21.776 117.664C21.888 117.44 21.944 117.072 21.944 116.56V105.04C21.944 104.528 21.888 104.168 21.776 103.96C21.664 103.736 21.552 103.616 21.44 103.6H29.96C31.256 103.6 32.288 103.744 33.056 104.032C33.84 104.32 34.4 104.736 34.736 105.28C35.088 105.808 35.264 106.432 35.264 107.152C35.264 107.68 35.16 108.144 34.952 108.544C34.76 108.928 34.512 109.248 34.208 109.504C33.904 109.744 33.6 109.92 33.296 110.032V110.08C34.336 110.32 35.12 110.76 35.648 111.4C36.176 112.024 36.44 112.832 36.44 113.824C36.44 114.608 36.256 115.32 35.888 115.96C35.52 116.584 34.928 117.08 34.112 117.448C33.312 117.816 32.248 118 30.92 118H21.44ZM25.592 116.056H30.488C31.656 116.056 32.488 115.848 32.984 115.432C33.496 115 33.752 114.432 33.752 113.728C33.752 112.912 33.464 112.32 32.888 111.952C32.328 111.568 31.288 111.376 29.768 111.376H25.616C25.136 111.376 24.848 111.408 24.752 111.472C24.672 111.536 24.632 111.752 24.632 112.12V115.336C24.632 115.688 24.672 115.896 24.752 115.96C24.848 116.024 25.128 116.056 25.592 116.056ZM25.616 109.696H29.984C30.88 109.696 31.536 109.528 31.952 109.192C32.384 108.84 32.6 108.272 32.6 107.488C32.6 106.832 32.384 106.344 31.952 106.024C31.536 105.688 30.808 105.52 29.768 105.52H25.616C25.136 105.52 24.848 105.552 24.752 105.616C24.672 105.664 24.632 105.872 24.632 106.24V108.976C24.632 109.328 24.672 109.536 24.752 109.6C24.848 109.664 25.136 109.696 25.616 109.696ZM44.1883 118.24C42.5883 118.24 41.3323 117.984 40.4203 117.472C39.5243 116.96 38.8923 116.264 38.5243 115.384C38.1723 114.504 37.9963 113.512 37.9963 112.408C37.9963 111.288 38.1803 110.288 38.5483 109.408C38.9323 108.528 39.5723 107.832 40.4683 107.32C41.3643 106.792 42.6043 106.528 44.1883 106.528C45.7723 106.528 47.0123 106.792 47.9083 107.32C48.8043 107.832 49.4363 108.528 49.8043 109.408C50.1883 110.288 50.3802 111.288 50.3802 112.408C50.3802 113.512 50.1962 114.504 49.8282 115.384C49.4763 116.264 48.8523 116.96 47.9563 117.472C47.0603 117.984 45.8043 118.24 44.1883 118.24ZM44.1883 116.536C45.1803 116.536 45.9483 116.376 46.4923 116.056C47.0363 115.736 47.4123 115.272 47.6203 114.664C47.8283 114.04 47.9323 113.288 47.9323 112.408C47.9323 111.528 47.8203 110.776 47.5963 110.152C47.3883 109.528 47.0123 109.048 46.4683 108.712C45.9403 108.376 45.1803 108.208 44.1883 108.208C43.2123 108.208 42.4523 108.384 41.9083 108.736C41.3643 109.072 40.9803 109.56 40.7563 110.2C40.5483 110.824 40.4443 111.568 40.4443 112.432C40.4443 113.28 40.5483 114.016 40.7563 114.64C40.9643 115.248 41.3403 115.72 41.8843 116.056C42.4283 116.376 43.1963 116.536 44.1883 116.536ZM56.9068 118.24C55.1628 118.24 53.9388 117.928 53.2348 117.304C52.5308 116.664 52.1788 115.808 52.1788 114.736C52.1788 113.984 52.3628 113.344 52.7308 112.816C53.1148 112.272 53.6828 111.856 54.4348 111.568C55.2028 111.28 56.1708 111.136 57.3388 111.136C58.1708 111.136 58.8908 111.2 59.4988 111.328C60.1228 111.44 60.6268 111.576 61.0108 111.736C61.4108 111.896 61.6908 112.032 61.8508 112.144C61.8508 111.2 61.7308 110.44 61.4908 109.864C61.2668 109.288 60.8988 108.872 60.3868 108.616C59.8748 108.344 59.1788 108.208 58.2988 108.208C57.3548 108.208 56.5068 108.32 55.7548 108.544C55.0188 108.752 54.4268 108.984 53.9788 109.24C53.5308 109.48 53.2508 109.656 53.1388 109.768V109.288L52.8988 107.488C53.0428 107.424 53.3548 107.32 53.8348 107.176C54.3148 107.016 54.9468 106.872 55.7308 106.744C56.5148 106.6 57.4348 106.528 58.4908 106.528C59.8348 106.528 60.9308 106.72 61.7788 107.104C62.6428 107.472 63.2748 108.048 63.6748 108.832C64.0908 109.6 64.2988 110.576 64.2988 111.76V116.56C64.2988 117.008 64.3468 117.336 64.4427 117.544C64.5548 117.736 64.6668 117.888 64.7787 118H61.8508V117.28L61.8988 116.824L61.8508 116.8C61.5948 117.04 61.2908 117.248 60.9388 117.424C60.5868 117.6 60.2028 117.752 59.7868 117.88C59.3708 117.992 58.9148 118.08 58.4188 118.144C57.9388 118.208 57.4348 118.24 56.9068 118.24ZM57.6988 116.536C58.5628 116.536 59.3068 116.448 59.9308 116.272C60.5548 116.096 61.0268 115.864 61.3468 115.576C61.6828 115.272 61.8508 114.928 61.8508 114.544C61.8508 114.064 61.5308 113.656 60.8908 113.32C60.2668 112.984 59.2908 112.816 57.9628 112.816C56.7308 112.816 55.8588 112.976 55.3468 113.296C54.8508 113.616 54.6028 114.096 54.6028 114.736C54.6028 115.36 54.8428 115.816 55.3228 116.104C55.8188 116.392 56.6108 116.536 57.6988 116.536ZM66.854 118C66.966 118 67.07 117.888 67.166 117.664C67.278 117.44 67.334 117.072 67.334 116.56V108.448C67.334 107.936 67.278 107.576 67.166 107.368C67.07 107.144 66.966 107.024 66.854 107.008C67.558 107.008 68.166 106.96 68.678 106.864C69.206 106.752 69.574 106.64 69.782 106.528V107.728L69.734 108.136L69.782 108.184C70.022 107.864 70.31 107.584 70.646 107.344C70.998 107.088 71.398 106.888 71.846 106.744C72.294 106.6 72.806 106.528 73.382 106.528C74.134 106.528 74.782 106.64 75.326 106.864C75.886 107.072 76.286 107.288 76.526 107.512L76.046 109.528V110.248C75.838 109.992 75.534 109.728 75.134 109.456C74.75 109.168 74.31 108.928 73.814 108.736C73.318 108.544 72.79 108.448 72.23 108.448C71.59 108.448 71.022 108.704 70.526 109.216C70.03 109.728 69.782 110.576 69.782 111.76V116.56C69.782 117.072 69.83 117.44 69.926 117.664C70.038 117.888 70.15 118 70.262 118H66.854ZM82.8974 118.24C81.3774 118.24 80.1934 117.984 79.3454 117.472C78.5134 116.96 77.9294 116.264 77.5934 115.384C77.2734 114.504 77.1134 113.512 77.1134 112.408C77.1134 111.288 77.2734 110.288 77.5934 109.408C77.9294 108.528 78.5134 107.832 79.3454 107.32C80.1934 106.792 81.3774 106.528 82.8974 106.528C83.5374 106.528 84.1054 106.592 84.6014 106.72C85.0974 106.832 85.5294 106.992 85.8974 107.2C86.2654 107.392 86.5694 107.624 86.8094 107.896L86.8574 107.872L86.8094 107.416V102.88C86.8094 102.368 86.7534 102.008 86.6414 101.8C86.5454 101.576 86.4414 101.456 86.3294 101.44H89.2574V116.56C89.2574 117.072 89.3054 117.44 89.4014 117.664C89.5134 117.888 89.6254 118 89.7374 118H86.8094V117.256L86.8814 116.8L86.8094 116.776C86.5694 117.048 86.2654 117.296 85.8974 117.52C85.5294 117.744 85.0974 117.92 84.6014 118.048C84.1054 118.176 83.5374 118.24 82.8974 118.24ZM83.0654 116.536C83.8814 116.536 84.5374 116.416 85.0334 116.176C85.5294 115.92 85.9054 115.592 86.1614 115.192C86.4174 114.776 86.5854 114.328 86.6654 113.848C86.7614 113.368 86.8094 112.888 86.8094 112.408C86.8094 111.992 86.7614 111.544 86.6654 111.064C86.5694 110.568 86.3934 110.104 86.1374 109.672C85.8814 109.24 85.5054 108.888 85.0094 108.616C84.5134 108.344 83.8654 108.208 83.0654 108.208C81.7214 108.208 80.7934 108.592 80.2814 109.36C79.7854 110.128 79.5374 111.152 79.5374 112.432C79.5374 113.28 79.6334 114.016 79.8254 114.64C80.0334 115.248 80.3934 115.72 80.9054 116.056C81.4174 116.376 82.1374 116.536 83.0654 116.536ZM105.687 118.24C103.943 118.24 102.399 118.16 101.055 118C99.7109 117.84 98.7429 117.68 98.1509 117.52V117.04L97.6709 114.472C97.8949 114.728 98.3189 115 98.9429 115.288C99.5829 115.576 100.431 115.824 101.487 116.032C102.543 116.224 103.799 116.32 105.255 116.32C106.567 116.32 107.559 116.232 108.231 116.056C108.919 115.864 109.383 115.608 109.623 115.288C109.879 114.952 110.007 114.568 110.007 114.136C110.007 113.624 109.799 113.216 109.383 112.912C108.967 112.608 108.343 112.368 107.511 112.192C106.695 112 105.679 111.832 104.463 111.688C102.879 111.48 101.607 111.208 100.647 110.872C99.6869 110.52 98.9909 110.056 98.5589 109.48C98.1269 108.904 97.9109 108.176 97.9109 107.296C97.9109 106.544 98.1349 105.872 98.5829 105.28C99.0469 104.688 99.7429 104.224 100.671 103.888C101.599 103.536 102.783 103.36 104.223 103.36C105.887 103.36 107.335 103.44 108.567 103.6C109.799 103.76 110.671 103.92 111.183 104.08V104.56L111.903 106.72C111.567 106.512 111.047 106.296 110.343 106.072C109.655 105.848 108.823 105.664 107.847 105.52C106.871 105.36 105.783 105.28 104.583 105.28C103.591 105.28 102.799 105.352 102.207 105.496C101.631 105.64 101.215 105.856 100.959 106.144C100.719 106.416 100.599 106.752 100.599 107.152C100.599 107.68 100.791 108.104 101.175 108.424C101.575 108.744 102.151 108.992 102.903 109.168C103.671 109.344 104.599 109.496 105.687 109.624C107.415 109.816 108.791 110.088 109.815 110.44C110.839 110.792 111.575 111.264 112.023 111.856C112.471 112.448 112.695 113.216 112.695 114.16C112.695 114.784 112.543 115.352 112.239 115.864C111.951 116.36 111.511 116.792 110.919 117.16C110.327 117.512 109.591 117.784 108.711 117.976C107.847 118.152 106.839 118.24 105.687 118.24ZM114.76 118C114.872 118 114.976 117.888 115.072 117.664C115.184 117.44 115.24 117.072 115.24 116.56V108.208C115.24 107.696 115.184 107.336 115.072 107.128C114.976 106.904 114.872 106.784 114.76 106.768H117.688V116.56C117.688 117.072 117.736 117.44 117.832 117.664C117.944 117.888 118.056 118 118.168 118H114.76ZM116.224 104.464C115.76 104.464 115.4 104.336 115.144 104.08C114.888 103.808 114.76 103.496 114.76 103.144C114.76 102.776 114.88 102.464 115.12 102.208C115.376 101.952 115.744 101.824 116.224 101.824C116.704 101.824 117.064 101.952 117.304 102.208C117.56 102.464 117.688 102.776 117.688 103.144C117.688 103.496 117.56 103.808 117.304 104.08C117.048 104.336 116.688 104.464 116.224 104.464ZM119.621 118C119.669 117.888 119.765 117.712 119.909 117.472C120.069 117.232 120.269 116.96 120.509 116.656C120.733 116.352 121.029 115.96 121.397 115.48C121.765 115 122.173 114.472 122.621 113.896C123.069 113.304 123.533 112.696 124.013 112.072C124.509 111.432 124.989 110.808 125.453 110.2C125.933 109.592 126.373 109.024 126.773 108.496V108.448H122.477C121.453 108.448 120.725 108.504 120.293 108.616C119.861 108.712 119.629 108.816 119.597 108.928V106.768H121.997C122.429 106.768 123.005 106.768 123.725 106.768C124.445 106.768 125.229 106.768 126.077 106.768C126.941 106.768 127.797 106.768 128.645 106.768C129.509 106.768 130.301 106.768 131.021 106.768C130.957 106.864 130.845 107.032 130.685 107.272C130.525 107.496 130.309 107.776 130.037 108.112C129.653 108.608 129.189 109.2 128.645 109.888C128.101 110.576 127.533 111.296 126.941 112.048C126.349 112.8 125.765 113.544 125.189 114.28C124.613 115 124.093 115.648 123.629 116.224V116.296H128.141C129.133 116.296 129.901 116.248 130.445 116.152C131.005 116.04 131.357 115.928 131.501 115.816L131.021 117.496V118H119.621ZM139.112 118.24C137.848 118.24 136.808 118.096 135.992 117.808C135.176 117.504 134.536 117.088 134.072 116.56C133.608 116.032 133.28 115.416 133.088 114.712C132.912 114.008 132.824 113.24 132.824 112.408C132.824 110.6 133.336 109.168 134.36 108.112C135.4 107.056 136.936 106.528 138.968 106.528C140.152 106.528 141.104 106.688 141.824 107.008C142.56 107.328 143.112 107.752 143.48 108.28C143.864 108.808 144.12 109.384 144.248 110.008C144.392 110.616 144.464 111.216 144.464 111.808V112.936C144.464 112.888 144.24 112.84 143.792 112.792C143.36 112.728 142.624 112.696 141.584 112.696H135.272C135.272 113.88 135.624 114.816 136.328 115.504C137.032 116.192 138.08 116.536 139.472 116.536C140.672 116.536 141.656 116.392 142.424 116.104C143.208 115.8 143.728 115.504 143.984 115.216V115.696L144.224 117.28C143.872 117.488 143.248 117.704 142.352 117.928C141.472 118.136 140.392 118.24 139.112 118.24ZM136.232 111.112H142.064C142.064 110.696 141.976 110.264 141.8 109.816C141.624 109.368 141.312 108.992 140.864 108.688C140.416 108.368 139.784 108.208 138.968 108.208C138.28 108.208 137.68 108.328 137.168 108.568C136.656 108.792 136.256 109.088 135.968 109.456C135.696 109.824 135.56 110.216 135.56 110.632C135.56 110.792 135.608 110.912 135.704 110.992C135.8 111.072 135.976 111.112 136.232 111.112ZM146.614 120.16C146.614 119.984 146.558 119.8 146.446 119.608C146.35 119.432 146.254 119.296 146.158 119.2H146.398C146.718 119.2 147.086 119.048 147.502 118.744C147.918 118.44 148.318 117.952 148.702 117.28C149.102 116.608 149.43 115.744 149.686 114.688C149.942 113.616 150.07 112.328 150.07 110.824C150.07 109.304 149.942 108.024 149.686 106.984C149.43 105.944 149.102 105.112 148.702 104.488C148.318 103.848 147.918 103.384 147.502 103.096C147.086 102.808 146.718 102.664 146.398 102.664H146.158C146.254 102.584 146.35 102.456 146.446 102.28C146.558 102.104 146.614 101.912 146.614 101.704C146.854 101.704 147.174 101.8 147.574 101.992C147.99 102.184 148.438 102.496 148.918 102.928C149.398 103.344 149.846 103.904 150.262 104.608C150.694 105.312 151.046 106.176 151.318 107.2C151.59 108.224 151.726 109.432 151.726 110.824C151.726 112.216 151.59 113.432 151.318 114.472C151.046 115.512 150.694 116.4 150.262 117.136C149.846 117.856 149.398 118.432 148.918 118.864C148.438 119.312 147.99 119.64 147.574 119.848C147.174 120.056 146.854 120.16 146.614 120.16ZM154.389 120.88L153.909 120.04C154.597 119.88 155.069 119.592 155.325 119.176C155.581 118.76 155.669 118.352 155.589 117.952C155.525 117.968 155.445 117.984 155.349 118C155.269 118 155.189 118 155.109 118C154.645 118 154.285 117.872 154.029 117.616C153.773 117.344 153.645 117.032 153.645 116.68C153.645 116.312 153.765 116 154.005 115.744C154.261 115.488 154.629 115.36 155.109 115.36C155.877 115.36 156.429 115.608 156.765 116.104C157.101 116.6 157.269 117.152 157.269 117.76C157.269 118.384 157.117 118.92 156.813 119.368C156.525 119.816 156.157 120.168 155.709 120.424C155.277 120.68 154.837 120.832 154.389 120.88ZM171.266 118.24C169.666 118.24 168.41 117.984 167.498 117.472C166.602 116.96 165.97 116.264 165.602 115.384C165.25 114.504 165.074 113.512 165.074 112.408C165.074 111.288 165.258 110.288 165.626 109.408C166.01 108.528 166.65 107.832 167.546 107.32C168.442 106.792 169.682 106.528 171.266 106.528C172.85 106.528 174.09 106.792 174.986 107.32C175.882 107.832 176.514 108.528 176.882 109.408C177.266 110.288 177.458 111.288 177.458 112.408C177.458 113.512 177.274 114.504 176.906 115.384C176.554 116.264 175.93 116.96 175.034 117.472C174.138 117.984 172.882 118.24 171.266 118.24ZM171.266 116.536C172.258 116.536 173.026 116.376 173.57 116.056C174.114 115.736 174.49 115.272 174.698 114.664C174.906 114.04 175.01 113.288 175.01 112.408C175.01 111.528 174.898 110.776 174.674 110.152C174.466 109.528 174.09 109.048 173.546 108.712C173.018 108.376 172.258 108.208 171.266 108.208C170.29 108.208 169.53 108.384 168.986 108.736C168.442 109.072 168.058 109.56 167.834 110.2C167.626 110.824 167.522 111.568 167.522 112.432C167.522 113.28 167.626 114.016 167.834 114.64C168.042 115.248 168.418 115.72 168.962 116.056C169.506 116.376 170.274 116.536 171.266 116.536ZM179.401 118C179.513 118 179.617 117.888 179.713 117.664C179.825 117.44 179.881 117.072 179.881 116.56V108.448C179.881 107.936 179.825 107.576 179.713 107.368C179.617 107.144 179.513 107.024 179.401 107.008C180.105 107.008 180.713 106.96 181.225 106.864C181.753 106.752 182.121 106.64 182.329 106.528V107.992L182.281 108.304L182.329 108.352C182.569 108.048 182.873 107.76 183.241 107.488C183.625 107.216 184.097 106.992 184.657 106.816C185.217 106.624 185.873 106.528 186.625 106.528C188.113 106.528 189.249 106.952 190.033 107.8C190.833 108.648 191.233 109.976 191.233 111.784V116.56C191.233 117.072 191.281 117.44 191.377 117.664C191.489 117.888 191.601 118 191.713 118H188.305C188.417 118 188.521 117.888 188.617 117.664C188.729 117.44 188.785 117.072 188.785 116.56V111.856C188.785 110.912 188.665 110.176 188.425 109.648C188.185 109.12 187.849 108.752 187.417 108.544C187.001 108.32 186.513 108.208 185.953 108.208C185.361 108.208 184.785 108.336 184.225 108.592C183.665 108.848 183.209 109.256 182.857 109.816C182.505 110.376 182.329 111.128 182.329 112.072V116.56C182.329 117.072 182.377 117.44 182.473 117.664C182.585 117.888 182.697 118 182.809 118H179.401ZM193.864 118C193.976 118 194.08 117.888 194.176 117.664C194.288 117.44 194.344 117.072 194.344 116.56V102.88C194.344 102.368 194.288 102.008 194.176 101.8C194.08 101.576 193.976 101.456 193.864 101.44C194.568 101.44 195.176 101.392 195.688 101.296C196.216 101.184 196.584 101.072 196.792 100.96V116.56C196.792 117.072 196.84 117.44 196.936 117.664C197.048 117.888 197.16 118 197.272 118H193.864ZM199.725 123.856C198.765 123.856 198.005 123.76 197.445 123.568C196.885 123.376 196.525 123.192 196.365 123.016L196.845 120.496V119.776C196.957 120.112 197.141 120.464 197.397 120.832C197.637 121.216 197.949 121.536 198.333 121.792C198.717 122.048 199.149 122.176 199.629 122.176C200.173 122.176 200.637 122.064 201.021 121.84C201.405 121.632 201.741 121.328 202.029 120.928C202.333 120.528 202.621 120.064 202.893 119.536C203.213 118.896 203.413 118.456 203.493 118.216C203.397 118.088 203.245 117.792 203.037 117.328C202.829 116.864 202.581 116.304 202.293 115.648C202.005 114.976 201.701 114.264 201.381 113.512C201.077 112.76 200.773 112.032 200.469 111.328C200.165 110.624 199.893 110 199.653 109.456C199.413 108.912 199.229 108.52 199.101 108.28C198.829 107.768 198.581 107.392 198.357 107.152C198.133 106.912 197.973 106.784 197.877 106.768H201.789C201.661 106.768 201.573 106.888 201.525 107.128C201.493 107.352 201.581 107.736 201.789 108.28C201.917 108.584 202.093 109.024 202.317 109.6C202.541 110.16 202.789 110.8 203.061 111.52C203.333 112.224 203.613 112.944 203.901 113.68C204.189 114.4 204.453 115.072 204.693 115.696H204.717C204.973 115.04 205.253 114.336 205.557 113.584C205.861 112.832 206.157 112.096 206.445 111.376C206.749 110.656 207.013 110.016 207.237 109.456C207.477 108.896 207.653 108.488 207.765 108.232C207.989 107.72 208.077 107.352 208.029 107.128C207.981 106.904 207.893 106.784 207.765 106.768H211.533C211.437 106.784 211.285 106.904 211.077 107.128C210.885 107.336 210.661 107.696 210.405 108.208C210.261 108.48 210.037 108.944 209.733 109.6C209.445 110.256 209.109 111.008 208.725 111.856C208.341 112.704 207.949 113.584 207.549 114.496C207.149 115.392 206.773 116.24 206.421 117.04C206.069 117.824 205.773 118.472 205.533 118.984C205.037 120.056 204.509 120.952 203.949 121.672C203.405 122.408 202.789 122.952 202.101 123.304C201.413 123.672 200.621 123.856 199.725 123.856ZM224.329 118.24C222.729 118.24 221.473 117.984 220.561 117.472C219.665 116.96 219.033 116.264 218.665 115.384C218.313 114.504 218.137 113.512 218.137 112.408C218.137 111.288 218.321 110.288 218.689 109.408C219.073 108.528 219.713 107.832 220.609 107.32C221.505 106.792 222.745 106.528 224.329 106.528C225.913 106.528 227.153 106.792 228.049 107.32C228.945 107.832 229.577 108.528 229.945 109.408C230.329 110.288 230.521 111.288 230.521 112.408C230.521 113.512 230.337 114.504 229.969 115.384C229.617 116.264 228.993 116.96 228.097 117.472C227.201 117.984 225.945 118.24 224.329 118.24ZM224.329 116.536C225.321 116.536 226.089 116.376 226.633 116.056C227.177 115.736 227.553 115.272 227.761 114.664C227.969 114.04 228.073 113.288 228.073 112.408C228.073 111.528 227.961 110.776 227.737 110.152C227.529 109.528 227.153 109.048 226.609 108.712C226.081 108.376 225.321 108.208 224.329 108.208C223.353 108.208 222.593 108.384 222.049 108.736C221.505 109.072 221.121 109.56 220.897 110.2C220.689 110.824 220.585 111.568 220.585 112.432C220.585 113.28 220.689 114.016 220.897 114.64C221.105 115.248 221.481 115.72 222.025 116.056C222.569 116.376 223.337 116.536 224.329 116.536ZM232.463 118C232.575 118 232.679 117.888 232.775 117.664C232.887 117.44 232.943 117.072 232.943 116.56V108.448C232.943 107.936 232.887 107.576 232.775 107.368C232.679 107.144 232.575 107.024 232.463 107.008C233.167 107.008 233.775 106.96 234.287 106.864C234.815 106.752 235.183 106.64 235.391 106.528V107.992L235.343 108.304L235.391 108.352C235.631 108.048 235.935 107.76 236.303 107.488C236.687 107.216 237.159 106.992 237.719 106.816C238.279 106.624 238.935 106.528 239.687 106.528C241.175 106.528 242.311 106.952 243.095 107.8C243.895 108.648 244.295 109.976 244.295 111.784V116.56C244.295 117.072 244.343 117.44 244.439 117.664C244.551 117.888 244.663 118 244.775 118H241.367C241.479 118 241.583 117.888 241.679 117.664C241.791 117.44 241.847 117.072 241.847 116.56V111.856C241.847 110.912 241.727 110.176 241.487 109.648C241.247 109.12 240.911 108.752 240.479 108.544C240.063 108.32 239.575 108.208 239.015 108.208C238.423 108.208 237.847 108.336 237.287 108.592C236.727 108.848 236.271 109.256 235.919 109.816C235.567 110.376 235.391 111.128 235.391 112.072V116.56C235.391 117.072 235.439 117.44 235.535 117.664C235.647 117.888 235.759 118 235.871 118H232.463ZM252.855 118.24C251.591 118.24 250.551 118.096 249.735 117.808C248.919 117.504 248.279 117.088 247.815 116.56C247.351 116.032 247.023 115.416 246.831 114.712C246.655 114.008 246.567 113.24 246.567 112.408C246.567 110.6 247.079 109.168 248.103 108.112C249.143 107.056 250.679 106.528 252.711 106.528C253.895 106.528 254.847 106.688 255.567 107.008C256.303 107.328 256.855 107.752 257.223 108.28C257.607 108.808 257.863 109.384 257.991 110.008C258.135 110.616 258.207 111.216 258.207 111.808V112.936C258.207 112.888 257.983 112.84 257.535 112.792C257.103 112.728 256.367 112.696 255.327 112.696H249.015C249.015 113.88 249.367 114.816 250.071 115.504C250.775 116.192 251.823 116.536 253.215 116.536C254.415 116.536 255.399 116.392 256.167 116.104C256.951 115.8 257.471 115.504 257.727 115.216V115.696L257.967 117.28C257.615 117.488 256.991 117.704 256.095 117.928C255.215 118.136 254.135 118.24 252.855 118.24ZM249.975 111.112H255.807C255.807 110.696 255.719 110.264 255.543 109.816C255.367 109.368 255.055 108.992 254.607 108.688C254.159 108.368 253.527 108.208 252.711 108.208C252.023 108.208 251.423 108.328 250.911 108.568C250.399 108.792 249.999 109.088 249.711 109.456C249.439 109.824 249.303 110.216 249.303 110.632C249.303 110.792 249.351 110.912 249.447 110.992C249.543 111.072 249.719 111.112 249.975 111.112ZM271.954 118.24C270.354 118.24 269.098 117.984 268.186 117.472C267.29 116.96 266.658 116.264 266.29 115.384C265.938 114.504 265.762 113.512 265.762 112.408C265.762 111.288 265.946 110.288 266.314 109.408C266.698 108.528 267.338 107.832 268.234 107.32C269.13 106.792 270.37 106.528 271.954 106.528C273.538 106.528 274.778 106.792 275.674 107.32C276.57 107.832 277.202 108.528 277.57 109.408C277.954 110.288 278.146 111.288 278.146 112.408C278.146 113.512 277.962 114.504 277.594 115.384C277.242 116.264 276.618 116.96 275.722 117.472C274.826 117.984 273.57 118.24 271.954 118.24ZM271.954 116.536C272.946 116.536 273.714 116.376 274.258 116.056C274.802 115.736 275.178 115.272 275.386 114.664C275.594 114.04 275.698 113.288 275.698 112.408C275.698 111.528 275.586 110.776 275.362 110.152C275.154 109.528 274.778 109.048 274.234 108.712C273.706 108.376 272.946 108.208 271.954 108.208C270.978 108.208 270.218 108.384 269.674 108.736C269.13 109.072 268.746 109.56 268.522 110.2C268.314 110.824 268.21 111.568 268.21 112.432C268.21 113.28 268.314 114.016 268.522 114.64C268.73 115.248 269.106 115.72 269.65 116.056C270.194 116.376 270.962 116.536 271.954 116.536ZM280.088 123.328C280.2 123.328 280.304 123.216 280.4 122.992C280.512 122.768 280.568 122.4 280.568 121.888V108.208C280.568 107.696 280.512 107.336 280.4 107.128C280.304 106.904 280.2 106.784 280.088 106.768H283.016V107.248L282.968 107.704L283.016 107.752C283.224 107.544 283.504 107.352 283.856 107.176C284.224 106.984 284.656 106.832 285.152 106.72C285.648 106.592 286.184 106.528 286.76 106.528C288.248 106.528 289.424 106.792 290.288 107.32C291.152 107.832 291.768 108.528 292.136 109.408C292.52 110.288 292.712 111.288 292.712 112.408C292.712 113.512 292.528 114.504 292.16 115.384C291.792 116.264 291.176 116.96 290.312 117.472C289.448 117.984 288.264 118.24 286.76 118.24C285.88 118.24 285.136 118.136 284.528 117.928C283.936 117.72 283.432 117.432 283.016 117.064L282.968 117.088L283.016 117.544V121.888C283.016 122.4 283.064 122.768 283.16 122.992C283.272 123.216 283.384 123.328 283.496 123.328H280.088ZM286.52 116.536C287.512 116.536 288.28 116.376 288.824 116.056C289.368 115.736 289.744 115.272 289.952 114.664C290.16 114.04 290.264 113.288 290.264 112.408C290.264 111.528 290.152 110.776 289.928 110.152C289.72 109.528 289.344 109.048 288.8 108.712C288.272 108.376 287.512 108.208 286.52 108.208C285.56 108.208 284.824 108.4 284.312 108.784C283.816 109.168 283.472 109.68 283.28 110.32C283.104 110.96 283.016 111.664 283.016 112.432C283.016 113.216 283.112 113.92 283.304 114.544C283.512 115.168 283.864 115.656 284.36 116.008C284.872 116.36 285.592 116.536 286.52 116.536ZM299.347 118.24C298.243 118.24 297.443 118.008 296.947 117.544C296.451 117.064 296.203 116.288 296.203 115.216V108.448H294.043V106.768C294.779 106.768 295.355 106.68 295.771 106.504C296.187 106.312 296.483 105.984 296.659 105.52C296.835 105.056 296.923 104.408 296.923 103.576H298.651V106.768H303.235C303.123 106.928 303.011 107.168 302.899 107.488C302.803 107.792 302.755 108.112 302.755 108.448H298.651V114.856C298.651 115.592 298.787 116.056 299.059 116.248C299.331 116.44 299.675 116.536 300.091 116.536C300.491 116.536 300.859 116.456 301.195 116.296C301.547 116.12 301.851 115.912 302.107 115.672C302.379 115.432 302.587 115.2 302.731 114.976V115.72L302.971 117.088C302.811 117.248 302.563 117.424 302.227 117.616C301.891 117.792 301.483 117.936 301.003 118.048C300.523 118.176 299.971 118.24 299.347 118.24ZM304.581 118C304.693 118 304.797 117.888 304.893 117.664C305.005 117.44 305.061 117.072 305.061 116.56V108.208C305.061 107.696 305.005 107.336 304.893 107.128C304.797 106.904 304.693 106.784 304.581 106.768H307.509V116.56C307.509 117.072 307.557 117.44 307.653 117.664C307.765 117.888 307.877 118 307.989 118H304.581ZM306.045 104.464C305.581 104.464 305.221 104.336 304.965 104.08C304.709 103.808 304.581 103.496 304.581 103.144C304.581 102.776 304.701 102.464 304.941 102.208C305.197 101.952 305.565 101.824 306.045 101.824C306.525 101.824 306.885 101.952 307.125 102.208C307.381 102.464 307.509 102.776 307.509 103.144C307.509 103.496 307.381 103.808 307.125 104.08C306.869 104.336 306.509 104.464 306.045 104.464ZM315.97 118.24C314.37 118.24 313.114 117.984 312.202 117.472C311.306 116.96 310.674 116.264 310.306 115.384C309.954 114.504 309.778 113.512 309.778 112.408C309.778 111.288 309.962 110.288 310.33 109.408C310.714 108.528 311.354 107.832 312.25 107.32C313.146 106.792 314.386 106.528 315.97 106.528C317.554 106.528 318.794 106.792 319.69 107.32C320.586 107.832 321.218 108.528 321.586 109.408C321.97 110.288 322.161 111.288 322.161 112.408C322.161 113.512 321.977 114.504 321.609 115.384C321.258 116.264 320.634 116.96 319.738 117.472C318.842 117.984 317.586 118.24 315.97 118.24ZM315.97 116.536C316.962 116.536 317.73 116.376 318.274 116.056C318.818 115.736 319.194 115.272 319.402 114.664C319.61 114.04 319.714 113.288 319.714 112.408C319.714 111.528 319.602 110.776 319.378 110.152C319.17 109.528 318.794 109.048 318.25 108.712C317.722 108.376 316.962 108.208 315.97 108.208C314.994 108.208 314.234 108.384 313.69 108.736C313.146 109.072 312.762 109.56 312.538 110.2C312.33 110.824 312.226 111.568 312.226 112.432C312.226 113.28 312.33 114.016 312.538 114.64C312.746 115.248 313.122 115.72 313.666 116.056C314.21 116.376 314.978 116.536 315.97 116.536ZM324.104 118C324.216 118 324.32 117.888 324.416 117.664C324.528 117.44 324.584 117.072 324.584 116.56V108.448C324.584 107.936 324.528 107.576 324.416 107.368C324.32 107.144 324.216 107.024 324.104 107.008C324.808 107.008 325.416 106.96 325.928 106.864C326.456 106.752 326.824 106.64 327.032 106.528V107.992L326.984 108.304L327.032 108.352C327.272 108.048 327.576 107.76 327.944 107.488C328.328 107.216 328.8 106.992 329.36 106.816C329.92 106.624 330.576 106.528 331.328 106.528C332.816 106.528 333.952 106.952 334.736 107.8C335.536 108.648 335.936 109.976 335.936 111.784V116.56C335.936 117.072 335.984 117.44 336.08 117.664C336.192 117.888 336.304 118 336.416 118H333.008C333.12 118 333.224 117.888 333.32 117.664C333.432 117.44 333.488 117.072 333.488 116.56V111.856C333.488 110.912 333.368 110.176 333.128 109.648C332.888 109.12 332.552 108.752 332.12 108.544C331.704 108.32 331.216 108.208 330.656 108.208C330.064 108.208 329.488 108.336 328.928 108.592C328.368 108.848 327.912 109.256 327.56 109.816C327.208 110.376 327.032 111.128 327.032 112.072V116.56C327.032 117.072 327.08 117.44 327.176 117.664C327.288 117.888 327.4 118 327.512 118H324.104ZM27.32 148.24C25.816 148.24 24.552 148.16 23.528 148C22.52 147.84 21.832 147.68 21.464 147.52V147.04L20.96 144.976C21.376 145.312 22.104 145.664 23.144 146.032C24.2 146.384 25.48 146.56 26.984 146.56C27.976 146.56 28.72 146.496 29.216 146.368C29.712 146.224 30.04 146.04 30.2 145.816C30.36 145.576 30.44 145.312 30.44 145.024C30.44 144.688 30.32 144.424 30.08 144.232C29.856 144.024 29.424 143.856 28.784 143.728C28.16 143.584 27.232 143.44 26 143.296C24.656 143.136 23.616 142.904 22.88 142.6C22.16 142.296 21.664 141.912 21.392 141.448C21.12 140.968 20.984 140.4 20.984 139.744C20.984 139.232 21.12 138.728 21.392 138.232C21.664 137.736 22.168 137.328 22.904 137.008C23.656 136.688 24.72 136.528 26.096 136.528C27.584 136.528 28.832 136.608 29.84 136.768C30.864 136.928 31.56 137.088 31.928 137.248V137.728L32.408 139.552C32.008 139.264 31.28 138.968 30.224 138.664C29.168 138.36 27.896 138.208 26.408 138.208C25.224 138.208 24.432 138.344 24.032 138.616C23.632 138.872 23.432 139.208 23.432 139.624C23.432 139.864 23.48 140.08 23.576 140.272C23.672 140.448 23.864 140.608 24.152 140.752C24.456 140.896 24.904 141.024 25.496 141.136C26.104 141.248 26.912 141.36 27.92 141.472C29.28 141.616 30.312 141.84 31.016 142.144C31.72 142.448 32.2 142.832 32.456 143.296C32.728 143.744 32.864 144.272 32.864 144.88C32.864 145.536 32.68 146.12 32.312 146.632C31.96 147.128 31.376 147.52 30.56 147.808C29.744 148.096 28.664 148.24 27.32 148.24ZM34.7915 148C34.9035 148 35.0075 147.888 35.1035 147.664C35.2155 147.44 35.2715 147.072 35.2715 146.56V132.88C35.2715 132.368 35.2155 132.008 35.1035 131.8C35.0075 131.576 34.9035 131.456 34.7915 131.44H37.7195V137.992L37.6715 138.304L37.7195 138.352C37.9595 138.048 38.2635 137.76 38.6315 137.488C39.0155 137.216 39.4875 136.992 40.0475 136.816C40.6075 136.624 41.2635 136.528 42.0155 136.528C43.5035 136.528 44.6395 136.952 45.4235 137.8C46.2235 138.648 46.6235 139.976 46.6235 141.784V146.56C46.6235 147.072 46.6715 147.44 46.7675 147.664C46.8795 147.888 46.9915 148 47.1035 148H43.6955C43.8075 148 43.9115 147.888 44.0075 147.664C44.1195 147.44 44.1755 147.072 44.1755 146.56V141.856C44.1755 140.912 44.0555 140.176 43.8155 139.648C43.5755 139.12 43.2395 138.752 42.8075 138.544C42.3915 138.32 41.9035 138.208 41.3435 138.208C40.7515 138.208 40.1755 138.336 39.6155 138.592C39.0555 138.848 38.5995 139.256 38.2475 139.816C37.8955 140.376 37.7195 141.128 37.7195 142.072V146.56C37.7195 147.072 37.7675 147.44 37.8635 147.664C37.9755 147.888 38.0875 148 38.1995 148H34.7915ZM55.0867 148.24C53.4867 148.24 52.2307 147.984 51.3187 147.472C50.4227 146.96 49.7907 146.264 49.4227 145.384C49.0707 144.504 48.8947 143.512 48.8947 142.408C48.8947 141.288 49.0787 140.288 49.4467 139.408C49.8307 138.528 50.4707 137.832 51.3667 137.32C52.2627 136.792 53.5027 136.528 55.0867 136.528C56.6707 136.528 57.9107 136.792 58.8067 137.32C59.7027 137.832 60.3347 138.528 60.7027 139.408C61.0867 140.288 61.2787 141.288 61.2787 142.408C61.2787 143.512 61.0947 144.504 60.7267 145.384C60.3747 146.264 59.7507 146.96 58.8547 147.472C57.9587 147.984 56.7027 148.24 55.0867 148.24ZM55.0867 146.536C56.0787 146.536 56.8467 146.376 57.3907 146.056C57.9347 145.736 58.3107 145.272 58.5187 144.664C58.7267 144.04 58.8307 143.288 58.8307 142.408C58.8307 141.528 58.7187 140.776 58.4947 140.152C58.2867 139.528 57.9107 139.048 57.3667 138.712C56.8387 138.376 56.0787 138.208 55.0867 138.208C54.1107 138.208 53.3507 138.384 52.8067 138.736C52.2627 139.072 51.8787 139.56 51.6547 140.2C51.4467 140.824 51.3427 141.568 51.3427 142.432C51.3427 143.28 51.4467 144.016 51.6547 144.64C51.8627 145.248 52.2387 145.72 52.7827 146.056C53.3267 146.376 54.0947 146.536 55.0867 146.536ZM68.3092 148.24C67.3812 148.24 66.5652 148.08 65.8612 147.76C65.1732 147.424 64.6372 146.856 64.2532 146.056C63.8852 145.24 63.7012 144.112 63.7012 142.672V138.208C63.7012 137.696 63.6452 137.328 63.5332 137.104C63.4372 136.88 63.3332 136.768 63.2212 136.768H66.6532C66.5412 136.768 66.4212 136.88 66.2932 137.104C66.1812 137.328 66.1252 137.696 66.1252 138.208V143.008C66.1252 144.368 66.3652 145.296 66.8452 145.792C67.3252 146.288 67.9572 146.536 68.7412 146.536C69.5252 146.536 70.2052 146.344 70.7812 145.96C71.3572 145.576 71.8052 145.048 72.1252 144.376C72.4612 143.704 72.6292 142.944 72.6292 142.096V138.208C72.6292 137.696 72.5732 137.336 72.4612 137.128C72.3652 136.904 72.2612 136.784 72.1492 136.768H75.0772V146.56C75.0772 147.072 75.1252 147.44 75.2212 147.664C75.3332 147.888 75.4452 148 75.5572 148H72.6292V146.56L72.6772 146.08L72.6292 146.032C72.5332 146.224 72.3732 146.448 72.1492 146.704C71.9252 146.944 71.6292 147.184 71.2612 147.424C70.9092 147.664 70.4852 147.856 69.9892 148C69.4932 148.16 68.9332 148.24 68.3092 148.24ZM77.7078 148C77.8198 148 77.9238 147.888 78.0198 147.664C78.1318 147.44 78.1878 147.072 78.1878 146.56V132.88C78.1878 132.368 78.1318 132.008 78.0198 131.8C77.9238 131.576 77.8198 131.456 77.7078 131.44C78.4118 131.44 79.0198 131.392 79.5318 131.296C80.0598 131.184 80.4278 131.072 80.6358 130.96V146.56C80.6358 147.072 80.6838 147.44 80.7798 147.664C80.8918 147.888 81.0038 148 81.1158 148H77.7078ZM88.9443 148.24C87.4243 148.24 86.2403 147.984 85.3923 147.472C84.5603 146.96 83.9763 146.264 83.6403 145.384C83.3203 144.504 83.1603 143.512 83.1603 142.408C83.1603 141.288 83.3203 140.288 83.6403 139.408C83.9763 138.528 84.5603 137.832 85.3923 137.32C86.2403 136.792 87.4243 136.528 88.9443 136.528C89.5843 136.528 90.1523 136.592 90.6483 136.72C91.1443 136.832 91.5763 136.992 91.9443 137.2C92.3123 137.392 92.6163 137.624 92.8563 137.896L92.9043 137.872L92.8563 137.416V132.88C92.8563 132.368 92.8003 132.008 92.6883 131.8C92.5923 131.576 92.4883 131.456 92.3763 131.44H95.3043V146.56C95.3043 147.072 95.3523 147.44 95.4483 147.664C95.5603 147.888 95.6723 148 95.7843 148H92.8563V147.256L92.9283 146.8L92.8563 146.776C92.6163 147.048 92.3123 147.296 91.9443 147.52C91.5763 147.744 91.1443 147.92 90.6483 148.048C90.1523 148.176 89.5843 148.24 88.9443 148.24ZM89.1123 146.536C89.9283 146.536 90.5843 146.416 91.0803 146.176C91.5763 145.92 91.9523 145.592 92.2083 145.192C92.4643 144.776 92.6323 144.328 92.7123 143.848C92.8083 143.368 92.8563 142.888 92.8563 142.408C92.8563 141.992 92.8083 141.544 92.7123 141.064C92.6163 140.568 92.4403 140.104 92.1843 139.672C91.9283 139.24 91.5523 138.888 91.0563 138.616C90.5603 138.344 89.9123 138.208 89.1123 138.208C87.7683 138.208 86.8403 138.592 86.3283 139.36C85.8323 140.128 85.5843 141.152 85.5843 142.432C85.5843 143.28 85.6803 144.016 85.8723 144.64C86.0803 145.248 86.4403 145.72 86.9523 146.056C87.4643 146.376 88.1843 146.536 89.1123 146.536ZM110.534 148.24C109.654 148.24 108.91 148.136 108.302 147.928C107.71 147.72 107.206 147.432 106.79 147.064L106.742 147.088L106.79 147.544V148H103.862C103.974 148 104.078 147.888 104.174 147.664C104.286 147.44 104.342 147.072 104.342 146.56V132.88C104.342 132.368 104.286 132.008 104.174 131.8C104.078 131.576 103.974 131.456 103.862 131.44H106.79V137.248L106.742 137.704L106.79 137.752C106.998 137.544 107.278 137.352 107.63 137.176C107.998 136.984 108.43 136.832 108.926 136.72C109.422 136.592 109.958 136.528 110.534 136.528C112.022 136.528 113.198 136.792 114.062 137.32C114.926 137.832 115.542 138.528 115.91 139.408C116.294 140.288 116.486 141.288 116.486 142.408C116.486 143.512 116.302 144.504 115.934 145.384C115.566 146.264 114.95 146.96 114.086 147.472C113.222 147.984 112.038 148.24 110.534 148.24ZM110.294 146.536C111.286 146.536 112.054 146.376 112.598 146.056C113.142 145.736 113.518 145.272 113.726 144.664C113.934 144.04 114.038 143.288 114.038 142.408C114.038 141.528 113.926 140.776 113.702 140.152C113.494 139.528 113.118 139.048 112.574 138.712C112.046 138.376 111.286 138.208 110.294 138.208C109.334 138.208 108.598 138.4 108.086 138.784C107.59 139.152 107.246 139.656 107.054 140.296C106.878 140.936 106.79 141.64 106.79 142.408C106.79 143.672 107.038 144.68 107.534 145.432C108.03 146.168 108.95 146.536 110.294 146.536ZM124.464 148.24C123.2 148.24 122.16 148.096 121.344 147.808C120.528 147.504 119.888 147.088 119.424 146.56C118.96 146.032 118.632 145.416 118.44 144.712C118.264 144.008 118.176 143.24 118.176 142.408C118.176 140.6 118.688 139.168 119.712 138.112C120.752 137.056 122.288 136.528 124.32 136.528C125.504 136.528 126.456 136.688 127.176 137.008C127.912 137.328 128.464 137.752 128.832 138.28C129.216 138.808 129.472 139.384 129.6 140.008C129.744 140.616 129.816 141.216 129.816 141.808V142.936C129.816 142.888 129.592 142.84 129.144 142.792C128.712 142.728 127.976 142.696 126.936 142.696H120.624C120.624 143.88 120.976 144.816 121.68 145.504C122.384 146.192 123.432 146.536 124.824 146.536C126.024 146.536 127.008 146.392 127.776 146.104C128.56 145.8 129.08 145.504 129.336 145.216V145.696L129.576 147.28C129.224 147.488 128.6 147.704 127.704 147.928C126.824 148.136 125.744 148.24 124.464 148.24ZM121.584 141.112H127.416C127.416 140.696 127.328 140.264 127.152 139.816C126.976 139.368 126.664 138.992 126.216 138.688C125.768 138.368 125.136 138.208 124.32 138.208C123.632 138.208 123.032 138.328 122.52 138.568C122.008 138.792 121.608 139.088 121.32 139.456C121.048 139.824 120.912 140.216 120.912 140.632C120.912 140.792 120.96 140.912 121.056 140.992C121.152 141.072 121.328 141.112 121.584 141.112ZM143.851 148.24C142.347 148.24 141.083 148.16 140.059 148C139.051 147.84 138.363 147.68 137.995 147.52V147.04L137.491 144.976C137.907 145.312 138.635 145.664 139.675 146.032C140.731 146.384 142.011 146.56 143.515 146.56C144.507 146.56 145.251 146.496 145.747 146.368C146.243 146.224 146.571 146.04 146.731 145.816C146.891 145.576 146.971 145.312 146.971 145.024C146.971 144.688 146.851 144.424 146.611 144.232C146.387 144.024 145.955 143.856 145.315 143.728C144.691 143.584 143.763 143.44 142.531 143.296C141.187 143.136 140.147 142.904 139.411 142.6C138.691 142.296 138.195 141.912 137.923 141.448C137.651 140.968 137.515 140.4 137.515 139.744C137.515 139.232 137.651 138.728 137.923 138.232C138.195 137.736 138.699 137.328 139.435 137.008C140.187 136.688 141.251 136.528 142.627 136.528C144.115 136.528 145.363 136.608 146.371 136.768C147.395 136.928 148.091 137.088 148.459 137.248V137.728L148.939 139.552C148.539 139.264 147.811 138.968 146.755 138.664C145.699 138.36 144.427 138.208 142.939 138.208C141.755 138.208 140.963 138.344 140.563 138.616C140.163 138.872 139.963 139.208 139.963 139.624C139.963 139.864 140.011 140.08 140.107 140.272C140.203 140.448 140.395 140.608 140.683 140.752C140.987 140.896 141.435 141.024 142.027 141.136C142.635 141.248 143.443 141.36 144.451 141.472C145.811 141.616 146.843 141.84 147.547 142.144C148.251 142.448 148.731 142.832 148.987 143.296C149.259 143.744 149.395 144.272 149.395 144.88C149.395 145.536 149.211 146.12 148.843 146.632C148.491 147.128 147.907 147.52 147.091 147.808C146.275 148.096 145.195 148.24 143.851 148.24ZM157.347 148.24C156.083 148.24 155.043 148.096 154.227 147.808C153.411 147.504 152.771 147.088 152.307 146.56C151.843 146.032 151.515 145.416 151.323 144.712C151.147 144.008 151.059 143.24 151.059 142.408C151.059 140.6 151.571 139.168 152.595 138.112C153.635 137.056 155.171 136.528 157.203 136.528C158.387 136.528 159.339 136.688 160.059 137.008C160.795 137.328 161.347 137.752 161.715 138.28C162.099 138.808 162.355 139.384 162.483 140.008C162.627 140.616 162.699 141.216 162.699 141.808V142.936C162.699 142.888 162.475 142.84 162.027 142.792C161.595 142.728 160.859 142.696 159.819 142.696H153.507C153.507 143.88 153.859 144.816 154.563 145.504C155.267 146.192 156.315 146.536 157.707 146.536C158.907 146.536 159.891 146.392 160.659 146.104C161.443 145.8 161.963 145.504 162.219 145.216V145.696L162.459 147.28C162.107 147.488 161.483 147.704 160.587 147.928C159.707 148.136 158.627 148.24 157.347 148.24ZM154.467 141.112H160.299C160.299 140.696 160.211 140.264 160.035 139.816C159.859 139.368 159.547 138.992 159.099 138.688C158.651 138.368 158.019 138.208 157.203 138.208C156.515 138.208 155.915 138.328 155.403 138.568C154.891 138.792 154.491 139.088 154.203 139.456C153.931 139.824 153.795 140.216 153.795 140.632C153.795 140.792 153.843 140.912 153.939 140.992C154.035 141.072 154.211 141.112 154.467 141.112ZM164.848 148C164.96 148 165.064 147.888 165.16 147.664C165.272 147.44 165.328 147.072 165.328 146.56V132.88C165.328 132.368 165.272 132.008 165.16 131.8C165.064 131.576 164.96 131.456 164.848 131.44C165.552 131.44 166.16 131.392 166.672 131.296C167.2 131.184 167.568 131.072 167.776 130.96V146.56C167.776 147.072 167.824 147.44 167.92 147.664C168.032 147.888 168.144 148 168.256 148H164.848ZM176.589 148.24C175.325 148.24 174.285 148.096 173.469 147.808C172.653 147.504 172.013 147.088 171.549 146.56C171.085 146.032 170.757 145.416 170.565 144.712C170.389 144.008 170.301 143.24 170.301 142.408C170.301 140.6 170.813 139.168 171.837 138.112C172.877 137.056 174.413 136.528 176.445 136.528C177.629 136.528 178.581 136.688 179.301 137.008C180.037 137.328 180.589 137.752 180.957 138.28C181.341 138.808 181.597 139.384 181.725 140.008C181.869 140.616 181.941 141.216 181.941 141.808V142.936C181.941 142.888 181.717 142.84 181.269 142.792C180.837 142.728 180.101 142.696 179.061 142.696H172.749C172.749 143.88 173.101 144.816 173.805 145.504C174.509 146.192 175.557 146.536 176.949 146.536C178.149 146.536 179.133 146.392 179.901 146.104C180.685 145.8 181.205 145.504 181.461 145.216V145.696L181.701 147.28C181.349 147.488 180.725 147.704 179.829 147.928C178.949 148.136 177.869 148.24 176.589 148.24ZM173.709 141.112H179.541C179.541 140.696 179.453 140.264 179.277 139.816C179.101 139.368 178.789 138.992 178.341 138.688C177.893 138.368 177.261 138.208 176.445 138.208C175.757 138.208 175.157 138.328 174.645 138.568C174.133 138.792 173.733 139.088 173.445 139.456C173.173 139.824 173.037 140.216 173.037 140.632C173.037 140.792 173.085 140.912 173.181 140.992C173.277 141.072 173.453 141.112 173.709 141.112ZM190.235 148.24C188.571 148.24 187.259 147.984 186.299 147.472C185.355 146.96 184.691 146.264 184.307 145.384C183.923 144.504 183.731 143.512 183.731 142.408C183.731 140.456 184.259 138.992 185.315 138.016C186.387 137.04 187.947 136.552 189.995 136.552C191.243 136.552 192.291 136.632 193.139 136.792C193.987 136.952 194.571 137.104 194.891 137.248V137.728L195.371 139.816C195.051 139.48 194.443 139.136 193.547 138.784C192.651 138.416 191.523 138.232 190.163 138.232C189.475 138.232 188.819 138.352 188.195 138.592C187.587 138.816 187.091 139.232 186.707 139.84C186.339 140.448 186.155 141.312 186.155 142.432C186.155 143.52 186.355 144.368 186.755 144.976C187.155 145.568 187.707 145.976 188.411 146.2C189.115 146.424 189.915 146.536 190.811 146.536C191.947 146.536 192.883 146.36 193.619 146.008C194.371 145.656 194.875 145.312 195.131 144.976V145.456L195.371 147.088C195.067 147.344 194.467 147.6 193.571 147.856C192.691 148.112 191.579 148.24 190.235 148.24ZM202.104 148.24C201 148.24 200.2 148.008 199.704 147.544C199.208 147.064 198.96 146.288 198.96 145.216V138.448H196.8V136.768C197.536 136.768 198.112 136.68 198.528 136.504C198.944 136.312 199.24 135.984 199.416 135.52C199.592 135.056 199.68 134.408 199.68 133.576H201.408V136.768H205.992C205.88 136.928 205.768 137.168 205.656 137.488C205.56 137.792 205.512 138.112 205.512 138.448H201.408V144.856C201.408 145.592 201.544 146.056 201.816 146.248C202.088 146.44 202.432 146.536 202.848 146.536C203.248 146.536 203.616 146.456 203.952 146.296C204.304 146.12 204.608 145.912 204.864 145.672C205.136 145.432 205.344 145.2 205.488 144.976V145.72L205.728 147.088C205.568 147.248 205.32 147.424 204.984 147.616C204.648 147.792 204.24 147.936 203.76 148.048C203.28 148.176 202.728 148.24 202.104 148.24ZM211.922 148.24C210.178 148.24 208.954 147.928 208.25 147.304C207.546 146.664 207.194 145.808 207.194 144.736C207.194 143.984 207.378 143.344 207.746 142.816C208.13 142.272 208.698 141.856 209.45 141.568C210.218 141.28 211.186 141.136 212.354 141.136C213.186 141.136 213.906 141.2 214.514 141.328C215.138 141.44 215.642 141.576 216.026 141.736C216.426 141.896 216.706 142.032 216.866 142.144C216.866 141.2 216.746 140.44 216.506 139.864C216.282 139.288 215.914 138.872 215.402 138.616C214.89 138.344 214.194 138.208 213.314 138.208C212.37 138.208 211.522 138.32 210.77 138.544C210.034 138.752 209.442 138.984 208.994 139.24C208.546 139.48 208.266 139.656 208.154 139.768V139.288L207.914 137.488C208.058 137.424 208.37 137.32 208.85 137.176C209.33 137.016 209.962 136.872 210.746 136.744C211.53 136.6 212.45 136.528 213.506 136.528C214.85 136.528 215.946 136.72 216.794 137.104C217.658 137.472 218.29 138.048 218.69 138.832C219.106 139.6 219.314 140.576 219.314 141.76V146.56C219.314 147.008 219.362 147.336 219.458 147.544C219.57 147.736 219.682 147.888 219.794 148H216.866V147.28L216.914 146.824L216.866 146.8C216.61 147.04 216.306 147.248 215.954 147.424C215.602 147.6 215.218 147.752 214.802 147.88C214.386 147.992 213.93 148.08 213.434 148.144C212.954 148.208 212.45 148.24 211.922 148.24ZM212.714 146.536C213.578 146.536 214.322 146.448 214.946 146.272C215.57 146.096 216.042 145.864 216.362 145.576C216.698 145.272 216.866 144.928 216.866 144.544C216.866 144.064 216.546 143.656 215.906 143.32C215.282 142.984 214.306 142.816 212.978 142.816C211.746 142.816 210.874 142.976 210.362 143.296C209.866 143.616 209.618 144.096 209.618 144.736C209.618 145.36 209.858 145.816 210.338 146.104C210.834 146.392 211.626 146.536 212.714 146.536ZM228.542 148.24C227.662 148.24 226.918 148.136 226.31 147.928C225.718 147.72 225.214 147.432 224.798 147.064L224.75 147.088L224.798 147.544V148H221.87C221.982 148 222.086 147.888 222.182 147.664C222.294 147.44 222.35 147.072 222.35 146.56V132.88C222.35 132.368 222.294 132.008 222.182 131.8C222.086 131.576 221.982 131.456 221.87 131.44H224.798V137.248L224.75 137.704L224.798 137.752C225.006 137.544 225.286 137.352 225.638 137.176C226.006 136.984 226.438 136.832 226.934 136.72C227.43 136.592 227.966 136.528 228.542 136.528C230.03 136.528 231.206 136.792 232.07 137.32C232.934 137.832 233.55 138.528 233.918 139.408C234.302 140.288 234.494 141.288 234.494 142.408C234.494 143.512 234.31 144.504 233.942 145.384C233.574 146.264 232.958 146.96 232.094 147.472C231.23 147.984 230.046 148.24 228.542 148.24ZM228.302 146.536C229.294 146.536 230.062 146.376 230.606 146.056C231.15 145.736 231.526 145.272 231.734 144.664C231.942 144.04 232.046 143.288 232.046 142.408C232.046 141.528 231.934 140.776 231.71 140.152C231.502 139.528 231.126 139.048 230.582 138.712C230.054 138.376 229.294 138.208 228.302 138.208C227.342 138.208 226.606 138.4 226.094 138.784C225.598 139.152 225.254 139.656 225.062 140.296C224.886 140.936 224.798 141.64 224.798 142.408C224.798 143.672 225.046 144.68 225.542 145.432C226.038 146.168 226.958 146.536 228.302 146.536ZM236.544 148C236.656 148 236.76 147.888 236.856 147.664C236.968 147.44 237.024 147.072 237.024 146.56V132.88C237.024 132.368 236.968 132.008 236.856 131.8C236.76 131.576 236.656 131.456 236.544 131.44C237.248 131.44 237.856 131.392 238.368 131.296C238.896 131.184 239.264 131.072 239.472 130.96V146.56C239.472 147.072 239.52 147.44 239.616 147.664C239.728 147.888 239.84 148 239.952 148H236.544ZM248.284 148.24C247.02 148.24 245.98 148.096 245.164 147.808C244.348 147.504 243.708 147.088 243.244 146.56C242.78 146.032 242.452 145.416 242.26 144.712C242.084 144.008 241.996 143.24 241.996 142.408C241.996 140.6 242.508 139.168 243.532 138.112C244.572 137.056 246.108 136.528 248.14 136.528C249.324 136.528 250.276 136.688 250.996 137.008C251.732 137.328 252.284 137.752 252.652 138.28C253.036 138.808 253.292 139.384 253.42 140.008C253.564 140.616 253.636 141.216 253.636 141.808V142.936C253.636 142.888 253.412 142.84 252.964 142.792C252.532 142.728 251.796 142.696 250.756 142.696H244.444C244.444 143.88 244.796 144.816 245.5 145.504C246.204 146.192 247.252 146.536 248.644 146.536C249.844 146.536 250.828 146.392 251.596 146.104C252.38 145.8 252.9 145.504 253.156 145.216V145.696L253.396 147.28C253.044 147.488 252.42 147.704 251.524 147.928C250.644 148.136 249.564 148.24 248.284 148.24ZM245.404 141.112H251.236C251.236 140.696 251.148 140.264 250.972 139.816C250.796 139.368 250.484 138.992 250.036 138.688C249.588 138.368 248.956 138.208 248.14 138.208C247.452 138.208 246.852 138.328 246.34 138.568C245.828 138.792 245.428 139.088 245.14 139.456C244.868 139.824 244.732 140.216 244.732 140.632C244.732 140.792 244.78 140.912 244.876 140.992C244.972 141.072 245.148 141.112 245.404 141.112ZM257.25 148.24C256.786 148.24 256.426 148.112 256.17 147.856C255.914 147.584 255.786 147.272 255.786 146.92C255.786 146.552 255.906 146.24 256.146 145.984C256.402 145.728 256.77 145.6 257.25 145.6C257.73 145.6 258.09 145.728 258.33 145.984C258.586 146.24 258.714 146.552 258.714 146.92C258.714 147.272 258.586 147.584 258.33 147.856C258.074 148.112 257.714 148.24 257.25 148.24Z" fill="black"/>
<path d="M433.5 42L413.5 30.453V53.547L433.5 42ZM299.453 42L311 53.547L322.547 42L311 30.453L299.453 42ZM415.5 42V40L311 40V42V44L415.5 44V42Z" fill="#F0EA6E"/>
</svg>
