<svg width="539" height="270" viewBox="0 0 539 270" fill="none" xmlns="http://www.w3.org/2000/svg">
<rect width="539" height="270" fill="white"/>
<path d="M40.5297 70C40.6364 70 40.7964 69.8507 41.0098 69.552C41.2444 69.2533 41.5111 68.752 41.8098 68.048C41.9591 67.728 42.1938 67.184 42.5138 66.416C42.8551 65.6267 43.2391 64.72 43.6658 63.696C44.1138 62.6507 44.5724 61.5627 45.0418 60.432C45.5324 59.3013 45.9911 58.2133 46.4178 57.168C46.8658 56.1227 47.2498 55.2053 47.5698 54.416C47.9111 53.6267 48.1458 53.0613 48.2738 52.72C48.5511 52.0373 48.7004 51.5467 48.7218 51.248C48.7431 50.9493 48.7004 50.8 48.5938 50.8H55.5698C55.4844 50.8 55.4524 50.9493 55.4738 51.248C55.4951 51.5253 55.6444 52.016 55.9218 52.72C56.0498 53.0613 56.2738 53.6267 56.5938 54.416C56.9138 55.184 57.2871 56.0907 57.7138 57.136C58.1404 58.16 58.5884 59.2373 59.0578 60.368C59.5271 61.4987 59.9751 62.5867 60.4018 63.632C60.8284 64.656 61.2124 65.5627 61.5538 66.352C61.8951 67.1413 62.1404 67.7067 62.2898 68.048C62.6098 68.752 62.9191 69.2533 63.2178 69.552C63.5164 69.8507 63.7404 70 63.8898 70H56.6258C56.7964 69.9787 56.9351 69.8187 57.0417 69.52C57.1698 69.2 57.1698 68.7093 57.0417 68.048C57.0204 67.8987 56.9991 67.7813 56.9778 67.696C56.9564 67.5893 56.9138 67.44 56.8498 67.248C56.7644 66.928 56.6684 66.704 56.5618 66.576C56.4551 66.4267 56.2738 66.3413 56.0178 66.32C55.7831 66.2987 55.3884 66.288 54.8338 66.288H49.3298C48.7538 66.288 48.3271 66.3093 48.0498 66.352C47.7724 66.3733 47.5804 66.448 47.4738 66.576C47.3671 66.704 47.2818 66.9173 47.2178 67.216C47.1964 67.3227 47.1644 67.4613 47.1218 67.632C47.1004 67.8027 47.0791 67.9413 47.0578 68.048C46.9084 68.7307 46.8658 69.2213 46.9298 69.52C47.0151 69.8187 47.1218 69.9787 47.2498 70H40.5297ZM50.1618 62.768H53.9058C54.5244 62.768 54.8658 62.7147 54.9298 62.608C54.9938 62.5013 54.9618 62.2667 54.8338 61.904C54.5564 61.2213 54.2791 60.528 54.0018 59.824C53.7244 59.0987 53.4578 58.3947 53.2018 57.712C52.9671 57.0293 52.7538 56.4 52.5618 55.824C52.3911 55.2267 52.2418 54.7253 52.1138 54.32H52.0498C51.7511 55.1093 51.4418 55.9413 51.1218 56.816C50.8018 57.6907 50.5031 58.5013 50.2258 59.248C49.9484 59.9947 49.7244 60.6133 49.5538 61.104C49.3831 61.5733 49.2978 61.808 49.2978 61.808C49.1484 62.1493 49.0951 62.3947 49.1378 62.544C49.1804 62.6933 49.5218 62.768 50.1618 62.768ZM65.3768 70C65.5261 70 65.6648 69.8507 65.7928 69.552C65.9421 69.2533 66.0168 68.7627 66.0168 68.08V57.264C66.0168 56.5813 65.9421 56.1013 65.7928 55.824C65.6648 55.5253 65.5261 55.3653 65.3768 55.344C66.3154 55.344 67.2754 55.28 68.2568 55.152C69.2381 55.0027 70.0061 54.8533 70.5608 54.704V55.984L70.4968 56.528L70.5608 56.592C70.7101 56.3573 70.9448 56.1013 71.2648 55.824C71.6061 55.5253 72.0328 55.2693 72.5448 55.056C73.0781 54.8213 73.6968 54.704 74.4008 54.704C75.4461 54.704 76.3741 54.8533 77.1848 55.152C77.9954 55.4293 78.5714 55.7173 78.9128 56.016L77.9528 60.304V61.264C77.6328 60.816 77.1954 60.3573 76.6408 59.888C76.1074 59.4187 75.5101 59.024 74.8488 58.704C74.2088 58.384 73.5474 58.224 72.8648 58.224C72.0968 58.224 71.5208 58.5013 71.1368 59.056C70.7528 59.6107 70.5608 60.4853 70.5608 61.68V68.08C70.5608 68.7627 70.6248 69.2533 70.7528 69.552C70.9021 69.8507 71.0514 70 71.2008 70H65.3768ZM88.2578 70.32C86.5724 70.32 85.1644 70.1493 84.0338 69.808C82.9244 69.4453 82.0391 68.9333 81.3778 68.272C80.7164 67.5893 80.2471 66.768 79.9698 65.808C79.6924 64.848 79.5538 63.76 79.5538 62.544C79.5538 60.1333 80.2258 58.224 81.5698 56.816C82.9138 55.408 84.9724 54.704 87.7458 54.704C89.3671 54.704 90.6791 54.928 91.6818 55.376C92.7058 55.824 93.4844 56.4213 94.0178 57.168C94.5511 57.9147 94.9138 58.7467 95.1058 59.664C95.3191 60.56 95.4258 61.4667 95.4258 62.384V63.888C95.4258 63.824 95.1271 63.76 94.5298 63.696C93.9538 63.6107 92.9724 63.568 91.5858 63.568H84.1618C84.1618 64.7413 84.5138 65.6267 85.2178 66.224C85.9431 66.8 87.1164 67.088 88.7378 67.088C90.1031 67.088 91.3191 66.928 92.3858 66.608C93.4738 66.2667 94.2631 65.9467 94.7537 65.648V66.608L95.0738 69.04C94.6684 69.3173 93.8898 69.6053 92.7378 69.904C91.5858 70.1813 90.0924 70.32 88.2578 70.32ZM85.3458 60.816H90.8818C90.8818 60.3467 90.7751 59.888 90.5618 59.44C90.3698 58.992 90.0498 58.6293 89.6018 58.352C89.1538 58.0533 88.5351 57.904 87.7458 57.904C86.9564 57.904 86.3164 58.0213 85.8258 58.256C85.3564 58.4907 85.0044 58.7787 84.7698 59.12C84.5564 59.4613 84.4498 59.8133 84.4498 60.176C84.4498 60.3893 84.5138 60.5493 84.6418 60.656C84.7698 60.7627 85.0044 60.816 85.3458 60.816ZM106.198 77.808C104.918 77.808 103.905 77.68 103.158 77.424C102.412 77.168 101.932 76.9227 101.718 76.688L102.358 71.728V70.768C102.614 71.3227 102.966 71.8987 103.414 72.496C103.841 73.0933 104.342 73.5947 104.918 74C105.494 74.4053 106.092 74.608 106.71 74.608C107.137 74.608 107.521 74.512 107.862 74.32C108.225 74.1493 108.556 73.872 108.854 73.488C109.174 73.104 109.484 72.624 109.782 72.048C110.209 71.1947 110.476 70.608 110.582 70.288C110.454 70.1173 110.241 69.7227 109.942 69.104C109.665 68.4853 109.324 67.7387 108.918 66.864C108.534 65.968 108.118 65.0293 107.67 64.048C107.244 63.0453 106.828 62.0747 106.422 61.136C106.038 60.1973 105.686 59.3653 105.366 58.64C105.068 57.9147 104.844 57.3813 104.694 57.04C104.396 56.3147 104.097 55.8027 103.798 55.504C103.478 55.184 103.233 55.024 103.062 55.024H109.622C109.516 55.024 109.441 55.1733 109.398 55.472C109.356 55.7707 109.43 56.2933 109.622 57.04C109.729 57.4453 109.9 58.0213 110.134 58.768C110.369 59.4933 110.636 60.2933 110.934 61.168C111.254 62.0427 111.574 62.928 111.894 63.824C112.236 64.72 112.545 65.5413 112.822 66.288H112.854C113.153 65.4987 113.462 64.6453 113.782 63.728C114.124 62.7893 114.454 61.872 114.774 60.976C115.116 60.08 115.404 59.28 115.638 58.576C115.894 57.872 116.086 57.3387 116.214 56.976C116.449 56.2507 116.545 55.7493 116.502 55.472C116.46 55.1733 116.364 55.024 116.214 55.024H122.582C122.412 55.024 122.177 55.1733 121.878 55.472C121.601 55.7493 121.334 56.24 121.078 56.944C120.929 57.328 120.684 57.9573 120.342 58.832C120.001 59.7067 119.596 60.7093 119.126 61.84C118.657 62.9707 118.166 64.1333 117.654 65.328C117.142 66.5227 116.641 67.6533 116.15 68.72C115.681 69.7653 115.265 70.6293 114.902 71.312C114.177 72.72 113.42 73.904 112.63 74.864C111.841 75.824 110.934 76.5493 109.91 77.04C108.886 77.552 107.649 77.808 106.198 77.808ZM130.497 70.32C128.364 70.32 126.689 69.9787 125.473 69.296C124.279 68.6133 123.436 67.6853 122.945 66.512C122.476 65.3387 122.241 64.016 122.241 62.544C122.241 61.0507 122.487 59.7173 122.977 58.544C123.489 57.3707 124.343 56.4427 125.537 55.76C126.732 55.056 128.385 54.704 130.497 54.704C132.609 54.704 134.263 55.056 135.457 55.76C136.652 56.4427 137.495 57.3707 137.985 58.544C138.497 59.7173 138.753 61.0507 138.753 62.544C138.753 64.016 138.508 65.3387 138.017 66.512C137.548 67.6853 136.716 68.6133 135.521 69.296C134.327 69.9787 132.652 70.32 130.497 70.32ZM130.497 67.088C131.393 67.088 132.108 66.96 132.641 66.704C133.196 66.4267 133.591 65.9573 133.825 65.296C134.081 64.6347 134.209 63.7173 134.209 62.544C134.209 61.3707 134.081 60.4533 133.825 59.792C133.591 59.1093 133.196 58.6293 132.641 58.352C132.108 58.0533 131.393 57.904 130.497 57.904C129.601 57.904 128.876 58.0533 128.321 58.352C127.788 58.6507 127.393 59.1413 127.137 59.824C126.903 60.5067 126.785 61.424 126.785 62.576C126.785 63.7067 126.903 64.6027 127.137 65.264C127.393 65.9253 127.788 66.3947 128.321 66.672C128.876 66.9493 129.601 67.088 130.497 67.088ZM147.591 70.32C146.353 70.32 145.297 70.1067 144.423 69.68C143.548 69.232 142.887 68.4747 142.439 67.408C141.991 66.32 141.767 64.816 141.767 62.896V56.944C141.767 56.2613 141.692 55.7707 141.543 55.472C141.415 55.1733 141.276 55.024 141.127 55.024H147.015C146.865 55.024 146.705 55.1733 146.535 55.472C146.385 55.7707 146.311 56.2613 146.311 56.944V63.344C146.311 64.688 146.556 65.648 147.047 66.224C147.559 66.8 148.145 67.088 148.807 67.088C149.745 67.088 150.471 66.8747 150.983 66.448C151.495 66 151.857 65.424 152.071 64.72C152.284 63.9947 152.391 63.2373 152.391 62.448V56.944C152.391 56.2613 152.316 55.7813 152.167 55.504C152.039 55.2053 151.9 55.0453 151.751 55.024H156.935V68.08C156.935 68.7627 156.999 69.2533 157.127 69.552C157.276 69.8507 157.425 70 157.575 70H152.391V68.752L152.455 68.112L152.391 68.048C152.177 68.368 151.911 68.6667 151.591 68.944C151.271 69.2213 150.908 69.4667 150.503 69.68C150.097 69.872 149.649 70.0213 149.159 70.128C148.668 70.256 148.145 70.32 147.591 70.32ZM175.909 70.32C174.01 70.32 172.41 70.2133 171.109 70C169.807 69.7867 168.911 69.5733 168.421 69.36V68.4L167.749 65.264C168.303 65.6693 169.338 66.0747 170.853 66.48C172.367 66.8853 174.223 67.088 176.421 67.088C177.082 67.088 177.605 67.0453 177.989 66.96C178.394 66.8747 178.682 66.736 178.853 66.544C179.023 66.352 179.109 66.1067 179.109 65.808C179.109 65.4453 178.97 65.168 178.693 64.976C178.437 64.784 177.967 64.6347 177.285 64.528C176.602 64.4 175.61 64.2507 174.309 64.08C172.666 63.8667 171.365 63.568 170.405 63.184C169.445 62.7787 168.762 62.2667 168.357 61.648C167.973 61.008 167.781 60.2293 167.781 59.312C167.781 58.4587 167.983 57.6907 168.389 57.008C168.815 56.304 169.541 55.7493 170.565 55.344C171.61 54.9173 173.061 54.704 174.917 54.704C176.666 54.704 178.202 54.8107 179.525 55.024C180.847 55.2373 181.797 55.4507 182.373 55.664V56.624L183.013 59.44C182.522 59.12 181.562 58.7893 180.133 58.448C178.703 58.1067 176.89 57.936 174.693 57.936C173.839 57.936 173.231 58.0213 172.869 58.192C172.506 58.3627 172.325 58.6613 172.325 59.088C172.325 59.3013 172.378 59.4827 172.485 59.632C172.613 59.7813 172.847 59.92 173.189 60.048C173.53 60.176 174.021 60.304 174.661 60.432C175.301 60.5387 176.143 60.656 177.189 60.784C179.002 61.0187 180.367 61.3493 181.285 61.776C182.202 62.1813 182.821 62.6933 183.141 63.312C183.461 63.9093 183.621 64.6347 183.621 65.488C183.621 66.576 183.343 67.4827 182.789 68.208C182.255 68.912 181.413 69.4453 180.261 69.808C179.13 70.1493 177.679 70.32 175.909 70.32ZM192.403 70.32C191.166 70.32 190.11 70.1067 189.235 69.68C188.361 69.232 187.699 68.4747 187.251 67.408C186.803 66.32 186.579 64.816 186.579 62.896V56.944C186.579 56.2613 186.505 55.7707 186.355 55.472C186.227 55.1733 186.089 55.024 185.939 55.024H191.827C191.678 55.024 191.518 55.1733 191.347 55.472C191.198 55.7707 191.123 56.2613 191.123 56.944V63.344C191.123 64.688 191.369 65.648 191.859 66.224C192.371 66.8 192.958 67.088 193.619 67.088C194.558 67.088 195.283 66.8747 195.795 66.448C196.307 66 196.67 65.424 196.883 64.72C197.097 63.9947 197.203 63.2373 197.203 62.448V56.944C197.203 56.2613 197.129 55.7813 196.979 55.504C196.851 55.2053 196.713 55.0453 196.563 55.024H201.747V68.08C201.747 68.7627 201.811 69.2533 201.939 69.552C202.089 69.8507 202.238 70 202.387 70H197.203V68.752L197.267 68.112L197.203 68.048C196.99 68.368 196.723 68.6667 196.403 68.944C196.083 69.2213 195.721 69.4667 195.315 69.68C194.91 69.872 194.462 70.0213 193.971 70.128C193.481 70.256 192.958 70.32 192.403 70.32ZM205.002 70C205.151 70 205.29 69.8507 205.418 69.552C205.567 69.2533 205.642 68.7627 205.642 68.08V57.264C205.642 56.5813 205.567 56.1013 205.418 55.824C205.29 55.5253 205.151 55.3653 205.002 55.344C205.94 55.344 206.9 55.28 207.882 55.152C208.863 55.0027 209.631 54.8533 210.186 54.704V55.984L210.122 56.528L210.186 56.592C210.335 56.3573 210.57 56.1013 210.89 55.824C211.231 55.5253 211.658 55.2693 212.17 55.056C212.703 54.8213 213.322 54.704 214.026 54.704C215.071 54.704 215.999 54.8533 216.81 55.152C217.62 55.4293 218.196 55.7173 218.538 56.016L217.578 60.304V61.264C217.258 60.816 216.82 60.3573 216.266 59.888C215.732 59.4187 215.135 59.024 214.474 58.704C213.834 58.384 213.172 58.224 212.49 58.224C211.722 58.224 211.146 58.5013 210.762 59.056C210.378 59.6107 210.186 60.4853 210.186 61.68V68.08C210.186 68.7627 210.25 69.2533 210.378 69.552C210.527 69.8507 210.676 70 210.826 70H205.002ZM227.883 70.32C226.197 70.32 224.789 70.1493 223.659 69.808C222.549 69.4453 221.664 68.9333 221.003 68.272C220.341 67.5893 219.872 66.768 219.595 65.808C219.317 64.848 219.179 63.76 219.179 62.544C219.179 60.1333 219.851 58.224 221.195 56.816C222.539 55.408 224.597 54.704 227.371 54.704C228.992 54.704 230.304 54.928 231.307 55.376C232.331 55.824 233.109 56.4213 233.643 57.168C234.176 57.9147 234.539 58.7467 234.731 59.664C234.944 60.56 235.051 61.4667 235.051 62.384V63.888C235.051 63.824 234.752 63.76 234.155 63.696C233.579 63.6107 232.597 63.568 231.211 63.568H223.787C223.787 64.7413 224.139 65.6267 224.843 66.224C225.568 66.8 226.741 67.088 228.363 67.088C229.728 67.088 230.944 66.928 232.011 66.608C233.099 66.2667 233.888 65.9467 234.379 65.648V66.608L234.699 69.04C234.293 69.3173 233.515 69.6053 232.363 69.904C231.211 70.1813 229.717 70.32 227.883 70.32ZM224.971 60.816H230.507C230.507 60.3467 230.4 59.888 230.187 59.44C229.995 58.992 229.675 58.6293 229.227 58.352C228.779 58.0533 228.16 57.904 227.371 57.904C226.581 57.904 225.941 58.0213 225.451 58.256C224.981 58.4907 224.629 58.7787 224.395 59.12C224.181 59.4613 224.075 59.8133 224.075 60.176C224.075 60.3893 224.139 60.5493 224.267 60.656C224.395 60.7627 224.629 60.816 224.971 60.816ZM245.823 77.808C244.543 77.808 243.53 77.68 242.783 77.424C242.037 77.168 241.557 76.9227 241.343 76.688L241.983 71.728V70.768C242.239 71.3227 242.591 71.8987 243.039 72.496C243.466 73.0933 243.967 73.5947 244.543 74C245.119 74.4053 245.717 74.608 246.335 74.608C246.762 74.608 247.146 74.512 247.487 74.32C247.85 74.1493 248.181 73.872 248.479 73.488C248.799 73.104 249.109 72.624 249.407 72.048C249.834 71.1947 250.101 70.608 250.207 70.288C250.079 70.1173 249.866 69.7227 249.567 69.104C249.29 68.4853 248.949 67.7387 248.543 66.864C248.159 65.968 247.743 65.0293 247.295 64.048C246.869 63.0453 246.453 62.0747 246.047 61.136C245.663 60.1973 245.311 59.3653 244.991 58.64C244.693 57.9147 244.469 57.3813 244.319 57.04C244.021 56.3147 243.722 55.8027 243.423 55.504C243.103 55.184 242.858 55.024 242.687 55.024H249.247C249.141 55.024 249.066 55.1733 249.023 55.472C248.981 55.7707 249.055 56.2933 249.247 57.04C249.354 57.4453 249.525 58.0213 249.759 58.768C249.994 59.4933 250.261 60.2933 250.559 61.168C250.879 62.0427 251.199 62.928 251.519 63.824C251.861 64.72 252.17 65.5413 252.447 66.288H252.479C252.778 65.4987 253.087 64.6453 253.407 63.728C253.749 62.7893 254.079 61.872 254.399 60.976C254.741 60.08 255.029 59.28 255.263 58.576C255.519 57.872 255.711 57.3387 255.839 56.976C256.074 56.2507 256.17 55.7493 256.127 55.472C256.085 55.1733 255.989 55.024 255.839 55.024H262.207C262.037 55.024 261.802 55.1733 261.503 55.472C261.226 55.7493 260.959 56.24 260.703 56.944C260.554 57.328 260.309 57.9573 259.967 58.832C259.626 59.7067 259.221 60.7093 258.751 61.84C258.282 62.9707 257.791 64.1333 257.279 65.328C256.767 66.5227 256.266 67.6533 255.775 68.72C255.306 69.7653 254.89 70.6293 254.527 71.312C253.802 72.72 253.045 73.904 252.255 74.864C251.466 75.824 250.559 76.5493 249.535 77.04C248.511 77.552 247.274 77.808 245.823 77.808ZM270.122 70.32C267.989 70.32 266.314 69.9787 265.098 69.296C263.904 68.6133 263.061 67.6853 262.57 66.512C262.101 65.3387 261.866 64.016 261.866 62.544C261.866 61.0507 262.112 59.7173 262.602 58.544C263.114 57.3707 263.968 56.4427 265.162 55.76C266.357 55.056 268.01 54.704 270.122 54.704C272.234 54.704 273.888 55.056 275.082 55.76C276.277 56.4427 277.12 57.3707 277.61 58.544C278.122 59.7173 278.378 61.0507 278.378 62.544C278.378 64.016 278.133 65.3387 277.642 66.512C277.173 67.6853 276.341 68.6133 275.146 69.296C273.952 69.9787 272.277 70.32 270.122 70.32ZM270.122 67.088C271.018 67.088 271.733 66.96 272.266 66.704C272.821 66.4267 273.216 65.9573 273.45 65.296C273.706 64.6347 273.834 63.7173 273.834 62.544C273.834 61.3707 273.706 60.4533 273.45 59.792C273.216 59.1093 272.821 58.6293 272.266 58.352C271.733 58.0533 271.018 57.904 270.122 57.904C269.226 57.904 268.501 58.0533 267.946 58.352C267.413 58.6507 267.018 59.1413 266.762 59.824C266.528 60.5067 266.41 61.424 266.41 62.576C266.41 63.7067 266.528 64.6027 266.762 65.264C267.018 65.9253 267.413 66.3947 267.946 66.672C268.501 66.9493 269.226 67.088 270.122 67.088ZM287.216 70.32C285.978 70.32 284.922 70.1067 284.048 69.68C283.173 69.232 282.512 68.4747 282.064 67.408C281.616 66.32 281.392 64.816 281.392 62.896V56.944C281.392 56.2613 281.317 55.7707 281.168 55.472C281.04 55.1733 280.901 55.024 280.752 55.024H286.64C286.49 55.024 286.33 55.1733 286.16 55.472C286.01 55.7707 285.936 56.2613 285.936 56.944V63.344C285.936 64.688 286.181 65.648 286.672 66.224C287.184 66.8 287.77 67.088 288.432 67.088C289.37 67.088 290.096 66.8747 290.608 66.448C291.12 66 291.482 65.424 291.696 64.72C291.909 63.9947 292.016 63.2373 292.016 62.448V56.944C292.016 56.2613 291.941 55.7813 291.792 55.504C291.664 55.2053 291.525 55.0453 291.376 55.024H296.56V68.08C296.56 68.7627 296.624 69.2533 296.752 69.552C296.901 69.8507 297.05 70 297.2 70H292.016V68.752L292.08 68.112L292.016 68.048C291.802 68.368 291.536 68.6667 291.216 68.944C290.896 69.2213 290.533 69.4667 290.128 69.68C289.722 69.872 289.274 70.0213 288.784 70.128C288.293 70.256 287.77 70.32 287.216 70.32ZM311.95 70C312.099 70 312.195 69.8613 312.238 69.584C312.302 69.3067 312.206 68.8053 311.95 68.08C311.864 67.8027 311.672 67.312 311.374 66.608C311.096 65.904 310.766 65.0933 310.382 64.176C309.998 63.2587 309.603 62.3307 309.198 61.392C308.814 60.4533 308.462 59.5893 308.142 58.8C307.822 58.0107 307.576 57.4133 307.406 57.008C307.128 56.2827 306.83 55.7707 306.51 55.472C306.211 55.1733 305.966 55.024 305.774 55.024H312.302C312.174 55.024 312.088 55.1733 312.046 55.472C312.003 55.7707 312.088 56.2827 312.302 57.008C312.408 57.392 312.579 57.9573 312.814 58.704C313.07 59.4507 313.347 60.2933 313.646 61.232C313.966 62.1707 314.286 63.1307 314.606 64.112C314.947 65.0933 315.256 66 315.534 66.832H315.566C315.8 65.9787 316.056 65.0613 316.334 64.08C316.611 63.0773 316.878 62.1067 317.134 61.168C317.39 60.208 317.614 59.3547 317.806 58.608C318.019 57.8613 318.168 57.3067 318.254 56.944C318.446 56.2187 318.52 55.7173 318.478 55.44C318.435 55.1627 318.36 55.024 318.254 55.024H325.358C325.23 55.024 325.144 55.1733 325.102 55.472C325.059 55.7707 325.144 56.2827 325.358 57.008C325.464 57.392 325.624 57.9573 325.838 58.704C326.051 59.4507 326.286 60.2933 326.542 61.232C326.798 62.1707 327.064 63.1307 327.342 64.112C327.619 65.0933 327.864 66 328.078 66.832H328.11C328.43 65.9787 328.76 65.0613 329.102 64.08C329.464 63.0773 329.816 62.1067 330.158 61.168C330.499 60.208 330.798 59.3547 331.054 58.608C331.31 57.8613 331.48 57.3067 331.566 56.944C331.758 56.2613 331.832 55.7707 331.79 55.472C331.747 55.1733 331.672 55.024 331.566 55.024H337.934C337.784 55.024 337.571 55.1627 337.294 55.44C337.016 55.7173 336.728 56.208 336.43 56.912C336.28 57.296 336.035 57.8613 335.694 58.608C335.352 59.3547 334.979 60.1867 334.574 61.104C334.168 62.0213 333.763 62.9387 333.358 63.856C332.952 64.7733 332.59 65.6053 332.27 66.352C331.971 67.0987 331.758 67.6747 331.63 68.08C331.416 68.7627 331.331 69.2533 331.374 69.552C331.416 69.8507 331.502 70 331.63 70H324.494C324.622 70 324.707 69.8507 324.75 69.552C324.792 69.2533 324.707 68.7627 324.494 68.08C324.43 67.888 324.302 67.4507 324.11 66.768C323.939 66.0853 323.726 65.264 323.47 64.304C323.214 63.3227 322.947 62.3093 322.67 61.264C322.392 60.2187 322.126 59.2267 321.87 58.288H321.774C321.518 59.184 321.251 60.144 320.974 61.168C320.696 62.1707 320.43 63.152 320.174 64.112C319.918 65.0507 319.683 65.8827 319.47 66.608C319.278 67.312 319.15 67.8027 319.086 68.08C318.894 68.784 318.819 69.2853 318.862 69.584C318.904 69.8613 318.979 70 319.086 70H311.95ZM344.772 70.32C342.852 70.32 341.316 69.9467 340.164 69.2C339.033 68.432 338.468 67.2053 338.468 65.52C338.468 64.3467 338.766 63.3973 339.364 62.672C339.961 61.9467 340.772 61.4133 341.796 61.072C342.841 60.7093 344.025 60.528 345.348 60.528C346.329 60.528 347.161 60.6133 347.844 60.784C348.548 60.9547 349.113 61.136 349.54 61.328C349.966 61.52 350.244 61.6587 350.372 61.744C350.372 60.848 350.276 60.1227 350.084 59.568C349.892 58.992 349.54 58.576 349.028 58.32C348.537 58.0427 347.844 57.904 346.948 57.904C345.646 57.904 344.494 58.032 343.492 58.288C342.489 58.544 341.668 58.8427 341.028 59.184C340.409 59.5253 339.982 59.8133 339.748 60.048V59.088L339.428 55.952C339.577 55.8667 339.972 55.728 340.612 55.536C341.252 55.344 342.126 55.1627 343.236 54.992C344.345 54.8 345.668 54.704 347.204 54.704C349.316 54.704 350.926 55.0133 352.036 55.632C353.145 56.2293 353.902 57.0933 354.308 58.224C354.734 59.3547 354.948 60.72 354.948 62.32V68.08C354.948 68.6773 355.012 69.1147 355.14 69.392C355.289 69.648 355.438 69.8507 355.588 70H350.404V69.328L350.468 68.72L350.404 68.656C350.233 68.848 349.988 69.04 349.668 69.232C349.348 69.424 348.953 69.6053 348.484 69.776C348.014 69.9253 347.47 70.0533 346.852 70.16C346.233 70.2667 345.54 70.32 344.772 70.32ZM346.276 67.088C347.172 67.088 347.918 67.024 348.516 66.896C349.134 66.7467 349.604 66.5547 349.924 66.32C350.244 66.064 350.404 65.7653 350.404 65.424C350.404 64.9333 350.03 64.528 349.284 64.208C348.558 63.888 347.566 63.728 346.308 63.728C345.092 63.728 344.228 63.8987 343.716 64.24C343.225 64.5813 342.98 65.008 342.98 65.52C342.98 66.16 343.268 66.5867 343.844 66.8C344.42 66.992 345.23 67.088 346.276 67.088ZM358.221 70C358.37 70 358.509 69.8507 358.637 69.552C358.786 69.2533 358.861 68.7627 358.861 68.08V57.264C358.861 56.5813 358.786 56.1013 358.637 55.824C358.509 55.5253 358.37 55.3653 358.221 55.344C359.159 55.344 360.119 55.28 361.101 55.152C362.082 55.0027 362.85 54.8533 363.405 54.704V56.656L363.341 57.072L363.405 57.136C363.469 56.9867 363.671 56.72 364.013 56.336C364.354 55.952 364.845 55.5893 365.485 55.248C366.125 54.8853 366.914 54.704 367.853 54.704C369.837 54.704 371.351 55.2693 372.397 56.4C373.463 57.5307 373.997 59.3013 373.997 61.712V68.08C373.997 68.7627 374.061 69.2533 374.189 69.552C374.338 69.8507 374.487 70 374.637 70H368.813C368.962 70 369.101 69.8507 369.229 69.552C369.378 69.2533 369.453 68.7627 369.453 68.08V61.808C369.453 60.8053 369.346 60.0267 369.133 59.472C368.919 58.896 368.621 58.4907 368.237 58.256C367.874 58.0213 367.447 57.904 366.957 57.904C366.359 57.904 365.783 58.0533 365.229 58.352C364.695 58.6293 364.258 59.0773 363.917 59.696C363.575 60.2933 363.405 61.0933 363.405 62.096V68.08C363.405 68.7627 363.469 69.2533 363.597 69.552C363.746 69.8507 363.895 70 364.045 70H358.221ZM383.556 70.32C382.084 70.32 381.017 70.0107 380.356 69.392C379.694 68.752 379.364 67.7173 379.364 66.288V58.224H376.484V55.024C377.465 55.024 378.233 54.9067 378.788 54.672C379.342 54.416 379.737 53.9787 379.972 53.36C380.206 52.7413 380.324 51.8773 380.324 50.768H383.908V55.024H389.38C389.23 55.4507 389.081 55.984 388.932 56.624C388.804 57.2427 388.74 57.776 388.74 58.224H383.908V64.528C383.908 65.5093 383.982 66.1813 384.132 66.544C384.281 66.9067 384.633 67.088 385.188 67.088C385.55 67.088 385.945 66.96 386.372 66.704C386.82 66.448 387.246 66.1387 387.652 65.776C388.078 65.392 388.43 65.0293 388.708 64.688V65.68L389.028 68.784C388.772 68.9973 388.388 69.232 387.876 69.488C387.364 69.7227 386.734 69.9147 385.988 70.064C385.262 70.2347 384.452 70.32 383.556 70.32ZM405.087 70.32C403.615 70.32 402.548 70.0107 401.887 69.392C401.226 68.752 400.895 67.7173 400.895 66.288V58.224H398.015V55.024C398.996 55.024 399.764 54.9067 400.319 54.672C400.874 54.416 401.268 53.9787 401.503 53.36C401.738 52.7413 401.855 51.8773 401.855 50.768H405.439V55.024H410.911C410.762 55.4507 410.612 55.984 410.463 56.624C410.335 57.2427 410.271 57.776 410.271 58.224H405.439V64.528C405.439 65.5093 405.514 66.1813 405.663 66.544C405.812 66.9067 406.164 67.088 406.719 67.088C407.082 67.088 407.476 66.96 407.903 66.704C408.351 66.448 408.778 66.1387 409.183 65.776C409.61 65.392 409.962 65.0293 410.239 64.688V65.68L410.559 68.784C410.303 68.9973 409.919 69.232 409.407 69.488C408.895 69.7227 408.266 69.9147 407.519 70.064C406.794 70.2347 405.983 70.32 405.087 70.32ZM420.435 70.32C418.301 70.32 416.627 69.9787 415.411 69.296C414.216 68.6133 413.373 67.6853 412.883 66.512C412.413 65.3387 412.179 64.016 412.179 62.544C412.179 61.0507 412.424 59.7173 412.915 58.544C413.427 57.3707 414.28 56.4427 415.475 55.76C416.669 55.056 418.323 54.704 420.435 54.704C422.547 54.704 424.2 55.056 425.395 55.76C426.589 56.4427 427.432 57.3707 427.923 58.544C428.435 59.7173 428.691 61.0507 428.691 62.544C428.691 64.016 428.445 65.3387 427.955 66.512C427.485 67.6853 426.653 68.6133 425.459 69.296C424.264 69.9787 422.589 70.32 420.435 70.32ZM420.435 67.088C421.331 67.088 422.045 66.96 422.579 66.704C423.133 66.4267 423.528 65.9573 423.763 65.296C424.019 64.6347 424.147 63.7173 424.147 62.544C424.147 61.3707 424.019 60.4533 423.763 59.792C423.528 59.1093 423.133 58.6293 422.579 58.352C422.045 58.0533 421.331 57.904 420.435 57.904C419.539 57.904 418.813 58.0533 418.259 58.352C417.725 58.6507 417.331 59.1413 417.075 59.824C416.84 60.5067 416.723 61.424 416.723 62.576C416.723 63.7067 416.84 64.6027 417.075 65.264C417.331 65.9253 417.725 66.3947 418.259 66.672C418.813 66.9493 419.539 67.088 420.435 67.088ZM449.632 77.808C449.696 77.6373 449.76 77.328 449.824 76.88C449.909 76.4533 449.952 75.9093 449.952 75.248V69.584L450.016 68.976L449.952 68.944C449.632 69.2213 449.258 69.4667 448.832 69.68C448.405 69.872 447.925 70.0213 447.392 70.128C446.88 70.256 446.314 70.32 445.696 70.32C443.797 70.32 442.304 69.9787 441.216 69.296C440.149 68.6133 439.392 67.6853 438.944 66.512C438.517 65.3387 438.304 64.016 438.304 62.544C438.304 61.0507 438.517 59.7173 438.944 58.544C439.392 57.3707 440.149 56.4427 441.216 55.76C442.304 55.056 443.797 54.704 445.696 54.704C446.336 54.704 446.912 54.7573 447.424 54.864C447.957 54.9707 448.426 55.12 448.832 55.312C449.258 55.4827 449.632 55.7067 449.952 55.984L450.016 55.952L449.952 55.344V55.024H455.136C454.986 55.0453 454.837 55.2053 454.688 55.504C454.56 55.8027 454.496 56.304 454.496 57.008V75.248C454.496 75.9307 454.56 76.4213 454.688 76.72C454.837 77.0187 454.976 77.168 455.104 77.168C454.122 77.168 453.12 77.232 452.096 77.36C451.072 77.5093 450.25 77.6587 449.632 77.808ZM446.24 67.088C446.944 67.088 447.53 66.9813 448 66.768C448.49 66.5547 448.874 66.256 449.152 65.872C449.45 65.4667 449.653 64.9867 449.76 64.432C449.888 63.856 449.952 63.2267 449.952 62.544C449.952 61.8613 449.888 61.2427 449.76 60.688C449.632 60.112 449.429 59.6213 449.152 59.216C448.874 58.7893 448.49 58.4693 448 58.256C447.53 58.0213 446.944 57.904 446.24 57.904C445.216 57.904 444.384 58.256 443.744 58.96C443.125 59.664 442.816 60.8693 442.816 62.576C442.816 63.7067 442.954 64.6027 443.232 65.264C443.509 65.9253 443.904 66.3947 444.416 66.672C444.928 66.9493 445.536 67.088 446.24 67.088ZM464.622 70.32C463.385 70.32 462.329 70.1067 461.454 69.68C460.579 69.232 459.918 68.4747 459.47 67.408C459.022 66.32 458.798 64.816 458.798 62.896V56.944C458.798 56.2613 458.723 55.7707 458.574 55.472C458.446 55.1733 458.307 55.024 458.158 55.024H464.046C463.897 55.024 463.737 55.1733 463.566 55.472C463.417 55.7707 463.342 56.2613 463.342 56.944V63.344C463.342 64.688 463.587 65.648 464.078 66.224C464.59 66.8 465.177 67.088 465.838 67.088C466.777 67.088 467.502 66.8747 468.014 66.448C468.526 66 468.889 65.424 469.102 64.72C469.315 63.9947 469.422 63.2373 469.422 62.448V56.944C469.422 56.2613 469.347 55.7813 469.198 55.504C469.07 55.2053 468.931 55.0453 468.782 55.024H473.966V68.08C473.966 68.7627 474.03 69.2533 474.158 69.552C474.307 69.8507 474.457 70 474.606 70H469.422V68.752L469.486 68.112L469.422 68.048C469.209 68.368 468.942 68.6667 468.622 68.944C468.302 69.2213 467.939 69.4667 467.534 69.68C467.129 69.872 466.681 70.0213 466.19 70.128C465.699 70.256 465.177 70.32 464.622 70.32ZM477.221 70C477.37 70 477.519 69.8507 477.669 69.552C477.818 69.2533 477.893 68.7627 477.893 68.08V56.944C477.893 56.2613 477.818 55.7707 477.669 55.472C477.541 55.1733 477.402 55.024 477.253 55.024H482.437V68.08C482.437 68.7627 482.501 69.2533 482.629 69.552C482.778 69.8507 482.927 70 483.077 70H477.221ZM479.812 52.592C479.023 52.592 478.394 52.3787 477.924 51.952C477.455 51.5253 477.221 50.9387 477.221 50.192C477.221 49.4453 477.445 48.8587 477.893 48.432C478.362 48.0053 479.002 47.792 479.812 47.792C480.623 47.792 481.253 48.0053 481.701 48.432C482.17 48.8587 482.405 49.4453 482.405 50.192C482.405 50.9387 482.17 51.5253 481.701 51.952C481.253 52.3787 480.623 52.592 479.812 52.592ZM492.275 70.32C490.803 70.32 489.736 70.0107 489.075 69.392C488.413 68.752 488.083 67.7173 488.083 66.288V58.224H485.203V55.024C486.184 55.024 486.952 54.9067 487.507 54.672C488.061 54.416 488.456 53.9787 488.691 53.36C488.925 52.7413 489.043 51.8773 489.043 50.768H492.627V55.024H498.099C497.949 55.4507 497.8 55.984 497.651 56.624C497.523 57.2427 497.459 57.776 497.459 58.224H492.627V64.528C492.627 65.5093 492.701 66.1813 492.851 66.544C493 66.9067 493.352 67.088 493.907 67.088C494.269 67.088 494.664 66.96 495.091 66.704C495.539 66.448 495.965 66.1387 496.371 65.776C496.797 65.392 497.149 65.0293 497.427 64.688V65.68L497.747 68.784C497.491 68.9973 497.107 69.232 496.595 69.488C496.083 69.7227 495.453 69.9147 494.707 70.064C493.981 70.2347 493.171 70.32 492.275 70.32ZM196.071 110.32C194.599 110.32 193.533 110.011 192.871 109.392C192.21 108.752 191.879 107.717 191.879 106.288V98.224H188.999V95.024C189.981 95.024 190.749 94.9067 191.303 94.672C191.858 94.416 192.253 93.9787 192.487 93.36C192.722 92.7413 192.839 91.8773 192.839 90.768H196.423V95.024H201.895C201.746 95.4507 201.597 95.984 201.447 96.624C201.319 97.2427 201.255 97.776 201.255 98.224H196.423V104.528C196.423 105.509 196.498 106.181 196.647 106.544C196.797 106.907 197.149 107.088 197.703 107.088C198.066 107.088 198.461 106.96 198.887 106.704C199.335 106.448 199.762 106.139 200.167 105.776C200.594 105.392 200.946 105.029 201.223 104.688V105.68L201.543 108.784C201.287 108.997 200.903 109.232 200.391 109.488C199.879 109.723 199.25 109.915 198.503 110.064C197.778 110.235 196.967 110.32 196.071 110.32ZM203.611 110C203.76 110 203.899 109.851 204.027 109.552C204.176 109.253 204.251 108.763 204.251 108.08V89.84C204.251 89.1573 204.176 88.6773 204.027 88.4C203.899 88.1013 203.76 87.9413 203.611 87.92H208.795V96.656L208.731 97.072L208.795 97.136C208.859 96.9867 209.062 96.72 209.403 96.336C209.744 95.952 210.235 95.5893 210.875 95.248C211.515 94.8853 212.304 94.704 213.243 94.704C215.227 94.704 216.742 95.2693 217.787 96.4C218.854 97.5307 219.387 99.3013 219.387 101.712V108.08C219.387 108.763 219.451 109.253 219.579 109.552C219.728 109.851 219.878 110 220.027 110H214.203C214.352 110 214.491 109.851 214.619 109.552C214.768 109.253 214.843 108.763 214.843 108.08V101.808C214.843 100.805 214.736 100.027 214.523 99.472C214.31 98.896 214.011 98.4907 213.627 98.256C213.264 98.0213 212.838 97.904 212.347 97.904C211.75 97.904 211.174 98.0533 210.619 98.352C210.086 98.6293 209.648 99.0773 209.307 99.696C208.966 100.293 208.795 101.093 208.795 102.096V108.08C208.795 108.763 208.859 109.253 208.987 109.552C209.136 109.851 209.286 110 209.435 110H203.611ZM230.898 110.32C229.213 110.32 227.805 110.149 226.674 109.808C225.565 109.445 224.68 108.933 224.018 108.272C223.357 107.589 222.888 106.768 222.61 105.808C222.333 104.848 222.194 103.76 222.194 102.544C222.194 100.133 222.866 98.224 224.21 96.816C225.554 95.408 227.613 94.704 230.386 94.704C232.008 94.704 233.32 94.928 234.322 95.376C235.346 95.824 236.125 96.4213 236.658 97.168C237.192 97.9147 237.554 98.7467 237.746 99.664C237.96 100.56 238.066 101.467 238.066 102.384V103.888C238.066 103.824 237.768 103.76 237.17 103.696C236.594 103.611 235.613 103.568 234.226 103.568H226.802C226.802 104.741 227.154 105.627 227.858 106.224C228.584 106.8 229.757 107.088 231.378 107.088C232.744 107.088 233.96 106.928 235.026 106.608C236.114 106.267 236.904 105.947 237.394 105.648V106.608L237.714 109.04C237.309 109.317 236.53 109.605 235.378 109.904C234.226 110.181 232.733 110.32 230.898 110.32ZM227.986 100.816H233.522C233.522 100.347 233.416 99.888 233.202 99.44C233.01 98.992 232.69 98.6293 232.242 98.352C231.794 98.0533 231.176 97.904 230.386 97.904C229.597 97.904 228.957 98.0213 228.466 98.256C227.997 98.4907 227.645 98.7787 227.41 99.12C227.197 99.4613 227.09 99.8133 227.09 100.176C227.09 100.389 227.154 100.549 227.282 100.656C227.41 100.763 227.645 100.816 227.986 100.816ZM256.167 117.808C254.93 117.808 253.788 117.723 252.743 117.552C251.719 117.381 250.823 117.168 250.055 116.912C249.308 116.677 248.732 116.443 248.327 116.208L248.967 111.408V110.48C249.266 111.056 249.735 111.664 250.375 112.304C251.015 112.944 251.815 113.488 252.775 113.936C253.735 114.384 254.823 114.608 256.039 114.608C256.828 114.608 257.49 114.437 258.023 114.096C258.556 113.776 258.962 113.275 259.239 112.592C259.516 111.909 259.655 111.067 259.655 110.064V109.552L259.719 108.976L259.655 108.912C259.356 109.232 258.951 109.499 258.439 109.712C257.948 109.904 257.404 110.053 256.807 110.16C256.231 110.267 255.655 110.32 255.079 110.32C253.351 110.32 251.964 109.979 250.919 109.296C249.895 108.613 249.148 107.685 248.679 106.512C248.231 105.339 248.007 104.016 248.007 102.544C248.007 101.051 248.231 99.7173 248.679 98.544C249.127 97.3707 249.863 96.4427 250.887 95.76C251.932 95.056 253.33 94.704 255.079 94.704C255.676 94.704 256.263 94.7467 256.839 94.832C257.415 94.9173 257.948 95.0453 258.439 95.216C258.93 95.3653 259.335 95.5787 259.655 95.856L259.719 95.824L259.655 95.216V95.024H264.839C264.69 95.0453 264.54 95.2053 264.391 95.504C264.263 95.8027 264.199 96.304 264.199 97.008V109.264C264.199 112.357 263.538 114.555 262.215 115.856C260.914 117.157 258.898 117.808 256.167 117.808ZM255.943 107.088C256.69 107.088 257.34 106.96 257.895 106.704C258.45 106.448 258.876 105.989 259.175 105.328C259.495 104.667 259.655 103.739 259.655 102.544C259.655 101.371 259.495 100.453 259.175 99.792C258.876 99.1093 258.45 98.6293 257.895 98.352C257.34 98.0533 256.69 97.904 255.943 97.904C255.239 97.904 254.631 98.0533 254.119 98.352C253.607 98.6507 253.212 99.1413 252.935 99.824C252.658 100.507 252.519 101.424 252.519 102.576C252.519 103.707 252.647 104.603 252.903 105.264C253.18 105.925 253.575 106.395 254.087 106.672C254.599 106.949 255.218 107.088 255.943 107.088ZM274.037 110.32C272.117 110.32 270.581 109.947 269.429 109.2C268.298 108.432 267.733 107.205 267.733 105.52C267.733 104.347 268.032 103.397 268.629 102.672C269.226 101.947 270.037 101.413 271.061 101.072C272.106 100.709 273.29 100.528 274.613 100.528C275.594 100.528 276.426 100.613 277.109 100.784C277.813 100.955 278.378 101.136 278.805 101.328C279.232 101.52 279.509 101.659 279.637 101.744C279.637 100.848 279.541 100.123 279.349 99.568C279.157 98.992 278.805 98.576 278.293 98.32C277.802 98.0427 277.109 97.904 276.213 97.904C274.912 97.904 273.76 98.032 272.757 98.288C271.754 98.544 270.933 98.8427 270.293 99.184C269.674 99.5253 269.248 99.8133 269.013 100.048V99.088L268.693 95.952C268.842 95.8667 269.237 95.728 269.877 95.536C270.517 95.344 271.392 95.1627 272.501 94.992C273.61 94.8 274.933 94.704 276.469 94.704C278.581 94.704 280.192 95.0133 281.301 95.632C282.41 96.2293 283.168 97.0933 283.573 98.224C284 99.3547 284.213 100.72 284.213 102.32V108.08C284.213 108.677 284.277 109.115 284.405 109.392C284.554 109.648 284.704 109.851 284.853 110H279.669V109.328L279.733 108.72L279.669 108.656C279.498 108.848 279.253 109.04 278.933 109.232C278.613 109.424 278.218 109.605 277.749 109.776C277.28 109.925 276.736 110.053 276.117 110.16C275.498 110.267 274.805 110.32 274.037 110.32ZM275.541 107.088C276.437 107.088 277.184 107.024 277.781 106.896C278.4 106.747 278.869 106.555 279.189 106.32C279.509 106.064 279.669 105.765 279.669 105.424C279.669 104.933 279.296 104.528 278.549 104.208C277.824 103.888 276.832 103.728 275.573 103.728C274.357 103.728 273.493 103.899 272.981 104.24C272.49 104.581 272.245 105.008 272.245 105.52C272.245 106.16 272.533 106.587 273.109 106.8C273.685 106.992 274.496 107.088 275.541 107.088ZM287.486 110C287.635 110 287.774 109.851 287.902 109.552C288.051 109.253 288.126 108.763 288.126 108.08V97.264C288.126 96.5813 288.051 96.1013 287.902 95.824C287.774 95.5253 287.635 95.3653 287.486 95.344C288.425 95.344 289.385 95.28 290.366 95.152C291.347 95.0027 292.115 94.8533 292.67 94.704V96.656L292.606 97.072L292.67 97.136C292.734 96.9867 292.937 96.72 293.278 96.336C293.619 95.952 294.11 95.5893 294.75 95.248C295.39 94.8853 296.179 94.704 297.118 94.704C299.102 94.704 300.617 95.2693 301.662 96.4C302.729 97.5307 303.262 99.3013 303.262 101.712V108.08C303.262 108.763 303.326 109.253 303.454 109.552C303.603 109.851 303.753 110 303.902 110H298.078C298.227 110 298.366 109.851 298.494 109.552C298.643 109.253 298.718 108.763 298.718 108.08V101.808C298.718 100.805 298.611 100.027 298.398 99.472C298.185 98.896 297.886 98.4907 297.502 98.256C297.139 98.0213 296.713 97.904 296.222 97.904C295.625 97.904 295.049 98.0533 294.494 98.352C293.961 98.6293 293.523 99.0773 293.182 99.696C292.841 100.293 292.67 101.093 292.67 102.096V108.08C292.67 108.763 292.734 109.253 292.862 109.552C293.011 109.851 293.161 110 293.31 110H287.486ZM308.638 110C308.787 109.979 308.926 109.819 309.054 109.52C309.203 109.221 309.278 108.741 309.278 108.08V102.096C309.278 101.243 309.193 100.507 309.022 99.888C308.873 99.248 308.617 98.7573 308.254 98.416C307.891 98.0747 307.401 97.904 306.782 97.904C305.737 97.904 304.883 98.2773 304.222 99.024C303.582 99.7707 303.262 100.901 303.262 102.416H300.926C300.926 101.392 301.086 100.421 301.406 99.504C301.726 98.5653 302.185 97.744 302.782 97.04C303.379 96.3147 304.094 95.7493 304.926 95.344C305.758 94.9173 306.675 94.704 307.678 94.704C308.958 94.704 310.057 94.9387 310.974 95.408C311.891 95.856 312.595 96.6133 313.086 97.68C313.577 98.7467 313.822 100.197 313.822 102.032V108.08C313.822 108.741 313.886 109.221 314.014 109.52C314.163 109.819 314.313 109.979 314.462 110H308.638ZM325.336 110.32C323.651 110.32 322.243 110.149 321.112 109.808C320.003 109.445 319.117 108.933 318.456 108.272C317.795 107.589 317.325 106.768 317.048 105.808C316.771 104.848 316.632 103.76 316.632 102.544C316.632 100.133 317.304 98.224 318.648 96.816C319.992 95.408 322.051 94.704 324.824 94.704C326.445 94.704 327.757 94.928 328.76 95.376C329.784 95.824 330.563 96.4213 331.096 97.168C331.629 97.9147 331.992 98.7467 332.184 99.664C332.397 100.56 332.504 101.467 332.504 102.384V103.888C332.504 103.824 332.205 103.76 331.608 103.696C331.032 103.611 330.051 103.568 328.664 103.568H321.24C321.24 104.741 321.592 105.627 322.296 106.224C323.021 106.8 324.195 107.088 325.816 107.088C327.181 107.088 328.397 106.928 329.464 106.608C330.552 106.267 331.341 105.947 331.832 105.648V106.608L332.152 109.04C331.747 109.317 330.968 109.605 329.816 109.904C328.664 110.181 327.171 110.32 325.336 110.32ZM322.424 100.816H327.96C327.96 100.347 327.853 99.888 327.64 99.44C327.448 98.992 327.128 98.6293 326.68 98.352C326.232 98.0533 325.613 97.904 324.824 97.904C324.035 97.904 323.395 98.0213 322.904 98.256C322.435 98.4907 322.083 98.7787 321.848 99.12C321.635 99.4613 321.528 99.8133 321.528 100.176C321.528 100.389 321.592 100.549 321.72 100.656C321.848 100.763 322.083 100.816 322.424 100.816ZM340.613 104.208C340.4 104.208 340.122 103.749 339.781 102.832C339.461 101.915 339.301 100.677 339.301 99.12C340.026 98.9067 340.677 98.608 341.253 98.224C341.85 97.8187 342.32 97.3707 342.661 96.88C343.024 96.368 343.205 95.856 343.205 95.344C343.205 94.8533 343.088 94.4693 342.853 94.192C342.618 93.8933 342.138 93.744 341.413 93.744C340.453 93.744 339.568 93.9787 338.757 94.448C337.968 94.896 337.381 95.3333 336.997 95.76V94.8L336.357 91.472C336.656 91.2587 337.264 91.0453 338.181 90.832C339.12 90.6187 340.357 90.512 341.893 90.512C343.344 90.512 344.517 90.7253 345.413 91.152C346.33 91.5787 347.002 92.1227 347.429 92.784C347.856 93.4453 348.069 94.1387 348.069 94.864C348.069 95.8453 347.802 96.72 347.269 97.488C346.736 98.256 346.021 98.9173 345.125 99.472C344.25 100.005 343.28 100.421 342.213 100.72C342.213 100.848 342.149 101.093 342.021 101.456C341.914 101.819 341.765 102.213 341.573 102.64C341.402 103.067 341.232 103.44 341.061 103.76C340.89 104.059 340.741 104.208 340.613 104.208ZM340.741 110.32C339.952 110.32 339.322 110.16 338.853 109.84C338.384 109.52 338.149 108.987 338.149 108.24C338.149 107.493 338.373 106.96 338.821 106.64C339.29 106.32 339.93 106.16 340.741 106.16C341.552 106.16 342.181 106.32 342.629 106.64C343.098 106.96 343.333 107.493 343.333 108.24C343.333 108.987 343.098 109.52 342.629 109.84C342.181 110.16 341.552 110.32 340.741 110.32Z" fill="#303131"/>
<rect width="182" height="57" transform="translate(92.5 173)" fill="#66CFBC"/>
<path d="M117.5 208C117.593 208 117.687 207.907 117.78 207.72C117.873 207.533 117.92 207.227 117.92 206.8V197.2C117.92 196.773 117.873 196.473 117.78 196.3C117.687 196.113 117.593 196.013 117.5 196H124.98C126.02 196 126.833 196.12 127.42 196.36C128.007 196.6 128.42 196.947 128.66 197.4C128.9 197.84 129.02 198.36 129.02 198.96C129.02 199.44 128.933 199.847 128.76 200.18C128.6 200.5 128.393 200.753 128.14 200.94C127.887 201.127 127.633 201.267 127.38 201.36V201.4C128.247 201.6 128.9 201.96 129.34 202.48C129.78 202.987 130 203.667 130 204.52C130 205.093 129.887 205.647 129.66 206.18C129.433 206.713 129.013 207.153 128.4 207.5C127.8 207.833 126.927 208 125.78 208H117.5ZM121.8 205.78H124.8C125.56 205.78 126.1 205.673 126.42 205.46C126.753 205.233 126.92 204.873 126.92 204.38C126.92 203.913 126.74 203.553 126.38 203.3C126.02 203.033 125.427 202.9 124.6 202.9H121.82C121.42 202.9 121.18 202.927 121.1 202.98C121.033 203.033 121 203.213 121 203.52V205.18C121 205.473 121.033 205.647 121.1 205.7C121.18 205.753 121.413 205.78 121.8 205.78ZM121.82 200.86H124.18C124.82 200.86 125.273 200.753 125.54 200.54C125.82 200.313 125.96 199.98 125.96 199.54C125.96 199.1 125.827 198.773 125.56 198.56C125.307 198.347 124.853 198.24 124.2 198.24H121.8C121.4 198.24 121.167 198.267 121.1 198.32C121.033 198.36 121 198.533 121 198.84V200.26C121 200.553 121.033 200.727 121.1 200.78C121.18 200.833 121.42 200.86 121.82 200.86ZM135.342 208.2C134.142 208.2 133.182 207.967 132.462 207.5C131.755 207.02 131.402 206.253 131.402 205.2C131.402 204.467 131.588 203.873 131.962 203.42C132.335 202.967 132.842 202.633 133.482 202.42C134.135 202.193 134.875 202.08 135.702 202.08C136.315 202.08 136.835 202.133 137.262 202.24C137.702 202.347 138.055 202.46 138.322 202.58C138.588 202.7 138.762 202.787 138.842 202.84C138.842 202.28 138.782 201.827 138.662 201.48C138.542 201.12 138.322 200.86 138.002 200.7C137.695 200.527 137.262 200.44 136.702 200.44C135.888 200.44 135.168 200.52 134.542 200.68C133.915 200.84 133.402 201.027 133.002 201.24C132.615 201.453 132.348 201.633 132.202 201.78V201.18L132.002 199.22C132.095 199.167 132.342 199.08 132.742 198.96C133.142 198.84 133.688 198.727 134.382 198.62C135.075 198.5 135.902 198.44 136.862 198.44C138.182 198.44 139.188 198.633 139.882 199.02C140.575 199.393 141.048 199.933 141.302 200.64C141.568 201.347 141.702 202.2 141.702 203.2V206.8C141.702 207.173 141.742 207.447 141.822 207.62C141.915 207.78 142.008 207.907 142.102 208H138.862V207.58L138.902 207.2L138.862 207.16C138.755 207.28 138.602 207.4 138.402 207.52C138.202 207.64 137.955 207.753 137.662 207.86C137.368 207.953 137.028 208.033 136.642 208.1C136.255 208.167 135.822 208.2 135.342 208.2ZM136.282 206.18C136.842 206.18 137.308 206.14 137.682 206.06C138.068 205.967 138.362 205.847 138.562 205.7C138.762 205.54 138.862 205.353 138.862 205.14C138.862 204.833 138.628 204.58 138.162 204.38C137.708 204.18 137.088 204.08 136.302 204.08C135.542 204.08 135.002 204.187 134.682 204.4C134.375 204.613 134.222 204.88 134.222 205.2C134.222 205.6 134.402 205.867 134.762 206C135.122 206.12 135.628 206.18 136.282 206.18ZM148.887 208.2C147.501 208.2 146.407 207.987 145.607 207.56C144.821 207.133 144.267 206.553 143.947 205.82C143.627 205.087 143.467 204.26 143.467 203.34C143.467 201.713 143.907 200.493 144.787 199.68C145.681 198.867 146.981 198.46 148.687 198.46C149.581 198.46 150.394 198.527 151.127 198.66C151.874 198.793 152.421 198.92 152.767 199.04V199.64L153.167 201.78C152.874 201.5 152.341 201.213 151.567 200.92C150.807 200.613 149.894 200.46 148.827 200.46C148.254 200.46 147.774 200.567 147.387 200.78C147.014 200.98 146.734 201.293 146.547 201.72C146.374 202.147 146.287 202.693 146.287 203.36C146.287 204.013 146.387 204.547 146.587 204.96C146.787 205.373 147.114 205.673 147.567 205.86C148.021 206.047 148.621 206.14 149.367 206.14C150.314 206.14 151.094 206.02 151.707 205.78C152.334 205.527 152.754 205.28 152.967 205.04V205.64L153.167 207.24C152.914 207.453 152.414 207.667 151.667 207.88C150.934 208.093 150.007 208.2 148.887 208.2ZM154.841 208C154.934 208 155.021 207.907 155.101 207.72C155.194 207.533 155.241 207.227 155.241 206.8V195.4C155.241 194.973 155.194 194.673 155.101 194.5C155.021 194.313 154.934 194.213 154.841 194.2H158.081V201.76C158.081 202.053 158.101 202.233 158.141 202.3C158.181 202.353 158.301 202.38 158.501 202.38C158.808 202.38 159.121 202.28 159.441 202.08C159.761 201.88 160.054 201.593 160.321 201.22C160.588 200.833 160.774 200.38 160.881 199.86C160.974 199.42 161.014 199.107 161.001 198.92C160.988 198.733 160.948 198.64 160.881 198.64H164.941C164.848 198.64 164.708 198.733 164.521 198.92C164.348 199.093 164.148 199.407 163.921 199.86C163.654 200.407 163.381 200.9 163.101 201.34C162.821 201.767 162.528 202.133 162.221 202.44C161.914 202.733 161.581 202.973 161.221 203.16C161.848 203.427 162.374 203.767 162.801 204.18C163.228 204.58 163.594 205.013 163.901 205.48C164.221 205.933 164.514 206.373 164.781 206.8C165.048 207.227 165.281 207.533 165.481 207.72C165.694 207.907 165.848 208 165.941 208H161.901C161.981 207.987 162.008 207.873 161.981 207.66C161.968 207.447 161.834 207.093 161.581 206.6C161.328 206.093 161.028 205.667 160.681 205.32C160.348 204.96 159.988 204.687 159.601 204.5C159.228 204.313 158.861 204.22 158.501 204.22C158.288 204.22 158.161 204.247 158.121 204.3C158.094 204.34 158.081 204.513 158.081 204.82V206.8C158.081 207.227 158.121 207.533 158.201 207.72C158.294 207.907 158.388 208 158.481 208H154.841ZM175.363 208.2C174.443 208.2 173.776 208.007 173.363 207.62C172.95 207.22 172.743 206.573 172.743 205.68V200.64H170.943V198.64C171.556 198.64 172.036 198.567 172.383 198.42C172.73 198.26 172.976 197.987 173.123 197.6C173.27 197.213 173.343 196.673 173.343 195.98H175.583V198.64H179.003C178.91 198.907 178.816 199.24 178.723 199.64C178.643 200.027 178.603 200.36 178.603 200.64H175.583V204.58C175.583 205.193 175.63 205.613 175.723 205.84C175.816 206.067 176.036 206.18 176.383 206.18C176.61 206.18 176.856 206.1 177.123 205.94C177.403 205.78 177.67 205.587 177.923 205.36C178.19 205.12 178.41 204.893 178.583 204.68V205.3L178.783 207.24C178.623 207.373 178.383 207.52 178.063 207.68C177.743 207.827 177.35 207.947 176.883 208.04C176.43 208.147 175.923 208.2 175.363 208.2ZM184.955 208.2C183.622 208.2 182.575 207.987 181.815 207.56C181.069 207.133 180.542 206.553 180.235 205.82C179.942 205.087 179.795 204.26 179.795 203.34C179.795 202.407 179.949 201.573 180.255 200.84C180.575 200.107 181.109 199.527 181.855 199.1C182.602 198.66 183.635 198.44 184.955 198.44C186.275 198.44 187.309 198.66 188.055 199.1C188.802 199.527 189.329 200.107 189.635 200.84C189.955 201.573 190.115 202.407 190.115 203.34C190.115 204.26 189.962 205.087 189.655 205.82C189.362 206.553 188.842 207.133 188.095 207.56C187.349 207.987 186.302 208.2 184.955 208.2ZM184.955 206.18C185.515 206.18 185.962 206.1 186.295 205.94C186.642 205.767 186.889 205.473 187.035 205.06C187.195 204.647 187.275 204.073 187.275 203.34C187.275 202.607 187.195 202.033 187.035 201.62C186.889 201.193 186.642 200.893 186.295 200.72C185.962 200.533 185.515 200.44 184.955 200.44C184.395 200.44 183.942 200.533 183.595 200.72C183.262 200.907 183.015 201.213 182.855 201.64C182.709 202.067 182.635 202.64 182.635 203.36C182.635 204.067 182.709 204.627 182.855 205.04C183.015 205.453 183.262 205.747 183.595 205.92C183.942 206.093 184.395 206.18 184.955 206.18ZM201.223 212.88C200.45 212.88 199.737 212.827 199.083 212.72C198.443 212.613 197.883 212.48 197.403 212.32C196.937 212.173 196.577 212.027 196.323 211.88L196.723 208.88V208.3C196.91 208.66 197.203 209.04 197.603 209.44C198.003 209.84 198.503 210.18 199.103 210.46C199.703 210.74 200.383 210.88 201.143 210.88C201.637 210.88 202.05 210.773 202.383 210.56C202.717 210.36 202.97 210.047 203.143 209.62C203.317 209.193 203.403 208.667 203.403 208.04V207.72L203.443 207.36L203.403 207.32C203.217 207.52 202.963 207.687 202.643 207.82C202.337 207.94 201.997 208.033 201.623 208.1C201.263 208.167 200.903 208.2 200.543 208.2C199.463 208.2 198.597 207.987 197.943 207.56C197.303 207.133 196.837 206.553 196.543 205.82C196.263 205.087 196.123 204.26 196.123 203.34C196.123 202.407 196.263 201.573 196.543 200.84C196.823 200.107 197.283 199.527 197.923 199.1C198.577 198.66 199.45 198.44 200.543 198.44C200.917 198.44 201.283 198.467 201.643 198.52C202.003 198.573 202.337 198.653 202.643 198.76C202.95 198.853 203.203 198.987 203.403 199.16L203.443 199.14L203.403 198.76V198.64H206.643C206.55 198.653 206.457 198.753 206.363 198.94C206.283 199.127 206.243 199.44 206.243 199.88V207.54C206.243 209.473 205.83 210.847 205.003 211.66C204.19 212.473 202.93 212.88 201.223 212.88ZM201.083 206.18C201.55 206.18 201.957 206.1 202.303 205.94C202.65 205.78 202.917 205.493 203.103 205.08C203.303 204.667 203.403 204.087 203.403 203.34C203.403 202.607 203.303 202.033 203.103 201.62C202.917 201.193 202.65 200.893 202.303 200.72C201.957 200.533 201.55 200.44 201.083 200.44C200.643 200.44 200.263 200.533 199.943 200.72C199.623 200.907 199.377 201.213 199.203 201.64C199.03 202.067 198.943 202.64 198.943 203.36C198.943 204.067 199.023 204.627 199.183 205.04C199.357 205.453 199.603 205.747 199.923 205.92C200.243 206.093 200.63 206.18 201.083 206.18ZM212.392 208.2C211.192 208.2 210.232 207.967 209.512 207.5C208.806 207.02 208.452 206.253 208.452 205.2C208.452 204.467 208.639 203.873 209.012 203.42C209.386 202.967 209.892 202.633 210.532 202.42C211.186 202.193 211.926 202.08 212.752 202.08C213.366 202.08 213.886 202.133 214.312 202.24C214.752 202.347 215.106 202.46 215.372 202.58C215.639 202.7 215.812 202.787 215.892 202.84C215.892 202.28 215.832 201.827 215.712 201.48C215.592 201.12 215.372 200.86 215.052 200.7C214.746 200.527 214.312 200.44 213.752 200.44C212.939 200.44 212.219 200.52 211.592 200.68C210.966 200.84 210.452 201.027 210.052 201.24C209.666 201.453 209.399 201.633 209.252 201.78V201.18L209.052 199.22C209.146 199.167 209.392 199.08 209.792 198.96C210.192 198.84 210.739 198.727 211.432 198.62C212.126 198.5 212.952 198.44 213.912 198.44C215.232 198.44 216.239 198.633 216.932 199.02C217.626 199.393 218.099 199.933 218.352 200.64C218.619 201.347 218.752 202.2 218.752 203.2V206.8C218.752 207.173 218.792 207.447 218.872 207.62C218.966 207.78 219.059 207.907 219.152 208H215.912V207.58L215.952 207.2L215.912 207.16C215.806 207.28 215.652 207.4 215.452 207.52C215.252 207.64 215.006 207.753 214.712 207.86C214.419 207.953 214.079 208.033 213.692 208.1C213.306 208.167 212.872 208.2 212.392 208.2ZM213.332 206.18C213.892 206.18 214.359 206.14 214.732 206.06C215.119 205.967 215.412 205.847 215.612 205.7C215.812 205.54 215.912 205.353 215.912 205.14C215.912 204.833 215.679 204.58 215.212 204.38C214.759 204.18 214.139 204.08 213.352 204.08C212.592 204.08 212.052 204.187 211.732 204.4C211.426 204.613 211.272 204.88 211.272 205.2C211.272 205.6 211.452 205.867 211.812 206C212.172 206.12 212.679 206.18 213.332 206.18ZM220.798 208C220.891 208 220.978 207.907 221.058 207.72C221.151 207.533 221.198 207.227 221.198 206.8V200.04C221.198 199.613 221.151 199.313 221.058 199.14C220.978 198.953 220.891 198.853 220.798 198.84C221.385 198.84 221.985 198.8 222.598 198.72C223.211 198.627 223.691 198.533 224.038 198.44V199.66L223.998 199.92L224.038 199.96C224.078 199.867 224.205 199.7 224.418 199.46C224.631 199.22 224.938 198.993 225.338 198.78C225.738 198.553 226.231 198.44 226.818 198.44C228.058 198.44 229.005 198.793 229.658 199.5C230.325 200.207 230.658 201.313 230.658 202.82V206.8C230.658 207.227 230.698 207.533 230.778 207.72C230.871 207.907 230.965 208 231.058 208H227.418C227.511 208 227.598 207.907 227.678 207.72C227.771 207.533 227.818 207.227 227.818 206.8V202.88C227.818 202.253 227.751 201.767 227.618 201.42C227.485 201.06 227.298 200.807 227.058 200.66C226.831 200.513 226.565 200.44 226.258 200.44C225.885 200.44 225.525 200.533 225.178 200.72C224.845 200.893 224.571 201.173 224.358 201.56C224.145 201.933 224.038 202.433 224.038 203.06V206.8C224.038 207.227 224.078 207.533 224.158 207.72C224.251 207.907 224.345 208 224.438 208H220.798ZM234.018 208C234.111 207.987 234.198 207.887 234.278 207.7C234.371 207.513 234.418 207.213 234.418 206.8V203.06C234.418 202.527 234.365 202.067 234.258 201.68C234.165 201.28 234.005 200.973 233.778 200.76C233.551 200.547 233.245 200.44 232.858 200.44C232.205 200.44 231.671 200.673 231.258 201.14C230.858 201.607 230.658 202.313 230.658 203.26H229.198C229.198 202.62 229.298 202.013 229.498 201.44C229.698 200.853 229.985 200.34 230.358 199.9C230.731 199.447 231.178 199.093 231.698 198.84C232.218 198.573 232.791 198.44 233.418 198.44C234.218 198.44 234.905 198.587 235.478 198.88C236.051 199.16 236.491 199.633 236.798 200.3C237.105 200.967 237.258 201.873 237.258 203.02V206.8C237.258 207.213 237.298 207.513 237.378 207.7C237.471 207.887 237.565 207.987 237.658 208H234.018ZM244.454 208.2C243.401 208.2 242.521 208.093 241.814 207.88C241.121 207.653 240.567 207.333 240.154 206.92C239.741 206.493 239.447 205.98 239.274 205.38C239.101 204.78 239.014 204.1 239.014 203.34C239.014 201.833 239.434 200.64 240.274 199.76C241.114 198.88 242.401 198.44 244.134 198.44C245.147 198.44 245.967 198.58 246.594 198.86C247.234 199.14 247.721 199.513 248.054 199.98C248.387 200.447 248.614 200.967 248.734 201.54C248.867 202.1 248.934 202.667 248.934 203.24V204.18C248.934 204.14 248.747 204.1 248.374 204.06C248.014 204.007 247.401 203.98 246.534 203.98H241.894C241.894 204.713 242.114 205.267 242.554 205.64C243.007 206 243.741 206.18 244.754 206.18C245.607 206.18 246.367 206.08 247.034 205.88C247.714 205.667 248.207 205.467 248.514 205.28V205.88L248.714 207.4C248.461 207.573 247.974 207.753 247.254 207.94C246.534 208.113 245.601 208.2 244.454 208.2ZM242.634 202.26H246.094C246.094 201.967 246.027 201.68 245.894 201.4C245.774 201.12 245.574 200.893 245.294 200.72C245.014 200.533 244.627 200.44 244.134 200.44C243.641 200.44 243.241 200.513 242.934 200.66C242.641 200.807 242.421 200.987 242.274 201.2C242.141 201.413 242.074 201.633 242.074 201.86C242.074 201.993 242.114 202.093 242.194 202.16C242.274 202.227 242.421 202.26 242.634 202.26Z" fill="white"/>
<rect x="299.5" y="174" width="146" height="55" fill="#86E9D6" fill-opacity="0.14"/>
<rect x="299.5" y="174" width="146" height="55" stroke="#4DD5BC" stroke-width="2"/>
<path d="M323.5 208C323.593 208 323.687 207.907 323.78 207.72C323.873 207.533 323.92 207.227 323.92 206.8V197.2C323.92 196.773 323.873 196.473 323.78 196.3C323.687 196.113 323.593 196.013 323.5 196H335.18V196.6L335.58 198.92C335.247 198.773 334.66 198.62 333.82 198.46C332.98 198.287 331.967 198.2 330.78 198.2H327.82C327.42 198.2 327.18 198.233 327.1 198.3C327.033 198.353 327 198.52 327 198.8V200.28C327 200.573 327.033 200.747 327.1 200.8C327.18 200.853 327.413 200.88 327.8 200.88H330.68C331.453 200.88 332.073 200.84 332.54 200.76C333.02 200.667 333.333 200.573 333.48 200.48C333.427 200.733 333.367 201.027 333.3 201.36C333.233 201.693 333.18 202.013 333.14 202.32C333.1 202.627 333.08 202.88 333.08 203.08H327.8C327.413 203.08 327.18 203.107 327.1 203.16C327.033 203.2 327 203.373 327 203.68V205.16C327 205.467 327.033 205.647 327.1 205.7C327.167 205.753 327.4 205.78 327.8 205.78H333.2C333.973 205.78 334.593 205.693 335.06 205.52C335.54 205.333 335.853 205.153 336 204.98L335.6 207.38V208H323.5ZM336.246 208C336.366 208 336.566 207.907 336.846 207.72C337.126 207.533 337.446 207.233 337.806 206.82C338.06 206.513 338.36 206.153 338.706 205.74C339.053 205.313 339.4 204.88 339.746 204.44C340.106 204 340.413 203.62 340.666 203.3C340.453 203.06 340.213 202.787 339.946 202.48C339.68 202.173 339.406 201.86 339.126 201.54C338.86 201.22 338.593 200.92 338.326 200.64C338.073 200.347 337.853 200.093 337.666 199.88C337.266 199.427 336.946 199.107 336.706 198.92C336.466 198.733 336.313 198.64 336.246 198.64H340.566C340.473 198.653 340.44 198.753 340.466 198.94C340.506 199.127 340.68 199.44 340.986 199.88C341.12 200.067 341.273 200.28 341.446 200.52C341.62 200.76 341.793 201 341.966 201.24C342.14 201.48 342.286 201.687 342.406 201.86H342.446C342.553 201.7 342.68 201.507 342.826 201.28C342.986 201.053 343.153 200.813 343.326 200.56C343.5 200.307 343.66 200.067 343.806 199.84C344.086 199.4 344.24 199.093 344.266 198.92C344.306 198.733 344.286 198.64 344.206 198.64H348.586C348.466 198.64 348.273 198.733 348.006 198.92C347.74 199.093 347.42 199.393 347.046 199.82C346.793 200.113 346.48 200.473 346.106 200.9C345.746 201.313 345.386 201.733 345.026 202.16C344.666 202.587 344.346 202.967 344.066 203.3C344.413 203.687 344.76 204.073 345.106 204.46C345.453 204.833 345.793 205.213 346.126 205.6C346.473 205.987 346.82 206.373 347.166 206.76C347.566 207.213 347.886 207.533 348.126 207.72C348.38 207.907 348.54 208 348.606 208H344.286C344.38 208 344.413 207.907 344.386 207.72C344.36 207.533 344.193 207.213 343.886 206.76C343.753 206.547 343.593 206.313 343.406 206.06C343.22 205.807 343.033 205.553 342.846 205.3C342.66 205.047 342.5 204.833 342.366 204.66H342.326C342.22 204.833 342.086 205.047 341.926 205.3C341.78 205.553 341.62 205.813 341.446 206.08C341.286 206.347 341.133 206.587 340.986 206.8C340.693 207.24 340.526 207.553 340.486 207.74C340.446 207.913 340.473 208 340.566 208H336.246ZM349.318 208C349.411 208 349.504 207.907 349.598 207.72C349.691 207.533 349.738 207.227 349.738 206.8V199.84C349.738 199.413 349.691 199.107 349.598 198.92C349.518 198.733 349.431 198.64 349.338 198.64H352.578V206.8C352.578 207.227 352.618 207.533 352.698 207.72C352.791 207.907 352.884 208 352.978 208H349.318ZM350.938 197.12C350.444 197.12 350.051 196.987 349.757 196.72C349.464 196.453 349.318 196.087 349.318 195.62C349.318 195.153 349.458 194.787 349.738 194.52C350.031 194.253 350.431 194.12 350.938 194.12C351.444 194.12 351.838 194.253 352.118 194.52C352.411 194.787 352.558 195.153 352.558 195.62C352.558 196.087 352.411 196.453 352.118 196.72C351.838 196.987 351.444 197.12 350.938 197.12ZM358.726 208.2C357.806 208.2 357.14 208.007 356.726 207.62C356.313 207.22 356.106 206.573 356.106 205.68V200.64H354.306V198.64C354.92 198.64 355.4 198.567 355.746 198.42C356.093 198.26 356.34 197.987 356.486 197.6C356.633 197.213 356.706 196.673 356.706 195.98H358.946V198.64H362.366C362.273 198.907 362.18 199.24 362.086 199.64C362.006 200.027 361.966 200.36 361.966 200.64H358.946V204.58C358.946 205.193 358.993 205.613 359.086 205.84C359.18 206.067 359.4 206.18 359.746 206.18C359.973 206.18 360.22 206.1 360.486 205.94C360.766 205.78 361.033 205.587 361.286 205.36C361.553 205.12 361.773 204.893 361.946 204.68V205.3L362.146 207.24C361.986 207.373 361.746 207.52 361.426 207.68C361.106 207.827 360.713 207.947 360.246 208.04C359.793 208.147 359.286 208.2 358.726 208.2ZM373.063 212.88C372.29 212.88 371.577 212.827 370.923 212.72C370.283 212.613 369.723 212.48 369.243 212.32C368.777 212.173 368.417 212.027 368.163 211.88L368.563 208.88V208.3C368.75 208.66 369.043 209.04 369.443 209.44C369.843 209.84 370.343 210.18 370.943 210.46C371.543 210.74 372.223 210.88 372.983 210.88C373.477 210.88 373.89 210.773 374.223 210.56C374.557 210.36 374.81 210.047 374.983 209.62C375.157 209.193 375.243 208.667 375.243 208.04V207.72L375.283 207.36L375.243 207.32C375.057 207.52 374.803 207.687 374.483 207.82C374.177 207.94 373.837 208.033 373.463 208.1C373.103 208.167 372.743 208.2 372.383 208.2C371.303 208.2 370.437 207.987 369.783 207.56C369.143 207.133 368.677 206.553 368.383 205.82C368.103 205.087 367.963 204.26 367.963 203.34C367.963 202.407 368.103 201.573 368.383 200.84C368.663 200.107 369.123 199.527 369.763 199.1C370.417 198.66 371.29 198.44 372.383 198.44C372.757 198.44 373.123 198.467 373.483 198.52C373.843 198.573 374.177 198.653 374.483 198.76C374.79 198.853 375.043 198.987 375.243 199.16L375.283 199.14L375.243 198.76V198.64H378.483C378.39 198.653 378.297 198.753 378.203 198.94C378.123 199.127 378.083 199.44 378.083 199.88V207.54C378.083 209.473 377.67 210.847 376.843 211.66C376.03 212.473 374.77 212.88 373.063 212.88ZM372.923 206.18C373.39 206.18 373.797 206.1 374.143 205.94C374.49 205.78 374.757 205.493 374.943 205.08C375.143 204.667 375.243 204.087 375.243 203.34C375.243 202.607 375.143 202.033 374.943 201.62C374.757 201.193 374.49 200.893 374.143 200.72C373.797 200.533 373.39 200.44 372.923 200.44C372.483 200.44 372.103 200.533 371.783 200.72C371.463 200.907 371.217 201.213 371.043 201.64C370.87 202.067 370.783 202.64 370.783 203.36C370.783 204.067 370.863 204.627 371.023 205.04C371.197 205.453 371.443 205.747 371.763 205.92C372.083 206.093 372.47 206.18 372.923 206.18ZM384.232 208.2C383.032 208.2 382.072 207.967 381.352 207.5C380.646 207.02 380.292 206.253 380.292 205.2C380.292 204.467 380.479 203.873 380.852 203.42C381.226 202.967 381.732 202.633 382.372 202.42C383.026 202.193 383.766 202.08 384.592 202.08C385.206 202.08 385.726 202.133 386.152 202.24C386.592 202.347 386.946 202.46 387.212 202.58C387.479 202.7 387.652 202.787 387.732 202.84C387.732 202.28 387.672 201.827 387.552 201.48C387.432 201.12 387.212 200.86 386.892 200.7C386.586 200.527 386.152 200.44 385.592 200.44C384.779 200.44 384.059 200.52 383.432 200.68C382.806 200.84 382.292 201.027 381.892 201.24C381.506 201.453 381.239 201.633 381.092 201.78V201.18L380.892 199.22C380.986 199.167 381.232 199.08 381.632 198.96C382.032 198.84 382.579 198.727 383.272 198.62C383.966 198.5 384.792 198.44 385.752 198.44C387.072 198.44 388.079 198.633 388.772 199.02C389.466 199.393 389.939 199.933 390.192 200.64C390.459 201.347 390.592 202.2 390.592 203.2V206.8C390.592 207.173 390.632 207.447 390.712 207.62C390.806 207.78 390.899 207.907 390.992 208H387.752V207.58L387.792 207.2L387.752 207.16C387.646 207.28 387.492 207.4 387.292 207.52C387.092 207.64 386.846 207.753 386.552 207.86C386.259 207.953 385.919 208.033 385.532 208.1C385.146 208.167 384.712 208.2 384.232 208.2ZM385.172 206.18C385.732 206.18 386.199 206.14 386.572 206.06C386.959 205.967 387.252 205.847 387.452 205.7C387.652 205.54 387.752 205.353 387.752 205.14C387.752 204.833 387.519 204.58 387.052 204.38C386.599 204.18 385.979 204.08 385.192 204.08C384.432 204.08 383.892 204.187 383.572 204.4C383.266 204.613 383.112 204.88 383.112 205.2C383.112 205.6 383.292 205.867 383.652 206C384.012 206.12 384.519 206.18 385.172 206.18ZM392.638 208C392.731 208 392.818 207.907 392.898 207.72C392.991 207.533 393.038 207.227 393.038 206.8V200.04C393.038 199.613 392.991 199.313 392.898 199.14C392.818 198.953 392.731 198.853 392.638 198.84C393.224 198.84 393.824 198.8 394.438 198.72C395.051 198.627 395.531 198.533 395.878 198.44V199.66L395.838 199.92L395.878 199.96C395.918 199.867 396.044 199.7 396.258 199.46C396.471 199.22 396.778 198.993 397.178 198.78C397.578 198.553 398.071 198.44 398.658 198.44C399.898 198.44 400.844 198.793 401.498 199.5C402.164 200.207 402.498 201.313 402.498 202.82V206.8C402.498 207.227 402.538 207.533 402.618 207.72C402.711 207.907 402.804 208 402.898 208H399.258C399.351 208 399.438 207.907 399.518 207.72C399.611 207.533 399.658 207.227 399.658 206.8V202.88C399.658 202.253 399.591 201.767 399.458 201.42C399.324 201.06 399.138 200.807 398.898 200.66C398.671 200.513 398.404 200.44 398.098 200.44C397.724 200.44 397.364 200.533 397.018 200.72C396.684 200.893 396.411 201.173 396.198 201.56C395.984 201.933 395.878 202.433 395.878 203.06V206.8C395.878 207.227 395.918 207.533 395.998 207.72C396.091 207.907 396.184 208 396.278 208H392.638ZM405.858 208C405.951 207.987 406.038 207.887 406.118 207.7C406.211 207.513 406.258 207.213 406.258 206.8V203.06C406.258 202.527 406.204 202.067 406.098 201.68C406.004 201.28 405.844 200.973 405.618 200.76C405.391 200.547 405.084 200.44 404.698 200.44C404.044 200.44 403.511 200.673 403.098 201.14C402.698 201.607 402.498 202.313 402.498 203.26H401.038C401.038 202.62 401.138 202.013 401.338 201.44C401.538 200.853 401.824 200.34 402.198 199.9C402.571 199.447 403.018 199.093 403.538 198.84C404.058 198.573 404.631 198.44 405.258 198.44C406.058 198.44 406.744 198.587 407.318 198.88C407.891 199.16 408.331 199.633 408.638 200.3C408.944 200.967 409.098 201.873 409.098 203.02V206.8C409.098 207.213 409.138 207.513 409.218 207.7C409.311 207.887 409.404 207.987 409.498 208H405.858ZM416.294 208.2C415.241 208.2 414.361 208.093 413.654 207.88C412.961 207.653 412.407 207.333 411.994 206.92C411.581 206.493 411.287 205.98 411.114 205.38C410.941 204.78 410.854 204.1 410.854 203.34C410.854 201.833 411.274 200.64 412.114 199.76C412.954 198.88 414.241 198.44 415.974 198.44C416.987 198.44 417.807 198.58 418.434 198.86C419.074 199.14 419.561 199.513 419.894 199.98C420.227 200.447 420.454 200.967 420.574 201.54C420.707 202.1 420.774 202.667 420.774 203.24V204.18C420.774 204.14 420.587 204.1 420.214 204.06C419.854 204.007 419.241 203.98 418.374 203.98H413.734C413.734 204.713 413.954 205.267 414.394 205.64C414.847 206 415.581 206.18 416.594 206.18C417.447 206.18 418.207 206.08 418.874 205.88C419.554 205.667 420.047 205.467 420.354 205.28V205.88L420.554 207.4C420.301 207.573 419.814 207.753 419.094 207.94C418.374 208.113 417.441 208.2 416.294 208.2ZM414.474 202.26H417.934C417.934 201.967 417.867 201.68 417.734 201.4C417.614 201.12 417.414 200.893 417.134 200.72C416.854 200.533 416.467 200.44 415.974 200.44C415.481 200.44 415.081 200.513 414.774 200.66C414.481 200.807 414.261 200.987 414.114 201.2C413.981 201.413 413.914 201.633 413.914 201.86C413.914 201.993 413.954 202.093 414.034 202.16C414.114 202.227 414.261 202.26 414.474 202.26Z" fill="#4DD5BC"/>
</svg>
