<svg width="182" height="57" viewBox="0 0 182 57" fill="none" xmlns="http://www.w3.org/2000/svg">
<rect width="182" height="57" fill="#66CFBC"/>
<path d="M25 35C25.0933 35 25.1867 34.9067 25.28 34.72C25.3733 34.5333 25.42 34.2267 25.42 33.8V24.2C25.42 23.7733 25.3733 23.4733 25.28 23.3C25.1867 23.1133 25.0933 23.0133 25 23H32.48C33.52 23 34.3333 23.12 34.92 23.36C35.5067 23.6 35.92 23.9467 36.16 24.4C36.4 24.84 36.52 25.36 36.52 25.96C36.52 26.44 36.4333 26.8467 36.26 27.18C36.1 27.5 35.8933 27.7533 35.64 27.94C35.3867 28.1267 35.1333 28.2667 34.88 28.36V28.4C35.7467 28.6 36.4 28.96 36.84 29.48C37.28 29.9867 37.5 30.6667 37.5 31.52C37.5 32.0933 37.3867 32.6467 37.16 33.18C36.9333 33.7133 36.5133 34.1533 35.9 34.5C35.3 34.8333 34.4267 35 33.28 35H25ZM29.3 32.78H32.3C33.06 32.78 33.6 32.6733 33.92 32.46C34.2533 32.2333 34.42 31.8733 34.42 31.38C34.42 30.9133 34.24 30.5533 33.88 30.3C33.52 30.0333 32.9267 29.9 32.1 29.9H29.32C28.92 29.9 28.68 29.9267 28.6 29.98C28.5333 30.0333 28.5 30.2133 28.5 30.52V32.18C28.5 32.4733 28.5333 32.6467 28.6 32.7C28.68 32.7533 28.9133 32.78 29.3 32.78ZM29.32 27.86H31.68C32.32 27.86 32.7733 27.7533 33.04 27.54C33.32 27.3133 33.46 26.98 33.46 26.54C33.46 26.1 33.3267 25.7733 33.06 25.56C32.8067 25.3467 32.3533 25.24 31.7 25.24H29.3C28.9 25.24 28.6667 25.2667 28.6 25.32C28.5333 25.36 28.5 25.5333 28.5 25.84V27.26C28.5 27.5533 28.5333 27.7267 28.6 27.78C28.68 27.8333 28.92 27.86 29.32 27.86ZM42.8416 35.2C41.6416 35.2 40.6816 34.9667 39.9616 34.5C39.2549 34.02 38.9016 33.2533 38.9016 32.2C38.9016 31.4667 39.0882 30.8733 39.4616 30.42C39.8349 29.9667 40.3416 29.6333 40.9816 29.42C41.6349 29.1933 42.3749 29.08 43.2016 29.08C43.8149 29.08 44.3349 29.1333 44.7616 29.24C45.2016 29.3467 45.5549 29.46 45.8216 29.58C46.0882 29.7 46.2616 29.7867 46.3416 29.84C46.3416 29.28 46.2816 28.8267 46.1616 28.48C46.0416 28.12 45.8216 27.86 45.5016 27.7C45.1949 27.5267 44.7616 27.44 44.2016 27.44C43.3882 27.44 42.6682 27.52 42.0416 27.68C41.4149 27.84 40.9016 28.0267 40.5016 28.24C40.1149 28.4533 39.8482 28.6333 39.7016 28.78V28.18L39.5016 26.22C39.5949 26.1667 39.8416 26.08 40.2416 25.96C40.6416 25.84 41.1882 25.7267 41.8816 25.62C42.5749 25.5 43.4016 25.44 44.3616 25.44C45.6816 25.44 46.6882 25.6333 47.3816 26.02C48.0749 26.3933 48.5482 26.9333 48.8016 27.64C49.0682 28.3467 49.2016 29.2 49.2016 30.2V33.8C49.2016 34.1733 49.2416 34.4467 49.3216 34.62C49.4149 34.78 49.5082 34.9067 49.6016 35H46.3616V34.58L46.4016 34.2L46.3616 34.16C46.2549 34.28 46.1016 34.4 45.9016 34.52C45.7016 34.64 45.4549 34.7533 45.1616 34.86C44.8682 34.9533 44.5282 35.0333 44.1416 35.1C43.7549 35.1667 43.3216 35.2 42.8416 35.2ZM43.7816 33.18C44.3416 33.18 44.8082 33.14 45.1816 33.06C45.5682 32.9667 45.8616 32.8467 46.0616 32.7C46.2616 32.54 46.3616 32.3533 46.3616 32.14C46.3616 31.8333 46.1282 31.58 45.6616 31.38C45.2082 31.18 44.5882 31.08 43.8016 31.08C43.0416 31.08 42.5016 31.1867 42.1816 31.4C41.8749 31.6133 41.7216 31.88 41.7216 32.2C41.7216 32.6 41.9016 32.8667 42.2616 33C42.6216 33.12 43.1282 33.18 43.7816 33.18ZM56.3872 35.2C55.0005 35.2 53.9072 34.9867 53.1072 34.56C52.3205 34.1333 51.7672 33.5533 51.4472 32.82C51.1272 32.0867 50.9672 31.26 50.9672 30.34C50.9672 28.7133 51.4072 27.4933 52.2872 26.68C53.1805 25.8667 54.4805 25.46 56.1872 25.46C57.0805 25.46 57.8939 25.5267 58.6272 25.66C59.3739 25.7933 59.9205 25.92 60.2672 26.04V26.64L60.6672 28.78C60.3739 28.5 59.8405 28.2133 59.0672 27.92C58.3072 27.6133 57.3939 27.46 56.3272 27.46C55.7539 27.46 55.2739 27.5667 54.8872 27.78C54.5139 27.98 54.2339 28.2933 54.0472 28.72C53.8739 29.1467 53.7872 29.6933 53.7872 30.36C53.7872 31.0133 53.8872 31.5467 54.0872 31.96C54.2872 32.3733 54.6139 32.6733 55.0672 32.86C55.5205 33.0467 56.1205 33.14 56.8672 33.14C57.8139 33.14 58.5939 33.02 59.2072 32.78C59.8339 32.5267 60.2539 32.28 60.4672 32.04V32.64L60.6672 34.24C60.4139 34.4533 59.9139 34.6667 59.1672 34.88C58.4339 35.0933 57.5072 35.2 56.3872 35.2ZM62.3409 35C62.4343 35 62.5209 34.9067 62.6009 34.72C62.6943 34.5333 62.7409 34.2267 62.7409 33.8V22.4C62.7409 21.9733 62.6943 21.6733 62.6009 21.5C62.5209 21.3133 62.4343 21.2133 62.3409 21.2H65.5809V28.76C65.5809 29.0533 65.6009 29.2333 65.6409 29.3C65.6809 29.3533 65.8009 29.38 66.0009 29.38C66.3076 29.38 66.6209 29.28 66.9409 29.08C67.2609 28.88 67.5543 28.5933 67.8209 28.22C68.0876 27.8333 68.2743 27.38 68.3809 26.86C68.4743 26.42 68.5143 26.1067 68.5009 25.92C68.4876 25.7333 68.4476 25.64 68.3809 25.64H72.4409C72.3476 25.64 72.2076 25.7333 72.0209 25.92C71.8476 26.0933 71.6476 26.4067 71.4209 26.86C71.1543 27.4067 70.8809 27.9 70.6009 28.34C70.3209 28.7667 70.0276 29.1333 69.7209 29.44C69.4143 29.7333 69.0809 29.9733 68.7209 30.16C69.3476 30.4267 69.8743 30.7667 70.3009 31.18C70.7276 31.58 71.0943 32.0133 71.4009 32.48C71.7209 32.9333 72.0143 33.3733 72.2809 33.8C72.5476 34.2267 72.7809 34.5333 72.9809 34.72C73.1943 34.9067 73.3476 35 73.4409 35H69.4009C69.4809 34.9867 69.5076 34.8733 69.4809 34.66C69.4676 34.4467 69.3343 34.0933 69.0809 33.6C68.8276 33.0933 68.5276 32.6667 68.1809 32.32C67.8476 31.96 67.4876 31.6867 67.1009 31.5C66.7276 31.3133 66.3609 31.22 66.0009 31.22C65.7876 31.22 65.6609 31.2467 65.6209 31.3C65.5943 31.34 65.5809 31.5133 65.5809 31.82V33.8C65.5809 34.2267 65.6209 34.5333 65.7009 34.72C65.7943 34.9067 65.8876 35 65.9809 35H62.3409ZM82.863 35.2C81.943 35.2 81.2763 35.0067 80.863 34.62C80.4496 34.22 80.243 33.5733 80.243 32.68V27.64H78.443V25.64C79.0563 25.64 79.5363 25.5667 79.883 25.42C80.2296 25.26 80.4763 24.9867 80.623 24.6C80.7696 24.2133 80.843 23.6733 80.843 22.98H83.083V25.64H86.503C86.4096 25.9067 86.3163 26.24 86.223 26.64C86.143 27.0267 86.103 27.36 86.103 27.64H83.083V31.58C83.083 32.1933 83.1296 32.6133 83.223 32.84C83.3163 33.0667 83.5363 33.18 83.883 33.18C84.1096 33.18 84.3563 33.1 84.623 32.94C84.903 32.78 85.1696 32.5867 85.423 32.36C85.6896 32.12 85.9096 31.8933 86.083 31.68V32.3L86.283 34.24C86.123 34.3733 85.883 34.52 85.563 34.68C85.243 34.8267 84.8496 34.9467 84.383 35.04C83.9296 35.1467 83.423 35.2 82.863 35.2ZM92.4553 35.2C91.122 35.2 90.0753 34.9867 89.3153 34.56C88.5686 34.1333 88.042 33.5533 87.7353 32.82C87.442 32.0867 87.2953 31.26 87.2953 30.34C87.2953 29.4067 87.4486 28.5733 87.7553 27.84C88.0753 27.1067 88.6086 26.5267 89.3553 26.1C90.102 25.66 91.1353 25.44 92.4553 25.44C93.7753 25.44 94.8086 25.66 95.5553 26.1C96.302 26.5267 96.8286 27.1067 97.1353 27.84C97.4553 28.5733 97.6153 29.4067 97.6153 30.34C97.6153 31.26 97.462 32.0867 97.1553 32.82C96.862 33.5533 96.342 34.1333 95.5953 34.56C94.8486 34.9867 93.802 35.2 92.4553 35.2ZM92.4553 33.18C93.0153 33.18 93.462 33.1 93.7953 32.94C94.142 32.7667 94.3886 32.4733 94.5353 32.06C94.6953 31.6467 94.7753 31.0733 94.7753 30.34C94.7753 29.6067 94.6953 29.0333 94.5353 28.62C94.3886 28.1933 94.142 27.8933 93.7953 27.72C93.462 27.5333 93.0153 27.44 92.4553 27.44C91.8953 27.44 91.442 27.5333 91.0953 27.72C90.762 27.9067 90.5153 28.2133 90.3553 28.64C90.2086 29.0667 90.1353 29.64 90.1353 30.36C90.1353 31.0667 90.2086 31.6267 90.3553 32.04C90.5153 32.4533 90.762 32.7467 91.0953 32.92C91.442 33.0933 91.8953 33.18 92.4553 33.18ZM108.723 39.88C107.95 39.88 107.237 39.8267 106.583 39.72C105.943 39.6133 105.383 39.48 104.903 39.32C104.437 39.1733 104.077 39.0267 103.823 38.88L104.223 35.88V35.3C104.41 35.66 104.703 36.04 105.103 36.44C105.503 36.84 106.003 37.18 106.603 37.46C107.203 37.74 107.883 37.88 108.643 37.88C109.137 37.88 109.55 37.7733 109.883 37.56C110.217 37.36 110.47 37.0467 110.643 36.62C110.817 36.1933 110.903 35.6667 110.903 35.04V34.72L110.943 34.36L110.903 34.32C110.717 34.52 110.463 34.6867 110.143 34.82C109.837 34.94 109.497 35.0333 109.123 35.1C108.763 35.1667 108.403 35.2 108.043 35.2C106.963 35.2 106.097 34.9867 105.443 34.56C104.803 34.1333 104.337 33.5533 104.043 32.82C103.763 32.0867 103.623 31.26 103.623 30.34C103.623 29.4067 103.763 28.5733 104.043 27.84C104.323 27.1067 104.783 26.5267 105.423 26.1C106.077 25.66 106.95 25.44 108.043 25.44C108.417 25.44 108.783 25.4667 109.143 25.52C109.503 25.5733 109.837 25.6533 110.143 25.76C110.45 25.8533 110.703 25.9867 110.903 26.16L110.943 26.14L110.903 25.76V25.64H114.143C114.05 25.6533 113.957 25.7533 113.863 25.94C113.783 26.1267 113.743 26.44 113.743 26.88V34.54C113.743 36.4733 113.33 37.8467 112.503 38.66C111.69 39.4733 110.43 39.88 108.723 39.88ZM108.583 33.18C109.05 33.18 109.457 33.1 109.803 32.94C110.15 32.78 110.417 32.4933 110.603 32.08C110.803 31.6667 110.903 31.0867 110.903 30.34C110.903 29.6067 110.803 29.0333 110.603 28.62C110.417 28.1933 110.15 27.8933 109.803 27.72C109.457 27.5333 109.05 27.44 108.583 27.44C108.143 27.44 107.763 27.5333 107.443 27.72C107.123 27.9067 106.877 28.2133 106.703 28.64C106.53 29.0667 106.443 29.64 106.443 30.36C106.443 31.0667 106.523 31.6267 106.683 32.04C106.857 32.4533 107.103 32.7467 107.423 32.92C107.743 33.0933 108.13 33.18 108.583 33.18ZM119.892 35.2C118.692 35.2 117.732 34.9667 117.012 34.5C116.306 34.02 115.952 33.2533 115.952 32.2C115.952 31.4667 116.139 30.8733 116.512 30.42C116.886 29.9667 117.392 29.6333 118.032 29.42C118.686 29.1933 119.426 29.08 120.252 29.08C120.866 29.08 121.386 29.1333 121.812 29.24C122.252 29.3467 122.606 29.46 122.872 29.58C123.139 29.7 123.312 29.7867 123.392 29.84C123.392 29.28 123.332 28.8267 123.212 28.48C123.092 28.12 122.872 27.86 122.552 27.7C122.246 27.5267 121.812 27.44 121.252 27.44C120.439 27.44 119.719 27.52 119.092 27.68C118.466 27.84 117.952 28.0267 117.552 28.24C117.166 28.4533 116.899 28.6333 116.752 28.78V28.18L116.552 26.22C116.646 26.1667 116.892 26.08 117.292 25.96C117.692 25.84 118.239 25.7267 118.932 25.62C119.626 25.5 120.452 25.44 121.412 25.44C122.732 25.44 123.739 25.6333 124.432 26.02C125.126 26.3933 125.599 26.9333 125.852 27.64C126.119 28.3467 126.252 29.2 126.252 30.2V33.8C126.252 34.1733 126.292 34.4467 126.372 34.62C126.466 34.78 126.559 34.9067 126.652 35H123.412V34.58L123.452 34.2L123.412 34.16C123.306 34.28 123.152 34.4 122.952 34.52C122.752 34.64 122.506 34.7533 122.212 34.86C121.919 34.9533 121.579 35.0333 121.192 35.1C120.806 35.1667 120.372 35.2 119.892 35.2ZM120.832 33.18C121.392 33.18 121.859 33.14 122.232 33.06C122.619 32.9667 122.912 32.8467 123.112 32.7C123.312 32.54 123.412 32.3533 123.412 32.14C123.412 31.8333 123.179 31.58 122.712 31.38C122.259 31.18 121.639 31.08 120.852 31.08C120.092 31.08 119.552 31.1867 119.232 31.4C118.926 31.6133 118.772 31.88 118.772 32.2C118.772 32.6 118.952 32.8667 119.312 33C119.672 33.12 120.179 33.18 120.832 33.18ZM128.298 35C128.391 35 128.478 34.9067 128.558 34.72C128.651 34.5333 128.698 34.2267 128.698 33.8V27.04C128.698 26.6133 128.651 26.3133 128.558 26.14C128.478 25.9533 128.391 25.8533 128.298 25.84C128.885 25.84 129.485 25.8 130.098 25.72C130.711 25.6267 131.191 25.5333 131.538 25.44V26.66L131.498 26.92L131.538 26.96C131.578 26.8667 131.705 26.7 131.918 26.46C132.131 26.22 132.438 25.9933 132.838 25.78C133.238 25.5533 133.731 25.44 134.318 25.44C135.558 25.44 136.505 25.7933 137.158 26.5C137.825 27.2067 138.158 28.3133 138.158 29.82V33.8C138.158 34.2267 138.198 34.5333 138.278 34.72C138.371 34.9067 138.465 35 138.558 35H134.918C135.011 35 135.098 34.9067 135.178 34.72C135.271 34.5333 135.318 34.2267 135.318 33.8V29.88C135.318 29.2533 135.251 28.7667 135.118 28.42C134.985 28.06 134.798 27.8067 134.558 27.66C134.331 27.5133 134.065 27.44 133.758 27.44C133.385 27.44 133.025 27.5333 132.678 27.72C132.345 27.8933 132.071 28.1733 131.858 28.56C131.645 28.9333 131.538 29.4333 131.538 30.06V33.8C131.538 34.2267 131.578 34.5333 131.658 34.72C131.751 34.9067 131.845 35 131.938 35H128.298ZM141.518 35C141.611 34.9867 141.698 34.8867 141.778 34.7C141.871 34.5133 141.918 34.2133 141.918 33.8V30.06C141.918 29.5267 141.865 29.0667 141.758 28.68C141.665 28.28 141.505 27.9733 141.278 27.76C141.051 27.5467 140.745 27.44 140.358 27.44C139.705 27.44 139.171 27.6733 138.758 28.14C138.358 28.6067 138.158 29.3133 138.158 30.26H136.698C136.698 29.62 136.798 29.0133 136.998 28.44C137.198 27.8533 137.485 27.34 137.858 26.9C138.231 26.4467 138.678 26.0933 139.198 25.84C139.718 25.5733 140.291 25.44 140.918 25.44C141.718 25.44 142.405 25.5867 142.978 25.88C143.551 26.16 143.991 26.6333 144.298 27.3C144.605 27.9667 144.758 28.8733 144.758 30.02V33.8C144.758 34.2133 144.798 34.5133 144.878 34.7C144.971 34.8867 145.065 34.9867 145.158 35H141.518ZM151.954 35.2C150.901 35.2 150.021 35.0933 149.314 34.88C148.621 34.6533 148.067 34.3333 147.654 33.92C147.241 33.4933 146.947 32.98 146.774 32.38C146.601 31.78 146.514 31.1 146.514 30.34C146.514 28.8333 146.934 27.64 147.774 26.76C148.614 25.88 149.901 25.44 151.634 25.44C152.647 25.44 153.467 25.58 154.094 25.86C154.734 26.14 155.221 26.5133 155.554 26.98C155.887 27.4467 156.114 27.9667 156.234 28.54C156.367 29.1 156.434 29.6667 156.434 30.24V31.18C156.434 31.14 156.247 31.1 155.874 31.06C155.514 31.0067 154.901 30.98 154.034 30.98H149.394C149.394 31.7133 149.614 32.2667 150.054 32.64C150.507 33 151.241 33.18 152.254 33.18C153.107 33.18 153.867 33.08 154.534 32.88C155.214 32.6667 155.707 32.4667 156.014 32.28V32.88L156.214 34.4C155.961 34.5733 155.474 34.7533 154.754 34.94C154.034 35.1133 153.101 35.2 151.954 35.2ZM150.134 29.26H153.594C153.594 28.9667 153.527 28.68 153.394 28.4C153.274 28.12 153.074 27.8933 152.794 27.72C152.514 27.5333 152.127 27.44 151.634 27.44C151.141 27.44 150.741 27.5133 150.434 27.66C150.141 27.8067 149.921 27.9867 149.774 28.2C149.641 28.4133 149.574 28.6333 149.574 28.86C149.574 28.9933 149.614 29.0933 149.694 29.16C149.774 29.2267 149.921 29.26 150.134 29.26Z" fill="white"/>
</svg>
