<svg width="32" height="32" viewBox="0 0 32 32" fill="none" xmlns="http://www.w3.org/2000/svg">
<mask id="mask0_2290_4591" style="mask-type:alpha" maskUnits="userSpaceOnUse" x="0" y="0" width="32" height="32">
<rect width="32" height="32" fill="#1AE5BE"/>
</mask>
<g mask="url(#mask0_2290_4591)">
<path d="M8.00016 29.3334C7.26683 29.3334 6.63905 29.0722 6.11683 28.55C5.59461 28.0278 5.3335 27.4 5.3335 26.6667V24.0334C5.3335 23.5889 5.4335 23.1778 5.6335 22.8C5.8335 22.4222 6.10016 22.1 6.4335 21.8334C7.96683 20.5889 9.11683 19.3334 9.8835 18.0667C10.6502 16.8 11.1891 15.6667 11.5002 14.6667H9.3335C8.95572 14.6667 8.63905 14.5389 8.3835 14.2834C8.12794 14.0278 8.00016 13.7111 8.00016 13.3334C8.00016 12.9556 8.12794 12.6389 8.3835 12.3834C8.63905 12.1278 8.95572 12 9.3335 12H11.0002C10.6891 11.5111 10.4446 10.9889 10.2668 10.4334C10.0891 9.8778 10.0002 9.28891 10.0002 8.66669C10.0002 7.00002 10.5835 5.58335 11.7502 4.41669C12.9168 3.25002 14.3335 2.66669 16.0002 2.66669C17.6668 2.66669 19.0835 3.25002 20.2502 4.41669C21.4168 5.58335 22.0002 7.00002 22.0002 8.66669C22.0002 9.28891 21.9113 9.8778 21.7335 10.4334C21.5557 10.9889 21.3113 11.5111 21.0002 12H22.6668C23.0446 12 23.3613 12.1278 23.6168 12.3834C23.8724 12.6389 24.0002 12.9556 24.0002 13.3334C24.0002 13.7111 23.8724 14.0278 23.6168 14.2834C23.3613 14.5389 23.0446 14.6667 22.6668 14.6667H20.5002C20.8113 15.6667 21.3502 16.8 22.1168 18.0667C22.8835 19.3334 24.0335 20.5889 25.5668 21.8334C25.9002 22.1 26.1668 22.4222 26.3668 22.8C26.5668 23.1778 26.6668 23.5889 26.6668 24.0334V26.6667C26.6668 27.4 26.4057 28.0278 25.8835 28.55C25.3613 29.0722 24.7335 29.3334 24.0002 29.3334H8.00016ZM8.00016 26.6667H24.0002V24C21.9557 22.4 20.4779 20.75 19.5668 19.05C18.6557 17.35 18.0446 15.8889 17.7335 14.6667H14.2668C13.9557 15.8889 13.3446 17.35 12.4335 19.05C11.5224 20.75 10.0446 22.4 8.00016 24V26.6667ZM16.0002 12C16.9335 12 17.7224 11.6778 18.3668 11.0334C19.0113 10.3889 19.3335 9.60002 19.3335 8.66669C19.3335 7.73335 19.0113 6.94446 18.3668 6.30002C17.7224 5.65558 16.9335 5.33335 16.0002 5.33335C15.0668 5.33335 14.2779 5.65558 13.6335 6.30002C12.9891 6.94446 12.6668 7.73335 12.6668 8.66669C12.6668 9.60002 12.9891 10.3889 13.6335 11.0334C14.2779 11.6778 15.0668 12 16.0002 12Z" fill="#1AE5BE"/>
</g>
</svg>
