<svg width="24" height="24" viewBox="0 0 24 24" fill="none" xmlns="http://www.w3.org/2000/svg">
<mask id="mask0_2714_2769" style="mask-type:alpha" maskUnits="userSpaceOnUse" x="0" y="0" width="24" height="24">
<rect width="24" height="24" fill="#D9D9D9"/>
</mask>
<g mask="url(#mask0_2714_2769)">
<path d="M12 22C9.2381 22 6.88095 21.0238 4.92857 19.0714C2.97619 17.119 2 14.7619 2 12C2 9.2381 2.97619 6.88095 4.92857 4.92857C6.88095 2.97619 9.2381 2 12 2C14.7619 2 17.119 2.97619 19.0714 4.92857C21.0238 6.88095 22 9.2381 22 12C22 14.7619 21.0238 17.119 19.0714 19.0714C17.119 21.0238 14.7619 22 12 22ZM12 19.1429C13.9762 19.1429 15.6607 18.4464 17.0536 17.0536C18.4464 15.6607 19.1429 13.9762 19.1429 12C19.1429 10.0238 18.4464 8.33929 17.0536 6.94643C15.6607 5.55357 13.9762 4.85714 12 4.85714C10.0238 4.85714 8.33929 5.55357 6.94643 6.94643C5.55357 8.33929 4.85714 10.0238 4.85714 12C4.85714 13.9762 5.55357 15.6607 6.94643 17.0536C8.33929 18.4464 10.0238 19.1429 12 19.1429Z" fill="#303131"/>
</g>
</svg>
