<svg width="10" height="8" viewBox="0 0 10 8" fill="none" xmlns="http://www.w3.org/2000/svg">
<path d="M1.02564 8C0.74359 8 0.502137 7.90208 0.301282 7.70625C0.100427 7.51042 0 7.275 0 7V1C0 0.725 0.100427 0.489583 0.301282 0.29375C0.502137 0.0979167 0.74359 0 1.02564 0H6.66667C6.82906 0 6.98291 0.0354167 7.12821 0.10625C7.27351 0.177083 7.39316 0.275 7.48718 0.4L9.79487 3.4C9.93162 3.575 10 3.775 10 4C10 4.225 9.93162 4.425 9.79487 4.6L7.48718 7.6C7.39316 7.725 7.27351 7.82292 7.12821 7.89375C6.98291 7.96458 6.82906 8 6.66667 8H1.02564Z" fill="#2BB1FF"/>
</svg>
