<svg width="126" height="53" viewBox="0 0 126 53" fill="none" xmlns="http://www.w3.org/2000/svg">
<rect width="126" height="53" fill="#F0EA6E"/>
<mask id="mask0_2714_438" style="mask-type:alpha" maskUnits="userSpaceOnUse" x="20" y="14" width="24" height="25">
<rect x="20" y="14.5" width="24" height="24" fill="#D9D9D9"/>
</mask>
<g mask="url(#mask0_2714_438)">
<path d="M30.275 30.5L35.85 26.925C36 26.825 36.075 26.6833 36.075 26.5C36.075 26.3167 36 26.175 35.85 26.075L30.275 22.5C30.1083 22.3833 29.9375 22.375 29.7625 22.475C29.5875 22.575 29.5 22.725 29.5 22.925V30.075C29.5 30.275 29.5875 30.425 29.7625 30.525C29.9375 30.625 30.1083 30.6167 30.275 30.5ZM24 34.5C23.45 34.5 22.9792 34.3042 22.5875 33.9125C22.1958 33.5208 22 33.05 22 32.5V20.5C22 19.95 22.1958 19.4792 22.5875 19.0875C22.9792 18.6958 23.45 18.5 24 18.5H40C40.55 18.5 41.0208 18.6958 41.4125 19.0875C41.8042 19.4792 42 19.95 42 20.5V32.5C42 33.05 41.8042 33.5208 41.4125 33.9125C41.0208 34.3042 40.55 34.5 40 34.5H24ZM24 32.5H40V20.5H24V32.5Z" fill="#303131"/>
</g>
<path d="M59.48 33.2C58.0267 33.2 56.74 33.1333 55.62 33C54.5 32.8667 53.6933 32.7333 53.2 32.6V32L52.8 29.46C53.0533 29.6733 53.4733 29.9 54.06 30.14C54.6467 30.38 55.4 30.5867 56.32 30.76C57.24 30.92 58.3067 31 59.52 31C60.2667 31 60.84 30.9533 61.24 30.86C61.64 30.7533 61.9133 30.6067 62.06 30.42C62.2067 30.2333 62.28 30.0133 62.28 29.76C62.28 29.44 62.1733 29.1933 61.96 29.02C61.7467 28.8333 61.36 28.68 60.8 28.56C60.2533 28.44 59.4733 28.3133 58.46 28.18C57.2467 28.02 56.2333 27.8 55.42 27.52C54.6067 27.24 54 26.8467 53.6 26.34C53.2 25.82 53 25.1333 53 24.28C53 23.5867 53.18 22.98 53.54 22.46C53.9 21.94 54.48 21.5333 55.28 21.24C56.08 20.9467 57.14 20.8 58.46 20.8C59.8467 20.8 61.0333 20.8667 62.02 21C63.0067 21.1333 63.6867 21.2667 64.06 21.4V22L64.66 24.2C64.3267 24.0267 63.8467 23.8467 63.22 23.66C62.5933 23.4733 61.8667 23.32 61.04 23.2C60.2133 23.0667 59.32 23 58.36 23C57.76 23 57.2933 23.0533 56.96 23.16C56.6267 23.2533 56.3867 23.3933 56.24 23.58C56.1067 23.7533 56.04 23.9733 56.04 24.24C56.04 24.56 56.16 24.82 56.4 25.02C56.6533 25.2067 57.06 25.36 57.62 25.48C58.18 25.6 58.9333 25.7133 59.88 25.82C61.3333 25.98 62.4533 26.22 63.24 26.54C64.0267 26.86 64.5667 27.2733 64.86 27.78C65.1667 28.2733 65.32 28.8733 65.32 29.58C65.32 30.1933 65.2067 30.7333 64.98 31.2C64.7533 31.6533 64.4 32.0267 63.92 32.32C63.4533 32.6133 62.8467 32.8333 62.1 32.98C61.3667 33.1267 60.4933 33.2 59.48 33.2ZM70.9411 33.2C70.0211 33.2 69.3544 33.0067 68.9411 32.62C68.5278 32.22 68.3211 31.5733 68.3211 30.68V25.64H66.5211V23.64C67.1344 23.64 67.6144 23.5667 67.9611 23.42C68.3078 23.26 68.5544 22.9867 68.7011 22.6C68.8478 22.2133 68.9211 21.6733 68.9211 20.98H71.1611V23.64H74.5811C74.4878 23.9067 74.3944 24.24 74.3011 24.64C74.2211 25.0267 74.1811 25.36 74.1811 25.64H71.1611V29.58C71.1611 30.1933 71.2078 30.6133 71.3011 30.84C71.3944 31.0667 71.6144 31.18 71.9611 31.18C72.1878 31.18 72.4344 31.1 72.7011 30.94C72.9811 30.78 73.2478 30.5867 73.5011 30.36C73.7678 30.12 73.9878 29.8933 74.1611 29.68V30.3L74.3611 32.24C74.2011 32.3733 73.9611 32.52 73.6411 32.68C73.3211 32.8267 72.9278 32.9467 72.4611 33.04C72.0078 33.1467 71.5011 33.2 70.9411 33.2ZM79.5134 33.2C78.3134 33.2 77.3534 32.9667 76.6334 32.5C75.9268 32.02 75.5734 31.2533 75.5734 30.2C75.5734 29.4667 75.7601 28.8733 76.1334 28.42C76.5068 27.9667 77.0134 27.6333 77.6534 27.42C78.3068 27.1933 79.0468 27.08 79.8734 27.08C80.4868 27.08 81.0068 27.1333 81.4334 27.24C81.8734 27.3467 82.2268 27.46 82.4934 27.58C82.7601 27.7 82.9334 27.7867 83.0134 27.84C83.0134 27.28 82.9534 26.8267 82.8334 26.48C82.7134 26.12 82.4934 25.86 82.1734 25.7C81.8668 25.5267 81.4334 25.44 80.8734 25.44C80.0601 25.44 79.3401 25.52 78.7134 25.68C78.0868 25.84 77.5734 26.0267 77.1734 26.24C76.7868 26.4533 76.5201 26.6333 76.3734 26.78V26.18L76.1734 24.22C76.2668 24.1667 76.5134 24.08 76.9134 23.96C77.3134 23.84 77.8601 23.7267 78.5534 23.62C79.2468 23.5 80.0734 23.44 81.0334 23.44C82.3534 23.44 83.3601 23.6333 84.0534 24.02C84.7468 24.3933 85.2201 24.9333 85.4734 25.64C85.7401 26.3467 85.8734 27.2 85.8734 28.2V31.8C85.8734 32.1733 85.9134 32.4467 85.9934 32.62C86.0868 32.78 86.1801 32.9067 86.2734 33H83.0334V32.58L83.0734 32.2L83.0334 32.16C82.9268 32.28 82.7734 32.4 82.5734 32.52C82.3734 32.64 82.1268 32.7533 81.8334 32.86C81.5401 32.9533 81.2001 33.0333 80.8134 33.1C80.4268 33.1667 79.9934 33.2 79.5134 33.2ZM80.4534 31.18C81.0134 31.18 81.4801 31.14 81.8534 31.06C82.2401 30.9667 82.5334 30.8467 82.7334 30.7C82.9334 30.54 83.0334 30.3533 83.0334 30.14C83.0334 29.8333 82.8001 29.58 82.3334 29.38C81.8801 29.18 81.2601 29.08 80.4734 29.08C79.7134 29.08 79.1734 29.1867 78.8534 29.4C78.5468 29.6133 78.3934 29.88 78.3934 30.2C78.3934 30.6 78.5734 30.8667 78.9334 31C79.2934 31.12 79.8001 31.18 80.4534 31.18ZM87.9191 33C88.0124 33 88.0991 32.9067 88.1791 32.72C88.2724 32.5333 88.3191 32.2267 88.3191 31.8V25.04C88.3191 24.6133 88.2724 24.3133 88.1791 24.14C88.0991 23.9533 88.0124 23.8533 87.9191 23.84C88.5057 23.84 89.1057 23.8 89.7191 23.72C90.3324 23.6267 90.8124 23.5333 91.1591 23.44V24.24L91.1191 24.58L91.1591 24.62C91.2524 24.4733 91.3991 24.3133 91.5991 24.14C91.8124 23.9533 92.0791 23.7933 92.3991 23.66C92.7324 23.5133 93.1191 23.44 93.5591 23.44C94.2124 23.44 94.7924 23.5333 95.2991 23.72C95.8057 23.8933 96.1657 24.0733 96.3791 24.26L95.7791 26.94V27.54C95.5791 27.26 95.3057 26.9733 94.9591 26.68C94.6257 26.3867 94.2524 26.14 93.8391 25.94C93.4391 25.74 93.0257 25.64 92.5991 25.64C92.1191 25.64 91.7591 25.8133 91.5191 26.16C91.2791 26.5067 91.1591 27.0533 91.1591 27.8V31.8C91.1591 32.2267 91.1991 32.5333 91.2791 32.72C91.3724 32.9067 91.4657 33 91.5591 33H87.9191ZM101.605 33.2C100.685 33.2 100.018 33.0067 99.6052 32.62C99.1918 32.22 98.9852 31.5733 98.9852 30.68V25.64H97.1852V23.64C97.7985 23.64 98.2785 23.5667 98.6252 23.42C98.9718 23.26 99.2185 22.9867 99.3652 22.6C99.5118 22.2133 99.5852 21.6733 99.5852 20.98H101.825V23.64H105.245C105.152 23.9067 105.058 24.24 104.965 24.64C104.885 25.0267 104.845 25.36 104.845 25.64H101.825V29.58C101.825 30.1933 101.872 30.6133 101.965 30.84C102.058 31.0667 102.278 31.18 102.625 31.18C102.852 31.18 103.098 31.1 103.365 30.94C103.645 30.78 103.912 30.5867 104.165 30.36C104.432 30.12 104.652 29.8933 104.825 29.68V30.3L105.025 32.24C104.865 32.3733 104.625 32.52 104.305 32.68C103.985 32.8267 103.592 32.9467 103.125 33.04C102.672 33.1467 102.165 33.2 101.605 33.2Z" fill="#303131"/>
</svg>
