<svg width="176" height="49" viewBox="0 0 176 49" fill="none" xmlns="http://www.w3.org/2000/svg">
<path d="M0.65918 11.4914C0.65918 5.96853 5.13633 1.49138 10.6592 1.49138H163.659C169.182 1.49138 173.659 5.96853 173.659 11.4914V37.4914C173.659 43.0142 169.182 47.4914 163.659 47.4914H10.6592C5.13633 47.4914 0.65918 43.0142 0.65918 37.4914V11.4914Z" fill="#FFF9F2"/>
<path d="M171.171 2.78369C173.352 4.70043 174.855 7.30065 175.079 10.7518C175.079 10.7536 175.079 10.7554 175.079 10.7573C175.092 10.9994 175.098 11.2414 175.095 11.4914C175.093 11.7176 175.091 11.9475 175.088 12.1812C175.049 15.8725 175.004 20.6688 174.977 27.9009C174.964 31.4457 174.937 34.6665 174.901 37.4914C174.854 41.5338 172.7 44.4396 170.875 45.9045C170.243 46.3843 169.62 46.9842 167.688 47.7785C166.717 48.1493 165.414 48.5215 163.659 48.5222C163.168 48.5206 162.639 48.5188 162.069 48.5169C160.785 48.5126 159.291 48.5077 157.541 48.5015C151.751 48.4812 142.677 48.4875 134.315 48.4935C129.24 48.4971 124.427 48.5005 120.771 48.4977C115.424 48.4935 110.265 48.4747 104.656 48.4541C99.5198 48.4353 94.0061 48.4149 87.6265 48.4034C82.7316 48.3945 77.9759 48.3183 73.143 48.2333C72.5279 48.2224 71.9102 48.2115 71.292 48.2005C67.0272 48.1246 62.6675 48.0469 57.9531 48.0024C49.5496 47.923 42.8436 47.9558 35.4187 47.9921C32.5147 48.0063 29.5003 48.0211 26.2312 48.0298C22.1039 48.0409 16.5347 48.0414 10.6592 48.0391C9.09436 48.041 7.50597 47.6857 6.07748 46.9922C5.47378 46.7003 4.8975 46.3499 4.36116 45.9494C4.35845 45.9474 4.35574 45.9454 4.35303 45.9433C1.63661 43.9439 0.0811542 40.6133 0.118443 37.4914C0.119035 34.0983 0.118066 30.9618 0.113768 28.3346C0.100977 20.518 0.0707527 17.577 0.0454675 15.1242C0.0359628 14.2021 0.0270866 13.3485 0.0201982 12.3308C0.0183713 12.0609 0.016704 11.7809 0.0151844 11.4914C-0.253394 7.65371 3.10809 1.86522 8.8126 0.996386C8.83508 0.992455 8.85759 0.988595 8.88012 0.984806C9.864 0.818285 10.6658 0.925333 10.6592 1.02599C10.6512 1.13227 9.86965 1.19592 8.92611 1.35792C5.89088 1.84957 3.30117 3.79709 1.91914 6.07276C1.9217 6.23827 1.60186 6.87544 1.28268 7.66045C1.00252 8.35859 0.546812 9.63847 0.556282 11.4914C0.584646 14.7688 0.637529 19.7283 0.707962 26.1851C0.724199 25.4965 0.74 24.9197 0.755021 24.4144C0.772652 23.8211 0.787813 23.3667 0.800799 22.976C0.827867 22.1615 0.845728 21.6197 0.858845 20.6578C0.873422 18.4799 0.876713 15.0849 0.879698 11.4914C0.879766 11.4103 0.88082 11.3294 0.882855 11.2487C0.90369 10.335 1.14658 9.62829 1.24433 9.6555C1.34708 9.68124 1.27558 10.3987 1.25776 11.2729C1.25737 11.29 1.25703 11.3072 1.25673 11.3243C1.25572 11.3799 1.25518 11.4356 1.25513 11.4914C1.25216 15.0804 1.24895 18.6154 1.23331 20.9051C1.22926 21.4971 1.22447 22.0071 1.22012 22.39C1.21664 22.6961 1.21192 23.0783 1.20584 23.2906C1.20503 23.3188 1.2034 23.3726 1.2009 23.4367C1.20083 23.4378 1.20077 23.4388 1.20071 23.4399C1.19933 23.4758 1.19233 23.6588 1.17709 23.8541C1.17401 23.8935 1.16714 23.9793 1.15603 24.0788C1.15518 24.1045 1.15432 24.1302 1.15347 24.1559C1.14161 24.514 1.12952 24.8794 1.11776 25.2748C1.07187 26.8189 1.01403 29.2647 0.952781 34.3579C0.94169 35.2803 0.931803 36.328 0.923073 37.4914C0.651114 41.2593 4.12998 47.2629 10.6592 47.2784C11.8405 47.2793 13.0555 47.2798 14.3018 47.2798C13.6343 47.272 12.9652 47.2645 12.2967 47.2573C11.7516 47.2514 11.2057 47.2457 10.6592 47.2401C9.54554 47.229 8.43735 47.0285 7.3947 46.6448C6.80425 46.4276 6.24301 46.1569 5.70345 45.8289C4.83483 45.3008 4.04899 44.6342 3.38594 43.864C2.93773 43.3438 2.54439 42.7752 2.21658 42.1728C2.21583 42.1714 2.21507 42.1701 2.21432 42.1687C1.75955 41.3325 1.42913 40.4278 1.23985 39.487C1.17386 39.1583 1.1258 38.8302 1.09454 38.5017C1.0627 38.1665 1.04834 37.8308 1.05156 37.4914C1.0609 36.4785 1.07167 35.4467 1.08847 34.3034C1.09221 34.1161 1.09706 33.9126 1.1011 33.7608C1.10536 33.5975 1.10969 33.4405 1.1141 33.292C1.11799 33.161 1.12195 33.0361 1.12564 32.9163C1.12613 32.9003 1.12661 32.8842 1.1271 32.8682C1.13122 32.7341 1.13504 32.606 1.13864 32.4829C1.14224 32.36 1.1457 32.2415 1.14871 32.1249C1.14871 32.1238 1.14871 32.1228 1.14871 32.1217C1.15179 31.9998 1.15411 31.9073 1.15677 31.7781C1.16009 31.616 1.16265 31.4766 1.16519 31.3078C1.16766 31.1444 1.16986 30.9741 1.17178 30.8021C1.1737 30.6301 1.17538 30.4549 1.17691 30.2771C1.17844 30.0992 1.17986 29.9184 1.18112 29.7361C1.18238 29.554 1.18349 29.3694 1.1846 29.1839C1.18571 28.9982 1.18683 28.8105 1.18789 28.622C1.19037 28.1879 1.21117 27.7717 1.24649 27.4661C1.28181 27.1607 1.32852 26.9906 1.37687 26.9926C1.42522 26.9947 1.47168 27.169 1.50651 27.4774C1.54131 27.7859 1.56151 28.2038 1.56327 28.6381C1.56374 28.7563 1.56428 28.8751 1.56474 28.9944C1.56501 29.0653 1.56521 29.1368 1.56547 29.208C1.56617 29.3994 1.56695 29.5929 1.56748 29.7875C1.56801 29.982 1.56836 30.1782 1.56858 30.3767C1.5688 30.5756 1.56887 30.7773 1.56858 30.9819C1.56829 31.1859 1.56767 31.3945 1.56657 31.6064C1.56553 31.8131 1.56371 32.0489 1.56144 32.2597C1.55985 32.4139 1.55712 32.6038 1.55467 32.7622C1.5521 32.9275 1.54923 33.0902 1.54624 33.247C1.54325 33.4042 1.54008 33.5562 1.53709 33.7014C1.53678 33.7169 1.53648 33.7324 1.53617 33.7479C1.53353 33.8762 1.53095 34.0001 1.52866 34.1171C1.52611 34.248 1.52393 34.3719 1.52207 34.4896C1.51998 34.6192 1.51916 34.698 1.51823 34.7946C1.5144 35.6042 1.5135 36.5349 1.51364 37.4914C1.51353 37.9986 1.55619 38.5118 1.63972 39.0086C1.6684 39.1796 1.70148 39.3474 1.73918 39.514C1.9387 40.395 2.27085 41.2439 2.71995 42.0257C3.0461 42.5939 3.43416 43.1276 3.8751 43.6147C4.5237 44.3316 5.2885 44.9474 6.12878 45.4272C6.65075 45.7252 7.19161 45.9673 7.75979 46.1574C8.69035 46.4686 9.6711 46.6271 10.6592 46.6274C11.3009 46.6278 11.9432 46.6284 12.5857 46.6292C14.3049 46.6315 16.0349 46.6354 17.7662 46.642C19.4907 46.6487 21.2824 46.6586 23.0125 46.6737C24.2843 46.685 25.5883 46.7047 26.7947 46.725C27.443 46.7359 28.0779 46.747 28.7035 46.7581C28.7056 46.7582 28.7077 46.7583 28.7099 46.7583C29.2589 46.7681 29.801 46.7777 30.3393 46.7869C31.4933 46.8066 32.6268 46.8242 33.7603 46.8391C34.892 46.8539 36.0189 46.866 37.1541 46.8753C38.2807 46.8845 39.4263 46.8912 40.5606 46.8953C41.7006 46.8994 42.8199 46.9011 43.9961 46.901C45.5425 46.9006 47.0782 46.8972 48.6548 46.8933C50.2199 46.8892 51.7975 46.8841 53.3794 46.879C53.9323 46.8772 54.4863 46.8755 55.041 46.8737C55.0431 46.8737 55.0452 46.8737 55.0474 46.8737C56.0734 46.8703 57.1019 46.8669 58.1313 46.8636C59.7205 46.8586 61.314 46.8538 62.9136 46.8499C64.5129 46.846 66.1219 46.843 67.7393 46.8418C69.3569 46.8408 71.0182 46.8414 72.687 46.8475C74.1758 46.8527 75.6764 46.8598 77.1435 46.8667C77.5309 46.8685 77.9184 46.8704 78.3058 46.8722C80.1441 46.8808 81.9238 46.8876 83.6837 46.8889C85.4424 46.8903 87.1998 46.8864 88.9734 46.8783C90.7415 46.8701 92.532 46.858 94.3369 46.8433C96.1496 46.8285 97.939 46.8115 99.7646 46.7929C101.576 46.7744 103.397 46.7545 105.239 46.7334C106.263 46.7217 107.353 46.711 108.382 46.7019C109.422 46.6927 110.454 46.6846 111.474 46.677C111.888 46.6739 112.3 46.671 112.709 46.668C113.305 46.6637 113.896 46.6595 114.478 46.655C115.46 46.6476 116.417 46.6395 117.348 46.6301C118.278 46.6207 119.181 46.6098 120.053 46.5964C120.956 46.5826 121.7 46.5685 122.59 46.5483C124.757 46.5094 126.1 46.4974 127.592 46.484C127.886 46.4814 128.186 46.4786 128.499 46.4756C130.288 46.4605 132.076 46.4493 133.84 46.4408C135.621 46.4323 137.374 46.4266 139.15 46.4232C140.909 46.4199 142.681 46.4191 144.445 46.4205C146.206 46.4218 147.965 46.4254 149.728 46.4313C151.49 46.4371 153.288 46.4454 155.015 46.4554C156.012 46.4612 157.072 46.469 158.057 46.4769C158.767 46.4826 159.467 46.4886 160.153 46.4944C160.434 46.4969 160.712 46.4993 160.988 46.5016C161.905 46.5094 162.796 46.5166 163.659 46.5222C163.689 46.5224 163.719 46.5225 163.748 46.5224C164.558 46.5202 165.337 46.4105 166.074 46.2081C166.813 46.0054 167.508 45.711 168.157 45.3343C168.826 44.9398 169.346 44.5477 169.935 43.9708C170.316 43.5928 170.656 43.1893 170.957 42.7619C171.408 42.1218 171.772 41.4294 172.041 40.6977C172.31 39.9662 172.479 39.2126 172.549 38.4441C172.572 38.1982 172.585 37.9353 172.586 37.6873C172.587 37.6221 172.587 37.5568 172.586 37.4914C172.575 36.7069 172.565 35.9301 172.554 35.1539C172.542 34.3074 172.529 33.4687 172.515 32.6335C172.502 31.7947 172.488 30.9701 172.473 30.1291C172.447 28.6997 172.434 27.3315 172.426 26.1334C172.418 24.9209 172.414 23.7879 172.41 22.6851C172.409 22.4785 172.408 22.272 172.407 22.0654C172.404 21.1758 172.401 20.3009 172.397 19.439C172.392 18.3768 172.387 17.334 172.38 16.2877C172.374 15.2506 172.366 14.2032 172.357 13.1717C172.352 12.6047 172.347 12.0512 172.341 11.4914C172.336 11.0822 172.304 10.6738 172.238 10.2547C172.096 9.34662 171.81 8.44726 171.33 7.54889C170.854 6.65955 170.192 5.81363 169.387 5.11187C168.584 4.40956 167.639 3.85041 166.634 3.48867C165.68 3.14395 164.666 2.97305 163.659 2.97924C163.593 2.97955 163.526 2.97985 163.46 2.98014C162.211 2.98567 160.969 2.9889 159.734 2.9904C158.501 2.9919 157.228 2.99164 156.037 2.98985C154.107 2.98695 152.186 2.98285 150.262 2.97831C148.349 2.97376 146.429 2.96867 144.513 2.9633C142.601 2.95792 140.687 2.95231 138.776 2.94645C136.864 2.94059 134.952 2.93458 133.043 2.92851C132.621 2.92716 132.199 2.92582 131.776 2.92448C130.29 2.91974 128.803 2.915 127.323 2.91038C127.313 2.91032 127.303 2.91026 127.293 2.91019C125.387 2.90432 123.517 2.8986 121.627 2.89371C120.934 2.89197 120.267 2.89033 119.59 2.88895C118.912 2.88759 118.247 2.88648 117.575 2.88566C116.903 2.88484 116.235 2.88439 115.577 2.88438C114.912 2.88439 114.263 2.88482 113.609 2.88602C113.009 2.88708 112.413 2.88899 111.762 2.89097C111.703 2.89115 111.644 2.89133 111.584 2.89152C110.872 2.8937 110.062 2.89508 109.31 2.89408C107.316 2.89112 105.372 2.88973 103.394 2.88987C101.414 2.89 99.4391 2.89162 97.4475 2.8939C96.6698 2.89478 95.8885 2.89586 95.1069 2.89683C93.891 2.89834 92.6707 2.89986 91.4467 2.90104C89.4327 2.903 87.4145 2.90389 85.3833 2.90269C83.3597 2.90149 81.3232 2.8981 79.2957 2.89225C77.2699 2.88642 75.2265 2.87817 73.2098 2.86771C70.9629 2.85602 68.729 2.8431 66.485 2.82963C64.2447 2.81613 62.0031 2.802 59.7714 2.78751C57.5315 2.773 55.2974 2.7581 53.0626 2.74283C50.8264 2.72756 48.5917 2.71192 46.3554 2.69596C45.017 2.68639 43.679 2.67666 42.3404 2.66684C41.6322 2.67565 40.9532 2.68429 40.3 2.69248C35.4736 2.75299 31.984 2.79664 27.3801 2.8267C26.9392 2.83125 26.5804 2.83773 26.144 2.84556C26.0607 2.84705 25.9724 2.84854 25.8823 2.85013C25.3119 2.86021 24.6568 2.87075 23.7456 2.87742C21.9277 2.89072 19.1413 2.88783 15.5406 2.80015C14.631 2.778 14.0522 2.67801 14.2483 2.57675C14.3861 2.50572 14.8692 2.45294 15.4587 2.43539C14.3695 2.42334 13.2833 2.41074 12.1998 2.39822C11.7674 2.3932 11.3614 2.3699 11.0729 2.33285C10.7845 2.29578 10.637 2.24817 10.6619 2.19991C10.6868 2.15163 10.8831 2.10635 11.2077 2.07338C11.5322 2.04045 11.958 2.02261 12.3925 2.02339C13.545 2.02554 14.6935 2.02772 15.8424 2.02925C16.9922 2.0308 18.1365 2.03171 19.2843 2.03218C20.4317 2.03265 21.5787 2.03259 22.7294 2.03218C23.8755 2.03175 25.0239 2.03105 26.1745 2.02998C27.3323 2.02894 28.4683 2.02748 29.6228 2.02595C30.3145 2.02502 31.0145 2.0241 31.7017 2.02302C31.9578 2.02265 32.2078 2.02215 32.4578 2.02174C32.6622 2.02141 32.8676 2.02114 33.0791 2.02083C35.3036 2.01715 37.5494 2.01303 39.775 2.00856C42.0112 2.00411 44.2452 1.99941 46.479 1.99446C48.7141 1.98951 50.9473 1.98424 53.1814 1.97889C55.4144 1.97354 57.6462 1.96801 59.8821 1.96223C62.1099 1.95644 64.3467 1.95051 66.5781 1.9441C68.3041 1.93915 70.0155 1.93384 71.7297 1.92817C72.4046 1.91849 73.0724 1.90933 73.7316 1.90052C75.6502 1.87487 77.5716 1.84122 79.4643 1.80787C76.0955 1.82445 73.3894 1.85035 70.813 1.87507C70.4676 1.87839 70.1245 1.88171 69.7824 1.88496C66.2904 1.91808 62.9169 1.94612 58.3795 1.93989C45.4748 1.92218 37.9921 1.90926 33.3295 1.88514C28.6678 1.86103 26.6648 1.82528 24.7955 1.75422C22.154 1.65379 17.0558 1.59667 14.4939 1.59454C13.5632 1.59378 12.8121 1.50905 12.8163 1.40539C12.8208 1.30171 13.5791 1.21822 14.5099 1.21898C17.2151 1.22122 22.7318 1.27928 25.8759 1.3988C27.2762 1.45204 28.8865 1.48638 33.4772 1.51013C38.0684 1.53388 45.4821 1.54659 58.4116 1.56433C62.7857 1.57033 66.0322 1.54363 69.487 1.51086C69.8258 1.50765 70.167 1.50428 70.5112 1.50098C70.5134 1.50098 70.5155 1.50098 70.5176 1.50098C73.6912 1.47051 77.1467 1.4373 81.8065 1.4226C92.5468 1.38873 106.994 1.32305 110.424 1.286C111.097 1.27873 111.747 1.27057 112.434 1.26202C115.068 1.22919 118.248 1.18961 125.414 1.16332C126.982 1.15757 128.818 1.15423 130.821 1.1527C133.828 1.10217 136.747 1.05529 139.285 1.02745C141.475 1.00343 143.495 0.95923 145.453 0.91081C146.016 0.896869 146.583 0.882292 147.149 0.867779C148.515 0.832774 149.881 0.797788 151.213 0.77073C152.274 0.749161 153.385 0.723242 154.56 0.695838C157.211 0.633978 160.188 0.564517 163.659 0.520257C165.985 0.483438 168.598 1.24586 170.746 3.05672C173.377 5.25316 174.696 8.50498 174.667 11.4914C174.659 14.9961 174.647 18.2037 174.635 21.1471C174.659 17.3063 174.688 14.3413 174.714 11.8714C174.716 11.7433 174.717 11.6166 174.718 11.4914C174.722 11.1253 174.708 10.7719 174.678 10.4289C174.34 7.07156 172.887 4.815 170.943 3.08301C168.602 1.06074 165.896 0.365034 163.659 0.375626C157.393 0.39072 154.093 0.425876 150.482 0.495332C149.223 0.519545 147.835 0.551803 146.339 0.586521C143.349 0.655909 139.929 0.735244 136.254 0.780618C132.831 0.822875 129.003 0.885258 124.947 0.951277C124.946 0.951277 124.944 0.951277 124.942 0.951277C124.15 0.964177 123.348 0.977216 122.539 0.99028C117.608 1.06993 112.421 1.15003 107.372 1.20049C106.832 1.20589 106.185 1.21333 105.442 1.22191C101.155 1.27146 93.6296 1.35844 84.4393 1.30267C82.4207 1.29041 80.3232 1.26445 77.9296 1.23473C77.2005 1.22568 76.4435 1.21617 75.6532 1.20672C72.2412 1.16591 68.0957 1.12257 62.5759 1.09648C58.0205 1.07496 52.4687 1.06464 46.7038 1.05382C43.8641 1.04849 40.9727 1.04295 38.1231 1.03606C29.5156 1.01522 21.6264 0.982172 13.7522 0.94908C13.7506 0.94908 13.749 0.94908 13.7474 0.94908C12.8171 0.94517 12.0885 0.857865 12.1212 0.75425C12.1542 0.650688 12.9348 0.569824 13.8646 0.573703C21.7434 0.606815 29.6085 0.639914 38.1873 0.660681C40.9936 0.667473 43.8624 0.672949 46.6909 0.678259C52.4839 0.689135 58.1129 0.699563 62.7108 0.72129C68.3245 0.747819 72.5459 0.791991 76.0048 0.833354C76.8378 0.843316 77.6211 0.853057 78.3646 0.862285C80.7318 0.891662 82.6997 0.916218 84.6143 0.927839C93.5128 0.981844 100.754 0.898321 105.057 0.848735C105.82 0.83994 106.491 0.832287 107.062 0.826579C112.012 0.777106 117.12 0.698328 122.046 0.618748C122.846 0.605837 123.641 0.59296 124.43 0.580112C124.432 0.580051 124.434 0.57999 124.435 0.579929C128.49 0.513917 132.387 0.450482 135.873 0.407439C139.412 0.363748 142.498 0.291785 145.385 0.224511C146.934 0.188412 148.426 0.153791 149.899 0.125448C153.746 0.0514512 157.248 0.0153353 163.659 0.000127792C165.984 -0.0111878 168.772 0.719058 171.171 2.78369ZM17.1427 2.45352C19.3815 2.50057 21.2056 2.51049 22.564 2.50735C21.4103 2.49666 20.2594 2.48545 19.1077 2.47384C18.4521 2.46724 17.7974 2.46047 17.1427 2.45352ZM131.096 1.52789C130.733 1.534 130.368 1.54018 130.001 1.54639C131.013 1.54345 132.026 1.54071 133.037 1.53796C134.278 1.53459 135.519 1.53141 136.76 1.52826C134.787 1.52703 132.876 1.52667 131.096 1.52789ZM170.518 3.35515C168.415 1.5805 165.894 0.8621 163.659 0.898218C160.591 0.939587 157.918 1.00177 155.407 1.06023C154.185 1.08869 152.999 1.11622 151.826 1.14006C151.339 1.14995 150.853 1.16088 150.363 1.17247C153.217 1.17836 155.84 1.18454 157.987 1.18969C160.167 1.19491 162.027 1.20206 163.659 1.21032C166.939 1.26398 169.146 2.60491 170.694 4.06939C171.376 4.72821 171.943 5.45087 172.415 6.24967C172.821 6.90111 173.167 7.62676 173.422 8.39476C173.743 9.35366 173.928 10.4363 173.938 11.4914C173.939 11.6138 173.94 11.7357 173.942 11.8569C173.954 12.9982 173.966 14.1581 173.975 15.2972C173.985 16.4458 173.993 17.5838 174 18.7166C174.007 19.7826 174.012 20.8449 174.018 21.8728C174.018 21.9316 174.018 21.9905 174.019 22.0494C174.024 23.1358 174.03 24.1927 174.037 25.1637C174.045 26.1523 174.054 26.9741 174.068 27.7034C174.086 28.6142 174.102 29.5486 174.118 30.4727C174.133 31.3977 174.148 32.3188 174.161 33.2371C174.175 34.1574 174.187 35.0686 174.199 35.9822C174.203 36.2777 174.207 36.5867 174.211 36.8796C174.213 37.0147 174.214 37.1496 174.216 37.2842C174.217 35.4969 174.219 33.6412 174.222 31.7232C174.227 28.9525 174.239 25.9945 174.253 22.7316C174.267 19.3549 174.282 15.6516 174.291 11.4914C174.319 8.6342 173.073 5.49847 170.518 3.35515ZM152.483 48.0817C153.26 48.0807 154.398 48.0777 155.865 48.074C156.212 48.0731 156.578 48.072 156.962 48.071C156.953 48.0709 156.944 48.0709 156.935 48.0709C155.984 48.0613 155.106 48.0529 154.159 48.0452C152.47 48.0315 150.83 48.0198 149.173 48.0097C147.509 47.9996 145.85 47.9913 144.19 47.9848C142.526 47.9782 140.858 47.9735 139.205 47.9707C137.536 47.9679 135.89 47.9668 134.228 47.9681C133.699 47.9685 133.168 47.9692 132.638 47.9701C133.822 47.9796 135.053 47.9874 136.352 47.9956C137.39 48.0021 138.473 48.009 139.611 48.0172C140.047 48.0203 140.574 48.0251 141.189 48.0307C143.627 48.053 147.452 48.088 152.483 48.0817ZM119.384 48.0736C118.998 48.0761 118.615 48.0783 118.236 48.0802C117.157 48.0855 116.106 48.0885 115.075 48.0908C114.351 48.0924 113.635 48.0936 112.93 48.0948C112.633 48.0954 112.335 48.0959 112.041 48.0965C111.548 48.0974 111.058 48.0985 110.572 48.0996C113.981 48.1109 117.314 48.1196 120.787 48.1223C120.833 48.1223 120.879 48.1223 120.925 48.1223C120.399 48.1057 119.886 48.0895 119.384 48.0736Z" fill="#F3832D"/>
<mask id="mask0_2247_7696" style="mask-type:alpha" maskUnits="userSpaceOnUse" x="20" y="13" width="23" height="23">
<rect x="20.6592" y="13.4914" width="22" height="22" fill="#D9D9D9"/>
</mask>
<g mask="url(#mask0_2247_7696)">
<path d="M39.13 25.408H28.9092C28.6495 25.408 28.4317 25.3202 28.2561 25.1445C28.0804 24.9688 27.9925 24.7511 27.9925 24.4914C27.9925 24.2317 28.0804 24.0139 28.2561 23.8383C28.4317 23.6626 28.6495 23.5747 28.9092 23.5747H39.13L38.3508 22.7955C38.1675 22.6122 38.0797 22.3983 38.0873 22.1539C38.0949 21.9094 38.1828 21.6955 38.3508 21.5122C38.5342 21.3289 38.7519 21.2334 39.004 21.2258C39.2561 21.2181 39.4738 21.306 39.6571 21.4893L42.0175 23.8497C42.2008 24.033 42.2925 24.2469 42.2925 24.4914C42.2925 24.7358 42.2008 24.9497 42.0175 25.133L39.6571 27.4935C39.4738 27.6768 39.2561 27.7646 39.004 27.757C38.7519 27.7494 38.5342 27.6539 38.3508 27.4705C38.1828 27.2872 38.0949 27.0733 38.0873 26.8289C38.0797 26.5844 38.1675 26.3705 38.3508 26.1872L39.13 25.408ZM34.4092 20.8247V18.0747H25.2425V30.908H34.4092V28.158C34.4092 27.8983 34.497 27.6806 34.6727 27.5049C34.8484 27.3292 35.0661 27.2414 35.3258 27.2414C35.5856 27.2414 35.8033 27.3292 35.979 27.5049C36.1547 27.6806 36.2425 27.8983 36.2425 28.158V30.908C36.2425 31.4122 36.063 31.8438 35.704 32.2028C35.3449 32.5619 34.9133 32.7414 34.4092 32.7414H25.2425C24.7383 32.7414 24.3067 32.5619 23.9477 32.2028C23.5887 31.8438 23.4092 31.4122 23.4092 30.908V18.0747C23.4092 17.5705 23.5887 17.1389 23.9477 16.7799C24.3067 16.4209 24.7383 16.2414 25.2425 16.2414H34.4092C34.9133 16.2414 35.3449 16.4209 35.704 16.7799C36.063 17.1389 36.2425 17.5705 36.2425 18.0747V20.8247C36.2425 21.0844 36.1547 21.3021 35.979 21.4778C35.8033 21.6535 35.5856 21.7414 35.3258 21.7414C35.0661 21.7414 34.8484 21.6535 34.6727 21.4778C34.497 21.3021 34.4092 21.0844 34.4092 20.8247Z" fill="#F3832D"/>
<path d="M39.1281 25.8462C38.867 25.8994 38.6062 25.9222 38.3377 25.899C38.2765 25.8938 38.2822 25.8526 38.2571 25.846C38.2108 25.8337 38.1332 25.8781 38.1223 25.8781C38.0548 25.8786 38.0812 25.8066 38.0721 25.8038C37.9708 25.7746 38 25.8566 37.9031 25.8645C37.777 25.8748 37.6152 25.8601 37.4632 25.8561C37.4098 25.8545 37.4336 25.7997 37.3184 25.8043C37.2368 25.8075 36.9865 25.87 36.8712 25.8032C36.8706 25.778 36.8851 25.7502 36.8912 25.7242C36.726 25.8292 36.6669 25.8246 36.4327 25.799C36.3956 25.795 36.3605 25.8381 36.2952 25.8222C36.23 25.8063 36.2272 25.7397 36.096 25.7406C36.0495 25.741 36.0212 25.7879 35.9499 25.7899C35.7469 25.7958 35.3603 25.7375 35.1937 25.7355C34.8657 25.7315 34.6872 25.8115 34.3958 25.7837C34.3734 25.7817 34.4227 25.7303 34.3815 25.7293C34.34 25.7283 34.2969 25.7964 34.2867 25.798C34.1765 25.8155 33.9438 25.7243 33.8825 25.7353C33.7336 25.7623 33.8803 25.7923 33.674 25.8053C33.4775 25.8175 33.2061 25.7288 33.0113 25.7115C32.7856 25.6913 32.7128 25.8202 32.5428 25.6857C31.9459 25.6935 31.3465 25.6984 30.7488 25.7052C30.7505 25.6784 30.7525 25.6516 30.7545 25.6248C30.7073 25.6433 30.66 25.6619 30.6127 25.6802C30.6199 25.6603 30.6267 25.6403 30.6338 25.6206C30.4118 25.6976 30.214 25.7373 29.9546 25.7161C29.9496 25.7157 29.9629 25.6623 29.9587 25.6609C29.9002 25.6508 29.8349 25.6919 29.7835 25.6823C29.6594 25.6591 29.4487 25.5425 29.5415 25.6851C29.3422 25.6648 29.1189 25.6813 28.9092 25.6846C28.7918 25.6863 28.6723 25.6694 28.5668 25.6305C28.4188 25.573 28.4176 25.4707 28.3613 25.4349C28.3054 25.3959 28.2966 25.4749 28.2735 25.4637C28.2103 25.4316 28.1361 25.3762 28.0849 25.3156C28.0227 25.2435 27.9914 25.164 28.0198 25.1276C27.9765 25.1229 27.9311 25.1139 27.8864 25.1026C27.953 25.0797 27.7558 24.6594 27.7809 24.5344C27.7807 24.5127 27.8202 24.5094 27.8197 24.4938C27.8197 24.493 27.8197 24.4922 27.8197 24.4914C27.8188 24.3197 27.7652 24.2643 27.7944 24.097C27.8083 24.0391 27.8384 24.1465 27.8681 23.9992C27.8735 23.9876 27.8029 23.9622 27.9052 23.8037C27.9419 23.7503 27.9896 23.6892 28.0473 23.6295C28.2362 23.4073 28.6519 23.2486 28.9092 23.2864C28.916 23.2871 28.9227 23.2878 28.9293 23.2886C28.9511 23.291 28.8848 23.3592 28.9843 23.3433C29.0204 23.3376 29.0031 23.2892 29.0905 23.2888C29.4291 23.2868 29.7902 23.3425 30.1356 23.2963C30.123 23.3509 30 23.4122 30.1849 23.378C30.2145 23.3723 30.1924 23.3235 30.2057 23.3217C30.3131 23.3076 30.4062 23.3424 30.5225 23.3237C30.5568 23.318 30.5653 23.2797 30.6082 23.2706C30.6714 23.2571 30.6994 23.3118 30.7728 23.2886C30.8877 23.2521 30.9054 23.2003 31.0478 23.3019C31.8549 23.2954 32.6583 23.2668 33.4627 23.3116C33.6952 23.2826 33.9098 23.2501 34.1522 23.239C34.2236 23.2358 34.2372 23.3052 34.3511 23.2822C34.3766 23.2771 34.5585 23.2027 34.585 23.3429C34.6357 23.3308 34.6677 23.3304 34.7112 23.3229C34.6782 23.3023 34.6442 23.2815 34.6126 23.2608C34.7962 23.2831 34.9461 23.2337 35.1086 23.2103C35.2282 23.1932 35.1433 23.2533 35.2167 23.2473C35.2901 23.2414 35.3235 23.2279 35.4153 23.2999C35.4874 23.2168 35.5353 23.2751 35.6682 23.2773C35.6825 23.2775 35.765 23.2453 35.834 23.2517C35.8837 23.2564 35.8984 23.3082 35.9772 23.3001C35.9901 23.2989 36.1567 23.2348 36.2098 23.2289C36.2924 23.2196 36.4237 23.286 36.4397 23.2868C36.6718 23.2985 36.7613 23.233 36.9262 23.3408C36.9595 23.2767 37.0971 23.2392 37.2083 23.2454C37.3487 23.2533 37.6302 23.3844 37.6687 23.2459C37.8312 23.3076 37.8135 23.2695 38.0062 23.2683C38.1816 23.2671 38.646 23.32 38.7882 23.3124C38.9303 23.3049 38.8611 23.2279 38.9175 23.2176C39.0099 23.2005 38.96 23.2574 39.0232 23.2566C39.0597 23.2561 39.0952 23.2552 39.13 23.254L38.9032 23.8015C38.8036 23.7088 38.7066 23.6272 38.5966 23.5451C38.6183 23.5104 38.6397 23.4751 38.6612 23.4401C38.6456 23.4433 38.6299 23.4465 38.6143 23.4496C38.5886 23.4234 38.5589 23.3949 38.5357 23.37C38.6147 23.6967 38.349 23.1649 38.2324 23.042C38.2137 23.0223 38.1903 23.0024 38.1639 22.9825C38.028 22.8807 37.8413 22.6974 37.7787 22.5187C37.7596 22.4668 37.8114 22.492 37.8075 22.4815C37.7668 22.3607 37.7303 22.3414 37.7315 22.1692C37.7318 22.1604 37.7327 22.1516 37.7341 22.1428C37.7467 22.0644 37.7995 21.9914 37.8154 21.919C37.864 21.6888 37.9768 21.4719 38.1217 21.3021L38.131 21.2924C38.3338 21.0621 38.666 20.8877 38.9934 20.8773C39.0456 20.8746 39.0989 20.8752 39.1529 20.8797C39.2645 20.8893 39.343 20.9763 39.4247 21.0073C39.5421 21.0533 39.641 21.0469 39.7418 21.118C39.7922 21.1543 39.8381 21.2155 39.8737 21.2727C39.8984 21.3179 39.9216 21.3595 39.9459 21.3769C39.9953 21.4126 39.9667 21.2956 40.0324 21.3856C40.0626 21.4269 39.9665 21.3967 40.0097 21.4419C40.1446 21.583 40.3801 21.737 40.4875 21.9233C40.4908 21.907 40.4908 21.8893 40.4923 21.872C40.6449 22.0323 40.7595 22.1942 40.9177 22.3592C40.9729 22.417 41.1037 22.49 41.1591 22.5456C41.2144 22.6013 41.2083 22.6579 41.2519 22.7032C41.2698 22.7219 41.2907 22.6867 41.3024 22.6995C41.4483 22.8603 41.4825 22.9945 41.6487 23.1493C41.8318 23.3199 42.0162 23.4923 42.2014 23.6658C42.416 23.86 42.5749 24.1794 42.5754 24.4914C42.5904 24.8019 42.4449 25.1367 42.2333 25.3489C42.1548 25.4325 42.0763 25.516 41.998 25.5994C41.9747 25.6242 41.9952 25.6769 41.9655 25.7174C41.9198 25.7799 41.8848 25.7501 41.8765 25.7562C41.8223 25.7962 41.8714 25.8069 41.8082 25.8702C41.669 26.0094 41.4179 26.2074 41.2815 26.3484C40.967 26.6734 40.7268 26.9707 40.4277 27.2986C40.4063 27.3223 40.3782 27.2636 40.3385 27.3022C40.1403 27.494 40.0736 27.6002 39.9265 27.7628C39.8428 27.8516 39.7256 27.9569 39.5307 28.0382C39.3834 28.0999 39.1887 28.1379 38.9928 28.1255C38.6927 28.1174 38.3275 27.9572 38.1084 27.713L38.0981 27.7022C37.8798 27.4627 37.7617 27.1134 37.7646 26.839C37.7635 26.7695 37.7681 26.7013 37.7778 26.6363C37.7779 26.6363 37.7781 26.6363 37.7782 26.6363C37.6947 26.3853 37.8898 26.0553 38.1139 25.9503C38.1265 25.9449 38.1391 25.9397 38.1518 25.9348C38.1451 25.946 38.1385 25.9571 38.1317 25.9681C37.9522 26.2213 37.8599 26.5526 37.9026 26.8347C37.9345 27.1105 38.0627 27.3752 38.2486 27.5642C38.4449 27.7582 38.7204 27.8874 38.9998 27.8956C39.2706 27.9142 39.5684 27.8013 39.7645 27.6009C39.8678 27.5001 39.9714 27.3975 40.075 27.292C40.7342 26.6204 41.3494 25.8384 42.0041 25.1196C42.1658 24.9458 42.2587 24.7206 42.256 24.4914C42.2562 24.4211 42.249 24.3513 42.2337 24.2834C42.2072 24.1752 42.2441 24.1032 42.1796 24.0207C42.1688 24.0078 42.1494 24.07 42.1182 24.0306C42.0763 23.979 42.0301 23.9313 41.9806 23.8866C41.4964 23.4482 41.0772 22.9021 40.6093 22.4743C40.4696 22.3466 40.4094 22.3649 40.2818 22.2575C40.321 22.2596 40.3539 22.2537 40.3906 22.2531C40.1682 21.977 39.9277 21.7188 39.6802 21.4662C39.5092 21.2853 39.254 21.1798 39.003 21.1926C38.8305 21.1974 38.6573 21.2468 38.509 21.339C38.4787 21.3579 38.444 21.3158 38.4105 21.338C38.362 21.3705 38.3404 21.4309 38.3176 21.479C38.3083 21.4989 38.2999 21.5158 38.2889 21.5298C38.2377 21.5976 38.1936 21.5855 38.1531 21.6578C38.135 21.6938 38.1752 21.702 38.1337 21.7752C38.1306 21.7815 38.0875 21.7681 38.0724 21.8253C38.051 21.9063 38.0364 22.0345 38.0467 22.1526C38.0544 22.2623 38.0846 22.3619 38.1064 22.4173C38.1617 22.5627 38.186 22.7024 38.2235 22.7563C38.2543 22.7998 38.2827 22.8232 38.308 22.8384C38.362 22.8697 38.4039 22.8665 38.4698 22.9324C38.6892 23.1517 38.8999 23.3735 39.1081 23.5967L39.13 23.5437C38.4883 23.5212 37.8502 23.4862 37.1821 23.4867C37.1202 23.4867 36.8912 23.5614 36.7766 23.5584C36.7382 23.5572 36.5374 23.5375 36.5073 23.5359C36.3853 23.5296 36.2798 23.4844 36.2125 23.4749C36.0819 23.4564 35.9361 23.527 35.865 23.534C35.7403 23.5465 35.5187 23.5372 35.4663 23.5354C35.3398 23.531 35.3816 23.4437 35.2908 23.4641C35.264 23.4702 35.2921 23.5371 35.1976 23.5371C35.1184 23.5368 35.0864 23.4865 35.0324 23.4774C34.9783 23.4684 34.8792 23.5463 34.8455 23.5443C34.6694 23.5335 34.5914 23.4824 34.3997 23.4798C34.2404 23.4778 33.5044 23.5135 33.4433 23.5318C33.1692 23.6138 33.6256 23.577 33.6513 23.5798C33.7904 23.5957 33.7701 23.6272 33.9088 23.5671C34.0329 23.7524 34.4653 23.4639 34.5762 23.6837C34.6908 23.5373 34.787 23.6111 34.9077 23.6405C35.0745 23.6812 34.9475 23.5959 35.0692 23.5953C35.1172 23.5951 35.2562 23.6616 35.3283 23.6524C35.4003 23.6431 35.4306 23.5921 35.5272 23.5893C35.6995 23.584 35.8382 23.6078 35.983 23.6689C36.0096 23.6419 36.0343 23.6149 36.0605 23.5879C36.1604 23.6169 36.2608 23.6458 36.3607 23.6746C36.3448 23.651 36.3288 23.6272 36.3128 23.6036C36.342 23.6002 36.3713 23.5969 36.4006 23.5937C36.4978 23.6292 36.5907 23.6621 36.6906 23.6988C36.9622 23.5623 36.8834 23.6804 37.0343 23.6982C37.1852 23.7159 37.2726 23.6369 37.3892 23.6364C37.5462 23.6358 37.6184 23.626 37.7768 23.6316C37.8686 23.6348 38.0243 23.7111 37.8965 23.5903C38.1831 23.5806 38.5755 23.5469 38.8318 23.5959C38.9075 23.6102 38.8066 23.6483 38.8195 23.653C38.8837 23.6754 38.9378 23.6137 39.0041 23.6225C39.0383 23.6271 39.0826 23.6349 39.13 23.6438L39.2956 23.6465L39.1789 23.5259C39.1184 23.4375 39.0511 23.3345 39.0143 23.2867C38.9376 23.1869 38.7424 23.1047 38.7241 23.0946C38.6219 23.0383 38.6476 22.9702 38.6188 22.9479C38.4702 22.8335 38.4139 22.8127 38.4446 22.7018C38.4481 22.691 38.4528 22.6793 38.4586 22.6666C38.3839 22.6872 38.1721 22.5611 38.2517 22.4702C38.1652 22.5091 38.1164 22.3336 38.095 22.222C38.1207 22.2 38.147 22.1795 38.1743 22.1611C38.1732 22.1596 38.1722 22.158 38.1711 22.1565C38.0546 21.997 38.1685 21.6879 38.3717 21.5313C38.4558 21.4658 38.546 21.4188 38.6243 21.3846C38.6307 21.382 38.6115 21.3133 38.6612 21.3085C38.6644 21.3086 38.6724 21.3384 38.7016 21.3311C38.7542 21.3162 38.8923 21.3051 39.007 21.3266C39.1025 21.3419 39.1758 21.3735 39.1925 21.3775C39.3257 21.4134 39.3683 21.3844 39.4511 21.4274C39.5327 21.4759 39.5392 21.5199 39.5771 21.5693C39.5896 21.5857 39.6053 21.6032 39.6269 21.6227C39.6714 21.6628 39.7531 21.6581 39.8135 21.7308C39.8494 21.7738 39.8194 21.8116 39.8478 21.8455C39.9491 21.9664 40.052 22.0266 40.1064 22.1694C40.2401 22.0872 40.2076 22.2138 40.2483 22.2708C40.4131 22.5021 40.7056 22.7033 40.8658 22.8831C41.2143 23.2748 41.5161 23.6546 41.8377 24.0295C41.9453 24.1604 41.9966 24.294 42.0008 24.4444C42.0014 24.4624 42.0049 24.4775 42.0102 24.4914C42.0282 24.5393 42.0729 24.5738 42.0539 24.6443C42.0417 24.6853 41.9777 24.7063 41.9499 24.7596C41.9277 24.8028 41.9082 24.8818 41.858 24.9342C41.8493 24.9435 41.8294 24.9311 41.8115 24.927C41.8012 24.9261 41.7911 24.9277 41.7824 24.9362C41.587 25.1274 41.4244 25.3422 41.2472 25.5554C41.1815 25.6344 41.088 25.6304 41.1851 25.703C41.1367 25.7098 41.0917 25.7186 41.0452 25.724C40.9991 25.877 40.8621 25.9025 40.7412 26.0509C40.7283 26.067 40.6853 26.2273 40.5853 26.2426C40.6114 26.277 40.6461 26.2937 40.6717 26.3227C40.6263 26.3912 40.5039 26.4439 40.4618 26.4788C40.4199 26.5136 40.4334 26.5786 40.4222 26.5905C40.3792 26.6355 40.3379 26.5736 40.3336 26.5761C40.0791 26.7317 40.1282 26.7376 40.0818 26.9389C40.0704 26.9894 39.8031 27.1432 39.8217 27.2469C39.7949 27.2239 39.7846 27.1902 39.7642 27.163C39.6946 27.2198 39.6243 27.277 39.5544 27.334C39.5918 27.3445 39.6319 27.3523 39.6683 27.3641C39.6403 27.3844 39.6157 27.4066 39.5936 27.4299C39.507 27.5221 39.4372 27.6305 39.3246 27.6708C39.2457 27.6966 39.2364 27.6192 39.1971 27.6453C39.189 27.6502 39.2145 27.6969 39.1879 27.706C39.1199 27.7286 39.0593 27.7327 39.0048 27.7286C38.8834 27.7173 38.7909 27.6756 38.6566 27.6065C38.5751 27.5621 38.4485 27.577 38.3739 27.4475C38.3706 27.44 38.3668 27.4311 38.3634 27.4216C38.3541 27.4039 38.3357 27.2524 38.1938 27.2204C38.2138 27.177 38.222 27.1461 38.2436 27.1156C38.0473 27.0116 38.1605 26.9815 38.2059 26.8252C38.2124 26.8051 38.2186 26.7828 38.2246 26.7578C38.2347 26.6629 38.3066 26.4069 38.4357 26.272C38.4659 26.2362 38.4913 26.2053 38.5089 26.1827C38.5641 26.1115 38.5146 26.0644 38.524 26.0512C38.5802 25.9728 38.627 26.0195 38.6815 25.9496C38.7361 25.8796 38.7619 25.7481 38.8307 25.689C38.8834 25.6437 38.9029 25.7404 38.955 25.6479C38.9656 25.6285 38.8734 25.622 38.9691 25.565C38.9841 25.556 39.1594 25.4874 39.1959 25.474C39.1627 25.5691 39.017 25.7955 38.9596 25.8781C38.8463 26.041 38.7142 26.2172 38.567 26.4034C38.4679 26.5408 38.4375 26.6678 38.4619 26.8172C38.4857 26.9686 38.5476 27.0792 38.6622 27.1851L38.6495 27.1719C38.7695 27.2708 38.8755 27.3045 39.0178 27.3007C39.1508 27.2925 39.2221 27.255 39.3182 27.1546C40.1637 26.2661 41.0385 25.4016 41.6747 24.7903C41.6872 24.7786 41.6987 24.767 41.7091 24.7558C41.7674 24.6918 41.8502 24.6789 41.874 24.6222C41.8935 24.5676 41.8194 24.6003 41.8328 24.5542C41.8383 24.5328 41.8505 24.5132 41.8622 24.4914C41.8761 24.4656 41.8891 24.4393 41.887 24.4116C41.8793 24.3091 41.84 24.2139 41.7527 24.1146C41.4548 23.7904 41.1556 23.4675 40.8541 23.1535C40.7418 23.0366 40.6123 22.9827 40.508 22.8784C40.4674 22.8378 40.5149 22.7878 40.4856 22.7594C40.1709 22.4524 39.8365 22.2118 39.533 21.8969C39.4876 21.8498 39.4459 21.7963 39.4054 21.741C39.3615 21.6706 39.311 21.6053 39.2456 21.5745C39.1747 21.5406 39.0902 21.5552 39.0143 21.5673C38.9989 21.5697 38.9842 21.5717 38.97 21.5732C38.9239 21.5784 38.8897 21.5329 38.8705 21.533C38.8061 21.536 38.8464 21.592 38.819 21.6013C38.7473 21.629 38.6697 21.5845 38.6015 21.6458C38.576 21.6705 38.6116 21.704 38.5821 21.7435L38.592 21.7332C38.592 21.7333 38.5919 21.7333 38.5919 21.7333C38.5584 21.786 38.5385 21.7395 38.5095 21.7744C38.5078 21.7764 38.5409 21.7906 38.5291 21.8097C38.465 21.9124 38.4436 22.0417 38.4466 22.1651C38.4471 22.1897 38.4484 22.2123 38.45 22.2332C38.459 22.3472 38.4913 22.4516 38.5796 22.5668C38.7184 22.7339 38.8532 22.8996 38.994 23.0502C39.0621 23.1229 39.0759 23.0717 39.0999 23.0925C39.214 23.192 39.2145 23.2689 39.3382 23.3665L39.8358 23.8807L39.13 23.8691C39.1287 23.8693 39.1275 23.8694 39.1262 23.8696C39.0997 23.8728 38.9929 23.9365 38.8909 23.9204C38.8358 23.9117 38.7733 23.872 38.7264 23.8627C38.6795 23.8534 38.672 23.9119 38.6156 23.912C38.5129 23.9122 38.5428 23.8716 38.3959 23.8789C38.3368 23.8817 38.1393 23.9371 37.987 23.9329C37.7381 23.926 37.4297 23.8754 37.1363 23.8746C37.0356 23.8742 36.9064 23.9343 36.7503 23.9349C36.5596 23.9357 36.2081 23.9221 36.0127 23.9212C35.9127 23.9208 35.9055 23.8579 35.8936 23.8553C35.8171 23.8377 35.848 23.9081 35.7968 23.9053C35.7264 23.9015 35.6607 23.8496 35.5968 23.8462C35.556 23.844 35.5495 23.8958 35.5407 23.8962C35.2136 23.9134 34.9247 23.9085 34.5996 23.9142C32.8565 23.944 31.0968 24.0106 29.3571 23.9805C29.2112 23.9781 29.2057 23.9127 29.0776 23.923C29.0201 23.9275 28.9636 23.9584 28.9092 23.977C28.8647 24.0002 28.8349 24.0075 28.7838 23.9293C28.7874 23.9606 28.7918 23.9826 28.7953 24.0111C28.694 24.0005 28.6155 24.0542 28.5525 24.1347C28.5205 24.1751 28.499 24.2147 28.4806 24.2525C28.4462 24.3243 28.4269 24.3963 28.4232 24.4914C28.4227 24.5071 28.4227 24.5223 28.4232 24.5373C28.4289 24.6247 28.3774 24.6365 28.4668 24.6786C28.4806 24.7364 28.5081 24.7908 28.5551 24.8455C28.6476 24.9507 28.7487 25.0006 28.9092 25.0112C29.2223 25.0231 29.5346 25.0393 29.8441 25.0737C30.0012 24.9565 30.1518 25.0303 30.369 25.0477C30.3958 25.0499 30.3671 25.0071 30.4466 25.0107C30.5465 25.0152 30.5982 25.0805 30.7664 25.0769C30.8109 25.0759 31.1408 25.0035 31.2629 25.0406C31.3849 25.0777 31.5617 25.0995 31.6885 25.1349C31.6705 25.1069 31.6477 25.0801 31.6276 25.0525C31.6909 25.0476 31.7544 25.043 31.8177 25.0381C31.8269 25.0718 31.8361 25.1055 31.8449 25.1394C31.8816 25.1073 31.9184 25.0757 31.9554 25.0432C32.0353 25.2162 31.9534 25.1598 32.1312 25.116C32.2203 25.0942 32.291 25.1245 32.3824 25.1069C32.4154 25.1005 32.4365 25.0495 32.4728 25.043C32.5618 25.0273 32.5099 25.0974 32.5649 25.097C32.6204 25.0964 32.6999 25.0194 32.7992 25.0537C32.6956 25.191 32.9951 25.1462 33.0094 25.0395C33.0451 25.0393 33.0749 25.0438 33.1143 25.0408C33.078 25.3102 33.2647 25.119 33.3388 25.0821C33.4129 25.0452 33.4099 25.1176 33.4272 25.1148C33.4772 25.1069 33.4408 25.0769 33.4758 25.0759C33.7077 25.0698 33.926 25.114 34.1548 25.118C34.1877 25.1186 34.1585 25.0777 34.1969 25.0817C34.2353 25.0858 34.2721 25.1265 34.3289 25.1237C34.3441 25.1229 34.3489 25.087 34.3727 25.087C34.8701 25.0886 35.3423 25.1192 35.8496 25.1238C35.8955 25.1242 35.9315 25.0603 36.0202 25.0626C36.109 25.0648 36.2436 25.1224 36.3537 25.1269C36.383 25.1281 36.3909 25.0749 36.4297 25.0763C36.5615 25.0811 36.6752 25.1245 36.8122 25.1315C37.0437 25.1434 37.286 25.1109 37.5209 25.1424C37.5655 25.1482 37.5583 25.1926 37.6226 25.2051C37.7334 25.2267 37.6917 25.162 37.7141 25.1533C37.7875 25.1253 37.8106 25.2113 37.8816 25.1892C37.8925 25.1858 37.877 25.1348 37.8867 25.134C38.0377 25.1251 38.0456 25.2447 38.2061 25.1805C38.3488 25.2493 38.1104 25.2727 38.086 25.3092C38.0262 25.3979 38.1842 25.5022 38.2774 25.5357C38.3576 25.5645 38.357 25.5092 38.3889 25.5092C38.5579 25.509 38.8095 25.4985 38.938 25.5247C39.0159 25.5405 38.8755 25.5635 38.9153 25.5816C38.9547 25.5997 38.9803 25.5582 39.0207 25.6036C39.0612 25.649 39.1437 25.7825 39.1281 25.8462ZM29.989 23.4338C29.7783 23.6109 29.2846 23.6289 28.9092 23.6183C28.8261 23.6158 28.7492 23.6217 28.6837 23.6334C28.4785 23.6632 28.2586 23.7351 28.2358 23.818C28.2268 23.8496 28.2488 23.879 28.3093 23.9144C28.3131 23.9106 28.3169 23.9067 28.3207 23.9029C28.4843 23.7403 28.6742 23.6529 28.9092 23.6497C28.9754 23.6491 29.0437 23.6493 29.1156 23.6508C29.152 23.6516 29.369 23.6742 29.4444 23.6782C29.4869 23.6804 29.4883 23.7206 29.5461 23.7202C29.5587 23.72 29.6284 23.6675 29.6539 23.6689C29.7412 23.6736 30.001 23.7541 30.0373 23.7518C30.1379 23.745 30.0993 23.6825 30.1427 23.6712C30.2885 23.6337 30.3046 23.7274 30.4491 23.697C30.4749 23.6915 30.5606 23.6098 30.6677 23.6205C30.7112 23.625 30.7854 23.6671 30.8187 23.6651C31.0002 23.6542 31.2029 23.5984 31.3691 23.6076C31.5054 23.6153 31.4688 23.6784 31.5408 23.6869C31.6129 23.6951 31.6999 23.6219 31.7492 23.6177C31.8281 23.6111 31.924 23.6526 31.9484 23.652C32.4305 23.6397 32.8592 23.5915 33.3243 23.5742C33.0085 23.5454 32.693 23.5189 32.3792 23.489C32.2011 23.5544 32.2897 23.4931 32.1725 23.4727C32.0797 23.4566 32.0572 23.5673 31.9352 23.555C31.9353 23.555 31.9354 23.555 31.9355 23.555C31.8726 23.5486 31.7363 23.4719 31.6023 23.504C31.5976 23.5052 31.5856 23.5626 31.4853 23.5647C31.26 23.5691 30.9146 23.5986 30.661 23.5863C30.5865 23.5826 30.6017 23.5223 30.5136 23.5149C30.4494 23.5095 30.375 23.5652 30.2744 23.5528C30.1483 23.5368 30.0877 23.4409 30.001 23.5742C29.9939 23.5266 29.9975 23.4802 29.989 23.4338ZM31.9007 25.433C31.9184 25.4383 32.1557 25.587 32.0853 25.4282C31.7664 25.3592 31.4216 25.3935 31.0861 25.3547C31.2006 25.5118 31.3945 25.4499 31.6297 25.4384C31.6298 25.4384 31.6299 25.4384 31.63 25.4384C31.6412 25.4379 31.5947 25.4789 31.6579 25.4715C31.6885 25.4679 31.8058 25.405 31.9007 25.433ZM33.971 20.8202C33.9178 20.2197 33.895 19.62 33.9182 19.0022C33.9235 18.8615 33.9646 18.8747 33.9713 18.8169C33.9836 18.7105 33.9392 18.532 33.9392 18.507C33.9386 18.3517 34.0106 18.4124 34.0134 18.3915C34.0389 18.188 33.9796 18.2134 33.9589 18.0747L34.4092 18.525C34.3891 18.528 34.3655 18.5302 34.3373 18.5312C34.0472 18.5415 33.6749 18.5268 33.3254 18.5228C33.2026 18.5211 33.2573 18.4663 32.9924 18.4709C32.8047 18.4742 32.229 18.5367 31.9639 18.4699C31.9623 18.4447 31.9958 18.4169 32.0099 18.3909C31.6299 18.4959 31.4938 18.4913 30.9551 18.4657C30.8699 18.4617 30.7892 18.5048 30.639 18.4889C30.4889 18.4729 30.4826 18.4064 30.1808 18.4072C30.0738 18.4077 30.0088 18.4546 29.8447 18.4566C29.3778 18.4624 28.4887 18.4042 28.1055 18.4022C27.3509 18.3981 26.9403 18.4782 26.2702 18.4504C26.2186 18.4484 26.332 18.3969 26.2374 18.3959C26.142 18.3949 26.0426 18.463 26.0191 18.4647C25.8245 18.4781 25.4633 18.4274 25.2425 18.4081L25.5759 18.0747C25.5701 18.1412 25.5672 18.195 25.5698 18.2277C25.5968 18.5702 25.6268 18.2327 25.6397 18.7073C25.652 19.1593 25.5633 19.7833 25.546 20.2314C25.5258 20.7506 25.6546 20.918 25.5201 21.309C25.528 22.6821 25.5328 24.0607 25.5397 25.4353C25.5129 25.4314 25.486 25.4269 25.4592 25.4222C25.4778 25.5309 25.4964 25.6396 25.5147 25.7483C25.4948 25.7319 25.4748 25.7163 25.455 25.6999C25.532 26.2104 25.5718 26.6655 25.5506 27.262C25.5502 27.2737 25.4967 27.243 25.4954 27.2527C25.4853 27.3872 25.5264 27.5375 25.5167 27.6555C25.4935 27.941 25.377 28.4258 25.5195 28.2123C25.4901 28.8777 25.5383 29.6597 25.5107 30.2938C25.4988 30.5683 25.4143 30.6505 25.4094 30.7818C25.4046 30.913 25.4772 30.8462 25.48 30.8928C25.4803 30.8978 25.4806 30.9029 25.4808 30.908L25.2425 30.6697C25.5236 30.6546 25.9688 30.6589 26.0164 30.7387C26.0727 30.7062 26.1323 30.6734 26.1894 30.6407C26.1559 30.7308 27.021 30.6936 27.2479 30.6958C27.2894 30.6962 27.2952 30.7357 27.3264 30.7353C27.675 30.7302 27.7603 30.6683 28.0589 30.6477C28.1637 30.6405 28.0012 30.7101 28.2702 30.68C28.2936 30.6774 28.2812 30.6149 28.6025 30.6153C29.1155 30.6159 30.0968 30.5911 30.7076 30.6219C30.7576 30.6243 30.6053 30.6925 30.8341 30.6766C30.917 30.671 30.8773 30.6226 31.0783 30.6222C31.8571 30.6202 32.6876 30.6758 33.4821 30.6296C33.4532 30.6843 33.1702 30.7456 33.5955 30.7113C33.6635 30.7056 33.6128 30.6568 33.6433 30.655C33.8903 30.6409 34.1045 30.6758 34.3719 30.657C34.386 30.656 34.3981 30.654 34.4092 30.6513L34.1524 30.908C34.1398 30.8569 34.1126 30.8292 34.1051 30.7482C34.0916 30.6027 34.1463 30.5384 34.1231 30.3695C34.0866 30.1053 34.0348 30.0645 34.1364 29.737C34.1345 29.2101 34.1309 28.6838 34.1277 28.158C34.1192 27.8593 34.2463 27.5189 34.4709 27.3031C34.6851 27.0769 35.0259 26.947 35.3258 26.9537C35.6259 26.9464 35.9672 27.0758 36.1818 27.3021C36.4068 27.5181 36.5337 27.8594 36.5241 28.158C36.5203 28.5179 36.5143 28.8778 36.5056 29.2378C36.5347 29.7726 36.5671 30.2662 36.5782 30.8237C36.5788 30.8561 36.5766 30.8832 36.5729 30.908C36.555 31.0258 36.5192 31.0925 36.4947 31.3352C36.5042 31.4007 36.3983 31.909 36.227 31.8951C36.1727 32.0162 36.1248 32.0856 36.0613 32.1795C36.1306 32.1248 36.1994 32.0623 36.2614 31.9996C36.1531 32.1618 36.0411 32.3002 35.9266 32.4254C35.7488 32.6191 35.5513 32.793 35.3045 32.92C35.0002 33.0604 35.2006 32.9196 35.011 32.9877C34.8202 33.0441 34.7232 33.076 34.4792 33.0152C34.4552 33.0266 34.4322 33.0353 34.4092 33.0417C34.2736 33.0852 34.1557 33.0407 33.8894 33.0388C33.8565 33.0386 33.6667 33.0708 33.5079 33.0644C33.3938 33.0597 33.36 33.0079 33.1787 33.016C33.149 33.0172 32.7657 33.0813 32.6437 33.0872C32.4537 33.0965 32.1517 33.0301 32.115 33.0293C31.5809 33.0176 31.3751 33.0831 30.9959 32.9752C30.9192 33.0394 30.6028 33.0769 30.3471 33.0707C30.0241 33.0628 29.3766 32.9317 29.2882 33.0702C28.9144 33.0085 28.955 33.0466 28.5118 33.0478C28.1083 33.049 27.0402 32.996 26.7132 33.0037C26.3863 33.0112 26.5456 33.0882 26.4158 33.0985C26.2033 33.1156 26.3181 33.0587 26.1726 33.0595C25.8433 33.0615 25.5485 33.0688 25.2425 33.0844C25.154 33.0883 25.0636 33.088 24.9707 33.0821C24.9503 33.0396 24.9296 32.9963 24.9111 32.9532C24.8865 32.9629 24.8615 32.9721 24.836 32.9809C24.7403 32.9629 24.6337 32.9353 24.5482 32.9041C25.1759 33.2244 24.0901 32.8877 23.7578 32.3927C23.6995 32.326 23.6509 32.2648 23.6136 32.2184C23.3637 31.9499 23.0489 31.3464 23.0537 30.9144C23.0536 30.9122 23.0536 30.9101 23.0535 30.908C23.0511 30.8285 23.0924 30.8857 23.0914 30.8682C23.0791 30.657 23.0497 30.625 23.0537 30.3411C23.0559 30.191 23.11 30.0378 23.111 29.8916C23.1182 28.8179 23.064 27.7818 23.0581 26.7152C23.0571 26.5338 23.123 26.3773 23.1245 26.2248C23.1265 26.0067 23.0725 25.869 23.0717 25.6642C23.0709 25.4601 23.1354 25.166 23.1255 25.0275C23.1158 24.8891 23.0533 25.126 23.0704 24.8726C23.0783 24.7562 23.1249 24.9618 23.1263 24.818C23.1307 24.3691 23.0731 23.7357 23.1289 23.2579C23.115 23.2791 23.1025 23.3079 23.0892 23.3337C23.0946 22.8246 23.1281 22.3749 23.133 21.8494C23.1347 21.6656 23.0939 21.3342 23.0941 21.1536C23.0943 20.973 23.1386 20.8908 23.1398 20.7462C23.1405 20.6868 23.1007 20.71 23.1015 20.6701C23.112 20.1713 23.1828 19.8976 23.1747 19.3754C23.1681 18.9445 23.1616 18.5106 23.1554 18.0747C23.1377 17.5386 23.3666 16.9677 23.7539 16.5861C24.1236 16.1916 24.6941 15.9432 25.2425 15.9477C25.7924 15.9403 26.3418 15.9329 26.8889 15.9254C26.9671 15.9244 27.0197 15.8726 27.1338 15.8649C27.3096 15.8531 27.3182 15.8988 27.3416 15.9005C27.4948 15.9105 27.4324 15.8682 27.638 15.8682C28.0908 15.8682 28.8212 15.9057 29.2724 15.9025C30.3124 15.895 31.1867 15.8547 32.2063 15.8343C32.2799 15.8327 32.23 15.894 32.3575 15.8948C33.2127 15.9009 33.4261 15.848 34.4092 15.8572C34.4679 15.8577 34.5292 15.8603 34.5932 15.866C35.0069 15.8927 35.5663 16.1032 35.9601 16.5238C36.3428 16.8969 36.6044 17.507 36.583 18.0747C36.5738 18.7294 36.566 19.3692 36.5627 19.8848C36.5625 19.8848 36.5624 19.8848 36.5623 19.8848C36.6392 20.1644 36.6509 20.4997 36.6237 20.8247C36.6123 21.0292 36.5422 21.2435 36.4257 21.4042C36.5074 21.2131 36.5309 21.0083 36.5166 20.8247C36.4317 19.9028 36.3958 18.9925 36.3832 18.0747C36.3852 17.5647 36.1692 17.0438 35.8003 16.6836C35.4512 16.3188 34.9315 16.0891 34.4092 16.094C33.8722 16.0895 33.3267 16.0861 32.7694 16.0884C30.3277 16.0982 27.7485 16.2471 25.2425 16.2738C24.8139 16.2741 24.3948 16.4288 24.0762 16.7065C24.0357 16.741 23.9997 16.7711 23.9662 16.7984C23.8331 16.9097 23.7316 16.9707 23.642 17.1356C23.6243 17.1701 23.717 17.11 23.6625 17.2139C23.528 17.478 23.4644 17.7752 23.4676 18.0747C23.4775 19.4404 23.4067 20.8482 23.4324 22.1638C23.4409 22.5985 23.4963 22.6667 23.5106 23.0491C23.4844 22.9819 23.457 22.9379 23.4306 22.8793C23.3488 24.6247 23.3853 26.3726 23.3736 28.1406C23.3729 28.2204 23.3187 28.2306 23.3167 28.3143C23.3124 28.4816 23.3721 28.6418 23.3742 28.788C23.3768 28.9788 23.3336 29.0119 23.3364 29.1878C23.3379 29.2737 23.3794 29.248 23.3723 29.4347C23.3717 29.4504 23.3282 29.4606 23.3338 29.5848C23.3493 29.9249 23.3859 30.6201 23.3968 30.9017C23.3968 30.9038 23.3969 30.9059 23.397 30.908C23.4069 31.2642 23.4487 31.5607 23.5051 31.6921C23.6699 32.0354 23.734 31.9892 23.9388 32.2118C23.9405 32.2136 23.9423 32.2153 23.9441 32.2171C24.2836 32.5641 24.7614 32.7645 25.2425 32.7631C26.9513 32.7832 28.6334 32.8299 30.4073 32.8294C30.5497 32.8294 31.0764 32.7547 31.34 32.7577C31.4283 32.7589 31.8901 32.7786 31.9593 32.7802C32.2401 32.7865 32.4827 32.8317 32.6375 32.8412C32.9378 32.8597 33.2733 32.7891 33.4367 32.7821C33.7237 32.7696 34.2333 32.7788 34.3538 32.7807C34.3741 32.781 34.3924 32.7817 34.4092 32.7827C34.6369 32.7899 34.5742 32.8689 34.7754 32.82C34.8377 32.7998 34.7619 32.756 34.975 32.6961C35.1508 32.6389 35.2401 32.6482 35.3598 32.5919C35.483 32.5354 35.6207 32.3257 35.6752 32.2729C35.6933 32.2569 35.7104 32.2414 35.7271 32.2259C35.9833 31.9741 36.1463 31.8332 36.2745 31.412C36.3001 31.3182 36.3368 31.133 36.3327 30.908C36.3225 30.2707 36.2991 29.2984 36.2854 29.1932C36.2034 28.5628 36.2402 29.6126 36.2374 29.6718C36.2215 29.9916 36.19 29.9448 36.2501 30.2638C36.1707 30.3862 36.1783 30.6391 36.1957 30.908C36.2304 31.2572 36.12 31.6565 35.9382 31.7129C35.9452 31.9255 35.8232 32.0659 35.6772 32.1761C35.6235 32.2168 35.5656 32.2548 35.5052 32.2938C35.183 32.4772 35.4652 32.39 35.2273 32.53C35.1299 32.5881 34.8149 32.6258 34.6603 32.6475C34.5615 32.666 34.4988 32.6917 34.4092 32.7087C34.3564 32.7183 34.2954 32.7258 34.2138 32.7268C33.8174 32.7321 33.4983 32.7083 33.1652 32.6472C33.1042 32.6742 33.0473 32.7012 32.9871 32.7282C32.7572 32.6992 32.5264 32.6703 32.2965 32.6415C32.3333 32.6651 32.3701 32.6889 32.4068 32.7125C32.3396 32.7159 32.2721 32.7191 32.2049 32.7224C31.9812 32.6869 31.7677 32.654 31.5378 32.6173C30.9131 32.7538 31.0944 32.6357 30.7472 32.6179C30.4001 32.6002 30.1992 32.6792 29.9311 32.6796C29.5698 32.6803 29.4039 32.6901 29.0395 32.6845C28.8284 32.6812 28.4702 32.605 28.7643 32.7258C28.105 32.7355 27.2025 32.7692 26.6129 32.7202C26.4388 32.7059 26.6709 32.6678 26.6412 32.6631C26.4935 32.6407 26.369 32.7024 26.2166 32.6936C25.9632 32.6788 25.4699 32.6308 25.2704 32.6195C25.2613 32.619 25.252 32.6186 25.2425 32.6183C24.9739 32.6229 24.5704 32.566 24.5278 32.5441C24.2847 32.4662 24.2701 32.3591 24.2041 32.3187C24.1166 32.26 24.0484 32.2054 23.9937 32.1568C23.8167 31.995 23.776 31.9083 23.8107 31.7647C23.687 31.7215 23.4224 31.2674 23.5288 31.1304C23.4846 31.1348 23.4518 31.0395 23.4413 30.908C23.4299 30.7668 23.4283 30.589 23.4165 30.4546C23.4431 30.4061 23.4695 30.3568 23.4964 30.3083C23.3318 29.7633 23.4513 28.6779 23.4709 27.9608C23.4713 27.9428 23.4024 27.9107 23.4179 27.8028C23.4192 27.7959 23.4502 27.807 23.4542 27.7347C23.4671 27.4961 23.5445 26.5861 23.5451 26.4814C23.5478 26.0959 23.4963 26.0285 23.4915 25.7939C23.485 25.485 23.5314 25.4404 23.5248 25.1465C23.5218 25.0089 23.4607 24.8837 23.4693 24.6672C23.4744 24.539 23.5223 24.5263 23.5262 24.4248C23.5401 24.0635 23.5098 23.7982 23.5724 23.4775C23.4197 23.3939 23.5322 23.2407 23.5437 23.0819C23.5907 22.4376 23.5262 21.6345 23.5401 21.0817C23.5667 20.0334 23.6119 19.0574 23.648 18.0747C23.6623 17.6501 23.8367 17.2703 24.147 16.9792C24.2494 16.8815 24.3606 16.7969 24.4807 16.7291C24.6801 16.6256 24.7074 16.5316 24.9571 16.486C25.0405 16.474 25.1295 16.4958 25.2425 16.5118C25.288 16.5175 25.3375 16.5214 25.3922 16.5216C25.5619 16.5224 25.8049 16.4942 26.0168 16.4943C26.0731 16.4943 26.0781 16.5464 26.161 16.5468C26.7896 16.5498 27.4035 16.5128 28.0385 16.4874C28.2738 16.478 28.4193 16.5469 28.3794 16.427C28.4694 16.4564 28.5568 16.482 28.6412 16.5111C28.965 16.4354 29.2294 16.5142 29.6673 16.4949C29.7145 16.4926 30.0452 16.4096 30.2327 16.4695C30.246 16.4268 30.2169 16.3905 30.2224 16.3518C30.4077 16.3354 30.6924 16.3848 30.8175 16.3898C30.9425 16.3949 31.0261 16.3394 31.0637 16.3388C31.2068 16.3374 31.1735 16.4104 31.1844 16.4116C31.8514 16.4816 31.7812 16.4427 32.1839 16.3332C32.2848 16.3056 32.9694 16.3858 33.1079 16.2993C33.1141 16.3346 33.076 16.3656 33.065 16.3993C33.2707 16.4084 33.478 16.4177 33.6844 16.4268C33.6406 16.3929 33.588 16.359 33.5481 16.3249C33.8662 16.3471 34.1439 16.3071 34.4092 16.2872C34.4936 16.2808 34.5773 16.2816 34.6596 16.2929C34.8513 16.3241 34.8095 16.3967 34.9188 16.4091C34.9404 16.4124 34.9197 16.3526 34.9835 16.3689C35.3203 16.4641 35.498 16.624 35.6704 16.8135C35.7632 16.9193 35.855 17.0397 35.9461 17.2015C36.0599 17.4114 36.236 17.6063 36.1982 17.9786C36.197 17.988 36.1911 18.0239 36.1835 18.0747C36.1644 18.2055 36.1466 18.4361 36.2302 18.5959C36.1933 18.6671 36.1739 18.7298 36.1428 18.783C36.3164 19.2358 36.1463 19.1107 36.1059 19.723C36.093 19.9193 36.0997 20.403 36.1111 20.8247C36.1223 21.0563 36.0305 21.2442 35.9607 21.3364C35.94 21.3653 35.9235 21.3891 35.9109 21.4097C35.8576 21.4934 35.8783 21.5288 35.8575 21.5482C35.6859 21.6785 35.6549 21.6146 35.4774 21.6642C35.4307 21.6743 35.38 21.6852 35.3258 21.6937C35.1686 21.7217 34.9718 21.7149 34.838 21.625C34.7178 21.5371 34.8339 21.5402 34.7085 21.4421C34.6981 21.4331 34.6863 21.423 34.6728 21.4115C34.6393 21.3777 34.6664 21.5375 34.5412 21.3183C34.4996 21.2842 34.4635 20.8954 34.5024 20.8247C34.5235 20.9579 34.6221 21.2219 34.8025 21.348C34.8855 21.414 34.9665 21.4495 35.0196 21.4672C35.1131 21.499 35.2153 21.5095 35.3258 21.4998C35.5101 21.4842 35.6598 21.4128 35.7765 21.2754C35.8859 21.1471 35.9306 21.005 35.9193 20.8247C35.8801 19.9815 35.8488 19.0516 35.8242 18.0747C35.814 17.6942 35.6686 17.365 35.3862 17.0977C35.1125 16.8346 34.7869 16.7055 34.4092 16.7132C31.2909 16.7533 28.088 16.7445 25.8995 16.7244C25.631 16.722 25.4267 16.687 25.2425 16.6635C25.1765 16.653 25.1135 16.6486 25.0521 16.654C24.8561 16.679 25.0292 16.7128 24.8618 16.7463C24.6996 16.787 24.5662 16.8014 24.4249 16.8959C24.3558 16.9432 24.2894 16.9975 24.2259 17.0581C23.939 17.3287 23.7819 17.6749 23.7758 18.0747C23.7605 18.94 23.7471 19.8044 23.7395 20.6608C23.7363 21.0338 23.7898 21.3319 23.7898 21.6713C23.7897 21.8034 23.7208 21.8075 23.7214 21.9013C23.7269 22.9123 23.7932 23.8476 23.7851 24.8532C23.7817 25.2708 23.7236 25.7219 23.7182 26.1356C23.7135 26.4764 23.7532 26.8299 23.7541 27.1364C23.7547 27.3028 23.7022 27.3905 23.698 27.4507C23.6843 27.6603 23.7484 27.5871 23.7484 27.6942C23.7482 27.9897 23.6708 28.1367 23.6768 28.4135C23.6793 28.5222 23.7286 28.5082 23.7363 28.666C23.746 28.8661 23.7005 28.7921 23.6988 28.935C23.6986 28.9436 23.7339 28.9156 23.7353 28.9914C23.7446 29.4793 23.7724 30.0886 23.77 30.5594C23.7694 30.6758 23.7679 30.792 23.7657 30.908C23.7534 31.3131 23.8872 31.6851 24.1648 31.9858C24.3704 32.2134 24.626 32.3718 24.9104 32.4341C25.1018 32.4711 25.0568 32.4126 25.1171 32.4172C25.1627 32.4189 25.2039 32.42 25.2425 32.421C25.4887 32.4265 25.6261 32.4632 25.9358 32.4465C25.9968 32.4432 26.2424 32.3796 26.477 32.3957C26.6036 32.4044 26.7474 32.4441 26.8553 32.4534C26.9632 32.4627 26.9805 32.4042 27.1102 32.4041C27.3463 32.4039 27.2777 32.4445 27.6154 32.4372C27.7515 32.4344 28.2058 32.379 28.5561 32.3832C29.1285 32.39 29.8379 32.4407 30.5127 32.4415C30.7442 32.4419 31.0415 32.3818 31.4005 32.3812C31.8392 32.3804 32.6475 32.394 33.0971 32.3948C33.327 32.3953 33.3436 32.4582 33.371 32.4608C33.5468 32.4783 33.4758 32.408 33.5937 32.4108C33.7556 32.4146 33.9066 32.4665 34.0537 32.4699C34.1474 32.4721 34.1623 32.4203 34.1826 32.4199C34.259 32.4181 34.3345 32.4166 34.4092 32.4153C34.8289 32.4075 35.178 32.2558 35.4658 31.9646C35.5626 31.867 35.6469 31.7598 35.7142 31.6413C35.8399 31.4212 35.8986 31.1721 35.8954 30.908C35.8875 29.9927 35.8782 29.0757 35.8691 28.158C35.8655 27.9928 35.8171 27.8793 35.7099 27.774C35.601 27.6701 35.488 27.6278 35.3258 27.6287C35.1634 27.6323 35.0545 27.6788 34.9511 27.7833C34.8494 27.8898 34.8083 27.9984 34.8087 28.158C34.8155 29.0755 34.8205 29.9925 34.8221 30.908L34.8175 31.3255L34.4092 31.321C33.5016 31.3225 32.5953 31.3206 31.6914 31.3138C31.356 31.3114 31.3433 31.2461 31.0485 31.2563C30.7537 31.2664 30.4689 31.4076 30.2265 31.2517C30.2187 31.2832 30.2195 31.3056 30.2117 31.3342C29.6025 31.2899 28.9933 31.3358 28.3975 31.3414C27.9565 31.3457 27.5654 31.3406 27.158 31.3372C26.7969 31.334 26.8281 31.2792 26.5155 31.3507C26.0921 31.3385 25.6674 31.3304 25.2425 31.3237L24.8224 31.319L24.8269 30.908C24.845 29.7735 24.854 28.6369 24.9081 27.5162C24.791 27.1549 24.8648 26.8086 24.8821 26.3089C24.8843 26.2472 24.8416 26.3134 24.8452 26.1305C24.8497 25.9007 24.915 25.7818 24.9114 25.3949C24.9104 25.2924 24.8379 24.5337 24.875 24.253C24.9121 23.9722 24.9339 23.5656 24.9694 23.2739C24.9414 23.3154 24.9146 23.3679 24.8869 23.414C24.8821 23.2686 24.8774 23.1223 24.8726 22.9769C24.9063 22.9558 24.94 22.9346 24.9739 22.9143C24.9418 22.8298 24.9101 22.7453 24.8777 22.6601C25.0507 22.4764 24.9942 22.6647 24.9505 22.2558C24.9287 22.051 24.9589 21.8883 24.9414 21.678C24.9349 21.6022 24.884 21.5537 24.8775 21.4701C24.8618 21.2653 24.9319 21.3847 24.9315 21.2581C24.9309 21.1307 24.8539 20.9477 24.8882 20.7193C25.0255 20.9577 24.9807 20.2687 24.874 20.2359C24.8738 20.1538 24.8782 20.0851 24.8752 19.9945C25.1446 20.0782 24.9535 19.6486 24.9166 19.4782C24.8797 19.3078 24.9521 19.3147 24.9493 19.2748C24.9414 19.16 24.9113 19.2436 24.9103 19.1631C24.9061 18.7914 24.9263 18.4349 24.9403 18.0747L24.9437 17.7692L25.2425 17.7725C25.3991 17.7786 25.5564 17.7835 25.7159 17.7847C25.7916 17.7853 25.7244 17.7444 25.8127 17.7484C25.901 17.7524 25.9857 17.7931 26.1163 17.7903C26.1514 17.7896 26.1624 17.7537 26.217 17.7536C27.361 17.7552 28.4473 17.7859 29.614 17.7905C29.7196 17.7909 29.8024 17.727 30.0065 17.7292C30.2106 17.7314 30.5202 17.7891 30.7735 17.7936C30.8408 17.7948 30.859 17.7415 30.9482 17.743C31.2515 17.7478 31.5129 17.7911 31.828 17.7982C32.3604 17.8101 32.9179 17.7776 33.4582 17.8091C33.5606 17.8149 33.5442 17.8593 33.692 17.8718C33.9469 17.8934 33.851 17.8287 33.9026 17.82C34.0714 17.792 34.1245 17.878 34.2878 17.8559C34.3128 17.8524 34.2772 17.8014 34.2996 17.8006C34.3403 17.7996 34.3764 17.8003 34.4092 17.8023L34.6846 17.8053L34.6816 18.0747C34.6666 18.3214 34.5801 18.3738 34.6367 18.6996C34.5679 19.0279 34.5445 18.4796 34.508 18.4233C34.4193 18.2858 34.3151 18.6493 34.2816 18.8636C34.2527 19.0481 34.308 19.0467 34.308 19.1202C34.3082 19.5088 34.3187 20.0875 34.2925 20.3831C34.2768 20.5622 34.2538 20.2394 34.2356 20.3309C34.2175 20.4216 34.259 20.4803 34.2136 20.5733C34.1683 20.6664 34.0347 20.8562 33.971 20.8202ZM33.1449 30.7671C32.5491 30.9849 30.9688 30.9622 30.1204 30.9414C29.4166 30.9241 28.8098 30.7563 28.9553 30.9994C29.7161 31.0011 30.3315 30.9767 31.136 30.9841C31.2197 30.9849 31.7188 31.0075 31.8924 31.0115C31.9901 31.0138 31.9932 31.0539 32.1261 31.0535C32.1551 31.0533 32.3154 31.0008 32.3741 31.0022C32.575 31.0069 33.1725 31.0875 33.2559 31.0851C33.4873 31.0783 33.3985 31.0158 33.4984 31.0045C33.8338 30.967 33.8708 31.0608 34.2032 31.0303C34.2356 31.0274 34.3091 31.0016 34.4092 30.9807L34.481 30.9814L34.4818 30.908C34.4643 30.8248 34.4501 30.7231 34.455 30.6112C34.4594 30.5111 34.5016 30.3407 34.4996 30.264C34.4887 29.8465 34.4328 29.3803 34.4421 28.998C34.4498 28.6845 34.5129 28.7688 34.5213 28.603C34.5288 28.4529 34.4695 28.2746 34.4551 28.158C34.4536 28.1463 34.4528 28.1354 34.4527 28.125C34.4454 27.9442 34.5696 27.765 34.5974 27.7261C34.6325 27.6648 34.6758 27.6084 34.7252 27.5574C34.8822 27.3911 35.1001 27.3039 35.3258 27.3001C35.5571 27.291 35.7851 27.3707 35.9523 27.5316C36.1244 27.6886 36.2225 27.9187 36.2261 28.158C36.2329 28.409 36.2389 28.6619 36.243 28.9196C36.2531 28.6656 36.2629 28.4117 36.2727 28.158C36.2859 27.9108 36.1978 27.649 36.02 27.4638C35.8571 27.2826 35.6109 27.1698 35.3641 27.1563C35.3506 27.1579 35.338 27.1595 35.3258 27.1613C34.9471 27.2525 35.1345 27.1616 34.8545 27.2469C34.7265 27.3037 34.6853 27.3838 34.6367 27.4689C34.602 27.5327 34.5613 27.601 34.4985 27.704C34.4986 27.7038 34.4988 27.7036 34.4989 27.7034C34.4476 27.7848 34.3477 27.9473 34.336 28.158C34.3292 28.2555 34.3278 28.3589 34.3385 28.4616C34.3397 28.4725 34.3971 28.5 34.3991 28.7306C34.4036 29.2491 34.433 30.0435 34.4207 30.6268C34.4175 30.7796 34.3691 30.7683 34.3534 30.908L34.4092 30.8523C34.3923 30.8504 34.3733 30.849 34.3515 30.8482C34.2038 30.8428 34.0326 30.8986 33.8013 30.8861C33.5112 30.8702 33.372 30.7742 33.1726 30.9075C33.1562 30.8599 33.1645 30.8135 33.1449 30.7671ZM25.2675 22.786C25.2727 22.7452 25.4215 22.1995 25.2626 22.3613C25.1937 23.0948 25.2279 23.8878 25.1892 24.6597C25.3463 24.3961 25.2844 23.9503 25.2729 23.4092C25.2729 23.4089 25.2729 23.4087 25.2729 23.4085C25.2724 23.3829 25.3134 23.4897 25.306 23.3445C25.3023 23.2741 25.2394 23.0042 25.2675 22.786Z" fill="#F3832D"/>
</g>
<path d="M58.1952 30.9914L55.7632 31.0874C55.3685 31.0874 55.0378 30.9594 54.7712 30.7034C54.5152 30.4474 54.3872 30.106 54.3872 29.6794L54.4832 25.6634C53.8218 25.5674 53.4912 25.2207 53.4912 24.6234C53.4912 24.3354 53.5818 24.1007 53.7632 23.9194C53.9445 23.738 54.1792 23.6207 54.4672 23.5674L54.3872 20.6394C54.2698 20.4154 54.2112 20.154 54.2112 19.8554C54.2112 19.2154 54.7178 18.8954 55.7312 18.8954L58.1632 18.9914L60.6752 18.8954C61.0805 18.8954 61.4005 18.9967 61.6352 19.1994C61.8805 19.3914 62.0032 19.6527 62.0032 19.9834C62.0032 20.314 61.8805 20.5754 61.6352 20.7674C61.4005 20.9487 61.0805 21.0394 60.6752 21.0394L58.1632 20.9434C57.5872 20.9434 57.0858 20.9594 56.6592 20.9914V23.6474C56.8298 23.658 57.0592 23.6634 57.3472 23.6634L59.9232 23.5514C60.3072 23.5514 60.6218 23.6527 60.8672 23.8554C61.1125 24.0474 61.2352 24.3087 61.2352 24.6394C61.2352 24.9594 61.1125 25.2154 60.8672 25.4074C60.6218 25.5887 60.3072 25.6794 59.9232 25.6794L57.3952 25.5834H57.1712C57.0218 25.594 56.8512 25.5994 56.6592 25.5994C56.6592 27.082 56.6698 28.218 56.6912 29.0074C56.9792 29.0287 57.4805 29.0394 58.1952 29.0394L60.7072 28.9434C61.1125 28.9434 61.4325 29.0394 61.6672 29.2314C61.9125 29.4127 62.0352 29.6687 62.0352 29.9994C62.0352 30.33 61.9125 30.5967 61.6672 30.7994C61.4325 30.9914 61.1125 31.0874 60.7072 31.0874L58.1952 30.9914ZM66.9457 24.7034C65.911 23.05 65.143 21.9354 64.6417 21.3594C64.3963 21.05 64.0977 20.8687 63.7457 20.8154C63.6497 20.794 63.575 20.7727 63.5217 20.7514C63.3937 20.6874 63.3297 20.49 63.3297 20.1594C63.3297 19.8287 63.447 19.5194 63.6817 19.2314C63.927 18.9434 64.2257 18.7994 64.5777 18.7994C65.1857 18.7994 65.751 19.178 66.2737 19.9354L68.1777 22.9274C68.4977 22.4474 68.8283 21.9034 69.1697 21.2954C69.511 20.6767 69.767 20.2234 69.9377 19.9354C70.1083 19.6367 70.311 19.3807 70.5457 19.1674C70.7803 18.9434 71.031 18.8314 71.2977 18.8314C71.575 18.8314 71.8097 18.938 72.0017 19.1514C72.2043 19.354 72.3057 19.594 72.3057 19.8714C72.3057 20.138 72.2203 20.4154 72.0497 20.7034C71.879 20.9914 71.5217 21.5247 70.9777 22.3034C70.4443 23.082 69.9163 23.914 69.3937 24.7994C70.6097 26.6554 71.5217 27.9354 72.1297 28.6394C72.375 28.9487 72.6737 29.1354 73.0257 29.1994C73.1217 29.21 73.1963 29.226 73.2497 29.2474C73.3777 29.3114 73.4417 29.5087 73.4417 29.8394C73.4417 30.17 73.319 30.4794 73.0737 30.7674C72.839 31.0554 72.5457 31.1994 72.1937 31.1994C71.5963 31.1994 71.0363 30.8207 70.5137 30.0634L68.1297 26.5754C67.8097 27.0554 67.4203 27.706 66.9617 28.5274C66.503 29.338 66.167 29.9034 65.9537 30.2234C65.5483 30.8314 65.143 31.1354 64.7377 31.1354C64.4497 31.1354 64.2043 31.034 64.0017 30.8314C63.8097 30.618 63.7137 30.378 63.7137 30.1114C63.7137 29.8447 63.8257 29.5247 64.0497 29.1514C64.2737 28.778 64.679 28.1647 65.2657 27.3114C65.863 26.458 66.423 25.5887 66.9457 24.7034ZM76.0498 18.8954L78.0018 18.9914L79.9538 18.8954C80.3485 18.8954 80.6631 18.9914 80.8978 19.1834C81.1431 19.3754 81.2658 19.6367 81.2658 19.9674C81.2658 20.2874 81.1431 20.5434 80.8978 20.7354C80.6631 20.9274 80.3485 21.0234 79.9538 21.0234L79.2018 20.9754C79.1271 22.554 79.0898 23.898 79.0898 25.0074C79.0898 26.106 79.1271 27.4447 79.2018 29.0234C79.5858 28.9807 79.8365 28.9594 79.9538 28.9594C80.3485 28.9594 80.6631 29.0554 80.8978 29.2474C81.1431 29.4394 81.2658 29.7007 81.2658 30.0314C81.2658 30.3514 81.1431 30.6074 80.8978 30.7994C80.6631 30.9914 80.3485 31.0874 79.9538 31.0874L78.0018 30.9914L76.0498 31.1034C75.6445 31.1034 75.3191 31.0074 75.0738 30.8154C74.8391 30.6234 74.7218 30.362 74.7218 30.0314C74.7218 29.7007 74.8391 29.4447 75.0738 29.2634C75.3191 29.0714 75.6445 28.9754 76.0498 28.9754L76.8018 29.0394C76.8765 27.4607 76.9138 26.1167 76.9138 25.0074C76.9138 23.898 76.8765 22.554 76.8018 20.9754C76.4818 21.0074 76.1725 21.0234 75.8738 21.0234C75.5858 21.0234 75.3191 20.9327 75.0738 20.7514C74.8391 20.5594 74.7218 20.298 74.7218 19.9674C74.7218 19.6367 74.8391 19.3754 75.0738 19.1834C75.3191 18.9914 75.6445 18.8954 76.0498 18.8954ZM83.7336 18.8954L86.7736 18.9914L89.8136 18.8954C90.2189 18.8954 90.5389 18.9914 90.7736 19.1834C91.0189 19.3754 91.1416 19.6367 91.1416 19.9674C91.1416 20.298 91.0189 20.5594 90.7736 20.7514C90.5389 20.9434 90.2189 21.0394 89.8136 21.0394L88.0056 20.9434C87.9522 22.3514 87.9256 23.7274 87.9256 25.0714L88.0536 29.4234C88.0536 30.5754 87.6482 31.1514 86.8376 31.1514C86.0269 31.1514 85.6216 30.5754 85.6216 29.4234L85.7496 25.0714C85.7496 24.1967 85.7122 22.8207 85.6376 20.9434L83.7336 21.0394C83.3282 21.0394 83.0029 20.9434 82.7576 20.7514C82.5229 20.5594 82.4056 20.298 82.4056 19.9674C82.4056 19.6367 82.5229 19.3754 82.7576 19.1834C83.0029 18.9914 83.3282 18.8954 83.7336 18.8954ZM102.997 24.1914L104.821 24.2874L106.693 24.1914C107.077 24.1914 107.391 24.314 107.637 24.5594C107.882 24.8047 108.005 25.114 108.005 25.4874C108.005 27.2367 107.535 28.634 106.597 29.6794C105.669 30.714 104.453 31.2314 102.949 31.2314C101.445 31.2314 100.181 30.6234 99.1567 29.4074C98.1327 28.1914 97.6207 26.714 97.6207 24.9754C97.6207 23.2367 98.1487 21.7647 99.2047 20.5594C100.261 19.354 101.594 18.7514 103.205 18.7514C104.239 18.7514 105.178 18.9754 106.021 19.4234C106.863 19.8714 107.285 20.3567 107.285 20.8794C107.285 21.178 107.189 21.418 106.997 21.5994C106.805 21.77 106.559 21.8554 106.261 21.8554C105.962 21.8554 105.679 21.77 105.413 21.5994C105.146 21.418 104.837 21.2367 104.485 21.0554C104.133 20.874 103.706 20.7834 103.205 20.7834C102.245 20.7834 101.45 21.194 100.821 22.0154C100.202 22.8367 99.8927 23.818 99.8927 24.9594C99.8927 26.1007 100.186 27.098 100.773 27.9514C101.37 28.794 102.122 29.2154 103.029 29.2154C103.711 29.2154 104.293 28.9594 104.773 28.4474C105.253 27.9247 105.541 27.194 105.637 26.2554C105.519 26.2447 105.231 26.2394 104.773 26.2394L102.997 26.3194C102.602 26.3194 102.282 26.2234 102.037 26.0314C101.791 25.8287 101.669 25.5674 101.669 25.2474C101.669 24.9167 101.791 24.6607 102.037 24.4794C102.282 24.2874 102.602 24.1914 102.997 24.1914ZM118.479 18.7514C118.916 18.7514 119.257 18.9327 119.503 19.2954C119.759 19.6474 119.887 20.0954 119.887 20.6394C119.887 21.1727 119.737 22.6714 119.439 25.1354C119.439 25.7114 119.497 26.474 119.615 27.4234C119.743 28.362 119.908 28.9007 120.111 29.0394C120.303 29.1674 120.441 29.2474 120.527 29.2794C120.612 29.3114 120.671 29.338 120.703 29.3594C120.756 29.4127 120.783 29.5194 120.783 29.6794C120.783 30.0847 120.644 30.442 120.367 30.7514C120.089 31.0607 119.727 31.2154 119.279 31.2154C118.841 31.2154 118.479 31.0287 118.191 30.6554C117.903 30.2714 117.705 29.786 117.599 29.1994C116.607 30.554 115.444 31.2314 114.111 31.2314C113.396 31.2314 112.756 31.05 112.191 30.6874C111.625 30.314 111.177 29.8287 110.847 29.2314C110.175 28.0154 109.839 26.666 109.839 25.1834C109.839 23.434 110.308 21.9247 111.247 20.6554C112.185 19.386 113.401 18.7514 114.895 18.7514C115.769 18.7514 116.601 18.986 117.391 19.4554C117.551 18.986 117.913 18.7514 118.479 18.7514ZM117.423 25.2794L117.343 21.7594C116.585 21.1087 115.769 20.7834 114.895 20.7834C114.159 20.7834 113.508 21.2047 112.943 22.0474C112.388 22.8794 112.111 23.8874 112.111 25.0714C112.111 26.2554 112.292 27.242 112.655 28.0314C113.028 28.81 113.54 29.1994 114.191 29.1994C114.852 29.1994 115.519 28.762 116.191 27.8874C116.873 27.0127 117.284 26.1434 117.423 25.2794ZM125.385 24.7194L125.481 29.4234C125.481 30.5754 125.081 31.1514 124.281 31.1514C123.385 31.1514 122.937 30.474 122.937 29.1194C122.937 28.0527 123.075 26.6074 123.353 24.7834C123.353 24.282 123.294 23.5194 123.177 22.4954C123.059 21.4714 123.001 20.7247 123.001 20.2554C123.001 19.7754 123.107 19.4127 123.321 19.1674C123.534 18.9114 123.833 18.7834 124.217 18.7834C124.995 18.7834 125.385 19.386 125.385 20.5914C126.27 19.418 127.358 18.8314 128.649 18.8314C129.417 18.8314 130.083 19.018 130.649 19.3914C131.225 19.7647 131.667 20.2607 131.977 20.8794C132.361 20.3034 132.862 19.818 133.481 19.4234C134.099 19.0287 134.766 18.8314 135.481 18.8314C136.686 18.8314 137.619 19.2527 138.281 20.0954C138.953 20.9274 139.289 21.946 139.289 23.1514L139.193 27.2314C139.193 28.2554 139.257 28.826 139.385 28.9434C139.491 29.0394 139.63 29.1034 139.801 29.1354C139.971 29.1674 140.083 29.2207 140.137 29.2954C140.201 29.3594 140.233 29.4554 140.233 29.5834C140.233 30.0314 140.078 30.41 139.769 30.7194C139.47 31.0287 139.118 31.1834 138.713 31.1834C138.041 31.1834 137.577 30.954 137.321 30.4954C137.065 30.026 136.937 29.338 136.937 28.4314L137.017 24.1434C137.017 23.162 136.867 22.3727 136.569 21.7754C136.281 21.178 135.843 20.8794 135.257 20.8794C134.681 20.8794 134.089 21.2687 133.481 22.0474C132.883 22.8154 132.462 23.706 132.217 24.7194L132.313 29.4234C132.313 30.5754 131.913 31.1514 131.113 31.1514C130.217 31.1514 129.769 30.474 129.769 29.1194C129.769 28.0527 129.907 26.6074 130.185 24.7834C130.185 23.5674 130.041 22.6127 129.753 21.9194C129.465 21.226 129.027 20.8794 128.441 20.8794C127.854 20.8794 127.257 21.2687 126.649 22.0474C126.051 22.8154 125.63 23.706 125.385 24.7194ZM150.009 22.3194C150.009 21.9354 149.855 21.5834 149.545 21.2634C149.236 20.9434 148.793 20.7834 148.217 20.7834C147.46 20.7834 146.815 21.1034 146.281 21.7434C145.759 22.3834 145.391 23.1514 145.177 24.0474C145.817 24.1967 146.532 24.2714 147.321 24.2714C148.121 24.2714 148.767 24.1007 149.257 23.7594C149.759 23.418 150.009 22.938 150.009 22.3194ZM151.913 29.0554C151.913 29.4714 151.519 29.9407 150.729 30.4634C149.94 30.9754 149.097 31.2314 148.201 31.2314C147.305 31.2314 146.532 31.0767 145.881 30.7674C145.241 30.4474 144.713 30.0207 144.297 29.4874C143.423 28.3887 142.932 27.0927 142.825 25.5994C142.1 25.3114 141.737 24.8687 141.737 24.2714C141.737 23.9727 141.833 23.7327 142.025 23.5514C142.228 23.3594 142.473 23.2634 142.761 23.2634C142.847 23.2634 142.943 23.2794 143.049 23.3114C143.423 21.9887 144.057 20.9007 144.953 20.0474C145.849 19.1834 146.895 18.7514 148.089 18.7514C149.295 18.7514 150.292 19.098 151.081 19.7914C151.881 20.474 152.281 21.2954 152.281 22.2554C152.281 23.2047 152.041 23.9834 151.561 24.5914C150.655 25.7007 149.252 26.2554 147.353 26.2554C146.724 26.2554 145.993 26.186 145.161 26.0474C145.321 26.9434 145.657 27.6954 146.169 28.3034C146.681 28.9114 147.268 29.2154 147.929 29.2154C148.665 29.2154 149.449 28.9647 150.281 28.4634C150.559 28.2927 150.815 28.2074 151.049 28.2074C151.284 28.2074 151.487 28.2874 151.657 28.4474C151.828 28.6074 151.913 28.81 151.913 29.0554Z" fill="#F3832D"/>
</svg>
