<svg width="201" height="44" viewBox="0 0 201 44" fill="none" xmlns="http://www.w3.org/2000/svg">
<rect x="0.5" y="0.5" width="200" height="43" rx="9.5" fill="#ED1B76"/>
<rect x="0.5" y="0.5" width="200" height="43" rx="9.5" stroke="#E71C4F"/>
<path d="M20.896 28V16.48H23.216L30.288 24.896V16.48H32.416V28H30.096L23.008 19.568V28H20.896ZM36.9765 28C36.5712 28 36.2032 27.8987 35.8725 27.696C35.5418 27.4933 35.2752 27.2267 35.0725 26.896C34.8698 26.5653 34.7685 26.1973 34.7685 25.792V20.928C34.7685 20.5227 34.8698 20.1547 35.0725 19.824C35.2752 19.4933 35.5418 19.2267 35.8725 19.024C36.2032 18.8213 36.5712 18.72 36.9765 18.72H41.9845C42.3898 18.72 42.7578 18.8213 43.0885 19.024C43.4298 19.2267 43.6965 19.4933 43.8885 19.824C44.0912 20.1547 44.1925 20.5227 44.1925 20.928V25.792C44.1925 26.1973 44.0912 26.5653 43.8885 26.896C43.6965 27.2267 43.4352 27.4933 43.1045 27.696C42.7738 27.8987 42.4005 28 41.9845 28H36.9765ZM37.0565 25.904H41.9045C41.9578 25.904 42.0005 25.888 42.0325 25.856C42.0752 25.8133 42.0965 25.7653 42.0965 25.712V21.008C42.0965 20.9547 42.0752 20.912 42.0325 20.88C42.0005 20.8373 41.9578 20.816 41.9045 20.816H37.0565C37.0032 20.816 36.9552 20.8373 36.9125 20.88C36.8805 20.912 36.8645 20.9547 36.8645 21.008V25.712C36.8645 25.7653 36.8805 25.8133 36.9125 25.856C36.9552 25.888 37.0032 25.904 37.0565 25.904ZM46.5346 30.112V26.032H48.6306V27.904C48.6306 28.256 48.54 28.5813 48.3586 28.88C48.1773 29.1893 47.9266 29.4507 47.6066 29.664C47.2866 29.888 46.9293 30.0373 46.5346 30.112ZM56.3303 28V15.68H58.4263V18.72H63.5463C63.9516 18.72 64.3196 18.8213 64.6503 19.024C64.9916 19.2267 65.2583 19.4933 65.4503 19.824C65.6529 20.1547 65.7543 20.5227 65.7543 20.928V25.792C65.7543 26.1973 65.6529 26.5653 65.4503 26.896C65.2583 27.2267 64.9916 27.4933 64.6503 27.696C64.3196 27.8987 63.9516 28 63.5463 28H56.3303ZM58.6183 25.904H63.4663C63.5196 25.904 63.5623 25.888 63.5943 25.856C63.6369 25.8133 63.6583 25.7653 63.6583 25.712V21.008C63.6583 20.9547 63.6369 20.912 63.5943 20.88C63.5623 20.8373 63.5196 20.816 63.4663 20.816H58.6183C58.5649 20.816 58.5169 20.8373 58.4743 20.88C58.4423 20.912 58.4263 20.9547 58.4263 21.008V25.712C58.4263 25.7653 58.4423 25.8133 58.4743 25.856C58.5169 25.888 58.5649 25.904 58.6183 25.904ZM69.7088 28C69.3034 28 68.9301 27.8987 68.5888 27.696C68.2581 27.4933 67.9914 27.2267 67.7888 26.896C67.5968 26.5653 67.5008 26.1973 67.5008 25.792V22.304H74.8288V21.008C74.8288 20.9547 74.8074 20.912 74.7648 20.88C74.7328 20.8373 74.6901 20.816 74.6368 20.816H67.5008V18.72H74.7168C75.1221 18.72 75.4901 18.8213 75.8208 19.024C76.1621 19.2267 76.4288 19.4933 76.6208 19.824C76.8234 20.1547 76.9248 20.5227 76.9248 20.928V28H69.7088ZM69.7888 25.904H74.8288V24.192H69.5968V25.712C69.5968 25.7653 69.6128 25.8133 69.6448 25.856C69.6874 25.888 69.7354 25.904 69.7888 25.904ZM81.0046 28C80.5993 28 80.2313 27.8987 79.9006 27.696C79.57 27.4933 79.3033 27.2267 79.1006 26.896C78.898 26.5653 78.7966 26.1973 78.7966 25.792V20.928C78.7966 20.5227 78.898 20.1547 79.1006 19.824C79.3033 19.4933 79.57 19.2267 79.9006 19.024C80.2313 18.8213 80.5993 18.72 81.0046 18.72H88.2046V20.816H81.0846C81.0313 20.816 80.9833 20.8373 80.9406 20.88C80.9086 20.912 80.8926 20.9547 80.8926 21.008V25.712C80.8926 25.7653 80.9086 25.8133 80.9406 25.856C80.9833 25.888 81.0313 25.904 81.0846 25.904H88.2206V28H81.0046ZM90.2034 28V15.68H92.2994V22.304H93.9474L97.2594 18.72H99.4994V19.296L95.8034 23.36L99.4834 27.424V28H97.2594L93.9474 24.416H92.2994V28H90.2034ZM108.91 28C108.504 28 108.136 27.8987 107.806 27.696C107.475 27.4933 107.208 27.2267 107.006 26.896C106.803 26.5653 106.702 26.1973 106.702 25.792V15.872H108.798V18.72H112.414V20.816H108.798V25.712C108.798 25.7653 108.814 25.8133 108.846 25.856C108.888 25.888 108.936 25.904 108.99 25.904H112.414V28H108.91ZM116.533 28C116.128 28 115.76 27.8987 115.429 27.696C115.099 27.4933 114.832 27.2267 114.629 26.896C114.427 26.5653 114.325 26.1973 114.325 25.792V20.928C114.325 20.5227 114.427 20.1547 114.629 19.824C114.832 19.4933 115.099 19.2267 115.429 19.024C115.76 18.8213 116.128 18.72 116.533 18.72H121.541C121.947 18.72 122.315 18.8213 122.645 19.024C122.987 19.2267 123.253 19.4933 123.445 19.824C123.648 20.1547 123.749 20.5227 123.749 20.928V25.792C123.749 26.1973 123.648 26.5653 123.445 26.896C123.253 27.2267 122.992 27.4933 122.661 27.696C122.331 27.8987 121.957 28 121.541 28H116.533ZM116.613 25.904H121.461C121.515 25.904 121.557 25.888 121.589 25.856C121.632 25.8133 121.653 25.7653 121.653 25.712V21.008C121.653 20.9547 121.632 20.912 121.589 20.88C121.557 20.8373 121.515 20.816 121.461 20.816H116.613C116.56 20.816 116.512 20.8373 116.469 20.88C116.437 20.912 116.421 20.9547 116.421 21.008V25.712C116.421 25.7653 116.437 25.8133 116.469 25.856C116.512 25.888 116.56 25.904 116.613 25.904ZM132.966 31.664V29.552H138.55C138.603 29.552 138.646 29.5307 138.678 29.488C138.721 29.456 138.742 29.4133 138.742 29.36V28H133.622C133.227 28 132.859 27.8987 132.518 27.696C132.187 27.4933 131.921 27.2267 131.718 26.896C131.515 26.5653 131.414 26.1973 131.414 25.792V20.928C131.414 20.5227 131.515 20.1547 131.718 19.824C131.921 19.4933 132.187 19.2267 132.518 19.024C132.859 18.8213 133.227 18.72 133.622 18.72H138.646C139.051 18.72 139.419 18.8213 139.75 19.024C140.081 19.2267 140.342 19.4933 140.534 19.824C140.737 20.1547 140.838 20.5227 140.838 20.928V29.456C140.838 29.872 140.742 30.2453 140.55 30.576C140.358 30.9067 140.091 31.168 139.75 31.36C139.419 31.5627 139.051 31.664 138.646 31.664H132.966ZM133.702 25.904H138.55C138.603 25.904 138.646 25.888 138.678 25.856C138.721 25.8133 138.742 25.7653 138.742 25.712V21.008C138.742 20.9547 138.721 20.912 138.678 20.88C138.646 20.8373 138.603 20.816 138.55 20.816H133.702C133.649 20.816 133.601 20.8373 133.558 20.88C133.526 20.912 133.51 20.9547 133.51 21.008V25.712C133.51 25.7653 133.526 25.8133 133.558 25.856C133.601 25.888 133.649 25.904 133.702 25.904ZM145.016 28C144.611 28 144.238 27.8987 143.896 27.696C143.566 27.4933 143.299 27.2267 143.096 26.896C142.904 26.5653 142.808 26.1973 142.808 25.792V22.304H150.136V21.008C150.136 20.9547 150.115 20.912 150.072 20.88C150.04 20.8373 149.998 20.816 149.944 20.816H142.808V18.72H150.024C150.43 18.72 150.798 18.8213 151.128 19.024C151.47 19.2267 151.736 19.4933 151.928 19.824C152.131 20.1547 152.232 20.5227 152.232 20.928V28H145.016ZM145.096 25.904H150.136V24.192H144.904V25.712C144.904 25.7653 144.92 25.8133 144.952 25.856C144.995 25.888 145.043 25.904 145.096 25.904ZM154.183 28V18.72H165.687C166.103 18.72 166.477 18.8213 166.807 19.024C167.138 19.2267 167.399 19.4933 167.591 19.824C167.794 20.1547 167.895 20.5227 167.895 20.928V28H165.815V21.008C165.815 20.9547 165.794 20.912 165.751 20.88C165.709 20.8373 165.661 20.816 165.607 20.816H162.295C162.242 20.816 162.194 20.8373 162.151 20.88C162.119 20.912 162.103 20.9547 162.103 21.008V28H159.991V21.008C159.991 20.9547 159.97 20.912 159.927 20.88C159.895 20.8373 159.853 20.816 159.799 20.816H156.471C156.418 20.816 156.37 20.8373 156.327 20.88C156.295 20.912 156.279 20.9547 156.279 21.008V28H154.183ZM172.187 28C171.781 28 171.413 27.8987 171.083 27.696C170.752 27.4933 170.485 27.2267 170.283 26.896C170.08 26.5653 169.979 26.1973 169.979 25.792V20.928C169.979 20.5227 170.08 20.1547 170.283 19.824C170.485 19.4933 170.752 19.2267 171.083 19.024C171.413 18.8213 171.781 18.72 172.187 18.72H177.195C177.6 18.72 177.968 18.8213 178.299 19.024C178.64 19.2267 178.907 19.4933 179.099 19.824C179.301 20.1547 179.403 20.5227 179.403 20.928V24.416H172.075V25.712C172.075 25.7653 172.091 25.8133 172.123 25.856C172.165 25.888 172.213 25.904 172.267 25.904H179.403V28H172.187ZM172.075 22.528H177.307V21.008C177.307 20.9547 177.285 20.912 177.243 20.88C177.211 20.8373 177.168 20.816 177.115 20.816H172.267C172.213 20.816 172.165 20.8373 172.123 20.88C172.091 20.912 172.075 20.9547 172.075 21.008V22.528Z" fill="white"/>
</svg>
