<svg width="933" height="90" viewBox="0 0 933 90" fill="none" xmlns="http://www.w3.org/2000/svg">
<path d="M18.3517 89.2798C15.045 89.2798 11.9863 88.4531 9.17567 86.7998C6.365 85.1465 4.133 82.9145 2.47966 80.1038C0.826331 77.2931 -0.000335723 74.2345 -0.000335723 70.9278V18.3518C-0.000335723 14.9624 0.826331 11.9038 2.47966 9.17578C4.133 6.36512 6.365 4.13312 9.17567 2.47978C11.9863 0.826447 15.045 -0.000218391 18.3517 -0.000218391H70.8037C74.193 -0.000218391 77.2517 0.826447 79.9797 2.47978C82.7903 4.13312 85.0223 6.36512 86.6757 9.17578C88.4117 11.9038 89.2797 14.9624 89.2797 18.3518V26.7838H69.8117V19.3438H19.2197V69.9358H69.8117V56.5438H50.4677V37.1998H89.2797V70.9278C89.2797 74.2345 88.4117 77.2931 86.6757 80.1038C85.0223 82.9145 82.7903 85.1465 79.9797 86.7998C77.2517 88.4531 74.193 89.2798 70.8037 89.2798H18.3517ZM111.857 89.2798V18.3518C111.857 14.9624 112.684 11.9038 114.337 9.17578C115.991 6.36512 118.223 4.13312 121.033 2.47978C123.844 0.826447 126.903 -0.000218391 130.209 -0.000218391H182.661C186.051 -0.000218391 189.109 0.826447 191.837 2.47978C194.648 4.13312 196.88 6.36512 198.533 9.17578C200.269 11.9038 201.137 14.9624 201.137 18.3518V89.2798H181.669V60.5118H131.077V89.2798H111.857ZM131.077 41.1678H181.669V19.3438H131.077V41.1678ZM223.946 89.2798V-0.000218391H243.786L274.042 36.0838L304.174 -0.000218391H324.138V89.2798H304.794V29.3878L274.042 66.0918L243.166 29.5118V89.2798H223.946ZM347.913 89.2798V-0.000218391H430.373V19.3438H367.381V34.9678H418.097V54.3118H367.381V69.9358H430.373V89.2798H347.913ZM518.027 89.2798C514.72 89.2798 511.662 88.4531 508.851 86.7998C506.04 85.1465 503.808 82.9145 502.155 80.1038C500.502 77.2931 499.675 74.2345 499.675 70.9278V18.3518C499.675 14.9624 500.502 11.9038 502.155 9.17578C503.808 6.36512 506.04 4.13312 508.851 2.47978C511.662 0.826447 514.72 -0.000218391 518.027 -0.000218391H570.603C573.91 -0.000218391 576.927 0.826447 579.655 2.47978C582.466 4.13312 584.698 6.36512 586.351 9.17578C588.087 11.9038 588.955 14.9624 588.955 18.3518V70.9278C588.955 74.2345 588.087 77.2931 586.351 80.1038C584.698 82.9145 582.466 85.1465 579.655 86.7998C576.927 88.4531 573.91 89.2798 570.603 89.2798H518.027ZM518.895 69.9358H569.487V19.3438H518.895V69.9358ZM656.035 89.2798L604.327 -0.000218391H626.647L664.095 64.8518L701.543 -0.000218391H723.739L672.031 89.2798H656.035ZM740.223 89.2798V-0.000218391H822.683V19.3438H759.691V34.9678H810.407V54.3118H759.691V69.9358H822.683V89.2798H740.223ZM912.908 89.2798L886.992 58.4038H912.164L932.748 82.7078V89.2798H912.908ZM843.592 89.2798V0.12378H914.396C917.785 0.12378 920.844 0.950446 923.572 2.60378C926.383 4.25711 928.615 6.48912 930.268 9.29978C932.004 12.1105 932.872 15.1691 932.872 18.4758V41.5398C932.872 44.8464 932.004 47.9051 930.268 50.7158C928.615 53.5265 926.383 55.7585 923.572 57.4118C920.844 59.0651 917.785 59.8918 914.396 59.8918L862.812 60.0158V89.2798H843.592ZM862.812 40.5478H913.404V19.3438H862.812V40.5478Z" fill="#ED1B76"/>
</svg>
