<svg width="107" height="49" viewBox="0 0 107 49" fill="none" xmlns="http://www.w3.org/2000/svg">
<rect x="1" y="1" width="105" height="47" rx="9" fill="#ED1B76" fill-opacity="0.08"/>
<rect x="1" y="1" width="105" height="47" rx="9" stroke="#E71C4F" stroke-width="2"/>
<path d="M21.14 32V17.6H23.78V23.46H33.22V17.6H35.86V32H33.22V26.14H23.78V32H21.14ZM41.5917 32C41.0851 32 40.6251 31.8733 40.2117 31.62C39.7984 31.3667 39.4651 31.0333 39.2117 30.62C38.9584 30.2067 38.8317 29.7467 38.8317 29.24V23.16C38.8317 22.6533 38.9584 22.1933 39.2117 21.78C39.4651 21.3667 39.7984 21.0333 40.2117 20.78C40.6251 20.5267 41.0851 20.4 41.5917 20.4H47.8517C48.3584 20.4 48.8184 20.5267 49.2317 20.78C49.6584 21.0333 49.9917 21.3667 50.2317 21.78C50.4851 22.1933 50.6117 22.6533 50.6117 23.16V29.24C50.6117 29.7467 50.4851 30.2067 50.2317 30.62C49.9917 31.0333 49.6651 31.3667 49.2517 31.62C48.8384 31.8733 48.3717 32 47.8517 32H41.5917ZM41.6917 29.38H47.7517C47.8184 29.38 47.8717 29.36 47.9117 29.32C47.9651 29.2667 47.9917 29.2067 47.9917 29.14V23.26C47.9917 23.1933 47.9651 23.14 47.9117 23.1C47.8717 23.0467 47.8184 23.02 47.7517 23.02H41.6917C41.6251 23.02 41.5651 23.0467 41.5117 23.1C41.4717 23.14 41.4517 23.1933 41.4517 23.26V29.14C41.4517 29.2067 41.4717 29.2667 41.5117 29.32C41.5651 29.36 41.6251 29.38 41.6917 29.38ZM53.5394 32V20.4H67.9194C68.4394 20.4 68.906 20.5267 69.3194 20.78C69.7327 21.0333 70.0594 21.3667 70.2994 21.78C70.5527 22.1933 70.6794 22.6533 70.6794 23.16V32H68.0794V23.26C68.0794 23.1933 68.0527 23.14 67.9994 23.1C67.946 23.0467 67.886 23.02 67.8194 23.02H63.6794C63.6127 23.02 63.5527 23.0467 63.4994 23.1C63.4594 23.14 63.4394 23.1933 63.4394 23.26V32H60.7994V23.26C60.7994 23.1933 60.7727 23.14 60.7194 23.1C60.6794 23.0467 60.626 23.02 60.5594 23.02H56.3994C56.3327 23.02 56.2727 23.0467 56.2194 23.1C56.1794 23.14 56.1594 23.1933 56.1594 23.26V32H53.5394ZM76.0433 32C75.5366 32 75.0766 31.8733 74.6633 31.62C74.2499 31.3667 73.9166 31.0333 73.6633 30.62C73.4099 30.2067 73.2833 29.7467 73.2833 29.24V23.16C73.2833 22.6533 73.4099 22.1933 73.6633 21.78C73.9166 21.3667 74.2499 21.0333 74.6633 20.78C75.0766 20.5267 75.5366 20.4 76.0433 20.4H82.3033C82.8099 20.4 83.2699 20.5267 83.6833 20.78C84.11 21.0333 84.4433 21.3667 84.6833 21.78C84.9366 22.1933 85.0633 22.6533 85.0633 23.16V27.52H75.9033V29.14C75.9033 29.2067 75.9233 29.2667 75.9633 29.32C76.0166 29.36 76.0766 29.38 76.1433 29.38H85.0633V32H76.0433ZM75.9033 25.16H82.4433V23.26C82.4433 23.1933 82.4166 23.14 82.3633 23.1C82.3233 23.0467 82.2699 23.02 82.2033 23.02H76.1433C76.0766 23.02 76.0166 23.0467 75.9633 23.1C75.9233 23.14 75.9033 23.1933 75.9033 23.26V25.16Z" fill="white"/>
</svg>
