<svg width="26" height="32" viewBox="0 0 26 32" fill="none" xmlns="http://www.w3.org/2000/svg">
<path d="M3.25 32C2.35625 32 1.59115 31.6867 0.954688 31.06C0.318229 30.4333 0 29.68 0 28.8V25.64C0 25.1067 0.121875 24.6133 0.365625 24.16C0.609375 23.7067 0.934375 23.32 1.34062 23C3.20937 21.5067 4.61094 20 5.54531 18.48C6.47969 16.96 7.13646 15.6 7.51562 14.4H4.875C4.41458 14.4 4.02865 14.2467 3.71719 13.94C3.40573 13.6333 3.25 13.2533 3.25 12.8C3.25 12.3467 3.40573 11.9667 3.71719 11.66C4.02865 11.3533 4.41458 11.2 4.875 11.2H6.90625C6.52708 10.6133 6.22917 9.98667 6.0125 9.32C5.79583 8.65333 5.6875 7.94667 5.6875 7.2C5.6875 5.2 6.39844 3.5 7.82031 2.1C9.24219 0.7 10.9688 0 13 0C15.0312 0 16.7578 0.7 18.1797 2.1C19.6016 3.5 20.3125 5.2 20.3125 7.2C20.3125 7.94667 20.2042 8.65333 19.9875 9.32C19.7708 9.98667 19.4729 10.6133 19.0938 11.2H21.125C21.5854 11.2 21.9714 11.3533 22.2828 11.66C22.5943 11.9667 22.75 12.3467 22.75 12.8C22.75 13.2533 22.5943 13.6333 22.2828 13.94C21.9714 14.2467 21.5854 14.4 21.125 14.4H18.4844C18.8635 15.6 19.5203 16.96 20.4547 18.48C21.3891 20 22.7906 21.5067 24.6594 23C25.0656 23.32 25.3906 23.7067 25.6344 24.16C25.8781 24.6133 26 25.1067 26 25.64V28.8C26 29.68 25.6818 30.4333 25.0453 31.06C24.4089 31.6867 23.6437 32 22.75 32H3.25ZM3.25 28.8H22.75V25.6C20.2583 23.68 18.4573 21.7 17.3469 19.66C16.2365 17.62 15.4917 15.8667 15.1125 14.4H10.8875C10.5083 15.8667 9.76354 17.62 8.65313 19.66C7.54271 21.7 5.74167 23.68 3.25 25.6V28.8ZM13 11.2C14.1375 11.2 15.099 10.8133 15.8844 10.04C16.6698 9.26667 17.0625 8.32 17.0625 7.2C17.0625 6.08 16.6698 5.13333 15.8844 4.36C15.099 3.58667 14.1375 3.2 13 3.2C11.8625 3.2 10.901 3.58667 10.1156 4.36C9.33021 5.13333 8.9375 6.08 8.9375 7.2C8.9375 8.32 9.33021 9.26667 10.1156 10.04C10.901 10.8133 11.8625 11.2 13 11.2Z" fill="#097FC5"/>
</svg>
