<svg width="195" height="54" viewBox="0 0 195 54" fill="none" xmlns="http://www.w3.org/2000/svg">
<rect x="1" y="1" width="193" height="52" rx="9" fill="#ED1B76" fill-opacity="0.08"/>
<rect x="1" y="1" width="193" height="52" rx="9" stroke="#E71C4F" stroke-width="2"/>
<mask id="mask0_2106_1772" style="mask-type:alpha" maskUnits="userSpaceOnUse" x="20" y="12" width="30" height="30">
<rect x="20" y="12" width="30" height="30" fill="#D9D9D9"/>
</mask>
<g mask="url(#mask0_2106_1772)">
<path d="M45.1875 28.25H31.25C30.8958 28.25 30.599 28.1302 30.3594 27.8906C30.1198 27.651 30 27.3542 30 27C30 26.6458 30.1198 26.349 30.3594 26.1094C30.599 25.8698 30.8958 25.75 31.25 25.75H45.1875L44.125 24.6875C43.875 24.4375 43.7552 24.1458 43.7656 23.8125C43.776 23.4792 43.8958 23.1875 44.125 22.9375C44.375 22.6875 44.6719 22.5573 45.0156 22.5469C45.3594 22.5365 45.6562 22.6562 45.9062 22.9062L49.125 26.125C49.375 26.375 49.5 26.6667 49.5 27C49.5 27.3333 49.375 27.625 49.125 27.875L45.9062 31.0938C45.6562 31.3438 45.3594 31.4635 45.0156 31.4531C44.6719 31.4427 44.375 31.3125 44.125 31.0625C43.8958 30.8125 43.776 30.5208 43.7656 30.1875C43.7552 29.8542 43.875 29.5625 44.125 29.3125L45.1875 28.25ZM38.75 22V18.25H26.25V35.75H38.75V32C38.75 31.6458 38.8698 31.349 39.1094 31.1094C39.349 30.8698 39.6458 30.75 40 30.75C40.3542 30.75 40.651 30.8698 40.8906 31.1094C41.1302 31.349 41.25 31.6458 41.25 32V35.75C41.25 36.4375 41.0052 37.026 40.5156 37.5156C40.026 38.0052 39.4375 38.25 38.75 38.25H26.25C25.5625 38.25 24.974 38.0052 24.4844 37.5156C23.9948 37.026 23.75 36.4375 23.75 35.75V18.25C23.75 17.5625 23.9948 16.974 24.4844 16.4844C24.974 15.9948 25.5625 15.75 26.25 15.75H38.75C39.4375 15.75 40.026 15.9948 40.5156 16.4844C41.0052 16.974 41.25 17.5625 41.25 18.25V22C41.25 22.3542 41.1302 22.651 40.8906 22.8906C40.651 23.1302 40.3542 23.25 40 23.25C39.6458 23.25 39.349 23.1302 39.1094 22.8906C38.8698 22.651 38.75 22.3542 38.75 22Z" fill="white"/>
</g>
<path d="M61.16 34.5V20.1H74.42V22.76H63.82V25.96H72.34V28.64H63.82V31.84H74.42V34.5H61.16ZM77.0325 34.5V33.8L81.2925 28.6L77.0325 23.6V22.9H79.8725L82.9925 26.58L86.1125 22.9H88.9525V23.6L84.6925 28.6L88.9525 33.8V34.5H86.1325L82.9925 30.66L79.8725 34.5H77.0325ZM91.8002 34.5V22.9H94.4202V34.5H91.8002ZM91.8002 21.74V19.1H94.4202V21.74H91.8002ZM100.087 34.5C99.5805 34.5 99.1205 34.3733 98.7072 34.12C98.2939 33.8667 97.9605 33.5333 97.7072 33.12C97.4539 32.7067 97.3272 32.2467 97.3272 31.74V19.34H99.9472V22.9H104.467V25.52H99.9472V31.64C99.9472 31.7067 99.9672 31.7667 100.007 31.82C100.061 31.86 100.121 31.88 100.187 31.88H104.467V34.5H100.087ZM115.51 39.08V36.44H122.49C122.557 36.44 122.61 36.4133 122.65 36.36C122.703 36.32 122.73 36.2667 122.73 36.2V34.5H116.33C115.837 34.5 115.377 34.3733 114.95 34.12C114.537 33.8667 114.203 33.5333 113.95 33.12C113.697 32.7067 113.57 32.2467 113.57 31.74V25.66C113.57 25.1533 113.697 24.6933 113.95 24.28C114.203 23.8667 114.537 23.5333 114.95 23.28C115.377 23.0267 115.837 22.9 116.33 22.9H122.61C123.117 22.9 123.577 23.0267 123.99 23.28C124.403 23.5333 124.73 23.8667 124.97 24.28C125.223 24.6933 125.35 25.1533 125.35 25.66V36.32C125.35 36.84 125.23 37.3067 124.99 37.72C124.75 38.1333 124.417 38.46 123.99 38.7C123.577 38.9533 123.117 39.08 122.61 39.08H115.51ZM116.43 31.88H122.49C122.557 31.88 122.61 31.86 122.65 31.82C122.703 31.7667 122.73 31.7067 122.73 31.64V25.76C122.73 25.6933 122.703 25.64 122.65 25.6C122.61 25.5467 122.557 25.52 122.49 25.52H116.43C116.363 25.52 116.303 25.5467 116.25 25.6C116.21 25.64 116.19 25.6933 116.19 25.76V31.64C116.19 31.7067 116.21 31.7667 116.25 31.82C116.303 31.86 116.363 31.88 116.43 31.88ZM130.573 34.5C130.066 34.5 129.599 34.3733 129.173 34.12C128.759 33.8667 128.426 33.5333 128.173 33.12C127.933 32.7067 127.813 32.2467 127.813 31.74V27.38H136.973V25.76C136.973 25.6933 136.946 25.64 136.893 25.6C136.853 25.5467 136.799 25.52 136.733 25.52H127.813V22.9H136.833C137.339 22.9 137.799 23.0267 138.213 23.28C138.639 23.5333 138.973 23.8667 139.213 24.28C139.466 24.6933 139.593 25.1533 139.593 25.66V34.5H130.573ZM130.673 31.88H136.973V29.74H130.433V31.64C130.433 31.7067 130.453 31.7667 130.493 31.82C130.546 31.86 130.606 31.88 130.673 31.88ZM142.032 34.5V22.9H156.412C156.932 22.9 157.398 23.0267 157.812 23.28C158.225 23.5333 158.552 23.8667 158.792 24.28C159.045 24.6933 159.172 25.1533 159.172 25.66V34.5H156.572V25.76C156.572 25.6933 156.545 25.64 156.492 25.6C156.438 25.5467 156.378 25.52 156.312 25.52H152.172C152.105 25.52 152.045 25.5467 151.992 25.6C151.952 25.64 151.932 25.6933 151.932 25.76V34.5H149.292V25.76C149.292 25.6933 149.265 25.64 149.212 25.6C149.172 25.5467 149.118 25.52 149.052 25.52H144.892C144.825 25.52 144.765 25.5467 144.712 25.6C144.672 25.64 144.652 25.6933 144.652 25.76V34.5H142.032ZM164.535 34.5C164.029 34.5 163.569 34.3733 163.155 34.12C162.742 33.8667 162.409 33.5333 162.155 33.12C161.902 32.7067 161.775 32.2467 161.775 31.74V25.66C161.775 25.1533 161.902 24.6933 162.155 24.28C162.409 23.8667 162.742 23.5333 163.155 23.28C163.569 23.0267 164.029 22.9 164.535 22.9H170.795C171.302 22.9 171.762 23.0267 172.175 23.28C172.602 23.5333 172.935 23.8667 173.175 24.28C173.429 24.6933 173.555 25.1533 173.555 25.66V30.02H164.395V31.64C164.395 31.7067 164.415 31.7667 164.455 31.82C164.509 31.86 164.569 31.88 164.635 31.88H173.555V34.5H164.535ZM164.395 27.66H170.935V25.76C170.935 25.6933 170.909 25.64 170.855 25.6C170.815 25.5467 170.762 25.52 170.695 25.52H164.635C164.569 25.52 164.509 25.5467 164.455 25.6C164.415 25.64 164.395 25.6933 164.395 25.76V27.66Z" fill="white"/>
</svg>
