<svg width="140" height="61" viewBox="0 0 140 61" fill="none" xmlns="http://www.w3.org/2000/svg">
<rect width="139.657" height="60.6566" fill="#F0EA6E"/>
<mask id="mask0_2034_414" style="mask-type:alpha" maskUnits="userSpaceOnUse" x="20" y="14" width="33" height="33">
<rect x="20" y="16.7863" width="30" height="30" transform="rotate(-5.32904 20 16.7863)" fill="#D9D9D9"/>
</mask>
<g mask="url(#mask0_2034_414)">
<path d="M34.6457 35.507L41.1693 30.4103C41.3444 30.2684 41.4213 30.0834 41.4 29.8552C41.3787 29.627 41.2689 29.4594 41.0706 29.3524L33.717 25.5502C33.496 25.4243 33.2824 25.4338 33.0762 25.5786C32.87 25.7233 32.7785 25.9202 32.8017 26.1691L33.6318 35.068C33.655 35.3169 33.7814 35.4934 34.0108 35.5976C34.2402 35.7017 34.4518 35.6715 34.6457 35.507ZM27.3003 41.2138C26.6157 41.2777 26.007 41.0886 25.4741 40.6466C24.9411 40.2046 24.6427 39.6414 24.5789 38.9568L23.1857 24.0217C23.1219 23.3371 23.311 22.7284 23.753 22.1955C24.195 21.6625 24.7582 21.3641 25.4427 21.3003L45.3563 19.4428C46.0408 19.3789 46.6496 19.568 47.1825 20.01C47.7154 20.452 48.0138 21.0153 48.0777 21.6998L49.4708 36.635C49.5347 37.3195 49.3456 37.9282 48.9036 38.4612C48.4616 38.9941 47.8983 39.2925 47.2138 39.3563L27.3003 41.2138ZM27.0681 38.7246L46.9816 36.8671L45.5885 21.932L25.6749 23.7895L27.0681 38.7246Z" fill="#303131"/>
</g>
<path d="M68.8846 37.0483C67.2859 37.0483 65.8706 36.975 64.6386 36.8283C63.4066 36.6816 62.5193 36.535 61.9766 36.3883V35.7283L61.5366 32.9343C61.8153 33.169 62.2773 33.4183 62.9226 33.6823C63.5679 33.9463 64.3966 34.1736 65.4086 34.3643C66.4206 34.5403 67.594 34.6283 68.9286 34.6283C69.7499 34.6283 70.3806 34.577 70.8206 34.4743C71.2606 34.357 71.5613 34.1956 71.7226 33.9903C71.8839 33.785 71.9646 33.543 71.9646 33.2643C71.9646 32.9123 71.8473 32.641 71.6126 32.4503C71.378 32.245 70.9526 32.0763 70.3366 31.9443C69.7353 31.8123 68.8773 31.673 67.7626 31.5263C66.4279 31.3503 65.3133 31.1083 64.4186 30.8003C63.5239 30.4923 62.8566 30.0596 62.4166 29.5023C61.9766 28.9303 61.7566 28.175 61.7566 27.2363C61.7566 26.4736 61.9546 25.8063 62.3506 25.2343C62.7466 24.6623 63.3846 24.215 64.2646 23.8923C65.1446 23.5696 66.3106 23.4083 67.7626 23.4083C69.2879 23.4083 70.5933 23.4816 71.6786 23.6283C72.764 23.775 73.512 23.9216 73.9226 24.0683V24.7283L74.5826 27.1483C74.216 26.9576 73.688 26.7596 72.9986 26.5543C72.3093 26.349 71.5099 26.1803 70.6006 26.0483C69.6913 25.9016 68.7086 25.8283 67.6526 25.8283C66.9926 25.8283 66.4793 25.887 66.1126 26.0043C65.7459 26.107 65.4819 26.261 65.3206 26.4663C65.1739 26.657 65.1006 26.899 65.1006 27.1923C65.1006 27.5443 65.2326 27.8303 65.4966 28.0503C65.7753 28.2556 66.2226 28.4243 66.8386 28.5563C67.4546 28.6883 68.2833 28.813 69.3246 28.9303C70.9233 29.1063 72.1553 29.3703 73.0206 29.7223C73.886 30.0743 74.48 30.529 74.8026 31.0863C75.1399 31.629 75.3086 32.289 75.3086 33.0663C75.3086 33.741 75.184 34.335 74.9346 34.8483C74.6853 35.347 74.2966 35.7576 73.7686 36.0803C73.2553 36.403 72.588 36.645 71.7666 36.8063C70.9599 36.9676 69.9993 37.0483 68.8846 37.0483ZM81.4918 37.0483C80.4798 37.0483 79.7465 36.8356 79.2918 36.4103C78.8372 35.9703 78.6098 35.259 78.6098 34.2763V28.7323H76.6298V26.5323C77.3045 26.5323 77.8325 26.4516 78.2138 26.2903C78.5952 26.1143 78.8665 25.8136 79.0278 25.3883C79.1892 24.963 79.2698 24.369 79.2698 23.6063H81.7338V26.5323H85.4958C85.3932 26.8256 85.2905 27.1923 85.1878 27.6323C85.0998 28.0576 85.0558 28.4243 85.0558 28.7323H81.7338V33.0663C81.7338 33.741 81.7852 34.203 81.8878 34.4523C81.9905 34.7016 82.2325 34.8263 82.6138 34.8263C82.8632 34.8263 83.1345 34.7383 83.4278 34.5623C83.7358 34.3863 84.0292 34.1736 84.3078 33.9243C84.6012 33.6603 84.8432 33.411 85.0338 33.1763V33.8583L85.2538 35.9923C85.0778 36.139 84.8138 36.3003 84.4618 36.4763C84.1098 36.6376 83.6772 36.7696 83.1638 36.8723C82.6652 36.9896 82.1078 37.0483 81.4918 37.0483ZM90.9214 37.0483C89.6014 37.0483 88.5454 36.7916 87.7534 36.2783C86.9761 35.7503 86.5874 34.907 86.5874 33.7483C86.5874 32.9416 86.7927 32.289 87.2034 31.7903C87.6141 31.2916 88.1714 30.925 88.8754 30.6903C89.5941 30.441 90.4081 30.3163 91.3174 30.3163C91.9921 30.3163 92.5641 30.375 93.0334 30.4923C93.5174 30.6096 93.9061 30.7343 94.1994 30.8663C94.4927 30.9983 94.6834 31.0936 94.7714 31.1523C94.7714 30.5363 94.7054 30.0376 94.5734 29.6563C94.4414 29.2603 94.1994 28.9743 93.8474 28.7983C93.5101 28.6076 93.0334 28.5123 92.4174 28.5123C91.5227 28.5123 90.7307 28.6003 90.0414 28.7763C89.3521 28.9523 88.7874 29.1576 88.3474 29.3923C87.9221 29.627 87.6287 29.825 87.4674 29.9863V29.3263L87.2474 27.1703C87.3501 27.1116 87.6214 27.0163 88.0614 26.8843C88.5014 26.7523 89.1027 26.6276 89.8654 26.5103C90.6281 26.3783 91.5374 26.3123 92.5934 26.3123C94.0454 26.3123 95.1527 26.525 95.9154 26.9503C96.6781 27.361 97.1987 27.955 97.4774 28.7323C97.7707 29.5096 97.9174 30.4483 97.9174 31.5483V35.5083C97.9174 35.919 97.9614 36.2196 98.0494 36.4103C98.1521 36.5863 98.2547 36.7256 98.3574 36.8283H94.7934V36.3663L94.8374 35.9483L94.7934 35.9043C94.6761 36.0363 94.5074 36.1683 94.2874 36.3003C94.0674 36.4323 93.7961 36.557 93.4734 36.6743C93.1507 36.777 92.7767 36.865 92.3514 36.9383C91.9261 37.0116 91.4494 37.0483 90.9214 37.0483ZM91.9554 34.8263C92.5714 34.8263 93.0847 34.7823 93.4954 34.6943C93.9207 34.5916 94.2434 34.4596 94.4634 34.2983C94.6834 34.1223 94.7934 33.917 94.7934 33.6823C94.7934 33.345 94.5367 33.0663 94.0234 32.8463C93.5247 32.6263 92.8427 32.5163 91.9774 32.5163C91.1414 32.5163 90.5474 32.6336 90.1954 32.8683C89.8581 33.103 89.6894 33.3963 89.6894 33.7483C89.6894 34.1883 89.8874 34.4816 90.2834 34.6283C90.6794 34.7603 91.2367 34.8263 91.9554 34.8263ZM100.168 36.8283C100.27 36.8283 100.366 36.7256 100.454 36.5203C100.556 36.315 100.608 35.9776 100.608 35.5083V28.0723C100.608 27.603 100.556 27.273 100.454 27.0823C100.366 26.877 100.27 26.767 100.168 26.7523C100.813 26.7523 101.473 26.7083 102.148 26.6203C102.822 26.5176 103.35 26.415 103.732 26.3123V27.1923L103.688 27.5663L103.732 27.6103C103.834 27.449 103.996 27.273 104.216 27.0823C104.45 26.877 104.744 26.701 105.096 26.5543C105.462 26.393 105.888 26.3123 106.372 26.3123C107.09 26.3123 107.728 26.415 108.286 26.6203C108.843 26.811 109.239 27.009 109.474 27.2143L108.814 30.1623V30.8223C108.594 30.5143 108.293 30.199 107.912 29.8763C107.545 29.5536 107.134 29.2823 106.68 29.0623C106.24 28.8423 105.785 28.7323 105.316 28.7323C104.788 28.7323 104.392 28.923 104.128 29.3043C103.864 29.6856 103.732 30.287 103.732 31.1083V35.5083C103.732 35.9776 103.776 36.315 103.864 36.5203C103.966 36.7256 104.069 36.8283 104.172 36.8283H100.168ZM115.222 37.0483C114.21 37.0483 113.477 36.8356 113.022 36.4103C112.568 35.9703 112.34 35.259 112.34 34.2763V28.7323H110.36V26.5323C111.035 26.5323 111.563 26.4516 111.944 26.2903C112.326 26.1143 112.597 25.8136 112.758 25.3883C112.92 24.963 113 24.369 113 23.6063H115.464V26.5323H119.226C119.124 26.8256 119.021 27.1923 118.918 27.6323C118.83 28.0576 118.786 28.4243 118.786 28.7323H115.464V33.0663C115.464 33.741 115.516 34.203 115.618 34.4523C115.721 34.7016 115.963 34.8263 116.344 34.8263C116.594 34.8263 116.865 34.7383 117.158 34.5623C117.466 34.3863 117.76 34.1736 118.038 33.9243C118.332 33.6603 118.574 33.411 118.764 33.1763V33.8583L118.984 35.9923C118.808 36.139 118.544 36.3003 118.192 36.4763C117.84 36.6376 117.408 36.7696 116.894 36.8723C116.396 36.9896 115.838 37.0483 115.222 37.0483Z" fill="#303131"/>
</svg>
