<svg width="270" height="102" viewBox="0 0 270 102" fill="none" xmlns="http://www.w3.org/2000/svg">
<rect width="269.229" height="101.942" fill="#F0EA6E"/>
<path d="M47.1245 74.334C45.0913 75.3157 43.0042 75.4281 40.8629 74.6713C38.7217 73.9145 37.1199 72.5225 36.0575 70.4953C35.9108 70.1914 35.781 69.8793 35.6681 69.559C35.5552 69.2387 35.4593 68.9102 35.3804 68.5736L31.4322 49.4922C31.0261 47.4395 31.2785 45.4958 32.1894 43.661C33.1002 41.8262 34.4875 40.4589 36.3512 39.5591L56.1741 29.988C58.0378 29.0882 59.9713 28.8522 61.9746 29.2799C63.9778 29.7077 65.6569 30.7189 67.0118 32.3134L79.499 47.2719C79.7135 47.5431 79.9237 47.8269 80.1294 48.1231C80.3351 48.4194 80.5113 48.7195 80.6581 49.0234C81.6527 51.0834 81.7595 53.1868 80.9784 55.3337C80.1974 57.4806 78.7733 59.0531 76.7063 60.0511C75.2832 60.7382 73.7823 61.0048 72.2037 60.8509C70.6251 60.6969 69.2211 60.1256 67.9915 59.1368L65.1498 56.886C64.8173 56.6301 64.4409 56.4995 64.0205 56.4943C63.6002 56.4891 63.2036 56.5764 62.8309 56.7564L53.1736 61.4192C52.8008 61.5992 52.4858 61.8554 52.2285 62.1878C51.9711 62.5203 51.8393 62.8963 51.8329 63.3158L51.8282 66.9409C51.8379 68.5186 51.4121 69.9735 50.551 71.3054C49.6898 72.6373 48.5476 73.6469 47.1245 74.334ZM45.3204 70.208C45.9642 69.8972 46.4672 69.4461 46.8293 68.8548C47.1915 68.2635 47.3696 67.6154 47.3635 66.9104L47.3926 63.3359C47.3954 62.0437 47.7455 60.8648 48.4428 59.7994C49.1401 58.7339 50.0649 57.9231 51.217 57.3668L60.8743 52.704C62.0264 52.1478 63.2405 51.9363 64.5167 52.0697C65.7928 52.2031 66.9466 52.6455 67.9779 53.3968L70.7951 55.597C71.3434 56.0402 71.9617 56.3038 72.6499 56.3879C73.3382 56.472 74.0043 56.3587 74.6481 56.0478C75.5969 55.5897 76.2593 54.8847 76.6354 53.9327C77.0114 52.9808 76.9881 52.0238 76.5655 51.0619C76.5818 51.0957 76.393 50.7912 75.9991 50.1486L63.5364 35.2407C62.8589 34.4434 62.0258 33.9295 61.037 33.699C60.0483 33.4685 59.0795 33.5823 58.1307 34.0404L38.3078 43.6114C37.359 44.0695 36.6589 44.7615 36.2076 45.6874C35.7562 46.6132 35.649 47.5811 35.8859 48.591L39.8096 67.6218C39.8397 67.8572 39.9525 68.1774 40.1482 68.5827C40.6047 69.5282 41.3352 70.1541 42.3397 70.4604C43.3441 70.7666 44.3377 70.6825 45.3204 70.208ZM56.1604 47.4844C56.7365 47.2063 57.1256 46.7789 57.3277 46.2024C57.5299 45.6259 57.4924 45.0507 57.2152 44.4766C56.938 43.9025 56.5109 43.5153 55.9337 43.3151C55.3565 43.1149 54.7799 43.1539 54.2038 43.432C53.6278 43.7102 53.2386 44.1375 53.0365 44.714C52.8343 45.2905 52.8718 45.8658 53.149 46.4399C53.4262 47.0139 53.8534 47.4011 54.4305 47.6013C55.0077 47.8015 55.5844 47.7625 56.1604 47.4844ZM58.27 41.4687C58.8461 41.1906 59.2352 40.7633 59.4374 40.1868C59.6396 39.6103 59.6021 39.035 59.3249 38.4609C59.0477 37.8868 58.6205 37.4997 58.0433 37.2995C57.4661 37.0993 56.8895 37.1382 56.3135 37.4164C55.7374 37.6945 55.3483 38.1218 55.1461 38.6983C54.9439 39.2748 54.9814 39.8501 55.2586 40.4242C55.5358 40.9983 55.963 41.3854 56.5402 41.5856C57.1174 41.7858 57.694 41.7469 58.27 41.4687ZM62.1832 49.5735C62.7593 49.2954 63.1484 48.868 63.3506 48.2915C63.5527 47.715 63.5152 47.1397 63.2381 46.5657C62.9609 45.9916 62.5337 45.6044 61.9565 45.4042C61.3793 45.204 60.8027 45.243 60.2266 45.5211C59.6506 45.7992 59.2615 46.2266 59.0593 46.8031C58.8571 47.3796 58.8946 47.9549 59.1718 48.5289C59.449 49.103 59.8762 49.4902 60.4534 49.6904C61.0306 49.8906 61.6072 49.8516 62.1832 49.5735ZM64.2929 43.5578C64.8689 43.2797 65.258 42.8524 65.4602 42.2759C65.6624 41.6994 65.6249 41.1241 65.3477 40.55C65.0705 39.9759 64.6433 39.5888 64.0661 39.3886C63.489 39.1884 62.9123 39.2273 62.3363 39.5054C61.7602 39.7836 61.3711 40.2109 61.1689 40.7874C60.9668 41.3639 61.0043 41.9392 61.2815 42.5133C61.5586 43.0874 61.9858 43.4745 62.563 43.6747C63.1402 43.8749 63.7168 43.836 64.2929 43.5578ZM47.4623 55.4319C47.9028 55.2192 48.1977 54.8998 48.3472 54.4737C48.4966 54.0476 48.4653 53.615 48.2534 53.176L47.2751 51.1498L49.3082 50.1682C49.7487 49.9555 50.0437 49.6361 50.1931 49.21C50.3425 48.7839 50.3113 48.3513 50.0993 47.9123C49.8873 47.4733 49.5681 47.1798 49.1414 47.0318C48.7148 46.8839 48.2813 46.9162 47.8407 47.1289L45.8076 48.1106L44.8293 46.0844C44.6174 45.6454 44.2981 45.3519 43.8715 45.2039C43.4448 45.0559 43.0113 45.0883 42.5708 45.301C42.1303 45.5137 41.8353 45.8331 41.6859 46.2592C41.5364 46.6853 41.5677 47.1178 41.7797 47.5568L42.758 49.583L40.7248 50.5647C40.2843 50.7774 39.9894 51.0968 39.8399 51.5229C39.6905 51.949 39.7218 52.3815 39.9337 52.8205C40.1457 53.2595 40.465 53.553 40.8916 53.701C41.3182 53.849 41.7518 53.8166 42.1923 53.6039L44.2254 52.6223L45.2037 54.6485C45.4157 55.0875 45.735 55.381 46.1616 55.529C46.5882 55.6769 47.0217 55.6446 47.4623 55.4319Z" fill="#303131"/>
<path d="M106.269 63.9708C106.456 63.9708 106.629 63.7841 106.789 63.4108C106.976 63.0374 107.069 62.4241 107.069 61.5708V42.3708C107.069 41.5174 106.976 40.9174 106.789 40.5708C106.602 40.1974 106.416 39.9974 106.229 39.9708H119.349C121.616 39.9708 123.442 40.3041 124.829 40.9708C126.242 41.6108 127.282 42.5441 127.949 43.7708C128.616 44.9708 128.949 46.4108 128.949 48.0908C128.949 49.7974 128.616 51.2774 127.949 52.5308C127.282 53.7574 126.242 54.7041 124.829 55.3708C123.442 56.0108 121.616 56.3308 119.349 56.3308H113.229V61.5708C113.229 62.4241 113.322 63.0374 113.509 63.4108C113.696 63.7841 113.882 63.9708 114.069 63.9708H106.269ZM114.869 51.9308H116.869C118.442 51.9308 119.656 51.7974 120.509 51.5308C121.389 51.2641 122.002 50.8508 122.349 50.2908C122.696 49.7308 122.869 48.9974 122.869 48.0908C122.869 47.2108 122.682 46.5041 122.309 45.9708C121.962 45.4374 121.376 45.0641 120.549 44.8508C119.749 44.6108 118.656 44.4908 117.269 44.4908H114.869C114.042 44.4908 113.562 44.5441 113.429 44.6508C113.296 44.7308 113.229 45.0374 113.229 45.5708V50.8108C113.229 51.3441 113.296 51.6641 113.429 51.7708C113.562 51.8774 114.042 51.9308 114.869 51.9308ZM132.362 63.9708C132.548 63.9708 132.735 63.7841 132.922 63.4108C133.108 63.0374 133.202 62.4241 133.202 61.5708V38.7708C133.202 37.9174 133.108 37.3041 132.922 36.9308C132.762 36.5574 132.588 36.3708 132.402 36.3708C134.162 36.3708 135.588 36.2908 136.682 36.1308C137.802 35.9441 138.535 35.7574 138.882 35.5708V61.5708C138.882 62.4241 138.962 63.0374 139.122 63.4108C139.308 63.7841 139.495 63.9708 139.682 63.9708H132.362ZM151.17 64.3708C148.77 64.3708 146.85 63.9041 145.41 62.9708C143.996 62.0108 143.29 60.4774 143.29 58.3708C143.29 56.9041 143.663 55.7174 144.41 54.8108C145.156 53.9041 146.17 53.2374 147.45 52.8108C148.756 52.3574 150.236 52.1308 151.89 52.1308C153.116 52.1308 154.156 52.2374 155.01 52.4508C155.89 52.6641 156.596 52.8908 157.13 53.1308C157.663 53.3708 158.01 53.5441 158.17 53.6508C158.17 52.5308 158.05 51.6241 157.81 50.9308C157.57 50.2108 157.13 49.6908 156.49 49.3708C155.876 49.0241 155.01 48.8508 153.89 48.8508C152.263 48.8508 150.823 49.0108 149.57 49.3308C148.316 49.6508 147.29 50.0241 146.49 50.4508C145.716 50.8774 145.183 51.2374 144.89 51.5308V50.3308L144.49 46.4108C144.676 46.3041 145.17 46.1308 145.97 45.8908C146.77 45.6508 147.863 45.4241 149.25 45.2108C150.636 44.9708 152.29 44.8508 154.21 44.8508C156.85 44.8508 158.863 45.2374 160.25 46.0108C161.636 46.7574 162.583 47.8374 163.09 49.2508C163.623 50.6641 163.89 52.3708 163.89 54.3708V61.5708C163.89 62.3174 163.97 62.8641 164.13 63.2108C164.316 63.5308 164.503 63.7841 164.69 63.9708H158.21V63.1308L158.29 62.3708L158.21 62.2908C157.996 62.5308 157.69 62.7708 157.29 63.0108C156.89 63.2508 156.396 63.4774 155.81 63.6908C155.223 63.8774 154.543 64.0374 153.77 64.1708C152.996 64.3041 152.13 64.3708 151.17 64.3708ZM153.05 60.3308C154.17 60.3308 155.103 60.2508 155.85 60.0908C156.623 59.9041 157.21 59.6641 157.61 59.3708C158.01 59.0508 158.21 58.6774 158.21 58.2508C158.21 57.6374 157.743 57.1308 156.81 56.7308C155.903 56.3308 154.663 56.1308 153.09 56.1308C151.57 56.1308 150.49 56.3441 149.85 56.7708C149.236 57.1974 148.93 57.7308 148.93 58.3708C148.93 59.1708 149.29 59.7041 150.01 59.9708C150.73 60.2108 151.743 60.3308 153.05 60.3308ZM168.461 73.7308C166.861 73.7308 165.594 73.5708 164.661 73.2508C163.728 72.9308 163.128 72.6241 162.861 72.3308L163.661 66.1308V64.9308C163.981 65.6241 164.421 66.3441 164.981 67.0908C165.514 67.8374 166.141 68.4641 166.861 68.9708C167.581 69.4774 168.328 69.7308 169.101 69.7308C169.634 69.7308 170.114 69.6108 170.541 69.3708C170.994 69.1574 171.408 68.8108 171.781 68.3308C172.181 67.8508 172.568 67.2508 172.941 66.5308C173.474 65.4641 173.808 64.7308 173.941 64.3308C173.781 64.1174 173.514 63.6241 173.141 62.8508C172.794 62.0774 172.368 61.1441 171.861 60.0508C171.381 58.9308 170.861 57.7574 170.301 56.5308C169.768 55.2774 169.248 54.0641 168.741 52.8908C168.261 51.7174 167.821 50.6774 167.421 49.7708C167.048 48.8641 166.768 48.1974 166.581 47.7708C166.208 46.8641 165.834 46.2241 165.461 45.8508C165.061 45.4508 164.754 45.2508 164.541 45.2508H172.741C172.608 45.2508 172.514 45.4374 172.461 45.8108C172.408 46.1841 172.501 46.8374 172.741 47.7708C172.874 48.2774 173.088 48.9974 173.381 49.9308C173.674 50.8374 174.008 51.8374 174.381 52.9308C174.781 54.0241 175.181 55.1308 175.581 56.2508C176.008 57.3708 176.394 58.3974 176.741 59.3308H176.781C177.154 58.3441 177.541 57.2774 177.941 56.1308C178.368 54.9574 178.781 53.8108 179.181 52.6908C179.608 51.5708 179.968 50.5708 180.261 49.6908C180.581 48.8108 180.821 48.1441 180.981 47.6908C181.274 46.7841 181.394 46.1574 181.341 45.8108C181.288 45.4374 181.168 45.2508 180.981 45.2508H188.941C188.728 45.2508 188.434 45.4374 188.061 45.8108C187.714 46.1574 187.381 46.7708 187.061 47.6508C186.874 48.1308 186.568 48.9174 186.141 50.0108C185.714 51.1041 185.208 52.3574 184.621 53.7708C184.034 55.1841 183.421 56.6374 182.781 58.1308C182.141 59.6241 181.514 61.0374 180.901 62.3708C180.314 63.6774 179.794 64.7574 179.341 65.6108C178.434 67.3708 177.488 68.8508 176.501 70.0508C175.514 71.2508 174.381 72.1574 173.101 72.7708C171.821 73.4108 170.274 73.7308 168.461 73.7308Z" fill="#303131"/>
<path d="M209.229 48.9708C208.124 48.9708 207.229 49.8662 207.229 50.9708C207.229 52.0753 208.124 52.9708 209.229 52.9708V50.9708V48.9708ZM246.643 52.385C247.424 51.6039 247.424 50.3376 246.643 49.5566L233.915 36.8286C233.134 36.0476 231.868 36.0476 231.087 36.8286C230.306 37.6097 230.306 38.876 231.087 39.6571L242.4 50.9708L231.087 62.2845C230.306 63.0655 230.306 64.3319 231.087 65.1129C231.868 65.8939 233.134 65.8939 233.915 65.1129L246.643 52.385ZM209.229 50.9708V52.9708H245.229V50.9708V48.9708H209.229V50.9708Z" fill="#303131"/>
</svg>
