<svg width="493" height="81" viewBox="0 0 493 81" fill="none" xmlns="http://www.w3.org/2000/svg">
<rect width="492.082" height="81" fill="#F6F6F6"/>
<path d="M26.96 34.8V47.5H25.14V34.8H20.42V33.18H31.64V34.8H26.96ZM33.3722 33.18H34.9922V38.66C35.4855 38.0467 35.9789 37.62 36.4722 37.38C36.9655 37.1267 37.5789 37 38.3122 37C39.3122 37 40.0989 37.2533 40.6722 37.76C41.2455 38.2533 41.5322 38.9333 41.5322 39.8V47.5H39.9122V40.46C39.9122 39.74 39.6922 39.2133 39.2522 38.88C38.8389 38.5733 38.3522 38.42 37.7922 38.42C36.9522 38.42 36.2722 38.7333 35.7522 39.36C35.2455 39.9867 34.9922 40.82 34.9922 41.86V47.5H33.3722V33.18ZM52.9702 42.84H45.3902C45.4035 43.72 45.5902 44.42 45.9502 44.94C46.5235 45.78 47.3502 46.2 48.4302 46.2C49.7635 46.2 50.6635 45.5667 51.1302 44.3H52.7702C52.5568 45.38 52.0635 46.22 51.2902 46.82C50.5168 47.42 49.5435 47.72 48.3702 47.72C46.8102 47.72 45.6168 47.1867 44.7902 46.12C44.0568 45.1867 43.6902 43.9533 43.6902 42.42C43.6902 40.6467 44.1702 39.2667 45.1302 38.28C45.9702 37.4267 47.0568 37 48.3902 37C49.3635 37 50.2168 37.2333 50.9502 37.7C51.6968 38.1667 52.2302 38.8067 52.5502 39.62C52.8302 40.3133 52.9702 41.3667 52.9702 42.78V42.84ZM51.2102 41.5C51.2102 40.6067 50.9435 39.8867 50.4102 39.34C49.8902 38.78 49.2168 38.5 48.3902 38.5C47.5502 38.5 46.8635 38.7733 46.3302 39.32C45.8102 39.8533 45.5168 40.58 45.4502 41.5H51.2102ZM55.2081 37.22H56.7281V38.7C57.5281 37.5667 58.5815 37 59.8881 37C61.1548 37 62.0748 37.5067 62.6481 38.52C63.1415 37.9467 63.6148 37.5533 64.0681 37.34C64.5348 37.1133 65.1081 37 65.7881 37C67.7881 37 68.7881 37.94 68.7881 39.82V47.5H67.1481V40.46C67.1481 39.1 66.5081 38.42 65.2281 38.42C64.5615 38.42 63.9948 38.68 63.5281 39.2C63.0615 39.72 62.8281 40.34 62.8281 41.06V47.5H61.1881V40.46C61.1881 39.1 60.5548 38.42 59.2881 38.42C58.6081 38.42 58.0281 38.68 57.5481 39.2C57.0815 39.7067 56.8481 40.3267 56.8481 41.06V47.5H55.2081V37.22ZM80.2553 42.84H72.6753C72.6886 43.72 72.8753 44.42 73.2353 44.94C73.8086 45.78 74.6353 46.2 75.7153 46.2C77.0486 46.2 77.9486 45.5667 78.4153 44.3H80.0553C79.842 45.38 79.3486 46.22 78.5753 46.82C77.802 47.42 76.8286 47.72 75.6553 47.72C74.0953 47.72 72.902 47.1867 72.0753 46.12C71.342 45.1867 70.9753 43.9533 70.9753 42.42C70.9753 40.6467 71.4553 39.2667 72.4153 38.28C73.2553 37.4267 74.342 37 75.6753 37C76.6486 37 77.502 37.2333 78.2353 37.7C78.982 38.1667 79.5153 38.8067 79.8353 39.62C80.1153 40.3133 80.2553 41.3667 80.2553 42.78V42.84ZM78.4953 41.5C78.4953 40.6067 78.2286 39.8867 77.6953 39.34C77.1753 38.78 76.502 38.5 75.6753 38.5C74.8353 38.5 74.1486 38.7733 73.6153 39.32C73.0953 39.8533 72.802 40.58 72.7353 41.5H78.4953Z" fill="#303131"/>
<line x1="120.315" y1="15.4036" x2="101.774" y2="68.2452" stroke="#F0EA6E" stroke-width="8"/>
<path d="M136.141 41.44V47.5H134.321V33.18H140.241C141.748 33.18 142.881 33.5933 143.641 34.42C144.308 35.14 144.641 36.1267 144.641 37.38C144.641 38.6467 144.234 39.6533 143.421 40.4C142.674 41.0933 141.748 41.44 140.641 41.44H136.141ZM136.141 39.82H139.961C140.828 39.82 141.508 39.6 142.001 39.16C142.494 38.72 142.741 38.1 142.741 37.3C142.741 36.5133 142.494 35.9 142.001 35.46C141.508 35.02 140.828 34.8 139.961 34.8H136.141V39.82ZM148.626 33.18V47.5H146.986V33.18H148.626ZM160.502 46.12V47.44C160.049 47.6 159.695 47.68 159.442 47.68C158.375 47.68 157.795 47.1933 157.702 46.22C156.969 47.22 155.802 47.72 154.202 47.72C153.095 47.72 152.235 47.4133 151.622 46.8C151.089 46.2667 150.822 45.58 150.822 44.74C150.822 43.78 151.162 43.04 151.842 42.52C152.229 42.2267 153.035 41.94 154.262 41.66L157.622 40.9L157.642 40.04C157.642 39.0133 156.869 38.5 155.322 38.5C153.842 38.5 153.049 39.1 152.942 40.3H151.282C151.322 39.3933 151.549 38.7 151.962 38.22C152.669 37.4067 153.815 37 155.402 37C157.975 37 159.262 37.9333 159.262 39.8V45.54C159.262 46.0467 159.482 46.3 159.922 46.3C159.975 46.3 160.115 46.26 160.342 46.18C160.422 46.1533 160.475 46.1333 160.502 46.12ZM157.642 42.24L155.002 42.92C154.055 43.16 153.402 43.4067 153.042 43.66C152.695 43.9133 152.522 44.2667 152.522 44.72C152.522 45.7733 153.202 46.3 154.562 46.3C155.522 46.3 156.335 45.9867 157.002 45.36C157.429 44.9733 157.642 44.5333 157.642 44.04V42.24ZM168.56 37.22H170.32L165.74 49.66C165.206 51.0733 164.32 51.78 163.08 51.78C162.493 51.78 161.98 51.6467 161.54 51.38L161.86 49.96C162.193 50.0933 162.52 50.16 162.84 50.16C163.48 50.16 163.926 49.8267 164.18 49.16L164.8 47.52L161.32 37.22H163.08L165.7 45.22L168.56 37.22ZM180.804 42.84H173.224C173.237 43.72 173.424 44.42 173.784 44.94C174.357 45.78 175.184 46.2 176.264 46.2C177.597 46.2 178.497 45.5667 178.964 44.3H180.604C180.391 45.38 179.897 46.22 179.124 46.82C178.351 47.42 177.377 47.72 176.204 47.72C174.644 47.72 173.451 47.1867 172.624 46.12C171.891 45.1867 171.524 43.9533 171.524 42.42C171.524 40.6467 172.004 39.2667 172.964 38.28C173.804 37.4267 174.891 37 176.224 37C177.197 37 178.051 37.2333 178.784 37.7C179.531 38.1667 180.064 38.8067 180.384 39.62C180.664 40.3133 180.804 41.3667 180.804 42.78V42.84ZM179.044 41.5C179.044 40.6067 178.777 39.8867 178.244 39.34C177.724 38.78 177.051 38.5 176.224 38.5C175.384 38.5 174.697 38.7733 174.164 39.32C173.644 39.8533 173.351 40.58 173.284 41.5H179.044ZM183.022 37.22H184.542V39.1C185.142 37.6867 186.089 36.98 187.382 36.98C187.542 36.98 187.735 37 187.962 37.04V38.72C186.895 38.7333 186.162 38.8867 185.762 39.18C185.029 39.7133 184.662 40.7067 184.662 42.16V47.5H183.022V37.22Z" fill="#303131"/>
<line x1="226.856" y1="15.4036" x2="208.315" y2="68.2452" stroke="#F0EA6E" stroke-width="8"/>
<path d="M240.642 47.5V33.18H246.462C247.795 33.18 248.828 33.5133 249.562 34.18C250.322 34.8733 250.702 35.7533 250.702 36.82C250.702 38.2867 250.035 39.3267 248.702 39.94C250.448 40.6067 251.322 41.7667 251.322 43.42C251.322 44.5667 250.955 45.5267 250.222 46.3C249.462 47.1 248.415 47.5 247.082 47.5H240.642ZM242.462 39.34H246.002C246.935 39.34 247.628 39.1733 248.082 38.84C248.602 38.4533 248.862 37.8667 248.862 37.08C248.862 36.2933 248.602 35.7 248.082 35.3C247.628 34.9667 246.935 34.8 246.002 34.8H242.462V39.34ZM242.462 45.88H246.922C247.735 45.88 248.368 45.6667 248.822 45.24C249.275 44.8 249.502 44.1933 249.502 43.42C249.502 42.6467 249.275 42.0467 248.822 41.62C248.368 41.18 247.735 40.96 246.922 40.96H242.462V45.88ZM257.587 37C259.134 37 260.314 37.54 261.127 38.62C261.847 39.5533 262.207 40.82 262.207 42.42C262.207 44.2067 261.741 45.5667 260.807 46.5C260.007 47.3133 258.927 47.72 257.567 47.72C255.994 47.72 254.794 47.1933 253.967 46.14C253.247 45.22 252.887 43.98 252.887 42.42C252.887 40.6067 253.361 39.2133 254.307 38.24C255.121 37.4133 256.214 37 257.587 37ZM257.587 38.5C256.654 38.5 255.921 38.8533 255.387 39.56C254.854 40.2533 254.587 41.2067 254.587 42.42C254.587 43.6867 254.887 44.6533 255.487 45.32C256.007 45.9067 256.701 46.2 257.567 46.2C258.487 46.2 259.201 45.8667 259.707 45.2C260.227 44.5333 260.487 43.6067 260.487 42.42C260.487 41.1133 260.194 40.1133 259.607 39.42C259.101 38.8067 258.427 38.5 257.587 38.5ZM273.605 46.12V47.44C273.152 47.6 272.799 47.68 272.545 47.68C271.479 47.68 270.899 47.1933 270.805 46.22C270.072 47.22 268.905 47.72 267.305 47.72C266.199 47.72 265.339 47.4133 264.725 46.8C264.192 46.2667 263.925 45.58 263.925 44.74C263.925 43.78 264.265 43.04 264.945 42.52C265.332 42.2267 266.139 41.94 267.365 41.66L270.725 40.9L270.745 40.04C270.745 39.0133 269.972 38.5 268.425 38.5C266.945 38.5 266.152 39.1 266.045 40.3H264.385C264.425 39.3933 264.652 38.7 265.065 38.22C265.772 37.4067 266.919 37 268.505 37C271.079 37 272.365 37.9333 272.365 39.8V45.54C272.365 46.0467 272.585 46.3 273.025 46.3C273.079 46.3 273.219 46.26 273.445 46.18C273.525 46.1533 273.579 46.1333 273.605 46.12ZM270.745 42.24L268.105 42.92C267.159 43.16 266.505 43.4067 266.145 43.66C265.799 43.9133 265.625 44.2667 265.625 44.72C265.625 45.7733 266.305 46.3 267.665 46.3C268.625 46.3 269.439 45.9867 270.105 45.36C270.532 44.9733 270.745 44.5333 270.745 44.04V42.24ZM275.383 37.22H276.903V39.1C277.503 37.6867 278.45 36.98 279.743 36.98C279.903 36.98 280.097 37 280.323 37.04V38.72C279.257 38.7333 278.523 38.8867 278.123 39.18C277.39 39.7133 277.023 40.7067 277.023 42.16V47.5H275.383V37.22ZM290.306 33.18V47.5H288.666V46.08C288.013 47.1867 287 47.74 285.626 47.74C284.12 47.74 282.96 47.1933 282.146 46.1C281.44 45.14 281.086 43.8733 281.086 42.3C281.086 40.58 281.546 39.2333 282.466 38.26C283.253 37.42 284.273 37 285.526 37C286.913 37 287.96 37.52 288.666 38.56V33.18H290.306ZM285.806 38.52C284.9 38.52 284.166 38.88 283.606 39.6C283.06 40.3067 282.786 41.2467 282.786 42.42C282.786 43.6333 283.106 44.5867 283.746 45.28C284.293 45.8933 284.986 46.2 285.826 46.2C286.693 46.2 287.38 45.86 287.886 45.18C288.406 44.5 288.666 43.58 288.666 42.42C288.666 41.1533 288.373 40.1667 287.786 39.46C287.266 38.8333 286.606 38.52 285.806 38.52ZM303.836 40.04H302.036C301.983 39.0133 301.296 38.5 299.976 38.5C299.296 38.5 298.756 38.6333 298.356 38.9C297.969 39.1533 297.776 39.5 297.776 39.94C297.776 40.6067 298.409 41.0867 299.676 41.38L301.256 41.74C302.283 41.98 303.023 42.32 303.476 42.76C303.929 43.2 304.156 43.8 304.156 44.56C304.156 45.5333 303.776 46.3067 303.016 46.88C302.256 47.44 301.229 47.72 299.936 47.72C298.523 47.72 297.449 47.3867 296.716 46.72C296.103 46.1733 295.776 45.4467 295.736 44.54H297.596C297.703 45.0067 297.849 45.3467 298.036 45.56C298.396 45.9867 299.069 46.2 300.056 46.2C300.789 46.2 301.369 46.0667 301.796 45.8C302.236 45.52 302.456 45.1533 302.456 44.7C302.456 44.02 301.929 43.5533 300.876 43.3L299.336 42.94C298.163 42.66 297.343 42.3267 296.876 41.94C296.343 41.5 296.076 40.8667 296.076 40.04C296.076 39.1067 296.429 38.3667 297.136 37.82C297.856 37.2733 298.816 37 300.016 37C301.269 37 302.243 37.3133 302.936 37.94C303.536 38.4867 303.836 39.1867 303.836 40.04ZM307.9 37.22V47.5H306.28V37.22H307.9ZM307.12 33.2C307.4 33.2 307.634 33.3 307.82 33.5C308.02 33.6867 308.12 33.9133 308.12 34.18C308.12 34.46 308.02 34.7 307.82 34.9C307.634 35.0867 307.4 35.18 307.12 35.18C306.854 35.18 306.62 35.0867 306.42 34.9C306.234 34.7 306.14 34.46 306.14 34.18C306.14 33.9133 306.234 33.6867 306.42 33.5C306.62 33.3 306.854 33.2 307.12 33.2ZM318.036 37.22V38.68L311.916 46.06H318.296V47.5H309.936V46.02L316.076 38.66H310.356V37.22H318.036ZM329.22 42.84H321.64C321.653 43.72 321.84 44.42 322.2 44.94C322.773 45.78 323.6 46.2 324.68 46.2C326.013 46.2 326.913 45.5667 327.38 44.3H329.02C328.807 45.38 328.313 46.22 327.54 46.82C326.767 47.42 325.793 47.72 324.62 47.72C323.06 47.72 321.867 47.1867 321.04 46.12C320.307 45.1867 319.94 43.9533 319.94 42.42C319.94 40.6467 320.42 39.2667 321.38 38.28C322.22 37.4267 323.307 37 324.64 37C325.613 37 326.467 37.2333 327.2 37.7C327.947 38.1667 328.48 38.8067 328.8 39.62C329.08 40.3133 329.22 41.3667 329.22 42.78V42.84ZM327.46 41.5C327.46 40.6067 327.193 39.8867 326.66 39.34C326.14 38.78 325.467 38.5 324.64 38.5C323.8 38.5 323.113 38.7733 322.58 39.32C322.06 39.8533 321.767 40.58 321.7 41.5H327.46Z" fill="#303131"/>
<rect width="126" height="53" transform="translate(346.082 14)" fill="#DBDBD6"/>
<mask id="mask0_2062_2747" style="mask-type:alpha" maskUnits="userSpaceOnUse" x="366" y="28" width="25" height="25">
<rect x="366.082" y="28.5" width="24" height="24" fill="#D9D9D9"/>
</mask>
<g mask="url(#mask0_2062_2747)">
<path d="M376.357 44.5L381.932 40.925C382.082 40.825 382.157 40.6833 382.157 40.5C382.157 40.3167 382.082 40.175 381.932 40.075L376.357 36.5C376.19 36.3833 376.019 36.375 375.844 36.475C375.669 36.575 375.582 36.725 375.582 36.925V44.075C375.582 44.275 375.669 44.425 375.844 44.525C376.019 44.625 376.19 44.6167 376.357 44.5ZM370.082 48.5C369.532 48.5 369.061 48.3042 368.669 47.9125C368.278 47.5208 368.082 47.05 368.082 46.5V34.5C368.082 33.95 368.278 33.4792 368.669 33.0875C369.061 32.6958 369.532 32.5 370.082 32.5H386.082C386.632 32.5 387.103 32.6958 387.494 33.0875C387.886 33.4792 388.082 33.95 388.082 34.5V46.5C388.082 47.05 387.886 47.5208 387.494 47.9125C387.103 48.3042 386.632 48.5 386.082 48.5H370.082ZM370.082 46.5H386.082V34.5H370.082V46.5Z" fill="#A3A1A1"/>
</g>
<path d="M405.562 47.2C404.108 47.2 402.822 47.1333 401.702 47C400.582 46.8667 399.775 46.7333 399.282 46.6V46L398.882 43.46C399.135 43.6733 399.555 43.9 400.142 44.14C400.728 44.38 401.482 44.5867 402.402 44.76C403.322 44.92 404.388 45 405.602 45C406.348 45 406.922 44.9533 407.322 44.86C407.722 44.7533 407.995 44.6067 408.142 44.42C408.288 44.2333 408.362 44.0133 408.362 43.76C408.362 43.44 408.255 43.1933 408.042 43.02C407.828 42.8333 407.442 42.68 406.882 42.56C406.335 42.44 405.555 42.3133 404.542 42.18C403.328 42.02 402.315 41.8 401.502 41.52C400.688 41.24 400.082 40.8467 399.682 40.34C399.282 39.82 399.082 39.1333 399.082 38.28C399.082 37.5867 399.262 36.98 399.622 36.46C399.982 35.94 400.562 35.5333 401.362 35.24C402.162 34.9467 403.222 34.8 404.542 34.8C405.928 34.8 407.115 34.8667 408.102 35C409.088 35.1333 409.768 35.2667 410.142 35.4V36L410.742 38.2C410.408 38.0267 409.928 37.8467 409.302 37.66C408.675 37.4733 407.948 37.32 407.122 37.2C406.295 37.0667 405.402 37 404.442 37C403.842 37 403.375 37.0533 403.042 37.16C402.708 37.2533 402.468 37.3933 402.322 37.58C402.188 37.7533 402.122 37.9733 402.122 38.24C402.122 38.56 402.242 38.82 402.482 39.02C402.735 39.2067 403.142 39.36 403.702 39.48C404.262 39.6 405.015 39.7133 405.962 39.82C407.415 39.98 408.535 40.22 409.322 40.54C410.108 40.86 410.648 41.2733 410.942 41.78C411.248 42.2733 411.402 42.8733 411.402 43.58C411.402 44.1933 411.288 44.7333 411.062 45.2C410.835 45.6533 410.482 46.0267 410.002 46.32C409.535 46.6133 408.928 46.8333 408.182 46.98C407.448 47.1267 406.575 47.2 405.562 47.2ZM417.023 47.2C416.103 47.2 415.436 47.0067 415.023 46.62C414.61 46.22 414.403 45.5733 414.403 44.68V39.64H412.603V37.64C413.216 37.64 413.696 37.5667 414.043 37.42C414.39 37.26 414.636 36.9867 414.783 36.6C414.93 36.2133 415.003 35.6733 415.003 34.98H417.243V37.64H420.663C420.57 37.9067 420.476 38.24 420.383 38.64C420.303 39.0267 420.263 39.36 420.263 39.64H417.243V43.58C417.243 44.1933 417.29 44.6133 417.383 44.84C417.476 45.0667 417.696 45.18 418.043 45.18C418.27 45.18 418.516 45.1 418.783 44.94C419.063 44.78 419.33 44.5867 419.583 44.36C419.85 44.12 420.07 43.8933 420.243 43.68V44.3L420.443 46.24C420.283 46.3733 420.043 46.52 419.723 46.68C419.403 46.8267 419.01 46.9467 418.543 47.04C418.09 47.1467 417.583 47.2 417.023 47.2ZM425.595 47.2C424.395 47.2 423.435 46.9667 422.715 46.5C422.009 46.02 421.655 45.2533 421.655 44.2C421.655 43.4667 421.842 42.8733 422.215 42.42C422.589 41.9667 423.095 41.6333 423.735 41.42C424.389 41.1933 425.129 41.08 425.955 41.08C426.569 41.08 427.089 41.1333 427.515 41.24C427.955 41.3467 428.309 41.46 428.575 41.58C428.842 41.7 429.015 41.7867 429.095 41.84C429.095 41.28 429.035 40.8267 428.915 40.48C428.795 40.12 428.575 39.86 428.255 39.7C427.949 39.5267 427.515 39.44 426.955 39.44C426.142 39.44 425.422 39.52 424.795 39.68C424.169 39.84 423.655 40.0267 423.255 40.24C422.869 40.4533 422.602 40.6333 422.455 40.78V40.18L422.255 38.22C422.349 38.1667 422.595 38.08 422.995 37.96C423.395 37.84 423.942 37.7267 424.635 37.62C425.329 37.5 426.155 37.44 427.115 37.44C428.435 37.44 429.442 37.6333 430.135 38.02C430.829 38.3933 431.302 38.9333 431.555 39.64C431.822 40.3467 431.955 41.2 431.955 42.2V45.8C431.955 46.1733 431.995 46.4467 432.075 46.62C432.169 46.78 432.262 46.9067 432.355 47H429.115V46.58L429.155 46.2L429.115 46.16C429.009 46.28 428.855 46.4 428.655 46.52C428.455 46.64 428.209 46.7533 427.915 46.86C427.622 46.9533 427.282 47.0333 426.895 47.1C426.509 47.1667 426.075 47.2 425.595 47.2ZM426.535 45.18C427.095 45.18 427.562 45.14 427.935 45.06C428.322 44.9667 428.615 44.8467 428.815 44.7C429.015 44.54 429.115 44.3533 429.115 44.14C429.115 43.8333 428.882 43.58 428.415 43.38C427.962 43.18 427.342 43.08 426.555 43.08C425.795 43.08 425.255 43.1867 424.935 43.4C424.629 43.6133 424.475 43.88 424.475 44.2C424.475 44.6 424.655 44.8667 425.015 45C425.375 45.12 425.882 45.18 426.535 45.18ZM434.001 47C434.094 47 434.181 46.9067 434.261 46.72C434.354 46.5333 434.401 46.2267 434.401 45.8V39.04C434.401 38.6133 434.354 38.3133 434.261 38.14C434.181 37.9533 434.094 37.8533 434.001 37.84C434.588 37.84 435.188 37.8 435.801 37.72C436.414 37.6267 436.894 37.5333 437.241 37.44V38.24L437.201 38.58L437.241 38.62C437.334 38.4733 437.481 38.3133 437.681 38.14C437.894 37.9533 438.161 37.7933 438.481 37.66C438.814 37.5133 439.201 37.44 439.641 37.44C440.294 37.44 440.874 37.5333 441.381 37.72C441.888 37.8933 442.248 38.0733 442.461 38.26L441.861 40.94V41.54C441.661 41.26 441.388 40.9733 441.041 40.68C440.708 40.3867 440.334 40.14 439.921 39.94C439.521 39.74 439.108 39.64 438.681 39.64C438.201 39.64 437.841 39.8133 437.601 40.16C437.361 40.5067 437.241 41.0533 437.241 41.8V45.8C437.241 46.2267 437.281 46.5333 437.361 46.72C437.454 46.9067 437.548 47 437.641 47H434.001ZM447.687 47.2C446.767 47.2 446.1 47.0067 445.687 46.62C445.274 46.22 445.067 45.5733 445.067 44.68V39.64H443.267V37.64C443.88 37.64 444.36 37.5667 444.707 37.42C445.054 37.26 445.3 36.9867 445.447 36.6C445.594 36.2133 445.667 35.6733 445.667 34.98H447.907V37.64H451.327C451.234 37.9067 451.14 38.24 451.047 38.64C450.967 39.0267 450.927 39.36 450.927 39.64H447.907V43.58C447.907 44.1933 447.954 44.6133 448.047 44.84C448.14 45.0667 448.36 45.18 448.707 45.18C448.934 45.18 449.18 45.1 449.447 44.94C449.727 44.78 449.994 44.5867 450.247 44.36C450.514 44.12 450.734 43.8933 450.907 43.68V44.3L451.107 46.24C450.947 46.3733 450.707 46.52 450.387 46.68C450.067 46.8267 449.674 46.9467 449.207 47.04C448.754 47.1467 448.247 47.2 447.687 47.2Z" fill="#A3A1A1"/>
</svg>
