<svg width="222" height="51" viewBox="0 0 222 51" fill="none" xmlns="http://www.w3.org/2000/svg">
<path d="M18.0358 38.016C14.1118 38.016 10.6378 37.836 7.61384 37.476C4.58984 37.116 2.41184 36.756 1.07984 36.396V34.776L-0.000156097 27.918C0.683844 28.494 1.81784 29.106 3.40184 29.754C4.98584 30.402 7.01984 30.96 9.50384 31.428C11.9878 31.86 14.8678 32.076 18.1438 32.076C20.1598 32.076 21.7078 31.95 22.7878 31.698C23.8678 31.41 24.6058 31.014 25.0018 30.51C25.3978 30.006 25.5958 29.412 25.5958 28.728C25.5958 27.864 25.3078 27.198 24.7318 26.73C24.1558 26.226 23.1118 25.812 21.5998 25.488C20.1238 25.164 18.0178 24.822 15.2818 24.462C12.0058 24.03 9.26984 23.436 7.07384 22.68C4.87784 21.924 3.23984 20.862 2.15984 19.494C1.07984 18.09 0.539844 16.236 0.539844 13.932C0.539844 12.06 1.02584 10.422 1.99784 9.01795C2.96984 7.61395 4.53584 6.51595 6.69584 5.72395C8.85584 4.93195 11.7178 4.53595 15.2818 4.53595C19.0258 4.53595 22.2298 4.71595 24.8938 5.07595C27.5578 5.43595 29.3938 5.79595 30.4018 6.15595V7.77595L32.0218 13.716C31.1218 13.248 29.8258 12.762 28.1338 12.258C26.4418 11.754 24.4798 11.34 22.2478 11.016C20.0158 10.656 17.6038 10.476 15.0118 10.476C13.3918 10.476 12.1318 10.62 11.2318 10.908C10.3318 11.16 9.68384 11.538 9.28784 12.042C8.92784 12.51 8.74784 13.104 8.74784 13.824C8.74784 14.688 9.07184 15.39 9.71984 15.93C10.4038 16.434 11.5018 16.848 13.0138 17.172C14.5258 17.496 16.5598 17.802 19.1158 18.09C23.0398 18.522 26.0638 19.17 28.1878 20.034C30.3118 20.898 31.7698 22.014 32.5618 23.382C33.3898 24.714 33.8038 26.334 33.8038 28.242C33.8038 29.898 33.4978 31.356 32.8858 32.616C32.2738 33.84 31.3198 34.848 30.0238 35.64C28.7638 36.432 27.1258 37.026 25.1098 37.422C23.1298 37.818 20.7718 38.016 18.0358 38.016ZM52.2748 38.016C49.4308 38.016 47.0548 37.728 45.1468 37.152C43.2748 36.54 41.7808 35.676 40.6648 34.56C39.5488 33.408 38.7568 32.022 38.2888 30.402C37.8208 28.782 37.5868 26.946 37.5868 24.894C37.5868 20.826 38.7208 17.604 40.9888 15.228C43.2568 12.852 46.7308 11.664 51.4108 11.664C54.1468 11.664 56.3608 12.042 58.0528 12.798C59.7808 13.554 61.0948 14.562 61.9948 15.822C62.8948 17.082 63.5068 18.486 63.8308 20.034C64.1908 21.546 64.3708 23.076 64.3708 24.624V27.162C64.3708 27.054 63.8668 26.946 62.8588 26.838C61.8868 26.694 60.2308 26.622 57.8908 26.622H45.3628C45.3628 28.602 45.9568 30.096 47.1448 31.104C48.3688 32.076 50.3488 32.562 53.0848 32.562C55.3888 32.562 57.4408 32.292 59.2408 31.752C61.0768 31.176 62.4088 30.636 63.2368 30.132V31.752L63.7768 35.856C63.0928 36.324 61.7788 36.81 59.8348 37.314C57.8908 37.782 55.3708 38.016 52.2748 38.016ZM47.3608 21.978H56.7028C56.7028 21.186 56.5228 20.412 56.1628 19.656C55.8388 18.9 55.2988 18.288 54.5428 17.82C53.7868 17.316 52.7428 17.064 51.4108 17.064C50.0788 17.064 48.9988 17.262 48.1708 17.658C47.3788 18.054 46.7848 18.54 46.3888 19.116C46.0288 19.692 45.8488 20.286 45.8488 20.898C45.8488 21.258 45.9568 21.528 46.1728 21.708C46.3888 21.888 46.7848 21.978 47.3608 21.978ZM79.5667 38.016C77.0827 38.016 75.2827 37.494 74.1667 36.45C73.0507 35.37 72.4927 33.624 72.4927 31.212V17.604H67.6327V12.204C69.2887 12.204 70.5847 12.006 71.5207 11.61C72.4567 11.178 73.1227 10.44 73.5187 9.39595C73.9147 8.35195 74.1127 6.89395 74.1127 5.02195H80.1607V12.204H89.3947C89.1427 12.924 88.8907 13.824 88.6387 14.904C88.4227 15.948 88.3147 16.848 88.3147 17.604H80.1607V28.242C80.1607 29.898 80.2867 31.032 80.5387 31.644C80.7907 32.256 81.3847 32.562 82.3207 32.562C82.9327 32.562 83.5987 32.346 84.3187 31.914C85.0747 31.482 85.7947 30.96 86.4787 30.348C87.1987 29.7 87.7927 29.088 88.2607 28.512V30.186L88.8007 35.424C88.3687 35.784 87.7207 36.18 86.8567 36.612C85.9927 37.008 84.9307 37.332 83.6707 37.584C82.4467 37.872 81.0787 38.016 79.5667 38.016ZM102.928 38.016C100.444 38.016 98.6441 37.494 97.5281 36.45C96.4121 35.37 95.8541 33.624 95.8541 31.212V17.604H90.9941V12.204C92.6501 12.204 93.9461 12.006 94.8821 11.61C95.8181 11.178 96.4841 10.44 96.8801 9.39595C97.2761 8.35195 97.4741 6.89395 97.4741 5.02195H103.522V12.204H112.756C112.504 12.924 112.252 13.824 112 14.904C111.784 15.948 111.676 16.848 111.676 17.604H103.522V28.242C103.522 29.898 103.648 31.032 103.9 31.644C104.152 32.256 104.746 32.562 105.682 32.562C106.294 32.562 106.96 32.346 107.68 31.914C108.436 31.482 109.156 30.96 109.84 30.348C110.56 29.7 111.154 29.088 111.622 28.512V30.186L112.162 35.424C111.73 35.784 111.082 36.18 110.218 36.612C109.354 37.008 108.292 37.332 107.032 37.584C105.808 37.872 104.44 38.016 102.928 38.016ZM115.651 37.476C115.903 37.476 116.155 37.224 116.407 36.72C116.659 36.216 116.785 35.388 116.785 34.236V15.444C116.785 14.292 116.659 13.464 116.407 12.96C116.191 12.456 115.957 12.204 115.705 12.204H124.453V34.236C124.453 35.388 124.561 36.216 124.777 36.72C125.029 37.224 125.281 37.476 125.533 37.476H115.651ZM120.025 8.09995C118.693 8.09995 117.631 7.73995 116.839 7.01995C116.047 6.29995 115.651 5.30995 115.651 4.04995C115.651 2.78995 116.029 1.79995 116.785 1.07995C117.577 0.359951 118.657 -4.81606e-05 120.025 -4.81606e-05C121.393 -4.81606e-05 122.455 0.359951 123.211 1.07995C124.003 1.79995 124.399 2.78995 124.399 4.04995C124.399 5.30995 124.003 6.29995 123.211 7.01995C122.455 7.73995 121.393 8.09995 120.025 8.09995ZM130.417 37.476C130.669 37.476 130.903 37.224 131.119 36.72C131.371 36.216 131.497 35.388 131.497 34.236V15.984C131.497 14.832 131.371 14.022 131.119 13.554C130.903 13.05 130.669 12.78 130.417 12.744C132.001 12.744 133.621 12.636 135.277 12.42C136.933 12.168 138.229 11.916 139.165 11.664V14.958L139.057 15.66L139.165 15.768C139.273 15.516 139.615 15.066 140.191 14.418C140.767 13.77 141.595 13.158 142.675 12.582C143.755 11.97 145.087 11.664 146.671 11.664C150.019 11.664 152.575 12.618 154.339 14.526C156.139 16.434 157.039 19.422 157.039 23.49V34.236C157.039 35.388 157.147 36.216 157.363 36.72C157.615 37.224 157.867 37.476 158.119 37.476H148.291C148.543 37.476 148.777 37.224 148.993 36.72C149.245 36.216 149.371 35.388 149.371 34.236V23.652C149.371 21.96 149.191 20.646 148.831 19.71C148.471 18.738 147.967 18.054 147.319 17.658C146.707 17.262 145.987 17.064 145.159 17.064C144.151 17.064 143.179 17.316 142.243 17.82C141.343 18.288 140.605 19.044 140.029 20.088C139.453 21.096 139.165 22.446 139.165 24.138V34.236C139.165 35.388 139.273 36.216 139.489 36.72C139.741 37.224 139.993 37.476 140.245 37.476H130.417ZM175.546 50.652C173.458 50.652 171.532 50.508 169.768 50.22C168.04 49.932 166.528 49.572 165.232 49.14C163.972 48.744 163 48.348 162.316 47.952L163.396 39.852V38.286C163.9 39.258 164.692 40.284 165.772 41.364C166.852 42.444 168.202 43.362 169.822 44.118C171.442 44.874 173.278 45.252 175.33 45.252C176.662 45.252 177.778 44.964 178.678 44.388C179.578 43.848 180.262 43.002 180.73 41.85C181.198 40.698 181.432 39.276 181.432 37.584V36.72L181.54 35.748L181.432 35.64C180.928 36.18 180.244 36.63 179.38 36.99C178.552 37.314 177.634 37.566 176.626 37.746C175.654 37.926 174.682 38.016 173.71 38.016C170.794 38.016 168.454 37.44 166.69 36.288C164.962 35.136 163.702 33.57 162.91 31.59C162.154 29.61 161.776 27.378 161.776 24.894C161.776 22.374 162.154 20.124 162.91 18.144C163.666 16.164 164.908 14.598 166.636 13.446C168.4 12.258 170.758 11.664 173.71 11.664C174.718 11.664 175.708 11.736 176.68 11.88C177.652 12.024 178.552 12.24 179.38 12.528C180.208 12.78 180.892 13.14 181.432 13.608L181.54 13.554L181.432 12.528V12.204H190.18C189.928 12.24 189.676 12.51 189.424 13.014C189.208 13.518 189.1 14.364 189.1 15.552V36.234C189.1 41.454 187.984 45.162 185.752 47.358C183.556 49.554 180.154 50.652 175.546 50.652ZM175.168 32.562C176.428 32.562 177.526 32.346 178.462 31.914C179.398 31.482 180.118 30.708 180.622 29.592C181.162 28.476 181.432 26.91 181.432 24.894C181.432 22.914 181.162 21.366 180.622 20.25C180.118 19.098 179.398 18.288 178.462 17.82C177.526 17.316 176.428 17.064 175.168 17.064C173.98 17.064 172.954 17.316 172.09 17.82C171.226 18.324 170.56 19.152 170.092 20.304C169.624 21.456 169.39 23.004 169.39 24.948C169.39 26.856 169.606 28.368 170.038 29.484C170.506 30.6 171.172 31.392 172.036 31.86C172.9 32.328 173.944 32.562 175.168 32.562ZM208.834 38.016C205.63 38.016 202.93 37.836 200.734 37.476C198.538 37.116 197.026 36.756 196.198 36.396V34.776L195.064 29.484C196 30.168 197.746 30.852 200.302 31.536C202.858 32.22 205.99 32.562 209.698 32.562C210.814 32.562 211.696 32.49 212.344 32.346C213.028 32.202 213.514 31.968 213.802 31.644C214.09 31.32 214.234 30.906 214.234 30.402C214.234 29.79 214 29.322 213.532 28.998C213.1 28.674 212.308 28.422 211.156 28.242C210.004 28.026 208.33 27.774 206.134 27.486C203.362 27.126 201.166 26.622 199.546 25.974C197.926 25.29 196.774 24.426 196.09 23.382C195.442 22.302 195.118 20.988 195.118 19.44C195.118 18 195.46 16.704 196.144 15.552C196.864 14.364 198.088 13.428 199.816 12.744C201.58 12.024 204.028 11.664 207.16 11.664C210.112 11.664 212.704 11.844 214.936 12.204C217.168 12.564 218.77 12.924 219.742 13.284V14.904L220.822 19.656C219.994 19.116 218.374 18.558 215.962 17.982C213.55 17.406 210.49 17.118 206.782 17.118C205.342 17.118 204.316 17.262 203.704 17.55C203.092 17.838 202.786 18.342 202.786 19.062C202.786 19.422 202.876 19.728 203.056 19.98C203.272 20.232 203.668 20.466 204.244 20.682C204.82 20.898 205.648 21.114 206.728 21.33C207.808 21.51 209.23 21.708 210.994 21.924C214.054 22.32 216.358 22.878 217.906 23.598C219.454 24.282 220.498 25.146 221.038 26.19C221.578 27.198 221.848 28.422 221.848 29.862C221.848 31.698 221.38 33.228 220.444 34.452C219.544 35.64 218.122 36.54 216.178 37.152C214.27 37.728 211.822 38.016 208.834 38.016Z" fill="#303131"/>
</svg>
