<svg width="1440" height="1024" viewBox="0 0 1440 1024" fill="none" xmlns="http://www.w3.org/2000/svg">
<g clip-path="url(#clip0_53_417)">
<rect width="1440" height="1024" fill="#303131"/>
<path d="M234.168 348.632V383H229.704V348.632H234.168ZM251.085 358.328V361.496H246.045V377.912C246.045 378.488 246.237 378.984 246.621 379.4C247.037 379.784 247.565 379.976 248.205 379.976C248.813 379.976 249.741 379.832 250.989 379.544L251.421 383C249.437 383.352 247.933 383.528 246.909 383.528C243.741 383.528 242.157 382.232 242.157 379.64V361.496H238.797V358.328H242.157V353.288L246.045 351.512V358.328H251.085ZM257.367 353.384H257.271C256.631 353.384 256.087 353.176 255.639 352.76C255.223 352.344 254.999 351.8 254.967 351.128C254.967 350.68 255.079 350.248 255.303 349.832C255.719 349.032 256.391 348.632 257.319 348.632C258.119 348.632 258.775 348.968 259.287 349.64C259.799 350.28 260.055 351.112 260.055 352.136C260.055 354.44 258.999 356.824 256.887 359.288H255.975L254.823 358.328C255.495 357.464 256.087 356.504 256.599 355.448C256.951 354.776 257.207 354.088 257.367 353.384ZM283.285 365.096H278.965C278.837 362.632 277.189 361.4 274.021 361.4C272.389 361.4 271.093 361.72 270.133 362.36C269.205 362.968 268.741 363.8 268.741 364.856C268.741 366.456 270.261 367.608 273.301 368.312L277.093 369.176C279.557 369.752 281.333 370.568 282.421 371.624C283.509 372.68 284.053 374.12 284.053 375.944C284.053 378.28 283.141 380.136 281.317 381.512C279.493 382.856 277.029 383.528 273.925 383.528C270.533 383.528 267.957 382.728 266.197 381.128C264.725 379.816 263.941 378.072 263.845 375.896H268.309C268.565 377.016 268.917 377.832 269.365 378.344C270.229 379.368 271.845 379.88 274.213 379.88C275.973 379.88 277.365 379.56 278.389 378.92C279.445 378.248 279.973 377.368 279.973 376.28C279.973 374.648 278.709 373.528 276.181 372.92L272.485 372.056C269.669 371.384 267.701 370.584 266.581 369.656C265.301 368.6 264.661 367.08 264.661 365.096C264.661 362.856 265.509 361.08 267.205 359.768C268.933 358.456 271.237 357.8 274.117 357.8C277.125 357.8 279.461 358.552 281.125 360.056C282.565 361.368 283.285 363.048 283.285 365.096ZM297.388 393.272V358.328H301.036V362.12C302.86 359.24 305.484 357.8 308.908 357.8C312.396 357.8 315.084 359.144 316.972 361.832C318.636 364.168 319.468 367.24 319.468 371.048C319.468 375.112 318.38 378.28 316.204 380.552C314.316 382.536 311.868 383.528 308.86 383.528C305.82 383.528 303.308 382.424 301.324 380.216V393.272H297.388ZM308.236 361.448C306.156 361.448 304.476 362.296 303.196 363.992C301.948 365.688 301.324 367.96 301.324 370.808C301.324 373.752 302.044 376.056 303.484 377.72C304.7 379.128 306.284 379.832 308.236 379.832C310.412 379.832 312.14 379.016 313.42 377.384C314.732 375.72 315.388 373.528 315.388 370.808C315.388 367.8 314.652 365.432 313.18 363.704C311.868 362.2 310.22 361.448 308.236 361.448ZM328.199 348.632V383H324.263V348.632H328.199ZM356.7 379.688V382.856C355.612 383.24 354.764 383.432 354.156 383.432C351.596 383.432 350.204 382.264 349.98 379.928C348.22 382.328 345.42 383.528 341.58 383.528C338.924 383.528 336.86 382.792 335.388 381.32C334.108 380.04 333.468 378.392 333.468 376.376C333.468 374.072 334.284 372.296 335.916 371.048C336.844 370.344 338.78 369.656 341.724 368.984L349.788 367.16L349.836 365.096C349.836 362.632 347.98 361.4 344.268 361.4C340.716 361.4 338.812 362.84 338.556 365.72H334.572C334.668 363.544 335.212 361.88 336.204 360.728C337.9 358.776 340.652 357.8 344.46 357.8C350.636 357.8 353.724 360.04 353.724 364.52V378.296C353.724 379.512 354.252 380.12 355.308 380.12C355.436 380.12 355.772 380.024 356.316 379.832C356.508 379.768 356.636 379.72 356.7 379.688ZM349.836 370.376L343.5 372.008C341.228 372.584 339.66 373.176 338.796 373.784C337.964 374.392 337.548 375.24 337.548 376.328C337.548 378.856 339.18 380.12 342.444 380.12C344.748 380.12 346.7 379.368 348.3 377.864C349.324 376.936 349.836 375.88 349.836 374.696V370.376ZM376.039 358.328H380.263L369.271 388.184C367.991 391.576 365.863 393.272 362.887 393.272C361.479 393.272 360.247 392.952 359.191 392.312L359.959 388.904C360.759 389.224 361.543 389.384 362.311 389.384C363.847 389.384 364.919 388.584 365.527 386.984L367.015 383.048L358.663 358.328H362.887L369.175 377.528L376.039 358.328ZM403.054 358.328V361.496H398.014V377.912C398.014 378.488 398.206 378.984 398.59 379.4C399.006 379.784 399.534 379.976 400.174 379.976C400.782 379.976 401.71 379.832 402.958 379.544L403.39 383C401.406 383.352 399.902 383.528 398.878 383.528C395.71 383.528 394.126 382.232 394.126 379.64V361.496H390.766V358.328H394.126V353.288L398.014 351.512V358.328H403.054ZM411.352 358.328V383H407.464V358.328H411.352ZM409.48 348.68C410.152 348.68 410.712 348.92 411.16 349.4C411.64 349.848 411.88 350.392 411.88 351.032C411.88 351.704 411.64 352.28 411.16 352.76C410.712 353.208 410.152 353.432 409.48 353.432C408.84 353.432 408.28 353.208 407.8 352.76C407.352 352.28 407.128 351.704 407.128 351.032C407.128 350.392 407.352 349.848 407.8 349.4C408.28 348.92 408.84 348.68 409.48 348.68ZM418.109 358.328H421.757V361.88C423.677 359.16 426.205 357.8 429.341 357.8C432.381 357.8 434.589 359.016 435.965 361.448C437.149 360.072 438.285 359.128 439.373 358.616C440.493 358.072 441.869 357.8 443.501 357.8C448.301 357.8 450.701 360.056 450.701 364.568V383H446.765V366.104C446.765 362.84 445.229 361.208 442.157 361.208C440.557 361.208 439.197 361.832 438.077 363.08C436.957 364.328 436.397 365.816 436.397 367.544V383H432.461V366.104C432.461 362.84 430.941 361.208 427.901 361.208C426.269 361.208 424.877 361.832 423.725 363.08C422.605 364.296 422.045 365.784 422.045 367.544V383H418.109V358.328ZM478.222 371.816H460.03C460.062 373.928 460.51 375.608 461.374 376.856C462.75 378.872 464.734 379.88 467.326 379.88C470.526 379.88 472.686 378.36 473.806 375.32H477.742C477.23 377.912 476.046 379.928 474.19 381.368C472.334 382.808 469.998 383.528 467.182 383.528C463.438 383.528 460.574 382.248 458.59 379.688C456.83 377.448 455.95 374.488 455.95 370.808C455.95 366.552 457.102 363.24 459.406 360.872C461.422 358.824 464.03 357.8 467.23 357.8C469.566 357.8 471.614 358.36 473.374 359.48C475.166 360.6 476.446 362.136 477.214 364.088C477.886 365.752 478.222 368.28 478.222 371.672V371.816ZM473.998 368.6C473.998 366.456 473.358 364.728 472.078 363.416C470.83 362.072 469.214 361.4 467.23 361.4C465.214 361.4 463.566 362.056 462.286 363.368C461.038 364.648 460.334 366.392 460.174 368.6H473.998ZM485.081 378.536C485.753 378.536 486.313 378.76 486.761 379.208C487.209 379.656 487.433 380.216 487.433 380.888C487.433 381.528 487.209 382.088 486.761 382.568C486.313 383.016 485.753 383.24 485.081 383.24C484.441 383.24 483.881 383.016 483.401 382.568C482.953 382.088 482.729 381.528 482.729 380.888C482.729 380.216 482.953 379.656 483.401 379.208C483.881 378.76 484.441 378.536 485.081 378.536Z" fill="white"/>
<path d="M232.14 524C232.793 524 233.4 523.347 233.96 522.04C234.613 520.733 234.94 518.587 234.94 515.6V448.4C234.94 445.413 234.613 443.313 233.96 442.1C233.307 440.793 232.653 440.093 232 440H277.92C286.133 440 292.667 441.027 297.52 443.08C302.467 445.133 306.013 448.167 308.16 452.18C310.4 456.1 311.52 461 311.52 466.88C311.52 471.08 310.727 474.813 309.14 478.08C307.647 481.347 305.547 484.007 302.84 486.06C300.133 488.113 297.1 489.607 293.74 490.54V490.96C297.473 492.453 301.393 495.393 305.5 499.78C309.607 504.073 313.293 508.88 316.56 514.2C318.707 517.653 320.667 520.127 322.44 521.62C324.213 523.113 325.567 523.907 326.5 524H291.22C292.34 523.907 293.227 523.3 293.88 522.18C294.627 520.967 294.393 519.007 293.18 516.3C291.22 511.82 288.84 507.947 286.04 504.68C283.24 501.413 279.973 498.94 276.24 497.26C272.6 495.487 268.4 494.6 263.64 494.6H262.1C259.207 494.6 257.527 494.833 257.06 495.3C256.593 495.767 256.36 496.933 256.36 498.8V515.6C256.36 518.587 256.687 520.733 257.34 522.04C257.993 523.347 258.647 524 259.3 524H232.14ZM262.1 480.46H273.58C279.46 480.46 283.707 479.433 286.32 477.38C288.933 475.233 290.24 471.733 290.24 466.88C290.24 464.733 289.773 462.82 288.84 461.14C287.907 459.46 286.32 458.153 284.08 457.22C281.933 456.287 278.9 455.82 274.98 455.82H262.1C259.207 455.82 257.527 455.96 257.06 456.24C256.593 456.52 256.36 457.593 256.36 459.46V476.68C256.36 478.547 256.593 479.667 257.06 480.04C257.527 480.32 259.207 480.46 262.1 480.46ZM360.385 525.4C353.012 525.4 346.852 524.653 341.905 523.16C337.052 521.573 333.179 519.333 330.285 516.44C327.392 513.453 325.339 509.86 324.125 505.66C322.912 501.46 322.305 496.7 322.305 491.38C322.305 480.833 325.245 472.48 331.125 466.32C337.005 460.16 346.012 457.08 358.145 457.08C365.239 457.08 370.979 458.06 375.365 460.02C379.845 461.98 383.252 464.593 385.585 467.86C387.919 471.127 389.505 474.767 390.345 478.78C391.279 482.7 391.745 486.667 391.745 490.68V497.26C391.745 496.98 390.439 496.7 387.825 496.42C385.305 496.047 381.012 495.86 374.945 495.86H342.465C342.465 500.993 344.005 504.867 347.085 507.48C350.259 510 355.392 511.26 362.485 511.26C368.459 511.26 373.779 510.56 378.445 509.16C383.205 507.667 386.659 506.267 388.805 504.96V509.16L390.205 519.8C388.432 521.013 385.025 522.273 379.985 523.58C374.945 524.793 368.412 525.4 360.385 525.4ZM347.645 483.82H371.865C371.865 481.767 371.399 479.76 370.465 477.8C369.625 475.84 368.225 474.253 366.265 473.04C364.305 471.733 361.599 471.08 358.145 471.08C354.692 471.08 351.892 471.593 349.745 472.62C347.692 473.647 346.152 474.907 345.125 476.4C344.192 477.893 343.725 479.433 343.725 481.02C343.725 481.953 344.005 482.653 344.565 483.12C345.125 483.587 346.152 483.82 347.645 483.82ZM430.582 525.4C422.182 525.4 415.462 523.767 410.422 520.5C405.476 517.14 403.002 511.773 403.002 504.4C403.002 499.267 404.309 495.113 406.922 491.94C409.536 488.767 413.082 486.433 417.562 484.94C422.136 483.353 427.316 482.56 433.102 482.56C437.396 482.56 441.036 482.933 444.022 483.68C447.102 484.427 449.576 485.22 451.442 486.06C453.309 486.9 454.522 487.507 455.082 487.88C455.082 483.96 454.662 480.787 453.822 478.36C452.982 475.84 451.442 474.02 449.202 472.9C447.056 471.687 444.022 471.08 440.102 471.08C434.409 471.08 429.369 471.64 424.982 472.76C420.596 473.88 417.002 475.187 414.202 476.68C411.496 478.173 409.629 479.433 408.602 480.46V476.26L407.202 462.54C407.856 462.167 409.582 461.56 412.382 460.72C415.182 459.88 419.009 459.087 423.862 458.34C428.716 457.5 434.502 457.08 441.222 457.08C450.462 457.08 457.509 458.433 462.362 461.14C467.216 463.753 470.529 467.533 472.302 472.48C474.169 477.427 475.102 483.4 475.102 490.4V515.6C475.102 518.213 475.382 520.127 475.942 521.34C476.596 522.46 477.249 523.347 477.902 524H455.222V521.06L455.502 518.4L455.222 518.12C454.476 518.96 453.402 519.8 452.002 520.64C450.602 521.48 448.876 522.273 446.822 523.02C444.769 523.673 442.389 524.233 439.682 524.7C436.976 525.167 433.942 525.4 430.582 525.4ZM437.162 511.26C441.082 511.26 444.349 510.98 446.962 510.42C449.669 509.767 451.722 508.927 453.122 507.9C454.522 506.78 455.222 505.473 455.222 503.98C455.222 501.833 453.589 500.06 450.322 498.66C447.149 497.26 442.809 496.56 437.302 496.56C431.982 496.56 428.202 497.307 425.962 498.8C423.816 500.293 422.742 502.16 422.742 504.4C422.742 507.2 424.002 509.067 426.522 510C429.042 510.84 432.589 511.26 437.162 511.26ZM519.802 525.4C511.495 525.4 504.962 523.907 500.202 520.92C495.535 517.933 492.222 513.873 490.262 508.74C488.395 503.607 487.462 497.82 487.462 491.38C487.462 484.847 488.395 479.013 490.262 473.88C492.222 468.747 495.535 464.687 500.202 461.7C504.962 458.62 511.495 457.08 519.802 457.08C522.602 457.08 525.122 457.313 527.362 457.78C529.695 458.247 531.748 458.9 533.522 459.74C535.388 460.487 537.022 461.467 538.422 462.68L538.702 462.54L538.422 459.88V435.8C538.422 432.813 538.095 430.713 537.442 429.5C536.882 428.193 536.275 427.493 535.622 427.4H558.302V515.6C558.302 518.587 558.582 520.733 559.142 522.04C559.795 523.347 560.448 524 561.102 524H538.422V522.18L538.842 519.52L538.422 519.38C537.022 520.593 535.388 521.667 533.522 522.6C531.655 523.44 529.555 524.093 527.222 524.56C524.982 525.12 522.508 525.4 519.802 525.4ZM522.182 511.26C525.262 511.26 527.828 510.793 529.882 509.86C532.028 508.927 533.708 507.62 534.922 505.94C536.228 504.167 537.115 502.067 537.582 499.64C538.142 497.12 538.422 494.367 538.422 491.38C538.422 488.393 538.142 485.687 537.582 483.26C537.022 480.74 536.135 478.593 534.922 476.82C533.708 474.953 532.028 473.553 529.882 472.62C527.828 471.593 525.262 471.08 522.182 471.08C517.702 471.08 514.062 472.62 511.262 475.7C508.555 478.78 507.202 484.053 507.202 491.52C507.202 496.467 507.808 500.387 509.022 503.28C510.235 506.173 511.962 508.227 514.202 509.44C516.442 510.653 519.102 511.26 522.182 511.26ZM576.004 558.16C570.404 558.16 565.971 557.6 562.704 556.48C559.437 555.36 557.337 554.287 556.404 553.26L559.204 531.56V527.36C560.324 529.787 561.864 532.307 563.824 534.92C565.691 537.533 567.884 539.727 570.404 541.5C572.924 543.273 575.537 544.16 578.244 544.16C580.111 544.16 581.791 543.74 583.284 542.9C584.871 542.153 586.317 540.94 587.624 539.26C589.024 537.58 590.377 535.48 591.684 532.96C593.551 529.227 594.717 526.66 595.184 525.26C594.624 524.513 593.691 522.787 592.384 520.08C591.171 517.373 589.677 514.107 587.904 510.28C586.224 506.36 584.404 502.253 582.444 497.96C580.577 493.573 578.757 489.327 576.984 485.22C575.304 481.113 573.764 477.473 572.364 474.3C571.057 471.127 570.077 468.793 569.424 467.3C568.117 464.127 566.811 461.887 565.504 460.58C564.104 459.18 563.031 458.48 562.284 458.48H590.984C590.517 458.48 590.191 459.133 590.004 460.44C589.817 461.747 590.144 464.033 590.984 467.3C591.451 469.073 592.197 471.593 593.224 474.86C594.251 478.033 595.417 481.533 596.724 485.36C598.124 489.187 599.524 493.06 600.924 496.98C602.417 500.9 603.771 504.493 604.984 507.76H605.124C606.431 504.307 607.784 500.573 609.184 496.56C610.677 492.453 612.124 488.44 613.524 484.52C615.017 480.6 616.277 477.1 617.304 474.02C618.424 470.94 619.264 468.607 619.824 467.02C620.851 463.847 621.271 461.653 621.084 460.44C620.897 459.133 620.477 458.48 619.824 458.48H647.684C646.937 458.48 645.911 459.133 644.604 460.44C643.391 461.653 642.224 463.8 641.104 466.88C640.451 468.56 639.377 471.313 637.884 475.14C636.391 478.967 634.617 483.353 632.564 488.3C630.511 493.247 628.364 498.333 626.124 503.56C623.884 508.787 621.691 513.733 619.544 518.4C617.491 522.973 615.671 526.753 614.084 529.74C610.911 535.9 607.597 541.08 604.144 545.28C600.691 549.48 596.724 552.653 592.244 554.8C587.764 557.04 582.351 558.16 576.004 558.16ZM713.603 525.4C707.163 525.4 702.497 524.047 699.603 521.34C696.71 518.54 695.263 514.013 695.263 507.76V472.48H682.663V458.48C686.957 458.48 690.317 457.967 692.743 456.94C695.17 455.82 696.897 453.907 697.923 451.2C698.95 448.493 699.463 444.713 699.463 439.86H715.143V458.48H739.083C738.43 460.347 737.777 462.68 737.123 465.48C736.563 468.187 736.283 470.52 736.283 472.48H715.143V500.06C715.143 504.353 715.47 507.293 716.123 508.88C716.777 510.467 718.317 511.26 720.743 511.26C722.33 511.26 724.057 510.7 725.923 509.58C727.883 508.46 729.75 507.107 731.523 505.52C733.39 503.84 734.93 502.253 736.143 500.76V505.1L737.543 518.68C736.423 519.613 734.743 520.64 732.503 521.76C730.263 522.787 727.51 523.627 724.243 524.28C721.07 525.027 717.523 525.4 713.603 525.4ZM780.75 525.4C771.416 525.4 764.09 523.907 758.77 520.92C753.543 517.933 749.856 513.873 747.71 508.74C745.656 503.607 744.63 497.82 744.63 491.38C744.63 484.847 745.703 479.013 747.85 473.88C750.09 468.747 753.823 464.687 759.05 461.7C764.276 458.62 771.51 457.08 780.75 457.08C789.99 457.08 797.223 458.62 802.45 461.7C807.676 464.687 811.363 468.747 813.51 473.88C815.75 479.013 816.87 484.847 816.87 491.38C816.87 497.82 815.796 503.607 813.65 508.74C811.596 513.873 807.956 517.933 802.73 520.92C797.503 523.907 790.176 525.4 780.75 525.4ZM780.75 511.26C784.67 511.26 787.796 510.7 790.13 509.58C792.556 508.367 794.283 506.313 795.31 503.42C796.43 500.527 796.99 496.513 796.99 491.38C796.99 486.247 796.43 482.233 795.31 479.34C794.283 476.353 792.556 474.253 790.13 473.04C787.796 471.733 784.67 471.08 780.75 471.08C776.83 471.08 773.656 471.733 771.23 473.04C768.896 474.347 767.17 476.493 766.05 479.48C765.023 482.467 764.51 486.48 764.51 491.52C764.51 496.467 765.023 500.387 766.05 503.28C767.17 506.173 768.896 508.227 771.23 509.44C773.656 510.653 776.83 511.26 780.75 511.26ZM860.887 555.08C861.54 555.08 862.147 554.427 862.707 553.12C863.36 551.813 863.687 549.667 863.687 546.68V466.88C863.687 463.893 863.36 461.793 862.707 460.58C862.147 459.273 861.54 458.573 860.887 458.48H883.567V459.6L883.287 462.26L883.567 462.4C884.5 461.56 885.853 460.767 887.627 460.02C889.493 459.18 891.593 458.48 893.927 457.92C896.353 457.36 898.78 457.08 901.207 457.08C909.887 457.08 916.607 458.62 921.367 461.7C926.22 464.687 929.627 468.747 931.587 473.88C933.547 479.013 934.527 484.847 934.527 491.38C934.527 497.82 933.547 503.607 931.587 508.74C929.72 513.873 926.36 517.933 921.507 520.92C916.747 523.907 909.98 525.4 901.207 525.4C897.567 525.4 894.16 524.933 890.987 524C887.907 523.16 885.433 521.9 883.567 520.22L883.287 520.36L883.567 523.16V546.68C883.567 549.667 883.847 551.813 884.407 553.12C885.06 554.427 885.713 555.08 886.367 555.08H860.887ZM898.407 511.26C902.327 511.26 905.453 510.7 907.787 509.58C910.213 508.367 911.94 506.313 912.967 503.42C914.087 500.527 914.647 496.513 914.647 491.38C914.647 486.247 914.087 482.233 912.967 479.34C911.94 476.353 910.213 474.253 907.787 473.04C905.453 471.733 902.327 471.08 898.407 471.08C895.327 471.08 892.667 471.827 890.427 473.32C888.187 474.72 886.46 476.913 885.247 479.9C884.127 482.887 883.567 486.76 883.567 491.52C883.567 496.373 884.173 500.247 885.387 503.14C886.6 506.033 888.28 508.133 890.427 509.44C892.667 510.653 895.327 511.26 898.407 511.26ZM945.672 524C946.325 524 946.979 523.347 947.632 522.04C948.285 520.733 948.612 518.587 948.612 515.6V435.8C948.612 432.813 948.285 430.667 947.632 429.36C947.072 428.053 946.465 427.4 945.812 427.4C951.972 427.4 956.965 427.12 960.792 426.56C964.712 425.907 967.279 425.253 968.492 424.6V515.6C968.492 518.587 968.772 520.733 969.332 522.04C969.985 523.347 970.639 524 971.292 524H945.672ZM1011.5 525.4C1003.1 525.4 996.38 523.767 991.34 520.5C986.394 517.14 983.92 511.773 983.92 504.4C983.92 499.267 985.227 495.113 987.84 491.94C990.454 488.767 994 486.433 998.48 484.94C1003.05 483.353 1008.23 482.56 1014.02 482.56C1018.31 482.56 1021.95 482.933 1024.94 483.68C1028.02 484.427 1030.49 485.22 1032.36 486.06C1034.23 486.9 1035.44 487.507 1036 487.88C1036 483.96 1035.58 480.787 1034.74 478.36C1033.9 475.84 1032.36 474.02 1030.12 472.9C1027.97 471.687 1024.94 471.08 1021.02 471.08C1015.33 471.08 1010.29 471.64 1005.9 472.76C1001.51 473.88 997.92 475.187 995.12 476.68C992.414 478.173 990.547 479.433 989.52 480.46V476.26L988.12 462.54C988.774 462.167 990.5 461.56 993.3 460.72C996.1 459.88 999.927 459.087 1004.78 458.34C1009.63 457.5 1015.42 457.08 1022.14 457.08C1031.38 457.08 1038.43 458.433 1043.28 461.14C1048.13 463.753 1051.45 467.533 1053.22 472.48C1055.09 477.427 1056.02 483.4 1056.02 490.4V515.6C1056.02 518.213 1056.3 520.127 1056.86 521.34C1057.51 522.46 1058.17 523.347 1058.82 524H1036.14V521.06L1036.42 518.4L1036.14 518.12C1035.39 518.96 1034.32 519.8 1032.92 520.64C1031.52 521.48 1029.79 522.273 1027.74 523.02C1025.69 523.673 1023.31 524.233 1020.6 524.7C1017.89 525.167 1014.86 525.4 1011.5 525.4ZM1018.08 511.26C1022 511.26 1025.27 510.98 1027.88 510.42C1030.59 509.767 1032.64 508.927 1034.04 507.9C1035.44 506.78 1036.14 505.473 1036.14 503.98C1036.14 501.833 1034.51 500.06 1031.24 498.66C1028.07 497.26 1023.73 496.56 1018.22 496.56C1012.9 496.56 1009.12 497.307 1006.88 498.8C1004.73 500.293 1003.66 502.16 1003.66 504.4C1003.66 507.2 1004.92 509.067 1007.44 510C1009.96 510.84 1013.51 511.26 1018.08 511.26ZM1072.02 558.16C1066.42 558.16 1061.99 557.6 1058.72 556.48C1055.45 555.36 1053.35 554.287 1052.42 553.26L1055.22 531.56V527.36C1056.34 529.787 1057.88 532.307 1059.84 534.92C1061.71 537.533 1063.9 539.727 1066.42 541.5C1068.94 543.273 1071.55 544.16 1074.26 544.16C1076.13 544.16 1077.81 543.74 1079.3 542.9C1080.89 542.153 1082.33 540.94 1083.64 539.26C1085.04 537.58 1086.39 535.48 1087.7 532.96C1089.57 529.227 1090.73 526.66 1091.2 525.26C1090.64 524.513 1089.71 522.787 1088.4 520.08C1087.19 517.373 1085.69 514.107 1083.92 510.28C1082.24 506.36 1080.42 502.253 1078.46 497.96C1076.59 493.573 1074.77 489.327 1073 485.22C1071.32 481.113 1069.78 477.473 1068.38 474.3C1067.07 471.127 1066.09 468.793 1065.44 467.3C1064.13 464.127 1062.83 461.887 1061.52 460.58C1060.12 459.18 1059.05 458.48 1058.3 458.48H1087C1086.53 458.48 1086.21 459.133 1086.02 460.44C1085.83 461.747 1086.16 464.033 1087 467.3C1087.47 469.073 1088.21 471.593 1089.24 474.86C1090.27 478.033 1091.43 481.533 1092.74 485.36C1094.14 489.187 1095.54 493.06 1096.94 496.98C1098.43 500.9 1099.79 504.493 1101 507.76H1101.14C1102.45 504.307 1103.8 500.573 1105.2 496.56C1106.69 492.453 1108.14 488.44 1109.54 484.52C1111.03 480.6 1112.29 477.1 1113.32 474.02C1114.44 470.94 1115.28 468.607 1115.84 467.02C1116.87 463.847 1117.29 461.653 1117.1 460.44C1116.91 459.133 1116.49 458.48 1115.84 458.48H1143.7C1142.95 458.48 1141.93 459.133 1140.62 460.44C1139.41 461.653 1138.24 463.8 1137.12 466.88C1136.47 468.56 1135.39 471.313 1133.9 475.14C1132.41 478.967 1130.63 483.353 1128.58 488.3C1126.53 493.247 1124.38 498.333 1122.14 503.56C1119.9 508.787 1117.71 513.733 1115.56 518.4C1113.51 522.973 1111.69 526.753 1110.1 529.74C1106.93 535.9 1103.61 541.08 1100.16 545.28C1096.71 549.48 1092.74 552.653 1088.26 554.8C1083.78 557.04 1078.37 558.16 1072.02 558.16ZM1172.07 498.66C1171.13 498.66 1169.92 496.653 1168.43 492.64C1167.03 488.627 1166.33 483.213 1166.33 476.4C1169.5 475.467 1172.35 474.16 1174.87 472.48C1177.48 470.707 1179.53 468.747 1181.03 466.6C1182.61 464.36 1183.41 462.12 1183.41 459.88C1183.41 457.733 1182.89 456.053 1181.87 454.84C1180.84 453.533 1178.74 452.88 1175.57 452.88C1171.37 452.88 1167.49 453.907 1163.95 455.96C1160.49 457.92 1157.93 459.833 1156.25 461.7V457.5L1153.45 442.94C1154.75 442.007 1157.41 441.073 1161.43 440.14C1165.53 439.207 1170.95 438.74 1177.67 438.74C1184.01 438.74 1189.15 439.673 1193.07 441.54C1197.08 443.407 1200.02 445.787 1201.89 448.68C1203.75 451.573 1204.69 454.607 1204.69 457.78C1204.69 462.073 1203.52 465.9 1201.19 469.26C1198.85 472.62 1195.73 475.513 1191.81 477.94C1187.98 480.273 1183.73 482.093 1179.07 483.4C1179.07 483.96 1178.79 485.033 1178.23 486.62C1177.76 488.207 1177.11 489.933 1176.27 491.8C1175.52 493.667 1174.77 495.3 1174.03 496.7C1173.28 498.007 1172.63 498.66 1172.07 498.66ZM1172.63 525.4C1169.17 525.4 1166.42 524.7 1164.37 523.3C1162.31 521.9 1161.29 519.567 1161.29 516.3C1161.29 513.033 1162.27 510.7 1164.23 509.3C1166.28 507.9 1169.08 507.2 1172.63 507.2C1176.17 507.2 1178.93 507.9 1180.89 509.3C1182.94 510.7 1183.97 513.033 1183.97 516.3C1183.97 519.567 1182.94 521.9 1180.89 523.3C1178.93 524.7 1176.17 525.4 1172.63 525.4Z" fill="white"/>
<rect width="250" height="98" transform="translate(595 653)" fill="#F0EA6E"/>
<path d="M626.375 718C624.368 718 622.654 717.283 621.233 715.85C619.811 714.417 619.067 712.683 619 710.65C619 710.35 619.017 710.05 619.05 709.75C619.084 709.45 619.134 709.15 619.201 708.85L623.415 692.05C623.883 690.25 624.837 688.792 626.275 687.675C627.713 686.558 629.352 686 631.192 686H650.758C652.598 686 654.237 686.558 655.675 687.675C657.113 688.792 658.067 690.25 658.535 692.05L662.749 708.85C662.816 709.15 662.875 709.458 662.925 709.775C662.975 710.092 663 710.4 663 710.7C663 712.733 662.273 714.458 660.818 715.875C659.363 717.292 657.615 718 655.575 718C654.17 718 652.865 717.633 651.661 716.9C650.457 716.167 649.554 715.167 648.952 713.9L647.547 711C647.38 710.667 647.129 710.417 646.795 710.25C646.46 710.083 646.109 710 645.741 710H636.209C635.841 710 635.49 710.083 635.155 710.25C634.821 710.417 634.57 710.667 634.403 711L632.998 713.9C632.396 715.167 631.493 716.167 630.288 716.9C629.084 717.633 627.78 718 626.375 718ZM626.526 714C627.161 714 627.738 713.833 628.257 713.5C628.775 713.167 629.168 712.717 629.436 712.15L630.84 709.3C631.342 708.267 632.078 707.458 633.048 706.875C634.018 706.292 635.071 706 636.209 706H645.741C646.878 706 647.932 706.3 648.902 706.9C649.872 707.5 650.624 708.3 651.16 709.3L652.564 712.15C652.832 712.717 653.225 713.167 653.743 713.5C654.262 713.833 654.839 714 655.474 714C656.411 714 657.214 713.692 657.883 713.075C658.552 712.458 658.903 711.683 658.936 710.75C658.936 710.783 658.903 710.467 658.836 709.8L654.621 693.05C654.387 692.15 653.919 691.417 653.217 690.85C652.514 690.283 651.695 690 650.758 690H631.192C630.255 690 629.427 690.283 628.708 690.85C627.989 691.417 627.529 692.15 627.328 693.05L623.114 709.8C623.047 710 623.014 710.3 623.014 710.7C623.014 711.633 623.357 712.417 624.042 713.05C624.728 713.683 625.556 714 626.526 714ZM643.985 700C644.554 700 645.03 699.808 645.415 699.425C645.8 699.042 645.992 698.567 645.992 698C645.992 697.433 645.8 696.958 645.415 696.575C645.03 696.192 644.554 696 643.985 696C643.417 696 642.94 696.192 642.555 696.575C642.171 696.958 641.978 697.433 641.978 698C641.978 698.567 642.171 699.042 642.555 699.425C642.94 699.808 643.417 700 643.985 700ZM647.999 696C648.567 696 649.044 695.808 649.429 695.425C649.813 695.042 650.006 694.567 650.006 694C650.006 693.433 649.813 692.958 649.429 692.575C649.044 692.192 648.567 692 647.999 692C647.43 692 646.954 692.192 646.569 692.575C646.184 692.958 645.992 693.433 645.992 694C645.992 694.567 646.184 695.042 646.569 695.425C646.954 695.808 647.43 696 647.999 696ZM647.999 704C648.567 704 649.044 703.808 649.429 703.425C649.813 703.042 650.006 702.567 650.006 702C650.006 701.433 649.813 700.958 649.429 700.575C649.044 700.192 648.567 700 647.999 700C647.43 700 646.954 700.192 646.569 700.575C646.184 700.958 645.992 701.433 645.992 702C645.992 702.567 646.184 703.042 646.569 703.425C646.954 703.808 647.43 704 647.999 704ZM652.013 700C652.581 700 653.058 699.808 653.442 699.425C653.827 699.042 654.019 698.567 654.019 698C654.019 697.433 653.827 696.958 653.442 696.575C653.058 696.192 652.581 696 652.013 696C651.444 696 650.967 696.192 650.583 696.575C650.198 696.958 650.006 697.433 650.006 698C650.006 698.567 650.198 699.042 650.583 699.425C650.967 699.808 651.444 700 652.013 700ZM633.951 703C634.386 703 634.745 702.858 635.03 702.575C635.314 702.292 635.456 701.933 635.456 701.5V699.5H637.463C637.898 699.5 638.257 699.358 638.542 699.075C638.826 698.792 638.968 698.433 638.968 698C638.968 697.567 638.826 697.208 638.542 696.925C638.257 696.642 637.898 696.5 637.463 696.5H635.456V694.5C635.456 694.067 635.314 693.708 635.03 693.425C634.745 693.142 634.386 693 633.951 693C633.516 693 633.157 693.142 632.872 693.425C632.588 693.708 632.446 694.067 632.446 694.5V696.5H630.439C630.004 696.5 629.645 696.642 629.36 696.925C629.076 697.208 628.934 697.567 628.934 698C628.934 698.433 629.076 698.792 629.36 699.075C629.645 699.358 630.004 699.5 630.439 699.5H632.446V701.5C632.446 701.933 632.588 702.292 632.872 702.575C633.157 702.858 633.516 703 633.951 703Z" fill="#303131"/>
<path d="M685.04 715C685.227 715 685.4 714.813 685.56 714.44C685.747 714.067 685.84 713.453 685.84 712.6V693.4C685.84 692.547 685.747 691.947 685.56 691.6C685.373 691.227 685.187 691.027 685 691H698.12C700.387 691 702.213 691.333 703.6 692C705.013 692.64 706.053 693.573 706.72 694.8C707.387 696 707.72 697.44 707.72 699.12C707.72 700.827 707.387 702.307 706.72 703.56C706.053 704.787 705.013 705.733 703.6 706.4C702.213 707.04 700.387 707.36 698.12 707.36H692V712.6C692 713.453 692.093 714.067 692.28 714.44C692.467 714.813 692.653 715 692.84 715H685.04ZM693.64 702.96H695.64C697.213 702.96 698.427 702.827 699.28 702.56C700.16 702.293 700.773 701.88 701.12 701.32C701.467 700.76 701.64 700.027 701.64 699.12C701.64 698.24 701.453 697.533 701.08 697C700.733 696.467 700.147 696.093 699.32 695.88C698.52 695.64 697.427 695.52 696.04 695.52H693.64C692.813 695.52 692.333 695.573 692.2 695.68C692.067 695.76 692 696.067 692 696.6V701.84C692 702.373 692.067 702.693 692.2 702.8C692.333 702.907 692.813 702.96 693.64 702.96ZM711.133 715C711.319 715 711.506 714.813 711.693 714.44C711.879 714.067 711.973 713.453 711.973 712.6V689.8C711.973 688.947 711.879 688.333 711.693 687.96C711.533 687.587 711.359 687.4 711.173 687.4C712.933 687.4 714.359 687.32 715.453 687.16C716.573 686.973 717.306 686.787 717.653 686.6V712.6C717.653 713.453 717.733 714.067 717.893 714.44C718.079 714.813 718.266 715 718.453 715H711.133ZM729.941 715.4C727.541 715.4 725.621 714.933 724.181 714C722.768 713.04 722.061 711.507 722.061 709.4C722.061 707.933 722.434 706.747 723.181 705.84C723.928 704.933 724.941 704.267 726.221 703.84C727.528 703.387 729.008 703.16 730.661 703.16C731.888 703.16 732.928 703.267 733.781 703.48C734.661 703.693 735.368 703.92 735.901 704.16C736.434 704.4 736.781 704.573 736.941 704.68C736.941 703.56 736.821 702.653 736.581 701.96C736.341 701.24 735.901 700.72 735.261 700.4C734.648 700.053 733.781 699.88 732.661 699.88C731.034 699.88 729.594 700.04 728.341 700.36C727.088 700.68 726.061 701.053 725.261 701.48C724.488 701.907 723.954 702.267 723.661 702.56V701.36L723.261 697.44C723.448 697.333 723.941 697.16 724.741 696.92C725.541 696.68 726.634 696.453 728.021 696.24C729.408 696 731.061 695.88 732.981 695.88C735.621 695.88 737.634 696.267 739.021 697.04C740.408 697.787 741.354 698.867 741.861 700.28C742.394 701.693 742.661 703.4 742.661 705.4V712.6C742.661 713.347 742.741 713.893 742.901 714.24C743.088 714.56 743.274 714.813 743.461 715H736.981V714.16L737.061 713.4L736.981 713.32C736.768 713.56 736.461 713.8 736.061 714.04C735.661 714.28 735.168 714.507 734.581 714.72C733.994 714.907 733.314 715.067 732.541 715.2C731.768 715.333 730.901 715.4 729.941 715.4ZM731.821 711.36C732.941 711.36 733.874 711.28 734.621 711.12C735.394 710.933 735.981 710.693 736.381 710.4C736.781 710.08 736.981 709.707 736.981 709.28C736.981 708.667 736.514 708.16 735.581 707.76C734.674 707.36 733.434 707.16 731.861 707.16C730.341 707.16 729.261 707.373 728.621 707.8C728.008 708.227 727.701 708.76 727.701 709.4C727.701 710.2 728.061 710.733 728.781 711C729.501 711.24 730.514 711.36 731.821 711.36ZM747.232 724.76C745.632 724.76 744.366 724.6 743.432 724.28C742.499 723.96 741.899 723.653 741.632 723.36L742.432 717.16V715.96C742.752 716.653 743.192 717.373 743.752 718.12C744.286 718.867 744.912 719.493 745.632 720C746.352 720.507 747.099 720.76 747.872 720.76C748.406 720.76 748.886 720.64 749.312 720.4C749.766 720.187 750.179 719.84 750.552 719.36C750.952 718.88 751.339 718.28 751.712 717.56C752.246 716.493 752.579 715.76 752.712 715.36C752.552 715.147 752.286 714.653 751.912 713.88C751.566 713.107 751.139 712.173 750.632 711.08C750.152 709.96 749.632 708.787 749.072 707.56C748.539 706.307 748.019 705.093 747.512 703.92C747.032 702.747 746.592 701.707 746.192 700.8C745.819 699.893 745.539 699.227 745.352 698.8C744.979 697.893 744.606 697.253 744.232 696.88C743.832 696.48 743.526 696.28 743.312 696.28H751.512C751.379 696.28 751.286 696.467 751.232 696.84C751.179 697.213 751.272 697.867 751.512 698.8C751.646 699.307 751.859 700.027 752.152 700.96C752.446 701.867 752.779 702.867 753.152 703.96C753.552 705.053 753.952 706.16 754.352 707.28C754.779 708.4 755.166 709.427 755.512 710.36H755.552C755.926 709.373 756.312 708.307 756.712 707.16C757.139 705.987 757.552 704.84 757.952 703.72C758.379 702.6 758.739 701.6 759.032 700.72C759.352 699.84 759.592 699.173 759.752 698.72C760.046 697.813 760.166 697.187 760.112 696.84C760.059 696.467 759.939 696.28 759.752 696.28H767.712C767.499 696.28 767.206 696.467 766.832 696.84C766.486 697.187 766.152 697.8 765.832 698.68C765.646 699.16 765.339 699.947 764.912 701.04C764.486 702.133 763.979 703.387 763.392 704.8C762.806 706.213 762.192 707.667 761.552 709.16C760.912 710.653 760.286 712.067 759.672 713.4C759.086 714.707 758.566 715.787 758.112 716.64C757.206 718.4 756.259 719.88 755.272 721.08C754.286 722.28 753.152 723.187 751.872 723.8C750.592 724.44 749.046 724.76 747.232 724.76Z" fill="#303131"/>
<path d="M788 701C787.448 701 787 701.448 787 702C787 702.552 787.448 703 788 703V702V701ZM821.707 702.707C822.098 702.317 822.098 701.683 821.707 701.293L815.343 694.929C814.953 694.538 814.319 694.538 813.929 694.929C813.538 695.319 813.538 695.953 813.929 696.343L819.586 702L813.929 707.657C813.538 708.047 813.538 708.681 813.929 709.071C814.319 709.462 814.953 709.462 815.343 709.071L821.707 702.707ZM788 702V703H821V702V701H788V702Z" fill="#303131"/>
<path opacity="0.05" d="M-32.8453 827.508C-47.8534 816.025 -56.5724 800.858 -59.0024 782.006C-61.4323 763.154 -57.0806 745.933 -45.9472 730.344C-44.2308 728.101 -42.3893 725.953 -40.4227 723.901C-38.4561 721.848 -36.3645 719.892 -34.1478 718.031L93.4899 616.505C107.29 605.723 122.763 600.271 139.908 600.149C157.053 600.027 172.504 605.228 186.261 615.754L332.59 727.704C346.347 738.229 355.41 751.782 359.776 768.361C364.143 784.941 362.928 801.301 356.132 817.442L291.528 967.192C290.312 969.819 288.985 972.459 287.549 975.114C286.112 977.77 284.536 980.219 282.819 982.463C271.186 997.669 255.876 1006.41 236.889 1008.68C217.903 1010.95 200.781 1006.25 185.523 994.572C175.017 986.534 167.359 976.329 162.55 963.955C157.741 951.582 156.709 938.937 159.454 926.019L165.54 896.294C166.197 892.845 165.751 889.54 164.203 886.38C162.656 883.219 160.506 880.587 157.755 878.482L86.4661 823.942C83.7146 821.837 80.6114 820.451 77.1565 819.784C73.7016 819.116 70.3952 819.551 67.2374 821.087L40.1395 834.737C28.3898 840.765 15.9147 843.076 2.71413 841.671C-10.4865 840.266 -22.3396 835.545 -32.8453 827.508ZM-8.8338 798.455C-4.08123 802.091 1.18717 804.146 6.97142 804.619C12.7557 805.092 18.2694 803.976 23.5127 801.269L50.3245 787.993C59.9887 783.135 70.1165 781.3 80.708 782.488C91.2994 783.675 100.847 787.522 109.352 794.028L180.64 848.568C189.145 855.075 195.308 863.346 199.129 873.383C202.95 883.42 204.001 893.708 202.281 904.249L196.481 933.6C195.24 939.368 195.604 944.982 197.574 950.441C199.544 955.9 202.905 960.448 207.658 964.084C214.662 969.442 222.429 971.729 230.96 970.945C239.491 970.16 246.552 966.374 252.142 959.585C251.951 959.835 253.513 957.275 256.827 951.907L321.144 802.53C324.543 794.46 325.237 786.297 323.226 778.04C321.215 769.783 316.708 762.976 309.704 757.618L163.375 645.667C156.371 640.309 148.56 637.692 139.939 637.815C131.319 637.938 123.684 640.791 117.034 646.374L-10.3174 747.526C-11.962 748.639 -13.9285 750.691 -16.2171 753.682C-21.5572 760.662 -23.4751 768.482 -21.9709 777.141C-20.4668 785.801 -16.0877 792.905 -8.8338 798.455ZM201.837 793.65C206.089 796.904 210.751 798.197 215.82 797.531C220.89 796.865 225.046 794.413 228.288 790.176C231.53 785.938 232.81 781.285 232.126 776.218C231.443 771.15 228.975 766.99 224.723 763.737C220.471 760.483 215.81 759.19 210.74 759.856C205.67 760.522 201.514 762.974 198.272 767.211C195.03 771.449 193.75 776.102 194.434 781.169C195.117 786.237 197.585 790.397 201.837 793.65ZM254.739 786.701C258.992 789.954 263.653 791.248 268.722 790.582C273.792 789.916 277.948 787.464 281.19 783.226C284.432 778.988 285.712 774.335 285.029 769.268C284.345 764.2 281.877 760.04 277.625 756.787C273.373 753.534 268.712 752.24 263.642 752.906C258.572 753.572 254.416 756.024 251.174 760.262C247.932 764.499 246.652 769.152 247.336 774.22C248.019 779.287 250.487 783.447 254.739 786.701ZM208.967 846.528C213.22 849.782 217.881 851.075 222.951 850.409C228.02 849.743 232.176 847.291 235.419 843.054C238.661 838.816 239.94 834.163 239.257 829.096C238.573 824.028 236.106 819.868 231.853 816.615C227.601 813.361 222.94 812.068 217.87 812.734C212.8 813.4 208.644 815.852 205.402 820.089C202.16 824.327 200.881 828.98 201.564 834.047C202.247 839.115 204.715 843.275 208.967 846.528ZM261.87 839.579C266.122 842.832 270.783 844.126 275.853 843.46C280.922 842.794 285.078 840.342 288.321 836.104C291.563 831.866 292.842 827.213 292.159 822.146C291.476 817.078 289.008 812.918 284.755 809.665C280.503 806.412 275.842 805.118 270.772 805.784C265.703 806.45 261.547 808.902 258.304 813.14C255.062 817.377 253.783 822.03 254.466 827.098C255.149 832.165 257.617 836.325 261.87 839.579ZM109.632 758.675C112.884 761.163 116.384 762.161 120.131 761.669C123.878 761.176 126.991 759.31 129.471 756.069L140.913 741.112L155.922 752.594C159.173 755.082 162.673 756.08 166.42 755.588C170.167 755.095 173.281 753.229 175.76 749.988C178.239 746.748 179.226 743.254 178.721 739.509C178.216 735.763 176.338 732.647 173.086 730.159L158.078 718.677L169.521 703.72C172 700.479 172.987 696.986 172.482 693.241C171.977 689.495 170.099 686.379 166.847 683.891C163.595 681.403 160.096 680.405 156.348 680.897C152.601 681.39 149.488 683.256 147.009 686.497L135.566 701.454L120.558 689.972C117.306 687.484 113.806 686.486 110.059 686.978C106.312 687.471 103.199 689.337 100.719 692.578C98.2401 695.819 97.253 699.312 97.758 703.057C98.2631 706.803 100.141 709.919 103.393 712.407L118.401 723.889L106.958 738.846C104.479 742.087 103.492 745.58 103.997 749.325C104.502 753.071 106.381 756.188 109.632 758.675Z" fill="#F0EA6E"/>
</g>
<defs>
<clipPath id="clip0_53_417">
<rect width="1440" height="1024" fill="white"/>
</clipPath>
</defs>
</svg>
