<svg width="250" height="98" viewBox="0 0 250 98" fill="none" xmlns="http://www.w3.org/2000/svg">
<rect width="250" height="98" fill="#F0EA6E"/>
<path d="M31.3751 65C29.3683 65 27.6541 64.2833 26.2326 62.85C24.8111 61.4167 24.0669 59.6833 24 57.65C24 57.35 24.0167 57.05 24.0502 56.75C24.0836 56.45 24.1338 56.15 24.2007 55.85L28.4151 39.05C28.8833 37.25 29.8366 35.7917 31.2748 34.675C32.713 33.5583 34.352 33 36.1916 33H55.7583C57.5979 33 59.2368 33.5583 60.675 34.675C62.1133 35.7917 63.0665 37.25 63.5348 39.05L67.7491 55.85C67.816 56.15 67.8746 56.4583 67.9247 56.775C67.9749 57.0917 68 57.4 68 57.7C68 59.7333 67.2725 61.4583 65.8176 62.875C64.3626 64.2917 62.615 65 60.5747 65C59.1699 65 57.8655 64.6333 56.6613 63.9C55.4572 63.1667 54.5542 62.1667 53.9521 60.9L52.5473 58C52.3801 57.6667 52.1292 57.4167 51.7948 57.25C51.4603 57.0833 51.1091 57 50.7412 57H41.2087C40.8407 57 40.4895 57.0833 40.1551 57.25C39.8206 57.4167 39.5697 57.6667 39.4025 58L37.9977 60.9C37.3957 62.1667 36.4926 63.1667 35.2885 63.9C34.0844 64.6333 32.7799 65 31.3751 65ZM31.5257 61C32.1612 61 32.7381 60.8333 33.2566 60.5C33.775 60.1667 34.168 59.7167 34.4356 59.15L35.8404 56.3C36.3421 55.2667 37.0779 54.4583 38.0479 53.875C39.0179 53.2917 40.0715 53 41.2087 53H50.7412C51.8784 53 52.932 53.3 53.9019 53.9C54.8719 54.5 55.6245 55.3 56.1596 56.3L57.5644 59.15C57.832 59.7167 58.225 60.1667 58.7434 60.5C59.2619 60.8333 59.8388 61 60.4743 61C61.4109 61 62.2136 60.6917 62.8826 60.075C63.5515 59.4583 63.9027 58.6833 63.9361 57.75C63.9361 57.7833 63.9027 57.4667 63.8358 56.8L59.6214 40.05C59.3873 39.15 58.919 38.4167 58.2166 37.85C57.5143 37.2833 56.6948 37 55.7583 37H36.1916C35.255 37 34.4272 37.2833 33.7081 37.85C32.989 38.4167 32.5291 39.15 32.3284 40.05L28.114 56.8C28.0471 57 28.0137 57.3 28.0137 57.7C28.0137 58.6333 28.3565 59.4167 29.0422 60.05C29.7279 60.6833 30.5557 61 31.5257 61ZM48.9852 47C49.5538 47 50.0304 46.8083 50.4151 46.425C50.7997 46.0417 50.992 45.5667 50.992 45C50.992 44.4333 50.7997 43.9583 50.4151 43.575C50.0304 43.1917 49.5538 43 48.9852 43C48.4166 43 47.9399 43.1917 47.5553 43.575C47.1707 43.9583 46.9783 44.4333 46.9783 45C46.9783 45.5667 47.1707 46.0417 47.5553 46.425C47.9399 46.8083 48.4166 47 48.9852 47ZM52.9989 43C53.5675 43 54.0441 42.8083 54.4287 42.425C54.8134 42.0417 55.0057 41.5667 55.0057 41C55.0057 40.4333 54.8134 39.9583 54.4287 39.575C54.0441 39.1917 53.5675 39 52.9989 39C52.4303 39 51.9536 39.1917 51.569 39.575C51.1843 39.9583 50.992 40.4333 50.992 41C50.992 41.5667 51.1843 42.0417 51.569 42.425C51.9536 42.8083 52.4303 43 52.9989 43ZM52.9989 51C53.5675 51 54.0441 50.8083 54.4287 50.425C54.8134 50.0417 55.0057 49.5667 55.0057 49C55.0057 48.4333 54.8134 47.9583 54.4287 47.575C54.0441 47.1917 53.5675 47 52.9989 47C52.4303 47 51.9536 47.1917 51.569 47.575C51.1843 47.9583 50.992 48.4333 50.992 49C50.992 49.5667 51.1843 50.0417 51.569 50.425C51.9536 50.8083 52.4303 51 52.9989 51ZM57.0125 47C57.5811 47 58.0578 46.8083 58.4424 46.425C58.8271 46.0417 59.0194 45.5667 59.0194 45C59.0194 44.4333 58.8271 43.9583 58.4424 43.575C58.0578 43.1917 57.5811 43 57.0125 43C56.4439 43 55.9673 43.1917 55.5827 43.575C55.198 43.9583 55.0057 44.4333 55.0057 45C55.0057 45.5667 55.198 46.0417 55.5827 46.425C55.9673 46.8083 56.4439 47 57.0125 47ZM38.951 50C39.3858 50 39.7453 49.8583 40.0296 49.575C40.3139 49.2917 40.4561 48.9333 40.4561 48.5V46.5H42.4629C42.8978 46.5 43.2573 46.3583 43.5416 46.075C43.8259 45.7917 43.9681 45.4333 43.9681 45C43.9681 44.5667 43.8259 44.2083 43.5416 43.925C43.2573 43.6417 42.8978 43.5 42.4629 43.5H40.4561V41.5C40.4561 41.0667 40.3139 40.7083 40.0296 40.425C39.7453 40.1417 39.3858 40 38.951 40C38.5162 40 38.1566 40.1417 37.8723 40.425C37.588 40.7083 37.4458 41.0667 37.4458 41.5V43.5H35.439C35.0042 43.5 34.6446 43.6417 34.3603 43.925C34.076 44.2083 33.9339 44.5667 33.9339 45C33.9339 45.4333 34.076 45.7917 34.3603 46.075C34.6446 46.3583 35.0042 46.5 35.439 46.5H37.4458V48.5C37.4458 48.9333 37.588 49.2917 37.8723 49.575C38.1566 49.8583 38.5162 50 38.951 50Z" fill="#303131"/>
<path d="M90.04 62C90.2267 62 90.4 61.8133 90.56 61.44C90.7467 61.0667 90.84 60.4533 90.84 59.6V40.4C90.84 39.5467 90.7467 38.9467 90.56 38.6C90.3733 38.2267 90.1867 38.0267 90 38H103.12C105.387 38 107.213 38.3333 108.6 39C110.013 39.64 111.053 40.5733 111.72 41.8C112.387 43 112.72 44.44 112.72 46.12C112.72 47.8267 112.387 49.3067 111.72 50.56C111.053 51.7867 110.013 52.7333 108.6 53.4C107.213 54.04 105.387 54.36 103.12 54.36H97V59.6C97 60.4533 97.0933 61.0667 97.28 61.44C97.4667 61.8133 97.6533 62 97.84 62H90.04ZM98.64 49.96H100.64C102.213 49.96 103.427 49.8267 104.28 49.56C105.16 49.2933 105.773 48.88 106.12 48.32C106.467 47.76 106.64 47.0267 106.64 46.12C106.64 45.24 106.453 44.5333 106.08 44C105.733 43.4667 105.147 43.0933 104.32 42.88C103.52 42.64 102.427 42.52 101.04 42.52H98.64C97.8133 42.52 97.3333 42.5733 97.2 42.68C97.0667 42.76 97 43.0667 97 43.6V48.84C97 49.3733 97.0667 49.6933 97.2 49.8C97.3333 49.9067 97.8133 49.96 98.64 49.96ZM116.133 62C116.319 62 116.506 61.8133 116.693 61.44C116.879 61.0667 116.973 60.4533 116.973 59.6V36.8C116.973 35.9467 116.879 35.3333 116.693 34.96C116.533 34.5867 116.359 34.4 116.173 34.4C117.933 34.4 119.359 34.32 120.453 34.16C121.573 33.9733 122.306 33.7867 122.653 33.6V59.6C122.653 60.4533 122.733 61.0667 122.893 61.44C123.079 61.8133 123.266 62 123.453 62H116.133ZM134.941 62.4C132.541 62.4 130.621 61.9333 129.181 61C127.768 60.04 127.061 58.5067 127.061 56.4C127.061 54.9333 127.434 53.7467 128.181 52.84C128.928 51.9333 129.941 51.2667 131.221 50.84C132.528 50.3867 134.008 50.16 135.661 50.16C136.888 50.16 137.928 50.2667 138.781 50.48C139.661 50.6933 140.368 50.92 140.901 51.16C141.434 51.4 141.781 51.5733 141.941 51.68C141.941 50.56 141.821 49.6533 141.581 48.96C141.341 48.24 140.901 47.72 140.261 47.4C139.648 47.0533 138.781 46.88 137.661 46.88C136.034 46.88 134.594 47.04 133.341 47.36C132.088 47.68 131.061 48.0533 130.261 48.48C129.488 48.9067 128.954 49.2667 128.661 49.56V48.36L128.261 44.44C128.448 44.3333 128.941 44.16 129.741 43.92C130.541 43.68 131.634 43.4533 133.021 43.24C134.408 43 136.061 42.88 137.981 42.88C140.621 42.88 142.634 43.2667 144.021 44.04C145.408 44.7867 146.354 45.8667 146.861 47.28C147.394 48.6933 147.661 50.4 147.661 52.4V59.6C147.661 60.3467 147.741 60.8933 147.901 61.24C148.088 61.56 148.274 61.8133 148.461 62H141.981V61.16L142.061 60.4L141.981 60.32C141.768 60.56 141.461 60.8 141.061 61.04C140.661 61.28 140.168 61.5067 139.581 61.72C138.994 61.9067 138.314 62.0667 137.541 62.2C136.768 62.3333 135.901 62.4 134.941 62.4ZM136.821 58.36C137.941 58.36 138.874 58.28 139.621 58.12C140.394 57.9333 140.981 57.6933 141.381 57.4C141.781 57.08 141.981 56.7067 141.981 56.28C141.981 55.6667 141.514 55.16 140.581 54.76C139.674 54.36 138.434 54.16 136.861 54.16C135.341 54.16 134.261 54.3733 133.621 54.8C133.008 55.2267 132.701 55.76 132.701 56.4C132.701 57.2 133.061 57.7333 133.781 58C134.501 58.24 135.514 58.36 136.821 58.36ZM152.232 71.76C150.632 71.76 149.366 71.6 148.432 71.28C147.499 70.96 146.899 70.6533 146.632 70.36L147.432 64.16V62.96C147.752 63.6533 148.192 64.3733 148.752 65.12C149.286 65.8667 149.912 66.4933 150.632 67C151.352 67.5067 152.099 67.76 152.872 67.76C153.406 67.76 153.886 67.64 154.312 67.4C154.766 67.1867 155.179 66.84 155.552 66.36C155.952 65.88 156.339 65.28 156.712 64.56C157.246 63.4933 157.579 62.76 157.712 62.36C157.552 62.1467 157.286 61.6533 156.912 60.88C156.566 60.1067 156.139 59.1733 155.632 58.08C155.152 56.96 154.632 55.7867 154.072 54.56C153.539 53.3067 153.019 52.0933 152.512 50.92C152.032 49.7467 151.592 48.7067 151.192 47.8C150.819 46.8933 150.539 46.2267 150.352 45.8C149.979 44.8933 149.606 44.2533 149.232 43.88C148.832 43.48 148.526 43.28 148.312 43.28H156.512C156.379 43.28 156.286 43.4667 156.232 43.84C156.179 44.2133 156.272 44.8667 156.512 45.8C156.646 46.3067 156.859 47.0267 157.152 47.96C157.446 48.8667 157.779 49.8667 158.152 50.96C158.552 52.0533 158.952 53.16 159.352 54.28C159.779 55.4 160.166 56.4267 160.512 57.36H160.552C160.926 56.3733 161.312 55.3067 161.712 54.16C162.139 52.9867 162.552 51.84 162.952 50.72C163.379 49.6 163.739 48.6 164.032 47.72C164.352 46.84 164.592 46.1733 164.752 45.72C165.046 44.8133 165.166 44.1867 165.112 43.84C165.059 43.4667 164.939 43.28 164.752 43.28H172.712C172.499 43.28 172.206 43.4667 171.832 43.84C171.486 44.1867 171.152 44.8 170.832 45.68C170.646 46.16 170.339 46.9467 169.912 48.04C169.486 49.1333 168.979 50.3867 168.392 51.8C167.806 53.2133 167.192 54.6667 166.552 56.16C165.912 57.6533 165.286 59.0667 164.672 60.4C164.086 61.7067 163.566 62.7867 163.112 63.64C162.206 65.4 161.259 66.88 160.272 68.08C159.286 69.28 158.152 70.1867 156.872 70.8C155.592 71.44 154.046 71.76 152.232 71.76Z" fill="#303131"/>
<path d="M193 48C192.448 48 192 48.4477 192 49C192 49.5523 192.448 50 193 50V49V48ZM226.707 49.7071C227.098 49.3166 227.098 48.6834 226.707 48.2929L220.343 41.9289C219.953 41.5384 219.319 41.5384 218.929 41.9289C218.538 42.3195 218.538 42.9526 218.929 43.3431L224.586 49L218.929 54.6569C218.538 55.0474 218.538 55.6805 218.929 56.0711C219.319 56.4616 219.953 56.4616 220.343 56.0711L226.707 49.7071ZM193 49V50H226V49V48H193V49Z" fill="#303131"/>
</svg>
