<svg width="221" height="55" viewBox="0 0 221 55" fill="none" xmlns="http://www.w3.org/2000/svg">
<g filter="url(#filter0_d_2247_7686)">
<rect x="2" y="2" width="211" height="45" rx="10" fill="#F3832D" shape-rendering="crispEdges"/>
<path d="M32.48 24.92L32.528 29.72C32.528 30.68 32.128 31.16 31.328 31.16C30.8587 31.16 30.4907 30.9413 30.224 30.504L26.032 23.48C26.0107 23.736 26 24.1627 26 24.76L26.112 29.432C26.112 30.584 25.7067 31.16 24.896 31.16C24.0853 31.16 23.68 30.584 23.68 29.432L23.808 25.08C23.808 24.6853 23.7867 23.9653 23.744 22.92C23.7013 21.8747 23.68 20.9893 23.68 20.264C23.68 19.3147 24.0747 18.84 24.864 18.84C25.408 18.84 25.8027 19.0533 26.048 19.48L30.32 26.808L30.304 24.92L30.176 20.568C30.176 19.416 30.5813 18.84 31.392 18.84C32.2027 18.84 32.608 19.416 32.608 20.568L32.48 24.92ZM40.8104 29.224C41.7597 29.224 42.549 28.7973 43.1784 27.944C43.8077 27.0907 44.1224 26.104 44.1224 24.984C44.1224 23.8533 43.8077 22.872 43.1784 22.04C42.5597 21.1973 41.7704 20.776 40.8104 20.776C39.861 20.776 39.0717 21.1973 38.4424 22.04C37.8237 22.872 37.5144 23.8533 37.5144 24.984C37.5144 26.104 37.829 27.0907 38.4584 27.944C39.0877 28.7973 39.8717 29.224 40.8104 29.224ZM40.8264 18.76C42.4157 18.76 43.7384 19.368 44.7944 20.584C45.861 21.7893 46.3944 23.2613 46.3944 25C46.3944 26.728 45.861 28.2 44.7944 29.416C43.7277 30.632 42.3997 31.24 40.8104 31.24C39.2317 31.24 37.909 30.632 36.8424 29.416C35.7757 28.2 35.2424 26.728 35.2424 25C35.2424 23.2613 35.7757 21.7893 36.8424 20.584C37.9197 19.368 39.2477 18.76 40.8264 18.76ZM48.3023 31.048L48.1423 29.832C48.1423 29.4693 48.2596 29.1493 48.4943 28.872C48.7396 28.5947 49.0436 28.456 49.4062 28.456C49.7796 28.456 50.0729 28.584 50.2863 28.84C50.4996 29.096 50.6063 29.4053 50.6063 29.768C50.6063 30.4933 50.3769 31.24 49.9183 32.008C49.4596 32.776 49.0383 33.16 48.6543 33.16C48.4089 33.16 48.2276 33.0853 48.1103 32.936C47.9929 32.7867 47.9342 32.6267 47.9342 32.456C47.9342 32.296 47.9929 32.072 48.1103 31.784C48.2383 31.5067 48.3023 31.2613 48.3023 31.048ZM67.4406 27.464C67.4406 28.616 66.9553 29.5333 65.9846 30.216C65.0246 30.8987 63.8193 31.24 62.3686 31.24C60.9286 31.24 59.782 31.0907 58.9286 30.792C58.086 30.4827 57.6646 30.0933 57.6646 29.624C57.6646 29.1227 57.8993 28.8293 58.3686 28.744C58.4006 27.6773 58.4166 26.4133 58.4166 24.952C58.4166 23.48 58.4006 22.3387 58.3686 21.528C57.9313 21.3253 57.7126 21.0427 57.7126 20.68C57.7126 20.3173 57.8833 20.0133 58.2246 19.768C58.5766 19.512 59.0033 19.3147 59.5046 19.176C60.5073 18.8987 61.3926 18.76 62.1606 18.76C62.9286 18.76 63.6113 18.8667 64.2086 19.08C64.8166 19.2827 65.2913 19.5547 65.6326 19.896C66.294 20.5573 66.6246 21.2613 66.6246 22.008C66.6246 22.9253 66.214 23.7307 65.3926 24.424C65.99 24.7547 66.4806 25.192 66.8646 25.736C67.2486 26.28 67.4406 26.856 67.4406 27.464ZM60.6886 29.112C61.094 29.1867 61.6646 29.224 62.4006 29.224C63.1473 29.224 63.7926 29.0693 64.3366 28.76C64.8806 28.44 65.1526 27.976 65.1526 27.368C65.1526 26.92 64.9286 26.5413 64.4806 26.232C64.0433 25.9227 63.5633 25.7147 63.0406 25.608C62.4753 25.7573 62.0006 25.832 61.6166 25.832C61.2433 25.832 60.9073 25.8213 60.6086 25.8C60.63 27.656 60.6566 28.76 60.6886 29.112ZM64.4486 22.024C64.4486 21.704 64.2566 21.416 63.8726 21.16C63.4993 20.904 62.9926 20.776 62.3526 20.776C61.7233 20.776 61.1526 20.84 60.6406 20.968V23.608C61.046 23.5653 61.414 23.544 61.7446 23.544C62.086 23.544 62.454 23.5867 62.8486 23.672C63.1793 23.6293 63.526 23.464 63.8886 23.176C64.262 22.8773 64.4486 22.4933 64.4486 22.024ZM77.9133 18.76C78.3506 18.76 78.6919 18.9413 78.9373 19.304C79.1933 19.656 79.3213 20.104 79.3213 20.648C79.3213 21.1813 79.1719 22.68 78.8733 25.144C78.8733 25.72 78.9319 26.4827 79.0493 27.432C79.1773 28.3707 79.3426 28.9093 79.5453 29.048C79.7373 29.176 79.8759 29.256 79.9613 29.288C80.0466 29.32 80.1053 29.3467 80.1373 29.368C80.1906 29.4213 80.2173 29.528 80.2173 29.688C80.2173 30.0933 80.0786 30.4507 79.8013 30.76C79.5239 31.0693 79.1613 31.224 78.7133 31.224C78.2759 31.224 77.9133 31.0373 77.6253 30.664C77.3373 30.28 77.1399 29.7947 77.0333 29.208C76.0413 30.5627 74.8786 31.24 73.5453 31.24C72.8306 31.24 72.1906 31.0587 71.6253 30.696C71.0599 30.3227 70.6119 29.8373 70.2812 29.24C69.6093 28.024 69.2733 26.6747 69.2733 25.192C69.2733 23.4427 69.7426 21.9333 70.6813 20.664C71.6199 19.3947 72.8359 18.76 74.3293 18.76C75.2039 18.76 76.0359 18.9947 76.8253 19.464C76.9853 18.9947 77.3479 18.76 77.9133 18.76ZM76.8573 25.288L76.7773 21.768C76.0199 21.1173 75.2039 20.792 74.3293 20.792C73.5933 20.792 72.9426 21.2133 72.3773 22.056C71.8226 22.888 71.5453 23.896 71.5453 25.08C71.5453 26.264 71.7266 27.2507 72.0893 28.04C72.4626 28.8187 72.9746 29.208 73.6253 29.208C74.2866 29.208 74.9533 28.7707 75.6253 27.896C76.3079 27.0213 76.7186 26.152 76.8573 25.288ZM91.7471 29.064C91.7471 29.5547 91.3418 30.04 90.5311 30.52C89.7205 31 88.7445 31.24 87.6031 31.24C86.0565 31.24 84.7711 30.632 83.7471 29.416C82.7231 28.2 82.2111 26.7227 82.2111 24.984C82.2111 23.2453 82.7231 21.7733 83.7471 20.568C84.7818 19.3627 86.0725 18.76 87.6191 18.76C88.6005 18.76 89.4805 18.9627 90.2591 19.368C91.0485 19.7733 91.4431 20.232 91.4431 20.744C91.4431 21.0533 91.3418 21.304 91.1391 21.496C90.9365 21.6773 90.6751 21.768 90.3551 21.768C90.0458 21.768 89.6565 21.608 89.1871 21.288C88.7178 20.9573 88.1951 20.792 87.6191 20.792C86.7125 20.792 85.9605 21.208 85.3631 22.04C84.7765 22.8613 84.4831 23.8427 84.4831 24.984C84.4831 26.1147 84.7765 27.1067 85.3631 27.96C85.9498 28.8027 86.6751 29.224 87.5391 29.224C88.4138 29.224 89.2351 28.9947 90.0031 28.536C90.3551 28.3227 90.6538 28.216 90.8991 28.216C91.1551 28.216 91.3578 28.296 91.5071 28.456C91.6671 28.616 91.7471 28.8187 91.7471 29.064ZM96.5328 20.6C96.5328 20.76 96.4954 21.736 96.4208 23.528C96.7834 23.5067 97.0234 23.496 97.1408 23.496C97.2581 23.496 97.5301 23.5227 97.9568 23.576C98.3728 23.224 98.7621 22.728 99.1248 22.088C99.4874 21.448 99.7808 20.7813 100.005 20.088C100.261 19.256 100.661 18.84 101.205 18.84C101.493 18.84 101.738 18.9413 101.941 19.144C102.154 19.336 102.261 19.5813 102.261 19.88C102.261 20.5093 101.999 21.3253 101.477 22.328C100.954 23.32 100.367 24.168 99.7168 24.872C100.229 25.9493 100.799 26.9147 101.429 27.768C102.058 28.6213 102.501 29.112 102.757 29.24C102.821 29.272 102.911 29.2987 103.029 29.32C103.157 29.3307 103.247 29.3627 103.301 29.416C103.354 29.4587 103.381 29.5547 103.381 29.704C103.381 30.056 103.247 30.3867 102.981 30.696C102.725 31.0053 102.399 31.16 102.005 31.16C101.61 31.16 101.247 31.032 100.917 30.776C100.597 30.5093 100.207 30.0347 99.7488 29.352C99.3008 28.6693 98.6128 27.5173 97.6848 25.896C97.3008 25.96 97.0128 25.992 96.8208 25.992C96.6394 25.992 96.5061 25.9813 96.4208 25.96L96.5328 29.416C96.5328 30.5787 96.1274 31.16 95.3168 31.16C94.5061 31.16 94.1008 30.5787 94.1008 29.416L94.2288 24.92L94.1008 20.6C94.1008 19.4373 94.5061 18.856 95.3168 18.856C96.1274 18.856 96.5328 19.4373 96.5328 20.6ZM110.543 18.904L113.583 19L116.623 18.904C117.028 18.904 117.348 19 117.583 19.192C117.828 19.384 117.951 19.6453 117.951 19.976C117.951 20.3067 117.828 20.568 117.583 20.76C117.348 20.952 117.028 21.048 116.623 21.048L114.815 20.952C114.762 22.36 114.735 23.736 114.735 25.08L114.863 29.432C114.863 30.584 114.458 31.16 113.647 31.16C112.836 31.16 112.431 30.584 112.431 29.432L112.559 25.08C112.559 24.2053 112.522 22.8293 112.447 20.952L110.543 21.048C110.138 21.048 109.812 20.952 109.567 20.76C109.332 20.568 109.215 20.3067 109.215 19.976C109.215 19.6453 109.332 19.384 109.567 19.192C109.812 19 110.138 18.904 110.543 18.904ZM124.967 29.224C125.916 29.224 126.705 28.7973 127.335 27.944C127.964 27.0907 128.279 26.104 128.279 24.984C128.279 23.8533 127.964 22.872 127.335 22.04C126.716 21.1973 125.927 20.776 124.967 20.776C124.017 20.776 123.228 21.1973 122.599 22.04C121.98 22.872 121.671 23.8533 121.671 24.984C121.671 26.104 121.985 27.0907 122.615 27.944C123.244 28.7973 124.028 29.224 124.967 29.224ZM124.983 18.76C126.572 18.76 127.895 19.368 128.951 20.584C130.017 21.7893 130.551 23.2613 130.551 25C130.551 26.728 130.017 28.2 128.951 29.416C127.884 30.632 126.556 31.24 124.967 31.24C123.388 31.24 122.065 30.632 120.999 29.416C119.932 28.2 119.399 26.728 119.399 25C119.399 23.2613 119.932 21.7893 120.999 20.584C122.076 19.368 123.404 18.76 124.983 18.76ZM142.978 24.2L144.802 24.296L146.674 24.2C147.058 24.2 147.373 24.3227 147.618 24.568C147.863 24.8133 147.986 25.1227 147.986 25.496C147.986 27.2453 147.517 28.6427 146.578 29.688C145.65 30.7227 144.434 31.24 142.93 31.24C141.426 31.24 140.162 30.632 139.138 29.416C138.114 28.2 137.602 26.7227 137.602 24.984C137.602 23.2453 138.13 21.7733 139.186 20.568C140.242 19.3627 141.575 18.76 143.186 18.76C144.221 18.76 145.159 18.984 146.002 19.432C146.845 19.88 147.266 20.3653 147.266 20.888C147.266 21.1867 147.17 21.4267 146.978 21.608C146.786 21.7787 146.541 21.864 146.242 21.864C145.943 21.864 145.661 21.7787 145.394 21.608C145.127 21.4267 144.818 21.2453 144.466 21.064C144.114 20.8827 143.687 20.792 143.186 20.792C142.226 20.792 141.431 21.2027 140.802 22.024C140.183 22.8453 139.874 23.8267 139.874 24.968C139.874 26.1093 140.167 27.1067 140.754 27.96C141.351 28.8027 142.103 29.224 143.01 29.224C143.693 29.224 144.274 28.968 144.754 28.456C145.234 27.9333 145.522 27.2027 145.618 26.264C145.501 26.2533 145.213 26.248 144.754 26.248L142.978 26.328C142.583 26.328 142.263 26.232 142.018 26.04C141.773 25.8373 141.65 25.576 141.65 25.256C141.65 24.9253 141.773 24.6693 142.018 24.488C142.263 24.296 142.583 24.2 142.978 24.2ZM158.46 18.76C158.897 18.76 159.239 18.9413 159.484 19.304C159.74 19.656 159.868 20.104 159.868 20.648C159.868 21.1813 159.719 22.68 159.42 25.144C159.42 25.72 159.479 26.4827 159.596 27.432C159.724 28.3707 159.889 28.9093 160.092 29.048C160.284 29.176 160.423 29.256 160.508 29.288C160.593 29.32 160.652 29.3467 160.684 29.368C160.737 29.4213 160.764 29.528 160.764 29.688C160.764 30.0933 160.625 30.4507 160.348 30.76C160.071 31.0693 159.708 31.224 159.26 31.224C158.823 31.224 158.46 31.0373 158.172 30.664C157.884 30.28 157.687 29.7947 157.58 29.208C156.588 30.5627 155.425 31.24 154.092 31.24C153.377 31.24 152.737 31.0587 152.172 30.696C151.607 30.3227 151.159 29.8373 150.828 29.24C150.156 28.024 149.82 26.6747 149.82 25.192C149.82 23.4427 150.289 21.9333 151.228 20.664C152.167 19.3947 153.383 18.76 154.876 18.76C155.751 18.76 156.583 18.9947 157.372 19.464C157.532 18.9947 157.895 18.76 158.46 18.76ZM157.404 25.288L157.324 21.768C156.567 21.1173 155.751 20.792 154.876 20.792C154.14 20.792 153.489 21.2133 152.924 22.056C152.369 22.888 152.092 23.896 152.092 25.08C152.092 26.264 152.273 27.2507 152.636 28.04C153.009 28.8187 153.521 29.208 154.172 29.208C154.833 29.208 155.5 28.7707 156.172 27.896C156.855 27.0213 157.265 26.152 157.404 25.288ZM165.366 24.728L165.462 29.432C165.462 30.584 165.062 31.16 164.262 31.16C163.366 31.16 162.918 30.4827 162.918 29.128C162.918 28.0613 163.057 26.616 163.334 24.792C163.334 24.2907 163.275 23.528 163.158 22.504C163.041 21.48 162.982 20.7333 162.982 20.264C162.982 19.784 163.089 19.4213 163.302 19.176C163.515 18.92 163.814 18.792 164.198 18.792C164.977 18.792 165.366 19.3947 165.366 20.6C166.251 19.4267 167.339 18.84 168.63 18.84C169.398 18.84 170.065 19.0267 170.63 19.4C171.206 19.7733 171.649 20.2693 171.958 20.888C172.342 20.312 172.843 19.8267 173.462 19.432C174.081 19.0373 174.747 18.84 175.462 18.84C176.667 18.84 177.601 19.2613 178.262 20.104C178.934 20.936 179.27 21.9547 179.27 23.16L179.174 27.24C179.174 28.264 179.238 28.8347 179.366 28.952C179.473 29.048 179.611 29.112 179.782 29.144C179.953 29.176 180.065 29.2293 180.118 29.304C180.182 29.368 180.214 29.464 180.214 29.592C180.214 30.04 180.059 30.4187 179.75 30.728C179.451 31.0373 179.099 31.192 178.694 31.192C178.022 31.192 177.558 30.9627 177.302 30.504C177.046 30.0347 176.918 29.3467 176.918 28.44L176.998 24.152C176.998 23.1707 176.849 22.3813 176.55 21.784C176.262 21.1867 175.825 20.888 175.238 20.888C174.662 20.888 174.07 21.2773 173.462 22.056C172.865 22.824 172.443 23.7147 172.198 24.728L172.294 29.432C172.294 30.584 171.894 31.16 171.094 31.16C170.198 31.16 169.75 30.4827 169.75 29.128C169.75 28.0613 169.889 26.616 170.166 24.792C170.166 23.576 170.022 22.6213 169.734 21.928C169.446 21.2347 169.009 20.888 168.422 20.888C167.835 20.888 167.238 21.2773 166.63 22.056C166.033 22.824 165.611 23.7147 165.366 24.728ZM189.991 22.328C189.991 21.944 189.836 21.592 189.527 21.272C189.218 20.952 188.775 20.792 188.199 20.792C187.442 20.792 186.796 21.112 186.263 21.752C185.74 22.392 185.372 23.16 185.159 24.056C185.799 24.2053 186.514 24.28 187.303 24.28C188.103 24.28 188.748 24.1093 189.239 23.768C189.74 23.4267 189.991 22.9467 189.991 22.328ZM191.895 29.064C191.895 29.48 191.5 29.9493 190.711 30.472C189.922 30.984 189.079 31.24 188.183 31.24C187.287 31.24 186.514 31.0853 185.863 30.776C185.223 30.456 184.695 30.0293 184.279 29.496C183.404 28.3973 182.914 27.1013 182.807 25.608C182.082 25.32 181.719 24.8773 181.719 24.28C181.719 23.9813 181.815 23.7413 182.007 23.56C182.21 23.368 182.455 23.272 182.743 23.272C182.828 23.272 182.924 23.288 183.031 23.32C183.404 21.9973 184.039 20.9093 184.935 20.056C185.831 19.192 186.876 18.76 188.071 18.76C189.276 18.76 190.274 19.1067 191.063 19.8C191.863 20.4827 192.263 21.304 192.263 22.264C192.263 23.2133 192.023 23.992 191.543 24.6C190.636 25.7093 189.234 26.264 187.335 26.264C186.706 26.264 185.975 26.1947 185.143 26.056C185.303 26.952 185.639 27.704 186.151 28.312C186.663 28.92 187.25 29.224 187.911 29.224C188.647 29.224 189.431 28.9733 190.263 28.472C190.54 28.3013 190.796 28.216 191.031 28.216C191.266 28.216 191.468 28.296 191.639 28.456C191.81 28.616 191.895 28.8187 191.895 29.064Z" fill="white"/>
</g>
<defs>
<filter id="filter0_d_2247_7686" x="0" y="0" width="221" height="55" filterUnits="userSpaceOnUse" color-interpolation-filters="sRGB">
<feFlood flood-opacity="0" result="BackgroundImageFix"/>
<feColorMatrix in="SourceAlpha" type="matrix" values="0 0 0 0 0 0 0 0 0 0 0 0 0 0 0 0 0 0 127 0" result="hardAlpha"/>
<feOffset dx="3" dy="3"/>
<feGaussianBlur stdDeviation="2.5"/>
<feComposite in2="hardAlpha" operator="out"/>
<feColorMatrix type="matrix" values="0 0 0 0 0 0 0 0 0 0 0 0 0 0 0 0 0 0 0.2 0"/>
<feBlend mode="normal" in2="BackgroundImageFix" result="effect1_dropShadow_2247_7686"/>
<feBlend mode="normal" in="SourceGraphic" in2="effect1_dropShadow_2247_7686" result="shape"/>
</filter>
</defs>
</svg>
