<svg width="222" height="174" viewBox="0 0 222 174" fill="none" xmlns="http://www.w3.org/2000/svg">
<rect x="0.5" y="0.5" width="221" height="173" rx="4.5" stroke="#8A38F5" stroke-dasharray="10 5"/>
<rect width="182" height="57" transform="translate(20 20)" fill="#66CFBC"/>
<path d="M45 55C45.0933 55 45.1867 54.9067 45.28 54.72C45.3733 54.5333 45.42 54.2267 45.42 53.8V44.2C45.42 43.7733 45.3733 43.4733 45.28 43.3C45.1867 43.1133 45.0933 43.0133 45 43H52.48C53.52 43 54.3333 43.12 54.92 43.36C55.5067 43.6 55.92 43.9467 56.16 44.4C56.4 44.84 56.52 45.36 56.52 45.96C56.52 46.44 56.4333 46.8467 56.26 47.18C56.1 47.5 55.8933 47.7533 55.64 47.94C55.3867 48.1267 55.1333 48.2667 54.88 48.36V48.4C55.7467 48.6 56.4 48.96 56.84 49.48C57.28 49.9867 57.5 50.6667 57.5 51.52C57.5 52.0933 57.3867 52.6467 57.16 53.18C56.9333 53.7133 56.5133 54.1533 55.9 54.5C55.3 54.8333 54.4267 55 53.28 55H45ZM49.3 52.78H52.3C53.06 52.78 53.6 52.6733 53.92 52.46C54.2533 52.2333 54.42 51.8733 54.42 51.38C54.42 50.9133 54.24 50.5533 53.88 50.3C53.52 50.0333 52.9267 49.9 52.1 49.9H49.32C48.92 49.9 48.68 49.9267 48.6 49.98C48.5333 50.0333 48.5 50.2133 48.5 50.52V52.18C48.5 52.4733 48.5333 52.6467 48.6 52.7C48.68 52.7533 48.9133 52.78 49.3 52.78ZM49.32 47.86H51.68C52.32 47.86 52.7733 47.7533 53.04 47.54C53.32 47.3133 53.46 46.98 53.46 46.54C53.46 46.1 53.3267 45.7733 53.06 45.56C52.8067 45.3467 52.3533 45.24 51.7 45.24H49.3C48.9 45.24 48.6667 45.2667 48.6 45.32C48.5333 45.36 48.5 45.5333 48.5 45.84V47.26C48.5 47.5533 48.5333 47.7267 48.6 47.78C48.68 47.8333 48.92 47.86 49.32 47.86ZM62.8416 55.2C61.6416 55.2 60.6816 54.9667 59.9616 54.5C59.2549 54.02 58.9016 53.2533 58.9016 52.2C58.9016 51.4667 59.0882 50.8733 59.4616 50.42C59.8349 49.9667 60.3416 49.6333 60.9816 49.42C61.6349 49.1933 62.3749 49.08 63.2016 49.08C63.8149 49.08 64.3349 49.1333 64.7616 49.24C65.2016 49.3467 65.5549 49.46 65.8216 49.58C66.0882 49.7 66.2616 49.7867 66.3416 49.84C66.3416 49.28 66.2816 48.8267 66.1616 48.48C66.0416 48.12 65.8216 47.86 65.5016 47.7C65.1949 47.5267 64.7616 47.44 64.2016 47.44C63.3882 47.44 62.6682 47.52 62.0416 47.68C61.4149 47.84 60.9016 48.0267 60.5016 48.24C60.1149 48.4533 59.8482 48.6333 59.7016 48.78V48.18L59.5016 46.22C59.5949 46.1667 59.8416 46.08 60.2416 45.96C60.6416 45.84 61.1882 45.7267 61.8816 45.62C62.5749 45.5 63.4016 45.44 64.3616 45.44C65.6816 45.44 66.6882 45.6333 67.3816 46.02C68.0749 46.3933 68.5482 46.9333 68.8016 47.64C69.0682 48.3467 69.2016 49.2 69.2016 50.2V53.8C69.2016 54.1733 69.2416 54.4467 69.3216 54.62C69.4149 54.78 69.5082 54.9067 69.6016 55H66.3616V54.58L66.4016 54.2L66.3616 54.16C66.2549 54.28 66.1016 54.4 65.9016 54.52C65.7016 54.64 65.4549 54.7533 65.1616 54.86C64.8682 54.9533 64.5282 55.0333 64.1416 55.1C63.7549 55.1667 63.3216 55.2 62.8416 55.2ZM63.7816 53.18C64.3416 53.18 64.8082 53.14 65.1816 53.06C65.5682 52.9667 65.8616 52.8467 66.0616 52.7C66.2616 52.54 66.3616 52.3533 66.3616 52.14C66.3616 51.8333 66.1282 51.58 65.6616 51.38C65.2082 51.18 64.5882 51.08 63.8016 51.08C63.0416 51.08 62.5016 51.1867 62.1816 51.4C61.8749 51.6133 61.7216 51.88 61.7216 52.2C61.7216 52.6 61.9016 52.8667 62.2616 53C62.6216 53.12 63.1282 53.18 63.7816 53.18ZM76.3872 55.2C75.0005 55.2 73.9072 54.9867 73.1072 54.56C72.3205 54.1333 71.7672 53.5533 71.4472 52.82C71.1272 52.0867 70.9672 51.26 70.9672 50.34C70.9672 48.7133 71.4072 47.4933 72.2872 46.68C73.1805 45.8667 74.4805 45.46 76.1872 45.46C77.0805 45.46 77.8939 45.5267 78.6272 45.66C79.3739 45.7933 79.9205 45.92 80.2672 46.04V46.64L80.6672 48.78C80.3739 48.5 79.8405 48.2133 79.0672 47.92C78.3072 47.6133 77.3939 47.46 76.3272 47.46C75.7539 47.46 75.2739 47.5667 74.8872 47.78C74.5139 47.98 74.2339 48.2933 74.0472 48.72C73.8739 49.1467 73.7872 49.6933 73.7872 50.36C73.7872 51.0133 73.8872 51.5467 74.0872 51.96C74.2872 52.3733 74.6139 52.6733 75.0672 52.86C75.5205 53.0467 76.1205 53.14 76.8672 53.14C77.8139 53.14 78.5939 53.02 79.2072 52.78C79.8339 52.5267 80.2539 52.28 80.4672 52.04V52.64L80.6672 54.24C80.4139 54.4533 79.9139 54.6667 79.1672 54.88C78.4339 55.0933 77.5072 55.2 76.3872 55.2ZM82.3409 55C82.4343 55 82.5209 54.9067 82.6009 54.72C82.6943 54.5333 82.7409 54.2267 82.7409 53.8V42.4C82.7409 41.9733 82.6943 41.6733 82.6009 41.5C82.5209 41.3133 82.4343 41.2133 82.3409 41.2H85.5809V48.76C85.5809 49.0533 85.6009 49.2333 85.6409 49.3C85.6809 49.3533 85.8009 49.38 86.0009 49.38C86.3076 49.38 86.6209 49.28 86.9409 49.08C87.2609 48.88 87.5543 48.5933 87.8209 48.22C88.0876 47.8333 88.2743 47.38 88.3809 46.86C88.4743 46.42 88.5143 46.1067 88.5009 45.92C88.4876 45.7333 88.4476 45.64 88.3809 45.64H92.4409C92.3476 45.64 92.2076 45.7333 92.0209 45.92C91.8476 46.0933 91.6476 46.4067 91.4209 46.86C91.1543 47.4067 90.8809 47.9 90.6009 48.34C90.3209 48.7667 90.0276 49.1333 89.7209 49.44C89.4143 49.7333 89.0809 49.9733 88.7209 50.16C89.3476 50.4267 89.8743 50.7667 90.3009 51.18C90.7276 51.58 91.0943 52.0133 91.4009 52.48C91.7209 52.9333 92.0143 53.3733 92.2809 53.8C92.5476 54.2267 92.7809 54.5333 92.9809 54.72C93.1943 54.9067 93.3476 55 93.4409 55H89.4009C89.4809 54.9867 89.5076 54.8733 89.4809 54.66C89.4676 54.4467 89.3343 54.0933 89.0809 53.6C88.8276 53.0933 88.5276 52.6667 88.1809 52.32C87.8476 51.96 87.4876 51.6867 87.1009 51.5C86.7276 51.3133 86.3609 51.22 86.0009 51.22C85.7876 51.22 85.6609 51.2467 85.6209 51.3C85.5943 51.34 85.5809 51.5133 85.5809 51.82V53.8C85.5809 54.2267 85.6209 54.5333 85.7009 54.72C85.7943 54.9067 85.8876 55 85.9809 55H82.3409ZM102.863 55.2C101.943 55.2 101.276 55.0067 100.863 54.62C100.45 54.22 100.243 53.5733 100.243 52.68V47.64H98.443V45.64C99.0563 45.64 99.5363 45.5667 99.883 45.42C100.23 45.26 100.476 44.9867 100.623 44.6C100.77 44.2133 100.843 43.6733 100.843 42.98H103.083V45.64H106.503C106.41 45.9067 106.316 46.24 106.223 46.64C106.143 47.0267 106.103 47.36 106.103 47.64H103.083V51.58C103.083 52.1933 103.13 52.6133 103.223 52.84C103.316 53.0667 103.536 53.18 103.883 53.18C104.11 53.18 104.356 53.1 104.623 52.94C104.903 52.78 105.17 52.5867 105.423 52.36C105.69 52.12 105.91 51.8933 106.083 51.68V52.3L106.283 54.24C106.123 54.3733 105.883 54.52 105.563 54.68C105.243 54.8267 104.85 54.9467 104.383 55.04C103.93 55.1467 103.423 55.2 102.863 55.2ZM112.455 55.2C111.122 55.2 110.075 54.9867 109.315 54.56C108.569 54.1333 108.042 53.5533 107.735 52.82C107.442 52.0867 107.295 51.26 107.295 50.34C107.295 49.4067 107.449 48.5733 107.755 47.84C108.075 47.1067 108.609 46.5267 109.355 46.1C110.102 45.66 111.135 45.44 112.455 45.44C113.775 45.44 114.809 45.66 115.555 46.1C116.302 46.5267 116.829 47.1067 117.135 47.84C117.455 48.5733 117.615 49.4067 117.615 50.34C117.615 51.26 117.462 52.0867 117.155 52.82C116.862 53.5533 116.342 54.1333 115.595 54.56C114.849 54.9867 113.802 55.2 112.455 55.2ZM112.455 53.18C113.015 53.18 113.462 53.1 113.795 52.94C114.142 52.7667 114.389 52.4733 114.535 52.06C114.695 51.6467 114.775 51.0733 114.775 50.34C114.775 49.6067 114.695 49.0333 114.535 48.62C114.389 48.1933 114.142 47.8933 113.795 47.72C113.462 47.5333 113.015 47.44 112.455 47.44C111.895 47.44 111.442 47.5333 111.095 47.72C110.762 47.9067 110.515 48.2133 110.355 48.64C110.209 49.0667 110.135 49.64 110.135 50.36C110.135 51.0667 110.209 51.6267 110.355 52.04C110.515 52.4533 110.762 52.7467 111.095 52.92C111.442 53.0933 111.895 53.18 112.455 53.18ZM128.723 59.88C127.95 59.88 127.237 59.8267 126.583 59.72C125.943 59.6133 125.383 59.48 124.903 59.32C124.437 59.1733 124.077 59.0267 123.823 58.88L124.223 55.88V55.3C124.41 55.66 124.703 56.04 125.103 56.44C125.503 56.84 126.003 57.18 126.603 57.46C127.203 57.74 127.883 57.88 128.643 57.88C129.137 57.88 129.55 57.7733 129.883 57.56C130.217 57.36 130.47 57.0467 130.643 56.62C130.817 56.1933 130.903 55.6667 130.903 55.04V54.72L130.943 54.36L130.903 54.32C130.717 54.52 130.463 54.6867 130.143 54.82C129.837 54.94 129.497 55.0333 129.123 55.1C128.763 55.1667 128.403 55.2 128.043 55.2C126.963 55.2 126.097 54.9867 125.443 54.56C124.803 54.1333 124.337 53.5533 124.043 52.82C123.763 52.0867 123.623 51.26 123.623 50.34C123.623 49.4067 123.763 48.5733 124.043 47.84C124.323 47.1067 124.783 46.5267 125.423 46.1C126.077 45.66 126.95 45.44 128.043 45.44C128.417 45.44 128.783 45.4667 129.143 45.52C129.503 45.5733 129.837 45.6533 130.143 45.76C130.45 45.8533 130.703 45.9867 130.903 46.16L130.943 46.14L130.903 45.76V45.64H134.143C134.05 45.6533 133.957 45.7533 133.863 45.94C133.783 46.1267 133.743 46.44 133.743 46.88V54.54C133.743 56.4733 133.33 57.8467 132.503 58.66C131.69 59.4733 130.43 59.88 128.723 59.88ZM128.583 53.18C129.05 53.18 129.457 53.1 129.803 52.94C130.15 52.78 130.417 52.4933 130.603 52.08C130.803 51.6667 130.903 51.0867 130.903 50.34C130.903 49.6067 130.803 49.0333 130.603 48.62C130.417 48.1933 130.15 47.8933 129.803 47.72C129.457 47.5333 129.05 47.44 128.583 47.44C128.143 47.44 127.763 47.5333 127.443 47.72C127.123 47.9067 126.877 48.2133 126.703 48.64C126.53 49.0667 126.443 49.64 126.443 50.36C126.443 51.0667 126.523 51.6267 126.683 52.04C126.857 52.4533 127.103 52.7467 127.423 52.92C127.743 53.0933 128.13 53.18 128.583 53.18ZM139.892 55.2C138.692 55.2 137.732 54.9667 137.012 54.5C136.306 54.02 135.952 53.2533 135.952 52.2C135.952 51.4667 136.139 50.8733 136.512 50.42C136.886 49.9667 137.392 49.6333 138.032 49.42C138.686 49.1933 139.426 49.08 140.252 49.08C140.866 49.08 141.386 49.1333 141.812 49.24C142.252 49.3467 142.606 49.46 142.872 49.58C143.139 49.7 143.312 49.7867 143.392 49.84C143.392 49.28 143.332 48.8267 143.212 48.48C143.092 48.12 142.872 47.86 142.552 47.7C142.246 47.5267 141.812 47.44 141.252 47.44C140.439 47.44 139.719 47.52 139.092 47.68C138.466 47.84 137.952 48.0267 137.552 48.24C137.166 48.4533 136.899 48.6333 136.752 48.78V48.18L136.552 46.22C136.646 46.1667 136.892 46.08 137.292 45.96C137.692 45.84 138.239 45.7267 138.932 45.62C139.626 45.5 140.452 45.44 141.412 45.44C142.732 45.44 143.739 45.6333 144.432 46.02C145.126 46.3933 145.599 46.9333 145.852 47.64C146.119 48.3467 146.252 49.2 146.252 50.2V53.8C146.252 54.1733 146.292 54.4467 146.372 54.62C146.466 54.78 146.559 54.9067 146.652 55H143.412V54.58L143.452 54.2L143.412 54.16C143.306 54.28 143.152 54.4 142.952 54.52C142.752 54.64 142.506 54.7533 142.212 54.86C141.919 54.9533 141.579 55.0333 141.192 55.1C140.806 55.1667 140.372 55.2 139.892 55.2ZM140.832 53.18C141.392 53.18 141.859 53.14 142.232 53.06C142.619 52.9667 142.912 52.8467 143.112 52.7C143.312 52.54 143.412 52.3533 143.412 52.14C143.412 51.8333 143.179 51.58 142.712 51.38C142.259 51.18 141.639 51.08 140.852 51.08C140.092 51.08 139.552 51.1867 139.232 51.4C138.926 51.6133 138.772 51.88 138.772 52.2C138.772 52.6 138.952 52.8667 139.312 53C139.672 53.12 140.179 53.18 140.832 53.18ZM148.298 55C148.391 55 148.478 54.9067 148.558 54.72C148.651 54.5333 148.698 54.2267 148.698 53.8V47.04C148.698 46.6133 148.651 46.3133 148.558 46.14C148.478 45.9533 148.391 45.8533 148.298 45.84C148.885 45.84 149.485 45.8 150.098 45.72C150.711 45.6267 151.191 45.5333 151.538 45.44V46.66L151.498 46.92L151.538 46.96C151.578 46.8667 151.705 46.7 151.918 46.46C152.131 46.22 152.438 45.9933 152.838 45.78C153.238 45.5533 153.731 45.44 154.318 45.44C155.558 45.44 156.505 45.7933 157.158 46.5C157.825 47.2067 158.158 48.3133 158.158 49.82V53.8C158.158 54.2267 158.198 54.5333 158.278 54.72C158.371 54.9067 158.465 55 158.558 55H154.918C155.011 55 155.098 54.9067 155.178 54.72C155.271 54.5333 155.318 54.2267 155.318 53.8V49.88C155.318 49.2533 155.251 48.7667 155.118 48.42C154.985 48.06 154.798 47.8067 154.558 47.66C154.331 47.5133 154.065 47.44 153.758 47.44C153.385 47.44 153.025 47.5333 152.678 47.72C152.345 47.8933 152.071 48.1733 151.858 48.56C151.645 48.9333 151.538 49.4333 151.538 50.06V53.8C151.538 54.2267 151.578 54.5333 151.658 54.72C151.751 54.9067 151.845 55 151.938 55H148.298ZM161.518 55C161.611 54.9867 161.698 54.8867 161.778 54.7C161.871 54.5133 161.918 54.2133 161.918 53.8V50.06C161.918 49.5267 161.865 49.0667 161.758 48.68C161.665 48.28 161.505 47.9733 161.278 47.76C161.051 47.5467 160.745 47.44 160.358 47.44C159.705 47.44 159.171 47.6733 158.758 48.14C158.358 48.6067 158.158 49.3133 158.158 50.26H156.698C156.698 49.62 156.798 49.0133 156.998 48.44C157.198 47.8533 157.485 47.34 157.858 46.9C158.231 46.4467 158.678 46.0933 159.198 45.84C159.718 45.5733 160.291 45.44 160.918 45.44C161.718 45.44 162.405 45.5867 162.978 45.88C163.551 46.16 163.991 46.6333 164.298 47.3C164.605 47.9667 164.758 48.8733 164.758 50.02V53.8C164.758 54.2133 164.798 54.5133 164.878 54.7C164.971 54.8867 165.065 54.9867 165.158 55H161.518ZM171.954 55.2C170.901 55.2 170.021 55.0933 169.314 54.88C168.621 54.6533 168.067 54.3333 167.654 53.92C167.241 53.4933 166.947 52.98 166.774 52.38C166.601 51.78 166.514 51.1 166.514 50.34C166.514 48.8333 166.934 47.64 167.774 46.76C168.614 45.88 169.901 45.44 171.634 45.44C172.647 45.44 173.467 45.58 174.094 45.86C174.734 46.14 175.221 46.5133 175.554 46.98C175.887 47.4467 176.114 47.9667 176.234 48.54C176.367 49.1 176.434 49.6667 176.434 50.24V51.18C176.434 51.14 176.247 51.1 175.874 51.06C175.514 51.0067 174.901 50.98 174.034 50.98H169.394C169.394 51.7133 169.614 52.2667 170.054 52.64C170.507 53 171.241 53.18 172.254 53.18C173.107 53.18 173.867 53.08 174.534 52.88C175.214 52.6667 175.707 52.4667 176.014 52.28V52.88L176.214 54.4C175.961 54.5733 175.474 54.7533 174.754 54.94C174.034 55.1133 173.101 55.2 171.954 55.2ZM170.134 49.26H173.594C173.594 48.9667 173.527 48.68 173.394 48.4C173.274 48.12 173.074 47.8933 172.794 47.72C172.514 47.5333 172.127 47.44 171.634 47.44C171.141 47.44 170.741 47.5133 170.434 47.66C170.141 47.8067 169.921 47.9867 169.774 48.2C169.641 48.4133 169.574 48.6333 169.574 48.86C169.574 48.9933 169.614 49.0933 169.694 49.16C169.774 49.2267 169.921 49.26 170.134 49.26Z" fill="white"/>
<rect x="21.5" y="98.5" width="179" height="54" fill="#66CFBC" fill-opacity="0.7"/>
<rect x="21.5" y="98.5" width="179" height="54" stroke="#3ABCA4" stroke-width="3"/>
<path d="M45 132C45.0933 132 45.1867 131.907 45.28 131.72C45.3733 131.533 45.42 131.227 45.42 130.8V121.2C45.42 120.773 45.3733 120.473 45.28 120.3C45.1867 120.113 45.0933 120.013 45 120H52.48C53.52 120 54.3333 120.12 54.92 120.36C55.5067 120.6 55.92 120.947 56.16 121.4C56.4 121.84 56.52 122.36 56.52 122.96C56.52 123.44 56.4333 123.847 56.26 124.18C56.1 124.5 55.8933 124.753 55.64 124.94C55.3867 125.127 55.1333 125.267 54.88 125.36V125.4C55.7467 125.6 56.4 125.96 56.84 126.48C57.28 126.987 57.5 127.667 57.5 128.52C57.5 129.093 57.3867 129.647 57.16 130.18C56.9333 130.713 56.5133 131.153 55.9 131.5C55.3 131.833 54.4267 132 53.28 132H45ZM49.3 129.78H52.3C53.06 129.78 53.6 129.673 53.92 129.46C54.2533 129.233 54.42 128.873 54.42 128.38C54.42 127.913 54.24 127.553 53.88 127.3C53.52 127.033 52.9267 126.9 52.1 126.9H49.32C48.92 126.9 48.68 126.927 48.6 126.98C48.5333 127.033 48.5 127.213 48.5 127.52V129.18C48.5 129.473 48.5333 129.647 48.6 129.7C48.68 129.753 48.9133 129.78 49.3 129.78ZM49.32 124.86H51.68C52.32 124.86 52.7733 124.753 53.04 124.54C53.32 124.313 53.46 123.98 53.46 123.54C53.46 123.1 53.3267 122.773 53.06 122.56C52.8067 122.347 52.3533 122.24 51.7 122.24H49.3C48.9 122.24 48.6667 122.267 48.6 122.32C48.5333 122.36 48.5 122.533 48.5 122.84V124.26C48.5 124.553 48.5333 124.727 48.6 124.78C48.68 124.833 48.92 124.86 49.32 124.86ZM62.8416 132.2C61.6416 132.2 60.6816 131.967 59.9616 131.5C59.2549 131.02 58.9016 130.253 58.9016 129.2C58.9016 128.467 59.0882 127.873 59.4616 127.42C59.8349 126.967 60.3416 126.633 60.9816 126.42C61.6349 126.193 62.3749 126.08 63.2016 126.08C63.8149 126.08 64.3349 126.133 64.7616 126.24C65.2016 126.347 65.5549 126.46 65.8216 126.58C66.0882 126.7 66.2616 126.787 66.3416 126.84C66.3416 126.28 66.2816 125.827 66.1616 125.48C66.0416 125.12 65.8216 124.86 65.5016 124.7C65.1949 124.527 64.7616 124.44 64.2016 124.44C63.3882 124.44 62.6682 124.52 62.0416 124.68C61.4149 124.84 60.9016 125.027 60.5016 125.24C60.1149 125.453 59.8482 125.633 59.7016 125.78V125.18L59.5016 123.22C59.5949 123.167 59.8416 123.08 60.2416 122.96C60.6416 122.84 61.1882 122.727 61.8816 122.62C62.5749 122.5 63.4016 122.44 64.3616 122.44C65.6816 122.44 66.6882 122.633 67.3816 123.02C68.0749 123.393 68.5482 123.933 68.8016 124.64C69.0682 125.347 69.2016 126.2 69.2016 127.2V130.8C69.2016 131.173 69.2416 131.447 69.3216 131.62C69.4149 131.78 69.5082 131.907 69.6016 132H66.3616V131.58L66.4016 131.2L66.3616 131.16C66.2549 131.28 66.1016 131.4 65.9016 131.52C65.7016 131.64 65.4549 131.753 65.1616 131.86C64.8682 131.953 64.5282 132.033 64.1416 132.1C63.7549 132.167 63.3216 132.2 62.8416 132.2ZM63.7816 130.18C64.3416 130.18 64.8082 130.14 65.1816 130.06C65.5682 129.967 65.8616 129.847 66.0616 129.7C66.2616 129.54 66.3616 129.353 66.3616 129.14C66.3616 128.833 66.1282 128.58 65.6616 128.38C65.2082 128.18 64.5882 128.08 63.8016 128.08C63.0416 128.08 62.5016 128.187 62.1816 128.4C61.8749 128.613 61.7216 128.88 61.7216 129.2C61.7216 129.6 61.9016 129.867 62.2616 130C62.6216 130.12 63.1282 130.18 63.7816 130.18ZM76.3872 132.2C75.0005 132.2 73.9072 131.987 73.1072 131.56C72.3205 131.133 71.7672 130.553 71.4472 129.82C71.1272 129.087 70.9672 128.26 70.9672 127.34C70.9672 125.713 71.4072 124.493 72.2872 123.68C73.1805 122.867 74.4805 122.46 76.1872 122.46C77.0805 122.46 77.8939 122.527 78.6272 122.66C79.3739 122.793 79.9205 122.92 80.2672 123.04V123.64L80.6672 125.78C80.3739 125.5 79.8405 125.213 79.0672 124.92C78.3072 124.613 77.3939 124.46 76.3272 124.46C75.7539 124.46 75.2739 124.567 74.8872 124.78C74.5139 124.98 74.2339 125.293 74.0472 125.72C73.8739 126.147 73.7872 126.693 73.7872 127.36C73.7872 128.013 73.8872 128.547 74.0872 128.96C74.2872 129.373 74.6139 129.673 75.0672 129.86C75.5205 130.047 76.1205 130.14 76.8672 130.14C77.8139 130.14 78.5939 130.02 79.2072 129.78C79.8339 129.527 80.2539 129.28 80.4672 129.04V129.64L80.6672 131.24C80.4139 131.453 79.9139 131.667 79.1672 131.88C78.4339 132.093 77.5072 132.2 76.3872 132.2ZM82.3409 132C82.4343 132 82.5209 131.907 82.6009 131.72C82.6943 131.533 82.7409 131.227 82.7409 130.8V119.4C82.7409 118.973 82.6943 118.673 82.6009 118.5C82.5209 118.313 82.4343 118.213 82.3409 118.2H85.5809V125.76C85.5809 126.053 85.6009 126.233 85.6409 126.3C85.6809 126.353 85.8009 126.38 86.0009 126.38C86.3076 126.38 86.6209 126.28 86.9409 126.08C87.2609 125.88 87.5543 125.593 87.8209 125.22C88.0876 124.833 88.2743 124.38 88.3809 123.86C88.4743 123.42 88.5143 123.107 88.5009 122.92C88.4876 122.733 88.4476 122.64 88.3809 122.64H92.4409C92.3476 122.64 92.2076 122.733 92.0209 122.92C91.8476 123.093 91.6476 123.407 91.4209 123.86C91.1543 124.407 90.8809 124.9 90.6009 125.34C90.3209 125.767 90.0276 126.133 89.7209 126.44C89.4143 126.733 89.0809 126.973 88.7209 127.16C89.3476 127.427 89.8743 127.767 90.3009 128.18C90.7276 128.58 91.0943 129.013 91.4009 129.48C91.7209 129.933 92.0143 130.373 92.2809 130.8C92.5476 131.227 92.7809 131.533 92.9809 131.72C93.1943 131.907 93.3476 132 93.4409 132H89.4009C89.4809 131.987 89.5076 131.873 89.4809 131.66C89.4676 131.447 89.3343 131.093 89.0809 130.6C88.8276 130.093 88.5276 129.667 88.1809 129.32C87.8476 128.96 87.4876 128.687 87.1009 128.5C86.7276 128.313 86.3609 128.22 86.0009 128.22C85.7876 128.22 85.6609 128.247 85.6209 128.3C85.5943 128.34 85.5809 128.513 85.5809 128.82V130.8C85.5809 131.227 85.6209 131.533 85.7009 131.72C85.7943 131.907 85.8876 132 85.9809 132H82.3409ZM102.863 132.2C101.943 132.2 101.276 132.007 100.863 131.62C100.45 131.22 100.243 130.573 100.243 129.68V124.64H98.443V122.64C99.0563 122.64 99.5363 122.567 99.883 122.42C100.23 122.26 100.476 121.987 100.623 121.6C100.77 121.213 100.843 120.673 100.843 119.98H103.083V122.64H106.503C106.41 122.907 106.316 123.24 106.223 123.64C106.143 124.027 106.103 124.36 106.103 124.64H103.083V128.58C103.083 129.193 103.13 129.613 103.223 129.84C103.316 130.067 103.536 130.18 103.883 130.18C104.11 130.18 104.356 130.1 104.623 129.94C104.903 129.78 105.17 129.587 105.423 129.36C105.69 129.12 105.91 128.893 106.083 128.68V129.3L106.283 131.24C106.123 131.373 105.883 131.52 105.563 131.68C105.243 131.827 104.85 131.947 104.383 132.04C103.93 132.147 103.423 132.2 102.863 132.2ZM112.455 132.2C111.122 132.2 110.075 131.987 109.315 131.56C108.569 131.133 108.042 130.553 107.735 129.82C107.442 129.087 107.295 128.26 107.295 127.34C107.295 126.407 107.449 125.573 107.755 124.84C108.075 124.107 108.609 123.527 109.355 123.1C110.102 122.66 111.135 122.44 112.455 122.44C113.775 122.44 114.809 122.66 115.555 123.1C116.302 123.527 116.829 124.107 117.135 124.84C117.455 125.573 117.615 126.407 117.615 127.34C117.615 128.26 117.462 129.087 117.155 129.82C116.862 130.553 116.342 131.133 115.595 131.56C114.849 131.987 113.802 132.2 112.455 132.2ZM112.455 130.18C113.015 130.18 113.462 130.1 113.795 129.94C114.142 129.767 114.389 129.473 114.535 129.06C114.695 128.647 114.775 128.073 114.775 127.34C114.775 126.607 114.695 126.033 114.535 125.62C114.389 125.193 114.142 124.893 113.795 124.72C113.462 124.533 113.015 124.44 112.455 124.44C111.895 124.44 111.442 124.533 111.095 124.72C110.762 124.907 110.515 125.213 110.355 125.64C110.209 126.067 110.135 126.64 110.135 127.36C110.135 128.067 110.209 128.627 110.355 129.04C110.515 129.453 110.762 129.747 111.095 129.92C111.442 130.093 111.895 130.18 112.455 130.18ZM128.723 136.88C127.95 136.88 127.237 136.827 126.583 136.72C125.943 136.613 125.383 136.48 124.903 136.32C124.437 136.173 124.077 136.027 123.823 135.88L124.223 132.88V132.3C124.41 132.66 124.703 133.04 125.103 133.44C125.503 133.84 126.003 134.18 126.603 134.46C127.203 134.74 127.883 134.88 128.643 134.88C129.137 134.88 129.55 134.773 129.883 134.56C130.217 134.36 130.47 134.047 130.643 133.62C130.817 133.193 130.903 132.667 130.903 132.04V131.72L130.943 131.36L130.903 131.32C130.717 131.52 130.463 131.687 130.143 131.82C129.837 131.94 129.497 132.033 129.123 132.1C128.763 132.167 128.403 132.2 128.043 132.2C126.963 132.2 126.097 131.987 125.443 131.56C124.803 131.133 124.337 130.553 124.043 129.82C123.763 129.087 123.623 128.26 123.623 127.34C123.623 126.407 123.763 125.573 124.043 124.84C124.323 124.107 124.783 123.527 125.423 123.1C126.077 122.66 126.95 122.44 128.043 122.44C128.417 122.44 128.783 122.467 129.143 122.52C129.503 122.573 129.837 122.653 130.143 122.76C130.45 122.853 130.703 122.987 130.903 123.16L130.943 123.14L130.903 122.76V122.64H134.143C134.05 122.653 133.957 122.753 133.863 122.94C133.783 123.127 133.743 123.44 133.743 123.88V131.54C133.743 133.473 133.33 134.847 132.503 135.66C131.69 136.473 130.43 136.88 128.723 136.88ZM128.583 130.18C129.05 130.18 129.457 130.1 129.803 129.94C130.15 129.78 130.417 129.493 130.603 129.08C130.803 128.667 130.903 128.087 130.903 127.34C130.903 126.607 130.803 126.033 130.603 125.62C130.417 125.193 130.15 124.893 129.803 124.72C129.457 124.533 129.05 124.44 128.583 124.44C128.143 124.44 127.763 124.533 127.443 124.72C127.123 124.907 126.877 125.213 126.703 125.64C126.53 126.067 126.443 126.64 126.443 127.36C126.443 128.067 126.523 128.627 126.683 129.04C126.857 129.453 127.103 129.747 127.423 129.92C127.743 130.093 128.13 130.18 128.583 130.18ZM139.892 132.2C138.692 132.2 137.732 131.967 137.012 131.5C136.306 131.02 135.952 130.253 135.952 129.2C135.952 128.467 136.139 127.873 136.512 127.42C136.886 126.967 137.392 126.633 138.032 126.42C138.686 126.193 139.426 126.08 140.252 126.08C140.866 126.08 141.386 126.133 141.812 126.24C142.252 126.347 142.606 126.46 142.872 126.58C143.139 126.7 143.312 126.787 143.392 126.84C143.392 126.28 143.332 125.827 143.212 125.48C143.092 125.12 142.872 124.86 142.552 124.7C142.246 124.527 141.812 124.44 141.252 124.44C140.439 124.44 139.719 124.52 139.092 124.68C138.466 124.84 137.952 125.027 137.552 125.24C137.166 125.453 136.899 125.633 136.752 125.78V125.18L136.552 123.22C136.646 123.167 136.892 123.08 137.292 122.96C137.692 122.84 138.239 122.727 138.932 122.62C139.626 122.5 140.452 122.44 141.412 122.44C142.732 122.44 143.739 122.633 144.432 123.02C145.126 123.393 145.599 123.933 145.852 124.64C146.119 125.347 146.252 126.2 146.252 127.2V130.8C146.252 131.173 146.292 131.447 146.372 131.62C146.466 131.78 146.559 131.907 146.652 132H143.412V131.58L143.452 131.2L143.412 131.16C143.306 131.28 143.152 131.4 142.952 131.52C142.752 131.64 142.506 131.753 142.212 131.86C141.919 131.953 141.579 132.033 141.192 132.1C140.806 132.167 140.372 132.2 139.892 132.2ZM140.832 130.18C141.392 130.18 141.859 130.14 142.232 130.06C142.619 129.967 142.912 129.847 143.112 129.7C143.312 129.54 143.412 129.353 143.412 129.14C143.412 128.833 143.179 128.58 142.712 128.38C142.259 128.18 141.639 128.08 140.852 128.08C140.092 128.08 139.552 128.187 139.232 128.4C138.926 128.613 138.772 128.88 138.772 129.2C138.772 129.6 138.952 129.867 139.312 130C139.672 130.12 140.179 130.18 140.832 130.18ZM148.298 132C148.391 132 148.478 131.907 148.558 131.72C148.651 131.533 148.698 131.227 148.698 130.8V124.04C148.698 123.613 148.651 123.313 148.558 123.14C148.478 122.953 148.391 122.853 148.298 122.84C148.885 122.84 149.485 122.8 150.098 122.72C150.711 122.627 151.191 122.533 151.538 122.44V123.66L151.498 123.92L151.538 123.96C151.578 123.867 151.705 123.7 151.918 123.46C152.131 123.22 152.438 122.993 152.838 122.78C153.238 122.553 153.731 122.44 154.318 122.44C155.558 122.44 156.505 122.793 157.158 123.5C157.825 124.207 158.158 125.313 158.158 126.82V130.8C158.158 131.227 158.198 131.533 158.278 131.72C158.371 131.907 158.465 132 158.558 132H154.918C155.011 132 155.098 131.907 155.178 131.72C155.271 131.533 155.318 131.227 155.318 130.8V126.88C155.318 126.253 155.251 125.767 155.118 125.42C154.985 125.06 154.798 124.807 154.558 124.66C154.331 124.513 154.065 124.44 153.758 124.44C153.385 124.44 153.025 124.533 152.678 124.72C152.345 124.893 152.071 125.173 151.858 125.56C151.645 125.933 151.538 126.433 151.538 127.06V130.8C151.538 131.227 151.578 131.533 151.658 131.72C151.751 131.907 151.845 132 151.938 132H148.298ZM161.518 132C161.611 131.987 161.698 131.887 161.778 131.7C161.871 131.513 161.918 131.213 161.918 130.8V127.06C161.918 126.527 161.865 126.067 161.758 125.68C161.665 125.28 161.505 124.973 161.278 124.76C161.051 124.547 160.745 124.44 160.358 124.44C159.705 124.44 159.171 124.673 158.758 125.14C158.358 125.607 158.158 126.313 158.158 127.26H156.698C156.698 126.62 156.798 126.013 156.998 125.44C157.198 124.853 157.485 124.34 157.858 123.9C158.231 123.447 158.678 123.093 159.198 122.84C159.718 122.573 160.291 122.44 160.918 122.44C161.718 122.44 162.405 122.587 162.978 122.88C163.551 123.16 163.991 123.633 164.298 124.3C164.605 124.967 164.758 125.873 164.758 127.02V130.8C164.758 131.213 164.798 131.513 164.878 131.7C164.971 131.887 165.065 131.987 165.158 132H161.518ZM171.954 132.2C170.901 132.2 170.021 132.093 169.314 131.88C168.621 131.653 168.067 131.333 167.654 130.92C167.241 130.493 166.947 129.98 166.774 129.38C166.601 128.78 166.514 128.1 166.514 127.34C166.514 125.833 166.934 124.64 167.774 123.76C168.614 122.88 169.901 122.44 171.634 122.44C172.647 122.44 173.467 122.58 174.094 122.86C174.734 123.14 175.221 123.513 175.554 123.98C175.887 124.447 176.114 124.967 176.234 125.54C176.367 126.1 176.434 126.667 176.434 127.24V128.18C176.434 128.14 176.247 128.1 175.874 128.06C175.514 128.007 174.901 127.98 174.034 127.98H169.394C169.394 128.713 169.614 129.267 170.054 129.64C170.507 130 171.241 130.18 172.254 130.18C173.107 130.18 173.867 130.08 174.534 129.88C175.214 129.667 175.707 129.467 176.014 129.28V129.88L176.214 131.4C175.961 131.573 175.474 131.753 174.754 131.94C174.034 132.113 173.101 132.2 171.954 132.2ZM170.134 126.26H173.594C173.594 125.967 173.527 125.68 173.394 125.4C173.274 125.12 173.074 124.893 172.794 124.72C172.514 124.533 172.127 124.44 171.634 124.44C171.141 124.44 170.741 124.513 170.434 124.66C170.141 124.807 169.921 124.987 169.774 125.2C169.641 125.413 169.574 125.633 169.574 125.86C169.574 125.993 169.614 126.093 169.694 126.16C169.774 126.227 169.921 126.26 170.134 126.26Z" fill="white"/>
</svg>
