<svg width="205" height="17" viewBox="0 0 205 17" fill="none" xmlns="http://www.w3.org/2000/svg">
<path d="M8.232 16.896C5.48 16.896 3.416 16.304 2.04 15.12C0.679999 13.92 -9.23872e-07 12.032 -9.23872e-07 9.45601C-9.23872e-07 7.96801 0.279999 6.67201 0.839999 5.56801C1.4 4.44801 2.288 3.57601 3.504 2.952C4.72 2.32801 6.296 2.01601 8.232 2.01601C9.752 2.01601 11.016 2.09601 12.024 2.25601C13.032 2.41601 13.712 2.576 14.064 2.736V3.45601L14.544 6.09601C14.24 5.88801 13.784 5.67201 13.176 5.44801C12.584 5.22401 11.872 5.04001 11.04 4.89601C10.208 4.73601 9.288 4.65601 8.28 4.65601C7.176 4.65601 6.28 4.83201 5.592 5.18401C4.92 5.53601 4.424 6.07201 4.104 6.79201C3.8 7.49601 3.648 8.38401 3.648 9.45601C3.648 10.528 3.8 11.416 4.104 12.12C4.424 12.824 4.968 13.352 5.736 13.704C6.52 14.056 7.6 14.232 8.976 14.232C10.352 14.232 11.496 14.04 12.408 13.656C13.336 13.272 13.968 12.904 14.304 12.552V13.272L14.544 15.696C14.272 15.952 13.608 16.216 12.552 16.488C11.512 16.76 10.072 16.896 8.232 16.896ZM22.4051 16.896C20.8051 16.896 19.5491 16.64 18.6371 16.128C17.7411 15.616 17.1091 14.92 16.7411 14.04C16.3891 13.16 16.2131 12.168 16.2131 11.064C16.2131 9.94401 16.3971 8.94401 16.7651 8.06401C17.1491 7.18401 17.7891 6.48801 18.6851 5.97601C19.5811 5.44801 20.8211 5.18401 22.4051 5.18401C23.9891 5.18401 25.2291 5.44801 26.1251 5.97601C27.0211 6.48801 27.6531 7.18401 28.0211 8.06401C28.4051 8.94401 28.5971 9.94401 28.5971 11.064C28.5971 12.168 28.4131 13.16 28.0451 14.04C27.6931 14.92 27.0691 15.616 26.1731 16.128C25.2771 16.64 24.0211 16.896 22.4051 16.896ZM22.4051 14.472C23.0771 14.472 23.6131 14.376 24.0131 14.184C24.4291 13.976 24.7251 13.624 24.9011 13.128C25.0931 12.632 25.1891 11.944 25.1891 11.064C25.1891 10.184 25.0931 9.49601 24.9011 9.00001C24.7251 8.48801 24.4291 8.12801 24.0131 7.92001C23.6131 7.69601 23.0771 7.58401 22.4051 7.58401C21.7331 7.58401 21.1891 7.69601 20.7731 7.92001C20.3731 8.14401 20.0771 8.51201 19.8851 9.02401C19.7091 9.53601 19.6211 10.224 19.6211 11.088C19.6211 11.936 19.7091 12.608 19.8851 13.104C20.0771 13.6 20.3731 13.952 20.7731 14.16C21.1891 14.368 21.7331 14.472 22.4051 14.472ZM35.5852 16.896C34.1612 16.896 33.0412 16.64 32.2252 16.128C31.4252 15.616 30.8572 14.92 30.5212 14.04C30.2012 13.16 30.0412 12.168 30.0412 11.064C30.0412 9.94401 30.2012 8.94401 30.5212 8.06401C30.8572 7.18401 31.4252 6.48801 32.2252 5.97601C33.0412 5.44801 34.1612 5.18401 35.5852 5.18401C36.0652 5.18401 36.4972 5.22401 36.8812 5.30401C37.2812 5.38401 37.6332 5.49601 37.9372 5.64001C38.2572 5.76801 38.5372 5.93601 38.7772 6.14401L38.8252 6.12001L38.7772 5.66401V1.536C38.7772 1.024 38.7212 0.664005 38.6092 0.456006C38.5132 0.232006 38.4092 0.112005 38.2972 0.0960045H42.1852V15.216C42.1852 15.728 42.2332 16.096 42.3293 16.32C42.4412 16.544 42.5532 16.656 42.6653 16.656H38.7772V16.344L38.8492 15.888L38.7772 15.864C38.5372 16.072 38.2572 16.256 37.9372 16.416C37.6172 16.56 37.2572 16.672 36.8572 16.752C36.4732 16.848 36.0492 16.896 35.5852 16.896ZM35.9932 14.472C36.5212 14.472 36.9612 14.392 37.3132 14.232C37.6812 14.072 37.9692 13.848 38.1772 13.56C38.4012 13.256 38.5532 12.896 38.6332 12.48C38.7292 12.048 38.7772 11.576 38.7772 11.064C38.7772 10.552 38.7292 10.088 38.6332 9.67201C38.5372 9.24001 38.3852 8.87201 38.1772 8.56801C37.9692 8.24801 37.6812 8.00801 37.3132 7.84801C36.9612 7.67201 36.5212 7.58401 35.9932 7.58401C35.2252 7.58401 34.6012 7.84801 34.1212 8.37601C33.6572 8.90401 33.4252 9.80801 33.4252 11.088C33.4252 11.936 33.5292 12.608 33.7372 13.104C33.9452 13.6 34.2412 13.952 34.6252 14.16C35.0092 14.368 35.4652 14.472 35.9932 14.472ZM51.1239 16.896C49.8599 16.896 48.8039 16.768 47.9559 16.512C47.1239 16.24 46.4599 15.856 45.9639 15.36C45.4679 14.848 45.1159 14.232 44.9079 13.512C44.6999 12.792 44.5959 11.976 44.5959 11.064C44.5959 9.25601 45.0999 7.82401 46.1079 6.76801C47.1159 5.71201 48.6599 5.18401 50.7399 5.18401C51.9559 5.18401 52.9399 5.35201 53.6919 5.68801C54.4599 6.02401 55.0439 6.47201 55.4439 7.03201C55.8439 7.59201 56.1159 8.21601 56.2599 8.90401C56.4199 9.57601 56.4999 10.256 56.4999 10.944V12.072C56.4999 12.024 56.2759 11.976 55.8279 11.928C55.3959 11.864 54.6599 11.832 53.6199 11.832H48.0519C48.0519 12.712 48.3159 13.376 48.8439 13.824C49.3879 14.256 50.2679 14.472 51.4839 14.472C52.5079 14.472 53.4199 14.352 54.2199 14.112C55.0359 13.856 55.6279 13.616 55.9959 13.392V14.112L56.2359 15.936C55.9319 16.144 55.3479 16.36 54.4839 16.584C53.6199 16.792 52.4999 16.896 51.1239 16.896ZM48.9399 9.76801H53.0919C53.0919 9.41601 53.0119 9.07201 52.8519 8.73601C52.7079 8.40001 52.4679 8.12801 52.1319 7.92001C51.7959 7.69601 51.3319 7.58401 50.7399 7.58401C50.1479 7.58401 49.6679 7.67201 49.2999 7.84801C48.9479 8.02401 48.6839 8.24001 48.5079 8.49601C48.3479 8.75201 48.2679 9.01601 48.2679 9.28801C48.2679 9.44801 48.3159 9.56801 48.4119 9.64801C48.5079 9.72801 48.6839 9.76801 48.9399 9.76801ZM67.6513 16.656C67.7633 16.656 67.8353 16.552 67.8673 16.344C67.9153 16.12 67.8433 15.744 67.6513 15.216C67.5873 15.008 67.4433 14.64 67.2193 14.112C67.0113 13.584 66.7633 12.976 66.4753 12.288C66.1873 11.6 65.8913 10.904 65.5873 10.2C65.2993 9.48001 65.0273 8.83201 64.7713 8.25601C64.5313 7.66401 64.3473 7.21601 64.2193 6.91201C63.9953 6.36801 63.7633 5.98401 63.5233 5.76001C63.2993 5.53601 63.1233 5.42401 62.9953 5.42401H67.8673C67.7553 5.42401 67.6833 5.53601 67.6513 5.76001C67.6193 5.98401 67.6913 6.36801 67.8673 6.91201C67.9633 7.18401 68.0993 7.60001 68.2753 8.16001C68.4673 8.72001 68.6833 9.36001 68.9233 10.08C69.1633 10.784 69.4033 11.504 69.6433 12.24C69.8993 12.976 70.1313 13.656 70.3393 14.28H70.3633C70.5713 13.656 70.7793 13.04 70.9873 12.432C71.1953 11.808 71.4033 11.192 71.6113 10.584C71.8193 9.96001 72.0273 9.34401 72.2353 8.73601C72.4433 8.11201 72.6513 7.48801 72.8593 6.86401C73.0353 6.35201 73.1073 5.98401 73.0753 5.76001C73.0433 5.53601 72.9713 5.42401 72.8593 5.42401H77.6353C77.5233 5.42401 77.3633 5.53601 77.1553 5.76001C76.9473 5.96801 76.7313 6.32801 76.5073 6.84001C76.3953 7.12801 76.2193 7.56001 75.9793 8.13601C75.7393 8.69601 75.4673 9.32801 75.1633 10.032C74.8753 10.72 74.5793 11.408 74.2753 12.096C73.9873 12.784 73.7313 13.408 73.5073 13.968C73.2833 14.528 73.1233 14.944 73.0273 15.216C72.8513 15.76 72.7793 16.136 72.8113 16.344C72.8433 16.552 72.9153 16.656 73.0273 16.656H67.6513ZM78.4476 16.656C78.5596 16.656 78.6716 16.544 78.7836 16.32C78.8956 16.096 78.9516 15.728 78.9516 15.216V6.86401C78.9516 6.35201 78.8956 5.98401 78.7836 5.76001C78.6876 5.53601 78.5836 5.42401 78.4716 5.42401H82.3596V15.216C82.3596 15.728 82.4076 16.096 82.5036 16.32C82.6156 16.544 82.7276 16.656 82.8396 16.656H78.4476ZM80.3916 3.60001C79.7996 3.60001 79.3276 3.44001 78.9756 3.12001C78.6236 2.8 78.4476 2.36 78.4476 1.80001C78.4476 1.24001 78.6156 0.800005 78.9516 0.480005C79.3036 0.160006 79.7836 5.72205e-06 80.3916 5.72205e-06C80.9996 5.72205e-06 81.4716 0.160006 81.8076 0.480005C82.1596 0.800005 82.3356 1.24001 82.3356 1.80001C82.3356 2.36 82.1596 2.8 81.8076 3.12001C81.4716 3.44001 80.9996 3.60001 80.3916 3.60001ZM91.9221 16.896C91.2981 16.896 90.7141 16.816 90.1701 16.656C89.6421 16.512 89.2181 16.296 88.8981 16.008L88.8501 16.056L88.8981 16.512V16.656H85.0101C85.1221 16.656 85.2261 16.544 85.3221 16.32C85.4341 16.096 85.4901 15.728 85.4901 15.216V1.536C85.4901 1.024 85.4341 0.664005 85.3221 0.456006C85.2261 0.232006 85.1221 0.112005 85.0101 0.0960045H88.8981V5.61601L88.8501 6.07201L88.8981 6.09601C89.0581 5.95201 89.2901 5.81601 89.5941 5.68801C89.9141 5.54401 90.2741 5.42401 90.6741 5.32801C91.0901 5.23201 91.5061 5.18401 91.9221 5.18401C93.4101 5.18401 94.5621 5.44801 95.3781 5.97601C96.2101 6.48801 96.7941 7.18401 97.1301 8.06401C97.4661 8.94401 97.6341 9.94401 97.6341 11.064C97.6341 12.168 97.4661 13.16 97.1301 14.04C96.8101 14.92 96.2341 15.616 95.4021 16.128C94.5861 16.64 93.4261 16.896 91.9221 16.896ZM91.4421 14.472C92.1141 14.472 92.6501 14.376 93.0501 14.184C93.4661 13.976 93.7621 13.624 93.9381 13.128C94.1301 12.632 94.2261 11.944 94.2261 11.064C94.2261 10.184 94.1301 9.49601 93.9381 9.00001C93.7621 8.48801 93.4661 8.12801 93.0501 7.92001C92.6501 7.69601 92.1141 7.58401 91.4421 7.58401C90.9141 7.58401 90.4581 7.71201 90.0741 7.96801C89.6901 8.20801 89.3941 8.58401 89.1861 9.09601C88.9941 9.60801 88.8981 10.272 88.8981 11.088C88.8981 12.336 89.1221 13.216 89.5701 13.728C90.0341 14.224 90.6581 14.472 91.4421 14.472ZM105.593 16.896C104.329 16.896 103.273 16.768 102.425 16.512C101.593 16.24 100.929 15.856 100.433 15.36C99.9367 14.848 99.5847 14.232 99.3767 13.512C99.1687 12.792 99.0647 11.976 99.0647 11.064C99.0647 9.25601 99.5687 7.82401 100.577 6.76801C101.585 5.71201 103.129 5.18401 105.209 5.18401C106.425 5.18401 107.409 5.35201 108.161 5.68801C108.929 6.02401 109.513 6.47201 109.913 7.03201C110.313 7.59201 110.585 8.21601 110.729 8.90401C110.889 9.57601 110.969 10.256 110.969 10.944V12.072C110.969 12.024 110.745 11.976 110.297 11.928C109.865 11.864 109.129 11.832 108.089 11.832H102.521C102.521 12.712 102.785 13.376 103.313 13.824C103.857 14.256 104.737 14.472 105.953 14.472C106.977 14.472 107.889 14.352 108.689 14.112C109.505 13.856 110.097 13.616 110.465 13.392V14.112L110.705 15.936C110.401 16.144 109.817 16.36 108.953 16.584C108.089 16.792 106.969 16.896 105.593 16.896ZM103.409 9.76801H107.561C107.561 9.41601 107.481 9.07201 107.321 8.73601C107.177 8.40001 106.937 8.12801 106.601 7.92001C106.265 7.69601 105.801 7.58401 105.209 7.58401C104.617 7.58401 104.137 7.67201 103.769 7.84801C103.417 8.02401 103.153 8.24001 102.977 8.49601C102.817 8.75201 102.737 9.01601 102.737 9.28801C102.737 9.44801 102.785 9.56801 102.881 9.64801C102.977 9.72801 103.153 9.76801 103.409 9.76801ZM119.018 16.896C117.594 16.896 116.394 16.816 115.418 16.656C114.442 16.496 113.77 16.336 113.402 16.176V15.456L112.898 13.104C113.314 13.408 114.09 13.712 115.226 14.016C116.362 14.32 117.754 14.472 119.402 14.472C119.898 14.472 120.29 14.44 120.578 14.376C120.882 14.312 121.098 14.208 121.226 14.064C121.354 13.92 121.418 13.736 121.418 13.512C121.418 13.24 121.314 13.032 121.106 12.888C120.914 12.744 120.562 12.632 120.05 12.552C119.538 12.456 118.794 12.344 117.818 12.216C116.586 12.056 115.61 11.832 114.89 11.544C114.17 11.24 113.658 10.856 113.354 10.392C113.066 9.91201 112.922 9.32801 112.922 8.64001C112.922 8.00001 113.074 7.42401 113.378 6.91201C113.698 6.38401 114.242 5.96801 115.01 5.66401C115.794 5.34401 116.882 5.18401 118.274 5.18401C119.586 5.18401 120.738 5.26401 121.73 5.42401C122.722 5.58401 123.434 5.74401 123.866 5.90401V6.62401L124.346 8.73601C123.978 8.49601 123.258 8.24801 122.186 7.99201C121.114 7.73601 119.754 7.60801 118.106 7.60801C117.466 7.60801 117.01 7.67201 116.738 7.80001C116.466 7.92801 116.33 8.15201 116.33 8.47201C116.33 8.63201 116.37 8.76801 116.45 8.88001C116.546 8.99201 116.722 9.09601 116.978 9.19201C117.234 9.28801 117.602 9.38401 118.082 9.48001C118.562 9.56001 119.194 9.64801 119.978 9.74401C121.338 9.92001 122.362 10.168 123.05 10.488C123.738 10.792 124.202 11.176 124.442 11.64C124.682 12.088 124.802 12.632 124.802 13.272C124.802 14.088 124.594 14.768 124.178 15.312C123.778 15.84 123.146 16.24 122.282 16.512C121.434 16.768 120.346 16.896 119.018 16.896ZM137.035 16.896C135.931 16.896 135.131 16.664 134.635 16.2C134.139 15.72 133.891 14.944 133.891 13.872V7.82401H131.731V5.42401C132.467 5.42401 133.043 5.33601 133.459 5.16001C133.875 4.96801 134.171 4.64001 134.347 4.176C134.523 3.71201 134.611 3.06401 134.611 2.23201H137.299V5.42401H141.403C141.291 5.74401 141.179 6.14401 141.067 6.62401C140.971 7.08801 140.923 7.48801 140.923 7.82401H137.299V12.552C137.299 13.288 137.355 13.792 137.467 14.064C137.579 14.336 137.843 14.472 138.259 14.472C138.531 14.472 138.827 14.376 139.147 14.184C139.483 13.992 139.803 13.76 140.107 13.488C140.427 13.2 140.691 12.928 140.899 12.672V13.416L141.139 15.744C140.947 15.904 140.659 16.08 140.275 16.272C139.891 16.448 139.419 16.592 138.859 16.704C138.315 16.832 137.707 16.896 137.035 16.896ZM142.69 16.656C142.802 16.656 142.906 16.544 143.002 16.32C143.114 16.096 143.17 15.728 143.17 15.216V1.536C143.17 1.024 143.114 0.664005 143.002 0.456006C142.906 0.232006 142.802 0.112005 142.69 0.0960045H146.578V6.64801L146.53 6.96001L146.578 7.00801C146.626 6.89601 146.778 6.69601 147.034 6.40801C147.29 6.12001 147.658 5.84801 148.138 5.59201C148.618 5.32001 149.21 5.18401 149.914 5.18401C151.402 5.18401 152.538 5.60801 153.322 6.45601C154.122 7.30401 154.522 8.63201 154.522 10.44V15.216C154.522 15.728 154.57 16.096 154.666 16.32C154.778 16.544 154.89 16.656 155.002 16.656H150.634C150.746 16.656 150.85 16.544 150.946 16.32C151.058 16.096 151.114 15.728 151.114 15.216V10.512C151.114 9.76001 151.034 9.17601 150.874 8.76001C150.714 8.32801 150.49 8.02401 150.202 7.84801C149.93 7.67201 149.61 7.58401 149.242 7.58401C148.794 7.58401 148.362 7.69601 147.946 7.92001C147.546 8.12801 147.218 8.46401 146.962 8.92801C146.706 9.37601 146.578 9.97601 146.578 10.728V15.216C146.578 15.728 146.626 16.096 146.722 16.32C146.834 16.544 146.946 16.656 147.058 16.656H142.69ZM163.155 16.896C161.891 16.896 160.835 16.768 159.987 16.512C159.155 16.24 158.491 15.856 157.995 15.36C157.499 14.848 157.147 14.232 156.939 13.512C156.731 12.792 156.627 11.976 156.627 11.064C156.627 9.25601 157.131 7.82401 158.139 6.76801C159.147 5.71201 160.691 5.18401 162.771 5.18401C163.987 5.18401 164.971 5.35201 165.723 5.68801C166.491 6.02401 167.075 6.47201 167.475 7.03201C167.875 7.59201 168.147 8.21601 168.291 8.90401C168.451 9.57601 168.531 10.256 168.531 10.944V12.072C168.531 12.024 168.307 11.976 167.859 11.928C167.427 11.864 166.691 11.832 165.651 11.832H160.083C160.083 12.712 160.347 13.376 160.875 13.824C161.419 14.256 162.299 14.472 163.515 14.472C164.539 14.472 165.451 14.352 166.251 14.112C167.067 13.856 167.659 13.616 168.027 13.392V14.112L168.267 15.936C167.963 16.144 167.379 16.36 166.515 16.584C165.651 16.792 164.531 16.896 163.155 16.896ZM160.971 9.76801H165.123C165.123 9.41601 165.043 9.07201 164.883 8.73601C164.739 8.40001 164.499 8.12801 164.163 7.92001C163.827 7.69601 163.363 7.58401 162.771 7.58401C162.179 7.58401 161.699 7.67201 161.331 7.84801C160.979 8.02401 160.715 8.24001 160.539 8.49601C160.379 8.75201 160.299 9.01601 160.299 9.28801C160.299 9.44801 160.347 9.56801 160.443 9.64801C160.539 9.72801 160.715 9.76801 160.971 9.76801ZM170.557 16.656C170.669 16.656 170.773 16.544 170.869 16.32C170.981 16.096 171.037 15.728 171.037 15.216V7.10401C171.037 6.59201 170.981 6.23201 170.869 6.02401C170.773 5.80001 170.669 5.68001 170.557 5.66401C171.261 5.66401 171.981 5.61601 172.717 5.52001C173.453 5.40801 174.029 5.29601 174.445 5.18401V6.64801L174.397 6.96001L174.445 7.00801C174.493 6.89601 174.645 6.69601 174.901 6.40801C175.157 6.12001 175.525 5.84801 176.005 5.59201C176.485 5.32001 177.077 5.18401 177.781 5.18401C179.269 5.18401 180.405 5.60801 181.189 6.45601C181.989 7.30401 182.389 8.63201 182.389 10.44V15.216C182.389 15.728 182.437 16.096 182.533 16.32C182.645 16.544 182.757 16.656 182.869 16.656H178.501C178.613 16.656 178.717 16.544 178.813 16.32C178.925 16.096 178.981 15.728 178.981 15.216V10.512C178.981 9.76001 178.901 9.17601 178.741 8.76001C178.581 8.32801 178.357 8.02401 178.069 7.84801C177.797 7.67201 177.477 7.58401 177.109 7.58401C176.661 7.58401 176.229 7.69601 175.813 7.92001C175.413 8.12801 175.085 8.46401 174.829 8.92801C174.573 9.37601 174.445 9.97601 174.445 10.728V15.216C174.445 15.728 174.493 16.096 174.589 16.32C174.701 16.544 174.813 16.656 174.925 16.656H170.557ZM186.421 16.656C186.533 16.64 186.637 16.52 186.733 16.296C186.845 16.072 186.901 15.712 186.901 15.216V10.728C186.901 10.088 186.837 9.53601 186.709 9.07201C186.597 8.59201 186.405 8.22401 186.133 7.96801C185.861 7.71201 185.493 7.58401 185.029 7.58401C184.245 7.58401 183.605 7.86401 183.109 8.42401C182.629 8.98401 182.389 9.83201 182.389 10.968H180.637C180.637 10.2 180.757 9.47201 180.997 8.78401C181.237 8.08001 181.581 7.46401 182.029 6.93601C182.477 6.39201 183.013 5.96801 183.637 5.66401C184.261 5.34401 184.949 5.18401 185.701 5.18401C186.661 5.18401 187.485 5.36001 188.173 5.71201C188.861 6.04801 189.389 6.61601 189.757 7.41601C190.125 8.21601 190.309 9.30401 190.309 10.68V15.216C190.309 15.712 190.357 16.072 190.453 16.296C190.565 16.52 190.677 16.64 190.789 16.656H186.421ZM198.944 16.896C197.68 16.896 196.624 16.768 195.776 16.512C194.944 16.24 194.28 15.856 193.784 15.36C193.288 14.848 192.936 14.232 192.728 13.512C192.52 12.792 192.416 11.976 192.416 11.064C192.416 9.25601 192.92 7.82401 193.928 6.76801C194.936 5.71201 196.48 5.18401 198.56 5.18401C199.776 5.18401 200.76 5.35201 201.512 5.68801C202.28 6.02401 202.864 6.47201 203.264 7.03201C203.664 7.59201 203.936 8.21601 204.08 8.90401C204.24 9.57601 204.32 10.256 204.32 10.944V12.072C204.32 12.024 204.096 11.976 203.648 11.928C203.216 11.864 202.48 11.832 201.44 11.832H195.872C195.872 12.712 196.136 13.376 196.664 13.824C197.208 14.256 198.088 14.472 199.304 14.472C200.328 14.472 201.24 14.352 202.04 14.112C202.856 13.856 203.448 13.616 203.816 13.392V14.112L204.056 15.936C203.752 16.144 203.168 16.36 202.304 16.584C201.44 16.792 200.32 16.896 198.944 16.896ZM196.76 9.76801H200.912C200.912 9.41601 200.832 9.07201 200.672 8.73601C200.528 8.40001 200.288 8.12801 199.952 7.92001C199.616 7.69601 199.152 7.58401 198.56 7.58401C197.968 7.58401 197.488 7.67201 197.12 7.84801C196.768 8.02401 196.504 8.24001 196.328 8.49601C196.168 8.75201 196.088 9.01601 196.088 9.28801C196.088 9.44801 196.136 9.56801 196.232 9.64801C196.328 9.72801 196.504 9.76801 196.76 9.76801Z" fill="black"/>
</svg>
