<svg width="156" height="17" viewBox="0 0 156 17" fill="none" xmlns="http://www.w3.org/2000/svg">
<path d="M3.27826e-07 16.5601C0.112 16.5601 0.216 16.4481 0.312 16.2241C0.424 16.0001 0.48 15.6321 0.48 15.1201V7.00806C0.48 6.49606 0.424 6.13606 0.312 5.92806C0.216 5.70406 0.112 5.58406 3.27826e-07 5.56806C0.704 5.56806 1.424 5.52006 2.16 5.42406C2.896 5.31206 3.472 5.20006 3.888 5.08806V6.55206L3.84 6.86406L3.888 6.91206C3.936 6.80006 4.088 6.60006 4.344 6.31206C4.6 6.02406 4.968 5.75206 5.448 5.49606C5.928 5.22406 6.52 5.08806 7.224 5.08806C8.712 5.08806 9.848 5.51206 10.632 6.36006C11.432 7.20806 11.832 8.53606 11.832 10.3441V15.1201C11.832 15.6321 11.88 16.0001 11.976 16.2241C12.088 16.4481 12.2 16.5601 12.312 16.5601H7.944C8.056 16.5601 8.16 16.4481 8.256 16.2241C8.368 16.0001 8.424 15.6321 8.424 15.1201V10.4161C8.424 9.66406 8.344 9.08006 8.184 8.66406C8.024 8.23206 7.8 7.92806 7.512 7.75206C7.24 7.57606 6.92 7.48806 6.552 7.48806C6.104 7.48806 5.672 7.60006 5.256 7.82406C4.856 8.03206 4.528 8.36806 4.272 8.83206C4.016 9.28006 3.888 9.88006 3.888 10.6321V15.1201C3.888 15.6321 3.936 16.0001 4.032 16.2241C4.144 16.4481 4.256 16.5601 4.368 16.5601H3.27826e-07ZM15.864 16.5601C15.976 16.5441 16.08 16.4241 16.176 16.2001C16.288 15.9761 16.344 15.6161 16.344 15.1201V10.6321C16.344 9.99206 16.28 9.44006 16.152 8.97606C16.04 8.49606 15.848 8.12806 15.576 7.87206C15.304 7.61606 14.936 7.48806 14.472 7.48806C13.688 7.48806 13.048 7.76806 12.552 8.32806C12.072 8.88806 11.832 9.73606 11.832 10.8721H10.08C10.08 10.1041 10.2 9.37606 10.44 8.68806C10.68 7.98406 11.024 7.36806 11.472 6.84006C11.92 6.29606 12.456 5.87206 13.08 5.56806C13.704 5.24806 14.392 5.08806 15.144 5.08806C16.104 5.08806 16.928 5.26406 17.616 5.61606C18.304 5.95206 18.832 6.52006 19.2 7.32006C19.568 8.12006 19.752 9.20806 19.752 10.5841V15.1201C19.752 15.6161 19.8 15.9761 19.896 16.2001C20.008 16.4241 20.12 16.5441 20.232 16.5601H15.864ZM26.8273 16.8001C25.3873 16.8001 24.2353 16.5201 23.3713 15.9601C22.5233 15.3841 22.0993 14.4641 22.0993 13.2001C22.0993 12.3201 22.3233 11.6081 22.7713 11.0641C23.2193 10.5201 23.8273 10.1201 24.5953 9.86406C25.3793 9.59206 26.2673 9.45606 27.2593 9.45606C27.9953 9.45606 28.6193 9.52006 29.1313 9.64806C29.6593 9.77606 30.0833 9.91206 30.4033 10.0561C30.7233 10.2001 30.9313 10.3041 31.0273 10.3681C31.0273 9.69606 30.9553 9.15206 30.8113 8.73606C30.6673 8.30406 30.4033 7.99206 30.0193 7.80006C29.6513 7.59206 29.1313 7.48806 28.4593 7.48806C27.4833 7.48806 26.6193 7.58406 25.8673 7.77606C25.1153 7.96806 24.4993 8.19206 24.0193 8.44806C23.5553 8.70406 23.2353 8.92006 23.0593 9.09606V8.37606L22.8193 6.02406C22.9313 5.96006 23.2273 5.85606 23.7073 5.71206C24.1873 5.56806 24.8433 5.43206 25.6753 5.30406C26.5073 5.16006 27.4993 5.08806 28.6513 5.08806C30.2353 5.08806 31.4433 5.32006 32.2753 5.78406C33.1073 6.23206 33.6753 6.88006 33.9793 7.72806C34.2993 8.57606 34.4593 9.60006 34.4593 10.8001V15.1201C34.4593 15.5681 34.5073 15.8961 34.6033 16.1041C34.7153 16.2961 34.8273 16.4481 34.9393 16.5601H31.0513V16.0561L31.0993 15.6001L31.0513 15.5521C30.9233 15.6961 30.7393 15.8401 30.4993 15.9841C30.2593 16.1281 29.9633 16.2641 29.6113 16.3921C29.2593 16.5041 28.8513 16.6001 28.3873 16.6801C27.9233 16.7601 27.4033 16.8001 26.8273 16.8001ZM27.9553 14.3761C28.6273 14.3761 29.1873 14.3281 29.6353 14.2321C30.0993 14.1201 30.4513 13.9761 30.6913 13.8001C30.9313 13.6081 31.0513 13.3841 31.0513 13.1281C31.0513 12.7601 30.7713 12.4561 30.2113 12.2161C29.6673 11.9761 28.9233 11.8561 27.9793 11.8561C27.0673 11.8561 26.4193 11.9841 26.0353 12.2401C25.6673 12.4961 25.4833 12.8161 25.4833 13.2001C25.4833 13.6801 25.6993 14.0001 26.1313 14.1601C26.5633 14.3041 27.1713 14.3761 27.9553 14.3761ZM41.6421 16.8001C40.5381 16.8001 39.7381 16.5681 39.2421 16.1041C38.7461 15.6241 38.4981 14.8481 38.4981 13.7761V7.72806H36.3381V5.32806C37.0741 5.32806 37.6501 5.24006 38.0661 5.06406C38.4821 4.87206 38.7781 4.54406 38.9541 4.08006C39.1301 3.61606 39.2181 2.96806 39.2181 2.13606H41.9061V5.32806H46.0101C45.8981 5.64806 45.7861 6.04806 45.6741 6.52806C45.5781 6.99206 45.5301 7.39206 45.5301 7.72806H41.9061V12.4561C41.9061 13.1921 41.9621 13.6961 42.0741 13.9681C42.1861 14.2401 42.4501 14.3761 42.8661 14.3761C43.1381 14.3761 43.4341 14.2801 43.7541 14.0881C44.0901 13.8961 44.4101 13.6641 44.7141 13.3921C45.0341 13.1041 45.2981 12.8321 45.5061 12.5761V13.3201L45.7461 15.6481C45.5541 15.8081 45.2661 15.9841 44.8821 16.1761C44.4981 16.3521 44.0261 16.4961 43.4661 16.6081C42.9221 16.7361 42.3141 16.8001 41.6421 16.8001ZM53.4649 16.8001C51.8009 16.8001 50.4889 16.5441 49.5289 16.0321C48.5849 15.5201 47.9209 14.8241 47.5369 13.9441C47.1529 13.0641 46.9609 12.0721 46.9609 10.9681C46.9609 9.01606 47.4889 7.55206 48.5449 6.57606C49.6169 5.60006 51.1769 5.11206 53.2249 5.11206C54.2969 5.11206 55.2729 5.19206 56.1529 5.35206C57.0489 5.51206 57.7049 5.66406 58.1209 5.80806V6.52806L58.6009 9.09606C58.2489 8.76006 57.6089 8.41606 56.6809 8.06406C55.7689 7.69606 54.6729 7.51206 53.3929 7.51206C52.7049 7.51206 52.1289 7.64006 51.6649 7.89606C51.2169 8.13606 50.8809 8.51206 50.6569 9.02406C50.4489 9.53606 50.3449 10.1921 50.3449 10.9921C50.3449 11.7761 50.4649 12.4161 50.7049 12.9121C50.9449 13.4081 51.3369 13.7681 51.8809 13.9921C52.4249 14.2161 53.1449 14.3281 54.0409 14.3281C55.1769 14.3281 56.1129 14.1841 56.8489 13.8961C57.6009 13.5921 58.1049 13.2961 58.3609 13.0081V13.7281L58.6009 15.6481C58.2969 15.9041 57.6969 16.1601 56.8009 16.4161C55.9209 16.6721 54.8089 16.8001 53.4649 16.8001ZM60.6094 16.5601C60.7214 16.5601 60.8254 16.4481 60.9214 16.2241C61.0334 16.0001 61.0894 15.6321 61.0894 15.1201V1.44006C61.0894 0.928057 61.0334 0.568058 60.9214 0.360058C60.8254 0.136058 60.7214 0.016058 60.6094 5.72205e-05H64.4974V6.55206L64.4494 6.86406L64.4974 6.91206C64.5454 6.80006 64.6974 6.60006 64.9534 6.31206C65.2094 6.02406 65.5774 5.75206 66.0574 5.49606C66.5374 5.22406 67.1294 5.08806 67.8334 5.08806C69.3214 5.08806 70.4574 5.51206 71.2414 6.36006C72.0414 7.20806 72.4414 8.53606 72.4414 10.3441V15.1201C72.4414 15.6321 72.4894 16.0001 72.5854 16.2241C72.6974 16.4481 72.8094 16.5601 72.9214 16.5601H68.5534C68.6654 16.5601 68.7694 16.4481 68.8654 16.2241C68.9774 16.0001 69.0334 15.6321 69.0334 15.1201V10.4161C69.0334 9.66406 68.9534 9.08006 68.7934 8.66406C68.6334 8.23206 68.4094 7.92806 68.1214 7.75206C67.8494 7.57606 67.5294 7.48806 67.1614 7.48806C66.7134 7.48806 66.2814 7.60006 65.8654 7.82406C65.4654 8.03206 65.1374 8.36806 64.8814 8.83206C64.6254 9.28006 64.4974 9.88006 64.4974 10.6321V15.1201C64.4974 15.6321 64.5454 16.0001 64.6414 16.2241C64.7534 16.4481 64.8654 16.5601 64.9774 16.5601H60.6094ZM86.6724 16.8001C85.2484 16.8001 84.0484 16.7201 83.0724 16.5601C82.0964 16.4001 81.4244 16.2401 81.0564 16.0801V15.3601L80.5524 13.0081C80.9684 13.3121 81.7444 13.6161 82.8804 13.9201C84.0164 14.2241 85.4084 14.3761 87.0564 14.3761C87.5524 14.3761 87.9444 14.3441 88.2324 14.2801C88.5364 14.2161 88.7524 14.1121 88.8804 13.9681C89.0084 13.8241 89.0724 13.6401 89.0724 13.4161C89.0724 13.1441 88.9684 12.9361 88.7604 12.7921C88.5684 12.6481 88.2164 12.5361 87.7044 12.4561C87.1924 12.3601 86.4484 12.2481 85.4724 12.1201C84.2404 11.9601 83.2644 11.7361 82.5444 11.4481C81.8244 11.1441 81.3124 10.7601 81.0084 10.2961C80.7204 9.81606 80.5764 9.23206 80.5764 8.54406C80.5764 7.90406 80.7284 7.32806 81.0324 6.81606C81.3524 6.28806 81.8964 5.87206 82.6644 5.56806C83.4484 5.24806 84.5364 5.08806 85.9284 5.08806C87.2404 5.08806 88.3924 5.16806 89.3844 5.32806C90.3764 5.48806 91.0884 5.64806 91.5204 5.80806V6.52806L92.0004 8.64006C91.6324 8.40006 90.9124 8.15206 89.8404 7.89606C88.7684 7.64006 87.4084 7.51206 85.7604 7.51206C85.1204 7.51206 84.6644 7.57606 84.3924 7.70406C84.1204 7.83206 83.9844 8.05606 83.9844 8.37606C83.9844 8.53606 84.0244 8.67206 84.1044 8.78406C84.2004 8.89606 84.3764 9.00006 84.6324 9.09606C84.8884 9.19206 85.2564 9.28806 85.7364 9.38406C86.2164 9.46406 86.8484 9.55206 87.6324 9.64806C88.9924 9.82406 90.0164 10.0721 90.7044 10.3921C91.3924 10.6961 91.8564 11.0801 92.0964 11.5441C92.3364 11.9921 92.4564 12.5361 92.4564 13.1761C92.4564 13.9921 92.2484 14.6721 91.8324 15.2161C91.4324 15.7441 90.8004 16.1441 89.9364 16.4161C89.0884 16.6721 88.0004 16.8001 86.6724 16.8001ZM98.9233 16.8001C97.8193 16.8001 97.0193 16.5681 96.5233 16.1041C96.0273 15.6241 95.7793 14.8481 95.7793 13.7761V7.72806H93.6193V5.32806C94.3553 5.32806 94.9313 5.24006 95.3473 5.06406C95.7633 4.87206 96.0593 4.54406 96.2353 4.08006C96.4113 3.61606 96.4993 2.96806 96.4993 2.13606H99.1873V5.32806H103.291C103.179 5.64806 103.067 6.04806 102.955 6.52806C102.859 6.99206 102.811 7.39206 102.811 7.72806H99.1873V12.4561C99.1873 13.1921 99.2433 13.6961 99.3553 13.9681C99.4673 14.2401 99.7313 14.3761 100.147 14.3761C100.419 14.3761 100.715 14.2801 101.035 14.0881C101.371 13.8961 101.691 13.6641 101.995 13.3921C102.315 13.1041 102.579 12.8321 102.787 12.5761V13.3201L103.027 15.6481C102.835 15.8081 102.547 15.9841 102.163 16.1761C101.779 16.3521 101.307 16.4961 100.747 16.6081C100.203 16.7361 99.5953 16.8001 98.9233 16.8001ZM109.21 16.8001C107.77 16.8001 106.618 16.5201 105.754 15.9601C104.906 15.3841 104.482 14.4641 104.482 13.2001C104.482 12.3201 104.706 11.6081 105.154 11.0641C105.602 10.5201 106.21 10.1201 106.978 9.86406C107.762 9.59206 108.65 9.45606 109.642 9.45606C110.378 9.45606 111.002 9.52006 111.514 9.64806C112.042 9.77606 112.466 9.91206 112.786 10.0561C113.106 10.2001 113.314 10.3041 113.41 10.3681C113.41 9.69606 113.338 9.15206 113.194 8.73606C113.05 8.30406 112.786 7.99206 112.402 7.80006C112.034 7.59206 111.514 7.48806 110.842 7.48806C109.866 7.48806 109.002 7.58406 108.25 7.77606C107.498 7.96806 106.882 8.19206 106.402 8.44806C105.938 8.70406 105.618 8.92006 105.442 9.09606V8.37606L105.202 6.02406C105.314 5.96006 105.61 5.85606 106.09 5.71206C106.57 5.56806 107.226 5.43206 108.058 5.30406C108.89 5.16006 109.882 5.08806 111.034 5.08806C112.618 5.08806 113.826 5.32006 114.658 5.78406C115.49 6.23206 116.058 6.88006 116.362 7.72806C116.682 8.57606 116.842 9.60006 116.842 10.8001V15.1201C116.842 15.5681 116.89 15.8961 116.986 16.1041C117.098 16.2961 117.21 16.4481 117.322 16.5601H113.434V16.0561L113.482 15.6001L113.434 15.5521C113.306 15.6961 113.122 15.8401 112.882 15.9841C112.642 16.1281 112.346 16.2641 111.994 16.3921C111.642 16.5041 111.234 16.6001 110.77 16.6801C110.306 16.7601 109.786 16.8001 109.21 16.8001ZM110.338 14.3761C111.01 14.3761 111.57 14.3281 112.018 14.2321C112.482 14.1201 112.834 13.9761 113.074 13.8001C113.314 13.6081 113.434 13.3841 113.434 13.1281C113.434 12.7601 113.154 12.4561 112.594 12.2161C112.05 11.9761 111.306 11.8561 110.362 11.8561C109.45 11.8561 108.802 11.9841 108.418 12.2401C108.05 12.4961 107.866 12.8161 107.866 13.2001C107.866 13.6801 108.082 14.0001 108.514 14.1601C108.946 14.3041 109.554 14.3761 110.338 14.3761ZM124.025 16.8001C122.921 16.8001 122.121 16.5681 121.625 16.1041C121.129 15.6241 120.881 14.8481 120.881 13.7761V7.72806H118.721V5.32806C119.457 5.32806 120.033 5.24006 120.449 5.06406C120.865 4.87206 121.161 4.54406 121.337 4.08006C121.513 3.61606 121.601 2.96806 121.601 2.13606H124.289V5.32806H128.393C128.281 5.64806 128.169 6.04806 128.057 6.52806C127.961 6.99206 127.913 7.39206 127.913 7.72806H124.289V12.4561C124.289 13.1921 124.345 13.6961 124.457 13.9681C124.569 14.2401 124.833 14.3761 125.249 14.3761C125.521 14.3761 125.817 14.2801 126.137 14.0881C126.473 13.8961 126.793 13.6641 127.097 13.3921C127.417 13.1041 127.681 12.8321 127.889 12.5761V13.3201L128.129 15.6481C127.937 15.8081 127.649 15.9841 127.265 16.1761C126.881 16.3521 126.409 16.4961 125.849 16.6081C125.305 16.7361 124.697 16.8001 124.025 16.8001ZM134.528 16.8001C133.6 16.8001 132.808 16.6401 132.152 16.3201C131.496 15.9841 131 15.4161 130.664 14.6161C130.328 13.8001 130.16 12.6721 130.16 11.2321V6.76806C130.16 6.25606 130.104 5.88806 129.992 5.66406C129.896 5.44006 129.792 5.32806 129.68 5.32806H134.096C133.984 5.32806 133.864 5.44006 133.736 5.66406C133.624 5.88806 133.568 6.25606 133.568 6.76806V11.5681C133.568 12.5761 133.752 13.2961 134.12 13.7281C134.504 14.1601 134.944 14.3761 135.44 14.3761C136.144 14.3761 136.688 14.2161 137.072 13.8961C137.456 13.5601 137.728 13.1281 137.888 12.6001C138.048 12.0561 138.128 11.4881 138.128 10.8961V6.76806C138.128 6.25606 138.072 5.89606 137.96 5.68806C137.864 5.46406 137.76 5.34406 137.648 5.32806H141.536V15.1201C141.536 15.6321 141.584 16.0001 141.68 16.2241C141.792 16.4481 141.904 16.5601 142.016 16.5601H138.128V15.6241L138.176 15.1441L138.128 15.0961C137.968 15.3361 137.768 15.5601 137.528 15.7681C137.288 15.9761 137.016 16.1601 136.712 16.3201C136.408 16.4641 136.072 16.5761 135.704 16.6561C135.336 16.7521 134.944 16.8001 134.528 16.8001ZM150.001 16.8001C148.577 16.8001 147.377 16.7201 146.401 16.5601C145.425 16.4001 144.753 16.2401 144.385 16.0801V15.3601L143.881 13.0081C144.297 13.3121 145.073 13.6161 146.209 13.9201C147.345 14.2241 148.737 14.3761 150.385 14.3761C150.881 14.3761 151.273 14.3441 151.561 14.2801C151.865 14.2161 152.081 14.1121 152.209 13.9681C152.337 13.8241 152.401 13.6401 152.401 13.4161C152.401 13.1441 152.297 12.9361 152.089 12.7921C151.897 12.6481 151.545 12.5361 151.033 12.4561C150.521 12.3601 149.777 12.2481 148.801 12.1201C147.569 11.9601 146.593 11.7361 145.873 11.4481C145.153 11.1441 144.641 10.7601 144.337 10.2961C144.049 9.81606 143.905 9.23206 143.905 8.54406C143.905 7.90406 144.057 7.32806 144.361 6.81606C144.681 6.28806 145.225 5.87206 145.993 5.56806C146.777 5.24806 147.865 5.08806 149.257 5.08806C150.569 5.08806 151.721 5.16806 152.713 5.32806C153.705 5.48806 154.417 5.64806 154.849 5.80806V6.52806L155.329 8.64006C154.961 8.40006 154.241 8.15206 153.169 7.89606C152.097 7.64006 150.737 7.51206 149.089 7.51206C148.449 7.51206 147.993 7.57606 147.721 7.70406C147.449 7.83206 147.313 8.05606 147.313 8.37606C147.313 8.53606 147.353 8.67206 147.433 8.78406C147.529 8.89606 147.705 9.00006 147.961 9.09606C148.217 9.19206 148.585 9.28806 149.065 9.38406C149.545 9.46406 150.177 9.55206 150.961 9.64806C152.321 9.82406 153.345 10.0721 154.033 10.3921C154.721 10.6961 155.185 11.0801 155.425 11.5441C155.665 11.9921 155.785 12.5361 155.785 13.1761C155.785 13.9921 155.577 14.6721 155.161 15.2161C154.761 15.7441 154.129 16.1441 153.265 16.4161C152.417 16.6721 151.329 16.8001 150.001 16.8001Z" fill="black"/>
</svg>
