<svg width="176" height="44" viewBox="0 0 176 44" fill="none" xmlns="http://www.w3.org/2000/svg">
<rect x="1" y="1" width="174" height="42" rx="9" fill="#ED1B76" fill-opacity="0.08"/>
<rect x="1" y="1" width="174" height="42" rx="9" stroke="#E71C4F" stroke-width="2"/>
<path d="M25.376 28V23.68L20.064 16.48H22.56L26.448 21.36L30.288 16.48H32.832L27.504 23.696V28H25.376ZM35.3984 28C34.993 28 34.625 27.8987 34.2944 27.696C33.9637 27.4933 33.697 27.2267 33.4944 26.896C33.2917 26.5653 33.1904 26.1973 33.1904 25.792V20.928C33.1904 20.5227 33.2917 20.1547 33.4944 19.824C33.697 19.4933 33.9637 19.2267 34.2944 19.024C34.625 18.8213 34.993 18.72 35.3984 18.72H40.4064C40.8117 18.72 41.1797 18.8213 41.5104 19.024C41.8517 19.2267 42.1184 19.4933 42.3104 19.824C42.513 20.1547 42.6144 20.5227 42.6144 20.928V24.416H35.2864V25.712C35.2864 25.7653 35.3024 25.8133 35.3344 25.856C35.377 25.888 35.425 25.904 35.4784 25.904H42.6144V28H35.3984ZM35.2864 22.528H40.5184V21.008C40.5184 20.9547 40.497 20.912 40.4544 20.88C40.4224 20.8373 40.3797 20.816 40.3264 20.816H35.4784C35.425 20.816 35.377 20.8373 35.3344 20.88C35.3024 20.912 35.2864 20.9547 35.2864 21.008V22.528ZM46.9591 28C46.5538 28 46.1858 27.8987 45.8551 27.696C45.5245 27.4933 45.2578 27.2267 45.0551 26.896C44.8525 26.5653 44.7511 26.1973 44.7511 25.792V25.44H46.8471V25.712C46.8471 25.7653 46.8631 25.8133 46.8951 25.856C46.9378 25.888 46.9858 25.904 47.0391 25.904H51.8871C51.9405 25.904 51.9831 25.888 52.0151 25.856C52.0578 25.8133 52.0791 25.7653 52.0791 25.712V24.608C52.0791 24.5547 52.0578 24.512 52.0151 24.48C51.9831 24.4373 51.9405 24.416 51.8871 24.416H46.9591C46.5538 24.416 46.1858 24.3147 45.8551 24.112C45.5245 23.9093 45.2578 23.6427 45.0551 23.312C44.8525 22.9813 44.7511 22.6133 44.7511 22.208V20.928C44.7511 20.5227 44.8525 20.1547 45.0551 19.824C45.2578 19.4933 45.5245 19.2267 45.8551 19.024C46.1858 18.8213 46.5538 18.72 46.9591 18.72H51.9671C52.3831 18.72 52.7565 18.8213 53.0871 19.024C53.4178 19.2267 53.6845 19.4933 53.8871 19.824C54.0898 20.1547 54.1911 20.5227 54.1911 20.928V21.28H52.0791V21.008C52.0791 20.9547 52.0578 20.912 52.0151 20.88C51.9831 20.8373 51.9405 20.816 51.8871 20.816H47.0391C46.9858 20.816 46.9378 20.8373 46.8951 20.88C46.8631 20.912 46.8471 20.9547 46.8471 21.008V22.112C46.8471 22.1653 46.8631 22.2133 46.8951 22.256C46.9378 22.288 46.9858 22.304 47.0391 22.304H51.9671C52.3831 22.304 52.7565 22.4053 53.0871 22.608C53.4178 22.8107 53.6845 23.0773 53.8871 23.408C54.0898 23.7387 54.1911 24.1067 54.1911 24.512V25.792C54.1911 26.1973 54.0898 26.5653 53.8871 26.896C53.6845 27.2267 53.4178 27.4933 53.0871 27.696C52.7565 27.8987 52.3831 28 51.9671 28H46.9591ZM56.4559 30.112V26.032H58.5519V27.904C58.5519 28.256 58.4612 28.5813 58.2799 28.88C58.0985 29.1893 57.8479 29.4507 57.5279 29.664C57.2079 29.888 56.8505 30.0373 56.4559 30.112ZM73.0515 31.68V28H67.9155C67.4995 28 67.1262 27.8987 66.7955 27.696C66.4648 27.4933 66.1982 27.2267 65.9955 26.896C65.8035 26.5653 65.7075 26.1973 65.7075 25.792V20.928C65.7075 20.5227 65.8035 20.1547 65.9955 19.824C66.1982 19.4933 66.4648 19.2267 66.7955 19.024C67.1262 18.8213 67.4995 18.72 67.9155 18.72H75.1475V31.68H73.0515ZM68.0115 25.904H72.8595C72.9128 25.904 72.9555 25.888 72.9875 25.856C73.0302 25.8133 73.0515 25.7653 73.0515 25.712V21.008C73.0515 20.9547 73.0302 20.912 72.9875 20.88C72.9555 20.8373 72.9128 20.816 72.8595 20.816H68.0115C67.9582 20.816 67.9102 20.8373 67.8675 20.88C67.8355 20.912 67.8195 20.9547 67.8195 21.008V25.712C67.8195 25.7653 67.8355 25.8133 67.8675 25.856C67.9102 25.888 67.9582 25.904 68.0115 25.904ZM79.396 28C78.9907 28 78.6173 27.8987 78.276 27.696C77.9453 27.4933 77.6787 27.2267 77.476 26.896C77.284 26.5653 77.188 26.1973 77.188 25.792V18.72H79.284V25.712C79.284 25.7653 79.3 25.8133 79.332 25.856C79.3747 25.888 79.4227 25.904 79.476 25.904H84.324C84.3773 25.904 84.42 25.888 84.452 25.856C84.4947 25.8133 84.516 25.7653 84.516 25.712V18.72H86.612V25.792C86.612 26.1973 86.5107 26.5653 86.308 26.896C86.116 27.2267 85.8547 27.4933 85.524 27.696C85.1933 27.8987 84.82 28 84.404 28H79.396ZM88.937 28V18.72H91.033V28H88.937ZM88.937 17.792V15.68H91.033V17.792H88.937ZM95.5666 28C95.1613 28 94.7933 27.8987 94.4626 27.696C94.132 27.4933 93.8653 27.2267 93.6626 26.896C93.46 26.5653 93.3586 26.1973 93.3586 25.792V15.872H95.4546V18.72H99.0706V20.816H95.4546V25.712C95.4546 25.7653 95.4706 25.8133 95.5026 25.856C95.5453 25.888 95.5933 25.904 95.6466 25.904H99.0706V28H95.5666ZM107.905 31.664V29.552H113.489C113.542 29.552 113.585 29.5307 113.617 29.488C113.66 29.456 113.681 29.4133 113.681 29.36V28H108.561C108.166 28 107.798 27.8987 107.457 27.696C107.126 27.4933 106.86 27.2267 106.657 26.896C106.454 26.5653 106.353 26.1973 106.353 25.792V20.928C106.353 20.5227 106.454 20.1547 106.657 19.824C106.86 19.4933 107.126 19.2267 107.457 19.024C107.798 18.8213 108.166 18.72 108.561 18.72H113.585C113.99 18.72 114.358 18.8213 114.689 19.024C115.02 19.2267 115.281 19.4933 115.473 19.824C115.676 20.1547 115.777 20.5227 115.777 20.928V29.456C115.777 29.872 115.681 30.2453 115.489 30.576C115.297 30.9067 115.03 31.168 114.689 31.36C114.358 31.5627 113.99 31.664 113.585 31.664H107.905ZM108.641 25.904H113.489C113.542 25.904 113.585 25.888 113.617 25.856C113.66 25.8133 113.681 25.7653 113.681 25.712V21.008C113.681 20.9547 113.66 20.912 113.617 20.88C113.585 20.8373 113.542 20.816 113.489 20.816H108.641C108.588 20.816 108.54 20.8373 108.497 20.88C108.465 20.912 108.449 20.9547 108.449 21.008V25.712C108.449 25.7653 108.465 25.8133 108.497 25.856C108.54 25.888 108.588 25.904 108.641 25.904ZM119.955 28C119.55 28 119.176 27.8987 118.835 27.696C118.504 27.4933 118.238 27.2267 118.035 26.896C117.843 26.5653 117.747 26.1973 117.747 25.792V22.304H125.075V21.008C125.075 20.9547 125.054 20.912 125.011 20.88C124.979 20.8373 124.936 20.816 124.883 20.816H117.747V18.72H124.963C125.368 18.72 125.736 18.8213 126.067 19.024C126.408 19.2267 126.675 19.4933 126.867 19.824C127.07 20.1547 127.171 20.5227 127.171 20.928V28H119.955ZM120.035 25.904H125.075V24.192H119.843V25.712C119.843 25.7653 119.859 25.8133 119.891 25.856C119.934 25.888 119.982 25.904 120.035 25.904ZM129.122 28V18.72H140.626C141.042 18.72 141.415 18.8213 141.746 19.024C142.077 19.2267 142.338 19.4933 142.53 19.824C142.733 20.1547 142.834 20.5227 142.834 20.928V28H140.754V21.008C140.754 20.9547 140.733 20.912 140.69 20.88C140.647 20.8373 140.599 20.816 140.546 20.816H137.234C137.181 20.816 137.133 20.8373 137.09 20.88C137.058 20.912 137.042 20.9547 137.042 21.008V28H134.93V21.008C134.93 20.9547 134.909 20.912 134.866 20.88C134.834 20.8373 134.791 20.816 134.738 20.816H131.41C131.357 20.816 131.309 20.8373 131.266 20.88C131.234 20.912 131.218 20.9547 131.218 21.008V28H129.122ZM147.125 28C146.72 28 146.352 27.8987 146.021 27.696C145.691 27.4933 145.424 27.2267 145.221 26.896C145.019 26.5653 144.917 26.1973 144.917 25.792V20.928C144.917 20.5227 145.019 20.1547 145.221 19.824C145.424 19.4933 145.691 19.2267 146.021 19.024C146.352 18.8213 146.72 18.72 147.125 18.72H152.133C152.539 18.72 152.907 18.8213 153.237 19.024C153.579 19.2267 153.845 19.4933 154.037 19.824C154.24 20.1547 154.341 20.5227 154.341 20.928V24.416H147.013V25.712C147.013 25.7653 147.029 25.8133 147.061 25.856C147.104 25.888 147.152 25.904 147.205 25.904H154.341V28H147.125ZM147.013 22.528H152.245V21.008C152.245 20.9547 152.224 20.912 152.181 20.88C152.149 20.8373 152.107 20.816 152.053 20.816H147.205C147.152 20.816 147.104 20.8373 147.061 20.88C147.029 20.912 147.013 20.9547 147.013 21.008V22.528Z" fill="#ED1B76"/>
</svg>
