<svg width="366" height="68" viewBox="0 0 366 68" fill="none" xmlns="http://www.w3.org/2000/svg">
<path d="M-0.00014545 21.224V4.956C-0.00014545 4.24667 0.177188 3.60267 0.531855 3.024C0.886521 2.42666 1.35319 1.95066 1.93185 1.596C2.52919 1.24133 3.18252 1.064 3.89185 1.064H16.2399C16.9492 1.064 17.6025 1.24133 18.1999 1.596C18.7972 1.95066 19.2732 2.42666 19.6279 3.024C19.9825 3.60267 20.1599 4.24667 20.1599 4.956V21.224H16.4359V14.448H3.69585V21.224H-0.00014545ZM3.69585 10.752H16.4359V5.124C16.4359 5.03066 16.3985 4.956 16.3239 4.9C16.2492 4.82533 16.1652 4.788 16.0719 4.788H4.03185C3.93852 4.788 3.85452 4.82533 3.77985 4.9C3.72385 4.956 3.69585 5.03066 3.69585 5.124V10.752ZM23.7981 21.224V8.848C23.7981 8.13867 23.9754 7.49466 24.3301 6.916C24.6848 6.33733 25.1514 5.87066 25.7301 5.516C26.3274 5.16133 26.9714 4.984 27.6621 4.984H36.6781V8.652H27.8021C27.7088 8.652 27.6248 8.68933 27.5501 8.764C27.4941 8.82 27.4661 8.89467 27.4661 8.988V21.224H23.7981ZM43.0144 21.224C42.3051 21.224 41.6611 21.0467 41.0824 20.692C40.5037 20.3373 40.0371 19.8707 39.6824 19.292C39.3277 18.7133 39.1504 18.0693 39.1504 17.36V8.848C39.1504 8.13867 39.3277 7.49466 39.6824 6.916C40.0371 6.33733 40.5037 5.87066 41.0824 5.516C41.6611 5.16133 42.3051 4.984 43.0144 4.984H51.7784C52.4877 4.984 53.1318 5.16133 53.7104 5.516C54.3078 5.87066 54.7744 6.33733 55.1104 6.916C55.4651 7.49466 55.6424 8.13867 55.6424 8.848V14.952H42.8184V17.22C42.8184 17.3133 42.8464 17.3973 42.9024 17.472C42.9771 17.528 43.0611 17.556 43.1544 17.556H55.6424V21.224H43.0144ZM42.8184 11.648H51.9744V8.988C51.9744 8.89467 51.9371 8.82 51.8624 8.764C51.8064 8.68933 51.7317 8.652 51.6384 8.652H43.1544C43.0611 8.652 42.9771 8.68933 42.9024 8.764C42.8464 8.82 42.8184 8.89467 42.8184 8.988V11.648ZM70.6797 27.244V23.548H80.4517C80.5451 23.548 80.6197 23.5107 80.6757 23.436C80.7504 23.38 80.7877 23.3053 80.7877 23.212V21.224H71.8277C71.1371 21.224 70.4931 21.0467 69.8957 20.692C69.3171 20.3373 68.8504 19.8707 68.4957 19.292C68.1411 18.7133 67.9637 18.0693 67.9637 17.36V5.04H71.6317V17.22C71.6317 17.3133 71.6597 17.3973 71.7157 17.472C71.7904 17.528 71.8744 17.556 71.9677 17.556H80.4517C80.5451 17.556 80.6197 17.528 80.6757 17.472C80.7504 17.3973 80.7877 17.3133 80.7877 17.22V5.04H84.4557V23.38C84.4557 24.0893 84.2877 24.7333 83.9517 25.312C83.6157 25.9093 83.1491 26.376 82.5517 26.712C81.9731 27.0667 81.3291 27.244 80.6197 27.244H70.6797ZM91.1241 21.224C90.4148 21.224 89.7708 21.0467 89.1921 20.692C88.6134 20.3373 88.1468 19.8707 87.7921 19.292C87.4374 18.7133 87.2601 18.0693 87.2601 17.36V8.848C87.2601 8.13867 87.4374 7.49466 87.7921 6.916C88.1468 6.33733 88.6134 5.87066 89.1921 5.516C89.7708 5.16133 90.4148 4.984 91.1241 4.984H99.8881C100.597 4.984 101.241 5.16133 101.82 5.516C102.417 5.87066 102.884 6.33733 103.22 6.916C103.575 7.49466 103.752 8.13867 103.752 8.848V17.36C103.752 18.0693 103.575 18.7133 103.22 19.292C102.884 19.8707 102.427 20.3373 101.848 20.692C101.269 21.0467 100.616 21.224 99.8881 21.224H91.1241ZM91.2641 17.556H99.7481C99.8414 17.556 99.9161 17.528 99.9721 17.472C100.047 17.3973 100.084 17.3133 100.084 17.22V8.988C100.084 8.89467 100.047 8.82 99.9721 8.764C99.9161 8.68933 99.8414 8.652 99.7481 8.652H91.2641C91.1708 8.652 91.0868 8.68933 91.0121 8.764C90.9561 8.82 90.9281 8.89467 90.9281 8.988V17.22C90.9281 17.3133 90.9561 17.3973 91.0121 17.472C91.0868 17.528 91.1708 17.556 91.2641 17.556ZM110.389 21.224C109.679 21.224 109.026 21.0467 108.429 20.692C107.85 20.3373 107.383 19.8707 107.029 19.292C106.693 18.7133 106.525 18.0693 106.525 17.36V4.984H110.193V17.22C110.193 17.3133 110.221 17.3973 110.277 17.472C110.351 17.528 110.435 17.556 110.529 17.556H119.013C119.106 17.556 119.181 17.528 119.237 17.472C119.311 17.3973 119.349 17.3133 119.349 17.22V4.984H123.017V17.36C123.017 18.0693 122.839 18.7133 122.485 19.292C122.149 19.8707 121.691 20.3373 121.113 20.692C120.534 21.0467 119.881 21.224 119.153 21.224H110.389ZM139.396 21.224C138.687 21.224 138.043 21.0467 137.464 20.692C136.885 20.3373 136.419 19.8707 136.064 19.292C135.709 18.7133 135.532 18.0693 135.532 17.36V16.744H139.2V17.22C139.2 17.3133 139.228 17.3973 139.284 17.472C139.359 17.528 139.443 17.556 139.536 17.556H148.02C148.113 17.556 148.188 17.528 148.244 17.472C148.319 17.3973 148.356 17.3133 148.356 17.22V15.288C148.356 15.1947 148.319 15.12 148.244 15.064C148.188 14.9893 148.113 14.952 148.02 14.952H139.396C138.687 14.952 138.043 14.7747 137.464 14.42C136.885 14.0653 136.419 13.5987 136.064 13.02C135.709 12.4413 135.532 11.7973 135.532 11.088V8.848C135.532 8.13867 135.709 7.49466 136.064 6.916C136.419 6.33733 136.885 5.87066 137.464 5.516C138.043 5.16133 138.687 4.984 139.396 4.984H148.16C148.888 4.984 149.541 5.16133 150.12 5.516C150.699 5.87066 151.165 6.33733 151.52 6.916C151.875 7.49466 152.052 8.13867 152.052 8.848V9.464H148.356V8.988C148.356 8.89467 148.319 8.82 148.244 8.764C148.188 8.68933 148.113 8.652 148.02 8.652H139.536C139.443 8.652 139.359 8.68933 139.284 8.764C139.228 8.82 139.2 8.89467 139.2 8.988V10.92C139.2 11.0133 139.228 11.0973 139.284 11.172C139.359 11.228 139.443 11.256 139.536 11.256H148.16C148.888 11.256 149.541 11.4333 150.12 11.788C150.699 12.1427 151.165 12.6093 151.52 13.188C151.875 13.7667 152.052 14.4107 152.052 15.12V17.36C152.052 18.0693 151.875 18.7133 151.52 19.292C151.165 19.8707 150.699 20.3373 150.12 20.692C149.541 21.0467 148.888 21.224 148.16 21.224H139.396ZM158.498 21.224C157.789 21.224 157.136 21.0467 156.538 20.692C155.96 20.3373 155.493 19.8707 155.138 19.292C154.802 18.7133 154.634 18.0693 154.634 17.36V4.984H158.302V17.22C158.302 17.3133 158.33 17.3973 158.386 17.472C158.461 17.528 158.545 17.556 158.638 17.556H167.122C167.216 17.556 167.29 17.528 167.346 17.472C167.421 17.3973 167.458 17.3133 167.458 17.22V4.984H171.126V17.36C171.126 18.0693 170.949 18.7133 170.594 19.292C170.258 19.8707 169.801 20.3373 169.222 20.692C168.644 21.0467 167.99 21.224 167.262 21.224H158.498ZM174.635 21.224V8.848C174.635 8.13867 174.812 7.49466 175.167 6.916C175.522 6.33733 175.988 5.87066 176.567 5.516C177.164 5.16133 177.808 4.984 178.499 4.984H187.515V8.652H178.639C178.546 8.652 178.462 8.68933 178.387 8.764C178.331 8.82 178.303 8.89467 178.303 8.988V21.224H174.635ZM193.851 21.224C193.142 21.224 192.498 21.0467 191.919 20.692C191.341 20.3373 190.874 19.8707 190.519 19.292C190.165 18.7133 189.987 18.0693 189.987 17.36V8.848C189.987 8.13867 190.165 7.49466 190.519 6.916C190.874 6.33733 191.341 5.87066 191.919 5.516C192.498 5.16133 193.142 4.984 193.851 4.984H202.615C203.325 4.984 203.969 5.16133 204.547 5.516C205.145 5.87066 205.611 6.33733 205.947 6.916C206.302 7.49466 206.479 8.13867 206.479 8.848V14.952H193.655V17.22C193.655 17.3133 193.683 17.3973 193.739 17.472C193.814 17.528 193.898 17.556 193.991 17.556H206.479V21.224H193.851ZM193.655 11.648H202.811V8.988C202.811 8.89467 202.774 8.82 202.699 8.764C202.643 8.68933 202.569 8.652 202.475 8.652H193.991C193.898 8.652 193.814 8.68933 193.739 8.764C193.683 8.82 193.655 8.89467 193.655 8.988V11.648ZM221.517 27.244V23.548H231.289C231.382 23.548 231.457 23.5107 231.513 23.436C231.587 23.38 231.625 23.3053 231.625 23.212V21.224H222.665C221.974 21.224 221.33 21.0467 220.733 20.692C220.154 20.3373 219.687 19.8707 219.333 19.292C218.978 18.7133 218.801 18.0693 218.801 17.36V5.04H222.469V17.22C222.469 17.3133 222.497 17.3973 222.553 17.472C222.627 17.528 222.711 17.556 222.805 17.556H231.289C231.382 17.556 231.457 17.528 231.513 17.472C231.587 17.3973 231.625 17.3133 231.625 17.22V5.04H235.293V23.38C235.293 24.0893 235.125 24.7333 234.789 25.312C234.453 25.9093 233.986 26.376 233.389 26.712C232.81 27.0667 232.166 27.244 231.457 27.244H221.517ZM241.961 21.224C241.252 21.224 240.608 21.0467 240.029 20.692C239.45 20.3373 238.984 19.8707 238.629 19.292C238.274 18.7133 238.097 18.0693 238.097 17.36V8.848C238.097 8.13867 238.274 7.49466 238.629 6.916C238.984 6.33733 239.45 5.87066 240.029 5.516C240.608 5.16133 241.252 4.984 241.961 4.984H250.725C251.434 4.984 252.078 5.16133 252.657 5.516C253.254 5.87066 253.721 6.33733 254.057 6.916C254.412 7.49466 254.589 8.13867 254.589 8.848V17.36C254.589 18.0693 254.412 18.7133 254.057 19.292C253.721 19.8707 253.264 20.3373 252.685 20.692C252.106 21.0467 251.453 21.224 250.725 21.224H241.961ZM242.101 17.556H250.585C250.678 17.556 250.753 17.528 250.809 17.472C250.884 17.3973 250.921 17.3133 250.921 17.22V8.988C250.921 8.89467 250.884 8.82 250.809 8.764C250.753 8.68933 250.678 8.652 250.585 8.652H242.101C242.008 8.652 241.924 8.68933 241.849 8.764C241.793 8.82 241.765 8.89467 241.765 8.988V17.22C241.765 17.3133 241.793 17.3973 241.849 17.472C241.924 17.528 242.008 17.556 242.101 17.556ZM261.225 21.224C260.516 21.224 259.863 21.0467 259.265 20.692C258.687 20.3373 258.22 19.8707 257.865 19.292C257.529 18.7133 257.361 18.0693 257.361 17.36V4.984H261.029V17.22C261.029 17.3133 261.057 17.3973 261.113 17.472C261.188 17.528 261.272 17.556 261.365 17.556H269.849C269.943 17.556 270.017 17.528 270.073 17.472C270.148 17.3973 270.185 17.3133 270.185 17.22V4.984H273.853V17.36C273.853 18.0693 273.676 18.7133 273.321 19.292C272.985 19.8707 272.528 20.3373 271.949 20.692C271.371 21.0467 270.717 21.224 269.989 21.224H261.225ZM292.389 21.224L286.005 4.984H289.897L293.845 14.56L297.989 4.984H301.797L306.221 14.616L309.889 4.984H313.781L307.677 21.224H304.821L299.921 10.388L295.245 21.224H292.389ZM319.971 21.224C319.262 21.224 318.608 21.0467 318.011 20.692C317.432 20.3373 316.966 19.8707 316.611 19.292C316.275 18.7133 316.107 18.0693 316.107 17.36V11.256H328.931V8.988C328.931 8.89467 328.894 8.82 328.819 8.764C328.763 8.68933 328.688 8.652 328.595 8.652H316.107V4.984H328.735C329.444 4.984 330.088 5.16133 330.667 5.516C331.264 5.87066 331.731 6.33733 332.067 6.916C332.422 7.49466 332.599 8.13867 332.599 8.848V21.224H319.971ZM320.111 17.556H328.931V14.56H319.775V17.22C319.775 17.3133 319.803 17.3973 319.859 17.472C319.934 17.528 320.018 17.556 320.111 17.556ZM335.864 21.224V4.984H348.492C349.201 4.984 349.845 5.16133 350.424 5.516C351.021 5.87066 351.488 6.33733 351.824 6.916C352.178 7.49466 352.356 8.13867 352.356 8.848V21.224H348.688V8.988C348.688 8.89467 348.65 8.82 348.576 8.764C348.52 8.68933 348.445 8.652 348.352 8.652H339.868C339.774 8.652 339.69 8.68933 339.616 8.764C339.56 8.82 339.532 8.89467 339.532 8.988V21.224H335.864ZM359.756 21.224C359.047 21.224 358.403 21.0467 357.824 20.692C357.245 20.3373 356.779 19.8707 356.424 19.292C356.069 18.7133 355.892 18.0693 355.892 17.36V-1.43051e-06H359.56V4.984H365.888V8.652H359.56V17.22C359.56 17.3133 359.588 17.3973 359.644 17.472C359.719 17.528 359.803 17.556 359.896 17.556H365.888V21.224H359.756ZM50.3231 61.224C49.6137 61.224 48.9697 61.0467 48.3911 60.692C47.8124 60.3373 47.3457 59.8707 46.9911 59.292C46.6364 58.7133 46.4591 58.0693 46.4591 57.36V40H50.1271V44.984H56.4551V48.652H50.1271V57.22C50.1271 57.3133 50.1551 57.3973 50.2111 57.472C50.2857 57.528 50.3697 57.556 50.4631 57.556H56.4551V61.224H50.3231ZM63.1044 61.224C62.3951 61.224 61.7511 61.0467 61.1724 60.692C60.5938 60.3373 60.1271 59.8707 59.7724 59.292C59.4178 58.7133 59.2404 58.0693 59.2404 57.36V48.848C59.2404 48.1387 59.4178 47.4947 59.7724 46.916C60.1271 46.3373 60.5938 45.8707 61.1724 45.516C61.7511 45.1613 62.3951 44.984 63.1044 44.984H71.8684C72.5778 44.984 73.2218 45.1613 73.8004 45.516C74.3978 45.8707 74.8644 46.3373 75.2004 46.916C75.5551 47.4947 75.7324 48.1387 75.7324 48.848V57.36C75.7324 58.0693 75.5551 58.7133 75.2004 59.292C74.8644 59.8707 74.4071 60.3373 73.8284 60.692C73.2498 61.0467 72.5964 61.224 71.8684 61.224H63.1044ZM63.2444 57.556H71.7284C71.8218 57.556 71.8964 57.528 71.9524 57.472C72.0271 57.3973 72.0644 57.3133 72.0644 57.22V48.988C72.0644 48.8947 72.0271 48.82 71.9524 48.764C71.8964 48.6893 71.8218 48.652 71.7284 48.652H63.2444C63.1511 48.652 63.0671 48.6893 62.9924 48.764C62.9364 48.82 62.9084 48.8947 62.9084 48.988V57.22C62.9084 57.3133 62.9364 57.3973 62.9924 57.472C63.0671 57.528 63.1511 57.556 63.2444 57.556ZM100.29 67.664V61.224H91.3017C90.5737 61.224 89.9204 61.0467 89.3417 60.692C88.7631 60.3373 88.2964 59.8707 87.9417 59.292C87.6057 58.7133 87.4377 58.0693 87.4377 57.36V48.848C87.4377 48.1387 87.6057 47.4947 87.9417 46.916C88.2964 46.3373 88.7631 45.8707 89.3417 45.516C89.9204 45.1613 90.5737 44.984 91.3017 44.984H103.958V67.664H100.29ZM91.4697 57.556H99.9537C100.047 57.556 100.122 57.528 100.178 57.472C100.252 57.3973 100.29 57.3133 100.29 57.22V48.988C100.29 48.8947 100.252 48.82 100.178 48.764C100.122 48.6893 100.047 48.652 99.9537 48.652H91.4697C91.3764 48.652 91.2924 48.6893 91.2177 48.764C91.1617 48.82 91.1337 48.8947 91.1337 48.988V57.22C91.1337 57.3133 91.1617 57.3973 91.2177 57.472C91.2924 57.528 91.3764 57.556 91.4697 57.556ZM110.833 61.224C110.123 61.224 109.47 61.0467 108.873 60.692C108.294 60.3373 107.827 59.8707 107.473 59.292C107.137 58.7133 106.969 58.0693 106.969 57.36V44.984H110.637V57.22C110.637 57.3133 110.665 57.3973 110.721 57.472C110.795 57.528 110.879 57.556 110.973 57.556H119.457C119.55 57.556 119.625 57.528 119.681 57.472C119.755 57.3973 119.793 57.3133 119.793 57.22V44.984H123.461V57.36C123.461 58.0693 123.283 58.7133 122.929 59.292C122.593 59.8707 122.135 60.3373 121.557 60.692C120.978 61.0467 120.325 61.224 119.597 61.224H110.833ZM126.969 61.224V44.984H130.637V61.224H126.969ZM126.969 43.36V39.664H130.637V43.36H126.969ZM138.011 61.224C137.302 61.224 136.658 61.0467 136.079 60.692C135.501 60.3373 135.034 59.8707 134.679 59.292C134.325 58.7133 134.147 58.0693 134.147 57.36V40H137.815V44.984H144.143V48.652H137.815V57.22C137.815 57.3133 137.843 57.3973 137.899 57.472C137.974 57.528 138.058 57.556 138.151 57.556H144.143V61.224H138.011ZM159.967 61.224C159.258 61.224 158.614 61.0467 158.035 60.692C157.456 60.3373 156.99 59.8707 156.635 59.292C156.28 58.7133 156.103 58.0693 156.103 57.36V40H159.771V44.984H166.099V48.652H159.771V57.22C159.771 57.3133 159.799 57.3973 159.855 57.472C159.93 57.528 160.014 57.556 160.107 57.556H166.099V61.224H159.967ZM169.406 61.224V39.664H173.074V44.984H182.034C182.743 44.984 183.387 45.1613 183.966 45.516C184.545 45.8707 185.011 46.3373 185.366 46.916C185.721 47.4947 185.898 48.1387 185.898 48.848V61.224H182.23V48.988C182.23 48.8947 182.193 48.82 182.118 48.764C182.062 48.6893 181.987 48.652 181.894 48.652H173.41C173.317 48.652 173.233 48.6893 173.158 48.764C173.102 48.82 173.074 48.8947 173.074 48.988V61.224H169.406ZM192.422 61.224C191.712 61.224 191.068 61.0467 190.49 60.692C189.911 60.3373 189.444 59.8707 189.09 59.292C188.735 58.7133 188.558 58.0693 188.558 57.36V48.848C188.558 48.1387 188.735 47.4947 189.09 46.916C189.444 46.3373 189.911 45.8707 190.49 45.516C191.068 45.1613 191.712 44.984 192.422 44.984H201.186C201.895 44.984 202.539 45.1613 203.118 45.516C203.715 45.8707 204.182 46.3373 204.518 46.916C204.872 47.4947 205.05 48.1387 205.05 48.848V54.952H192.226V57.22C192.226 57.3133 192.254 57.3973 192.31 57.472C192.384 57.528 192.468 57.556 192.562 57.556H205.05V61.224H192.422ZM192.226 51.648H201.382V48.988C201.382 48.8947 201.344 48.82 201.27 48.764C201.214 48.6893 201.139 48.652 201.046 48.652H192.562C192.468 48.652 192.384 48.6893 192.31 48.764C192.254 48.82 192.226 48.8947 192.226 48.988V51.648ZM220.059 67.636V63.94H229.831C229.924 63.94 229.999 63.9027 230.055 63.828C230.13 63.772 230.167 63.6973 230.167 63.604V61.224H221.207C220.516 61.224 219.872 61.0467 219.275 60.692C218.696 60.3373 218.23 59.8707 217.875 59.292C217.52 58.7133 217.343 58.0693 217.343 57.36V48.848C217.343 48.1387 217.52 47.4947 217.875 46.916C218.23 46.3373 218.696 45.8707 219.275 45.516C219.872 45.1613 220.516 44.984 221.207 44.984H229.999C230.708 44.984 231.352 45.1613 231.931 45.516C232.51 45.8707 232.967 46.3373 233.303 46.916C233.658 47.4947 233.835 48.1387 233.835 48.848V63.772C233.835 64.5 233.667 65.1533 233.331 65.732C232.995 66.3107 232.528 66.768 231.931 67.104C231.352 67.4587 230.708 67.636 229.999 67.636H220.059ZM221.347 57.556H229.831C229.924 57.556 229.999 57.528 230.055 57.472C230.13 57.3973 230.167 57.3133 230.167 57.22V48.988C230.167 48.8947 230.13 48.82 230.055 48.764C229.999 48.6893 229.924 48.652 229.831 48.652H221.347C221.254 48.652 221.17 48.6893 221.095 48.764C221.039 48.82 221.011 48.8947 221.011 48.988V57.22C221.011 57.3133 221.039 57.3973 221.095 57.472C221.17 57.528 221.254 57.556 221.347 57.556ZM240.587 61.224C239.877 61.224 239.224 61.0467 238.627 60.692C238.048 60.3373 237.581 59.8707 237.227 59.292C236.891 58.7133 236.723 58.0693 236.723 57.36V51.256H249.547V48.988C249.547 48.8947 249.509 48.82 249.435 48.764C249.379 48.6893 249.304 48.652 249.211 48.652H236.723V44.984H249.351C250.06 44.984 250.704 45.1613 251.283 45.516C251.88 45.8707 252.347 46.3373 252.683 46.916C253.037 47.4947 253.215 48.1387 253.215 48.848V61.224H240.587ZM240.727 57.556H249.547V54.56H240.391V57.22C240.391 57.3133 240.419 57.3973 240.475 57.472C240.549 57.528 240.633 57.556 240.727 57.556ZM256.069 61.224V44.984H276.201C276.929 44.984 277.583 45.1613 278.161 45.516C278.74 45.8707 279.197 46.3373 279.533 46.916C279.888 47.4947 280.065 48.1387 280.065 48.848V61.224H276.425V48.988C276.425 48.8947 276.388 48.82 276.313 48.764C276.239 48.6893 276.155 48.652 276.061 48.652H270.265C270.172 48.652 270.088 48.6893 270.013 48.764C269.957 48.82 269.929 48.8947 269.929 48.988V61.224H266.233V48.988C266.233 48.8947 266.196 48.82 266.121 48.764C266.065 48.6893 265.991 48.652 265.897 48.652H260.073C259.98 48.652 259.896 48.6893 259.821 48.764C259.765 48.82 259.737 48.8947 259.737 48.988V61.224H256.069ZM287.015 61.224C286.305 61.224 285.661 61.0467 285.083 60.692C284.504 60.3373 284.037 59.8707 283.683 59.292C283.328 58.7133 283.151 58.0693 283.151 57.36V48.848C283.151 48.1387 283.328 47.4947 283.683 46.916C284.037 46.3373 284.504 45.8707 285.083 45.516C285.661 45.1613 286.305 44.984 287.015 44.984H295.779C296.488 44.984 297.132 45.1613 297.711 45.516C298.308 45.8707 298.775 46.3373 299.111 46.916C299.465 47.4947 299.643 48.1387 299.643 48.848V54.952H286.819V57.22C286.819 57.3133 286.847 57.3973 286.903 57.472C286.977 57.528 287.061 57.556 287.155 57.556H299.643V61.224H287.015ZM286.819 51.648H295.975V48.988C295.975 48.8947 295.937 48.82 295.863 48.764C295.807 48.6893 295.732 48.652 295.639 48.652H287.155C287.061 48.652 286.977 48.6893 286.903 48.764C286.847 48.82 286.819 48.8947 286.819 48.988V51.648ZM305.477 55.736V53.86C305.477 53.1507 305.645 52.5067 305.981 51.928C306.336 51.3307 306.803 50.864 307.381 50.528C307.979 50.1733 308.623 49.996 309.313 49.996H316.089C316.183 49.996 316.257 49.968 316.313 49.912C316.388 49.8373 316.425 49.7533 316.425 49.66V45.096C316.425 45.0027 316.388 44.928 316.313 44.872C316.257 44.7973 316.183 44.76 316.089 44.76H302.537V41.064H316.229C316.92 41.064 317.555 41.2413 318.133 41.596C318.731 41.9507 319.207 42.4173 319.561 42.996C319.916 43.5747 320.093 44.2187 320.093 44.928V49.828C320.093 50.5373 319.916 51.1813 319.561 51.76C319.207 52.3387 318.731 52.8053 318.133 53.16C317.555 53.5147 316.92 53.692 316.229 53.692H309.509C309.416 53.692 309.332 53.7293 309.257 53.804C309.183 53.86 309.145 53.9347 309.145 54.028V55.736H305.477ZM305.477 61.224V57.556H309.145V61.224H305.477Z" fill="#294F60"/>
</svg>
