<svg width="1440" height="1024" viewBox="0 0 1440 1024" fill="none" xmlns="http://www.w3.org/2000/svg">
<rect width="1440" height="1024" fill="#294F60"/>
<path d="M261.296 416C257.989 416 254.931 415.173 252.12 413.52C249.309 411.867 247.077 409.635 245.424 406.824C243.771 404.013 242.944 400.955 242.944 397.648V345.072C242.944 341.683 243.771 338.624 245.424 335.896C247.077 333.085 249.309 330.853 252.12 329.2C254.931 327.547 257.989 326.72 261.296 326.72H313.748C317.137 326.72 320.196 327.547 322.924 329.2C325.735 330.853 327.967 333.085 329.62 335.896C331.356 338.624 332.224 341.683 332.224 345.072V353.504H312.756V346.064H262.164V396.656H312.756V383.264H293.412V363.92H332.224V397.648C332.224 400.955 331.356 404.013 329.62 406.824C327.967 409.635 325.735 411.867 322.924 413.52C320.196 415.173 317.137 416 313.748 416H261.296ZM354.802 416V345.072C354.802 341.683 355.628 338.624 357.282 335.896C358.935 333.085 361.167 330.853 363.978 329.2C366.788 327.547 369.847 326.72 373.154 326.72H425.606C428.995 326.72 432.054 327.547 434.782 329.2C437.592 330.853 439.824 333.085 441.478 335.896C443.214 338.624 444.082 341.683 444.082 345.072V416H424.614V387.232H374.022V416H354.802ZM374.022 367.888H424.614V346.064H374.022V367.888ZM466.89 416V326.72H486.73L516.986 362.804L547.118 326.72H567.082V416H547.738V356.108L516.986 392.812L486.11 356.232V416H466.89ZM590.857 416V326.72H673.317V346.064H610.325V361.688H661.041V381.032H610.325V396.656H673.317V416H590.857ZM760.971 416C757.665 416 754.606 415.173 751.795 413.52C748.985 411.867 746.753 409.635 745.099 406.824C743.446 404.013 742.619 400.955 742.619 397.648V345.072C742.619 341.683 743.446 338.624 745.099 335.896C746.753 333.085 748.985 330.853 751.795 329.2C754.606 327.547 757.665 326.72 760.971 326.72H813.547C816.854 326.72 819.871 327.547 822.599 329.2C825.41 330.853 827.642 333.085 829.295 335.896C831.031 338.624 831.899 341.683 831.899 345.072V397.648C831.899 400.955 831.031 404.013 829.295 406.824C827.642 409.635 825.41 411.867 822.599 413.52C819.871 415.173 816.854 416 813.547 416H760.971ZM761.839 396.656H812.431V346.064H761.839V396.656ZM898.98 416L847.272 326.72H869.592L907.04 391.572L944.488 326.72H966.684L914.976 416H898.98ZM983.167 416V326.72H1065.63V346.064H1002.63V361.688H1053.35V381.032H1002.63V396.656H1065.63V416H983.167ZM1155.85 416L1129.94 385.124H1155.11L1175.69 409.428V416H1155.85ZM1086.54 416V326.844H1157.34C1160.73 326.844 1163.79 327.671 1166.52 329.324C1169.33 330.977 1171.56 333.209 1173.21 336.02C1174.95 338.831 1175.82 341.889 1175.82 345.196V368.26C1175.82 371.567 1174.95 374.625 1173.21 377.436C1171.56 380.247 1169.33 382.479 1166.52 384.132C1163.79 385.785 1160.73 386.612 1157.34 386.612L1105.76 386.736V416H1086.54ZM1105.76 367.268H1156.35V346.064H1105.76V367.268Z" fill="#ED1B76"/>
<path d="M625.303 578V557.84H643.867V561.564H629.027V566.044H640.955V569.796H629.027V578H625.303ZM647.329 578V561.76H650.997V578H647.329ZM647.329 560.136V556.44H650.997V560.136H647.329ZM656.208 578V561.76H668.836C669.546 561.76 670.19 561.937 670.768 562.292C671.366 562.647 671.832 563.113 672.168 563.692C672.523 564.271 672.7 564.915 672.7 565.624V578H669.032V565.764C669.032 565.671 668.995 565.596 668.92 565.54C668.864 565.465 668.79 565.428 668.696 565.428H660.212C660.119 565.428 660.035 565.465 659.96 565.54C659.904 565.596 659.876 565.671 659.876 565.764V578H656.208ZM681.472 578C680.763 578 680.11 577.823 679.512 577.468C678.934 577.113 678.467 576.647 678.112 576.068C677.776 575.489 677.608 574.845 677.608 574.136V568.032H690.432V565.764C690.432 565.671 690.395 565.596 690.32 565.54C690.264 565.465 690.19 565.428 690.096 565.428H677.608V561.76H690.236C690.946 561.76 691.59 561.937 692.168 562.292C692.766 562.647 693.232 563.113 693.568 563.692C693.923 564.271 694.1 564.915 694.1 565.624V578H681.472ZM681.612 574.332H690.432V571.336H681.276V573.996C681.276 574.089 681.304 574.173 681.36 574.248C681.435 574.304 681.519 574.332 681.612 574.332ZM702.272 578C701.563 578 700.919 577.823 700.34 577.468C699.761 577.113 699.295 576.647 698.94 576.068C698.585 575.489 698.408 574.845 698.408 574.136V556.412H702.104V573.996C702.104 574.089 702.132 574.173 702.188 574.248C702.263 574.304 702.347 574.332 702.44 574.332H705.548V578H702.272ZM723.772 578C723.062 578 722.418 577.823 721.84 577.468C721.261 577.113 720.794 576.647 720.44 576.068C720.085 575.489 719.908 574.845 719.908 574.136V573.52H723.576V573.996C723.576 574.089 723.604 574.173 723.66 574.248C723.734 574.304 723.818 574.332 723.912 574.332H732.396C732.489 574.332 732.564 574.304 732.62 574.248C732.694 574.173 732.732 574.089 732.732 573.996V572.064C732.732 571.971 732.694 571.896 732.62 571.84C732.564 571.765 732.489 571.728 732.396 571.728H723.772C723.062 571.728 722.418 571.551 721.84 571.196C721.261 570.841 720.794 570.375 720.44 569.796C720.085 569.217 719.908 568.573 719.908 567.864V565.624C719.908 564.915 720.085 564.271 720.44 563.692C720.794 563.113 721.261 562.647 721.84 562.292C722.418 561.937 723.062 561.76 723.772 561.76H732.536C733.264 561.76 733.917 561.937 734.496 562.292C735.074 562.647 735.541 563.113 735.896 563.692C736.25 564.271 736.428 564.915 736.428 565.624V566.24H732.732V565.764C732.732 565.671 732.694 565.596 732.62 565.54C732.564 565.465 732.489 565.428 732.396 565.428H723.912C723.818 565.428 723.734 565.465 723.66 565.54C723.604 565.596 723.576 565.671 723.576 565.764V567.696C723.576 567.789 723.604 567.873 723.66 567.948C723.734 568.004 723.818 568.032 723.912 568.032H732.536C733.264 568.032 733.917 568.209 734.496 568.564C735.074 568.919 735.541 569.385 735.896 569.964C736.25 570.543 736.428 571.187 736.428 571.896V574.136C736.428 574.845 736.25 575.489 735.896 576.068C735.541 576.647 735.074 577.113 734.496 577.468C733.917 577.823 733.264 578 732.536 578H723.772ZM744.464 578C743.755 578 743.111 577.823 742.532 577.468C741.953 577.113 741.487 576.647 741.132 576.068C740.777 575.489 740.6 574.845 740.6 574.136V565.624C740.6 564.915 740.777 564.271 741.132 563.692C741.487 563.113 741.953 562.647 742.532 562.292C743.111 561.937 743.755 561.76 744.464 561.76H757.064V565.428H744.604C744.511 565.428 744.427 565.465 744.352 565.54C744.296 565.596 744.268 565.671 744.268 565.764V573.996C744.268 574.089 744.296 574.173 744.352 574.248C744.427 574.304 744.511 574.332 744.604 574.332H757.092V578H744.464ZM765.701 578C764.992 578 764.348 577.823 763.769 577.468C763.191 577.113 762.724 576.647 762.369 576.068C762.015 575.489 761.837 574.845 761.837 574.136V565.624C761.837 564.915 762.015 564.271 762.369 563.692C762.724 563.113 763.191 562.647 763.769 562.292C764.348 561.937 764.992 561.76 765.701 561.76H774.465C775.175 561.76 775.819 561.937 776.397 562.292C776.995 562.647 777.461 563.113 777.797 563.692C778.152 564.271 778.329 564.915 778.329 565.624V574.136C778.329 574.845 778.152 575.489 777.797 576.068C777.461 576.647 777.004 577.113 776.425 577.468C775.847 577.823 775.193 578 774.465 578H765.701ZM765.841 574.332H774.325C774.419 574.332 774.493 574.304 774.549 574.248C774.624 574.173 774.661 574.089 774.661 573.996V565.764C774.661 565.671 774.624 565.596 774.549 565.54C774.493 565.465 774.419 565.428 774.325 565.428H765.841C765.748 565.428 765.664 565.465 765.589 565.54C765.533 565.596 765.505 565.671 765.505 565.764V573.996C765.505 574.089 765.533 574.173 765.589 574.248C765.664 574.304 765.748 574.332 765.841 574.332ZM782.61 578V565.624C782.61 564.915 782.788 564.271 783.142 563.692C783.497 563.113 783.964 562.647 784.542 562.292C785.14 561.937 785.784 561.76 786.474 561.76H795.49V565.428H786.614C786.521 565.428 786.437 565.465 786.362 565.54C786.306 565.596 786.278 565.671 786.278 565.764V578H782.61ZM803.227 578C802.517 578 801.873 577.823 801.295 577.468C800.716 577.113 800.249 576.647 799.895 576.068C799.54 575.489 799.363 574.845 799.363 574.136V565.624C799.363 564.915 799.54 564.271 799.895 563.692C800.249 563.113 800.716 562.647 801.295 562.292C801.873 561.937 802.517 561.76 803.227 561.76H811.991C812.7 561.76 813.344 561.937 813.923 562.292C814.52 562.647 814.987 563.113 815.323 563.692C815.677 564.271 815.855 564.915 815.855 565.624V571.728H803.031V573.996C803.031 574.089 803.059 574.173 803.115 574.248C803.189 574.304 803.273 574.332 803.367 574.332H815.855V578H803.227ZM803.031 568.424H812.187V565.764C812.187 565.671 812.149 565.596 812.075 565.54C812.019 565.465 811.944 565.428 811.851 565.428H803.367C803.273 565.428 803.189 565.465 803.115 565.54C803.059 565.596 803.031 565.671 803.031 565.764V568.424Z" fill="white"/>
<rect x="609.5" y="604" width="222" height="66" rx="10" fill="white"/>
<path d="M628.75 653C627.856 653 627.091 652.687 626.455 652.06C625.818 651.433 625.5 650.68 625.5 649.8V646.64C625.5 646.107 625.622 645.613 625.866 645.16C626.109 644.707 626.434 644.32 626.841 644C628.709 642.507 630.111 641 631.045 639.48C631.98 637.96 632.636 636.6 633.016 635.4H630.375C629.915 635.4 629.529 635.247 629.217 634.94C628.906 634.633 628.75 634.253 628.75 633.8C628.75 633.347 628.906 632.967 629.217 632.66C629.529 632.353 629.915 632.2 630.375 632.2H632.406C632.027 631.613 631.729 630.987 631.513 630.32C631.296 629.653 631.188 628.947 631.188 628.2C631.188 626.2 631.898 624.5 633.32 623.1C634.742 621.7 636.469 621 638.5 621C640.531 621 642.258 621.7 643.68 623.1C645.102 624.5 645.812 626.2 645.812 628.2C645.812 628.947 645.704 629.653 645.488 630.32C645.271 630.987 644.973 631.613 644.594 632.2H646.625C647.085 632.2 647.471 632.353 647.783 632.66C648.094 632.967 648.25 633.347 648.25 633.8C648.25 634.253 648.094 634.633 647.783 634.94C647.471 635.247 647.085 635.4 646.625 635.4H643.984C644.364 636.6 645.02 637.96 645.955 639.48C646.889 641 648.291 642.507 650.159 644C650.566 644.32 650.891 644.707 651.134 645.16C651.378 645.613 651.5 646.107 651.5 646.64V649.8C651.5 650.68 651.182 651.433 650.545 652.06C649.909 652.687 649.144 653 648.25 653H628.75ZM628.75 649.8H648.25V646.6C645.758 644.68 643.957 642.7 642.847 640.66C641.736 638.62 640.992 636.867 640.613 635.4H636.388C636.008 636.867 635.264 638.62 634.153 640.66C633.043 642.7 631.242 644.68 628.75 646.6V649.8ZM638.5 632.2C639.637 632.2 640.599 631.813 641.384 631.04C642.17 630.267 642.562 629.32 642.562 628.2C642.562 627.08 642.17 626.133 641.384 625.36C640.599 624.587 639.637 624.2 638.5 624.2C637.363 624.2 636.401 624.587 635.616 625.36C634.83 626.133 634.438 627.08 634.438 628.2C634.438 629.32 634.83 630.267 635.616 631.04C636.401 631.813 637.363 632.2 638.5 632.2Z" fill="#EA6900"/>
<path d="M667.488 652C666.474 652 665.554 651.747 664.728 651.24C663.901 650.733 663.234 650.067 662.728 649.24C662.221 648.413 661.968 647.493 661.968 646.48V628.72C661.968 627.68 662.221 626.747 662.728 625.92C663.234 625.093 663.901 624.44 664.728 623.96C665.554 623.453 666.474 623.2 667.488 623.2H685.928V628.44H667.688C667.554 628.44 667.434 628.493 667.328 628.6C667.248 628.68 667.208 628.787 667.208 628.92V634.16C667.208 634.293 667.248 634.413 667.328 634.52C667.434 634.6 667.554 634.64 667.688 634.64H684.968C685.981 634.64 686.901 634.893 687.728 635.4C688.581 635.88 689.248 636.547 689.728 637.4C690.234 638.227 690.488 639.147 690.488 640.16V646.48C690.488 647.493 690.234 648.413 689.728 649.24C689.221 650.067 688.554 650.733 687.728 651.24C686.901 651.747 685.981 652 684.968 652H667.488ZM667.688 646.76H684.768C684.901 646.76 685.008 646.72 685.088 646.64C685.194 646.533 685.248 646.413 685.248 646.28V640.4C685.248 640.267 685.194 640.16 685.088 640.08C685.008 639.973 684.901 639.92 684.768 639.92H667.208V646.28C667.208 646.413 667.248 646.533 667.328 646.64C667.434 646.72 667.554 646.76 667.688 646.76Z" fill="#EA6900"/>
<path d="M735.75 653C734.856 653 734.091 652.687 733.455 652.06C732.818 651.433 732.5 650.68 732.5 649.8V646.64C732.5 646.107 732.622 645.613 732.866 645.16C733.109 644.707 733.434 644.32 733.841 644C735.709 642.507 737.111 641 738.045 639.48C738.98 637.96 739.636 636.6 740.016 635.4H737.375C736.915 635.4 736.529 635.247 736.217 634.94C735.906 634.633 735.75 634.253 735.75 633.8C735.75 633.347 735.906 632.967 736.217 632.66C736.529 632.353 736.915 632.2 737.375 632.2H739.406C739.027 631.613 738.729 630.987 738.513 630.32C738.296 629.653 738.188 628.947 738.188 628.2C738.188 626.2 738.898 624.5 740.32 623.1C741.742 621.7 743.469 621 745.5 621C747.531 621 749.258 621.7 750.68 623.1C752.102 624.5 752.812 626.2 752.812 628.2C752.812 628.947 752.704 629.653 752.488 630.32C752.271 630.987 751.973 631.613 751.594 632.2H753.625C754.085 632.2 754.471 632.353 754.783 632.66C755.094 632.967 755.25 633.347 755.25 633.8C755.25 634.253 755.094 634.633 754.783 634.94C754.471 635.247 754.085 635.4 753.625 635.4H750.984C751.364 636.6 752.02 637.96 752.955 639.48C753.889 641 755.291 642.507 757.159 644C757.566 644.32 757.891 644.707 758.134 645.16C758.378 645.613 758.5 646.107 758.5 646.64V649.8C758.5 650.68 758.182 651.433 757.545 652.06C756.909 652.687 756.144 653 755.25 653H735.75ZM735.75 649.8H755.25V646.6C752.758 644.68 750.957 642.7 749.847 640.66C748.736 638.62 747.992 636.867 747.613 635.4H743.388C743.008 636.867 742.264 638.62 741.153 640.66C740.043 642.7 738.242 644.68 735.75 646.6V649.8ZM745.5 632.2C746.637 632.2 747.599 631.813 748.384 631.04C749.17 630.267 749.562 629.32 749.562 628.2C749.562 627.08 749.17 626.133 748.384 625.36C747.599 624.587 746.637 624.2 745.5 624.2C744.363 624.2 743.401 624.587 742.616 625.36C741.83 626.133 741.438 627.08 741.438 628.2C741.438 629.32 741.83 630.267 742.616 631.04C743.401 631.813 744.363 632.2 745.5 632.2Z" fill="#097FC5"/>
<path d="M775.912 652V630.76L773.632 633.56H766.712L775.392 623.2H781.192V652H775.912ZM784.577 652V640.96C784.577 639.92 784.83 638.987 785.337 638.16C785.844 637.333 786.51 636.68 787.337 636.2C788.164 635.693 789.084 635.44 790.097 635.44H807.377C807.51 635.44 807.617 635.4 807.697 635.32C807.804 635.213 807.857 635.093 807.857 634.96V628.92C807.857 628.787 807.804 628.68 807.697 628.6C807.617 628.493 807.51 628.44 807.377 628.44H790.297C790.164 628.44 790.044 628.493 789.937 628.6C789.857 628.68 789.817 628.787 789.817 628.92V630.88H784.577V628.72C784.577 627.68 784.83 626.747 785.337 625.92C785.844 625.093 786.51 624.44 787.337 623.96C788.164 623.453 789.084 623.2 790.097 623.2H807.577C808.59 623.2 809.51 623.453 810.337 623.96C811.19 624.44 811.857 625.093 812.337 625.92C812.844 626.747 813.097 627.68 813.097 628.72V635.2C813.097 636.187 812.844 637.107 812.337 637.96C811.857 638.787 811.19 639.453 810.337 639.96C809.51 640.467 808.59 640.72 807.577 640.72H790.297C790.164 640.72 790.044 640.773 789.937 640.88C789.857 640.96 789.817 641.067 789.817 641.2V646.28C789.817 646.413 789.857 646.533 789.937 646.64C790.044 646.72 790.164 646.76 790.297 646.76H813.097V652H784.577Z" fill="#097FC5"/>
</svg>
