<svg width="481" height="254" viewBox="0 0 481 254" fill="none" xmlns="http://www.w3.org/2000/svg">
<rect width="481" height="254" rx="20" fill="#F0F6F9"/>
<path d="M57.6893 71V54.732C57.6893 54.0227 57.8666 53.3787 58.2213 52.8C58.576 52.2027 59.0426 51.7267 59.6213 51.372C60.2186 51.0173 60.872 50.84 61.5813 50.84H73.9293C74.6386 50.84 75.292 51.0173 75.8893 51.372C76.4866 51.7267 76.9626 52.2027 77.3173 52.8C77.672 53.3787 77.8493 54.0227 77.8493 54.732V71H74.1253V64.224H61.3853V71H57.6893ZM61.3853 60.528H74.1253V54.9C74.1253 54.8067 74.088 54.732 74.0133 54.676C73.9386 54.6013 73.8546 54.564 73.7613 54.564H61.7213C61.628 54.564 61.544 54.6013 61.4693 54.676C61.4133 54.732 61.3853 54.8067 61.3853 54.9V60.528ZM81.4876 71V58.624C81.4876 57.9147 81.6649 57.2707 82.0196 56.692C82.3742 56.1133 82.8409 55.6467 83.4196 55.292C84.0169 54.9373 84.6609 54.76 85.3516 54.76H94.3676V58.428H85.4916C85.3982 58.428 85.3142 58.4653 85.2396 58.54C85.1836 58.596 85.1556 58.6707 85.1556 58.764V71H81.4876ZM100.704 71C99.9945 71 99.3505 70.8227 98.7719 70.468C98.1932 70.1133 97.7265 69.6467 97.3719 69.068C97.0172 68.4893 96.8399 67.8453 96.8399 67.136V58.624C96.8399 57.9147 97.0172 57.2707 97.3719 56.692C97.7265 56.1133 98.1932 55.6467 98.7719 55.292C99.3505 54.9373 99.9945 54.76 100.704 54.76H109.468C110.177 54.76 110.821 54.9373 111.4 55.292C111.997 55.6467 112.464 56.1133 112.8 56.692C113.155 57.2707 113.332 57.9147 113.332 58.624V64.728H100.508V66.996C100.508 67.0893 100.536 67.1733 100.592 67.248C100.667 67.304 100.751 67.332 100.844 67.332H113.332V71H100.704ZM100.508 61.424H109.664V58.764C109.664 58.6707 109.627 58.596 109.552 58.54C109.496 58.4653 109.421 58.428 109.328 58.428H100.844C100.751 58.428 100.667 58.4653 100.592 58.54C100.536 58.596 100.508 58.6707 100.508 58.764V61.424ZM128.369 77.02V73.324H138.141C138.235 73.324 138.309 73.2867 138.365 73.212C138.44 73.156 138.477 73.0813 138.477 72.988V71H129.517C128.827 71 128.183 70.8227 127.585 70.468C127.007 70.1133 126.54 69.6467 126.185 69.068C125.831 68.4893 125.653 67.8453 125.653 67.136V54.816H129.321V66.996C129.321 67.0893 129.349 67.1733 129.405 67.248C129.48 67.304 129.564 67.332 129.657 67.332H138.141C138.235 67.332 138.309 67.304 138.365 67.248C138.44 67.1733 138.477 67.0893 138.477 66.996V54.816H142.145V73.156C142.145 73.8653 141.977 74.5093 141.641 75.088C141.305 75.6853 140.839 76.152 140.241 76.488C139.663 76.8427 139.019 77.02 138.309 77.02H128.369ZM148.814 71C148.104 71 147.46 70.8227 146.882 70.468C146.303 70.1133 145.836 69.6467 145.482 69.068C145.127 68.4893 144.95 67.8453 144.95 67.136V58.624C144.95 57.9147 145.127 57.2707 145.482 56.692C145.836 56.1133 146.303 55.6467 146.882 55.292C147.46 54.9373 148.104 54.76 148.814 54.76H157.578C158.287 54.76 158.931 54.9373 159.51 55.292C160.107 55.6467 160.574 56.1133 160.91 56.692C161.264 57.2707 161.442 57.9147 161.442 58.624V67.136C161.442 67.8453 161.264 68.4893 160.91 69.068C160.574 69.6467 160.116 70.1133 159.538 70.468C158.959 70.8227 158.306 71 157.578 71H148.814ZM148.954 67.332H157.438C157.531 67.332 157.606 67.304 157.662 67.248C157.736 67.1733 157.774 67.0893 157.774 66.996V58.764C157.774 58.6707 157.736 58.596 157.662 58.54C157.606 58.4653 157.531 58.428 157.438 58.428H148.954C148.86 58.428 148.776 58.4653 148.702 58.54C148.646 58.596 148.618 58.6707 148.618 58.764V66.996C148.618 67.0893 148.646 67.1733 148.702 67.248C148.776 67.304 148.86 67.332 148.954 67.332ZM168.078 71C167.369 71 166.715 70.8227 166.118 70.468C165.539 70.1133 165.073 69.6467 164.718 69.068C164.382 68.4893 164.214 67.8453 164.214 67.136V54.76H167.882V66.996C167.882 67.0893 167.91 67.1733 167.966 67.248C168.041 67.304 168.125 67.332 168.218 67.332H176.702C176.795 67.332 176.87 67.304 176.926 67.248C177.001 67.1733 177.038 67.0893 177.038 66.996V54.76H180.706V67.136C180.706 67.8453 180.529 68.4893 180.174 69.068C179.838 69.6467 179.381 70.1133 178.802 70.468C178.223 70.8227 177.57 71 176.842 71H168.078ZM197.085 71C196.376 71 195.732 70.8227 195.153 70.468C194.575 70.1133 194.108 69.6467 193.753 69.068C193.399 68.4893 193.221 67.8453 193.221 67.136V66.52H196.889V66.996C196.889 67.0893 196.917 67.1733 196.973 67.248C197.048 67.304 197.132 67.332 197.225 67.332H205.709C205.803 67.332 205.877 67.304 205.933 67.248C206.008 67.1733 206.045 67.0893 206.045 66.996V65.064C206.045 64.9707 206.008 64.896 205.933 64.84C205.877 64.7653 205.803 64.728 205.709 64.728H197.085C196.376 64.728 195.732 64.5507 195.153 64.196C194.575 63.8413 194.108 63.3747 193.753 62.796C193.399 62.2173 193.221 61.5733 193.221 60.864V58.624C193.221 57.9147 193.399 57.2707 193.753 56.692C194.108 56.1133 194.575 55.6467 195.153 55.292C195.732 54.9373 196.376 54.76 197.085 54.76H205.849C206.577 54.76 207.231 54.9373 207.809 55.292C208.388 55.6467 208.855 56.1133 209.209 56.692C209.564 57.2707 209.741 57.9147 209.741 58.624V59.24H206.045V58.764C206.045 58.6707 206.008 58.596 205.933 58.54C205.877 58.4653 205.803 58.428 205.709 58.428H197.225C197.132 58.428 197.048 58.4653 196.973 58.54C196.917 58.596 196.889 58.6707 196.889 58.764V60.696C196.889 60.7893 196.917 60.8733 196.973 60.948C197.048 61.004 197.132 61.032 197.225 61.032H205.849C206.577 61.032 207.231 61.2093 207.809 61.564C208.388 61.9187 208.855 62.3853 209.209 62.964C209.564 63.5427 209.741 64.1867 209.741 64.896V67.136C209.741 67.8453 209.564 68.4893 209.209 69.068C208.855 69.6467 208.388 70.1133 207.809 70.468C207.231 70.8227 206.577 71 205.849 71H197.085ZM216.188 71C215.478 71 214.825 70.8227 214.228 70.468C213.649 70.1133 213.182 69.6467 212.828 69.068C212.492 68.4893 212.324 67.8453 212.324 67.136V54.76H215.992V66.996C215.992 67.0893 216.02 67.1733 216.076 67.248C216.15 67.304 216.234 67.332 216.328 67.332H224.812C224.905 67.332 224.98 67.304 225.036 67.248C225.11 67.1733 225.148 67.0893 225.148 66.996V54.76H228.816V67.136C228.816 67.8453 228.638 68.4893 228.284 69.068C227.948 69.6467 227.49 70.1133 226.912 70.468C226.333 70.8227 225.68 71 224.952 71H216.188ZM232.324 71V58.624C232.324 57.9147 232.502 57.2707 232.856 56.692C233.211 56.1133 233.678 55.6467 234.256 55.292C234.854 54.9373 235.498 54.76 236.188 54.76H245.204V58.428H236.328C236.235 58.428 236.151 58.4653 236.076 58.54C236.02 58.596 235.992 58.6707 235.992 58.764V71H232.324ZM251.541 71C250.831 71 250.187 70.8227 249.609 70.468C249.03 70.1133 248.563 69.6467 248.209 69.068C247.854 68.4893 247.677 67.8453 247.677 67.136V58.624C247.677 57.9147 247.854 57.2707 248.209 56.692C248.563 56.1133 249.03 55.6467 249.609 55.292C250.187 54.9373 250.831 54.76 251.541 54.76H260.305C261.014 54.76 261.658 54.9373 262.237 55.292C262.834 55.6467 263.301 56.1133 263.637 56.692C263.991 57.2707 264.169 57.9147 264.169 58.624V64.728H251.345V66.996C251.345 67.0893 251.373 67.1733 251.429 67.248C251.503 67.304 251.587 67.332 251.681 67.332H264.169V71H251.541ZM251.345 61.424H260.501V58.764C260.501 58.6707 260.463 58.596 260.389 58.54C260.333 58.4653 260.258 58.428 260.165 58.428H251.681C251.587 58.428 251.503 58.4653 251.429 58.54C251.373 58.596 251.345 58.6707 251.345 58.764V61.424ZM279.206 77.02V73.324H288.978C289.071 73.324 289.146 73.2867 289.202 73.212C289.277 73.156 289.314 73.0813 289.314 72.988V71H280.354C279.663 71 279.019 70.8227 278.422 70.468C277.843 70.1133 277.377 69.6467 277.022 69.068C276.667 68.4893 276.49 67.8453 276.49 67.136V54.816H280.158V66.996C280.158 67.0893 280.186 67.1733 280.242 67.248C280.317 67.304 280.401 67.332 280.494 67.332H288.978C289.071 67.332 289.146 67.304 289.202 67.248C289.277 67.1733 289.314 67.0893 289.314 66.996V54.816H292.982V73.156C292.982 73.8653 292.814 74.5093 292.478 75.088C292.142 75.6853 291.675 76.152 291.078 76.488C290.499 76.8427 289.855 77.02 289.146 77.02H279.206ZM299.65 71C298.941 71 298.297 70.8227 297.718 70.468C297.14 70.1133 296.673 69.6467 296.318 69.068C295.964 68.4893 295.786 67.8453 295.786 67.136V58.624C295.786 57.9147 295.964 57.2707 296.318 56.692C296.673 56.1133 297.14 55.6467 297.718 55.292C298.297 54.9373 298.941 54.76 299.65 54.76H308.414C309.124 54.76 309.768 54.9373 310.346 55.292C310.944 55.6467 311.41 56.1133 311.746 56.692C312.101 57.2707 312.278 57.9147 312.278 58.624V67.136C312.278 67.8453 312.101 68.4893 311.746 69.068C311.41 69.6467 310.953 70.1133 310.374 70.468C309.796 70.8227 309.142 71 308.414 71H299.65ZM299.79 67.332H308.274C308.368 67.332 308.442 67.304 308.498 67.248C308.573 67.1733 308.61 67.0893 308.61 66.996V58.764C308.61 58.6707 308.573 58.596 308.498 58.54C308.442 58.4653 308.368 58.428 308.274 58.428H299.79C299.697 58.428 299.613 58.4653 299.538 58.54C299.482 58.596 299.454 58.6707 299.454 58.764V66.996C299.454 67.0893 299.482 67.1733 299.538 67.248C299.613 67.304 299.697 67.332 299.79 67.332ZM318.915 71C318.206 71 317.552 70.8227 316.955 70.468C316.376 70.1133 315.91 69.6467 315.555 69.068C315.219 68.4893 315.051 67.8453 315.051 67.136V54.76H318.719V66.996C318.719 67.0893 318.747 67.1733 318.803 67.248C318.878 67.304 318.962 67.332 319.055 67.332H327.539C327.632 67.332 327.707 67.304 327.763 67.248C327.838 67.1733 327.875 67.0893 327.875 66.996V54.76H331.543V67.136C331.543 67.8453 331.366 68.4893 331.011 69.068C330.675 69.6467 330.218 70.1133 329.639 70.468C329.06 70.8227 328.407 71 327.679 71H318.915ZM350.078 71L343.694 54.76H347.586L351.534 64.336L355.678 54.76H359.486L363.91 64.392L367.578 54.76H371.47L365.366 71H362.51L357.61 60.164L352.934 71H350.078ZM377.661 71C376.951 71 376.298 70.8227 375.701 70.468C375.122 70.1133 374.655 69.6467 374.301 69.068C373.965 68.4893 373.797 67.8453 373.797 67.136V61.032H386.621V58.764C386.621 58.6707 386.583 58.596 386.509 58.54C386.453 58.4653 386.378 58.428 386.285 58.428H373.797V54.76H386.425C387.134 54.76 387.778 54.9373 388.357 55.292C388.954 55.6467 389.421 56.1133 389.757 56.692C390.111 57.2707 390.289 57.9147 390.289 58.624V71H377.661ZM377.801 67.332H386.621V64.336H377.465V66.996C377.465 67.0893 377.493 67.1733 377.549 67.248C377.623 67.304 377.707 67.332 377.801 67.332ZM393.553 71V54.76H406.181C406.891 54.76 407.535 54.9373 408.113 55.292C408.711 55.6467 409.177 56.1133 409.513 56.692C409.868 57.2707 410.045 57.9147 410.045 58.624V71H406.377V58.764C406.377 58.6707 406.34 58.596 406.265 58.54C406.209 58.4653 406.135 58.428 406.041 58.428H397.557C397.464 58.428 397.38 58.4653 397.305 58.54C397.249 58.596 397.221 58.6707 397.221 58.764V71H393.553ZM417.445 71C416.736 71 416.092 70.8227 415.513 70.468C414.935 70.1133 414.468 69.6467 414.113 69.068C413.759 68.4893 413.581 67.8453 413.581 67.136V49.776H417.249V54.76H423.577V58.428H417.249V66.996C417.249 67.0893 417.277 67.1733 417.333 67.248C417.408 67.304 417.492 67.332 417.585 67.332H423.577V71H417.445ZM108.013 111C107.303 111 106.659 110.823 106.081 110.468C105.502 110.113 105.035 109.647 104.681 109.068C104.326 108.489 104.149 107.845 104.149 107.136V89.776H107.817V94.76H114.145V98.428H107.817V106.996C107.817 107.089 107.845 107.173 107.901 107.248C107.975 107.304 108.059 107.332 108.153 107.332H114.145V111H108.013ZM120.794 111C120.085 111 119.441 110.823 118.862 110.468C118.283 110.113 117.817 109.647 117.462 109.068C117.107 108.489 116.93 107.845 116.93 107.136V98.624C116.93 97.9147 117.107 97.2707 117.462 96.692C117.817 96.1133 118.283 95.6467 118.862 95.292C119.441 94.9373 120.085 94.76 120.794 94.76H129.558C130.267 94.76 130.911 94.9373 131.49 95.292C132.087 95.6467 132.554 96.1133 132.89 96.692C133.245 97.2707 133.422 97.9147 133.422 98.624V107.136C133.422 107.845 133.245 108.489 132.89 109.068C132.554 109.647 132.097 110.113 131.518 110.468C130.939 110.823 130.286 111 129.558 111H120.794ZM120.934 107.332H129.418C129.511 107.332 129.586 107.304 129.642 107.248C129.717 107.173 129.754 107.089 129.754 106.996V98.764C129.754 98.6707 129.717 98.596 129.642 98.54C129.586 98.4653 129.511 98.428 129.418 98.428H120.934C120.841 98.428 120.757 98.4653 120.682 98.54C120.626 98.596 120.598 98.6707 120.598 98.764V106.996C120.598 107.089 120.626 107.173 120.682 107.248C120.757 107.304 120.841 107.332 120.934 107.332ZM157.979 117.44V111H148.991C148.263 111 147.61 110.823 147.031 110.468C146.453 110.113 145.986 109.647 145.631 109.068C145.295 108.489 145.127 107.845 145.127 107.136V98.624C145.127 97.9147 145.295 97.2707 145.631 96.692C145.986 96.1133 146.453 95.6467 147.031 95.292C147.61 94.9373 148.263 94.76 148.991 94.76H161.647V117.44H157.979ZM149.159 107.332H157.643C157.737 107.332 157.811 107.304 157.867 107.248C157.942 107.173 157.979 107.089 157.979 106.996V98.764C157.979 98.6707 157.942 98.596 157.867 98.54C157.811 98.4653 157.737 98.428 157.643 98.428H149.159C149.066 98.428 148.982 98.4653 148.907 98.54C148.851 98.596 148.823 98.6707 148.823 98.764V106.996C148.823 107.089 148.851 107.173 148.907 107.248C148.982 107.304 149.066 107.332 149.159 107.332ZM168.522 111C167.813 111 167.159 110.823 166.562 110.468C165.983 110.113 165.517 109.647 165.162 109.068C164.826 108.489 164.658 107.845 164.658 107.136V94.76H168.326V106.996C168.326 107.089 168.354 107.173 168.41 107.248C168.485 107.304 168.569 107.332 168.662 107.332H177.146C177.239 107.332 177.314 107.304 177.37 107.248C177.445 107.173 177.482 107.089 177.482 106.996V94.76H181.15V107.136C181.15 107.845 180.973 108.489 180.618 109.068C180.282 109.647 179.825 110.113 179.246 110.468C178.667 110.823 178.014 111 177.286 111H168.522ZM184.659 111V94.76H188.327V111H184.659ZM184.659 93.136V89.44H188.327V93.136H184.659ZM195.701 111C194.991 111 194.347 110.823 193.769 110.468C193.19 110.113 192.723 109.647 192.369 109.068C192.014 108.489 191.837 107.845 191.837 107.136V89.776H195.505V94.76H201.833V98.428H195.505V106.996C195.505 107.089 195.533 107.173 195.589 107.248C195.663 107.304 195.747 107.332 195.841 107.332H201.833V111H195.701ZM217.657 111C216.947 111 216.303 110.823 215.725 110.468C215.146 110.113 214.679 109.647 214.325 109.068C213.97 108.489 213.793 107.845 213.793 107.136V89.776H217.461V94.76H223.789V98.428H217.461V106.996C217.461 107.089 217.489 107.173 217.545 107.248C217.619 107.304 217.703 107.332 217.797 107.332H223.789V111H217.657ZM227.095 111V89.44H230.763V94.76H239.723C240.433 94.76 241.077 94.9373 241.655 95.292C242.234 95.6467 242.701 96.1133 243.055 96.692C243.41 97.2707 243.587 97.9147 243.587 98.624V111H239.919V98.764C239.919 98.6707 239.882 98.596 239.807 98.54C239.751 98.4653 239.677 98.428 239.583 98.428H231.099C231.006 98.428 230.922 98.4653 230.847 98.54C230.791 98.596 230.763 98.6707 230.763 98.764V111H227.095ZM250.111 111C249.402 111 248.758 110.823 248.179 110.468C247.601 110.113 247.134 109.647 246.779 109.068C246.425 108.489 246.247 107.845 246.247 107.136V98.624C246.247 97.9147 246.425 97.2707 246.779 96.692C247.134 96.1133 247.601 95.6467 248.179 95.292C248.758 94.9373 249.402 94.76 250.111 94.76H258.875C259.585 94.76 260.229 94.9373 260.807 95.292C261.405 95.6467 261.871 96.1133 262.207 96.692C262.562 97.2707 262.739 97.9147 262.739 98.624V104.728H249.915V106.996C249.915 107.089 249.943 107.173 249.999 107.248C250.074 107.304 250.158 107.332 250.251 107.332H262.739V111H250.111ZM249.915 101.424H259.071V98.764C259.071 98.6707 259.034 98.596 258.959 98.54C258.903 98.4653 258.829 98.428 258.735 98.428H250.251C250.158 98.428 250.074 98.4653 249.999 98.54C249.943 98.596 249.915 98.6707 249.915 98.764V101.424ZM277.749 117.412V113.716H287.521C287.614 113.716 287.689 113.679 287.745 113.604C287.819 113.548 287.857 113.473 287.857 113.38V111H278.897C278.206 111 277.562 110.823 276.965 110.468C276.386 110.113 275.919 109.647 275.565 109.068C275.21 108.489 275.033 107.845 275.033 107.136V98.624C275.033 97.9147 275.21 97.2707 275.565 96.692C275.919 96.1133 276.386 95.6467 276.965 95.292C277.562 94.9373 278.206 94.76 278.897 94.76H287.689C288.398 94.76 289.042 94.9373 289.621 95.292C290.199 95.6467 290.657 96.1133 290.993 96.692C291.347 97.2707 291.525 97.9147 291.525 98.624V113.548C291.525 114.276 291.357 114.929 291.021 115.508C290.685 116.087 290.218 116.544 289.621 116.88C289.042 117.235 288.398 117.412 287.689 117.412H277.749ZM279.037 107.332H287.521C287.614 107.332 287.689 107.304 287.745 107.248C287.819 107.173 287.857 107.089 287.857 106.996V98.764C287.857 98.6707 287.819 98.596 287.745 98.54C287.689 98.4653 287.614 98.428 287.521 98.428H279.037C278.943 98.428 278.859 98.4653 278.785 98.54C278.729 98.596 278.701 98.6707 278.701 98.764V106.996C278.701 107.089 278.729 107.173 278.785 107.248C278.859 107.304 278.943 107.332 279.037 107.332ZM298.276 111C297.567 111 296.914 110.823 296.316 110.468C295.738 110.113 295.271 109.647 294.916 109.068C294.58 108.489 294.412 107.845 294.412 107.136V101.032H307.236V98.764C307.236 98.6707 307.199 98.596 307.124 98.54C307.068 98.4653 306.994 98.428 306.9 98.428H294.412V94.76H307.04C307.75 94.76 308.394 94.9373 308.972 95.292C309.57 95.6467 310.036 96.1133 310.372 96.692C310.727 97.2707 310.904 97.9147 310.904 98.624V111H298.276ZM298.416 107.332H307.236V104.336H298.08V106.996C298.08 107.089 298.108 107.173 298.164 107.248C298.239 107.304 298.323 107.332 298.416 107.332ZM313.759 111V94.76H333.891C334.619 94.76 335.272 94.9373 335.851 95.292C336.429 95.6467 336.887 96.1133 337.223 96.692C337.577 97.2707 337.755 97.9147 337.755 98.624V111H334.115V98.764C334.115 98.6707 334.077 98.596 334.003 98.54C333.928 98.4653 333.844 98.428 333.751 98.428H327.955C327.861 98.428 327.777 98.4653 327.703 98.54C327.647 98.596 327.619 98.6707 327.619 98.764V111H323.923V98.764C323.923 98.6707 323.885 98.596 323.811 98.54C323.755 98.4653 323.68 98.428 323.587 98.428H317.763C317.669 98.428 317.585 98.4653 317.511 98.54C317.455 98.596 317.427 98.6707 317.427 98.764V111H313.759ZM344.704 111C343.995 111 343.351 110.823 342.772 110.468C342.194 110.113 341.727 109.647 341.372 109.068C341.018 108.489 340.84 107.845 340.84 107.136V98.624C340.84 97.9147 341.018 97.2707 341.372 96.692C341.727 96.1133 342.194 95.6467 342.772 95.292C343.351 94.9373 343.995 94.76 344.704 94.76H353.468C354.178 94.76 354.822 94.9373 355.4 95.292C355.998 95.6467 356.464 96.1133 356.8 96.692C357.155 97.2707 357.332 97.9147 357.332 98.624V104.728H344.508V106.996C344.508 107.089 344.536 107.173 344.592 107.248C344.667 107.304 344.751 107.332 344.844 107.332H357.332V111H344.704ZM344.508 101.424H353.664V98.764C353.664 98.6707 353.627 98.596 353.552 98.54C353.496 98.4653 353.422 98.428 353.328 98.428H344.844C344.751 98.428 344.667 98.4653 344.592 98.54C344.536 98.596 344.508 98.6707 344.508 98.764V101.424ZM363.167 105.512V103.636C363.167 102.927 363.335 102.283 363.671 101.704C364.026 101.107 364.492 100.64 365.071 100.304C365.668 99.9493 366.312 99.772 367.003 99.772H373.779C373.872 99.772 373.947 99.744 374.003 99.688C374.078 99.6133 374.115 99.5293 374.115 99.436V94.872C374.115 94.7787 374.078 94.704 374.003 94.648C373.947 94.5733 373.872 94.536 373.779 94.536H360.227V90.84H373.919C374.61 90.84 375.244 91.0173 375.823 91.372C376.42 91.7267 376.896 92.1933 377.251 92.772C377.606 93.3507 377.783 93.9947 377.783 94.704V99.604C377.783 100.313 377.606 100.957 377.251 101.536C376.896 102.115 376.42 102.581 375.823 102.936C375.244 103.291 374.61 103.468 373.919 103.468H367.199C367.106 103.468 367.022 103.505 366.947 103.58C366.872 103.636 366.835 103.711 366.835 103.804V105.512H363.167ZM363.167 111V107.332H366.835V111H363.167Z" fill="#294F60"/>
<rect x="40.5" y="170.5" width="200" height="43" rx="9.5" fill="#ED1B76"/>
<rect x="40.5" y="170.5" width="200" height="43" rx="9.5" stroke="#E71C4F"/>
<path d="M60.896 198V186.48H63.216L70.288 194.896V186.48H72.416V198H70.096L63.008 189.568V198H60.896ZM76.9765 198C76.5712 198 76.2032 197.899 75.8725 197.696C75.5418 197.493 75.2752 197.227 75.0725 196.896C74.8698 196.565 74.7685 196.197 74.7685 195.792V190.928C74.7685 190.523 74.8698 190.155 75.0725 189.824C75.2752 189.493 75.5418 189.227 75.8725 189.024C76.2032 188.821 76.5712 188.72 76.9765 188.72H81.9845C82.3898 188.72 82.7578 188.821 83.0885 189.024C83.4298 189.227 83.6965 189.493 83.8885 189.824C84.0912 190.155 84.1925 190.523 84.1925 190.928V195.792C84.1925 196.197 84.0912 196.565 83.8885 196.896C83.6965 197.227 83.4352 197.493 83.1045 197.696C82.7738 197.899 82.4005 198 81.9845 198H76.9765ZM77.0565 195.904H81.9045C81.9578 195.904 82.0005 195.888 82.0325 195.856C82.0752 195.813 82.0965 195.765 82.0965 195.712V191.008C82.0965 190.955 82.0752 190.912 82.0325 190.88C82.0005 190.837 81.9578 190.816 81.9045 190.816H77.0565C77.0032 190.816 76.9552 190.837 76.9125 190.88C76.8805 190.912 76.8645 190.955 76.8645 191.008V195.712C76.8645 195.765 76.8805 195.813 76.9125 195.856C76.9552 195.888 77.0032 195.904 77.0565 195.904ZM86.5346 200.112V196.032H88.6306V197.904C88.6306 198.256 88.54 198.581 88.3586 198.88C88.1773 199.189 87.9266 199.451 87.6066 199.664C87.2866 199.888 86.9293 200.037 86.5346 200.112ZM96.3303 198V185.68H98.4263V188.72H103.546C103.952 188.72 104.32 188.821 104.65 189.024C104.992 189.227 105.258 189.493 105.45 189.824C105.653 190.155 105.754 190.523 105.754 190.928V195.792C105.754 196.197 105.653 196.565 105.45 196.896C105.258 197.227 104.992 197.493 104.65 197.696C104.32 197.899 103.952 198 103.546 198H96.3303ZM98.6183 195.904H103.466C103.52 195.904 103.562 195.888 103.594 195.856C103.637 195.813 103.658 195.765 103.658 195.712V191.008C103.658 190.955 103.637 190.912 103.594 190.88C103.562 190.837 103.52 190.816 103.466 190.816H98.6183C98.5649 190.816 98.5169 190.837 98.4743 190.88C98.4423 190.912 98.4263 190.955 98.4263 191.008V195.712C98.4263 195.765 98.4423 195.813 98.4743 195.856C98.5169 195.888 98.5649 195.904 98.6183 195.904ZM109.709 198C109.303 198 108.93 197.899 108.589 197.696C108.258 197.493 107.991 197.227 107.789 196.896C107.597 196.565 107.501 196.197 107.501 195.792V192.304H114.829V191.008C114.829 190.955 114.807 190.912 114.765 190.88C114.733 190.837 114.69 190.816 114.637 190.816H107.501V188.72H114.717C115.122 188.72 115.49 188.821 115.821 189.024C116.162 189.227 116.429 189.493 116.621 189.824C116.823 190.155 116.925 190.523 116.925 190.928V198H109.709ZM109.789 195.904H114.829V194.192H109.597V195.712C109.597 195.765 109.613 195.813 109.645 195.856C109.687 195.888 109.735 195.904 109.789 195.904ZM121.005 198C120.599 198 120.231 197.899 119.901 197.696C119.57 197.493 119.303 197.227 119.101 196.896C118.898 196.565 118.797 196.197 118.797 195.792V190.928C118.797 190.523 118.898 190.155 119.101 189.824C119.303 189.493 119.57 189.227 119.901 189.024C120.231 188.821 120.599 188.72 121.005 188.72H128.205V190.816H121.085C121.031 190.816 120.983 190.837 120.941 190.88C120.909 190.912 120.893 190.955 120.893 191.008V195.712C120.893 195.765 120.909 195.813 120.941 195.856C120.983 195.888 121.031 195.904 121.085 195.904H128.221V198H121.005ZM130.203 198V185.68H132.299V192.304H133.947L137.259 188.72H139.499V189.296L135.803 193.36L139.483 197.424V198H137.259L133.947 194.416H132.299V198H130.203ZM148.91 198C148.504 198 148.136 197.899 147.806 197.696C147.475 197.493 147.208 197.227 147.006 196.896C146.803 196.565 146.702 196.197 146.702 195.792V185.872H148.798V188.72H152.414V190.816H148.798V195.712C148.798 195.765 148.814 195.813 148.846 195.856C148.888 195.888 148.936 195.904 148.99 195.904H152.414V198H148.91ZM156.533 198C156.128 198 155.76 197.899 155.429 197.696C155.099 197.493 154.832 197.227 154.629 196.896C154.427 196.565 154.325 196.197 154.325 195.792V190.928C154.325 190.523 154.427 190.155 154.629 189.824C154.832 189.493 155.099 189.227 155.429 189.024C155.76 188.821 156.128 188.72 156.533 188.72H161.541C161.947 188.72 162.315 188.821 162.645 189.024C162.987 189.227 163.253 189.493 163.445 189.824C163.648 190.155 163.749 190.523 163.749 190.928V195.792C163.749 196.197 163.648 196.565 163.445 196.896C163.253 197.227 162.992 197.493 162.661 197.696C162.331 197.899 161.957 198 161.541 198H156.533ZM156.613 195.904H161.461C161.515 195.904 161.557 195.888 161.589 195.856C161.632 195.813 161.653 195.765 161.653 195.712V191.008C161.653 190.955 161.632 190.912 161.589 190.88C161.557 190.837 161.515 190.816 161.461 190.816H156.613C156.56 190.816 156.512 190.837 156.469 190.88C156.437 190.912 156.421 190.955 156.421 191.008V195.712C156.421 195.765 156.437 195.813 156.469 195.856C156.512 195.888 156.56 195.904 156.613 195.904ZM172.966 201.664V199.552H178.55C178.603 199.552 178.646 199.531 178.678 199.488C178.721 199.456 178.742 199.413 178.742 199.36V198H173.622C173.227 198 172.859 197.899 172.518 197.696C172.187 197.493 171.921 197.227 171.718 196.896C171.515 196.565 171.414 196.197 171.414 195.792V190.928C171.414 190.523 171.515 190.155 171.718 189.824C171.921 189.493 172.187 189.227 172.518 189.024C172.859 188.821 173.227 188.72 173.622 188.72H178.646C179.051 188.72 179.419 188.821 179.75 189.024C180.081 189.227 180.342 189.493 180.534 189.824C180.737 190.155 180.838 190.523 180.838 190.928V199.456C180.838 199.872 180.742 200.245 180.55 200.576C180.358 200.907 180.091 201.168 179.75 201.36C179.419 201.563 179.051 201.664 178.646 201.664H172.966ZM173.702 195.904H178.55C178.603 195.904 178.646 195.888 178.678 195.856C178.721 195.813 178.742 195.765 178.742 195.712V191.008C178.742 190.955 178.721 190.912 178.678 190.88C178.646 190.837 178.603 190.816 178.55 190.816H173.702C173.649 190.816 173.601 190.837 173.558 190.88C173.526 190.912 173.51 190.955 173.51 191.008V195.712C173.51 195.765 173.526 195.813 173.558 195.856C173.601 195.888 173.649 195.904 173.702 195.904ZM185.016 198C184.611 198 184.238 197.899 183.896 197.696C183.566 197.493 183.299 197.227 183.096 196.896C182.904 196.565 182.808 196.197 182.808 195.792V192.304H190.136V191.008C190.136 190.955 190.115 190.912 190.072 190.88C190.04 190.837 189.998 190.816 189.944 190.816H182.808V188.72H190.024C190.43 188.72 190.798 188.821 191.128 189.024C191.47 189.227 191.736 189.493 191.928 189.824C192.131 190.155 192.232 190.523 192.232 190.928V198H185.016ZM185.096 195.904H190.136V194.192H184.904V195.712C184.904 195.765 184.92 195.813 184.952 195.856C184.995 195.888 185.043 195.904 185.096 195.904ZM194.183 198V188.72H205.687C206.103 188.72 206.477 188.821 206.807 189.024C207.138 189.227 207.399 189.493 207.591 189.824C207.794 190.155 207.895 190.523 207.895 190.928V198H205.815V191.008C205.815 190.955 205.794 190.912 205.751 190.88C205.709 190.837 205.661 190.816 205.607 190.816H202.295C202.242 190.816 202.194 190.837 202.151 190.88C202.119 190.912 202.103 190.955 202.103 191.008V198H199.991V191.008C199.991 190.955 199.97 190.912 199.927 190.88C199.895 190.837 199.853 190.816 199.799 190.816H196.471C196.418 190.816 196.37 190.837 196.327 190.88C196.295 190.912 196.279 190.955 196.279 191.008V198H194.183ZM212.187 198C211.781 198 211.413 197.899 211.083 197.696C210.752 197.493 210.485 197.227 210.283 196.896C210.08 196.565 209.979 196.197 209.979 195.792V190.928C209.979 190.523 210.08 190.155 210.283 189.824C210.485 189.493 210.752 189.227 211.083 189.024C211.413 188.821 211.781 188.72 212.187 188.72H217.195C217.6 188.72 217.968 188.821 218.299 189.024C218.64 189.227 218.907 189.493 219.099 189.824C219.301 190.155 219.403 190.523 219.403 190.928V194.416H212.075V195.712C212.075 195.765 212.091 195.813 212.123 195.856C212.165 195.888 212.213 195.904 212.267 195.904H219.403V198H212.187ZM212.075 192.528H217.307V191.008C217.307 190.955 217.285 190.912 217.243 190.88C217.211 190.837 217.168 190.816 217.115 190.816H212.267C212.213 190.816 212.165 190.837 212.123 190.88C212.091 190.912 212.075 190.955 212.075 191.008V192.528Z" fill="white"/>
<rect x="266" y="171" width="174" height="42" rx="9" fill="#ED1B76" fill-opacity="0.08"/>
<rect x="266" y="171" width="174" height="42" rx="9" stroke="#E71C4F" stroke-width="2"/>
<path d="M290.376 198V193.68L285.064 186.48H287.56L291.448 191.36L295.288 186.48H297.832L292.504 193.696V198H290.376ZM300.398 198C299.993 198 299.625 197.899 299.294 197.696C298.964 197.493 298.697 197.227 298.494 196.896C298.292 196.565 298.19 196.197 298.19 195.792V190.928C298.19 190.523 298.292 190.155 298.494 189.824C298.697 189.493 298.964 189.227 299.294 189.024C299.625 188.821 299.993 188.72 300.398 188.72H305.406C305.812 188.72 306.18 188.821 306.51 189.024C306.852 189.227 307.118 189.493 307.31 189.824C307.513 190.155 307.614 190.523 307.614 190.928V194.416H300.286V195.712C300.286 195.765 300.302 195.813 300.334 195.856C300.377 195.888 300.425 195.904 300.478 195.904H307.614V198H300.398ZM300.286 192.528H305.518V191.008C305.518 190.955 305.497 190.912 305.454 190.88C305.422 190.837 305.38 190.816 305.326 190.816H300.478C300.425 190.816 300.377 190.837 300.334 190.88C300.302 190.912 300.286 190.955 300.286 191.008V192.528ZM311.959 198C311.554 198 311.186 197.899 310.855 197.696C310.524 197.493 310.258 197.227 310.055 196.896C309.852 196.565 309.751 196.197 309.751 195.792V195.44H311.847V195.712C311.847 195.765 311.863 195.813 311.895 195.856C311.938 195.888 311.986 195.904 312.039 195.904H316.887C316.94 195.904 316.983 195.888 317.015 195.856C317.058 195.813 317.079 195.765 317.079 195.712V194.608C317.079 194.555 317.058 194.512 317.015 194.48C316.983 194.437 316.94 194.416 316.887 194.416H311.959C311.554 194.416 311.186 194.315 310.855 194.112C310.524 193.909 310.258 193.643 310.055 193.312C309.852 192.981 309.751 192.613 309.751 192.208V190.928C309.751 190.523 309.852 190.155 310.055 189.824C310.258 189.493 310.524 189.227 310.855 189.024C311.186 188.821 311.554 188.72 311.959 188.72H316.967C317.383 188.72 317.756 188.821 318.087 189.024C318.418 189.227 318.684 189.493 318.887 189.824C319.09 190.155 319.191 190.523 319.191 190.928V191.28H317.079V191.008C317.079 190.955 317.058 190.912 317.015 190.88C316.983 190.837 316.94 190.816 316.887 190.816H312.039C311.986 190.816 311.938 190.837 311.895 190.88C311.863 190.912 311.847 190.955 311.847 191.008V192.112C311.847 192.165 311.863 192.213 311.895 192.256C311.938 192.288 311.986 192.304 312.039 192.304H316.967C317.383 192.304 317.756 192.405 318.087 192.608C318.418 192.811 318.684 193.077 318.887 193.408C319.09 193.739 319.191 194.107 319.191 194.512V195.792C319.191 196.197 319.09 196.565 318.887 196.896C318.684 197.227 318.418 197.493 318.087 197.696C317.756 197.899 317.383 198 316.967 198H311.959ZM321.456 200.112V196.032H323.552V197.904C323.552 198.256 323.461 198.581 323.28 198.88C323.099 199.189 322.848 199.451 322.528 199.664C322.208 199.888 321.851 200.037 321.456 200.112ZM338.052 201.68V198H332.916C332.5 198 332.126 197.899 331.796 197.696C331.465 197.493 331.198 197.227 330.996 196.896C330.804 196.565 330.708 196.197 330.708 195.792V190.928C330.708 190.523 330.804 190.155 330.996 189.824C331.198 189.493 331.465 189.227 331.796 189.024C332.126 188.821 332.5 188.72 332.916 188.72H340.148V201.68H338.052ZM333.012 195.904H337.86C337.913 195.904 337.956 195.888 337.988 195.856C338.03 195.813 338.052 195.765 338.052 195.712V191.008C338.052 190.955 338.03 190.912 337.988 190.88C337.956 190.837 337.913 190.816 337.86 190.816H333.012C332.958 190.816 332.91 190.837 332.868 190.88C332.836 190.912 332.82 190.955 332.82 191.008V195.712C332.82 195.765 332.836 195.813 332.868 195.856C332.91 195.888 332.958 195.904 333.012 195.904ZM344.396 198C343.991 198 343.617 197.899 343.276 197.696C342.945 197.493 342.679 197.227 342.476 196.896C342.284 196.565 342.188 196.197 342.188 195.792V188.72H344.284V195.712C344.284 195.765 344.3 195.813 344.332 195.856C344.375 195.888 344.423 195.904 344.476 195.904H349.324C349.377 195.904 349.42 195.888 349.452 195.856C349.495 195.813 349.516 195.765 349.516 195.712V188.72H351.612V195.792C351.612 196.197 351.511 196.565 351.308 196.896C351.116 197.227 350.855 197.493 350.524 197.696C350.193 197.899 349.82 198 349.404 198H344.396ZM353.937 198V188.72H356.033V198H353.937ZM353.937 187.792V185.68H356.033V187.792H353.937ZM360.567 198C360.161 198 359.793 197.899 359.463 197.696C359.132 197.493 358.865 197.227 358.663 196.896C358.46 196.565 358.359 196.197 358.359 195.792V185.872H360.455V188.72H364.071V190.816H360.455V195.712C360.455 195.765 360.471 195.813 360.503 195.856C360.545 195.888 360.593 195.904 360.647 195.904H364.071V198H360.567ZM372.905 201.664V199.552H378.489C378.542 199.552 378.585 199.531 378.617 199.488C378.66 199.456 378.681 199.413 378.681 199.36V198H373.561C373.166 198 372.798 197.899 372.457 197.696C372.126 197.493 371.86 197.227 371.657 196.896C371.454 196.565 371.353 196.197 371.353 195.792V190.928C371.353 190.523 371.454 190.155 371.657 189.824C371.86 189.493 372.126 189.227 372.457 189.024C372.798 188.821 373.166 188.72 373.561 188.72H378.585C378.99 188.72 379.358 188.821 379.689 189.024C380.02 189.227 380.281 189.493 380.473 189.824C380.676 190.155 380.777 190.523 380.777 190.928V199.456C380.777 199.872 380.681 200.245 380.489 200.576C380.297 200.907 380.03 201.168 379.689 201.36C379.358 201.563 378.99 201.664 378.585 201.664H372.905ZM373.641 195.904H378.489C378.542 195.904 378.585 195.888 378.617 195.856C378.66 195.813 378.681 195.765 378.681 195.712V191.008C378.681 190.955 378.66 190.912 378.617 190.88C378.585 190.837 378.542 190.816 378.489 190.816H373.641C373.588 190.816 373.54 190.837 373.497 190.88C373.465 190.912 373.449 190.955 373.449 191.008V195.712C373.449 195.765 373.465 195.813 373.497 195.856C373.54 195.888 373.588 195.904 373.641 195.904ZM384.955 198C384.55 198 384.176 197.899 383.835 197.696C383.504 197.493 383.238 197.227 383.035 196.896C382.843 196.565 382.747 196.197 382.747 195.792V192.304H390.075V191.008C390.075 190.955 390.054 190.912 390.011 190.88C389.979 190.837 389.936 190.816 389.883 190.816H382.747V188.72H389.963C390.368 188.72 390.736 188.821 391.067 189.024C391.408 189.227 391.675 189.493 391.867 189.824C392.07 190.155 392.171 190.523 392.171 190.928V198H384.955ZM385.035 195.904H390.075V194.192H384.843V195.712C384.843 195.765 384.859 195.813 384.891 195.856C384.934 195.888 384.982 195.904 385.035 195.904ZM394.122 198V188.72H405.626C406.042 188.72 406.415 188.821 406.746 189.024C407.077 189.227 407.338 189.493 407.53 189.824C407.733 190.155 407.834 190.523 407.834 190.928V198H405.754V191.008C405.754 190.955 405.733 190.912 405.69 190.88C405.647 190.837 405.599 190.816 405.546 190.816H402.234C402.181 190.816 402.133 190.837 402.09 190.88C402.058 190.912 402.042 190.955 402.042 191.008V198H399.93V191.008C399.93 190.955 399.909 190.912 399.866 190.88C399.834 190.837 399.791 190.816 399.738 190.816H396.41C396.357 190.816 396.309 190.837 396.266 190.88C396.234 190.912 396.218 190.955 396.218 191.008V198H394.122ZM412.125 198C411.72 198 411.352 197.899 411.021 197.696C410.691 197.493 410.424 197.227 410.221 196.896C410.019 196.565 409.917 196.197 409.917 195.792V190.928C409.917 190.523 410.019 190.155 410.221 189.824C410.424 189.493 410.691 189.227 411.021 189.024C411.352 188.821 411.72 188.72 412.125 188.72H417.133C417.539 188.72 417.907 188.821 418.237 189.024C418.579 189.227 418.845 189.493 419.037 189.824C419.24 190.155 419.341 190.523 419.341 190.928V194.416H412.013V195.712C412.013 195.765 412.029 195.813 412.061 195.856C412.104 195.888 412.152 195.904 412.205 195.904H419.341V198H412.125ZM412.013 192.528H417.245V191.008C417.245 190.955 417.224 190.912 417.181 190.88C417.149 190.837 417.107 190.816 417.053 190.816H412.205C412.152 190.816 412.104 190.837 412.061 190.88C412.029 190.912 412.013 190.955 412.013 191.008V192.528Z" fill="#ED1B76"/>
</svg>
