<svg width="235" height="168" viewBox="0 0 235 168" fill="none" xmlns="http://www.w3.org/2000/svg">
<rect x="0.5" y="0.5" width="234" height="167" rx="4.5" fill="#294F60"/>
<rect x="0.5" y="0.5" width="234" height="167" rx="4.5" stroke="#8A38F5" stroke-dasharray="10 5"/>
<rect x="21" y="21" width="193" height="52" rx="9" fill="#ED1B76" fill-opacity="0.08"/>
<rect x="21" y="21" width="193" height="52" rx="9" stroke="#E71C4F" stroke-width="2"/>
<mask id="mask0_2106_1773" style="mask-type:alpha" maskUnits="userSpaceOnUse" x="40" y="32" width="30" height="30">
<rect x="40" y="32" width="30" height="30" fill="#D9D9D9"/>
</mask>
<g mask="url(#mask0_2106_1773)">
<path d="M65.1875 48.25H51.25C50.8958 48.25 50.599 48.1302 50.3594 47.8906C50.1198 47.651 50 47.3542 50 47C50 46.6458 50.1198 46.349 50.3594 46.1094C50.599 45.8698 50.8958 45.75 51.25 45.75H65.1875L64.125 44.6875C63.875 44.4375 63.7552 44.1458 63.7656 43.8125C63.776 43.4792 63.8958 43.1875 64.125 42.9375C64.375 42.6875 64.6719 42.5573 65.0156 42.5469C65.3594 42.5365 65.6562 42.6562 65.9062 42.9062L69.125 46.125C69.375 46.375 69.5 46.6667 69.5 47C69.5 47.3333 69.375 47.625 69.125 47.875L65.9062 51.0938C65.6562 51.3438 65.3594 51.4635 65.0156 51.4531C64.6719 51.4427 64.375 51.3125 64.125 51.0625C63.8958 50.8125 63.776 50.5208 63.7656 50.1875C63.7552 49.8542 63.875 49.5625 64.125 49.3125L65.1875 48.25ZM58.75 42V38.25H46.25V55.75H58.75V52C58.75 51.6458 58.8698 51.349 59.1094 51.1094C59.349 50.8698 59.6458 50.75 60 50.75C60.3542 50.75 60.651 50.8698 60.8906 51.1094C61.1302 51.349 61.25 51.6458 61.25 52V55.75C61.25 56.4375 61.0052 57.026 60.5156 57.5156C60.026 58.0052 59.4375 58.25 58.75 58.25H46.25C45.5625 58.25 44.974 58.0052 44.4844 57.5156C43.9948 57.026 43.75 56.4375 43.75 55.75V38.25C43.75 37.5625 43.9948 36.974 44.4844 36.4844C44.974 35.9948 45.5625 35.75 46.25 35.75H58.75C59.4375 35.75 60.026 35.9948 60.5156 36.4844C61.0052 36.974 61.25 37.5625 61.25 38.25V42C61.25 42.3542 61.1302 42.651 60.8906 42.8906C60.651 43.1302 60.3542 43.25 60 43.25C59.6458 43.25 59.349 43.1302 59.1094 42.8906C58.8698 42.651 58.75 42.3542 58.75 42Z" fill="white"/>
</g>
<path d="M81.16 54.5V40.1H94.42V42.76H83.82V45.96H92.34V48.64H83.82V51.84H94.42V54.5H81.16ZM97.0325 54.5V53.8L101.292 48.6L97.0325 43.6V42.9H99.8725L102.992 46.58L106.112 42.9H108.952V43.6L104.692 48.6L108.952 53.8V54.5H106.133L102.992 50.66L99.8725 54.5H97.0325ZM111.8 54.5V42.9H114.42V54.5H111.8ZM111.8 41.74V39.1H114.42V41.74H111.8ZM120.087 54.5C119.581 54.5 119.121 54.3733 118.707 54.12C118.294 53.8667 117.961 53.5333 117.707 53.12C117.454 52.7067 117.327 52.2467 117.327 51.74V39.34H119.947V42.9H124.467V45.52H119.947V51.64C119.947 51.7067 119.967 51.7667 120.007 51.82C120.061 51.86 120.121 51.88 120.187 51.88H124.467V54.5H120.087ZM135.51 59.08V56.44H142.49C142.557 56.44 142.61 56.4133 142.65 56.36C142.703 56.32 142.73 56.2667 142.73 56.2V54.5H136.33C135.837 54.5 135.377 54.3733 134.95 54.12C134.537 53.8667 134.203 53.5333 133.95 53.12C133.697 52.7067 133.57 52.2467 133.57 51.74V45.66C133.57 45.1533 133.697 44.6933 133.95 44.28C134.203 43.8667 134.537 43.5333 134.95 43.28C135.377 43.0267 135.837 42.9 136.33 42.9H142.61C143.117 42.9 143.577 43.0267 143.99 43.28C144.403 43.5333 144.73 43.8667 144.97 44.28C145.223 44.6933 145.35 45.1533 145.35 45.66V56.32C145.35 56.84 145.23 57.3067 144.99 57.72C144.75 58.1333 144.417 58.46 143.99 58.7C143.577 58.9533 143.117 59.08 142.61 59.08H135.51ZM136.43 51.88H142.49C142.557 51.88 142.61 51.86 142.65 51.82C142.703 51.7667 142.73 51.7067 142.73 51.64V45.76C142.73 45.6933 142.703 45.64 142.65 45.6C142.61 45.5467 142.557 45.52 142.49 45.52H136.43C136.363 45.52 136.303 45.5467 136.25 45.6C136.21 45.64 136.19 45.6933 136.19 45.76V51.64C136.19 51.7067 136.21 51.7667 136.25 51.82C136.303 51.86 136.363 51.88 136.43 51.88ZM150.573 54.5C150.066 54.5 149.599 54.3733 149.173 54.12C148.759 53.8667 148.426 53.5333 148.173 53.12C147.933 52.7067 147.813 52.2467 147.813 51.74V47.38H156.973V45.76C156.973 45.6933 156.946 45.64 156.893 45.6C156.853 45.5467 156.799 45.52 156.733 45.52H147.813V42.9H156.833C157.339 42.9 157.799 43.0267 158.213 43.28C158.639 43.5333 158.973 43.8667 159.213 44.28C159.466 44.6933 159.593 45.1533 159.593 45.66V54.5H150.573ZM150.673 51.88H156.973V49.74H150.433V51.64C150.433 51.7067 150.453 51.7667 150.493 51.82C150.546 51.86 150.606 51.88 150.673 51.88ZM162.032 54.5V42.9H176.412C176.932 42.9 177.398 43.0267 177.812 43.28C178.225 43.5333 178.552 43.8667 178.792 44.28C179.045 44.6933 179.172 45.1533 179.172 45.66V54.5H176.572V45.76C176.572 45.6933 176.545 45.64 176.492 45.6C176.438 45.5467 176.378 45.52 176.312 45.52H172.172C172.105 45.52 172.045 45.5467 171.992 45.6C171.952 45.64 171.932 45.6933 171.932 45.76V54.5H169.292V45.76C169.292 45.6933 169.265 45.64 169.212 45.6C169.172 45.5467 169.118 45.52 169.052 45.52H164.892C164.825 45.52 164.765 45.5467 164.712 45.6C164.672 45.64 164.652 45.6933 164.652 45.76V54.5H162.032ZM184.535 54.5C184.029 54.5 183.569 54.3733 183.155 54.12C182.742 53.8667 182.409 53.5333 182.155 53.12C181.902 52.7067 181.775 52.2467 181.775 51.74V45.66C181.775 45.1533 181.902 44.6933 182.155 44.28C182.409 43.8667 182.742 43.5333 183.155 43.28C183.569 43.0267 184.029 42.9 184.535 42.9H190.795C191.302 42.9 191.762 43.0267 192.175 43.28C192.602 43.5333 192.935 43.8667 193.175 44.28C193.429 44.6933 193.555 45.1533 193.555 45.66V50.02H184.395V51.64C184.395 51.7067 184.415 51.7667 184.455 51.82C184.509 51.86 184.569 51.88 184.635 51.88H193.555V54.5H184.535ZM184.395 47.66H190.935V45.76C190.935 45.6933 190.909 45.64 190.855 45.6C190.815 45.5467 190.762 45.52 190.695 45.52H184.635C184.569 45.52 184.509 45.5467 184.455 45.6C184.415 45.64 184.395 45.6933 184.395 45.76V47.66Z" fill="white"/>
<g filter="url(#filter0_d_2106_1773)">
<rect x="20" y="94" width="195" height="54" rx="10" fill="#ED1B76" fill-opacity="0.14" shape-rendering="crispEdges"/>
<rect x="21.5" y="95.5" width="192" height="51" rx="8.5" stroke="#E71C4F" stroke-width="3" shape-rendering="crispEdges"/>
<g filter="url(#filter1_d_2106_1773)">
<mask id="mask1_2106_1773" style="mask-type:alpha" maskUnits="userSpaceOnUse" x="40" y="106" width="30" height="30">
<rect x="40" y="106" width="30" height="30" fill="#D9D9D9"/>
</mask>
<g mask="url(#mask1_2106_1773)">
<path d="M65.1875 122.25H51.25C50.8958 122.25 50.599 122.13 50.3594 121.891C50.1198 121.651 50 121.354 50 121C50 120.646 50.1198 120.349 50.3594 120.109C50.599 119.87 50.8958 119.75 51.25 119.75H65.1875L64.125 118.688C63.875 118.438 63.7552 118.146 63.7656 117.812C63.776 117.479 63.8958 117.188 64.125 116.938C64.375 116.688 64.6719 116.557 65.0156 116.547C65.3594 116.536 65.6562 116.656 65.9062 116.906L69.125 120.125C69.375 120.375 69.5 120.667 69.5 121C69.5 121.333 69.375 121.625 69.125 121.875L65.9062 125.094C65.6562 125.344 65.3594 125.464 65.0156 125.453C64.6719 125.443 64.375 125.312 64.125 125.062C63.8958 124.812 63.776 124.521 63.7656 124.188C63.7552 123.854 63.875 123.563 64.125 123.312L65.1875 122.25ZM58.75 116V112.25H46.25V129.75H58.75V126C58.75 125.646 58.8698 125.349 59.1094 125.109C59.349 124.87 59.6458 124.75 60 124.75C60.3542 124.75 60.651 124.87 60.8906 125.109C61.1302 125.349 61.25 125.646 61.25 126V129.75C61.25 130.438 61.0052 131.026 60.5156 131.516C60.026 132.005 59.4375 132.25 58.75 132.25H46.25C45.5625 132.25 44.974 132.005 44.4844 131.516C43.9948 131.026 43.75 130.438 43.75 129.75V112.25C43.75 111.562 43.9948 110.974 44.4844 110.484C44.974 109.995 45.5625 109.75 46.25 109.75H58.75C59.4375 109.75 60.026 109.995 60.5156 110.484C61.0052 110.974 61.25 111.562 61.25 112.25V116C61.25 116.354 61.1302 116.651 60.8906 116.891C60.651 117.13 60.3542 117.25 60 117.25C59.6458 117.25 59.349 117.13 59.1094 116.891C58.8698 116.651 58.75 116.354 58.75 116Z" fill="#E71C4F"/>
</g>
</g>
<path d="M81.16 128.5V114.1H94.42V116.76H83.82V119.96H92.34V122.64H83.82V125.84H94.42V128.5H81.16ZM97.0325 128.5V127.8L101.292 122.6L97.0325 117.6V116.9H99.8725L102.992 120.58L106.112 116.9H108.952V117.6L104.692 122.6L108.952 127.8V128.5H106.133L102.992 124.66L99.8725 128.5H97.0325ZM111.8 128.5V116.9H114.42V128.5H111.8ZM111.8 115.74V113.1H114.42V115.74H111.8ZM120.087 128.5C119.581 128.5 119.121 128.373 118.707 128.12C118.294 127.867 117.961 127.533 117.707 127.12C117.454 126.707 117.327 126.247 117.327 125.74V113.34H119.947V116.9H124.467V119.52H119.947V125.64C119.947 125.707 119.967 125.767 120.007 125.82C120.061 125.86 120.121 125.88 120.187 125.88H124.467V128.5H120.087ZM135.51 133.08V130.44H142.49C142.557 130.44 142.61 130.413 142.65 130.36C142.703 130.32 142.73 130.267 142.73 130.2V128.5H136.33C135.837 128.5 135.377 128.373 134.95 128.12C134.537 127.867 134.203 127.533 133.95 127.12C133.697 126.707 133.57 126.247 133.57 125.74V119.66C133.57 119.153 133.697 118.693 133.95 118.28C134.203 117.867 134.537 117.533 134.95 117.28C135.377 117.027 135.837 116.9 136.33 116.9H142.61C143.117 116.9 143.577 117.027 143.99 117.28C144.403 117.533 144.73 117.867 144.97 118.28C145.223 118.693 145.35 119.153 145.35 119.66V130.32C145.35 130.84 145.23 131.307 144.99 131.72C144.75 132.133 144.417 132.46 143.99 132.7C143.577 132.953 143.117 133.08 142.61 133.08H135.51ZM136.43 125.88H142.49C142.557 125.88 142.61 125.86 142.65 125.82C142.703 125.767 142.73 125.707 142.73 125.64V119.76C142.73 119.693 142.703 119.64 142.65 119.6C142.61 119.547 142.557 119.52 142.49 119.52H136.43C136.363 119.52 136.303 119.547 136.25 119.6C136.21 119.64 136.19 119.693 136.19 119.76V125.64C136.19 125.707 136.21 125.767 136.25 125.82C136.303 125.86 136.363 125.88 136.43 125.88ZM150.573 128.5C150.066 128.5 149.599 128.373 149.173 128.12C148.759 127.867 148.426 127.533 148.173 127.12C147.933 126.707 147.813 126.247 147.813 125.74V121.38H156.973V119.76C156.973 119.693 156.946 119.64 156.893 119.6C156.853 119.547 156.799 119.52 156.733 119.52H147.813V116.9H156.833C157.339 116.9 157.799 117.027 158.213 117.28C158.639 117.533 158.973 117.867 159.213 118.28C159.466 118.693 159.593 119.153 159.593 119.66V128.5H150.573ZM150.673 125.88H156.973V123.74H150.433V125.64C150.433 125.707 150.453 125.767 150.493 125.82C150.546 125.86 150.606 125.88 150.673 125.88ZM162.032 128.5V116.9H176.412C176.932 116.9 177.398 117.027 177.812 117.28C178.225 117.533 178.552 117.867 178.792 118.28C179.045 118.693 179.172 119.153 179.172 119.66V128.5H176.572V119.76C176.572 119.693 176.545 119.64 176.492 119.6C176.438 119.547 176.378 119.52 176.312 119.52H172.172C172.105 119.52 172.045 119.547 171.992 119.6C171.952 119.64 171.932 119.693 171.932 119.76V128.5H169.292V119.76C169.292 119.693 169.265 119.64 169.212 119.6C169.172 119.547 169.118 119.52 169.052 119.52H164.892C164.825 119.52 164.765 119.547 164.712 119.6C164.672 119.64 164.652 119.693 164.652 119.76V128.5H162.032ZM184.535 128.5C184.029 128.5 183.569 128.373 183.155 128.12C182.742 127.867 182.409 127.533 182.155 127.12C181.902 126.707 181.775 126.247 181.775 125.74V119.66C181.775 119.153 181.902 118.693 182.155 118.28C182.409 117.867 182.742 117.533 183.155 117.28C183.569 117.027 184.029 116.9 184.535 116.9H190.795C191.302 116.9 191.762 117.027 192.175 117.28C192.602 117.533 192.935 117.867 193.175 118.28C193.429 118.693 193.555 119.153 193.555 119.66V124.02H184.395V125.64C184.395 125.707 184.415 125.767 184.455 125.82C184.509 125.86 184.569 125.88 184.635 125.88H193.555V128.5H184.535ZM184.395 121.66H190.935V119.76C190.935 119.693 190.909 119.64 190.855 119.6C190.815 119.547 190.762 119.52 190.695 119.52H184.635C184.569 119.52 184.509 119.547 184.455 119.6C184.415 119.64 184.395 119.693 184.395 119.76V121.66Z" fill="white"/>
</g>
<defs>
<filter id="filter0_d_2106_1773" x="18" y="92" width="205" height="64" filterUnits="userSpaceOnUse" color-interpolation-filters="sRGB">
<feFlood flood-opacity="0" result="BackgroundImageFix"/>
<feColorMatrix in="SourceAlpha" type="matrix" values="0 0 0 0 0 0 0 0 0 0 0 0 0 0 0 0 0 0 127 0" result="hardAlpha"/>
<feOffset dx="3" dy="3"/>
<feGaussianBlur stdDeviation="2.5"/>
<feComposite in2="hardAlpha" operator="out"/>
<feColorMatrix type="matrix" values="0 0 0 0 0.184314 0 0 0 0 0.180392 0 0 0 0 0.180392 0 0 0 0.2 0"/>
<feBlend mode="normal" in2="BackgroundImageFix" result="effect1_dropShadow_2106_1773"/>
<feBlend mode="normal" in="SourceGraphic" in2="effect1_dropShadow_2106_1773" result="shape"/>
</filter>
<filter id="filter1_d_2106_1773" x="42.25" y="108.25" width="34.75" height="31.5" filterUnits="userSpaceOnUse" color-interpolation-filters="sRGB">
<feFlood flood-opacity="0" result="BackgroundImageFix"/>
<feColorMatrix in="SourceAlpha" type="matrix" values="0 0 0 0 0 0 0 0 0 0 0 0 0 0 0 0 0 0 127 0" result="hardAlpha"/>
<feOffset dx="3" dy="3"/>
<feGaussianBlur stdDeviation="2.25"/>
<feComposite in2="hardAlpha" operator="out"/>
<feColorMatrix type="matrix" values="0 0 0 0 0 0 0 0 0 0 0 0 0 0 0 0 0 0 0.35 0"/>
<feBlend mode="normal" in2="BackgroundImageFix" result="effect1_dropShadow_2106_1773"/>
<feBlend mode="normal" in="SourceGraphic" in2="effect1_dropShadow_2106_1773" result="shape"/>
</filter>
</defs>
</svg>
