<svg width="247" height="184" viewBox="0 0 247 184" fill="none" xmlns="http://www.w3.org/2000/svg">
<rect x="0.5" y="0.5" width="246" height="183" rx="4.5" fill="#303131"/>
<rect x="0.5" y="0.5" width="246" height="183" rx="4.5" stroke="#8A38F5" stroke-dasharray="10 5"/>
<rect x="21" y="21" width="205" height="60" fill="#86E9D6" fill-opacity="0.14"/>
<rect x="21" y="21" width="205" height="60" stroke="#4DD5BC" stroke-width="2"/>
<mask id="mask0_2106_1791" style="mask-type:alpha" maskUnits="userSpaceOnUse" x="44" y="36" width="30" height="30">
<rect x="44" y="36" width="30" height="30" fill="#D9D9D9"/>
</mask>
<g mask="url(#mask0_2106_1791)">
<path d="M69.1875 52.25H55.25C54.8958 52.25 54.599 52.1302 54.3594 51.8906C54.1198 51.651 54 51.3542 54 51C54 50.6458 54.1198 50.349 54.3594 50.1094C54.599 49.8698 54.8958 49.75 55.25 49.75H69.1875L68.125 48.6875C67.875 48.4375 67.7552 48.1458 67.7656 47.8125C67.776 47.4792 67.8958 47.1875 68.125 46.9375C68.375 46.6875 68.6719 46.5573 69.0156 46.5469C69.3594 46.5365 69.6562 46.6562 69.9062 46.9062L73.125 50.125C73.375 50.375 73.5 50.6667 73.5 51C73.5 51.3333 73.375 51.625 73.125 51.875L69.9062 55.0938C69.6562 55.3438 69.3594 55.4635 69.0156 55.4531C68.6719 55.4427 68.375 55.3125 68.125 55.0625C67.8958 54.8125 67.776 54.5208 67.7656 54.1875C67.7552 53.8542 67.875 53.5625 68.125 53.3125L69.1875 52.25ZM62.75 46V42.25H50.25V59.75H62.75V56C62.75 55.6458 62.8698 55.349 63.1094 55.1094C63.349 54.8698 63.6458 54.75 64 54.75C64.3542 54.75 64.651 54.8698 64.8906 55.1094C65.1302 55.349 65.25 55.6458 65.25 56V59.75C65.25 60.4375 65.0052 61.026 64.5156 61.5156C64.026 62.0052 63.4375 62.25 62.75 62.25H50.25C49.5625 62.25 48.974 62.0052 48.4844 61.5156C47.9948 61.026 47.75 60.4375 47.75 59.75V42.25C47.75 41.5625 47.9948 40.974 48.4844 40.4844C48.974 39.9948 49.5625 39.75 50.25 39.75H62.75C63.4375 39.75 64.026 39.9948 64.5156 40.4844C65.0052 40.974 65.25 41.5625 65.25 42.25V46C65.25 46.3542 65.1302 46.651 64.8906 46.8906C64.651 47.1302 64.3542 47.25 64 47.25C63.6458 47.25 63.349 47.1302 63.1094 46.8906C62.8698 46.651 62.75 46.3542 62.75 46Z" fill="white"/>
</g>
<path d="M85.2 59C85.312 59 85.424 58.888 85.536 58.664C85.648 58.44 85.704 58.072 85.704 57.56V46.04C85.704 45.528 85.648 45.168 85.536 44.96C85.424 44.736 85.312 44.616 85.2 44.6H99.216V45.32L99.696 48.104C99.296 47.928 98.592 47.744 97.584 47.552C96.576 47.344 95.36 47.24 93.936 47.24H90.384C89.904 47.24 89.616 47.28 89.52 47.36C89.44 47.424 89.4 47.624 89.4 47.96V49.736C89.4 50.088 89.44 50.296 89.52 50.36C89.616 50.424 89.896 50.456 90.36 50.456H93.816C94.744 50.456 95.488 50.408 96.048 50.312C96.624 50.2 97 50.088 97.176 49.976C97.112 50.28 97.04 50.632 96.96 51.032C96.88 51.432 96.816 51.816 96.768 52.184C96.72 52.552 96.696 52.856 96.696 53.096H90.36C89.896 53.096 89.616 53.128 89.52 53.192C89.44 53.24 89.4 53.448 89.4 53.816V55.592C89.4 55.96 89.44 56.176 89.52 56.24C89.6 56.304 89.88 56.336 90.36 56.336H96.84C97.768 56.336 98.512 56.232 99.072 56.024C99.648 55.8 100.024 55.584 100.2 55.376L99.72 58.256V59H85.2ZM100.495 59C100.639 59 100.88 58.888 101.216 58.664C101.552 58.44 101.936 58.08 102.368 57.584C102.672 57.216 103.032 56.784 103.448 56.288C103.864 55.776 104.28 55.256 104.696 54.728C105.128 54.2 105.496 53.744 105.8 53.36C105.544 53.072 105.256 52.744 104.936 52.376C104.616 52.008 104.288 51.632 103.952 51.248C103.632 50.864 103.312 50.504 102.992 50.168C102.688 49.816 102.424 49.512 102.2 49.256C101.72 48.712 101.336 48.328 101.048 48.104C100.76 47.88 100.575 47.768 100.495 47.768H105.68C105.568 47.784 105.528 47.904 105.56 48.128C105.608 48.352 105.816 48.728 106.184 49.256C106.344 49.48 106.528 49.736 106.736 50.024C106.944 50.312 107.152 50.6 107.36 50.888C107.568 51.176 107.744 51.424 107.888 51.632H107.936C108.064 51.44 108.216 51.208 108.392 50.936C108.584 50.664 108.784 50.376 108.992 50.072C109.2 49.768 109.392 49.48 109.568 49.208C109.904 48.68 110.088 48.312 110.12 48.104C110.168 47.88 110.144 47.768 110.048 47.768H115.304C115.16 47.768 114.928 47.88 114.608 48.104C114.288 48.312 113.904 48.672 113.456 49.184C113.152 49.536 112.776 49.968 112.328 50.48C111.896 50.976 111.464 51.48 111.032 51.992C110.6 52.504 110.216 52.96 109.88 53.36C110.296 53.824 110.712 54.288 111.128 54.752C111.544 55.2 111.952 55.656 112.352 56.12C112.768 56.584 113.184 57.048 113.6 57.512C114.08 58.056 114.464 58.44 114.752 58.664C115.056 58.888 115.248 59 115.328 59H110.144C110.256 59 110.296 58.888 110.264 58.664C110.232 58.44 110.032 58.056 109.664 57.512C109.504 57.256 109.312 56.976 109.088 56.672C108.864 56.368 108.64 56.064 108.416 55.76C108.192 55.456 108 55.2 107.84 54.992H107.792C107.664 55.2 107.504 55.456 107.312 55.76C107.136 56.064 106.944 56.376 106.736 56.696C106.544 57.016 106.36 57.304 106.184 57.56C105.832 58.088 105.632 58.464 105.584 58.688C105.536 58.896 105.568 59 105.68 59H100.495ZM116.181 59C116.293 59 116.405 58.888 116.517 58.664C116.629 58.44 116.685 58.072 116.685 57.56V49.208C116.685 48.696 116.629 48.328 116.517 48.104C116.421 47.88 116.317 47.768 116.205 47.768H120.093V57.56C120.093 58.072 120.141 58.44 120.237 58.664C120.349 58.888 120.461 59 120.573 59H116.181ZM118.125 45.944C117.533 45.944 117.061 45.784 116.709 45.464C116.357 45.144 116.181 44.704 116.181 44.144C116.181 43.584 116.349 43.144 116.685 42.824C117.037 42.504 117.517 42.344 118.125 42.344C118.733 42.344 119.205 42.504 119.541 42.824C119.893 43.144 120.069 43.584 120.069 44.144C120.069 44.704 119.893 45.144 119.541 45.464C119.205 45.784 118.733 45.944 118.125 45.944ZM127.472 59.24C126.368 59.24 125.568 59.008 125.072 58.544C124.576 58.064 124.328 57.288 124.328 56.216V50.168H122.168V47.768C122.904 47.768 123.48 47.68 123.896 47.504C124.312 47.312 124.608 46.984 124.784 46.52C124.96 46.056 125.048 45.408 125.048 44.576H127.736V47.768H131.84C131.728 48.088 131.616 48.488 131.504 48.968C131.408 49.432 131.36 49.832 131.36 50.168H127.736V54.896C127.736 55.632 127.792 56.136 127.904 56.408C128.016 56.68 128.28 56.816 128.696 56.816C128.968 56.816 129.264 56.72 129.584 56.528C129.92 56.336 130.24 56.104 130.544 55.832C130.864 55.544 131.128 55.272 131.336 55.016V55.76L131.576 58.088C131.384 58.248 131.096 58.424 130.712 58.616C130.328 58.792 129.856 58.936 129.296 59.048C128.752 59.176 128.144 59.24 127.472 59.24ZM144.676 64.856C143.748 64.856 142.892 64.792 142.108 64.664C141.34 64.536 140.668 64.376 140.092 64.184C139.532 64.008 139.1 63.832 138.796 63.656L139.276 60.056V59.36C139.5 59.792 139.852 60.248 140.332 60.728C140.812 61.208 141.412 61.616 142.132 61.952C142.852 62.288 143.668 62.456 144.58 62.456C145.172 62.456 145.668 62.328 146.068 62.072C146.468 61.832 146.772 61.456 146.98 60.944C147.188 60.432 147.292 59.8 147.292 59.048V58.664L147.34 58.232L147.292 58.184C147.068 58.424 146.764 58.624 146.38 58.784C146.012 58.928 145.604 59.04 145.156 59.12C144.724 59.2 144.292 59.24 143.86 59.24C142.564 59.24 141.524 58.984 140.74 58.472C139.972 57.96 139.412 57.264 139.06 56.384C138.724 55.504 138.556 54.512 138.556 53.408C138.556 52.288 138.724 51.288 139.06 50.408C139.396 49.528 139.948 48.832 140.716 48.32C141.5 47.792 142.548 47.528 143.86 47.528C144.308 47.528 144.748 47.56 145.18 47.624C145.612 47.688 146.012 47.784 146.38 47.912C146.748 48.024 147.052 48.184 147.292 48.392L147.34 48.368L147.292 47.912V47.768H151.18C151.068 47.784 150.956 47.904 150.844 48.128C150.748 48.352 150.7 48.728 150.7 49.256V58.448C150.7 60.768 150.204 62.416 149.212 63.392C148.236 64.368 146.724 64.856 144.676 64.856ZM144.508 56.816C145.068 56.816 145.556 56.72 145.972 56.528C146.388 56.336 146.708 55.992 146.932 55.496C147.172 55 147.292 54.304 147.292 53.408C147.292 52.528 147.172 51.84 146.932 51.344C146.708 50.832 146.388 50.472 145.972 50.264C145.556 50.04 145.068 49.928 144.508 49.928C143.98 49.928 143.524 50.04 143.14 50.264C142.756 50.488 142.46 50.856 142.252 51.368C142.044 51.88 141.94 52.568 141.94 53.432C141.94 54.28 142.036 54.952 142.228 55.448C142.436 55.944 142.732 56.296 143.116 56.504C143.5 56.712 143.964 56.816 144.508 56.816ZM158.079 59.24C156.639 59.24 155.487 58.96 154.623 58.4C153.775 57.824 153.351 56.904 153.351 55.64C153.351 54.76 153.575 54.048 154.023 53.504C154.471 52.96 155.079 52.56 155.847 52.304C156.631 52.032 157.519 51.896 158.511 51.896C159.247 51.896 159.871 51.96 160.383 52.088C160.911 52.216 161.335 52.352 161.655 52.496C161.975 52.64 162.183 52.744 162.279 52.808C162.279 52.136 162.207 51.592 162.063 51.176C161.919 50.744 161.655 50.432 161.271 50.24C160.903 50.032 160.383 49.928 159.711 49.928C158.735 49.928 157.871 50.024 157.119 50.216C156.367 50.408 155.751 50.632 155.271 50.888C154.807 51.144 154.487 51.36 154.311 51.536V50.816L154.071 48.464C154.183 48.4 154.479 48.296 154.959 48.152C155.439 48.008 156.095 47.872 156.927 47.744C157.759 47.6 158.751 47.528 159.903 47.528C161.487 47.528 162.695 47.76 163.527 48.224C164.359 48.672 164.927 49.32 165.231 50.168C165.551 51.016 165.711 52.04 165.711 53.24V57.56C165.711 58.008 165.759 58.336 165.855 58.544C165.967 58.736 166.079 58.888 166.191 59H162.303V58.496L162.351 58.04L162.303 57.992C162.175 58.136 161.991 58.28 161.751 58.424C161.511 58.568 161.215 58.704 160.863 58.832C160.511 58.944 160.103 59.04 159.639 59.12C159.175 59.2 158.655 59.24 158.079 59.24ZM159.207 56.816C159.879 56.816 160.439 56.768 160.887 56.672C161.351 56.56 161.703 56.416 161.943 56.24C162.183 56.048 162.303 55.824 162.303 55.568C162.303 55.2 162.023 54.896 161.463 54.656C160.919 54.416 160.175 54.296 159.231 54.296C158.319 54.296 157.671 54.424 157.287 54.68C156.919 54.936 156.735 55.256 156.735 55.64C156.735 56.12 156.951 56.44 157.383 56.6C157.815 56.744 158.423 56.816 159.207 56.816ZM168.165 59C168.277 59 168.381 58.888 168.477 58.664C168.589 58.44 168.645 58.072 168.645 57.56V49.448C168.645 48.936 168.589 48.576 168.477 48.368C168.381 48.144 168.277 48.024 168.165 48.008C168.869 48.008 169.589 47.96 170.325 47.864C171.061 47.752 171.637 47.64 172.053 47.528V48.992L172.005 49.304L172.053 49.352C172.101 49.24 172.253 49.04 172.509 48.752C172.765 48.464 173.133 48.192 173.613 47.936C174.093 47.664 174.685 47.528 175.389 47.528C176.877 47.528 178.013 47.952 178.797 48.8C179.597 49.648 179.997 50.976 179.997 52.784V57.56C179.997 58.072 180.045 58.44 180.141 58.664C180.253 58.888 180.365 59 180.477 59H176.109C176.221 59 176.325 58.888 176.421 58.664C176.533 58.44 176.589 58.072 176.589 57.56V52.856C176.589 52.104 176.509 51.52 176.349 51.104C176.189 50.672 175.965 50.368 175.677 50.192C175.405 50.016 175.085 49.928 174.717 49.928C174.269 49.928 173.837 50.04 173.421 50.264C173.021 50.472 172.693 50.808 172.437 51.272C172.181 51.72 172.053 52.32 172.053 53.072V57.56C172.053 58.072 172.101 58.44 172.197 58.664C172.309 58.888 172.421 59 172.533 59H168.165ZM184.029 59C184.141 58.984 184.245 58.864 184.341 58.64C184.453 58.416 184.509 58.056 184.509 57.56V53.072C184.509 52.432 184.445 51.88 184.317 51.416C184.205 50.936 184.013 50.568 183.741 50.312C183.469 50.056 183.101 49.928 182.637 49.928C181.853 49.928 181.213 50.208 180.717 50.768C180.237 51.328 179.997 52.176 179.997 53.312H178.245C178.245 52.544 178.365 51.816 178.605 51.128C178.845 50.424 179.189 49.808 179.637 49.28C180.085 48.736 180.621 48.312 181.245 48.008C181.869 47.688 182.557 47.528 183.309 47.528C184.269 47.528 185.093 47.704 185.781 48.056C186.469 48.392 186.997 48.96 187.365 49.76C187.733 50.56 187.917 51.648 187.917 53.024V57.56C187.917 58.056 187.965 58.416 188.061 58.64C188.173 58.864 188.285 58.984 188.397 59H184.029ZM196.553 59.24C195.289 59.24 194.233 59.112 193.385 58.856C192.553 58.584 191.889 58.2 191.393 57.704C190.897 57.192 190.545 56.576 190.337 55.856C190.129 55.136 190.025 54.32 190.025 53.408C190.025 51.6 190.529 50.168 191.537 49.112C192.545 48.056 194.089 47.528 196.169 47.528C197.385 47.528 198.369 47.696 199.121 48.032C199.889 48.368 200.473 48.816 200.873 49.376C201.273 49.936 201.545 50.56 201.689 51.248C201.849 51.92 201.929 52.6 201.929 53.288V54.416C201.929 54.368 201.705 54.32 201.257 54.272C200.825 54.208 200.089 54.176 199.049 54.176H193.481C193.481 55.056 193.745 55.72 194.273 56.168C194.817 56.6 195.697 56.816 196.913 56.816C197.937 56.816 198.849 56.696 199.649 56.456C200.465 56.2 201.057 55.96 201.425 55.736V56.456L201.665 58.28C201.361 58.488 200.777 58.704 199.913 58.928C199.049 59.136 197.929 59.24 196.553 59.24ZM194.369 52.112H198.521C198.521 51.76 198.441 51.416 198.281 51.08C198.137 50.744 197.897 50.472 197.561 50.264C197.225 50.04 196.761 49.928 196.169 49.928C195.577 49.928 195.097 50.016 194.729 50.192C194.377 50.368 194.113 50.584 193.937 50.84C193.777 51.096 193.697 51.36 193.697 51.632C193.697 51.792 193.745 51.912 193.841 51.992C193.937 52.072 194.113 52.112 194.369 52.112Z" fill="white"/>
<g filter="url(#filter0_d_2106_1791)">
<rect x="20" y="102" width="207" height="62" fill="#86E9D6" fill-opacity="0.26" shape-rendering="crispEdges"/>
<rect x="21.5" y="103.5" width="204" height="59" stroke="#4DD5BC" stroke-width="3" shape-rendering="crispEdges"/>
<g filter="url(#filter1_d_2106_1791)">
<mask id="mask1_2106_1791" style="mask-type:alpha" maskUnits="userSpaceOnUse" x="44" y="118" width="30" height="30">
<rect x="44" y="118" width="30" height="30" fill="#D9D9D9"/>
</mask>
<g mask="url(#mask1_2106_1791)">
<path d="M69.1875 134.25H55.25C54.8958 134.25 54.599 134.13 54.3594 133.891C54.1198 133.651 54 133.354 54 133C54 132.646 54.1198 132.349 54.3594 132.109C54.599 131.87 54.8958 131.75 55.25 131.75H69.1875L68.125 130.688C67.875 130.438 67.7552 130.146 67.7656 129.812C67.776 129.479 67.8958 129.188 68.125 128.938C68.375 128.688 68.6719 128.557 69.0156 128.547C69.3594 128.536 69.6562 128.656 69.9062 128.906L73.125 132.125C73.375 132.375 73.5 132.667 73.5 133C73.5 133.333 73.375 133.625 73.125 133.875L69.9062 137.094C69.6562 137.344 69.3594 137.464 69.0156 137.453C68.6719 137.443 68.375 137.312 68.125 137.062C67.8958 136.812 67.776 136.521 67.7656 136.188C67.7552 135.854 67.875 135.563 68.125 135.312L69.1875 134.25ZM62.75 128V124.25H50.25V141.75H62.75V138C62.75 137.646 62.8698 137.349 63.1094 137.109C63.349 136.87 63.6458 136.75 64 136.75C64.3542 136.75 64.651 136.87 64.8906 137.109C65.1302 137.349 65.25 137.646 65.25 138V141.75C65.25 142.438 65.0052 143.026 64.5156 143.516C64.026 144.005 63.4375 144.25 62.75 144.25H50.25C49.5625 144.25 48.974 144.005 48.4844 143.516C47.9948 143.026 47.75 142.438 47.75 141.75V124.25C47.75 123.562 47.9948 122.974 48.4844 122.484C48.974 121.995 49.5625 121.75 50.25 121.75H62.75C63.4375 121.75 64.026 121.995 64.5156 122.484C65.0052 122.974 65.25 123.562 65.25 124.25V128C65.25 128.354 65.1302 128.651 64.8906 128.891C64.651 129.13 64.3542 129.25 64 129.25C63.6458 129.25 63.349 129.13 63.1094 128.891C62.8698 128.651 62.75 128.354 62.75 128Z" fill="white"/>
</g>
</g>
<path d="M85.2 141C85.312 141 85.424 140.888 85.536 140.664C85.648 140.44 85.704 140.072 85.704 139.56V128.04C85.704 127.528 85.648 127.168 85.536 126.96C85.424 126.736 85.312 126.616 85.2 126.6H99.216V127.32L99.696 130.104C99.296 129.928 98.592 129.744 97.584 129.552C96.576 129.344 95.36 129.24 93.936 129.24H90.384C89.904 129.24 89.616 129.28 89.52 129.36C89.44 129.424 89.4 129.624 89.4 129.96V131.736C89.4 132.088 89.44 132.296 89.52 132.36C89.616 132.424 89.896 132.456 90.36 132.456H93.816C94.744 132.456 95.488 132.408 96.048 132.312C96.624 132.2 97 132.088 97.176 131.976C97.112 132.28 97.04 132.632 96.96 133.032C96.88 133.432 96.816 133.816 96.768 134.184C96.72 134.552 96.696 134.856 96.696 135.096H90.36C89.896 135.096 89.616 135.128 89.52 135.192C89.44 135.24 89.4 135.448 89.4 135.816V137.592C89.4 137.96 89.44 138.176 89.52 138.24C89.6 138.304 89.88 138.336 90.36 138.336H96.84C97.768 138.336 98.512 138.232 99.072 138.024C99.648 137.8 100.024 137.584 100.2 137.376L99.72 140.256V141H85.2ZM100.495 141C100.639 141 100.88 140.888 101.216 140.664C101.552 140.44 101.936 140.08 102.368 139.584C102.672 139.216 103.032 138.784 103.448 138.288C103.864 137.776 104.28 137.256 104.696 136.728C105.128 136.2 105.496 135.744 105.8 135.36C105.544 135.072 105.256 134.744 104.936 134.376C104.616 134.008 104.288 133.632 103.952 133.248C103.632 132.864 103.312 132.504 102.992 132.168C102.688 131.816 102.424 131.512 102.2 131.256C101.72 130.712 101.336 130.328 101.048 130.104C100.76 129.88 100.575 129.768 100.495 129.768H105.68C105.568 129.784 105.528 129.904 105.56 130.128C105.608 130.352 105.816 130.728 106.184 131.256C106.344 131.48 106.528 131.736 106.736 132.024C106.944 132.312 107.152 132.6 107.36 132.888C107.568 133.176 107.744 133.424 107.888 133.632H107.936C108.064 133.44 108.216 133.208 108.392 132.936C108.584 132.664 108.784 132.376 108.992 132.072C109.2 131.768 109.392 131.48 109.568 131.208C109.904 130.68 110.088 130.312 110.12 130.104C110.168 129.88 110.144 129.768 110.048 129.768H115.304C115.16 129.768 114.928 129.88 114.608 130.104C114.288 130.312 113.904 130.672 113.456 131.184C113.152 131.536 112.776 131.968 112.328 132.48C111.896 132.976 111.464 133.48 111.032 133.992C110.6 134.504 110.216 134.96 109.88 135.36C110.296 135.824 110.712 136.288 111.128 136.752C111.544 137.2 111.952 137.656 112.352 138.12C112.768 138.584 113.184 139.048 113.6 139.512C114.08 140.056 114.464 140.44 114.752 140.664C115.056 140.888 115.248 141 115.328 141H110.144C110.256 141 110.296 140.888 110.264 140.664C110.232 140.44 110.032 140.056 109.664 139.512C109.504 139.256 109.312 138.976 109.088 138.672C108.864 138.368 108.64 138.064 108.416 137.76C108.192 137.456 108 137.2 107.84 136.992H107.792C107.664 137.2 107.504 137.456 107.312 137.76C107.136 138.064 106.944 138.376 106.736 138.696C106.544 139.016 106.36 139.304 106.184 139.56C105.832 140.088 105.632 140.464 105.584 140.688C105.536 140.896 105.568 141 105.68 141H100.495ZM116.181 141C116.293 141 116.405 140.888 116.517 140.664C116.629 140.44 116.685 140.072 116.685 139.56V131.208C116.685 130.696 116.629 130.328 116.517 130.104C116.421 129.88 116.317 129.768 116.205 129.768H120.093V139.56C120.093 140.072 120.141 140.44 120.237 140.664C120.349 140.888 120.461 141 120.573 141H116.181ZM118.125 127.944C117.533 127.944 117.061 127.784 116.709 127.464C116.357 127.144 116.181 126.704 116.181 126.144C116.181 125.584 116.349 125.144 116.685 124.824C117.037 124.504 117.517 124.344 118.125 124.344C118.733 124.344 119.205 124.504 119.541 124.824C119.893 125.144 120.069 125.584 120.069 126.144C120.069 126.704 119.893 127.144 119.541 127.464C119.205 127.784 118.733 127.944 118.125 127.944ZM127.472 141.24C126.368 141.24 125.568 141.008 125.072 140.544C124.576 140.064 124.328 139.288 124.328 138.216V132.168H122.168V129.768C122.904 129.768 123.48 129.68 123.896 129.504C124.312 129.312 124.608 128.984 124.784 128.52C124.96 128.056 125.048 127.408 125.048 126.576H127.736V129.768H131.84C131.728 130.088 131.616 130.488 131.504 130.968C131.408 131.432 131.36 131.832 131.36 132.168H127.736V136.896C127.736 137.632 127.792 138.136 127.904 138.408C128.016 138.68 128.28 138.816 128.696 138.816C128.968 138.816 129.264 138.72 129.584 138.528C129.92 138.336 130.24 138.104 130.544 137.832C130.864 137.544 131.128 137.272 131.336 137.016V137.76L131.576 140.088C131.384 140.248 131.096 140.424 130.712 140.616C130.328 140.792 129.856 140.936 129.296 141.048C128.752 141.176 128.144 141.24 127.472 141.24ZM144.676 146.856C143.748 146.856 142.892 146.792 142.108 146.664C141.34 146.536 140.668 146.376 140.092 146.184C139.532 146.008 139.1 145.832 138.796 145.656L139.276 142.056V141.36C139.5 141.792 139.852 142.248 140.332 142.728C140.812 143.208 141.412 143.616 142.132 143.952C142.852 144.288 143.668 144.456 144.58 144.456C145.172 144.456 145.668 144.328 146.068 144.072C146.468 143.832 146.772 143.456 146.98 142.944C147.188 142.432 147.292 141.8 147.292 141.048V140.664L147.34 140.232L147.292 140.184C147.068 140.424 146.764 140.624 146.38 140.784C146.012 140.928 145.604 141.04 145.156 141.12C144.724 141.2 144.292 141.24 143.86 141.24C142.564 141.24 141.524 140.984 140.74 140.472C139.972 139.96 139.412 139.264 139.06 138.384C138.724 137.504 138.556 136.512 138.556 135.408C138.556 134.288 138.724 133.288 139.06 132.408C139.396 131.528 139.948 130.832 140.716 130.32C141.5 129.792 142.548 129.528 143.86 129.528C144.308 129.528 144.748 129.56 145.18 129.624C145.612 129.688 146.012 129.784 146.38 129.912C146.748 130.024 147.052 130.184 147.292 130.392L147.34 130.368L147.292 129.912V129.768H151.18C151.068 129.784 150.956 129.904 150.844 130.128C150.748 130.352 150.7 130.728 150.7 131.256V140.448C150.7 142.768 150.204 144.416 149.212 145.392C148.236 146.368 146.724 146.856 144.676 146.856ZM144.508 138.816C145.068 138.816 145.556 138.72 145.972 138.528C146.388 138.336 146.708 137.992 146.932 137.496C147.172 137 147.292 136.304 147.292 135.408C147.292 134.528 147.172 133.84 146.932 133.344C146.708 132.832 146.388 132.472 145.972 132.264C145.556 132.04 145.068 131.928 144.508 131.928C143.98 131.928 143.524 132.04 143.14 132.264C142.756 132.488 142.46 132.856 142.252 133.368C142.044 133.88 141.94 134.568 141.94 135.432C141.94 136.28 142.036 136.952 142.228 137.448C142.436 137.944 142.732 138.296 143.116 138.504C143.5 138.712 143.964 138.816 144.508 138.816ZM158.079 141.24C156.639 141.24 155.487 140.96 154.623 140.4C153.775 139.824 153.351 138.904 153.351 137.64C153.351 136.76 153.575 136.048 154.023 135.504C154.471 134.96 155.079 134.56 155.847 134.304C156.631 134.032 157.519 133.896 158.511 133.896C159.247 133.896 159.871 133.96 160.383 134.088C160.911 134.216 161.335 134.352 161.655 134.496C161.975 134.64 162.183 134.744 162.279 134.808C162.279 134.136 162.207 133.592 162.063 133.176C161.919 132.744 161.655 132.432 161.271 132.24C160.903 132.032 160.383 131.928 159.711 131.928C158.735 131.928 157.871 132.024 157.119 132.216C156.367 132.408 155.751 132.632 155.271 132.888C154.807 133.144 154.487 133.36 154.311 133.536V132.816L154.071 130.464C154.183 130.4 154.479 130.296 154.959 130.152C155.439 130.008 156.095 129.872 156.927 129.744C157.759 129.6 158.751 129.528 159.903 129.528C161.487 129.528 162.695 129.76 163.527 130.224C164.359 130.672 164.927 131.32 165.231 132.168C165.551 133.016 165.711 134.04 165.711 135.24V139.56C165.711 140.008 165.759 140.336 165.855 140.544C165.967 140.736 166.079 140.888 166.191 141H162.303V140.496L162.351 140.04L162.303 139.992C162.175 140.136 161.991 140.28 161.751 140.424C161.511 140.568 161.215 140.704 160.863 140.832C160.511 140.944 160.103 141.04 159.639 141.12C159.175 141.2 158.655 141.24 158.079 141.24ZM159.207 138.816C159.879 138.816 160.439 138.768 160.887 138.672C161.351 138.56 161.703 138.416 161.943 138.24C162.183 138.048 162.303 137.824 162.303 137.568C162.303 137.2 162.023 136.896 161.463 136.656C160.919 136.416 160.175 136.296 159.231 136.296C158.319 136.296 157.671 136.424 157.287 136.68C156.919 136.936 156.735 137.256 156.735 137.64C156.735 138.12 156.951 138.44 157.383 138.6C157.815 138.744 158.423 138.816 159.207 138.816ZM168.165 141C168.277 141 168.381 140.888 168.477 140.664C168.589 140.44 168.645 140.072 168.645 139.56V131.448C168.645 130.936 168.589 130.576 168.477 130.368C168.381 130.144 168.277 130.024 168.165 130.008C168.869 130.008 169.589 129.96 170.325 129.864C171.061 129.752 171.637 129.64 172.053 129.528V130.992L172.005 131.304L172.053 131.352C172.101 131.24 172.253 131.04 172.509 130.752C172.765 130.464 173.133 130.192 173.613 129.936C174.093 129.664 174.685 129.528 175.389 129.528C176.877 129.528 178.013 129.952 178.797 130.8C179.597 131.648 179.997 132.976 179.997 134.784V139.56C179.997 140.072 180.045 140.44 180.141 140.664C180.253 140.888 180.365 141 180.477 141H176.109C176.221 141 176.325 140.888 176.421 140.664C176.533 140.44 176.589 140.072 176.589 139.56V134.856C176.589 134.104 176.509 133.52 176.349 133.104C176.189 132.672 175.965 132.368 175.677 132.192C175.405 132.016 175.085 131.928 174.717 131.928C174.269 131.928 173.837 132.04 173.421 132.264C173.021 132.472 172.693 132.808 172.437 133.272C172.181 133.72 172.053 134.32 172.053 135.072V139.56C172.053 140.072 172.101 140.44 172.197 140.664C172.309 140.888 172.421 141 172.533 141H168.165ZM184.029 141C184.141 140.984 184.245 140.864 184.341 140.64C184.453 140.416 184.509 140.056 184.509 139.56V135.072C184.509 134.432 184.445 133.88 184.317 133.416C184.205 132.936 184.013 132.568 183.741 132.312C183.469 132.056 183.101 131.928 182.637 131.928C181.853 131.928 181.213 132.208 180.717 132.768C180.237 133.328 179.997 134.176 179.997 135.312H178.245C178.245 134.544 178.365 133.816 178.605 133.128C178.845 132.424 179.189 131.808 179.637 131.28C180.085 130.736 180.621 130.312 181.245 130.008C181.869 129.688 182.557 129.528 183.309 129.528C184.269 129.528 185.093 129.704 185.781 130.056C186.469 130.392 186.997 130.96 187.365 131.76C187.733 132.56 187.917 133.648 187.917 135.024V139.56C187.917 140.056 187.965 140.416 188.061 140.64C188.173 140.864 188.285 140.984 188.397 141H184.029ZM196.553 141.24C195.289 141.24 194.233 141.112 193.385 140.856C192.553 140.584 191.889 140.2 191.393 139.704C190.897 139.192 190.545 138.576 190.337 137.856C190.129 137.136 190.025 136.32 190.025 135.408C190.025 133.6 190.529 132.168 191.537 131.112C192.545 130.056 194.089 129.528 196.169 129.528C197.385 129.528 198.369 129.696 199.121 130.032C199.889 130.368 200.473 130.816 200.873 131.376C201.273 131.936 201.545 132.56 201.689 133.248C201.849 133.92 201.929 134.6 201.929 135.288V136.416C201.929 136.368 201.705 136.32 201.257 136.272C200.825 136.208 200.089 136.176 199.049 136.176H193.481C193.481 137.056 193.745 137.72 194.273 138.168C194.817 138.6 195.697 138.816 196.913 138.816C197.937 138.816 198.849 138.696 199.649 138.456C200.465 138.2 201.057 137.96 201.425 137.736V138.456L201.665 140.28C201.361 140.488 200.777 140.704 199.913 140.928C199.049 141.136 197.929 141.24 196.553 141.24ZM194.369 134.112H198.521C198.521 133.76 198.441 133.416 198.281 133.08C198.137 132.744 197.897 132.472 197.561 132.264C197.225 132.04 196.761 131.928 196.169 131.928C195.577 131.928 195.097 132.016 194.729 132.192C194.377 132.368 194.113 132.584 193.937 132.84C193.777 133.096 193.697 133.36 193.697 133.632C193.697 133.792 193.745 133.912 193.841 133.992C193.937 134.072 194.113 134.112 194.369 134.112Z" fill="white"/>
</g>
<defs>
<filter id="filter0_d_2106_1791" x="18" y="100" width="219" height="74" filterUnits="userSpaceOnUse" color-interpolation-filters="sRGB">
<feFlood flood-opacity="0" result="BackgroundImageFix"/>
<feColorMatrix in="SourceAlpha" type="matrix" values="0 0 0 0 0 0 0 0 0 0 0 0 0 0 0 0 0 0 127 0" result="hardAlpha"/>
<feOffset dx="4" dy="4"/>
<feGaussianBlur stdDeviation="3"/>
<feComposite in2="hardAlpha" operator="out"/>
<feColorMatrix type="matrix" values="0 0 0 0 0.301961 0 0 0 0 0.835294 0 0 0 0 0.737255 0 0 0 0.2 0"/>
<feBlend mode="normal" in2="BackgroundImageFix" result="effect1_dropShadow_2106_1791"/>
<feBlend mode="normal" in="SourceGraphic" in2="effect1_dropShadow_2106_1791" result="shape"/>
</filter>
<filter id="filter1_d_2106_1791" x="46.75" y="120.75" width="33.75" height="30.5" filterUnits="userSpaceOnUse" color-interpolation-filters="sRGB">
<feFlood flood-opacity="0" result="BackgroundImageFix"/>
<feColorMatrix in="SourceAlpha" type="matrix" values="0 0 0 0 0 0 0 0 0 0 0 0 0 0 0 0 0 0 127 0" result="hardAlpha"/>
<feOffset dx="3" dy="3"/>
<feGaussianBlur stdDeviation="2"/>
<feComposite in2="hardAlpha" operator="out"/>
<feColorMatrix type="matrix" values="0 0 0 0 0 0 0 0 0 0 0 0 0 0 0 0 0 0 0.25 0"/>
<feBlend mode="normal" in2="BackgroundImageFix" result="effect1_dropShadow_2106_1791"/>
<feBlend mode="normal" in="SourceGraphic" in2="effect1_dropShadow_2106_1791" result="shape"/>
</filter>
</defs>
</svg>
