<svg width="220" height="76" viewBox="0 0 220 76" fill="none" xmlns="http://www.w3.org/2000/svg">
<rect width="220" height="76" fill="white"/>
<path d="M37 53C36.175 53 35.4688 52.7063 34.8813 52.1188C34.2938 51.5312 34 50.825 34 50V47.0375C34 46.5375 34.1125 46.075 34.3375 45.65C34.5625 45.225 34.8625 44.8625 35.2375 44.5625C36.9625 43.1625 38.2563 41.75 39.1188 40.325C39.9813 38.9 40.5875 37.625 40.9375 36.5H38.5C38.075 36.5 37.7188 36.3563 37.4313 36.0688C37.1438 35.7813 37 35.425 37 35C37 34.575 37.1438 34.2188 37.4313 33.9312C37.7188 33.6438 38.075 33.5 38.5 33.5H40.375C40.025 32.95 39.75 32.3625 39.55 31.7375C39.35 31.1125 39.25 30.45 39.25 29.75C39.25 27.875 39.9062 26.2812 41.2188 24.9688C42.5312 23.6562 44.125 23 46 23C47.875 23 49.4688 23.6562 50.7812 24.9688C52.0938 26.2812 52.75 27.875 52.75 29.75C52.75 30.45 52.65 31.1125 52.45 31.7375C52.25 32.3625 51.975 32.95 51.625 33.5H53.5C53.925 33.5 54.2812 33.6438 54.5688 33.9312C54.8563 34.2188 55 34.575 55 35C55 35.425 54.8563 35.7813 54.5688 36.0688C54.2812 36.3563 53.925 36.5 53.5 36.5H51.0625C51.4125 37.625 52.0188 38.9 52.8813 40.325C53.7438 41.75 55.0375 43.1625 56.7625 44.5625C57.1375 44.8625 57.4375 45.225 57.6625 45.65C57.8875 46.075 58 46.5375 58 47.0375V50C58 50.825 57.7063 51.5312 57.1188 52.1188C56.5312 52.7063 55.825 53 55 53H37ZM37 50H55V47C52.7 45.2 51.0375 43.3438 50.0125 41.4313C48.9875 39.5188 48.3 37.875 47.95 36.5H44.05C43.7 37.875 43.0125 39.5188 41.9875 41.4313C40.9625 43.3438 39.3 45.2 37 47V50ZM46 33.5C47.05 33.5 47.9375 33.1375 48.6625 32.4125C49.3875 31.6875 49.75 30.8 49.75 29.75C49.75 28.7 49.3875 27.8125 48.6625 27.0875C47.9375 26.3625 47.05 26 46 26C44.95 26 44.0625 26.3625 43.3375 27.0875C42.6125 27.8125 42.25 28.7 42.25 29.75C42.25 30.8 42.6125 31.6875 43.3375 32.4125C44.0625 33.1375 44.95 33.5 46 33.5Z" fill="#EA6900"/>
<path d="M79.2716 51.4C77.0049 51.4 75.0182 50.9467 73.3116 50.04C71.6049 49.1067 70.2849 47.68 69.3516 45.76C68.4182 43.84 67.9516 41.4 67.9516 38.44C67.9516 34.6533 69.0182 31.7333 71.1516 29.68C73.2849 27.6267 76.2582 26.6 80.0716 26.6C82.2849 26.6 84.1516 26.7867 85.6716 27.16C87.2182 27.5333 88.2849 27.9067 88.8716 28.28L88.0716 32.28V33.48C87.4049 32.9467 86.3516 32.4133 84.9116 31.88C83.4716 31.3467 81.8449 31.08 80.0316 31.08C78.9649 31.08 78.0449 31.24 77.2716 31.56C76.5249 31.8533 75.9116 32.3067 75.4316 32.92C74.9516 33.5067 74.5916 34.24 74.3516 35.12C74.1382 36 74.0316 37.0133 74.0316 38.16L74.1116 38.2C74.2449 38.0133 74.4582 37.76 74.7516 37.44C75.0449 37.0933 75.4449 36.76 75.9516 36.44C76.4582 36.0933 77.0849 35.8 77.8316 35.56C78.5782 35.32 79.4716 35.2 80.5116 35.2C83.5249 35.2 85.7516 35.8667 87.1916 37.2C88.6582 38.5067 89.3916 40.5333 89.3916 43.28C89.3916 44.6133 89.0982 45.9067 88.5116 47.16C87.9516 48.3867 86.9916 49.4 85.6316 50.2C84.2982 51 82.4582 51.4 80.1116 51.4H79.2716ZM78.9916 46.96C80.4849 46.96 81.5782 46.6533 82.2716 46.04C82.9649 45.4 83.3116 44.4133 83.3116 43.08C83.3116 41.6933 82.9516 40.7733 82.2316 40.32C81.5382 39.84 80.5782 39.6 79.3516 39.6C78.4182 39.6 77.6182 39.7467 76.9516 40.04C76.2849 40.3333 75.7782 40.76 75.4316 41.32C75.0849 41.8533 74.9116 42.5333 74.9116 43.36C74.9116 44.24 75.0849 44.9467 75.4316 45.48C75.8049 46.0133 76.2982 46.4 76.9116 46.64C77.5516 46.8533 78.2449 46.96 78.9916 46.96Z" fill="#EA6900"/>
<path d="M134 53C133.175 53 132.469 52.7063 131.881 52.1188C131.294 51.5312 131 50.825 131 50V47.0375C131 46.5375 131.113 46.075 131.338 45.65C131.562 45.225 131.862 44.8625 132.237 44.5625C133.962 43.1625 135.256 41.75 136.119 40.325C136.981 38.9 137.588 37.625 137.938 36.5H135.5C135.075 36.5 134.719 36.3563 134.431 36.0688C134.144 35.7813 134 35.425 134 35C134 34.575 134.144 34.2188 134.431 33.9312C134.719 33.6438 135.075 33.5 135.5 33.5H137.375C137.025 32.95 136.75 32.3625 136.55 31.7375C136.35 31.1125 136.25 30.45 136.25 29.75C136.25 27.875 136.906 26.2812 138.219 24.9688C139.531 23.6562 141.125 23 143 23C144.875 23 146.469 23.6562 147.781 24.9688C149.094 26.2812 149.75 27.875 149.75 29.75C149.75 30.45 149.65 31.1125 149.45 31.7375C149.25 32.3625 148.975 32.95 148.625 33.5H150.5C150.925 33.5 151.281 33.6438 151.569 33.9312C151.856 34.2188 152 34.575 152 35C152 35.425 151.856 35.7813 151.569 36.0688C151.281 36.3563 150.925 36.5 150.5 36.5H148.062C148.413 37.625 149.019 38.9 149.881 40.325C150.744 41.75 152.038 43.1625 153.763 44.5625C154.138 44.8625 154.438 45.225 154.663 45.65C154.888 46.075 155 46.5375 155 47.0375V50C155 50.825 154.706 51.5312 154.119 52.1188C153.531 52.7063 152.825 53 152 53H134ZM134 50H152V47C149.7 45.2 148.038 43.3438 147.013 41.4313C145.988 39.5188 145.3 37.875 144.95 36.5H141.05C140.7 37.875 140.013 39.5188 138.988 41.4313C137.963 43.3438 136.3 45.2 134 47V50ZM143 33.5C144.05 33.5 144.938 33.1375 145.663 32.4125C146.388 31.6875 146.75 30.8 146.75 29.75C146.75 28.7 146.388 27.8125 145.663 27.0875C144.938 26.3625 144.05 26 143 26C141.95 26 141.062 26.3625 140.337 27.0875C139.613 27.8125 139.25 28.7 139.25 29.75C139.25 30.8 139.613 31.6875 140.337 32.4125C141.062 33.1375 141.95 33.5 143 33.5Z" fill="#097FC5"/>
<path d="M164.544 51V50.56C164.544 50 164.917 49.04 165.664 47.68C166.437 46.2933 167.73 44.6667 169.544 42.8C170.504 41.7867 171.45 40.8667 172.384 40.04C173.344 39.2133 174.197 38.4267 174.944 37.68C175.717 36.9067 176.33 36.1467 176.784 35.4C177.264 34.6533 177.504 33.8667 177.504 33.04C177.504 32.3467 177.29 31.84 176.864 31.52C176.437 31.1733 175.73 31 174.744 31C173.597 31 172.464 31.2 171.344 31.6C170.25 32 169.25 32.4933 168.344 33.08C167.437 33.64 166.704 34.1867 166.144 34.72V33.52L165.344 29C165.904 28.4667 166.984 27.9333 168.584 27.4C170.184 26.8667 172.21 26.6 174.664 26.6C176.824 26.6 178.517 26.88 179.744 27.44C180.997 28 181.877 28.7333 182.384 29.64C182.917 30.52 183.184 31.4533 183.184 32.44C183.184 33.8533 182.944 35.1067 182.464 36.2C182.01 37.2933 181.33 38.3467 180.424 39.36C179.517 40.3733 178.397 41.4667 177.064 42.64C175.677 43.84 174.477 44.7467 173.464 45.36C172.45 45.9467 171.717 46.3067 171.264 46.44V46.56H178.784C180.384 46.56 181.69 46.4267 182.704 46.16C183.744 45.8933 184.437 45.6267 184.784 45.36L183.984 49.76V51H164.544Z" fill="#097FC5"/>
</svg>
