<svg width="1440" height="1024" viewBox="0 0 1440 1024" fill="none" xmlns="http://www.w3.org/2000/svg">
<rect width="1440" height="1024" fill="#F3832D"/>
<g filter="url(#filter0_d_2258_3896)">
<path d="M414.555 440.79C414.728 438.97 414.858 437.15 414.945 435.33C415.118 433.51 415.205 430.607 415.205 426.62C413.211 430.78 410.481 434.247 407.015 437.02C403.548 439.707 399.778 441.743 395.705 443.13C391.631 444.517 387.645 445.21 383.745 445.21C375.945 445.21 368.925 443.91 362.685 441.31C356.531 438.623 351.678 434.29 348.125 428.31C344.571 422.33 342.795 414.443 342.795 404.65C342.795 397.457 343.921 390.61 346.175 384.11C348.428 377.61 351.591 371.847 355.665 366.82C359.825 361.707 364.678 357.677 370.225 354.73C375.858 351.783 381.968 350.31 388.555 350.31C396.181 350.31 402.291 351.307 406.885 353.3C411.478 355.293 415.118 357.98 417.805 361.36C418.151 361.707 418.325 362.227 418.325 362.92C418.325 364.22 417.761 365.607 416.635 367.08C415.508 368.467 414.381 369.16 413.255 369.16C412.561 369.16 411.955 368.77 411.435 367.99C411.348 367.817 410.871 367.253 410.005 366.3C409.225 365.26 407.968 364.133 406.235 362.92C404.501 361.707 402.161 360.667 399.215 359.8C396.355 358.847 392.801 358.37 388.555 358.37C383.355 358.37 378.545 359.583 374.125 362.01C369.705 364.35 365.805 367.643 362.425 371.89C359.131 376.137 356.531 381.077 354.625 386.71C352.805 392.257 351.895 398.237 351.895 404.65C351.895 412.623 353.151 418.993 355.665 423.76C358.265 428.527 361.948 431.95 366.715 434.03C371.481 436.023 377.158 437.02 383.745 437.02C389.378 437.02 394.621 435.59 399.475 432.73C404.328 429.87 408.228 425.883 411.175 420.77C414.208 415.657 415.725 409.72 415.725 402.96C415.725 402.7 415.551 402.57 415.205 402.57L400.385 403.61C398.911 403.697 397.265 403.87 395.445 404.13C393.625 404.303 392.021 404.477 390.635 404.65H390.375C389.161 404.65 388.035 403.87 386.995 402.31C385.955 400.663 385.435 399.19 385.435 397.89C385.435 396.677 385.955 396.07 386.995 396.07H388.815C390.288 396.07 391.891 396.07 393.625 396.07C395.358 395.983 396.788 395.897 397.915 395.81L414.035 394.9C414.728 394.813 415.465 394.727 416.245 394.64C417.025 394.467 417.805 394.38 418.585 394.38C419.191 394.38 420.015 394.77 421.055 395.55C422.095 396.33 423.005 397.197 423.785 398.15C424.651 399.103 425.085 399.927 425.085 400.62C425.085 401.227 424.868 401.747 424.435 402.18C424.088 402.613 423.915 403.307 423.915 404.26V430.39C423.915 431.083 423.915 432.21 423.915 433.77C424.001 435.33 424.045 436.89 424.045 438.45C424.131 440.01 424.175 441.223 424.175 442.09C424.175 442.697 423.871 443.13 423.265 443.39C422.658 443.65 421.921 443.78 421.055 443.78C419.668 443.78 418.238 443.52 416.765 443C415.291 442.393 414.555 441.7 414.555 440.92V440.79ZM457.189 413.75H456.669C455.282 416.697 453.895 419.557 452.509 422.33C451.122 425.103 449.822 427.703 448.609 430.13C447.915 431.517 447.049 433.423 446.009 435.85C445.055 438.277 444.319 440.227 443.799 441.7C443.539 442.393 442.802 442.913 441.589 443.26C440.462 443.693 439.249 443.91 437.949 443.91C436.735 443.91 435.609 443.693 434.569 443.26C433.615 442.913 433.139 442.307 433.139 441.44C433.139 440.92 433.312 440.443 433.659 440.01C434.005 439.49 434.352 438.927 434.699 438.32C435.045 437.627 435.609 436.5 436.389 434.94C437.255 433.38 438.512 431.04 440.159 427.92C441.892 424.713 444.189 420.293 447.049 414.66H446.139C445.099 414.66 444.145 413.88 443.279 412.32C442.412 410.673 441.979 409.2 441.979 407.9C441.979 406.6 442.455 405.95 443.409 405.95H443.669C444.449 406.037 445.229 406.123 446.009 406.21C446.789 406.21 447.699 406.21 448.739 406.21H451.209C454.155 400.317 457.102 394.38 460.049 388.4C462.995 382.333 465.682 376.657 468.109 371.37C470.535 366.083 472.442 361.663 473.829 358.11C474.175 357.33 474.435 356.16 474.609 354.6C474.782 352.953 475.085 351.87 475.519 351.35C475.952 350.83 476.775 350.57 477.989 350.57C479.462 350.57 480.979 350.96 482.539 351.74C484.099 352.433 485.052 353.213 485.399 354.08C485.399 354.167 485.399 354.253 485.399 354.34C485.485 354.427 485.529 354.513 485.529 354.6C485.529 354.947 485.442 355.38 485.269 355.9C485.182 356.333 485.139 356.767 485.139 357.2C485.139 357.633 485.182 357.937 485.269 358.11C487.782 364.783 490.685 372.107 493.979 380.08C497.359 387.967 500.869 395.94 504.509 404C508.149 412.06 511.659 419.643 515.039 426.75C515.732 428.137 516.815 430.13 518.289 432.73C519.762 435.33 521.192 437.627 522.579 439.62C522.752 439.88 522.882 440.14 522.969 440.4C523.055 440.573 523.099 440.747 523.099 440.92C523.099 441.96 522.319 442.74 520.759 443.26C519.199 443.867 517.682 444.17 516.209 444.17C515.255 444.17 514.389 444.04 513.609 443.78C512.829 443.52 512.352 443.13 512.179 442.61C511.659 441.05 510.922 439.013 509.969 436.5C509.015 433.9 508.192 431.82 507.499 430.26C506.199 427.487 504.855 424.583 503.469 421.55C502.082 418.43 500.652 415.223 499.179 411.93L457.189 413.75ZM495.929 404.52C492.722 397.067 489.645 389.787 486.699 382.68C483.752 375.573 481.369 369.637 479.549 364.87C478.075 368.163 476.299 372.063 474.219 376.57C472.225 381.077 470.059 385.843 467.719 390.87C465.379 395.897 462.995 400.923 460.569 405.95L495.929 404.52ZM618.054 361.36C618.574 366.387 619.181 372.063 619.874 378.39C620.654 384.63 621.434 391.043 622.214 397.63C623.081 404.13 623.861 410.283 624.554 416.09C625.334 421.897 626.028 426.837 626.634 430.91C626.808 432.383 627.154 434.117 627.674 436.11C628.194 438.017 628.628 439.49 628.974 440.53C628.974 440.617 628.974 440.703 628.974 440.79C629.061 440.79 629.104 440.877 629.104 441.05C629.104 441.917 628.411 442.567 627.024 443C625.638 443.52 624.208 443.78 622.734 443.78C621.608 443.78 620.568 443.607 619.614 443.26C618.661 442.913 618.141 442.35 618.054 441.57C617.968 439.75 617.881 438.19 617.794 436.89C617.708 435.503 617.578 433.857 617.404 431.95C616.971 428.05 616.451 423.37 615.844 417.91C615.238 412.363 614.588 406.47 613.894 400.23C613.288 393.99 612.638 387.793 611.944 381.64C611.338 375.487 610.774 369.767 610.254 364.48C607.654 369.853 605.011 375.4 602.324 381.12C599.724 386.753 597.254 392.213 594.914 397.5C592.574 402.7 590.494 407.423 588.674 411.67C586.854 415.917 585.424 419.383 584.384 422.07C583.344 424.757 582.824 426.36 582.824 426.88C582.738 428.007 581.958 428.917 580.484 429.61C579.011 430.303 577.538 430.65 576.064 430.65C575.111 430.65 574.244 430.52 573.464 430.26C572.684 429.913 572.208 429.393 572.034 428.7C571.601 427.313 571.081 425.84 570.474 424.28C569.954 422.72 569.564 421.68 569.304 421.16C568.004 418.127 566.444 414.4 564.624 409.98C562.804 405.473 560.854 400.663 558.774 395.55C556.694 390.35 554.614 385.193 552.534 380.08C550.541 374.967 548.721 370.2 547.074 365.78C546.468 372.887 545.731 380.383 544.864 388.27C544.084 396.157 543.261 403.87 542.394 411.41C541.528 418.95 540.704 425.84 539.924 432.08C539.751 433.64 539.621 435.157 539.534 436.63C539.448 438.103 539.318 439.707 539.144 441.44C539.058 442.22 538.364 442.827 537.064 443.26C535.851 443.693 534.508 443.91 533.034 443.91C531.821 443.91 530.738 443.737 529.784 443.39C528.918 443.043 528.484 442.567 528.484 441.96V441.7C529.178 439.447 529.871 436.327 530.564 432.34C531.258 428.353 531.951 423.847 532.644 418.82C533.338 413.793 533.988 408.593 534.594 403.22C535.288 397.76 535.938 392.517 536.544 387.49C537.151 382.377 537.628 377.783 537.974 373.71C538.408 369.55 538.754 366.257 539.014 363.83C539.274 361.317 539.404 360.017 539.404 359.93C539.404 359.237 539.361 358.673 539.274 358.24C539.274 357.72 539.274 357.243 539.274 356.81C539.274 356.637 539.274 356.42 539.274 356.16C539.274 355.9 539.318 355.683 539.404 355.51C539.578 354.47 540.488 353.56 542.134 352.78C543.781 352 545.428 351.61 547.074 351.61C548.288 351.61 549.154 351.827 549.674 352.26C550.194 352.693 550.888 354.037 551.754 356.29C553.748 361.49 555.871 366.95 558.124 372.67C560.378 378.39 562.631 384.067 564.884 389.7C567.138 395.333 569.304 400.663 571.384 405.69C573.464 410.63 575.371 415.007 577.104 418.82C579.878 412.06 582.824 404.997 585.944 397.63C589.151 390.263 592.401 382.94 595.694 375.66C598.988 368.38 602.108 361.663 605.054 355.51C605.661 354.297 606.224 353.17 606.744 352.13C607.264 351.003 608.261 350.44 609.734 350.44C610.688 350.44 611.858 350.7 613.244 351.22C614.631 351.653 615.888 352.217 617.014 352.91C618.141 353.603 618.704 354.297 618.704 354.99C618.704 355.857 618.574 356.723 618.314 357.59C618.141 358.37 618.054 359.323 618.054 360.45V361.36ZM709.115 443.26C708.422 443.173 706.905 443.087 704.565 443C702.312 442.913 700.059 442.87 697.805 442.87H695.725L659.585 443.39C658.199 443.39 656.985 443.52 655.945 443.78C654.992 444.127 653.865 444.3 652.565 444.3C651.352 444.3 650.139 443.563 648.925 442.09C647.712 440.53 647.105 439.23 647.105 438.19C647.105 437.583 647.235 436.673 647.495 435.46C647.842 434.247 648.015 433.12 648.015 432.08V398.28C647.062 397.76 646.239 396.807 645.545 395.42C644.852 394.033 644.505 392.863 644.505 391.91C644.505 390.957 644.852 390.48 645.545 390.48H645.805C646.152 390.567 646.499 390.653 646.845 390.74C647.279 390.74 647.669 390.74 648.015 390.74V364.48C648.015 363.093 648.015 361.793 648.015 360.58C648.015 359.28 647.929 358.11 647.755 357.07C647.669 356.29 647.582 355.683 647.495 355.25C647.495 354.73 647.495 354.297 647.495 353.95C647.495 353.083 647.712 352.563 648.145 352.39C648.579 352.217 648.969 352.13 649.315 352.13C650.529 352.13 651.959 352.39 653.605 352.91C655.252 353.43 656.119 353.733 656.205 353.82L691.435 351.48C693.429 351.307 695.509 351.09 697.675 350.83C699.929 350.57 701.445 350.44 702.225 350.44C703.439 350.44 704.479 351.22 705.345 352.78C706.212 354.253 706.645 355.597 706.645 356.81C706.645 358.283 706.082 359.02 704.955 359.02H699.495C698.195 359.02 696.852 359.02 695.465 359.02C694.079 359.02 692.779 359.063 691.565 359.15L656.855 361.49V390.61L684.285 388.92C686.279 388.747 688.359 388.53 690.525 388.27C692.779 388.01 694.295 387.88 695.075 387.88C696.289 387.88 697.329 388.66 698.195 390.22C699.062 391.693 699.495 393.08 699.495 394.38C699.495 395.853 698.932 396.59 697.805 396.59H692.345C691.045 396.59 689.702 396.59 688.315 396.59C686.929 396.59 685.629 396.633 684.415 396.72L656.855 398.28V435.33L695.595 434.68C697.502 434.68 699.452 434.637 701.445 434.55C703.439 434.463 705.085 434.377 706.385 434.29H706.515C707.642 434.29 708.595 435.113 709.375 436.76C710.242 438.32 710.675 439.793 710.675 441.18C710.675 442.567 710.199 443.26 709.245 443.26H709.115ZM791.575 359.02C794.608 356.333 798.032 354.21 801.845 352.65C805.658 351.09 810.122 350.31 815.235 350.31C823.035 350.31 829.752 352.303 835.385 356.29C841.018 360.19 845.352 365.563 848.385 372.41C851.418 379.257 852.935 387.057 852.935 395.81C852.935 402.483 852.068 408.81 850.335 414.79C848.688 420.77 846.088 426.057 842.535 430.65C839.068 435.243 834.648 438.84 829.275 441.44C823.902 444.04 817.532 445.34 810.165 445.34C800.892 445.34 793.222 443.347 787.155 439.36C781.175 435.287 776.712 429.783 773.765 422.85C770.905 415.917 769.475 408.03 769.475 399.19C769.475 393.383 770.168 387.967 771.555 382.94C773.028 377.827 774.805 373.363 776.885 369.55C778.965 365.737 781.045 362.79 783.125 360.71C785.205 358.543 786.895 357.46 788.195 357.46C788.888 357.46 789.538 357.633 790.145 357.98C790.752 358.24 791.228 358.587 791.575 359.02ZM809.125 437.02C815.538 437.02 820.955 435.893 825.375 433.64C829.795 431.3 833.348 428.137 836.035 424.15C838.722 420.163 840.672 415.657 841.885 410.63C843.185 405.517 843.835 400.23 843.835 394.77C843.835 390.35 843.228 385.973 842.015 381.64C840.802 377.22 838.938 373.277 836.425 369.81C833.998 366.257 830.922 363.44 827.195 361.36C823.555 359.193 819.308 358.11 814.455 358.11C810.728 358.11 806.742 358.977 802.495 360.71C798.335 362.443 794.435 365.043 790.795 368.51C787.155 371.89 784.165 376.137 781.825 381.25C779.572 386.363 778.445 392.257 778.445 398.93C778.445 405.863 779.528 412.233 781.695 418.04C783.862 423.76 787.198 428.353 791.705 431.82C796.212 435.287 802.018 437.02 809.125 437.02ZM898.97 430.13C902.09 421.81 905.21 413.533 908.33 405.3C911.45 396.98 914.44 389.137 917.3 381.77C920.247 374.403 922.847 367.947 925.1 362.4C925.62 361.187 926.227 359.583 926.92 357.59C927.7 355.51 928.307 353.647 928.74 352C929 351.047 929.824 350.57 931.21 350.57C932.684 350.57 934.287 351.09 936.02 352.13C937.754 353.17 938.62 354.297 938.62 355.51C938.62 355.943 938.534 356.29 938.36 356.55C937.754 357.59 936.974 358.977 936.02 360.71C935.154 362.357 934.46 363.787 933.94 365C928.567 377.74 924.104 388.443 920.55 397.11C916.997 405.777 914.137 412.883 911.97 418.43C909.89 423.89 908.287 428.223 907.16 431.43C906.12 434.55 905.384 436.89 904.95 438.45C904.604 440.01 904.344 441.267 904.17 442.22C904.084 443.173 903.694 443.91 903 444.43C902.394 444.95 901.657 445.21 900.79 445.21C899.404 445.21 897.93 444.517 896.37 443.13C894.81 441.83 893.554 439.793 892.6 437.02C890.954 432.08 889.004 426.49 886.75 420.25C884.497 413.923 882.114 407.467 879.6 400.88C877.174 394.207 874.79 387.793 872.45 381.64C870.11 375.487 867.944 370.027 865.95 365.26C863.957 360.407 862.31 356.68 861.01 354.08C860.924 353.907 860.88 353.733 860.88 353.56C860.88 352.867 861.357 352.347 862.31 352C863.35 351.653 864.477 351.48 865.69 351.48C867.077 351.48 868.42 351.697 869.72 352.13C871.02 352.563 871.757 353.213 871.93 354.08C872.19 355.033 872.537 356.16 872.97 357.46C873.404 358.673 873.794 359.8 874.14 360.84C876.827 367.513 879.557 374.75 882.33 382.55C885.19 390.35 888.007 398.323 890.78 406.47C893.64 414.53 896.37 422.417 898.97 430.13ZM1014.95 443.26C1014.25 443.173 1012.74 443.087 1010.4 443C1008.14 442.913 1005.89 442.87 1003.64 442.87H1001.56L965.415 443.39C964.029 443.39 962.815 443.52 961.775 443.78C960.822 444.127 959.695 444.3 958.395 444.3C957.182 444.3 955.969 443.563 954.755 442.09C953.542 440.53 952.935 439.23 952.935 438.19C952.935 437.583 953.065 436.673 953.325 435.46C953.672 434.247 953.845 433.12 953.845 432.08V398.28C952.892 397.76 952.069 396.807 951.375 395.42C950.682 394.033 950.335 392.863 950.335 391.91C950.335 390.957 950.682 390.48 951.375 390.48H951.635C951.982 390.567 952.329 390.653 952.675 390.74C953.109 390.74 953.499 390.74 953.845 390.74V364.48C953.845 363.093 953.845 361.793 953.845 360.58C953.845 359.28 953.759 358.11 953.585 357.07C953.499 356.29 953.412 355.683 953.325 355.25C953.325 354.73 953.325 354.297 953.325 353.95C953.325 353.083 953.542 352.563 953.975 352.39C954.409 352.217 954.799 352.13 955.145 352.13C956.359 352.13 957.789 352.39 959.435 352.91C961.082 353.43 961.949 353.733 962.035 353.82L997.265 351.48C999.259 351.307 1001.34 351.09 1003.51 350.83C1005.76 350.57 1007.28 350.44 1008.06 350.44C1009.27 350.44 1010.31 351.22 1011.18 352.78C1012.04 354.253 1012.48 355.597 1012.48 356.81C1012.48 358.283 1011.91 359.02 1010.79 359.02H1005.33C1004.03 359.02 1002.68 359.02 1001.3 359.02C999.909 359.02 998.609 359.063 997.395 359.15L962.685 361.49V390.61L990.115 388.92C992.109 388.747 994.189 388.53 996.355 388.27C998.609 388.01 1000.13 387.88 1000.91 387.88C1002.12 387.88 1003.16 388.66 1004.03 390.22C1004.89 391.693 1005.33 393.08 1005.33 394.38C1005.33 395.853 1004.76 396.59 1003.64 396.59H998.175C996.875 396.59 995.532 396.59 994.145 396.59C992.759 396.59 991.459 396.633 990.245 396.72L962.685 398.28V435.33L1001.43 434.68C1003.33 434.68 1005.28 434.637 1007.28 434.55C1009.27 434.463 1010.92 434.377 1012.22 434.29H1012.35C1013.47 434.29 1014.43 435.113 1015.21 436.76C1016.07 438.32 1016.51 439.793 1016.51 441.18C1016.51 442.567 1016.03 443.26 1015.08 443.26H1014.95ZM1036.75 362.92H1036.62C1035.75 362.92 1034.84 362.53 1033.89 361.75C1033.02 360.883 1032.24 359.93 1031.55 358.89C1030.94 357.763 1030.64 356.853 1030.64 356.16C1030.64 355.38 1030.98 354.947 1031.68 354.86C1033.41 354.513 1035.4 354.21 1037.66 353.95C1039.91 353.69 1042.81 353.17 1046.37 352.39C1048.27 351.957 1050.87 351.61 1054.17 351.35C1057.55 351.003 1061.4 350.83 1065.74 350.83C1072.84 350.83 1078.52 351.913 1082.77 354.08C1087.01 356.247 1090.09 359.02 1092 362.4C1093.99 365.693 1094.99 369.117 1094.99 372.67C1094.99 377.35 1093.73 381.423 1091.22 384.89C1088.79 388.357 1085.63 391.173 1081.73 393.34C1077.91 395.507 1073.93 396.98 1069.77 397.76C1068.64 398.02 1067.34 398.237 1065.87 398.41C1064.39 398.497 1062.88 398.627 1061.32 398.8C1060.88 398.8 1060.41 398.843 1059.89 398.93C1059.37 398.93 1058.85 398.93 1058.33 398.93C1061.01 401.617 1064.18 405.04 1067.82 409.2C1071.54 413.273 1075.4 417.433 1079.39 421.68C1083.37 425.927 1087.19 429.653 1090.83 432.86C1092.3 434.247 1093.99 435.633 1095.9 437.02C1097.8 438.407 1099.36 439.317 1100.58 439.75C1102.05 440.357 1103.35 441.007 1104.48 441.7C1105.6 442.393 1106.17 443 1106.17 443.52C1106.17 444.3 1104.91 444.69 1102.4 444.69C1099.97 444.69 1097.41 444.387 1094.73 443.78C1092.04 443.173 1089.35 441.787 1086.67 439.62C1083.72 437.28 1080.64 434.507 1077.44 431.3C1074.32 428.007 1071.2 424.627 1068.08 421.16C1064.96 417.607 1062.01 414.27 1059.24 411.15C1056.46 408.03 1054.04 405.473 1051.96 403.48C1051.09 402.7 1050.01 401.92 1048.71 401.14C1047.49 400.36 1046.45 399.797 1045.59 399.45V428.05C1045.59 430.997 1045.63 433.9 1045.72 436.76C1045.89 439.533 1045.98 441.657 1045.98 443.13C1045.98 443.563 1045.72 443.867 1045.2 444.04C1044.68 444.3 1044.07 444.43 1043.38 444.43C1041.99 444.43 1040.47 444.083 1038.83 443.39C1037.27 442.783 1036.49 441.917 1036.49 440.79C1036.49 439.75 1036.53 437.973 1036.62 435.46C1036.7 432.947 1036.75 430.433 1036.75 427.92V362.92ZM1051.7 392.56C1054.21 392.56 1056.64 392.43 1058.98 392.17C1061.4 391.91 1063.7 391.607 1065.87 391.26C1069.42 390.653 1072.71 389.44 1075.75 387.62C1078.78 385.713 1081.21 383.503 1083.03 380.99C1084.93 378.39 1085.89 375.79 1085.89 373.19C1085.89 368.857 1084.07 365.347 1080.43 362.66C1076.79 359.973 1071.8 358.63 1065.48 358.63C1062.01 358.63 1058.5 358.803 1054.95 359.15C1051.48 359.497 1048.36 360.147 1045.59 361.1V394.9C1046.11 394.207 1046.63 393.643 1047.15 393.21C1047.75 392.777 1048.4 392.56 1049.1 392.56H1051.7Z" fill="white"/>
</g>
<path d="M627.774 618.006C627.354 618.006 626.92 618.006 626.472 618.006C626.024 618.006 625.604 618.02 625.212 618.048L616.392 618.552V628.506C616.392 628.842 616.406 629.304 616.434 629.892C616.462 630.48 616.476 631.054 616.476 631.614C616.504 632.174 616.518 632.622 616.518 632.958C616.518 633.238 616.224 633.378 615.636 633.378C615.188 633.378 614.698 633.266 614.166 633.042C613.634 632.846 613.368 632.566 613.368 632.202C613.368 631.978 613.368 631.642 613.368 631.194C613.396 630.718 613.41 630.228 613.41 629.724C613.438 629.22 613.452 628.8 613.452 628.464V618.552C613.144 618.384 612.878 618.076 612.654 617.628C612.43 617.18 612.318 616.802 612.318 616.494C612.318 616.186 612.43 616.032 612.654 616.032H612.738C612.85 616.06 612.962 616.088 613.074 616.116C613.214 616.116 613.34 616.116 613.452 616.116V607.632C613.452 607.184 613.452 606.764 613.452 606.372C613.452 605.952 613.424 605.574 613.368 605.238C613.34 604.986 613.312 604.79 613.284 604.65C613.284 604.482 613.284 604.342 613.284 604.23C613.284 603.95 613.354 603.782 613.494 603.726C613.634 603.67 613.76 603.642 613.872 603.642C614.264 603.642 614.726 603.726 615.258 603.894C615.79 604.062 616.07 604.16 616.098 604.188L627.48 603.432C628.124 603.376 628.796 603.306 629.496 603.222C630.224 603.138 630.714 603.096 630.966 603.096C631.358 603.096 631.694 603.348 631.974 603.852C632.254 604.328 632.394 604.776 632.394 605.196C632.394 605.672 632.212 605.91 631.848 605.91H630.084C629.664 605.91 629.23 605.91 628.782 605.91C628.334 605.91 627.914 605.924 627.522 605.952L616.392 606.708V616.074L625.17 615.528C625.814 615.472 626.486 615.402 627.186 615.318C627.914 615.234 628.404 615.192 628.656 615.192C629.048 615.192 629.384 615.444 629.664 615.948C629.944 616.424 630.084 616.872 630.084 617.292C630.084 617.768 629.902 618.006 629.538 618.006H627.774ZM641.005 606.288C641.005 606.82 640.823 607.282 640.459 607.674C640.095 608.038 639.591 608.22 638.947 608.22C638.415 608.22 637.925 607.954 637.477 607.422C637.057 606.862 636.847 606.288 636.847 605.7C636.847 605.14 637.015 604.664 637.351 604.272C637.715 603.88 638.247 603.684 638.947 603.684C639.451 603.684 639.913 603.964 640.333 604.524C640.781 605.084 641.005 605.672 641.005 606.288ZM637.519 617.544C637.519 617.264 637.505 616.83 637.477 616.242C637.449 615.654 637.421 615.052 637.393 614.436C637.393 613.82 637.393 613.358 637.393 613.05C637.393 612.798 637.659 612.672 638.191 612.672C638.667 612.672 639.171 612.784 639.703 613.008C640.235 613.204 640.501 613.47 640.501 613.806C640.501 614.03 640.487 614.38 640.459 614.856C640.459 615.304 640.445 615.78 640.417 616.284C640.417 616.788 640.417 617.208 640.417 617.544V628.59C640.417 628.758 640.431 629.136 640.459 629.724C640.487 630.312 640.501 630.928 640.501 631.572C640.529 632.216 640.543 632.706 640.543 633.042C640.543 633.294 640.277 633.42 639.745 633.42C639.297 633.42 638.793 633.308 638.233 633.084C637.701 632.888 637.435 632.622 637.435 632.286C637.435 632.062 637.435 631.698 637.435 631.194C637.463 630.662 637.477 630.144 637.477 629.64C637.505 629.136 637.519 628.786 637.519 628.59V617.544ZM662.455 632.286C662.483 632.062 662.497 631.684 662.497 631.152C662.497 630.62 662.497 630.074 662.497 629.514C662.525 628.926 662.539 628.478 662.539 628.17V620.694C662.539 619.042 662.315 617.726 661.867 616.746C661.419 615.738 660.495 615.234 659.095 615.234C658.143 615.234 657.177 615.416 656.197 615.78C655.245 616.144 654.377 616.746 653.593 617.586C652.809 618.426 652.207 619.546 651.787 620.946C651.591 621.646 651.437 622.472 651.325 623.424C651.241 624.348 651.185 625.272 651.157 626.196C651.157 627.12 651.143 627.918 651.115 628.59V629.262C651.115 629.934 651.129 630.592 651.157 631.236C651.185 631.88 651.213 632.482 651.241 633.042C651.241 633.322 650.975 633.462 650.443 633.462C649.995 633.462 649.519 633.35 649.015 633.126C648.511 632.93 648.259 632.65 648.259 632.286C648.259 632.062 648.259 631.656 648.259 631.068C648.287 630.48 648.301 629.906 648.301 629.346C648.329 628.758 648.343 628.366 648.343 628.17V617.712C648.343 617.432 648.329 616.998 648.301 616.41C648.273 615.822 648.245 615.22 648.217 614.604C648.217 613.988 648.217 613.526 648.217 613.218C648.217 612.938 648.483 612.798 649.015 612.798C649.463 612.798 649.939 612.91 650.443 613.134C650.947 613.33 651.199 613.61 651.199 613.974C651.199 613.974 651.185 614.17 651.157 614.562C651.157 614.954 651.143 615.402 651.115 615.906C651.115 616.41 651.115 616.844 651.115 617.208C652.011 615.724 653.173 614.59 654.601 613.806C656.057 613.022 657.555 612.63 659.095 612.63C660.439 612.63 661.517 612.882 662.329 613.386C663.169 613.862 663.799 614.492 664.219 615.276C664.667 616.06 664.961 616.914 665.101 617.838C665.241 618.762 665.311 619.658 665.311 620.526V628.59C665.311 628.758 665.325 629.136 665.353 629.724C665.381 630.312 665.395 630.928 665.395 631.572C665.423 632.216 665.437 632.706 665.437 633.042C665.437 633.322 665.171 633.462 664.639 633.462C664.191 633.462 663.715 633.35 663.211 633.126C662.707 632.93 662.455 632.664 662.455 632.328V632.286ZM689.708 613.806C689.624 614.422 689.54 615.248 689.456 616.284C689.4 617.292 689.344 618.37 689.288 619.518C689.26 620.638 689.232 621.688 689.204 622.668C689.176 623.648 689.162 624.39 689.162 624.894C689.162 625.286 689.176 625.874 689.204 626.658C689.26 627.414 689.386 628.226 689.582 629.094C689.806 629.962 690.156 630.774 690.632 631.53C690.688 631.642 690.716 631.726 690.716 631.782C690.716 632.09 690.52 632.468 690.128 632.916C689.764 633.336 689.344 633.546 688.868 633.546C688.448 633.546 688.07 633.252 687.734 632.664C687.426 632.048 687.174 631.32 686.978 630.48C686.81 629.612 686.684 628.8 686.6 628.044C685.564 630.004 684.304 631.446 682.82 632.37C681.364 633.294 679.852 633.756 678.284 633.756C676.24 633.756 674.602 633.07 673.37 631.698C672.138 630.298 671.522 628.282 671.522 625.65C671.522 623.858 671.816 622.178 672.404 620.61C672.992 619.042 673.776 617.656 674.756 616.452C675.764 615.248 676.884 614.31 678.116 613.638C679.348 612.938 680.608 612.588 681.896 612.588C682.876 612.588 683.772 612.812 684.584 613.26C685.396 613.68 686.04 614.38 686.516 615.36V613.05C686.516 612.77 686.81 612.63 687.398 612.63C687.874 612.63 688.378 612.728 688.91 612.924C689.442 613.12 689.708 613.386 689.708 613.722V613.806ZM686.474 617.04C686.222 617.292 685.984 617.418 685.76 617.418C685.648 617.418 685.55 617.362 685.466 617.25C684.99 616.438 684.43 615.864 683.786 615.528C683.17 615.192 682.54 615.024 681.896 615.024C681.028 615.024 680.146 615.29 679.25 615.822C678.382 616.326 677.57 617.054 676.814 618.006C676.086 618.93 675.498 620.036 675.05 621.324C674.602 622.584 674.378 623.956 674.378 625.44C674.378 627.568 674.742 629.066 675.47 629.934C676.198 630.802 677.122 631.236 678.242 631.236C679.586 631.236 680.86 630.802 682.064 629.934C683.268 629.038 684.262 627.806 685.046 626.238C685.858 624.67 686.306 622.85 686.39 620.778C686.418 620.386 686.432 619.84 686.432 619.14C686.432 618.44 686.446 617.74 686.474 617.04ZM697.402 608.22C697.402 607.94 697.388 607.506 697.36 606.918C697.332 606.33 697.304 605.728 697.276 605.112C697.276 604.496 697.276 604.034 697.276 603.726C697.276 603.586 697.36 603.488 697.528 603.432C697.696 603.348 697.892 603.306 698.116 603.306C698.592 603.306 699.082 603.418 699.586 603.642C700.118 603.838 700.384 604.118 700.384 604.482C700.384 604.706 700.37 605.056 700.342 605.532C700.342 605.98 700.328 606.456 700.3 606.96C700.3 607.464 700.3 607.884 700.3 608.22V628.59C700.3 628.758 700.314 629.136 700.342 629.724C700.37 630.312 700.384 630.928 700.384 631.572C700.412 632.216 700.426 632.706 700.426 633.042C700.426 633.182 700.342 633.28 700.174 633.336C700.006 633.42 699.81 633.462 699.586 633.462C699.138 633.462 698.648 633.35 698.116 633.126C697.584 632.93 697.318 632.65 697.318 632.286C697.318 632.062 697.318 631.698 697.318 631.194C697.346 630.662 697.36 630.144 697.36 629.64C697.388 629.136 697.402 628.786 697.402 628.59V608.22ZM727.235 622.836C725.667 622.472 724.491 621.912 723.707 621.156C722.923 620.372 722.531 619.336 722.531 618.048C722.531 616.956 722.881 616.004 723.581 615.192C724.281 614.38 725.219 613.75 726.395 613.302C727.571 612.826 728.845 612.588 730.217 612.588C731.841 612.588 733.171 612.826 734.207 613.302C735.243 613.75 736.153 614.394 736.937 615.234C736.993 615.29 737.021 615.416 737.021 615.612C737.021 615.976 736.867 616.382 736.559 616.83C736.279 617.278 735.985 617.502 735.677 617.502C735.509 617.502 735.285 617.32 735.005 616.956C734.585 616.312 734.053 615.85 733.409 615.57C732.793 615.262 732.191 615.08 731.603 615.024C731.015 614.94 730.553 614.898 730.217 614.898C728.593 614.898 727.361 615.22 726.521 615.864C725.681 616.48 725.261 617.236 725.261 618.132C725.261 618.692 725.443 619.168 725.807 619.56C726.199 619.952 726.969 620.288 728.117 620.568L732.149 621.534C733.969 621.954 735.397 622.64 736.433 623.592C737.497 624.544 738.029 625.888 738.029 627.624C738.029 628.744 737.693 629.766 737.021 630.69C736.377 631.614 735.453 632.356 734.249 632.916C733.045 633.476 731.617 633.756 729.965 633.756C728.341 633.756 726.983 633.56 725.891 633.168C724.827 632.776 723.973 632.314 723.329 631.782C722.685 631.25 722.223 630.76 721.943 630.312C721.663 629.864 721.523 629.57 721.523 629.43C721.523 629.01 721.719 628.576 722.111 628.128C722.531 627.652 722.895 627.414 723.203 627.414C723.399 627.414 723.539 627.512 723.623 627.708C723.847 628.268 724.155 628.828 724.547 629.388C724.967 629.948 725.597 630.41 726.437 630.774C727.277 631.138 728.453 631.32 729.965 631.32C731.673 631.32 732.975 630.956 733.871 630.228C734.795 629.5 735.257 628.66 735.257 627.708C735.257 626.728 735.005 625.93 734.501 625.314C733.997 624.698 732.975 624.208 731.435 623.844L727.235 622.836ZM760.867 626.994C760.867 627.162 760.671 627.61 760.279 628.338C759.887 629.038 759.285 629.808 758.473 630.648C757.661 631.488 756.625 632.216 755.365 632.832C754.133 633.448 752.663 633.756 750.955 633.756C749.499 633.756 748.141 633.42 746.881 632.748C745.649 632.048 744.655 631.04 743.899 629.724C743.171 628.38 742.807 626.756 742.807 624.852C742.807 623.172 743.115 621.59 743.731 620.106C744.375 618.622 745.215 617.32 746.251 616.2C747.287 615.08 748.449 614.198 749.737 613.554C751.025 612.91 752.313 612.588 753.601 612.588C754.749 612.588 755.715 612.756 756.499 613.092C757.283 613.4 757.899 613.778 758.347 614.226C758.823 614.674 759.159 615.094 759.355 615.486C759.579 615.85 759.691 616.074 759.691 616.158C759.691 616.606 759.481 617.04 759.061 617.46C758.641 617.88 758.263 618.09 757.927 618.09C757.759 618.09 757.633 618.02 757.549 617.88C757.353 617.488 757.157 617.11 756.961 616.746C756.765 616.382 756.513 616.102 756.205 615.906C755.393 615.346 754.553 615.066 753.685 615.066C752.817 615.066 751.907 615.318 750.955 615.822C750.031 616.326 749.163 617.026 748.351 617.922C747.567 618.79 746.923 619.798 746.419 620.946C745.915 622.094 745.663 623.326 745.663 624.642C745.663 626.098 745.929 627.33 746.461 628.338C747.021 629.318 747.707 630.06 748.519 630.564C749.331 631.068 750.143 631.32 750.955 631.32C752.159 631.32 753.279 631.11 754.315 630.69C755.351 630.27 756.303 629.738 757.171 629.094C758.067 628.422 758.837 627.764 759.481 627.12C759.901 626.7 760.237 626.49 760.489 626.49C760.741 626.49 760.867 626.658 760.867 626.994ZM770.875 614.31C771.435 613.89 772.107 613.498 772.891 613.134C773.675 612.77 774.655 612.588 775.831 612.588C777.427 612.588 778.841 612.994 780.073 613.806C781.305 614.618 782.257 615.78 782.929 617.292C783.629 618.776 783.979 620.582 783.979 622.71C783.979 624.054 783.755 625.384 783.307 626.7C782.887 627.988 782.243 629.178 781.375 630.27C780.535 631.334 779.485 632.188 778.225 632.832C776.993 633.448 775.565 633.756 773.941 633.756C771.141 633.756 768.957 632.916 767.389 631.236C765.849 629.528 765.079 627.218 765.079 624.306C765.079 623.074 765.275 621.856 765.667 620.652C766.087 619.42 766.577 618.3 767.137 617.292C767.725 616.284 768.299 615.472 768.859 614.856C769.419 614.24 769.853 613.932 770.161 613.932C770.441 613.932 770.679 614.058 770.875 614.31ZM773.941 631.194C775.313 631.194 776.531 630.83 777.595 630.102C778.687 629.346 779.555 628.324 780.199 627.036C780.843 625.748 781.165 624.306 781.165 622.71C781.165 620.386 780.703 618.538 779.779 617.166C778.883 615.794 777.483 615.108 775.579 615.108C774.459 615.108 773.423 615.374 772.471 615.906C771.547 616.438 770.735 617.152 770.035 618.048C769.363 618.944 768.831 619.938 768.439 621.03C768.075 622.094 767.893 623.172 767.893 624.264C767.893 626.56 768.411 628.296 769.447 629.472C770.511 630.62 772.009 631.194 773.941 631.194ZM790.259 617.586C790.259 617.306 790.245 616.872 790.217 616.284C790.189 615.696 790.161 615.094 790.133 614.478C790.133 613.862 790.133 613.4 790.133 613.092C790.133 612.812 790.413 612.672 790.973 612.672C791.421 612.672 791.897 612.784 792.401 613.008C792.933 613.204 793.199 613.484 793.199 613.848C793.199 614.128 793.171 614.436 793.115 614.772C793.087 615.108 793.073 615.514 793.073 615.99C793.633 615.066 794.431 614.268 795.467 613.596C796.503 612.924 797.749 612.588 799.205 612.588C800.045 612.588 800.829 612.728 801.557 613.008C802.285 613.288 802.873 613.624 803.321 614.016C803.797 614.408 804.035 614.772 804.035 615.108C804.035 615.556 803.867 616.032 803.531 616.536C803.223 617.04 802.887 617.292 802.523 617.292C802.299 617.292 802.103 617.152 801.935 616.872C801.655 616.34 801.207 615.948 800.591 615.696C800.003 615.444 799.499 615.318 799.079 615.318C797.903 615.318 796.811 615.682 795.803 616.41C794.823 617.138 794.095 618.258 793.619 619.77C793.423 620.386 793.283 621.072 793.199 621.828C793.115 622.584 793.059 623.494 793.031 624.558C793.031 625.622 793.031 626.952 793.031 628.548C793.031 629.416 793.059 630.256 793.115 631.068C793.199 631.88 793.241 632.524 793.241 633C793.241 633.28 792.961 633.42 792.401 633.42C791.953 633.42 791.463 633.308 790.931 633.084C790.427 632.888 790.175 632.608 790.175 632.244C790.175 632.02 790.175 631.656 790.175 631.152C790.203 630.62 790.217 630.102 790.217 629.598C790.245 629.094 790.259 628.744 790.259 628.548V617.586ZM809.691 624.768V625.188C809.691 627.008 810.153 628.478 811.077 629.598C812.029 630.718 813.205 631.278 814.605 631.278C816.397 631.278 818.035 630.998 819.519 630.438C821.031 629.85 822.347 628.954 823.467 627.75C823.663 627.526 823.845 627.372 824.013 627.288C824.181 627.176 824.321 627.12 824.433 627.12C824.713 627.12 824.853 627.288 824.853 627.624C824.853 627.876 824.643 628.324 824.223 628.968C823.831 629.612 823.215 630.312 822.375 631.068C821.535 631.796 820.471 632.426 819.183 632.958C817.895 633.49 816.369 633.756 814.605 633.756C813.177 633.756 811.875 633.406 810.699 632.706C809.551 631.978 808.641 630.942 807.969 629.598C807.297 628.254 806.961 626.658 806.961 624.81V624.222C806.709 624.026 806.499 623.802 806.331 623.55C806.163 623.298 806.079 623.074 806.079 622.878C806.079 622.514 806.345 622.332 806.877 622.332C806.905 622.332 806.961 622.332 807.045 622.332C807.157 622.304 807.227 622.29 807.255 622.29C807.451 621.282 807.843 620.218 808.431 619.098C809.047 617.978 809.817 616.928 810.741 615.948C811.665 614.94 812.715 614.128 813.891 613.512C815.095 612.896 816.383 612.588 817.755 612.588C819.491 612.588 820.863 612.896 821.871 613.512C822.907 614.1 823.635 614.87 824.055 615.822C824.503 616.746 824.727 617.712 824.727 618.72C824.727 619.672 824.643 620.428 824.475 620.988C824.335 621.548 823.985 622.01 823.425 622.374C822.865 622.71 821.955 623.074 820.695 623.466C819.435 623.858 817.923 624.18 816.159 624.432C814.423 624.656 812.449 624.768 810.237 624.768H809.691ZM810.867 622.416C812.939 622.416 814.675 622.304 816.075 622.08C817.475 621.828 818.637 621.576 819.561 621.324C820.569 621.016 821.213 620.68 821.493 620.316C821.801 619.952 821.955 619.406 821.955 618.678C821.955 616.242 820.541 615.024 817.713 615.024C816.677 615.024 815.725 615.262 814.857 615.738C813.989 616.214 813.219 616.83 812.547 617.586C811.903 618.342 811.357 619.154 810.909 620.022C810.489 620.862 810.195 621.66 810.027 622.416H810.867Z" fill="white"/>
<rect width="220" height="76" transform="translate(610.5 656)" fill="white"/>
<path d="M647.5 709C646.675 709 645.969 708.706 645.381 708.119C644.794 707.531 644.5 706.825 644.5 706V703.037C644.5 702.537 644.613 702.075 644.838 701.65C645.062 701.225 645.362 700.862 645.737 700.562C647.462 699.163 648.756 697.75 649.619 696.325C650.481 694.9 651.088 693.625 651.438 692.5H649C648.575 692.5 648.219 692.356 647.931 692.069C647.644 691.781 647.5 691.425 647.5 691C647.5 690.575 647.644 690.219 647.931 689.931C648.219 689.644 648.575 689.5 649 689.5H650.875C650.525 688.95 650.25 688.363 650.05 687.738C649.85 687.113 649.75 686.45 649.75 685.75C649.75 683.875 650.406 682.281 651.719 680.969C653.031 679.656 654.625 679 656.5 679C658.375 679 659.969 679.656 661.281 680.969C662.594 682.281 663.25 683.875 663.25 685.75C663.25 686.45 663.15 687.113 662.95 687.738C662.75 688.363 662.475 688.95 662.125 689.5H664C664.425 689.5 664.781 689.644 665.069 689.931C665.356 690.219 665.5 690.575 665.5 691C665.5 691.425 665.356 691.781 665.069 692.069C664.781 692.356 664.425 692.5 664 692.5H661.562C661.913 693.625 662.519 694.9 663.381 696.325C664.244 697.75 665.538 699.163 667.263 700.562C667.638 700.862 667.938 701.225 668.163 701.65C668.388 702.075 668.5 702.537 668.5 703.037V706C668.5 706.825 668.206 707.531 667.619 708.119C667.031 708.706 666.325 709 665.5 709H647.5ZM647.5 706H665.5V703C663.2 701.2 661.538 699.344 660.513 697.431C659.488 695.519 658.8 693.875 658.45 692.5H654.55C654.2 693.875 653.513 695.519 652.488 697.431C651.463 699.344 649.8 701.2 647.5 703V706ZM656.5 689.5C657.55 689.5 658.438 689.137 659.163 688.413C659.888 687.688 660.25 686.8 660.25 685.75C660.25 684.7 659.888 683.812 659.163 683.088C658.438 682.363 657.55 682 656.5 682C655.45 682 654.562 682.363 653.837 683.088C653.113 683.812 652.75 684.7 652.75 685.75C652.75 686.8 653.113 687.688 653.837 688.413C654.562 689.137 655.45 689.5 656.5 689.5Z" fill="#EA6900"/>
<path d="M689.772 707.4C687.505 707.4 685.518 706.947 683.812 706.04C682.105 705.107 680.785 703.68 679.852 701.76C678.918 699.84 678.452 697.4 678.452 694.44C678.452 690.653 679.518 687.733 681.652 685.68C683.785 683.627 686.758 682.6 690.572 682.6C692.785 682.6 694.652 682.787 696.172 683.16C697.718 683.533 698.785 683.907 699.372 684.28L698.572 688.28V689.48C697.905 688.947 696.852 688.413 695.412 687.88C693.972 687.347 692.345 687.08 690.532 687.08C689.465 687.08 688.545 687.24 687.772 687.56C687.025 687.853 686.412 688.307 685.932 688.92C685.452 689.507 685.092 690.24 684.852 691.12C684.638 692 684.532 693.013 684.532 694.16L684.612 694.2C684.745 694.013 684.958 693.76 685.252 693.44C685.545 693.093 685.945 692.76 686.452 692.44C686.958 692.093 687.585 691.8 688.332 691.56C689.078 691.32 689.972 691.2 691.012 691.2C694.025 691.2 696.252 691.867 697.692 693.2C699.158 694.507 699.892 696.533 699.892 699.28C699.892 700.613 699.598 701.907 699.012 703.16C698.452 704.387 697.492 705.4 696.132 706.2C694.798 707 692.958 707.4 690.612 707.4H689.772ZM689.492 702.96C690.985 702.96 692.078 702.653 692.772 702.04C693.465 701.4 693.812 700.413 693.812 699.08C693.812 697.693 693.452 696.773 692.732 696.32C692.038 695.84 691.078 695.6 689.852 695.6C688.918 695.6 688.118 695.747 687.452 696.04C686.785 696.333 686.278 696.76 685.932 697.32C685.585 697.853 685.412 698.533 685.412 699.36C685.412 700.24 685.585 700.947 685.932 701.48C686.305 702.013 686.798 702.4 687.412 702.64C688.052 702.853 688.745 702.96 689.492 702.96Z" fill="#EA6900"/>
<path d="M744.5 709C743.675 709 742.969 708.706 742.381 708.119C741.794 707.531 741.5 706.825 741.5 706V703.037C741.5 702.537 741.613 702.075 741.838 701.65C742.062 701.225 742.362 700.862 742.737 700.562C744.462 699.163 745.756 697.75 746.619 696.325C747.481 694.9 748.088 693.625 748.438 692.5H746C745.575 692.5 745.219 692.356 744.931 692.069C744.644 691.781 744.5 691.425 744.5 691C744.5 690.575 744.644 690.219 744.931 689.931C745.219 689.644 745.575 689.5 746 689.5H747.875C747.525 688.95 747.25 688.363 747.05 687.738C746.85 687.113 746.75 686.45 746.75 685.75C746.75 683.875 747.406 682.281 748.719 680.969C750.031 679.656 751.625 679 753.5 679C755.375 679 756.969 679.656 758.281 680.969C759.594 682.281 760.25 683.875 760.25 685.75C760.25 686.45 760.15 687.113 759.95 687.738C759.75 688.363 759.475 688.95 759.125 689.5H761C761.425 689.5 761.781 689.644 762.069 689.931C762.356 690.219 762.5 690.575 762.5 691C762.5 691.425 762.356 691.781 762.069 692.069C761.781 692.356 761.425 692.5 761 692.5H758.562C758.913 693.625 759.519 694.9 760.381 696.325C761.244 697.75 762.538 699.163 764.263 700.562C764.638 700.862 764.938 701.225 765.163 701.65C765.388 702.075 765.5 702.537 765.5 703.037V706C765.5 706.825 765.206 707.531 764.619 708.119C764.031 708.706 763.325 709 762.5 709H744.5ZM744.5 706H762.5V703C760.2 701.2 758.538 699.344 757.513 697.431C756.488 695.519 755.8 693.875 755.45 692.5H751.55C751.2 693.875 750.513 695.519 749.488 697.431C748.463 699.344 746.8 701.2 744.5 703V706ZM753.5 689.5C754.55 689.5 755.438 689.137 756.163 688.413C756.888 687.688 757.25 686.8 757.25 685.75C757.25 684.7 756.888 683.812 756.163 683.088C755.438 682.363 754.55 682 753.5 682C752.45 682 751.562 682.363 750.837 683.088C750.113 683.812 749.75 684.7 749.75 685.75C749.75 686.8 750.113 687.688 750.837 688.413C751.562 689.137 752.45 689.5 753.5 689.5Z" fill="#097FC5"/>
<path d="M775.044 707V706.56C775.044 706 775.417 705.04 776.164 703.68C776.937 702.293 778.23 700.667 780.044 698.8C781.004 697.787 781.95 696.867 782.884 696.04C783.844 695.213 784.697 694.427 785.444 693.68C786.217 692.907 786.83 692.147 787.284 691.4C787.764 690.653 788.004 689.867 788.004 689.04C788.004 688.347 787.79 687.84 787.364 687.52C786.937 687.173 786.23 687 785.244 687C784.097 687 782.964 687.2 781.844 687.6C780.75 688 779.75 688.493 778.844 689.08C777.937 689.64 777.204 690.187 776.644 690.72V689.52L775.844 685C776.404 684.467 777.484 683.933 779.084 683.4C780.684 682.867 782.71 682.6 785.164 682.6C787.324 682.6 789.017 682.88 790.244 683.44C791.497 684 792.377 684.733 792.884 685.64C793.417 686.52 793.684 687.453 793.684 688.44C793.684 689.853 793.444 691.107 792.964 692.2C792.51 693.293 791.83 694.347 790.924 695.36C790.017 696.373 788.897 697.467 787.564 698.64C786.177 699.84 784.977 700.747 783.964 701.36C782.95 701.947 782.217 702.307 781.764 702.44V702.56H789.284C790.884 702.56 792.19 702.427 793.204 702.16C794.244 701.893 794.937 701.627 795.284 701.36L794.484 705.76V707H775.044Z" fill="#097FC5"/>
<defs>
<filter id="filter0_d_2258_3896" x="338.795" y="350.31" width="771.371" height="103.03" filterUnits="userSpaceOnUse" color-interpolation-filters="sRGB">
<feFlood flood-opacity="0" result="BackgroundImageFix"/>
<feColorMatrix in="SourceAlpha" type="matrix" values="0 0 0 0 0 0 0 0 0 0 0 0 0 0 0 0 0 0 127 0" result="hardAlpha"/>
<feOffset dy="4"/>
<feGaussianBlur stdDeviation="2"/>
<feComposite in2="hardAlpha" operator="out"/>
<feColorMatrix type="matrix" values="0 0 0 0 0 0 0 0 0 0 0 0 0 0 0 0 0 0 0.25 0"/>
<feBlend mode="normal" in2="BackgroundImageFix" result="effect1_dropShadow_2258_3896"/>
<feBlend mode="normal" in="SourceGraphic" in2="effect1_dropShadow_2258_3896" result="shape"/>
</filter>
</defs>
</svg>
