<svg width="107" height="55" viewBox="0 0 107 55" fill="none" xmlns="http://www.w3.org/2000/svg">
<g filter="url(#filter0_d_2258_3925)">
<rect x="2" y="2" width="97" height="45" rx="10" fill="#F3832D" shape-rendering="crispEdges"/>
<path d="M30.4 23.752L30.304 20.584C30.304 19.4213 30.704 18.84 31.504 18.84C32.3147 18.84 32.72 19.4213 32.72 20.584C32.72 21.2453 32.6827 22.2747 32.608 23.672C32.928 23.736 33.1787 23.8693 33.36 24.072C33.552 24.2747 33.648 24.5147 33.648 24.792C33.648 25.0693 33.5573 25.3093 33.376 25.512C33.1947 25.7147 32.9387 25.8373 32.608 25.88L32.72 29.432C32.72 30.584 32.3147 31.16 31.504 31.16C30.704 31.16 30.304 30.584 30.304 29.432L30.4 25.8L28.176 25.752L26.016 25.8L26.128 29.432C26.128 30.584 25.7227 31.16 24.912 31.16C24.1013 31.16 23.696 30.584 23.696 29.432L23.808 25.88C23.4773 25.8373 23.2213 25.7147 23.04 25.512C22.8693 25.2987 22.784 25.0587 22.784 24.792C22.784 24.5147 22.8747 24.2747 23.056 24.072C23.248 23.8693 23.4987 23.736 23.808 23.672L23.712 20.6C23.712 19.4373 24.1173 18.856 24.928 18.856C25.7387 18.856 26.144 19.4373 26.144 20.6C26.144 21.2827 26.1067 22.3333 26.032 23.752L28.176 23.8C28.9013 23.8 29.6427 23.784 30.4 23.752ZM40.9979 29.224C41.9472 29.224 42.7365 28.7973 43.3659 27.944C43.9952 27.0907 44.3099 26.104 44.3099 24.984C44.3099 23.8533 43.9952 22.872 43.3659 22.04C42.7472 21.1973 41.9579 20.776 40.9979 20.776C40.0485 20.776 39.2592 21.1973 38.6299 22.04C38.0112 22.872 37.7019 23.8533 37.7019 24.984C37.7019 26.104 38.0165 27.0907 38.6459 27.944C39.2752 28.7973 40.0592 29.224 40.9979 29.224ZM41.0139 18.76C42.6032 18.76 43.9259 19.368 44.9819 20.584C46.0485 21.7893 46.5819 23.2613 46.5819 25C46.5819 26.728 46.0485 28.2 44.9819 29.416C43.9152 30.632 42.5872 31.24 40.9979 31.24C39.4192 31.24 38.0965 30.632 37.0299 29.416C35.9632 28.2 35.4299 26.728 35.4299 25C35.4299 23.2613 35.9632 21.7893 37.0299 20.584C38.1072 19.368 39.4352 18.76 41.0139 18.76ZM51.2098 24.728L51.3058 29.432C51.3058 30.584 50.9058 31.16 50.1058 31.16C49.2098 31.16 48.7618 30.4827 48.7618 29.128C48.7618 28.0613 48.9004 26.616 49.1778 24.792C49.1778 24.2907 49.1191 23.528 49.0018 22.504C48.8844 21.48 48.8258 20.7333 48.8258 20.264C48.8258 19.784 48.9324 19.4213 49.1458 19.176C49.3591 18.92 49.6578 18.792 50.0418 18.792C50.8204 18.792 51.2098 19.3947 51.2098 20.6C52.0951 19.4267 53.1831 18.84 54.4738 18.84C55.2418 18.84 55.9084 19.0267 56.4738 19.4C57.0498 19.7733 57.4924 20.2693 57.8018 20.888C58.1858 20.312 58.6871 19.8267 59.3058 19.432C59.9244 19.0373 60.5911 18.84 61.3058 18.84C62.5111 18.84 63.4444 19.2613 64.1058 20.104C64.7778 20.936 65.1138 21.9547 65.1138 23.16L65.0178 27.24C65.0178 28.264 65.0818 28.8347 65.2098 28.952C65.3164 29.048 65.4551 29.112 65.6258 29.144C65.7964 29.176 65.9084 29.2293 65.9618 29.304C66.0258 29.368 66.0578 29.464 66.0578 29.592C66.0578 30.04 65.9031 30.4187 65.5938 30.728C65.2951 31.0373 64.9431 31.192 64.5378 31.192C63.8658 31.192 63.4018 30.9627 63.1458 30.504C62.8898 30.0347 62.7618 29.3467 62.7618 28.44L62.8418 24.152C62.8418 23.1707 62.6924 22.3813 62.3938 21.784C62.1058 21.1867 61.6684 20.888 61.0818 20.888C60.5058 20.888 59.9138 21.2773 59.3058 22.056C58.7084 22.824 58.2871 23.7147 58.0418 24.728L58.1378 29.432C58.1378 30.584 57.7378 31.16 56.9378 31.16C56.0418 31.16 55.5938 30.4827 55.5938 29.128C55.5938 28.0613 55.7324 26.616 56.0098 24.792C56.0098 23.576 55.8658 22.6213 55.5778 21.928C55.2898 21.2347 54.8524 20.888 54.2658 20.888C53.6791 20.888 53.0818 21.2773 52.4738 22.056C51.8764 22.824 51.4551 23.7147 51.2098 24.728ZM75.8346 22.328C75.8346 21.944 75.68 21.592 75.3706 21.272C75.0613 20.952 74.6186 20.792 74.0426 20.792C73.2853 20.792 72.64 21.112 72.1066 21.752C71.584 22.392 71.216 23.16 71.0026 24.056C71.6426 24.2053 72.3573 24.28 73.1466 24.28C73.9466 24.28 74.592 24.1093 75.0826 23.768C75.584 23.4267 75.8346 22.9467 75.8346 22.328ZM77.7386 29.064C77.7386 29.48 77.344 29.9493 76.5546 30.472C75.7653 30.984 74.9226 31.24 74.0266 31.24C73.1306 31.24 72.3573 31.0853 71.7066 30.776C71.0666 30.456 70.5386 30.0293 70.1226 29.496C69.248 28.3973 68.7573 27.1013 68.6506 25.608C67.9253 25.32 67.5626 24.8773 67.5626 24.28C67.5626 23.9813 67.6586 23.7413 67.8506 23.56C68.0533 23.368 68.2986 23.272 68.5866 23.272C68.672 23.272 68.768 23.288 68.8746 23.32C69.248 21.9973 69.8826 20.9093 70.7786 20.056C71.6746 19.192 72.72 18.76 73.9146 18.76C75.12 18.76 76.1173 19.1067 76.9066 19.8C77.7066 20.4827 78.1066 21.304 78.1066 22.264C78.1066 23.2133 77.8666 23.992 77.3866 24.6C76.48 25.7093 75.0773 26.264 73.1786 26.264C72.5493 26.264 71.8186 26.1947 70.9866 26.056C71.1466 26.952 71.4826 27.704 71.9946 28.312C72.5066 28.92 73.0933 29.224 73.7546 29.224C74.4906 29.224 75.2746 28.9733 76.1066 28.472C76.384 28.3013 76.64 28.216 76.8746 28.216C77.1093 28.216 77.312 28.296 77.4826 28.456C77.6533 28.616 77.7386 28.8187 77.7386 29.064Z" fill="white"/>
</g>
<defs>
<filter id="filter0_d_2258_3925" x="0" y="0" width="107" height="55" filterUnits="userSpaceOnUse" color-interpolation-filters="sRGB">
<feFlood flood-opacity="0" result="BackgroundImageFix"/>
<feColorMatrix in="SourceAlpha" type="matrix" values="0 0 0 0 0 0 0 0 0 0 0 0 0 0 0 0 0 0 127 0" result="hardAlpha"/>
<feOffset dx="3" dy="3"/>
<feGaussianBlur stdDeviation="2.5"/>
<feComposite in2="hardAlpha" operator="out"/>
<feColorMatrix type="matrix" values="0 0 0 0 0 0 0 0 0 0 0 0 0 0 0 0 0 0 0.2 0"/>
<feBlend mode="normal" in2="BackgroundImageFix" result="effect1_dropShadow_2258_3925"/>
<feBlend mode="normal" in="SourceGraphic" in2="effect1_dropShadow_2258_3925" result="shape"/>
</filter>
</defs>
</svg>
