<svg width="272" height="310" viewBox="0 0 272 310" fill="none" xmlns="http://www.w3.org/2000/svg">
<g filter="url(#filter0_d_2258_3991)">
<rect width="260" height="298" transform="translate(3 3)" fill="#F7E6D5"/>
<path d="M58 277C51.125 277 45.2396 274.552 40.3438 269.656C35.4479 264.76 33 258.875 33 252V227.312C33 223.146 33.9375 219.292 35.8125 215.75C37.6875 212.208 40.1875 209.188 43.3125 206.688C57.6875 195.021 68.4688 183.25 75.6562 171.375C82.8438 159.5 87.8958 148.875 90.8125 139.5H70.5C66.9583 139.5 63.9896 138.302 61.5938 135.906C59.1979 133.51 58 130.542 58 127C58 123.458 59.1979 120.49 61.5938 118.094C63.9896 115.698 66.9583 114.5 70.5 114.5H86.125C83.2083 109.917 80.9167 105.021 79.25 99.8125C77.5833 94.6042 76.75 89.0833 76.75 83.25C76.75 67.625 82.2188 54.3438 93.1562 43.4062C104.094 32.4688 117.375 27 133 27C148.625 27 161.906 32.4688 172.844 43.4062C183.781 54.3438 189.25 67.625 189.25 83.25C189.25 89.0833 188.417 94.6042 186.75 99.8125C185.083 105.021 182.792 109.917 179.875 114.5H195.5C199.042 114.5 202.01 115.698 204.406 118.094C206.802 120.49 208 123.458 208 127C208 130.542 206.802 133.51 204.406 135.906C202.01 138.302 199.042 139.5 195.5 139.5H175.188C178.104 148.875 183.156 159.5 190.344 171.375C197.531 183.25 208.312 195.021 222.688 206.688C225.812 209.188 228.312 212.208 230.188 215.75C232.062 219.292 233 223.146 233 227.312V252C233 258.875 230.552 264.76 225.656 269.656C220.76 274.552 214.875 277 208 277H58ZM58 252H208V227C188.833 212 174.979 196.531 166.438 180.594C157.896 164.656 152.167 150.958 149.25 139.5H116.75C113.833 150.958 108.104 164.656 99.5625 180.594C91.0208 196.531 77.1667 212 58 227V252ZM133 114.5C141.75 114.5 149.146 111.479 155.188 105.438C161.229 99.3958 164.25 92 164.25 83.25C164.25 74.5 161.229 67.1042 155.188 61.0625C149.146 55.0208 141.75 52 133 52C124.25 52 116.854 55.0208 110.812 61.0625C104.771 67.1042 101.75 74.5 101.75 83.25C101.75 92 104.771 99.3958 110.812 105.438C116.854 111.479 124.25 114.5 133 114.5Z" fill="#097FC5"/>
</g>
<defs>
<filter id="filter0_d_2258_3991" x="0" y="0" width="272" height="310" filterUnits="userSpaceOnUse" color-interpolation-filters="sRGB">
<feFlood flood-opacity="0" result="BackgroundImageFix"/>
<feColorMatrix in="SourceAlpha" type="matrix" values="0 0 0 0 0 0 0 0 0 0 0 0 0 0 0 0 0 0 127 0" result="hardAlpha"/>
<feOffset dx="3" dy="3"/>
<feGaussianBlur stdDeviation="3"/>
<feComposite in2="hardAlpha" operator="out"/>
<feColorMatrix type="matrix" values="0 0 0 0 0 0 0 0 0 0 0 0 0 0 0 0 0 0 0.25 0"/>
<feBlend mode="normal" in2="BackgroundImageFix" result="effect1_dropShadow_2258_3991"/>
<feBlend mode="normal" in="SourceGraphic" in2="effect1_dropShadow_2258_3991" result="shape"/>
</filter>
</defs>
</svg>
