<svg width="1440" height="1024" viewBox="0 0 1440 1024" fill="none" xmlns="http://www.w3.org/2000/svg">
<rect width="1440" height="1024" fill="#F6F6F6"/>
<path d="M603.82 212.4H603.78C603.647 212.4 603.313 212.413 602.78 212.44C602.247 212.467 601.66 212.507 601.02 212.56C600.407 212.587 599.873 212.613 599.42 212.64C598.967 212.667 598.74 212.68 598.74 212.68C598.073 212.707 597.42 212.773 596.78 212.88C596.167 212.96 595.713 213.013 595.42 213.04H595.38C595.033 213.04 594.74 212.84 594.5 212.44C594.26 212.013 594.14 211.627 594.14 211.28C594.14 210.88 594.287 210.68 594.58 210.68C594.793 210.68 595.167 210.693 595.7 210.72C596.233 210.747 596.807 210.76 597.42 210.76C597.633 210.76 597.847 210.76 598.06 210.76C598.3 210.733 598.513 210.72 598.7 210.72L611.18 210C611.793 209.947 612.42 209.893 613.06 209.84C613.7 209.787 614.18 209.733 614.5 209.68H614.62C614.94 209.68 615.207 209.88 615.42 210.28C615.66 210.68 615.78 211.067 615.78 211.44C615.78 211.84 615.633 212.04 615.34 212.04C615.073 212.04 614.633 212.027 614.02 212C613.407 211.947 612.78 211.92 612.14 211.92C611.98 211.92 611.82 211.933 611.66 211.96C611.5 211.96 611.353 211.96 611.22 211.96L606.14 212.24V233.76C606.14 234.587 606.153 235.387 606.18 236.16C606.233 236.933 606.26 237.547 606.26 238C606.26 238.133 606.193 238.227 606.06 238.28C605.927 238.36 605.767 238.4 605.58 238.4C605.207 238.4 604.807 238.293 604.38 238.08C603.953 237.893 603.74 237.627 603.74 237.28C603.74 236.96 603.753 236.467 603.78 235.8C603.807 235.107 603.82 234.413 603.82 233.72V212.4ZM634.106 237.32C634.133 237.107 634.146 236.747 634.146 236.24C634.146 235.733 634.146 235.213 634.146 234.68C634.173 234.12 634.186 233.693 634.186 233.4V226.28C634.186 225.213 634.093 224.267 633.906 223.44C633.719 222.613 633.359 221.96 632.826 221.48C632.319 221 631.546 220.76 630.506 220.76C629.573 220.76 628.613 220.96 627.626 221.36C626.639 221.76 625.746 222.387 624.946 223.24C624.146 224.067 623.546 225.16 623.146 226.52C622.959 227.187 622.813 227.973 622.706 228.88C622.626 229.787 622.573 230.68 622.546 231.56C622.546 232.413 622.533 233.16 622.506 233.8V234.44C622.506 235.08 622.519 235.707 622.546 236.32C622.573 236.933 622.599 237.507 622.626 238.04C622.626 238.28 622.426 238.4 622.026 238.4C621.679 238.4 621.293 238.293 620.866 238.08C620.466 237.893 620.266 237.64 620.266 237.32C620.266 237.107 620.266 236.72 620.266 236.16C620.293 235.6 620.306 235.053 620.306 234.52C620.333 233.96 620.346 233.587 620.346 233.4V214.4C620.346 214.133 620.333 213.72 620.306 213.16C620.279 212.6 620.253 212.027 620.226 211.44C620.226 210.853 620.226 210.413 620.226 210.12C620.226 209.88 620.426 209.76 620.826 209.76C621.199 209.76 621.586 209.867 621.986 210.08C622.386 210.267 622.586 210.52 622.586 210.84C622.586 211.053 622.573 211.413 622.546 211.92C622.546 212.427 622.533 212.96 622.506 213.52C622.506 214.053 622.506 214.48 622.506 214.8V223.68C623.039 222.587 623.746 221.68 624.626 220.96C625.506 220.213 626.453 219.653 627.466 219.28C628.506 218.88 629.519 218.68 630.506 218.68C631.786 218.68 632.813 218.92 633.586 219.4C634.359 219.853 634.946 220.453 635.346 221.2C635.746 221.947 636.013 222.76 636.146 223.64C636.279 224.493 636.346 225.32 636.346 226.12V233.8C636.346 233.96 636.359 234.32 636.386 234.88C636.413 235.44 636.426 236.027 636.426 236.64C636.453 237.253 636.466 237.72 636.466 238.04C636.466 238.28 636.253 238.4 635.826 238.4C635.479 238.4 635.106 238.293 634.706 238.08C634.306 237.893 634.106 237.653 634.106 237.36V237.32ZM644.822 229.96V230.08C644.822 232.267 645.315 233.907 646.302 235C647.315 236.093 648.502 236.64 649.862 236.64C651.595 236.64 653.168 236.333 654.582 235.72C656.022 235.08 657.275 234.187 658.342 233.04C658.662 232.693 658.942 232.52 659.182 232.52C659.395 232.52 659.502 232.653 659.502 232.92C659.502 233.16 659.302 233.587 658.902 234.2C658.502 234.813 657.902 235.467 657.102 236.16C656.328 236.827 655.328 237.413 654.102 237.92C652.902 238.4 651.488 238.64 649.862 238.64C648.502 238.64 647.275 238.307 646.182 237.64C645.115 236.947 644.262 235.973 643.622 234.72C642.982 233.44 642.662 231.933 642.662 230.2V229.6C642.102 229.227 641.822 228.827 641.822 228.4C641.822 228.08 642.048 227.92 642.502 227.92C642.555 227.92 642.635 227.92 642.742 227.92C642.875 227.893 642.942 227.88 642.942 227.88C643.102 226.92 643.462 225.907 644.022 224.84C644.608 223.773 645.342 222.773 646.222 221.84C647.102 220.907 648.102 220.147 649.222 219.56C650.342 218.947 651.555 218.64 652.862 218.64C654.488 218.64 655.782 218.92 656.742 219.48C657.702 220.04 658.382 220.76 658.782 221.64C659.208 222.52 659.422 223.44 659.422 224.4C659.422 225.173 659.328 225.813 659.142 226.32C658.955 226.827 658.582 227.267 658.022 227.64C657.488 227.987 656.688 228.333 655.622 228.68C654.422 229.027 652.955 229.333 651.222 229.6C649.488 229.84 647.515 229.96 645.302 229.96H644.822ZM645.942 228C647.968 228 649.688 227.893 651.102 227.68C652.542 227.467 653.715 227.227 654.622 226.96C655.448 226.72 656.035 226.493 656.382 226.28C656.755 226.067 656.995 225.813 657.102 225.52C657.208 225.227 657.262 224.84 657.262 224.36C657.262 223.187 656.875 222.267 656.102 221.6C655.328 220.907 654.235 220.56 652.822 220.56C651.835 220.56 650.902 220.813 650.022 221.32C649.142 221.8 648.355 222.427 647.662 223.2C646.995 223.973 646.435 224.787 645.982 225.64C645.528 226.493 645.235 227.28 645.102 228H645.942ZM700.725 221.8C700.858 221.427 700.991 221 701.125 220.52C701.258 220.013 701.378 219.52 701.485 219.04C701.565 218.773 701.818 218.64 702.245 218.64C702.618 218.64 702.991 218.733 703.365 218.92C703.738 219.08 703.925 219.307 703.925 219.6C703.925 219.68 703.911 219.747 703.885 219.8C703.698 220.227 703.498 220.693 703.285 221.2C703.098 221.707 702.938 222.133 702.805 222.48L698.285 235.36C698.178 235.68 698.058 236.053 697.925 236.48C697.818 236.88 697.698 237.307 697.565 237.76C697.485 238.08 697.338 238.307 697.125 238.44C696.938 238.573 696.725 238.64 696.485 238.64C696.165 238.64 695.845 238.56 695.525 238.4C695.205 238.24 694.965 238.08 694.805 237.92C694.618 237.707 694.498 237.44 694.445 237.12C694.391 236.8 694.311 236.467 694.205 236.12L690.285 223.04L685.885 235.36C685.725 235.813 685.591 236.227 685.485 236.6C685.405 236.947 685.298 237.333 685.165 237.76C685.031 238.347 684.685 238.64 684.125 238.64C683.858 238.64 683.565 238.56 683.245 238.4C682.951 238.24 682.725 238.08 682.565 237.92C682.378 237.707 682.258 237.48 682.205 237.24C682.151 237 682.045 236.627 681.885 236.12L677.805 222C677.698 221.707 677.565 221.347 677.405 220.92C677.245 220.467 677.085 220.04 676.925 219.64C676.898 219.587 676.885 219.533 676.885 219.48C676.885 219.293 676.991 219.16 677.205 219.08C677.445 218.973 677.711 218.92 678.005 218.92C678.378 218.92 678.725 218.987 679.045 219.12C679.391 219.253 679.578 219.453 679.605 219.72C679.658 219.987 679.725 220.32 679.805 220.72C679.885 221.093 679.965 221.427 680.045 221.72L683.805 235.44L688.405 222.28C688.618 221.48 688.791 220.64 688.925 219.76C688.951 219.6 689.045 219.493 689.205 219.44C689.365 219.36 689.538 219.32 689.725 219.32C690.125 219.32 690.538 219.413 690.965 219.6C691.418 219.787 691.658 219.987 691.685 220.2C691.765 220.787 691.885 221.36 692.045 221.92L696.125 235.44L700.725 221.8ZM710.463 213.92C709.957 213.92 709.503 213.693 709.103 213.24C708.73 212.76 708.543 212.28 708.543 211.8C708.543 211.293 708.663 210.893 708.903 210.6C709.17 210.307 709.557 210.16 710.063 210.16C710.517 210.16 710.943 210.4 711.343 210.88C711.743 211.333 711.943 211.827 711.943 212.36C711.943 213.4 711.45 213.92 710.463 213.92ZM709.183 223.28C709.183 223.013 709.17 222.6 709.143 222.04C709.117 221.48 709.09 220.907 709.063 220.32C709.063 219.733 709.063 219.293 709.063 219C709.063 218.787 709.263 218.68 709.663 218.68C710.037 218.68 710.423 218.787 710.823 219C711.25 219.187 711.463 219.427 711.463 219.72C711.463 219.933 711.45 220.267 711.423 220.72C711.423 221.147 711.41 221.6 711.383 222.08C711.383 222.56 711.383 222.96 711.383 223.28V233.8C711.383 233.96 711.397 234.32 711.423 234.88C711.45 235.44 711.463 236.027 711.463 236.64C711.49 237.253 711.503 237.72 711.503 238.04C711.503 238.253 711.303 238.36 710.903 238.36C710.557 238.36 710.17 238.253 709.743 238.04C709.317 237.853 709.103 237.613 709.103 237.32C709.103 237.107 709.103 236.76 709.103 236.28C709.13 235.773 709.143 235.28 709.143 234.8C709.17 234.32 709.183 233.987 709.183 233.8V223.28ZM733.131 226.24C733.131 225.173 733.025 224.227 732.811 223.4C732.625 222.573 732.265 221.92 731.731 221.44C731.225 220.96 730.465 220.72 729.451 220.72C728.518 220.72 727.558 220.92 726.571 221.32C725.585 221.72 724.691 222.347 723.891 223.2C723.091 224.027 722.491 225.12 722.091 226.48C721.771 227.547 721.585 228.747 721.531 230.08C721.505 231.387 721.478 232.627 721.451 233.8V234.36C721.451 235.107 721.465 235.813 721.491 236.48C721.545 237.12 721.571 237.64 721.571 238.04C721.571 238.28 721.371 238.4 720.971 238.4C720.625 238.4 720.238 238.293 719.811 238.08C719.411 237.893 719.211 237.64 719.211 237.32C719.211 237.107 719.211 236.76 719.211 236.28C719.238 235.773 719.251 235.28 719.251 234.8C719.278 234.32 719.291 233.987 719.291 233.8V223.4C719.291 223.133 719.278 222.72 719.251 222.16C719.225 221.6 719.198 221.027 719.171 220.44C719.171 219.853 719.171 219.413 719.171 219.12C719.171 218.88 719.371 218.76 719.771 218.76C720.145 218.76 720.531 218.867 720.931 219.08C721.331 219.267 721.531 219.52 721.531 219.84C721.531 220.053 721.531 220.4 721.531 220.88C721.531 221.333 721.518 221.813 721.491 222.32C721.491 222.827 721.491 223.267 721.491 223.64C722.025 222.547 722.718 221.64 723.571 220.92C724.451 220.173 725.398 219.613 726.411 219.24C727.451 218.84 728.465 218.64 729.451 218.64C730.731 218.64 731.758 218.88 732.531 219.36C733.305 219.813 733.891 220.413 734.291 221.16C734.691 221.907 734.958 222.72 735.091 223.6C735.225 224.453 735.291 225.28 735.291 226.08V233.8C735.291 233.96 735.305 234.32 735.331 234.88C735.358 235.44 735.371 236.027 735.371 236.64C735.398 237.253 735.411 237.72 735.411 238.04C735.411 238.28 735.211 238.4 734.811 238.4C734.465 238.4 734.078 238.293 733.651 238.08C733.251 237.893 733.051 237.64 733.051 237.32C733.051 237.107 733.051 236.787 733.051 236.36C733.078 235.907 733.091 235.44 733.091 234.96C733.118 234.48 733.131 234.093 733.131 233.8V226.24ZM756.647 226.24C756.647 225.173 756.54 224.227 756.327 223.4C756.14 222.573 755.78 221.92 755.247 221.44C754.74 220.96 753.98 220.72 752.967 220.72C752.034 220.72 751.074 220.92 750.087 221.32C749.1 221.72 748.207 222.347 747.407 223.2C746.607 224.027 746.007 225.12 745.607 226.48C745.287 227.547 745.1 228.747 745.047 230.08C745.02 231.387 744.994 232.627 744.967 233.8V234.36C744.967 235.107 744.98 235.813 745.007 236.48C745.06 237.12 745.087 237.64 745.087 238.04C745.087 238.28 744.887 238.4 744.487 238.4C744.14 238.4 743.754 238.293 743.327 238.08C742.927 237.893 742.727 237.64 742.727 237.32C742.727 237.107 742.727 236.76 742.727 236.28C742.754 235.773 742.767 235.28 742.767 234.8C742.794 234.32 742.807 233.987 742.807 233.8V223.4C742.807 223.133 742.794 222.72 742.767 222.16C742.74 221.6 742.714 221.027 742.687 220.44C742.687 219.853 742.687 219.413 742.687 219.12C742.687 218.88 742.887 218.76 743.287 218.76C743.66 218.76 744.047 218.867 744.447 219.08C744.847 219.267 745.047 219.52 745.047 219.84C745.047 220.053 745.047 220.4 745.047 220.88C745.047 221.333 745.034 221.813 745.007 222.32C745.007 222.827 745.007 223.267 745.007 223.64C745.54 222.547 746.234 221.64 747.087 220.92C747.967 220.173 748.914 219.613 749.927 219.24C750.967 218.84 751.98 218.64 752.967 218.64C754.247 218.64 755.274 218.88 756.047 219.36C756.82 219.813 757.407 220.413 757.807 221.16C758.207 221.907 758.474 222.72 758.607 223.6C758.74 224.453 758.807 225.28 758.807 226.08V233.8C758.807 233.96 758.82 234.32 758.847 234.88C758.874 235.44 758.887 236.027 758.887 236.64C758.914 237.253 758.927 237.72 758.927 238.04C758.927 238.28 758.727 238.4 758.327 238.4C757.98 238.4 757.594 238.293 757.167 238.08C756.767 237.893 756.567 237.64 756.567 237.32C756.567 237.107 756.567 236.787 756.567 236.36C756.594 235.907 756.607 235.44 756.607 234.96C756.634 234.48 756.647 234.093 756.647 233.8V226.24ZM767.283 229.96V230.08C767.283 232.267 767.776 233.907 768.763 235C769.776 236.093 770.963 236.64 772.323 236.64C774.056 236.64 775.629 236.333 777.043 235.72C778.483 235.08 779.736 234.187 780.803 233.04C781.123 232.693 781.403 232.52 781.643 232.52C781.856 232.52 781.963 232.653 781.963 232.92C781.963 233.16 781.763 233.587 781.363 234.2C780.963 234.813 780.363 235.467 779.563 236.16C778.789 236.827 777.789 237.413 776.563 237.92C775.363 238.4 773.949 238.64 772.323 238.64C770.963 238.64 769.736 238.307 768.643 237.64C767.576 236.947 766.723 235.973 766.083 234.72C765.443 233.44 765.123 231.933 765.123 230.2V229.6C764.563 229.227 764.283 228.827 764.283 228.4C764.283 228.08 764.509 227.92 764.963 227.92C765.016 227.92 765.096 227.92 765.202 227.92C765.336 227.893 765.403 227.88 765.403 227.88C765.563 226.92 765.923 225.907 766.483 224.84C767.069 223.773 767.803 222.773 768.683 221.84C769.563 220.907 770.563 220.147 771.683 219.56C772.803 218.947 774.016 218.64 775.323 218.64C776.949 218.64 778.243 218.92 779.203 219.48C780.163 220.04 780.843 220.76 781.243 221.64C781.669 222.52 781.883 223.44 781.883 224.4C781.883 225.173 781.789 225.813 781.603 226.32C781.416 226.827 781.043 227.267 780.483 227.64C779.949 227.987 779.149 228.333 778.083 228.68C776.883 229.027 775.416 229.333 773.683 229.6C771.949 229.84 769.976 229.96 767.763 229.96H767.283ZM768.403 228C770.429 228 772.149 227.893 773.563 227.68C775.003 227.467 776.176 227.227 777.083 226.96C777.909 226.72 778.496 226.493 778.843 226.28C779.216 226.067 779.456 225.813 779.563 225.52C779.669 225.227 779.723 224.84 779.723 224.36C779.723 223.187 779.336 222.267 778.563 221.6C777.789 220.907 776.696 220.56 775.283 220.56C774.296 220.56 773.363 220.813 772.483 221.32C771.603 221.8 770.816 222.427 770.123 223.2C769.456 223.973 768.896 224.787 768.442 225.64C767.989 226.493 767.696 227.28 767.562 228H768.403ZM788.041 223.32C788.041 223.053 788.028 222.64 788.001 222.08C787.975 221.52 787.948 220.947 787.921 220.36C787.921 219.773 787.921 219.333 787.921 219.04C787.921 218.8 788.121 218.68 788.521 218.68C788.895 218.68 789.281 218.787 789.681 219C790.081 219.187 790.281 219.44 790.281 219.76C790.281 220.08 790.268 220.48 790.241 220.96C790.241 221.413 790.241 221.88 790.241 222.36C790.775 221.347 791.601 220.48 792.721 219.76C793.868 219.013 795.148 218.64 796.561 218.64C797.281 218.64 797.988 218.773 798.681 219.04C799.375 219.28 799.948 219.587 800.401 219.96C800.855 220.307 801.081 220.653 801.081 221C801.081 221.373 800.961 221.76 800.721 222.16C800.481 222.56 800.228 222.76 799.961 222.76C799.748 222.76 799.561 222.627 799.401 222.36C799.135 221.827 798.681 221.44 798.041 221.2C797.401 220.96 796.868 220.84 796.441 220.84C795.295 220.84 794.175 221.227 793.081 222C791.988 222.773 791.215 223.893 790.761 225.36C790.575 225.973 790.441 226.64 790.361 227.36C790.281 228.08 790.228 228.947 790.201 229.96C790.201 230.973 790.201 232.24 790.201 233.76C790.201 234.587 790.215 235.387 790.241 236.16C790.295 236.933 790.321 237.547 790.321 238C790.321 238.24 790.121 238.36 789.721 238.36C789.375 238.36 788.988 238.253 788.561 238.04C788.161 237.853 787.961 237.6 787.961 237.28C787.961 237.067 787.961 236.72 787.961 236.24C787.988 235.733 788.001 235.24 788.001 234.76C788.028 234.28 788.041 233.947 788.041 233.76V223.32ZM820.893 213.92C820.386 213.92 819.933 213.693 819.533 213.24C819.16 212.76 818.973 212.28 818.973 211.8C818.973 211.293 819.093 210.893 819.333 210.6C819.6 210.307 819.986 210.16 820.493 210.16C820.946 210.16 821.373 210.4 821.773 210.88C822.173 211.333 822.373 211.827 822.373 212.36C822.373 213.4 821.88 213.92 820.893 213.92ZM819.613 223.28C819.613 223.013 819.6 222.6 819.573 222.04C819.546 221.48 819.52 220.907 819.493 220.32C819.493 219.733 819.493 219.293 819.493 219C819.493 218.787 819.693 218.68 820.093 218.68C820.466 218.68 820.853 218.787 821.253 219C821.68 219.187 821.893 219.427 821.893 219.72C821.893 219.933 821.88 220.267 821.853 220.72C821.853 221.147 821.84 221.6 821.813 222.08C821.813 222.56 821.813 222.96 821.813 223.28V233.8C821.813 233.96 821.826 234.32 821.853 234.88C821.88 235.44 821.893 236.027 821.893 236.64C821.92 237.253 821.933 237.72 821.933 238.04C821.933 238.253 821.733 238.36 821.333 238.36C820.986 238.36 820.6 238.253 820.173 238.04C819.746 237.853 819.533 237.613 819.533 237.32C819.533 237.107 819.533 236.76 819.533 236.28C819.56 235.773 819.573 235.28 819.573 234.8C819.6 234.32 819.613 233.987 819.613 233.8V223.28ZM833.761 228.16C832.294 227.813 831.188 227.307 830.441 226.64C829.721 225.947 829.361 224.987 829.361 223.76C829.361 222.747 829.694 221.853 830.361 221.08C831.028 220.307 831.908 219.707 833.001 219.28C834.094 218.853 835.294 218.64 836.601 218.64C838.121 218.64 839.428 218.88 840.521 219.36C841.614 219.84 842.428 220.427 842.961 221.12C843.041 221.2 843.081 221.333 843.081 221.52C843.081 222 842.934 222.373 842.641 222.64C842.348 222.907 842.108 223.04 841.921 223.04C841.814 223.04 841.721 223 841.641 222.92C841.588 222.813 841.508 222.693 841.401 222.56C840.974 221.893 840.428 221.427 839.761 221.16C839.094 220.867 838.468 220.693 837.881 220.64C837.294 220.56 836.868 220.52 836.601 220.52C835.054 220.52 833.814 220.84 832.881 221.48C831.948 222.12 831.481 222.907 831.481 223.84C831.481 224.4 831.708 224.893 832.161 225.32C832.641 225.72 833.454 226.053 834.601 226.32L838.441 227.24C840.148 227.64 841.494 228.267 842.481 229.12C843.468 229.973 843.961 231.227 843.961 232.88C843.961 233.92 843.654 234.88 843.041 235.76C842.428 236.64 841.548 237.347 840.401 237.88C839.281 238.387 837.934 238.64 836.361 238.64C834.868 238.64 833.601 238.453 832.561 238.08C831.548 237.733 830.734 237.32 830.121 236.84C829.508 236.333 829.068 235.867 828.801 235.44C828.534 234.987 828.401 234.68 828.401 234.52C828.401 234.147 828.548 233.787 828.841 233.44C829.161 233.067 829.454 232.88 829.721 232.88C829.881 232.88 830.001 232.973 830.081 233.16C830.481 234.173 831.014 234.933 831.681 235.44C832.348 235.947 833.081 236.28 833.881 236.44C834.708 236.573 835.534 236.64 836.361 236.64C838.014 236.64 839.334 236.267 840.321 235.52C841.308 234.747 841.801 233.893 841.801 232.96C841.801 232 841.494 231.213 840.881 230.6C840.294 229.96 839.254 229.467 837.761 229.12L833.761 228.16Z" fill="#A45212"/>
<path d="M468.27 278.32C470.136 276.667 472.243 275.36 474.59 274.4C476.936 273.44 479.683 272.96 482.83 272.96C487.63 272.96 491.763 274.187 495.23 276.64C498.696 279.04 501.363 282.347 503.23 286.56C505.096 290.773 506.03 295.573 506.03 300.96C506.03 305.067 505.496 308.96 504.43 312.64C503.416 316.32 501.816 319.573 499.63 322.4C497.496 325.227 494.776 327.44 491.47 329.04C488.163 330.64 484.243 331.44 479.71 331.44C474.003 331.44 469.283 330.213 465.55 327.76C461.87 325.253 459.123 321.867 457.31 317.6C455.55 313.333 454.67 308.48 454.67 303.04C454.67 299.467 455.096 296.133 455.95 293.04C456.856 289.893 457.95 287.147 459.23 284.8C460.51 282.453 461.79 280.64 463.07 279.36C464.35 278.027 465.39 277.36 466.19 277.36C466.616 277.36 467.016 277.467 467.39 277.68C467.763 277.84 468.056 278.053 468.27 278.32ZM479.07 326.32C483.016 326.32 486.35 325.627 489.07 324.24C491.79 322.8 493.976 320.853 495.63 318.4C497.283 315.947 498.483 313.173 499.23 310.08C500.03 306.933 500.43 303.68 500.43 300.32C500.43 297.6 500.056 294.907 499.31 292.24C498.563 289.52 497.416 287.093 495.87 284.96C494.376 282.773 492.483 281.04 490.19 279.76C487.95 278.427 485.336 277.76 482.35 277.76C480.056 277.76 477.603 278.293 474.99 279.36C472.43 280.427 470.03 282.027 467.79 284.16C465.55 286.24 463.71 288.853 462.27 292C460.883 295.147 460.19 298.773 460.19 302.88C460.19 307.147 460.856 311.067 462.19 314.64C463.523 318.16 465.576 320.987 468.35 323.12C471.123 325.253 474.696 326.32 479.07 326.32ZM517.559 300.64C517.559 300.107 517.532 299.28 517.479 298.16C517.426 297.04 517.372 295.893 517.319 294.72C517.319 293.547 517.319 292.667 517.319 292.08C517.319 291.547 517.852 291.28 518.919 291.28C519.772 291.28 520.679 291.493 521.639 291.92C522.652 292.293 523.159 292.827 523.159 293.52C523.159 294.053 523.106 294.64 522.999 295.28C522.946 295.92 522.919 296.693 522.919 297.6C523.986 295.84 525.506 294.32 527.479 293.04C529.452 291.76 531.826 291.12 534.599 291.12C536.199 291.12 537.692 291.387 539.079 291.92C540.466 292.453 541.586 293.093 542.439 293.84C543.346 294.587 543.799 295.28 543.799 295.92C543.799 296.773 543.479 297.68 542.839 298.64C542.252 299.6 541.612 300.08 540.919 300.08C540.492 300.08 540.119 299.813 539.799 299.28C539.266 298.267 538.412 297.52 537.239 297.04C536.119 296.56 535.159 296.32 534.359 296.32C532.119 296.32 530.039 297.013 528.119 298.4C526.252 299.787 524.866 301.92 523.959 304.8C523.586 305.973 523.319 307.28 523.159 308.72C522.999 310.16 522.892 311.893 522.839 313.92C522.839 315.947 522.839 318.48 522.839 321.52C522.839 323.173 522.892 324.773 522.999 326.32C523.159 327.867 523.239 329.093 523.239 330C523.239 330.533 522.706 330.8 521.639 330.8C520.786 330.8 519.852 330.587 518.839 330.16C517.879 329.787 517.399 329.253 517.399 328.56C517.399 328.133 517.399 327.44 517.399 326.48C517.452 325.467 517.479 324.48 517.479 323.52C517.532 322.56 517.559 321.893 517.559 321.52V300.64ZM583.534 293.44C583.374 294.613 583.214 296.187 583.054 298.16C582.947 300.08 582.841 302.133 582.734 304.32C582.681 306.453 582.627 308.453 582.574 310.32C582.521 312.187 582.494 313.6 582.494 314.56C582.494 315.307 582.521 316.427 582.574 317.92C582.681 319.36 582.921 320.907 583.294 322.56C583.721 324.213 584.387 325.76 585.294 327.2C585.401 327.413 585.454 327.573 585.454 327.68C585.454 328.267 585.081 328.987 584.334 329.84C583.641 330.64 582.841 331.04 581.934 331.04C581.134 331.04 580.414 330.48 579.774 329.36C579.187 328.187 578.707 326.8 578.334 325.2C578.014 323.547 577.774 322 577.614 320.56C575.641 324.293 573.241 327.04 570.414 328.8C567.641 330.56 564.761 331.44 561.774 331.44C557.881 331.44 554.761 330.133 552.414 327.52C550.067 324.853 548.894 321.013 548.894 316C548.894 312.587 549.454 309.387 550.574 306.4C551.694 303.413 553.187 300.773 555.054 298.48C556.974 296.187 559.107 294.4 561.454 293.12C563.801 291.787 566.201 291.12 568.654 291.12C570.521 291.12 572.227 291.547 573.774 292.4C575.321 293.2 576.547 294.533 577.454 296.4V292C577.454 291.467 578.014 291.2 579.134 291.2C580.041 291.2 581.001 291.387 582.014 291.76C583.027 292.133 583.534 292.64 583.534 293.28V293.44ZM577.374 299.6C576.894 300.08 576.441 300.32 576.014 300.32C575.801 300.32 575.614 300.213 575.454 300C574.547 298.453 573.481 297.36 572.254 296.72C571.081 296.08 569.881 295.76 568.654 295.76C567.001 295.76 565.321 296.267 563.614 297.28C561.961 298.24 560.414 299.627 558.974 301.44C557.587 303.2 556.467 305.307 555.614 307.76C554.761 310.16 554.334 312.773 554.334 315.6C554.334 319.653 555.027 322.507 556.414 324.16C557.801 325.813 559.561 326.64 561.694 326.64C564.254 326.64 566.681 325.813 568.974 324.16C571.267 322.453 573.161 320.107 574.654 317.12C576.201 314.133 577.054 310.667 577.214 306.72C577.267 305.973 577.294 304.933 577.294 303.6C577.294 302.267 577.321 300.933 577.374 299.6ZM624.67 328.64C624.723 328.213 624.75 327.493 624.75 326.48C624.75 325.467 624.75 324.427 624.75 323.36C624.803 322.24 624.83 321.387 624.83 320.8V306.56C624.83 303.413 624.403 300.907 623.55 299.04C622.696 297.12 620.936 296.16 618.27 296.16C616.456 296.16 614.616 296.507 612.75 297.2C610.936 297.893 609.283 299.04 607.79 300.64C606.296 302.24 605.15 304.373 604.35 307.04C603.976 308.373 603.683 309.947 603.47 311.76C603.31 313.52 603.203 315.28 603.15 317.04C603.15 318.8 603.123 320.32 603.07 321.6V322.88C603.07 324.16 603.096 325.413 603.15 326.64C603.203 327.867 603.256 329.013 603.31 330.08C603.31 330.613 602.803 330.88 601.79 330.88C600.936 330.88 600.03 330.667 599.07 330.24C598.11 329.867 597.63 329.333 597.63 328.64C597.63 328.213 597.63 327.44 597.63 326.32C597.683 325.2 597.71 324.107 597.71 323.04C597.763 321.92 597.79 321.173 597.79 320.8V300.88C597.79 300.347 597.763 299.52 597.71 298.4C597.656 297.28 597.603 296.133 597.55 294.96C597.55 293.787 597.55 292.907 597.55 292.32C597.55 291.787 598.056 291.52 599.07 291.52C599.923 291.52 600.83 291.733 601.79 292.16C602.75 292.533 603.23 293.067 603.23 293.76C603.23 293.76 603.203 294.133 603.15 294.88C603.15 295.627 603.123 296.48 603.07 297.44C603.07 298.4 603.07 299.227 603.07 299.92C604.776 297.093 606.99 294.933 609.71 293.44C612.483 291.947 615.336 291.2 618.27 291.2C620.83 291.2 622.883 291.68 624.43 292.64C626.03 293.547 627.23 294.747 628.03 296.24C628.883 297.733 629.443 299.36 629.71 301.12C629.976 302.88 630.11 304.587 630.11 306.24V321.6C630.11 321.92 630.136 322.64 630.19 323.76C630.243 324.88 630.27 326.053 630.27 327.28C630.323 328.507 630.35 329.44 630.35 330.08C630.35 330.613 629.843 330.88 628.83 330.88C627.976 330.88 627.07 330.667 626.11 330.24C625.15 329.867 624.67 329.36 624.67 328.72V328.64ZM671.381 320.56C669.408 323.76 667.034 326.053 664.261 327.44C661.488 328.773 658.688 329.44 655.861 329.44C651.648 329.44 648.288 328.053 645.781 325.28C643.274 322.507 642.021 318.453 642.021 313.12C642.021 310.4 642.528 307.733 643.541 305.12C644.554 302.507 645.941 300.16 647.701 298.08C649.514 295.947 651.568 294.267 653.861 293.04C656.208 291.76 658.688 291.12 661.301 291.12C663.488 291.12 665.461 291.547 667.221 292.4C669.034 293.2 670.448 294.48 671.461 296.24C671.461 295.227 671.408 294.4 671.301 293.76C671.248 293.12 671.221 292.533 671.221 292C671.221 291.467 671.728 291.2 672.741 291.2C673.594 291.2 674.501 291.413 675.461 291.84C676.421 292.213 676.901 292.72 676.901 293.36V293.44C676.848 294.453 676.768 295.68 676.661 297.12C676.608 298.56 676.581 299.973 676.581 301.36V326C676.581 329.893 675.674 333.173 673.861 335.84C672.048 338.507 669.648 340.533 666.661 341.92C663.728 343.307 660.474 344 656.901 344C653.221 344 650.261 343.36 648.021 342.08C645.834 340.853 644.021 339.093 642.581 336.8C642.421 336.533 642.341 336.293 642.341 336.08C642.341 335.28 642.741 334.427 643.541 333.52C644.394 332.667 645.168 332.24 645.861 332.24C646.394 332.24 646.768 332.507 646.981 333.04C647.941 335.227 649.141 336.773 650.581 337.68C652.074 338.64 654.181 339.12 656.901 339.12C659.674 339.12 662.128 338.587 664.261 337.52C666.448 336.453 668.181 334.933 669.461 332.96C670.741 330.987 671.381 328.64 671.381 325.92V320.56ZM671.461 298.8C671.034 299.387 670.528 299.68 669.941 299.68C669.514 299.68 669.168 299.52 668.901 299.2C668.101 298.133 667.008 297.307 665.621 296.72C664.234 296.133 662.821 295.84 661.381 295.84C659.408 295.84 657.568 296.347 655.861 297.36C654.208 298.32 652.741 299.653 651.461 301.36C650.234 303.013 649.248 304.853 648.501 306.88C647.808 308.907 647.461 310.96 647.461 313.04C647.461 317.253 648.154 320.24 649.541 322C650.981 323.76 653.088 324.64 655.861 324.64C657.781 324.64 659.781 324.16 661.861 323.2C663.994 322.24 665.888 320.827 667.541 318.96C669.248 317.093 670.421 314.773 671.061 312C671.221 311.413 671.328 310.4 671.381 308.96C671.434 307.52 671.461 305.893 671.461 304.08C671.461 302.267 671.461 300.507 671.461 298.8ZM694.027 314.32V315.12C694.027 318.587 694.907 321.387 696.667 323.52C698.481 325.653 700.721 326.72 703.387 326.72C706.801 326.72 709.921 326.187 712.747 325.12C715.627 324 718.134 322.293 720.267 320C720.641 319.573 720.987 319.28 721.307 319.12C721.627 318.907 721.894 318.8 722.107 318.8C722.641 318.8 722.907 319.12 722.907 319.76C722.907 320.24 722.507 321.093 721.707 322.32C720.961 323.547 719.787 324.88 718.187 326.32C716.587 327.707 714.561 328.907 712.107 329.92C709.654 330.933 706.747 331.44 703.387 331.44C700.667 331.44 698.187 330.773 695.947 329.44C693.761 328.053 692.027 326.08 690.747 323.52C689.467 320.96 688.827 317.92 688.827 314.4V313.28C688.347 312.907 687.947 312.48 687.627 312C687.307 311.52 687.147 311.093 687.147 310.72C687.147 310.027 687.654 309.68 688.667 309.68C688.721 309.68 688.827 309.68 688.987 309.68C689.201 309.627 689.334 309.6 689.387 309.6C689.761 307.68 690.507 305.653 691.627 303.52C692.801 301.387 694.267 299.387 696.027 297.52C697.787 295.6 699.787 294.053 702.027 292.88C704.321 291.707 706.774 291.12 709.387 291.12C712.694 291.12 715.307 291.707 717.227 292.88C719.201 294 720.587 295.467 721.387 297.28C722.241 299.04 722.667 300.88 722.667 302.8C722.667 304.613 722.507 306.053 722.187 307.12C721.921 308.187 721.254 309.067 720.187 309.76C719.121 310.4 717.387 311.093 714.987 311.84C712.587 312.587 709.707 313.2 706.347 313.68C703.041 314.107 699.281 314.32 695.067 314.32H694.027ZM696.267 309.84C700.214 309.84 703.521 309.627 706.187 309.2C708.854 308.72 711.067 308.24 712.827 307.76C714.747 307.173 715.974 306.533 716.507 305.84C717.094 305.147 717.387 304.107 717.387 302.72C717.387 298.08 714.694 295.76 709.307 295.76C707.334 295.76 705.521 296.213 703.867 297.12C702.214 298.027 700.747 299.2 699.467 300.64C698.241 302.08 697.201 303.627 696.347 305.28C695.547 306.88 694.987 308.4 694.667 309.84H696.267ZM763.753 280.56H763.673C762.873 280.56 762.073 280.08 761.273 279.12C760.473 278.16 760.073 277.333 760.073 276.64C760.073 276.107 760.313 275.813 760.793 275.76C764.153 275.12 766.82 274.64 768.793 274.32C770.767 273.947 772.367 273.68 773.593 273.52C774.873 273.307 776.047 273.2 777.113 273.2C778.18 273.147 779.433 273.12 780.873 273.12C787.86 273.12 793.007 274.293 796.313 276.64C799.62 278.933 801.273 282.133 801.273 286.24C801.273 290.933 799.78 294.667 796.793 297.44C793.86 300.213 789.94 302.107 785.033 303.12C783.54 303.44 781.567 303.733 779.113 304C776.713 304.267 774.5 304.4 772.473 304.4C772.047 304.4 771.62 304.4 771.193 304.4C770.82 304.4 770.473 304.373 770.153 304.32C769.833 304.213 769.567 304.107 769.353 304V320.8C769.353 322.613 769.38 324.4 769.433 326.16C769.54 327.867 769.593 329.173 769.593 330.08C769.593 330.613 769.033 330.88 767.913 330.88C767.06 330.88 766.127 330.667 765.113 330.24C764.1 329.867 763.593 329.333 763.593 328.64C763.593 328 763.62 326.907 763.673 325.36C763.727 323.813 763.753 322.267 763.753 320.72V280.56ZM769.353 301.04C769.513 300.933 769.673 300.853 769.833 300.8C769.993 300.747 770.18 300.72 770.393 300.72C775.3 300.4 779.327 299.787 782.473 298.88C785.62 297.973 788.073 296.933 789.833 295.76C791.647 294.533 792.953 293.333 793.753 292.16C794.553 290.933 795.033 289.84 795.193 288.88C795.407 287.867 795.513 287.147 795.513 286.72C795.513 283.733 794.207 281.573 791.593 280.24C789.033 278.853 785.407 278.16 780.713 278.16C778.793 278.16 776.847 278.32 774.873 278.64C772.9 278.907 771.06 279.28 769.353 279.76V301.04ZM812.487 282.8C812.487 282.267 812.46 281.44 812.407 280.32C812.353 279.2 812.3 278.053 812.247 276.88C812.247 275.707 812.247 274.827 812.247 274.24C812.247 273.973 812.407 273.787 812.727 273.68C813.047 273.52 813.42 273.44 813.847 273.44C814.753 273.44 815.687 273.653 816.647 274.08C817.66 274.453 818.167 274.987 818.167 275.68C818.167 276.107 818.14 276.773 818.087 277.68C818.087 278.533 818.06 279.44 818.007 280.4C818.007 281.36 818.007 282.16 818.007 282.8V321.6C818.007 321.92 818.033 322.64 818.087 323.76C818.14 324.88 818.167 326.053 818.167 327.28C818.22 328.507 818.247 329.44 818.247 330.08C818.247 330.347 818.087 330.533 817.767 330.64C817.447 330.8 817.073 330.88 816.647 330.88C815.793 330.88 814.86 330.667 813.847 330.24C812.833 329.867 812.327 329.333 812.327 328.64C812.327 328.213 812.327 327.52 812.327 326.56C812.38 325.547 812.407 324.56 812.407 323.6C812.46 322.64 812.487 321.973 812.487 321.6V282.8ZM864.862 293.44C864.702 294.613 864.542 296.187 864.382 298.16C864.276 300.08 864.169 302.133 864.062 304.32C864.009 306.453 863.956 308.453 863.902 310.32C863.849 312.187 863.822 313.6 863.822 314.56C863.822 315.307 863.849 316.427 863.902 317.92C864.009 319.36 864.249 320.907 864.622 322.56C865.049 324.213 865.716 325.76 866.622 327.2C866.729 327.413 866.782 327.573 866.782 327.68C866.782 328.267 866.409 328.987 865.662 329.84C864.969 330.64 864.169 331.04 863.262 331.04C862.462 331.04 861.742 330.48 861.102 329.36C860.516 328.187 860.036 326.8 859.662 325.2C859.342 323.547 859.102 322 858.942 320.56C856.969 324.293 854.569 327.04 851.742 328.8C848.969 330.56 846.089 331.44 843.102 331.44C839.209 331.44 836.089 330.133 833.742 327.52C831.396 324.853 830.222 321.013 830.222 316C830.222 312.587 830.782 309.387 831.902 306.4C833.022 303.413 834.516 300.773 836.382 298.48C838.302 296.187 840.436 294.4 842.782 293.12C845.129 291.787 847.529 291.12 849.982 291.12C851.849 291.12 853.556 291.547 855.102 292.4C856.649 293.2 857.876 294.533 858.782 296.4V292C858.782 291.467 859.342 291.2 860.462 291.2C861.369 291.2 862.329 291.387 863.342 291.76C864.356 292.133 864.862 292.64 864.862 293.28V293.44ZM858.702 299.6C858.222 300.08 857.769 300.32 857.342 300.32C857.129 300.32 856.942 300.213 856.782 300C855.876 298.453 854.809 297.36 853.582 296.72C852.409 296.08 851.209 295.76 849.982 295.76C848.329 295.76 846.649 296.267 844.942 297.28C843.289 298.24 841.742 299.627 840.302 301.44C838.916 303.2 837.796 305.307 836.942 307.76C836.089 310.16 835.662 312.773 835.662 315.6C835.662 319.653 836.356 322.507 837.742 324.16C839.129 325.813 840.889 326.64 843.022 326.64C845.582 326.64 848.009 325.813 850.302 324.16C852.596 322.453 854.489 320.107 855.982 317.12C857.529 314.133 858.382 310.667 858.542 306.72C858.596 305.973 858.622 304.933 858.622 303.6C858.622 302.267 858.649 300.933 858.702 299.6ZM880.238 343.12C879.224 343.12 878.078 343.013 876.798 342.8C875.518 342.587 874.264 341.973 873.038 340.96C872.771 340.693 872.638 340.347 872.638 339.92C872.638 339.173 872.904 338.32 873.438 337.36C873.971 336.453 874.584 336 875.278 336C875.651 336 875.998 336.187 876.318 336.56C877.011 337.253 877.758 337.68 878.558 337.84C879.358 338 880.104 338.08 880.798 338.08C881.651 338.08 882.478 337.76 883.278 337.12C884.131 336.48 884.931 335.333 885.678 333.68L889.198 326.32L877.518 299.84C877.144 299.04 876.611 297.973 875.918 296.64C875.278 295.307 874.718 294.213 874.238 293.36C874.131 293.147 874.078 292.987 874.078 292.88C874.078 292.453 874.398 292.133 875.038 291.92C875.731 291.707 876.478 291.6 877.278 291.6C878.024 291.6 878.691 291.68 879.278 291.84C879.918 292 880.291 292.267 880.398 292.64C880.771 293.6 881.144 294.587 881.518 295.6C881.944 296.56 882.371 297.547 882.798 298.56L892.078 320.08L901.918 299.36C902.451 298.293 902.958 297.093 903.438 295.76C903.971 294.427 904.424 293.147 904.798 291.92C904.958 291.44 905.411 291.2 906.158 291.2C906.958 291.2 907.811 291.493 908.718 292.08C909.624 292.667 910.078 293.387 910.078 294.24C910.078 294.56 909.998 294.88 909.838 295.2C909.411 296 908.904 296.96 908.318 298.08C907.731 299.147 907.198 300.16 906.718 301.12L889.838 336.56C888.771 338.8 887.544 340.453 886.158 341.52C884.824 342.587 883.118 343.12 881.038 343.12H880.238ZM921.918 314.32V315.12C921.918 318.587 922.798 321.387 924.558 323.52C926.371 325.653 928.611 326.72 931.278 326.72C934.691 326.72 937.811 326.187 940.638 325.12C943.518 324 946.024 322.293 948.158 320C948.531 319.573 948.878 319.28 949.198 319.12C949.518 318.907 949.784 318.8 949.998 318.8C950.531 318.8 950.798 319.12 950.798 319.76C950.798 320.24 950.398 321.093 949.598 322.32C948.851 323.547 947.678 324.88 946.078 326.32C944.478 327.707 942.451 328.907 939.998 329.92C937.544 330.933 934.638 331.44 931.278 331.44C928.558 331.44 926.078 330.773 923.838 329.44C921.651 328.053 919.918 326.08 918.638 323.52C917.358 320.96 916.718 317.92 916.718 314.4V313.28C916.238 312.907 915.838 312.48 915.518 312C915.198 311.52 915.038 311.093 915.038 310.72C915.038 310.027 915.544 309.68 916.558 309.68C916.611 309.68 916.718 309.68 916.878 309.68C917.091 309.627 917.224 309.6 917.278 309.6C917.651 307.68 918.398 305.653 919.518 303.52C920.691 301.387 922.158 299.387 923.918 297.52C925.678 295.6 927.678 294.053 929.918 292.88C932.211 291.707 934.664 291.12 937.278 291.12C940.584 291.12 943.198 291.707 945.118 292.88C947.091 294 948.478 295.467 949.278 297.28C950.131 299.04 950.558 300.88 950.558 302.8C950.558 304.613 950.398 306.053 950.078 307.12C949.811 308.187 949.144 309.067 948.078 309.76C947.011 310.4 945.278 311.093 942.878 311.84C940.478 312.587 937.598 313.2 934.238 313.68C930.931 314.107 927.171 314.32 922.958 314.32H921.918ZM924.158 309.84C928.104 309.84 931.411 309.627 934.078 309.2C936.744 308.72 938.958 308.24 940.718 307.76C942.638 307.173 943.864 306.533 944.398 305.84C944.984 305.147 945.278 304.107 945.278 302.72C945.278 298.08 942.584 295.76 937.198 295.76C935.224 295.76 933.411 296.213 931.758 297.12C930.104 298.027 928.638 299.2 927.358 300.64C926.131 302.08 925.091 303.627 924.238 305.28C923.438 306.88 922.878 308.4 922.558 309.84H924.158ZM962.715 300.64C962.715 300.107 962.689 299.28 962.635 298.16C962.582 297.04 962.529 295.893 962.475 294.72C962.475 293.547 962.475 292.667 962.475 292.08C962.475 291.547 963.009 291.28 964.075 291.28C964.929 291.28 965.835 291.493 966.795 291.92C967.809 292.293 968.315 292.827 968.315 293.52C968.315 294.053 968.262 294.64 968.155 295.28C968.102 295.92 968.075 296.693 968.075 297.6C969.142 295.84 970.662 294.32 972.635 293.04C974.609 291.76 976.982 291.12 979.755 291.12C981.355 291.12 982.849 291.387 984.235 291.92C985.622 292.453 986.742 293.093 987.595 293.84C988.502 294.587 988.955 295.28 988.955 295.92C988.955 296.773 988.635 297.68 987.995 298.64C987.409 299.6 986.769 300.08 986.075 300.08C985.649 300.08 985.275 299.813 984.955 299.28C984.422 298.267 983.569 297.52 982.395 297.04C981.275 296.56 980.315 296.32 979.515 296.32C977.275 296.32 975.195 297.013 973.275 298.4C971.409 299.787 970.022 301.92 969.115 304.8C968.742 305.973 968.475 307.28 968.315 308.72C968.155 310.16 968.049 311.893 967.995 313.92C967.995 315.947 967.995 318.48 967.995 321.52C967.995 323.173 968.049 324.773 968.155 326.32C968.315 327.867 968.395 329.093 968.395 330C968.395 330.533 967.862 330.8 966.795 330.8C965.942 330.8 965.009 330.587 963.995 330.16C963.035 329.787 962.555 329.253 962.555 328.56C962.555 328.133 962.555 327.44 962.555 326.48C962.609 325.467 962.635 324.48 962.635 323.52C962.689 322.56 962.715 321.893 962.715 321.52V300.64Z" fill="#A45212"/>
<g filter="url(#filter0_d_2258_3910)">
<rect width="260" height="298" transform="translate(590 417)" fill="#F7E6D5"/>
<path d="M645 691C638.125 691 632.24 688.552 627.344 683.656C622.448 678.76 620 672.875 620 666V641.312C620 637.146 620.938 633.292 622.812 629.75C624.688 626.208 627.188 623.188 630.312 620.688C644.688 609.021 655.469 597.25 662.656 585.375C669.844 573.5 674.896 562.875 677.812 553.5H657.5C653.958 553.5 650.99 552.302 648.594 549.906C646.198 547.51 645 544.542 645 541C645 537.458 646.198 534.49 648.594 532.094C650.99 529.698 653.958 528.5 657.5 528.5H673.125C670.208 523.917 667.917 519.021 666.25 513.812C664.583 508.604 663.75 503.083 663.75 497.25C663.75 481.625 669.219 468.344 680.156 457.406C691.094 446.469 704.375 441 720 441C735.625 441 748.906 446.469 759.844 457.406C770.781 468.344 776.25 481.625 776.25 497.25C776.25 503.083 775.417 508.604 773.75 513.812C772.083 519.021 769.792 523.917 766.875 528.5H782.5C786.042 528.5 789.01 529.698 791.406 532.094C793.802 534.49 795 537.458 795 541C795 544.542 793.802 547.51 791.406 549.906C789.01 552.302 786.042 553.5 782.5 553.5H762.188C765.104 562.875 770.156 573.5 777.344 585.375C784.531 597.25 795.312 609.021 809.688 620.688C812.812 623.188 815.312 626.208 817.188 629.75C819.062 633.292 820 637.146 820 641.312V666C820 672.875 817.552 678.76 812.656 683.656C807.76 688.552 801.875 691 795 691H645ZM645 666H795V641C775.833 626 761.979 610.531 753.438 594.594C744.896 578.656 739.167 564.958 736.25 553.5H703.75C700.833 564.958 695.104 578.656 686.562 594.594C678.021 610.531 664.167 626 645 641V666ZM720 528.5C728.75 528.5 736.146 525.479 742.188 519.438C748.229 513.396 751.25 506 751.25 497.25C751.25 488.5 748.229 481.104 742.188 475.062C736.146 469.021 728.75 466 720 466C711.25 466 703.854 469.021 697.812 475.062C691.771 481.104 688.75 488.5 688.75 497.25C688.75 506 691.771 513.396 697.812 519.438C703.854 525.479 711.25 528.5 720 528.5Z" fill="#F58E39"/>
</g>
<g filter="url(#filter1_d_2258_3910)">
<rect x="671.5" y="779" width="97" height="45" rx="10" fill="#F3832D" shape-rendering="crispEdges"/>
<path d="M699.9 800.752L699.804 797.584C699.804 796.421 700.204 795.84 701.004 795.84C701.815 795.84 702.22 796.421 702.22 797.584C702.22 798.245 702.183 799.275 702.108 800.672C702.428 800.736 702.679 800.869 702.86 801.072C703.052 801.275 703.148 801.515 703.148 801.792C703.148 802.069 703.057 802.309 702.876 802.512C702.695 802.715 702.439 802.837 702.108 802.88L702.22 806.432C702.22 807.584 701.815 808.16 701.004 808.16C700.204 808.16 699.804 807.584 699.804 806.432L699.9 802.8L697.676 802.752L695.516 802.8L695.628 806.432C695.628 807.584 695.223 808.16 694.412 808.16C693.601 808.16 693.196 807.584 693.196 806.432L693.308 802.88C692.977 802.837 692.721 802.715 692.54 802.512C692.369 802.299 692.284 802.059 692.284 801.792C692.284 801.515 692.375 801.275 692.556 801.072C692.748 800.869 692.999 800.736 693.308 800.672L693.212 797.6C693.212 796.437 693.617 795.856 694.428 795.856C695.239 795.856 695.644 796.437 695.644 797.6C695.644 798.283 695.607 799.333 695.532 800.752L697.676 800.8C698.401 800.8 699.143 800.784 699.9 800.752ZM710.498 806.224C711.447 806.224 712.237 805.797 712.866 804.944C713.495 804.091 713.81 803.104 713.81 801.984C713.81 800.853 713.495 799.872 712.866 799.04C712.247 798.197 711.458 797.776 710.498 797.776C709.549 797.776 708.759 798.197 708.13 799.04C707.511 799.872 707.202 800.853 707.202 801.984C707.202 803.104 707.517 804.091 708.146 804.944C708.775 805.797 709.559 806.224 710.498 806.224ZM710.514 795.76C712.103 795.76 713.426 796.368 714.482 797.584C715.549 798.789 716.082 800.261 716.082 802C716.082 803.728 715.549 805.2 714.482 806.416C713.415 807.632 712.087 808.24 710.498 808.24C708.919 808.24 707.597 807.632 706.53 806.416C705.463 805.2 704.93 803.728 704.93 802C704.93 800.261 705.463 798.789 706.53 797.584C707.607 796.368 708.935 795.76 710.514 795.76ZM720.71 801.728L720.806 806.432C720.806 807.584 720.406 808.16 719.606 808.16C718.71 808.16 718.262 807.483 718.262 806.128C718.262 805.061 718.4 803.616 718.678 801.792C718.678 801.291 718.619 800.528 718.502 799.504C718.384 798.48 718.326 797.733 718.326 797.264C718.326 796.784 718.432 796.421 718.646 796.176C718.859 795.92 719.158 795.792 719.542 795.792C720.32 795.792 720.71 796.395 720.71 797.6C721.595 796.427 722.683 795.84 723.974 795.84C724.742 795.84 725.408 796.027 725.974 796.4C726.55 796.773 726.992 797.269 727.302 797.888C727.686 797.312 728.187 796.827 728.806 796.432C729.424 796.037 730.091 795.84 730.806 795.84C732.011 795.84 732.944 796.261 733.606 797.104C734.278 797.936 734.614 798.955 734.614 800.16L734.518 804.24C734.518 805.264 734.582 805.835 734.71 805.952C734.816 806.048 734.955 806.112 735.126 806.144C735.296 806.176 735.408 806.229 735.462 806.304C735.526 806.368 735.558 806.464 735.558 806.592C735.558 807.04 735.403 807.419 735.094 807.728C734.795 808.037 734.443 808.192 734.038 808.192C733.366 808.192 732.902 807.963 732.646 807.504C732.39 807.035 732.262 806.347 732.262 805.44L732.342 801.152C732.342 800.171 732.192 799.381 731.894 798.784C731.606 798.187 731.168 797.888 730.582 797.888C730.006 797.888 729.414 798.277 728.806 799.056C728.208 799.824 727.787 800.715 727.542 801.728L727.638 806.432C727.638 807.584 727.238 808.16 726.438 808.16C725.542 808.16 725.094 807.483 725.094 806.128C725.094 805.061 725.232 803.616 725.51 801.792C725.51 800.576 725.366 799.621 725.078 798.928C724.79 798.235 724.352 797.888 723.766 797.888C723.179 797.888 722.582 798.277 721.974 799.056C721.376 799.824 720.955 800.715 720.71 801.728ZM745.335 799.328C745.335 798.944 745.18 798.592 744.871 798.272C744.561 797.952 744.119 797.792 743.543 797.792C742.785 797.792 742.14 798.112 741.607 798.752C741.084 799.392 740.716 800.16 740.503 801.056C741.143 801.205 741.857 801.28 742.647 801.28C743.447 801.28 744.092 801.109 744.583 800.768C745.084 800.427 745.335 799.947 745.335 799.328ZM747.239 806.064C747.239 806.48 746.844 806.949 746.055 807.472C745.265 807.984 744.423 808.24 743.527 808.24C742.631 808.24 741.857 808.085 741.207 807.776C740.567 807.456 740.039 807.029 739.623 806.496C738.748 805.397 738.257 804.101 738.151 802.608C737.425 802.32 737.063 801.877 737.063 801.28C737.063 800.981 737.159 800.741 737.351 800.56C737.553 800.368 737.799 800.272 738.087 800.272C738.172 800.272 738.268 800.288 738.375 800.32C738.748 798.997 739.383 797.909 740.279 797.056C741.175 796.192 742.22 795.76 743.415 795.76C744.62 795.76 745.617 796.107 746.407 796.8C747.207 797.483 747.607 798.304 747.607 799.264C747.607 800.213 747.367 800.992 746.887 801.6C745.98 802.709 744.577 803.264 742.679 803.264C742.049 803.264 741.319 803.195 740.487 803.056C740.647 803.952 740.983 804.704 741.495 805.312C742.007 805.92 742.593 806.224 743.255 806.224C743.991 806.224 744.775 805.973 745.607 805.472C745.884 805.301 746.14 805.216 746.375 805.216C746.609 805.216 746.812 805.296 746.983 805.456C747.153 805.616 747.239 805.819 747.239 806.064Z" fill="white"/>
</g>
<defs>
<filter id="filter0_d_2258_3910" x="587" y="414" width="272" height="310" filterUnits="userSpaceOnUse" color-interpolation-filters="sRGB">
<feFlood flood-opacity="0" result="BackgroundImageFix"/>
<feColorMatrix in="SourceAlpha" type="matrix" values="0 0 0 0 0 0 0 0 0 0 0 0 0 0 0 0 0 0 127 0" result="hardAlpha"/>
<feOffset dx="3" dy="3"/>
<feGaussianBlur stdDeviation="3"/>
<feComposite in2="hardAlpha" operator="out"/>
<feColorMatrix type="matrix" values="0 0 0 0 0 0 0 0 0 0 0 0 0 0 0 0 0 0 0.25 0"/>
<feBlend mode="normal" in2="BackgroundImageFix" result="effect1_dropShadow_2258_3910"/>
<feBlend mode="normal" in="SourceGraphic" in2="effect1_dropShadow_2258_3910" result="shape"/>
</filter>
<filter id="filter1_d_2258_3910" x="669.5" y="777" width="107" height="55" filterUnits="userSpaceOnUse" color-interpolation-filters="sRGB">
<feFlood flood-opacity="0" result="BackgroundImageFix"/>
<feColorMatrix in="SourceAlpha" type="matrix" values="0 0 0 0 0 0 0 0 0 0 0 0 0 0 0 0 0 0 127 0" result="hardAlpha"/>
<feOffset dx="3" dy="3"/>
<feGaussianBlur stdDeviation="2.5"/>
<feComposite in2="hardAlpha" operator="out"/>
<feColorMatrix type="matrix" values="0 0 0 0 0 0 0 0 0 0 0 0 0 0 0 0 0 0 0.2 0"/>
<feBlend mode="normal" in2="BackgroundImageFix" result="effect1_dropShadow_2258_3910"/>
<feBlend mode="normal" in="SourceGraphic" in2="effect1_dropShadow_2258_3910" result="shape"/>
</filter>
</defs>
</svg>
