<svg width="207" height="62" viewBox="0 0 207 62" fill="none" xmlns="http://www.w3.org/2000/svg">
<rect x="0.5" y="0.5" width="206" height="61" fill="#86E9D6" fill-opacity="0.2"/>
<rect x="0.5" y="0.5" width="206" height="61" stroke="#4DD5BC"/>
<mask id="mask0_2117_2117" style="mask-type:alpha" maskUnits="userSpaceOnUse" x="24" y="16" width="30" height="30">
<rect x="24" y="16" width="30" height="30" fill="#D9D9D9"/>
</mask>
<g mask="url(#mask0_2117_2117)">
<path d="M49.1875 32.25H35.25C34.8958 32.25 34.599 32.1302 34.3594 31.8906C34.1198 31.651 34 31.3542 34 31C34 30.6458 34.1198 30.349 34.3594 30.1094C34.599 29.8698 34.8958 29.75 35.25 29.75H49.1875L48.125 28.6875C47.875 28.4375 47.7552 28.1458 47.7656 27.8125C47.776 27.4792 47.8958 27.1875 48.125 26.9375C48.375 26.6875 48.6719 26.5573 49.0156 26.5469C49.3594 26.5365 49.6562 26.6562 49.9062 26.9062L53.125 30.125C53.375 30.375 53.5 30.6667 53.5 31C53.5 31.3333 53.375 31.625 53.125 31.875L49.9062 35.0938C49.6562 35.3438 49.3594 35.4635 49.0156 35.4531C48.6719 35.4427 48.375 35.3125 48.125 35.0625C47.8958 34.8125 47.776 34.5208 47.7656 34.1875C47.7552 33.8542 47.875 33.5625 48.125 33.3125L49.1875 32.25ZM42.75 26V22.25H30.25V39.75H42.75V36C42.75 35.6458 42.8698 35.349 43.1094 35.1094C43.349 34.8698 43.6458 34.75 44 34.75C44.3542 34.75 44.651 34.8698 44.8906 35.1094C45.1302 35.349 45.25 35.6458 45.25 36V39.75C45.25 40.4375 45.0052 41.026 44.5156 41.5156C44.026 42.0052 43.4375 42.25 42.75 42.25H30.25C29.5625 42.25 28.974 42.0052 28.4844 41.5156C27.9948 41.026 27.75 40.4375 27.75 39.75V22.25C27.75 21.5625 27.9948 20.974 28.4844 20.4844C28.974 19.9948 29.5625 19.75 30.25 19.75H42.75C43.4375 19.75 44.026 19.9948 44.5156 20.4844C45.0052 20.974 45.25 21.5625 45.25 22.25V26C45.25 26.3542 45.1302 26.651 44.8906 26.8906C44.651 27.1302 44.3542 27.25 44 27.25C43.6458 27.25 43.349 27.1302 43.1094 26.8906C42.8698 26.651 42.75 26.3542 42.75 26Z" fill="white"/>
</g>
<path d="M65.2 39C65.312 39 65.424 38.888 65.536 38.664C65.648 38.44 65.704 38.072 65.704 37.56V26.04C65.704 25.528 65.648 25.168 65.536 24.96C65.424 24.736 65.312 24.616 65.2 24.6H79.216V25.32L79.696 28.104C79.296 27.928 78.592 27.744 77.584 27.552C76.576 27.344 75.36 27.24 73.936 27.24H70.384C69.904 27.24 69.616 27.28 69.52 27.36C69.44 27.424 69.4 27.624 69.4 27.96V29.736C69.4 30.088 69.44 30.296 69.52 30.36C69.616 30.424 69.896 30.456 70.36 30.456H73.816C74.744 30.456 75.488 30.408 76.048 30.312C76.624 30.2 77 30.088 77.176 29.976C77.112 30.28 77.04 30.632 76.96 31.032C76.88 31.432 76.816 31.816 76.768 32.184C76.72 32.552 76.696 32.856 76.696 33.096H70.36C69.896 33.096 69.616 33.128 69.52 33.192C69.44 33.24 69.4 33.448 69.4 33.816V35.592C69.4 35.96 69.44 36.176 69.52 36.24C69.6 36.304 69.88 36.336 70.36 36.336H76.84C77.768 36.336 78.512 36.232 79.072 36.024C79.648 35.8 80.024 35.584 80.2 35.376L79.72 38.256V39H65.2ZM80.4955 39C80.6395 39 80.8795 38.888 81.2155 38.664C81.5515 38.44 81.9355 38.08 82.3675 37.584C82.6715 37.216 83.0315 36.784 83.4475 36.288C83.8635 35.776 84.2795 35.256 84.6955 34.728C85.1275 34.2 85.4955 33.744 85.7995 33.36C85.5435 33.072 85.2555 32.744 84.9355 32.376C84.6155 32.008 84.2875 31.632 83.9515 31.248C83.6315 30.864 83.3115 30.504 82.9915 30.168C82.6875 29.816 82.4235 29.512 82.1995 29.256C81.7195 28.712 81.3355 28.328 81.0475 28.104C80.7595 27.88 80.5755 27.768 80.4955 27.768H85.6795C85.5675 27.784 85.5275 27.904 85.5595 28.128C85.6075 28.352 85.8155 28.728 86.1835 29.256C86.3435 29.48 86.5275 29.736 86.7355 30.024C86.9435 30.312 87.1515 30.6 87.3595 30.888C87.5675 31.176 87.7435 31.424 87.8875 31.632H87.9355C88.0635 31.44 88.2155 31.208 88.3915 30.936C88.5835 30.664 88.7835 30.376 88.9915 30.072C89.1995 29.768 89.3915 29.48 89.5675 29.208C89.9035 28.68 90.0875 28.312 90.1195 28.104C90.1675 27.88 90.1435 27.768 90.0475 27.768H95.3035C95.1595 27.768 94.9275 27.88 94.6075 28.104C94.2875 28.312 93.9035 28.672 93.4555 29.184C93.1515 29.536 92.7755 29.968 92.3275 30.48C91.8955 30.976 91.4635 31.48 91.0315 31.992C90.5995 32.504 90.2155 32.96 89.8795 33.36C90.2955 33.824 90.7115 34.288 91.1275 34.752C91.5435 35.2 91.9515 35.656 92.3515 36.12C92.7675 36.584 93.1835 37.048 93.5995 37.512C94.0795 38.056 94.4635 38.44 94.7515 38.664C95.0555 38.888 95.2475 39 95.3275 39H90.1435C90.2555 39 90.2955 38.888 90.2635 38.664C90.2315 38.44 90.0315 38.056 89.6635 37.512C89.5035 37.256 89.3115 36.976 89.0875 36.672C88.8635 36.368 88.6395 36.064 88.4155 35.76C88.1915 35.456 87.9995 35.2 87.8395 34.992H87.7915C87.6635 35.2 87.5035 35.456 87.3115 35.76C87.1355 36.064 86.9435 36.376 86.7355 36.696C86.5435 37.016 86.3595 37.304 86.1835 37.56C85.8315 38.088 85.6315 38.464 85.5835 38.688C85.5355 38.896 85.5675 39 85.6795 39H80.4955ZM96.181 39C96.293 39 96.405 38.888 96.517 38.664C96.629 38.44 96.685 38.072 96.685 37.56V29.208C96.685 28.696 96.629 28.328 96.517 28.104C96.421 27.88 96.317 27.768 96.205 27.768H100.093V37.56C100.093 38.072 100.141 38.44 100.237 38.664C100.349 38.888 100.461 39 100.573 39H96.181ZM98.125 25.944C97.533 25.944 97.061 25.784 96.709 25.464C96.357 25.144 96.181 24.704 96.181 24.144C96.181 23.584 96.349 23.144 96.685 22.824C97.037 22.504 97.517 22.344 98.125 22.344C98.733 22.344 99.205 22.504 99.541 22.824C99.893 23.144 100.069 23.584 100.069 24.144C100.069 24.704 99.893 25.144 99.541 25.464C99.205 25.784 98.733 25.944 98.125 25.944ZM107.472 39.24C106.368 39.24 105.568 39.008 105.072 38.544C104.576 38.064 104.328 37.288 104.328 36.216V30.168H102.168V27.768C102.904 27.768 103.48 27.68 103.896 27.504C104.312 27.312 104.608 26.984 104.784 26.52C104.96 26.056 105.048 25.408 105.048 24.576H107.736V27.768H111.84C111.728 28.088 111.616 28.488 111.504 28.968C111.408 29.432 111.36 29.832 111.36 30.168H107.736V34.896C107.736 35.632 107.792 36.136 107.904 36.408C108.016 36.68 108.28 36.816 108.696 36.816C108.968 36.816 109.264 36.72 109.584 36.528C109.92 36.336 110.24 36.104 110.544 35.832C110.864 35.544 111.128 35.272 111.336 35.016V35.76L111.576 38.088C111.384 38.248 111.096 38.424 110.712 38.616C110.328 38.792 109.856 38.936 109.296 39.048C108.752 39.176 108.144 39.24 107.472 39.24ZM124.676 44.856C123.748 44.856 122.892 44.792 122.108 44.664C121.34 44.536 120.668 44.376 120.092 44.184C119.532 44.008 119.1 43.832 118.796 43.656L119.276 40.056V39.36C119.5 39.792 119.852 40.248 120.332 40.728C120.812 41.208 121.412 41.616 122.132 41.952C122.852 42.288 123.668 42.456 124.58 42.456C125.172 42.456 125.668 42.328 126.068 42.072C126.468 41.832 126.772 41.456 126.98 40.944C127.188 40.432 127.292 39.8 127.292 39.048V38.664L127.34 38.232L127.292 38.184C127.068 38.424 126.764 38.624 126.38 38.784C126.012 38.928 125.604 39.04 125.156 39.12C124.724 39.2 124.292 39.24 123.86 39.24C122.564 39.24 121.524 38.984 120.74 38.472C119.972 37.96 119.412 37.264 119.06 36.384C118.724 35.504 118.556 34.512 118.556 33.408C118.556 32.288 118.724 31.288 119.06 30.408C119.396 29.528 119.948 28.832 120.716 28.32C121.5 27.792 122.548 27.528 123.86 27.528C124.308 27.528 124.748 27.56 125.18 27.624C125.612 27.688 126.012 27.784 126.38 27.912C126.748 28.024 127.052 28.184 127.292 28.392L127.34 28.368L127.292 27.912V27.768H131.18C131.068 27.784 130.956 27.904 130.844 28.128C130.748 28.352 130.7 28.728 130.7 29.256V38.448C130.7 40.768 130.204 42.416 129.212 43.392C128.236 44.368 126.724 44.856 124.676 44.856ZM124.508 36.816C125.068 36.816 125.556 36.72 125.972 36.528C126.388 36.336 126.708 35.992 126.932 35.496C127.172 35 127.292 34.304 127.292 33.408C127.292 32.528 127.172 31.84 126.932 31.344C126.708 30.832 126.388 30.472 125.972 30.264C125.556 30.04 125.068 29.928 124.508 29.928C123.98 29.928 123.524 30.04 123.14 30.264C122.756 30.488 122.46 30.856 122.252 31.368C122.044 31.88 121.94 32.568 121.94 33.432C121.94 34.28 122.036 34.952 122.228 35.448C122.436 35.944 122.732 36.296 123.116 36.504C123.5 36.712 123.964 36.816 124.508 36.816ZM138.079 39.24C136.639 39.24 135.487 38.96 134.623 38.4C133.775 37.824 133.351 36.904 133.351 35.64C133.351 34.76 133.575 34.048 134.023 33.504C134.471 32.96 135.079 32.56 135.847 32.304C136.631 32.032 137.519 31.896 138.511 31.896C139.247 31.896 139.871 31.96 140.383 32.088C140.911 32.216 141.335 32.352 141.655 32.496C141.975 32.64 142.183 32.744 142.279 32.808C142.279 32.136 142.207 31.592 142.063 31.176C141.919 30.744 141.655 30.432 141.271 30.24C140.903 30.032 140.383 29.928 139.711 29.928C138.735 29.928 137.871 30.024 137.119 30.216C136.367 30.408 135.751 30.632 135.271 30.888C134.807 31.144 134.487 31.36 134.311 31.536V30.816L134.071 28.464C134.183 28.4 134.479 28.296 134.959 28.152C135.439 28.008 136.095 27.872 136.927 27.744C137.759 27.6 138.751 27.528 139.903 27.528C141.487 27.528 142.695 27.76 143.527 28.224C144.359 28.672 144.927 29.32 145.231 30.168C145.551 31.016 145.711 32.04 145.711 33.24V37.56C145.711 38.008 145.759 38.336 145.855 38.544C145.967 38.736 146.079 38.888 146.191 39H142.303V38.496L142.351 38.04L142.303 37.992C142.175 38.136 141.991 38.28 141.751 38.424C141.511 38.568 141.215 38.704 140.863 38.832C140.511 38.944 140.103 39.04 139.639 39.12C139.175 39.2 138.655 39.24 138.079 39.24ZM139.207 36.816C139.879 36.816 140.439 36.768 140.887 36.672C141.351 36.56 141.703 36.416 141.943 36.24C142.183 36.048 142.303 35.824 142.303 35.568C142.303 35.2 142.023 34.896 141.463 34.656C140.919 34.416 140.175 34.296 139.231 34.296C138.319 34.296 137.671 34.424 137.287 34.68C136.919 34.936 136.735 35.256 136.735 35.64C136.735 36.12 136.951 36.44 137.383 36.6C137.815 36.744 138.423 36.816 139.207 36.816ZM148.165 39C148.277 39 148.381 38.888 148.477 38.664C148.589 38.44 148.645 38.072 148.645 37.56V29.448C148.645 28.936 148.589 28.576 148.477 28.368C148.381 28.144 148.277 28.024 148.165 28.008C148.869 28.008 149.589 27.96 150.325 27.864C151.061 27.752 151.637 27.64 152.053 27.528V28.992L152.005 29.304L152.053 29.352C152.101 29.24 152.253 29.04 152.509 28.752C152.765 28.464 153.133 28.192 153.613 27.936C154.093 27.664 154.685 27.528 155.389 27.528C156.877 27.528 158.013 27.952 158.797 28.8C159.597 29.648 159.997 30.976 159.997 32.784V37.56C159.997 38.072 160.045 38.44 160.141 38.664C160.253 38.888 160.365 39 160.477 39H156.109C156.221 39 156.325 38.888 156.421 38.664C156.533 38.44 156.589 38.072 156.589 37.56V32.856C156.589 32.104 156.509 31.52 156.349 31.104C156.189 30.672 155.965 30.368 155.677 30.192C155.405 30.016 155.085 29.928 154.717 29.928C154.269 29.928 153.837 30.04 153.421 30.264C153.021 30.472 152.693 30.808 152.437 31.272C152.181 31.72 152.053 32.32 152.053 33.072V37.56C152.053 38.072 152.101 38.44 152.197 38.664C152.309 38.888 152.421 39 152.533 39H148.165ZM164.029 39C164.141 38.984 164.245 38.864 164.341 38.64C164.453 38.416 164.509 38.056 164.509 37.56V33.072C164.509 32.432 164.445 31.88 164.317 31.416C164.205 30.936 164.013 30.568 163.741 30.312C163.469 30.056 163.101 29.928 162.637 29.928C161.853 29.928 161.213 30.208 160.717 30.768C160.237 31.328 159.997 32.176 159.997 33.312H158.245C158.245 32.544 158.365 31.816 158.605 31.128C158.845 30.424 159.189 29.808 159.637 29.28C160.085 28.736 160.621 28.312 161.245 28.008C161.869 27.688 162.557 27.528 163.309 27.528C164.269 27.528 165.093 27.704 165.781 28.056C166.469 28.392 166.997 28.96 167.365 29.76C167.733 30.56 167.917 31.648 167.917 33.024V37.56C167.917 38.056 167.965 38.416 168.061 38.64C168.173 38.864 168.285 38.984 168.397 39H164.029ZM176.553 39.24C175.289 39.24 174.233 39.112 173.385 38.856C172.553 38.584 171.889 38.2 171.393 37.704C170.897 37.192 170.545 36.576 170.337 35.856C170.129 35.136 170.025 34.32 170.025 33.408C170.025 31.6 170.529 30.168 171.537 29.112C172.545 28.056 174.089 27.528 176.169 27.528C177.385 27.528 178.369 27.696 179.121 28.032C179.889 28.368 180.473 28.816 180.873 29.376C181.273 29.936 181.545 30.56 181.689 31.248C181.849 31.92 181.929 32.6 181.929 33.288V34.416C181.929 34.368 181.705 34.32 181.257 34.272C180.825 34.208 180.089 34.176 179.049 34.176H173.481C173.481 35.056 173.745 35.72 174.273 36.168C174.817 36.6 175.697 36.816 176.913 36.816C177.937 36.816 178.849 36.696 179.649 36.456C180.465 36.2 181.057 35.96 181.425 35.736V36.456L181.665 38.28C181.361 38.488 180.777 38.704 179.913 38.928C179.049 39.136 177.929 39.24 176.553 39.24ZM174.369 32.112H178.521C178.521 31.76 178.441 31.416 178.281 31.08C178.137 30.744 177.897 30.472 177.561 30.264C177.225 30.04 176.761 29.928 176.169 29.928C175.577 29.928 175.097 30.016 174.729 30.192C174.377 30.368 174.113 30.584 173.937 30.84C173.777 31.096 173.697 31.36 173.697 31.632C173.697 31.792 173.745 31.912 173.841 31.992C173.937 32.072 174.113 32.112 174.369 32.112Z" fill="white"/>
</svg>
