<svg width="211" height="54" viewBox="0 0 211 54" fill="none" xmlns="http://www.w3.org/2000/svg">
<g filter="url(#filter0_d_2168_2041)">
<rect x="2" y="2" width="201" height="44" rx="10" fill="#F2C7DA" fill-opacity="0.08" shape-rendering="crispEdges"/>
<rect x="3" y="3" width="199" height="42" rx="9" stroke="#E71C4F" stroke-width="2" shape-rendering="crispEdges"/>
<path d="M22.896 30V18.48H25.216L32.288 26.896V18.48H34.416V30H32.096L25.008 21.568V30H22.896ZM38.9765 30C38.5712 30 38.2032 29.8987 37.8725 29.696C37.5418 29.4933 37.2752 29.2267 37.0725 28.896C36.8698 28.5653 36.7685 28.1973 36.7685 27.792V22.928C36.7685 22.5227 36.8698 22.1547 37.0725 21.824C37.2752 21.4933 37.5418 21.2267 37.8725 21.024C38.2032 20.8213 38.5712 20.72 38.9765 20.72H43.9845C44.3898 20.72 44.7578 20.8213 45.0885 21.024C45.4298 21.2267 45.6965 21.4933 45.8885 21.824C46.0912 22.1547 46.1925 22.5227 46.1925 22.928V27.792C46.1925 28.1973 46.0912 28.5653 45.8885 28.896C45.6965 29.2267 45.4352 29.4933 45.1045 29.696C44.7738 29.8987 44.4005 30 43.9845 30H38.9765ZM39.0565 27.904H43.9045C43.9578 27.904 44.0005 27.888 44.0325 27.856C44.0752 27.8133 44.0965 27.7653 44.0965 27.712V23.008C44.0965 22.9547 44.0752 22.912 44.0325 22.88C44.0005 22.8373 43.9578 22.816 43.9045 22.816H39.0565C39.0032 22.816 38.9552 22.8373 38.9125 22.88C38.8805 22.912 38.8645 22.9547 38.8645 23.008V27.712C38.8645 27.7653 38.8805 27.8133 38.9125 27.856C38.9552 27.888 39.0032 27.904 39.0565 27.904ZM48.5346 32.112V28.032H50.6306V29.904C50.6306 30.256 50.54 30.5813 50.3586 30.88C50.1773 31.1893 49.9266 31.4507 49.6066 31.664C49.2866 31.888 48.9293 32.0373 48.5346 32.112ZM58.3303 30V17.68H60.4263V20.72H65.5463C65.9516 20.72 66.3196 20.8213 66.6503 21.024C66.9916 21.2267 67.2583 21.4933 67.4503 21.824C67.6529 22.1547 67.7543 22.5227 67.7543 22.928V27.792C67.7543 28.1973 67.6529 28.5653 67.4503 28.896C67.2583 29.2267 66.9916 29.4933 66.6503 29.696C66.3196 29.8987 65.9516 30 65.5463 30H58.3303ZM60.6183 27.904H65.4663C65.5196 27.904 65.5623 27.888 65.5943 27.856C65.6369 27.8133 65.6583 27.7653 65.6583 27.712V23.008C65.6583 22.9547 65.6369 22.912 65.5943 22.88C65.5623 22.8373 65.5196 22.816 65.4663 22.816H60.6183C60.5649 22.816 60.5169 22.8373 60.4743 22.88C60.4423 22.912 60.4263 22.9547 60.4263 23.008V27.712C60.4263 27.7653 60.4423 27.8133 60.4743 27.856C60.5169 27.888 60.5649 27.904 60.6183 27.904ZM71.7088 30C71.3034 30 70.9301 29.8987 70.5888 29.696C70.2581 29.4933 69.9914 29.2267 69.7888 28.896C69.5968 28.5653 69.5008 28.1973 69.5008 27.792V24.304H76.8288V23.008C76.8288 22.9547 76.8074 22.912 76.7648 22.88C76.7328 22.8373 76.6901 22.816 76.6368 22.816H69.5008V20.72H76.7168C77.1221 20.72 77.4901 20.8213 77.8208 21.024C78.1621 21.2267 78.4288 21.4933 78.6208 21.824C78.8234 22.1547 78.9248 22.5227 78.9248 22.928V30H71.7088ZM71.7888 27.904H76.8288V26.192H71.5968V27.712C71.5968 27.7653 71.6128 27.8133 71.6448 27.856C71.6874 27.888 71.7354 27.904 71.7888 27.904ZM83.0046 30C82.5993 30 82.2313 29.8987 81.9006 29.696C81.57 29.4933 81.3033 29.2267 81.1006 28.896C80.898 28.5653 80.7966 28.1973 80.7966 27.792V22.928C80.7966 22.5227 80.898 22.1547 81.1006 21.824C81.3033 21.4933 81.57 21.2267 81.9006 21.024C82.2313 20.8213 82.5993 20.72 83.0046 20.72H90.2046V22.816H83.0846C83.0313 22.816 82.9833 22.8373 82.9406 22.88C82.9086 22.912 82.8926 22.9547 82.8926 23.008V27.712C82.8926 27.7653 82.9086 27.8133 82.9406 27.856C82.9833 27.888 83.0313 27.904 83.0846 27.904H90.2206V30H83.0046ZM92.2034 30V17.68H94.2994V24.304H95.9474L99.2594 20.72H101.499V21.296L97.8034 25.36L101.483 29.424V30H99.2594L95.9474 26.416H94.2994V30H92.2034ZM110.91 30C110.504 30 110.136 29.8987 109.806 29.696C109.475 29.4933 109.208 29.2267 109.006 28.896C108.803 28.5653 108.702 28.1973 108.702 27.792V17.872H110.798V20.72H114.414V22.816H110.798V27.712C110.798 27.7653 110.814 27.8133 110.846 27.856C110.888 27.888 110.936 27.904 110.99 27.904H114.414V30H110.91ZM118.533 30C118.128 30 117.76 29.8987 117.429 29.696C117.099 29.4933 116.832 29.2267 116.629 28.896C116.427 28.5653 116.325 28.1973 116.325 27.792V22.928C116.325 22.5227 116.427 22.1547 116.629 21.824C116.832 21.4933 117.099 21.2267 117.429 21.024C117.76 20.8213 118.128 20.72 118.533 20.72H123.541C123.947 20.72 124.315 20.8213 124.645 21.024C124.987 21.2267 125.253 21.4933 125.445 21.824C125.648 22.1547 125.749 22.5227 125.749 22.928V27.792C125.749 28.1973 125.648 28.5653 125.445 28.896C125.253 29.2267 124.992 29.4933 124.661 29.696C124.331 29.8987 123.957 30 123.541 30H118.533ZM118.613 27.904H123.461C123.515 27.904 123.557 27.888 123.589 27.856C123.632 27.8133 123.653 27.7653 123.653 27.712V23.008C123.653 22.9547 123.632 22.912 123.589 22.88C123.557 22.8373 123.515 22.816 123.461 22.816H118.613C118.56 22.816 118.512 22.8373 118.469 22.88C118.437 22.912 118.421 22.9547 118.421 23.008V27.712C118.421 27.7653 118.437 27.8133 118.469 27.856C118.512 27.888 118.56 27.904 118.613 27.904ZM134.966 33.664V31.552H140.55C140.603 31.552 140.646 31.5307 140.678 31.488C140.721 31.456 140.742 31.4133 140.742 31.36V30H135.622C135.227 30 134.859 29.8987 134.518 29.696C134.187 29.4933 133.921 29.2267 133.718 28.896C133.515 28.5653 133.414 28.1973 133.414 27.792V22.928C133.414 22.5227 133.515 22.1547 133.718 21.824C133.921 21.4933 134.187 21.2267 134.518 21.024C134.859 20.8213 135.227 20.72 135.622 20.72H140.646C141.051 20.72 141.419 20.8213 141.75 21.024C142.081 21.2267 142.342 21.4933 142.534 21.824C142.737 22.1547 142.838 22.5227 142.838 22.928V31.456C142.838 31.872 142.742 32.2453 142.55 32.576C142.358 32.9067 142.091 33.168 141.75 33.36C141.419 33.5627 141.051 33.664 140.646 33.664H134.966ZM135.702 27.904H140.55C140.603 27.904 140.646 27.888 140.678 27.856C140.721 27.8133 140.742 27.7653 140.742 27.712V23.008C140.742 22.9547 140.721 22.912 140.678 22.88C140.646 22.8373 140.603 22.816 140.55 22.816H135.702C135.649 22.816 135.601 22.8373 135.558 22.88C135.526 22.912 135.51 22.9547 135.51 23.008V27.712C135.51 27.7653 135.526 27.8133 135.558 27.856C135.601 27.888 135.649 27.904 135.702 27.904ZM147.016 30C146.611 30 146.238 29.8987 145.896 29.696C145.566 29.4933 145.299 29.2267 145.096 28.896C144.904 28.5653 144.808 28.1973 144.808 27.792V24.304H152.136V23.008C152.136 22.9547 152.115 22.912 152.072 22.88C152.04 22.8373 151.998 22.816 151.944 22.816H144.808V20.72H152.024C152.43 20.72 152.798 20.8213 153.128 21.024C153.47 21.2267 153.736 21.4933 153.928 21.824C154.131 22.1547 154.232 22.5227 154.232 22.928V30H147.016ZM147.096 27.904H152.136V26.192H146.904V27.712C146.904 27.7653 146.92 27.8133 146.952 27.856C146.995 27.888 147.043 27.904 147.096 27.904ZM156.183 30V20.72H167.687C168.103 20.72 168.477 20.8213 168.807 21.024C169.138 21.2267 169.399 21.4933 169.591 21.824C169.794 22.1547 169.895 22.5227 169.895 22.928V30H167.815V23.008C167.815 22.9547 167.794 22.912 167.751 22.88C167.709 22.8373 167.661 22.816 167.607 22.816H164.295C164.242 22.816 164.194 22.8373 164.151 22.88C164.119 22.912 164.103 22.9547 164.103 23.008V30H161.991V23.008C161.991 22.9547 161.97 22.912 161.927 22.88C161.895 22.8373 161.853 22.816 161.799 22.816H158.471C158.418 22.816 158.37 22.8373 158.327 22.88C158.295 22.912 158.279 22.9547 158.279 23.008V30H156.183ZM174.187 30C173.781 30 173.413 29.8987 173.083 29.696C172.752 29.4933 172.485 29.2267 172.283 28.896C172.08 28.5653 171.979 28.1973 171.979 27.792V22.928C171.979 22.5227 172.08 22.1547 172.283 21.824C172.485 21.4933 172.752 21.2267 173.083 21.024C173.413 20.8213 173.781 20.72 174.187 20.72H179.195C179.6 20.72 179.968 20.8213 180.299 21.024C180.64 21.2267 180.907 21.4933 181.099 21.824C181.301 22.1547 181.403 22.5227 181.403 22.928V26.416H174.075V27.712C174.075 27.7653 174.091 27.8133 174.123 27.856C174.165 27.888 174.213 27.904 174.267 27.904H181.403V30H174.187ZM174.075 24.528H179.307V23.008C179.307 22.9547 179.285 22.912 179.243 22.88C179.211 22.8373 179.168 22.816 179.115 22.816H174.267C174.213 22.816 174.165 22.8373 174.123 22.88C174.091 22.912 174.075 22.9547 174.075 23.008V24.528Z" fill="#ED1B76"/>
</g>
<defs>
<filter id="filter0_d_2168_2041" x="0" y="0" width="211" height="54" filterUnits="userSpaceOnUse" color-interpolation-filters="sRGB">
<feFlood flood-opacity="0" result="BackgroundImageFix"/>
<feColorMatrix in="SourceAlpha" type="matrix" values="0 0 0 0 0 0 0 0 0 0 0 0 0 0 0 0 0 0 127 0" result="hardAlpha"/>
<feOffset dx="3" dy="3"/>
<feGaussianBlur stdDeviation="2.5"/>
<feComposite in2="hardAlpha" operator="out"/>
<feColorMatrix type="matrix" values="0 0 0 0 0.182749 0 0 0 0 0.18106 0 0 0 0 0.18106 0 0 0 0.2 0"/>
<feBlend mode="normal" in2="BackgroundImageFix" result="effect1_dropShadow_2168_2041"/>
<feBlend mode="normal" in="SourceGraphic" in2="effect1_dropShadow_2168_2041" result="shape"/>
</filter>
</defs>
</svg>
