<svg width="205" height="64" viewBox="0 0 205 64" fill="none" xmlns="http://www.w3.org/2000/svg">
<g filter="url(#filter0_d_2106_1771)">
<rect x="2" y="2" width="195" height="54" rx="10" fill="#ED1B76" fill-opacity="0.14" shape-rendering="crispEdges"/>
<rect x="3.5" y="3.5" width="192" height="51" rx="8.5" stroke="#E71C4F" stroke-width="3" shape-rendering="crispEdges"/>
<g filter="url(#filter1_d_2106_1771)">
<mask id="mask0_2106_1771" style="mask-type:alpha" maskUnits="userSpaceOnUse" x="22" y="14" width="30" height="30">
<rect x="22" y="14" width="30" height="30" fill="#D9D9D9"/>
</mask>
<g mask="url(#mask0_2106_1771)">
<path d="M47.1875 30.25H33.25C32.8958 30.25 32.599 30.1302 32.3594 29.8906C32.1198 29.651 32 29.3542 32 29C32 28.6458 32.1198 28.349 32.3594 28.1094C32.599 27.8698 32.8958 27.75 33.25 27.75H47.1875L46.125 26.6875C45.875 26.4375 45.7552 26.1458 45.7656 25.8125C45.776 25.4792 45.8958 25.1875 46.125 24.9375C46.375 24.6875 46.6719 24.5573 47.0156 24.5469C47.3594 24.5365 47.6562 24.6562 47.9062 24.9062L51.125 28.125C51.375 28.375 51.5 28.6667 51.5 29C51.5 29.3333 51.375 29.625 51.125 29.875L47.9062 33.0938C47.6562 33.3438 47.3594 33.4635 47.0156 33.4531C46.6719 33.4427 46.375 33.3125 46.125 33.0625C45.8958 32.8125 45.776 32.5208 45.7656 32.1875C45.7552 31.8542 45.875 31.5625 46.125 31.3125L47.1875 30.25ZM40.75 24V20.25H28.25V37.75H40.75V34C40.75 33.6458 40.8698 33.349 41.1094 33.1094C41.349 32.8698 41.6458 32.75 42 32.75C42.3542 32.75 42.651 32.8698 42.8906 33.1094C43.1302 33.349 43.25 33.6458 43.25 34V37.75C43.25 38.4375 43.0052 39.026 42.5156 39.5156C42.026 40.0052 41.4375 40.25 40.75 40.25H28.25C27.5625 40.25 26.974 40.0052 26.4844 39.5156C25.9948 39.026 25.75 38.4375 25.75 37.75V20.25C25.75 19.5625 25.9948 18.974 26.4844 18.4844C26.974 17.9948 27.5625 17.75 28.25 17.75H40.75C41.4375 17.75 42.026 17.9948 42.5156 18.4844C43.0052 18.974 43.25 19.5625 43.25 20.25V24C43.25 24.3542 43.1302 24.651 42.8906 24.8906C42.651 25.1302 42.3542 25.25 42 25.25C41.6458 25.25 41.349 25.1302 41.1094 24.8906C40.8698 24.651 40.75 24.3542 40.75 24Z" fill="#E71C4F"/>
</g>
</g>
<path d="M63.16 36.5V22.1H76.42V24.76H65.82V27.96H74.34V30.64H65.82V33.84H76.42V36.5H63.16ZM79.0325 36.5V35.8L83.2925 30.6L79.0325 25.6V24.9H81.8725L84.9925 28.58L88.1125 24.9H90.9525V25.6L86.6925 30.6L90.9525 35.8V36.5H88.1325L84.9925 32.66L81.8725 36.5H79.0325ZM93.8002 36.5V24.9H96.4202V36.5H93.8002ZM93.8002 23.74V21.1H96.4202V23.74H93.8002ZM102.087 36.5C101.581 36.5 101.121 36.3733 100.707 36.12C100.294 35.8667 99.9605 35.5333 99.7072 35.12C99.4539 34.7067 99.3272 34.2467 99.3272 33.74V21.34H101.947V24.9H106.467V27.52H101.947V33.64C101.947 33.7067 101.967 33.7667 102.007 33.82C102.061 33.86 102.121 33.88 102.187 33.88H106.467V36.5H102.087ZM117.51 41.08V38.44H124.49C124.557 38.44 124.61 38.4133 124.65 38.36C124.703 38.32 124.73 38.2667 124.73 38.2V36.5H118.33C117.837 36.5 117.377 36.3733 116.95 36.12C116.537 35.8667 116.203 35.5333 115.95 35.12C115.697 34.7067 115.57 34.2467 115.57 33.74V27.66C115.57 27.1533 115.697 26.6933 115.95 26.28C116.203 25.8667 116.537 25.5333 116.95 25.28C117.377 25.0267 117.837 24.9 118.33 24.9H124.61C125.117 24.9 125.577 25.0267 125.99 25.28C126.403 25.5333 126.73 25.8667 126.97 26.28C127.223 26.6933 127.35 27.1533 127.35 27.66V38.32C127.35 38.84 127.23 39.3067 126.99 39.72C126.75 40.1333 126.417 40.46 125.99 40.7C125.577 40.9533 125.117 41.08 124.61 41.08H117.51ZM118.43 33.88H124.49C124.557 33.88 124.61 33.86 124.65 33.82C124.703 33.7667 124.73 33.7067 124.73 33.64V27.76C124.73 27.6933 124.703 27.64 124.65 27.6C124.61 27.5467 124.557 27.52 124.49 27.52H118.43C118.363 27.52 118.303 27.5467 118.25 27.6C118.21 27.64 118.19 27.6933 118.19 27.76V33.64C118.19 33.7067 118.21 33.7667 118.25 33.82C118.303 33.86 118.363 33.88 118.43 33.88ZM132.573 36.5C132.066 36.5 131.599 36.3733 131.173 36.12C130.759 35.8667 130.426 35.5333 130.173 35.12C129.933 34.7067 129.813 34.2467 129.813 33.74V29.38H138.973V27.76C138.973 27.6933 138.946 27.64 138.893 27.6C138.853 27.5467 138.799 27.52 138.733 27.52H129.813V24.9H138.833C139.339 24.9 139.799 25.0267 140.213 25.28C140.639 25.5333 140.973 25.8667 141.213 26.28C141.466 26.6933 141.593 27.1533 141.593 27.66V36.5H132.573ZM132.673 33.88H138.973V31.74H132.433V33.64C132.433 33.7067 132.453 33.7667 132.493 33.82C132.546 33.86 132.606 33.88 132.673 33.88ZM144.032 36.5V24.9H158.412C158.932 24.9 159.398 25.0267 159.812 25.28C160.225 25.5333 160.552 25.8667 160.792 26.28C161.045 26.6933 161.172 27.1533 161.172 27.66V36.5H158.572V27.76C158.572 27.6933 158.545 27.64 158.492 27.6C158.438 27.5467 158.378 27.52 158.312 27.52H154.172C154.105 27.52 154.045 27.5467 153.992 27.6C153.952 27.64 153.932 27.6933 153.932 27.76V36.5H151.292V27.76C151.292 27.6933 151.265 27.64 151.212 27.6C151.172 27.5467 151.118 27.52 151.052 27.52H146.892C146.825 27.52 146.765 27.5467 146.712 27.6C146.672 27.64 146.652 27.6933 146.652 27.76V36.5H144.032ZM166.535 36.5C166.029 36.5 165.569 36.3733 165.155 36.12C164.742 35.8667 164.409 35.5333 164.155 35.12C163.902 34.7067 163.775 34.2467 163.775 33.74V27.66C163.775 27.1533 163.902 26.6933 164.155 26.28C164.409 25.8667 164.742 25.5333 165.155 25.28C165.569 25.0267 166.029 24.9 166.535 24.9H172.795C173.302 24.9 173.762 25.0267 174.175 25.28C174.602 25.5333 174.935 25.8667 175.175 26.28C175.429 26.6933 175.555 27.1533 175.555 27.66V32.02H166.395V33.64C166.395 33.7067 166.415 33.7667 166.455 33.82C166.509 33.86 166.569 33.88 166.635 33.88H175.555V36.5H166.535ZM166.395 29.66H172.935V27.76C172.935 27.6933 172.909 27.64 172.855 27.6C172.815 27.5467 172.762 27.52 172.695 27.52H166.635C166.569 27.52 166.509 27.5467 166.455 27.6C166.415 27.64 166.395 27.6933 166.395 27.76V29.66Z" fill="white"/>
</g>
<defs>
<filter id="filter0_d_2106_1771" x="0" y="0" width="205" height="64" filterUnits="userSpaceOnUse" color-interpolation-filters="sRGB">
<feFlood flood-opacity="0" result="BackgroundImageFix"/>
<feColorMatrix in="SourceAlpha" type="matrix" values="0 0 0 0 0 0 0 0 0 0 0 0 0 0 0 0 0 0 127 0" result="hardAlpha"/>
<feOffset dx="3" dy="3"/>
<feGaussianBlur stdDeviation="2.5"/>
<feComposite in2="hardAlpha" operator="out"/>
<feColorMatrix type="matrix" values="0 0 0 0 0.184314 0 0 0 0 0.180392 0 0 0 0 0.180392 0 0 0 0.2 0"/>
<feBlend mode="normal" in2="BackgroundImageFix" result="effect1_dropShadow_2106_1771"/>
<feBlend mode="normal" in="SourceGraphic" in2="effect1_dropShadow_2106_1771" result="shape"/>
</filter>
<filter id="filter1_d_2106_1771" x="24.25" y="16.25" width="34.75" height="31.5" filterUnits="userSpaceOnUse" color-interpolation-filters="sRGB">
<feFlood flood-opacity="0" result="BackgroundImageFix"/>
<feColorMatrix in="SourceAlpha" type="matrix" values="0 0 0 0 0 0 0 0 0 0 0 0 0 0 0 0 0 0 127 0" result="hardAlpha"/>
<feOffset dx="3" dy="3"/>
<feGaussianBlur stdDeviation="2.25"/>
<feComposite in2="hardAlpha" operator="out"/>
<feColorMatrix type="matrix" values="0 0 0 0 0 0 0 0 0 0 0 0 0 0 0 0 0 0 0.35 0"/>
<feBlend mode="normal" in2="BackgroundImageFix" result="effect1_dropShadow_2106_1771"/>
<feBlend mode="normal" in="SourceGraphic" in2="effect1_dropShadow_2106_1771" result="shape"/>
</filter>
</defs>
</svg>
