<svg width="363" height="410" viewBox="0 0 363 410" fill="none" xmlns="http://www.w3.org/2000/svg">
<path opacity="0.05" d="M-32.8453 227.361C-47.8534 215.879 -56.5724 200.711 -59.0024 181.859C-61.4323 163.007 -57.0806 145.786 -45.9472 130.197C-44.2308 127.954 -42.3893 125.806 -40.4227 123.754C-38.4561 121.702 -36.3645 119.745 -34.1478 117.884L93.4899 16.3584C107.29 5.57635 122.763 0.124242 139.908 0.0021104C157.053 -0.120019 172.504 5.08154 186.261 15.6068L332.59 127.557C346.347 138.082 355.41 151.635 359.776 168.215C364.143 184.794 362.928 201.154 356.132 217.295L291.528 367.045C290.312 369.672 288.985 372.312 287.549 374.968C286.112 377.623 284.536 380.072 282.819 382.316C271.186 397.522 255.876 406.26 236.889 408.53C217.903 410.8 200.781 406.098 185.523 394.425C175.017 386.387 167.359 376.182 162.55 363.809C157.741 351.435 156.709 338.79 159.454 325.872L165.54 296.147C166.197 292.698 165.751 289.393 164.203 286.233C162.656 283.073 160.506 280.44 157.755 278.335L86.4661 223.795C83.7146 221.69 80.6114 220.304 77.1565 219.637C73.7016 218.969 70.3952 219.404 67.2374 220.94L40.1395 234.59C28.3898 240.618 15.9147 242.929 2.71413 241.524C-10.4865 240.119 -22.3396 235.398 -32.8453 227.361ZM-8.8338 198.308C-4.08123 201.944 1.18717 203.999 6.97142 204.472C12.7557 204.945 18.2694 203.829 23.5127 201.122L50.3245 187.846C59.9887 182.988 70.1165 181.153 80.708 182.341C91.2994 183.528 100.847 187.375 109.352 193.881L180.64 248.421C189.145 254.928 195.308 263.199 199.129 273.236C202.95 283.273 204.001 293.561 202.281 304.102L196.481 333.453C195.24 339.222 195.604 344.835 197.574 350.294C199.544 355.753 202.905 360.301 207.658 363.937C214.662 369.295 222.429 371.582 230.96 370.798C239.491 370.014 246.552 366.227 252.142 359.439C251.951 359.688 253.513 357.128 256.827 351.76L321.144 202.383C324.543 194.313 325.237 186.15 323.226 177.893C321.215 169.637 316.708 162.829 309.704 157.471L163.375 45.5206C156.371 40.1623 148.56 37.5449 139.939 37.6683C131.319 37.7916 123.684 40.6445 117.034 46.227L-10.3174 147.379C-11.962 148.492 -13.9285 150.544 -16.2171 153.535C-21.5572 160.515 -23.4751 168.335 -21.9709 176.994C-20.4668 185.654 -16.0877 192.758 -8.8338 198.308ZM201.837 193.504C206.089 196.757 210.751 198.05 215.82 197.384C220.89 196.718 225.046 194.266 228.288 190.029C231.53 185.791 232.81 181.138 232.126 176.071C231.443 171.003 228.975 166.843 224.723 163.59C220.471 160.336 215.81 159.043 210.74 159.709C205.67 160.375 201.514 162.827 198.272 167.065C195.03 171.302 193.75 175.955 194.434 181.022C195.117 186.09 197.585 190.25 201.837 193.504ZM254.739 186.554C258.992 189.807 263.653 191.101 268.722 190.435C273.792 189.769 277.948 187.317 281.19 183.079C284.432 178.841 285.712 174.189 285.029 169.121C284.345 164.054 281.877 159.893 277.625 156.64C273.373 153.387 268.712 152.093 263.642 152.759C258.572 153.425 254.416 155.877 251.174 160.115C247.932 164.353 246.652 169.005 247.336 174.073C248.019 179.14 250.487 183.301 254.739 186.554ZM208.967 246.382C213.22 249.635 217.881 250.928 222.951 250.262C228.02 249.596 232.176 247.144 235.419 242.907C238.661 238.669 239.94 234.016 239.257 228.949C238.573 223.881 236.106 219.721 231.853 216.468C227.601 213.214 222.94 211.921 217.87 212.587C212.8 213.253 208.644 215.705 205.402 219.943C202.16 224.18 200.881 228.833 201.564 233.9C202.247 238.968 204.715 243.128 208.967 246.382ZM261.87 239.432C266.122 242.685 270.783 243.979 275.853 243.313C280.922 242.647 285.078 240.195 288.321 235.957C291.563 231.719 292.842 227.067 292.159 221.999C291.476 216.932 289.008 212.771 284.755 209.518C280.503 206.265 275.842 204.971 270.772 205.637C265.703 206.303 261.547 208.755 258.304 212.993C255.062 217.231 253.783 221.883 254.466 226.951C255.149 232.018 257.617 236.179 261.87 239.432ZM109.632 158.529C112.884 161.016 116.384 162.014 120.131 161.522C123.878 161.03 126.991 159.163 129.471 155.922L140.913 140.965L155.922 152.448C159.173 154.935 162.673 155.933 166.42 155.441C170.167 154.949 173.281 153.082 175.76 149.841C178.239 146.601 179.226 143.108 178.721 139.362C178.216 135.617 176.338 132.5 173.086 130.012L158.078 118.53L169.521 103.573C172 100.332 172.987 96.8394 172.482 93.0939C171.977 89.3483 170.099 86.2317 166.847 83.7439C163.595 81.2561 160.096 80.2583 156.348 80.7506C152.601 81.2429 149.488 83.1094 147.009 86.35L135.566 101.307L120.558 89.8249C117.306 87.3371 113.806 86.3393 110.059 86.8316C106.312 87.3239 103.199 89.1904 100.719 92.431C98.2401 95.6717 97.253 99.1648 97.758 102.91C98.2631 106.656 100.141 109.772 103.393 112.26L118.401 123.742L106.958 138.699C104.479 141.94 103.492 145.433 103.997 149.179C104.502 152.924 106.381 156.041 109.632 158.529Z" fill="#F0EA6E"/>
</svg>
