<svg width="148" height="57" viewBox="0 0 148 57" fill="none" xmlns="http://www.w3.org/2000/svg">
<rect x="1" y="1" width="146" height="55" fill="#86E9D6" fill-opacity="0.14"/>
<rect x="1" y="1" width="146" height="55" stroke="#4DD5BC" stroke-width="2"/>
<path d="M25 35C25.0933 35 25.1867 34.9067 25.28 34.72C25.3733 34.5333 25.42 34.2267 25.42 33.8V24.2C25.42 23.7733 25.3733 23.4733 25.28 23.3C25.1867 23.1133 25.0933 23.0133 25 23H36.68V23.6L37.08 25.92C36.7467 25.7733 36.16 25.62 35.32 25.46C34.48 25.2867 33.4667 25.2 32.28 25.2H29.32C28.92 25.2 28.68 25.2333 28.6 25.3C28.5333 25.3533 28.5 25.52 28.5 25.8V27.28C28.5 27.5733 28.5333 27.7467 28.6 27.8C28.68 27.8533 28.9133 27.88 29.3 27.88H32.18C32.9533 27.88 33.5733 27.84 34.04 27.76C34.52 27.6667 34.8333 27.5733 34.98 27.48C34.9267 27.7333 34.8667 28.0267 34.8 28.36C34.7333 28.6933 34.68 29.0133 34.64 29.32C34.6 29.6267 34.58 29.88 34.58 30.08H29.3C28.9133 30.08 28.68 30.1067 28.6 30.16C28.5333 30.2 28.5 30.3733 28.5 30.68V32.16C28.5 32.4667 28.5333 32.6467 28.6 32.7C28.6667 32.7533 28.9 32.78 29.3 32.78H34.7C35.4733 32.78 36.0933 32.6933 36.56 32.52C37.04 32.3333 37.3533 32.1533 37.5 31.98L37.1 34.38V35H25ZM37.7462 35C37.8662 35 38.0663 34.9067 38.3463 34.72C38.6263 34.5333 38.9463 34.2333 39.3063 33.82C39.5596 33.5133 39.8596 33.1533 40.2063 32.74C40.5529 32.3133 40.8996 31.88 41.2463 31.44C41.6063 31 41.9129 30.62 42.1663 30.3C41.9529 30.06 41.7129 29.7867 41.4463 29.48C41.1796 29.1733 40.9063 28.86 40.6263 28.54C40.3596 28.22 40.0929 27.92 39.8263 27.64C39.5729 27.3467 39.3529 27.0933 39.1663 26.88C38.7663 26.4267 38.4463 26.1067 38.2063 25.92C37.9663 25.7333 37.8129 25.64 37.7462 25.64H42.0663C41.9729 25.6533 41.9396 25.7533 41.9663 25.94C42.0063 26.1267 42.1796 26.44 42.4863 26.88C42.6196 27.0667 42.7729 27.28 42.9463 27.52C43.1196 27.76 43.2929 28 43.4663 28.24C43.6396 28.48 43.7863 28.6867 43.9063 28.86H43.9463C44.0529 28.7 44.1796 28.5067 44.3263 28.28C44.4863 28.0533 44.6529 27.8133 44.8263 27.56C44.9996 27.3067 45.1596 27.0667 45.3063 26.84C45.5863 26.4 45.7396 26.0933 45.7663 25.92C45.8063 25.7333 45.7863 25.64 45.7063 25.64H50.0863C49.9663 25.64 49.7729 25.7333 49.5063 25.92C49.2396 26.0933 48.9196 26.3933 48.5463 26.82C48.2929 27.1133 47.9796 27.4733 47.6063 27.9C47.2463 28.3133 46.8863 28.7333 46.5263 29.16C46.1663 29.5867 45.8463 29.9667 45.5663 30.3C45.9129 30.6867 46.2596 31.0733 46.6063 31.46C46.9529 31.8333 47.2929 32.2133 47.6263 32.6C47.9729 32.9867 48.3196 33.3733 48.6663 33.76C49.0663 34.2133 49.3863 34.5333 49.6263 34.72C49.8796 34.9067 50.0396 35 50.1063 35H45.7863C45.8796 35 45.9129 34.9067 45.8863 34.72C45.8596 34.5333 45.6929 34.2133 45.3863 33.76C45.2529 33.5467 45.0929 33.3133 44.9063 33.06C44.7196 32.8067 44.5329 32.5533 44.3463 32.3C44.1596 32.0467 43.9996 31.8333 43.8663 31.66H43.8263C43.7196 31.8333 43.5863 32.0467 43.4263 32.3C43.2796 32.5533 43.1196 32.8133 42.9463 33.08C42.7863 33.3467 42.6329 33.5867 42.4863 33.8C42.1929 34.24 42.0263 34.5533 41.9863 34.74C41.9463 34.9133 41.9729 35 42.0663 35H37.7462ZM50.8175 35C50.9108 35 51.0042 34.9067 51.0975 34.72C51.1908 34.5333 51.2375 34.2267 51.2375 33.8V26.84C51.2375 26.4133 51.1908 26.1067 51.0975 25.92C51.0175 25.7333 50.9308 25.64 50.8375 25.64H54.0775V33.8C54.0775 34.2267 54.1175 34.5333 54.1975 34.72C54.2908 34.9067 54.3842 35 54.4775 35H50.8175ZM52.4375 24.12C51.9442 24.12 51.5508 23.9867 51.2575 23.72C50.9642 23.4533 50.8175 23.0867 50.8175 22.62C50.8175 22.1533 50.9575 21.7867 51.2375 21.52C51.5308 21.2533 51.9308 21.12 52.4375 21.12C52.9442 21.12 53.3375 21.2533 53.6175 21.52C53.9108 21.7867 54.0575 22.1533 54.0575 22.62C54.0575 23.0867 53.9108 23.4533 53.6175 23.72C53.3375 23.9867 52.9442 24.12 52.4375 24.12ZM60.2263 35.2C59.3063 35.2 58.6396 35.0067 58.2263 34.62C57.8129 34.22 57.6063 33.5733 57.6063 32.68V27.64H55.8063V25.64C56.4196 25.64 56.8996 25.5667 57.2463 25.42C57.5929 25.26 57.8396 24.9867 57.9863 24.6C58.1329 24.2133 58.2063 23.6733 58.2063 22.98H60.4463V25.64H63.8663C63.7729 25.9067 63.6796 26.24 63.5863 26.64C63.5063 27.0267 63.4663 27.36 63.4663 27.64H60.4463V31.58C60.4463 32.1933 60.4929 32.6133 60.5863 32.84C60.6796 33.0667 60.8996 33.18 61.2463 33.18C61.4729 33.18 61.7196 33.1 61.9863 32.94C62.2663 32.78 62.5329 32.5867 62.7863 32.36C63.0529 32.12 63.2729 31.8933 63.4463 31.68V32.3L63.6463 34.24C63.4863 34.3733 63.2463 34.52 62.9263 34.68C62.6063 34.8267 62.2129 34.9467 61.7463 35.04C61.2929 35.1467 60.7863 35.2 60.2263 35.2ZM74.5633 39.88C73.7899 39.88 73.0766 39.8267 72.4233 39.72C71.7833 39.6133 71.2233 39.48 70.7433 39.32C70.2766 39.1733 69.9166 39.0267 69.6633 38.88L70.0633 35.88V35.3C70.2499 35.66 70.5433 36.04 70.9433 36.44C71.3433 36.84 71.8433 37.18 72.4433 37.46C73.0433 37.74 73.7233 37.88 74.4833 37.88C74.9766 37.88 75.3899 37.7733 75.7233 37.56C76.0566 37.36 76.3099 37.0467 76.4833 36.62C76.6566 36.1933 76.7433 35.6667 76.7433 35.04V34.72L76.7833 34.36L76.7433 34.32C76.5566 34.52 76.3033 34.6867 75.9833 34.82C75.6766 34.94 75.3366 35.0333 74.9633 35.1C74.6033 35.1667 74.2433 35.2 73.8833 35.2C72.8033 35.2 71.9366 34.9867 71.2833 34.56C70.6433 34.1333 70.1766 33.5533 69.8833 32.82C69.6033 32.0867 69.4633 31.26 69.4633 30.34C69.4633 29.4067 69.6033 28.5733 69.8833 27.84C70.1633 27.1067 70.6233 26.5267 71.2633 26.1C71.9166 25.66 72.7899 25.44 73.8833 25.44C74.2566 25.44 74.6233 25.4667 74.9833 25.52C75.3433 25.5733 75.6766 25.6533 75.9833 25.76C76.2899 25.8533 76.5433 25.9867 76.7433 26.16L76.7833 26.14L76.7433 25.76V25.64H79.9833C79.8899 25.6533 79.7966 25.7533 79.7033 25.94C79.6233 26.1267 79.5833 26.44 79.5833 26.88V34.54C79.5833 36.4733 79.1699 37.8467 78.3433 38.66C77.5299 39.4733 76.2699 39.88 74.5633 39.88ZM74.4233 33.18C74.8899 33.18 75.2966 33.1 75.6433 32.94C75.9899 32.78 76.2566 32.4933 76.4433 32.08C76.6433 31.6667 76.7433 31.0867 76.7433 30.34C76.7433 29.6067 76.6433 29.0333 76.4433 28.62C76.2566 28.1933 75.9899 27.8933 75.6433 27.72C75.2966 27.5333 74.8899 27.44 74.4233 27.44C73.9833 27.44 73.6033 27.5333 73.2833 27.72C72.9633 27.9067 72.7166 28.2133 72.5433 28.64C72.3699 29.0667 72.2833 29.64 72.2833 30.36C72.2833 31.0667 72.3633 31.6267 72.5233 32.04C72.6966 32.4533 72.9433 32.7467 73.2633 32.92C73.5833 33.0933 73.9699 33.18 74.4233 33.18ZM85.7322 35.2C84.5322 35.2 83.5722 34.9667 82.8522 34.5C82.1455 34.02 81.7922 33.2533 81.7922 32.2C81.7922 31.4667 81.9789 30.8733 82.3522 30.42C82.7255 29.9667 83.2322 29.6333 83.8722 29.42C84.5255 29.1933 85.2655 29.08 86.0922 29.08C86.7055 29.08 87.2255 29.1333 87.6522 29.24C88.0922 29.3467 88.4455 29.46 88.7122 29.58C88.9789 29.7 89.1522 29.7867 89.2322 29.84C89.2322 29.28 89.1722 28.8267 89.0522 28.48C88.9322 28.12 88.7122 27.86 88.3922 27.7C88.0855 27.5267 87.6522 27.44 87.0922 27.44C86.2789 27.44 85.5589 27.52 84.9322 27.68C84.3055 27.84 83.7922 28.0267 83.3922 28.24C83.0055 28.4533 82.7389 28.6333 82.5922 28.78V28.18L82.3922 26.22C82.4855 26.1667 82.7322 26.08 83.1322 25.96C83.5322 25.84 84.0789 25.7267 84.7722 25.62C85.4655 25.5 86.2922 25.44 87.2522 25.44C88.5722 25.44 89.5789 25.6333 90.2722 26.02C90.9655 26.3933 91.4389 26.9333 91.6922 27.64C91.9589 28.3467 92.0922 29.2 92.0922 30.2V33.8C92.0922 34.1733 92.1322 34.4467 92.2122 34.62C92.3055 34.78 92.3989 34.9067 92.4922 35H89.2522V34.58L89.2922 34.2L89.2522 34.16C89.1455 34.28 88.9922 34.4 88.7922 34.52C88.5922 34.64 88.3455 34.7533 88.0522 34.86C87.7589 34.9533 87.4189 35.0333 87.0322 35.1C86.6455 35.1667 86.2122 35.2 85.7322 35.2ZM86.6722 33.18C87.2322 33.18 87.6989 33.14 88.0722 33.06C88.4589 32.9667 88.7522 32.8467 88.9522 32.7C89.1522 32.54 89.2522 32.3533 89.2522 32.14C89.2522 31.8333 89.0189 31.58 88.5522 31.38C88.0989 31.18 87.4789 31.08 86.6922 31.08C85.9322 31.08 85.3922 31.1867 85.0722 31.4C84.7655 31.6133 84.6122 31.88 84.6122 32.2C84.6122 32.6 84.7922 32.8667 85.1522 33C85.5122 33.12 86.0189 33.18 86.6722 33.18ZM94.1378 35C94.2311 35 94.3178 34.9067 94.3978 34.72C94.4911 34.5333 94.5378 34.2267 94.5378 33.8V27.04C94.5378 26.6133 94.4911 26.3133 94.3978 26.14C94.3178 25.9533 94.2311 25.8533 94.1378 25.84C94.7245 25.84 95.3245 25.8 95.9378 25.72C96.5511 25.6267 97.0311 25.5333 97.3778 25.44V26.66L97.3378 26.92L97.3778 26.96C97.4178 26.8667 97.5445 26.7 97.7578 26.46C97.9711 26.22 98.2778 25.9933 98.6778 25.78C99.0778 25.5533 99.5711 25.44 100.158 25.44C101.398 25.44 102.344 25.7933 102.998 26.5C103.664 27.2067 103.998 28.3133 103.998 29.82V33.8C103.998 34.2267 104.038 34.5333 104.118 34.72C104.211 34.9067 104.304 35 104.398 35H100.758C100.851 35 100.938 34.9067 101.018 34.72C101.111 34.5333 101.158 34.2267 101.158 33.8V29.88C101.158 29.2533 101.091 28.7667 100.958 28.42C100.824 28.06 100.638 27.8067 100.398 27.66C100.171 27.5133 99.9045 27.44 99.5978 27.44C99.2245 27.44 98.8645 27.5333 98.5178 27.72C98.1845 27.8933 97.9111 28.1733 97.6978 28.56C97.4845 28.9333 97.3778 29.4333 97.3778 30.06V33.8C97.3778 34.2267 97.4178 34.5333 97.4978 34.72C97.5911 34.9067 97.6845 35 97.7778 35H94.1378ZM107.358 35C107.451 34.9867 107.538 34.8867 107.618 34.7C107.711 34.5133 107.758 34.2133 107.758 33.8V30.06C107.758 29.5267 107.704 29.0667 107.598 28.68C107.504 28.28 107.344 27.9733 107.118 27.76C106.891 27.5467 106.584 27.44 106.198 27.44C105.544 27.44 105.011 27.6733 104.598 28.14C104.198 28.6067 103.998 29.3133 103.998 30.26H102.538C102.538 29.62 102.638 29.0133 102.838 28.44C103.038 27.8533 103.324 27.34 103.698 26.9C104.071 26.4467 104.518 26.0933 105.038 25.84C105.558 25.5733 106.131 25.44 106.758 25.44C107.558 25.44 108.244 25.5867 108.818 25.88C109.391 26.16 109.831 26.6333 110.138 27.3C110.444 27.9667 110.598 28.8733 110.598 30.02V33.8C110.598 34.2133 110.638 34.5133 110.718 34.7C110.811 34.8867 110.904 34.9867 110.998 35H107.358ZM117.794 35.2C116.741 35.2 115.861 35.0933 115.154 34.88C114.461 34.6533 113.907 34.3333 113.494 33.92C113.081 33.4933 112.787 32.98 112.614 32.38C112.441 31.78 112.354 31.1 112.354 30.34C112.354 28.8333 112.774 27.64 113.614 26.76C114.454 25.88 115.741 25.44 117.474 25.44C118.487 25.44 119.307 25.58 119.934 25.86C120.574 26.14 121.061 26.5133 121.394 26.98C121.727 27.4467 121.954 27.9667 122.074 28.54C122.207 29.1 122.274 29.6667 122.274 30.24V31.18C122.274 31.14 122.087 31.1 121.714 31.06C121.354 31.0067 120.741 30.98 119.874 30.98H115.234C115.234 31.7133 115.454 32.2667 115.894 32.64C116.347 33 117.081 33.18 118.094 33.18C118.947 33.18 119.707 33.08 120.374 32.88C121.054 32.6667 121.547 32.4667 121.854 32.28V32.88L122.054 34.4C121.801 34.5733 121.314 34.7533 120.594 34.94C119.874 35.1133 118.941 35.2 117.794 35.2ZM115.974 29.26H119.434C119.434 28.9667 119.367 28.68 119.234 28.4C119.114 28.12 118.914 27.8933 118.634 27.72C118.354 27.5333 117.967 27.44 117.474 27.44C116.981 27.44 116.581 27.5133 116.274 27.66C115.981 27.8067 115.761 27.9867 115.614 28.2C115.481 28.4133 115.414 28.6333 115.414 28.86C115.414 28.9933 115.454 29.0933 115.534 29.16C115.614 29.2267 115.761 29.26 115.974 29.26Z" fill="#4DD5BC"/>
</svg>
