<svg width="458" height="71" viewBox="0 0 458 71" fill="none" xmlns="http://www.w3.org/2000/svg">
<path d="M-3.51593e-05 22.208C0.106632 22.208 0.266632 22.0587 0.479965 21.76C0.714632 21.4613 0.981298 20.96 1.27996 20.256C1.4293 19.936 1.66396 19.392 1.98396 18.624C2.3253 17.8347 2.7093 16.928 3.13596 15.904C3.58396 14.8587 4.04263 13.7707 4.51197 12.64C5.00263 11.5093 5.4613 10.4213 5.88797 9.37601C6.33597 8.33067 6.71997 7.41334 7.03997 6.62401C7.3813 5.83467 7.61597 5.26934 7.74397 4.92801C8.0213 4.24534 8.17063 3.75467 8.19197 3.45601C8.2133 3.15734 8.17063 3.00801 8.06396 3.00801H15.04C14.9546 3.00801 14.9226 3.15734 14.944 3.45601C14.9653 3.73334 15.1146 4.22401 15.392 4.92801C15.52 5.26934 15.744 5.83467 16.064 6.62401C16.384 7.39201 16.7573 8.29867 17.184 9.34401C17.6106 10.368 18.0586 11.4453 18.528 12.576C18.9973 13.7067 19.4453 14.7947 19.872 15.84C20.2986 16.864 20.6826 17.7707 21.024 18.56C21.3653 19.3493 21.6106 19.9147 21.76 20.256C22.08 20.96 22.3893 21.4613 22.688 21.76C22.9866 22.0587 23.2106 22.208 23.36 22.208H16.096C16.2666 22.1867 16.4053 22.0267 16.512 21.728C16.64 21.408 16.64 20.9173 16.512 20.256C16.4906 20.1067 16.4693 19.9893 16.448 19.904C16.4266 19.7973 16.384 19.648 16.32 19.456C16.2346 19.136 16.1386 18.912 16.032 18.784C15.9253 18.6347 15.744 18.5493 15.488 18.528C15.2533 18.5067 14.8586 18.496 14.304 18.496H8.79996C8.22397 18.496 7.7973 18.5173 7.51997 18.56C7.24263 18.5813 7.05063 18.656 6.94396 18.784C6.8373 18.912 6.75197 19.1253 6.68797 19.424C6.66663 19.5307 6.63463 19.6693 6.59197 19.84C6.57063 20.0107 6.5493 20.1493 6.52797 20.256C6.37863 20.9387 6.33597 21.4293 6.39997 21.728C6.4853 22.0267 6.59197 22.1867 6.71996 22.208H-3.51593e-05ZM9.63197 14.976H13.376C13.9946 14.976 14.336 14.9227 14.4 14.816C14.464 14.7093 14.432 14.4747 14.304 14.112C14.0266 13.4293 13.7493 12.736 13.472 12.032C13.1946 11.3067 12.928 10.6027 12.672 9.92001C12.4373 9.23734 12.224 8.60801 12.032 8.03201C11.8613 7.43467 11.712 6.93334 11.584 6.52801H11.52C11.2213 7.31734 10.912 8.14934 10.592 9.02401C10.272 9.89867 9.9733 10.7093 9.69597 11.456C9.41863 12.2027 9.19463 12.8213 9.02396 13.312C8.8533 13.7813 8.76797 14.016 8.76797 14.016C8.61863 14.3573 8.5653 14.6027 8.60797 14.752C8.65063 14.9013 8.99197 14.976 9.63197 14.976ZM24.847 22.208C24.9963 22.208 25.135 22.0587 25.263 21.76C25.4123 21.4613 25.487 20.9707 25.487 20.288V9.47201C25.487 8.78934 25.4123 8.30934 25.263 8.03201C25.135 7.73334 24.9963 7.57334 24.847 7.55201C25.7856 7.55201 26.7456 7.48801 27.727 7.36001C28.7083 7.21067 29.4763 7.06134 30.031 6.91201V8.19201L29.967 8.73601L30.031 8.80001C30.1803 8.56534 30.415 8.30934 30.735 8.03201C31.0763 7.73334 31.503 7.47734 32.015 7.26401C32.5483 7.02934 33.167 6.91201 33.871 6.91201C34.9163 6.91201 35.8443 7.06134 36.655 7.36001C37.4656 7.63734 38.0416 7.92534 38.383 8.22401L37.423 12.512V13.472C37.103 13.024 36.6656 12.5653 36.111 12.096C35.5776 11.6267 34.9803 11.232 34.319 10.912C33.679 10.592 33.0176 10.432 32.335 10.432C31.567 10.432 30.991 10.7093 30.607 11.264C30.223 11.8187 30.031 12.6933 30.031 13.888V20.288C30.031 20.9707 30.095 21.4613 30.223 21.76C30.3723 22.0587 30.5216 22.208 30.671 22.208H24.847ZM47.728 22.528C46.0426 22.528 44.6346 22.3573 43.504 22.016C42.3946 21.6533 41.5093 21.1413 40.848 20.48C40.1866 19.7973 39.7173 18.976 39.44 18.016C39.1626 17.056 39.024 15.968 39.024 14.752C39.024 12.3413 39.696 10.432 41.04 9.02401C42.384 7.61601 44.4426 6.91201 47.216 6.91201C48.8373 6.91201 50.1493 7.13601 51.152 7.58401C52.176 8.03201 52.9546 8.62934 53.488 9.37601C54.0213 10.1227 54.384 10.9547 54.576 11.872C54.7893 12.768 54.896 13.6747 54.896 14.592V16.096C54.896 16.032 54.5973 15.968 54 15.904C53.424 15.8187 52.4426 15.776 51.056 15.776H43.632C43.632 16.9493 43.984 17.8347 44.688 18.432C45.4133 19.008 46.5866 19.296 48.208 19.296C49.5733 19.296 50.7893 19.136 51.856 18.816C52.944 18.4747 53.7333 18.1547 54.224 17.856V18.816L54.544 21.248C54.1386 21.5253 53.36 21.8133 52.208 22.112C51.056 22.3893 49.5626 22.528 47.728 22.528ZM44.816 13.024H50.352C50.352 12.5547 50.2453 12.096 50.032 11.648C49.84 11.2 49.52 10.8373 49.072 10.56C48.624 10.2613 48.0053 10.112 47.216 10.112C46.4266 10.112 45.7866 10.2293 45.296 10.464C44.8266 10.6987 44.4746 10.9867 44.24 11.328C44.0266 11.6693 43.92 12.0213 43.92 12.384C43.92 12.5973 43.984 12.7573 44.112 12.864C44.24 12.9707 44.4746 13.024 44.816 13.024ZM65.6685 30.016C64.3885 30.016 63.3751 29.888 62.6285 29.632C61.8818 29.376 61.4018 29.1307 61.1885 28.896L61.8285 23.936V22.976C62.0845 23.5307 62.4365 24.1067 62.8845 24.704C63.3111 25.3013 63.8125 25.8027 64.3885 26.208C64.9645 26.6133 65.5618 26.816 66.1805 26.816C66.6071 26.816 66.9911 26.72 67.3325 26.528C67.6951 26.3573 68.0258 26.08 68.3245 25.696C68.6445 25.312 68.9538 24.832 69.2525 24.256C69.6791 23.4027 69.9458 22.816 70.0525 22.496C69.9245 22.3253 69.7111 21.9307 69.4125 21.312C69.1351 20.6933 68.7938 19.9467 68.3885 19.072C68.0045 18.176 67.5885 17.2373 67.1405 16.256C66.7138 15.2533 66.2978 14.2827 65.8925 13.344C65.5085 12.4053 65.1565 11.5733 64.8365 10.848C64.5378 10.1227 64.3138 9.58934 64.1645 9.24801C63.8658 8.52267 63.5671 8.01067 63.2685 7.71201C62.9485 7.39201 62.7031 7.23201 62.5325 7.23201H69.0925C68.9858 7.23201 68.9111 7.38134 68.8685 7.68001C68.8258 7.97867 68.9005 8.50134 69.0925 9.24801C69.1991 9.65334 69.3698 10.2293 69.6045 10.976C69.8391 11.7013 70.1058 12.5013 70.4045 13.376C70.7245 14.2507 71.0445 15.136 71.3645 16.032C71.7058 16.928 72.0151 17.7493 72.2925 18.496H72.3245C72.6231 17.7067 72.9325 16.8533 73.2525 15.936C73.5938 14.9973 73.9245 14.08 74.2445 13.184C74.5858 12.288 74.8738 11.488 75.1085 10.784C75.3645 10.08 75.5565 9.54667 75.6845 9.18401C75.9191 8.45867 76.0151 7.95734 75.9725 7.68001C75.9298 7.38134 75.8338 7.23201 75.6845 7.23201H82.0525C81.8818 7.23201 81.6471 7.38134 81.3485 7.68001C81.0711 7.95734 80.8045 8.44801 80.5485 9.15201C80.3991 9.53601 80.1538 10.1653 79.8125 11.04C79.4711 11.9147 79.0658 12.9173 78.5965 14.048C78.1271 15.1787 77.6365 16.3413 77.1245 17.536C76.6125 18.7307 76.1111 19.8613 75.6205 20.928C75.1511 21.9733 74.7351 22.8373 74.3725 23.52C73.6471 24.928 72.8898 26.112 72.1005 27.072C71.3111 28.032 70.4045 28.7573 69.3805 29.248C68.3565 29.76 67.1191 30.016 65.6685 30.016ZM89.9675 22.528C87.8341 22.528 86.1595 22.1867 84.9435 21.504C83.7488 20.8213 82.9061 19.8933 82.4155 18.72C81.9461 17.5467 81.7115 16.224 81.7115 14.752C81.7115 13.2587 81.9568 11.9253 82.4475 10.752C82.9595 9.57867 83.8128 8.65067 85.0075 7.96801C86.2021 7.26401 87.8555 6.91201 89.9675 6.91201C92.0795 6.91201 93.7328 7.26401 94.9275 7.96801C96.1221 8.65067 96.9648 9.57867 97.4555 10.752C97.9675 11.9253 98.2235 13.2587 98.2235 14.752C98.2235 16.224 97.9781 17.5467 97.4875 18.72C97.0181 19.8933 96.1861 20.8213 94.9915 21.504C93.7968 22.1867 92.1221 22.528 89.9675 22.528ZM89.9675 19.296C90.8635 19.296 91.5781 19.168 92.1115 18.912C92.6661 18.6347 93.0608 18.1653 93.2955 17.504C93.5515 16.8427 93.6795 15.9253 93.6795 14.752C93.6795 13.5787 93.5515 12.6613 93.2955 12C93.0608 11.3173 92.6661 10.8373 92.1115 10.56C91.5781 10.2613 90.8635 10.112 89.9675 10.112C89.0715 10.112 88.3461 10.2613 87.7915 10.56C87.2581 10.8587 86.8635 11.3493 86.6075 12.032C86.3728 12.7147 86.2555 13.632 86.2555 14.784C86.2555 15.9147 86.3728 16.8107 86.6075 17.472C86.8635 18.1333 87.2581 18.6027 87.7915 18.88C88.3461 19.1573 89.0715 19.296 89.9675 19.296ZM107.061 22.528C105.824 22.528 104.768 22.3147 103.893 21.888C103.018 21.44 102.357 20.6827 101.909 19.616C101.461 18.528 101.237 17.024 101.237 15.104V9.15201C101.237 8.46934 101.162 7.97867 101.013 7.68001C100.885 7.38134 100.746 7.23201 100.597 7.23201H106.485C106.336 7.23201 106.176 7.38134 106.005 7.68001C105.856 7.97867 105.781 8.46934 105.781 9.15201V15.552C105.781 16.896 106.026 17.856 106.517 18.432C107.029 19.008 107.616 19.296 108.277 19.296C109.216 19.296 109.941 19.0827 110.453 18.656C110.965 18.208 111.328 17.632 111.541 16.928C111.754 16.2027 111.861 15.4453 111.861 14.656V9.15201C111.861 8.46934 111.786 7.98934 111.637 7.71201C111.509 7.41334 111.37 7.25334 111.221 7.23201H116.405V20.288C116.405 20.9707 116.469 21.4613 116.597 21.76C116.746 22.0587 116.896 22.208 117.045 22.208H111.861V20.96L111.925 20.32L111.861 20.256C111.648 20.576 111.381 20.8747 111.061 21.152C110.741 21.4293 110.378 21.6747 109.973 21.888C109.568 22.08 109.12 22.2293 108.629 22.336C108.138 22.464 107.616 22.528 107.061 22.528ZM135.379 22.528C133.48 22.528 131.88 22.4213 130.579 22.208C129.278 21.9947 128.382 21.7813 127.891 21.568V20.608L127.219 17.472C127.774 17.8773 128.808 18.2827 130.323 18.688C131.838 19.0933 133.694 19.296 135.891 19.296C136.552 19.296 137.075 19.2533 137.459 19.168C137.864 19.0827 138.152 18.944 138.323 18.752C138.494 18.56 138.579 18.3147 138.579 18.016C138.579 17.6533 138.44 17.376 138.163 17.184C137.907 16.992 137.438 16.8427 136.755 16.736C136.072 16.608 135.08 16.4587 133.779 16.288C132.136 16.0747 130.835 15.776 129.875 15.392C128.915 14.9867 128.232 14.4747 127.827 13.856C127.443 13.216 127.251 12.4373 127.251 11.52C127.251 10.6667 127.454 9.89867 127.859 9.21601C128.286 8.51201 129.011 7.95734 130.035 7.55201C131.08 7.12534 132.531 6.91201 134.387 6.91201C136.136 6.91201 137.672 7.01867 138.995 7.23201C140.318 7.44534 141.267 7.65867 141.843 7.87201V8.83201L142.483 11.648C141.992 11.328 141.032 10.9973 139.603 10.656C138.174 10.3147 136.36 10.144 134.163 10.144C133.31 10.144 132.702 10.2293 132.339 10.4C131.976 10.5707 131.795 10.8693 131.795 11.296C131.795 11.5093 131.848 11.6907 131.955 11.84C132.083 11.9893 132.318 12.128 132.659 12.256C133 12.384 133.491 12.512 134.131 12.64C134.771 12.7467 135.614 12.864 136.659 12.992C138.472 13.2267 139.838 13.5573 140.755 13.984C141.672 14.3893 142.291 14.9013 142.611 15.52C142.931 16.1173 143.091 16.8427 143.091 17.696C143.091 18.784 142.814 19.6907 142.259 20.416C141.726 21.12 140.883 21.6533 139.731 22.016C138.6 22.3573 137.15 22.528 135.379 22.528ZM151.873 22.528C150.636 22.528 149.58 22.3147 148.705 21.888C147.831 21.44 147.169 20.6827 146.721 19.616C146.273 18.528 146.049 17.024 146.049 15.104V9.15201C146.049 8.46934 145.975 7.97867 145.825 7.68001C145.697 7.38134 145.559 7.23201 145.409 7.23201H151.297C151.148 7.23201 150.988 7.38134 150.817 7.68001C150.668 7.97867 150.593 8.46934 150.593 9.15201V15.552C150.593 16.896 150.839 17.856 151.329 18.432C151.841 19.008 152.428 19.296 153.089 19.296C154.028 19.296 154.753 19.0827 155.265 18.656C155.777 18.208 156.14 17.632 156.353 16.928C156.567 16.2027 156.673 15.4453 156.673 14.656V9.15201C156.673 8.46934 156.599 7.98934 156.449 7.71201C156.321 7.41334 156.183 7.25334 156.033 7.23201H161.217V20.288C161.217 20.9707 161.281 21.4613 161.409 21.76C161.559 22.0587 161.708 22.208 161.857 22.208H156.673V20.96L156.737 20.32L156.673 20.256C156.46 20.576 156.193 20.8747 155.873 21.152C155.553 21.4293 155.191 21.6747 154.785 21.888C154.38 22.08 153.932 22.2293 153.441 22.336C152.951 22.464 152.428 22.528 151.873 22.528ZM164.472 22.208C164.621 22.208 164.76 22.0587 164.888 21.76C165.037 21.4613 165.112 20.9707 165.112 20.288V9.47201C165.112 8.78934 165.037 8.30934 164.888 8.03201C164.76 7.73334 164.621 7.57334 164.472 7.55201C165.411 7.55201 166.371 7.48801 167.352 7.36001C168.333 7.21067 169.101 7.06134 169.656 6.91201V8.19201L169.592 8.73601L169.656 8.80001C169.805 8.56534 170.04 8.30934 170.36 8.03201C170.701 7.73334 171.128 7.47734 171.64 7.26401C172.173 7.02934 172.792 6.91201 173.496 6.91201C174.541 6.91201 175.469 7.06134 176.28 7.36001C177.091 7.63734 177.667 7.92534 178.008 8.22401L177.048 12.512V13.472C176.728 13.024 176.291 12.5653 175.736 12.096C175.203 11.6267 174.605 11.232 173.944 10.912C173.304 10.592 172.643 10.432 171.96 10.432C171.192 10.432 170.616 10.7093 170.232 11.264C169.848 11.8187 169.656 12.6933 169.656 13.888V20.288C169.656 20.9707 169.72 21.4613 169.848 21.76C169.997 22.0587 170.147 22.208 170.296 22.208H164.472ZM187.353 22.528C185.668 22.528 184.26 22.3573 183.129 22.016C182.02 21.6533 181.134 21.1413 180.473 20.48C179.812 19.7973 179.342 18.976 179.065 18.016C178.788 17.056 178.649 15.968 178.649 14.752C178.649 12.3413 179.321 10.432 180.665 9.02401C182.009 7.61601 184.068 6.91201 186.841 6.91201C188.462 6.91201 189.774 7.13601 190.777 7.58401C191.801 8.03201 192.58 8.62934 193.113 9.37601C193.646 10.1227 194.009 10.9547 194.201 11.872C194.414 12.768 194.521 13.6747 194.521 14.592V16.096C194.521 16.032 194.222 15.968 193.625 15.904C193.049 15.8187 192.068 15.776 190.681 15.776H183.257C183.257 16.9493 183.609 17.8347 184.313 18.432C185.038 19.008 186.212 19.296 187.833 19.296C189.198 19.296 190.414 19.136 191.481 18.816C192.569 18.4747 193.358 18.1547 193.849 17.856V18.816L194.169 21.248C193.764 21.5253 192.985 21.8133 191.833 22.112C190.681 22.3893 189.188 22.528 187.353 22.528ZM184.441 13.024H189.977C189.977 12.5547 189.87 12.096 189.657 11.648C189.465 11.2 189.145 10.8373 188.697 10.56C188.249 10.2613 187.63 10.112 186.841 10.112C186.052 10.112 185.412 10.2293 184.921 10.464C184.452 10.6987 184.1 10.9867 183.865 11.328C183.652 11.6693 183.545 12.0213 183.545 12.384C183.545 12.5973 183.609 12.7573 183.737 12.864C183.865 12.9707 184.1 13.024 184.441 13.024ZM205.293 30.016C204.013 30.016 203 29.888 202.253 29.632C201.507 29.376 201.027 29.1307 200.813 28.896L201.453 23.936V22.976C201.709 23.5307 202.061 24.1067 202.509 24.704C202.936 25.3013 203.437 25.8027 204.013 26.208C204.589 26.6133 205.187 26.816 205.805 26.816C206.232 26.816 206.616 26.72 206.957 26.528C207.32 26.3573 207.651 26.08 207.949 25.696C208.269 25.312 208.579 24.832 208.877 24.256C209.304 23.4027 209.571 22.816 209.677 22.496C209.549 22.3253 209.336 21.9307 209.037 21.312C208.76 20.6933 208.419 19.9467 208.013 19.072C207.629 18.176 207.213 17.2373 206.765 16.256C206.339 15.2533 205.923 14.2827 205.517 13.344C205.133 12.4053 204.781 11.5733 204.461 10.848C204.163 10.1227 203.939 9.58934 203.789 9.24801C203.491 8.52267 203.192 8.01067 202.893 7.71201C202.573 7.39201 202.328 7.23201 202.157 7.23201H208.717C208.611 7.23201 208.536 7.38134 208.493 7.68001C208.451 7.97867 208.525 8.50134 208.717 9.24801C208.824 9.65334 208.995 10.2293 209.229 10.976C209.464 11.7013 209.731 12.5013 210.029 13.376C210.349 14.2507 210.669 15.136 210.989 16.032C211.331 16.928 211.64 17.7493 211.917 18.496H211.949C212.248 17.7067 212.557 16.8533 212.877 15.936C213.219 14.9973 213.549 14.08 213.869 13.184C214.211 12.288 214.499 11.488 214.733 10.784C214.989 10.08 215.181 9.54667 215.309 9.18401C215.544 8.45867 215.64 7.95734 215.597 7.68001C215.555 7.38134 215.459 7.23201 215.309 7.23201H221.677C221.507 7.23201 221.272 7.38134 220.973 7.68001C220.696 7.95734 220.429 8.44801 220.173 9.15201C220.024 9.53601 219.779 10.1653 219.437 11.04C219.096 11.9147 218.691 12.9173 218.221 14.048C217.752 15.1787 217.261 16.3413 216.749 17.536C216.237 18.7307 215.736 19.8613 215.245 20.928C214.776 21.9733 214.36 22.8373 213.997 23.52C213.272 24.928 212.515 26.112 211.725 27.072C210.936 28.032 210.029 28.7573 209.005 29.248C207.981 29.76 206.744 30.016 205.293 30.016ZM229.592 22.528C227.459 22.528 225.784 22.1867 224.568 21.504C223.374 20.8213 222.531 19.8933 222.04 18.72C221.571 17.5467 221.336 16.224 221.336 14.752C221.336 13.2587 221.582 11.9253 222.072 10.752C222.584 9.57867 223.438 8.65067 224.632 7.96801C225.827 7.26401 227.48 6.91201 229.592 6.91201C231.704 6.91201 233.358 7.26401 234.552 7.96801C235.747 8.65067 236.59 9.57867 237.08 10.752C237.592 11.9253 237.848 13.2587 237.848 14.752C237.848 16.224 237.603 17.5467 237.112 18.72C236.643 19.8933 235.811 20.8213 234.616 21.504C233.422 22.1867 231.747 22.528 229.592 22.528ZM229.592 19.296C230.488 19.296 231.203 19.168 231.736 18.912C232.291 18.6347 232.686 18.1653 232.92 17.504C233.176 16.8427 233.304 15.9253 233.304 14.752C233.304 13.5787 233.176 12.6613 232.92 12C232.686 11.3173 232.291 10.8373 231.736 10.56C231.203 10.2613 230.488 10.112 229.592 10.112C228.696 10.112 227.971 10.2613 227.416 10.56C226.883 10.8587 226.488 11.3493 226.232 12.032C225.998 12.7147 225.88 13.632 225.88 14.784C225.88 15.9147 225.998 16.8107 226.232 17.472C226.488 18.1333 226.883 18.6027 227.416 18.88C227.971 19.1573 228.696 19.296 229.592 19.296ZM246.686 22.528C245.449 22.528 244.393 22.3147 243.518 21.888C242.643 21.44 241.982 20.6827 241.534 19.616C241.086 18.528 240.862 17.024 240.862 15.104V9.15201C240.862 8.46934 240.787 7.97867 240.638 7.68001C240.51 7.38134 240.371 7.23201 240.222 7.23201H246.11C245.961 7.23201 245.801 7.38134 245.63 7.68001C245.481 7.97867 245.406 8.46934 245.406 9.15201V15.552C245.406 16.896 245.651 17.856 246.142 18.432C246.654 19.008 247.241 19.296 247.902 19.296C248.841 19.296 249.566 19.0827 250.078 18.656C250.59 18.208 250.953 17.632 251.166 16.928C251.379 16.2027 251.486 15.4453 251.486 14.656V9.15201C251.486 8.46934 251.411 7.98934 251.262 7.71201C251.134 7.41334 250.995 7.25334 250.846 7.23201H256.03V20.288C256.03 20.9707 256.094 21.4613 256.222 21.76C256.371 22.0587 256.521 22.208 256.67 22.208H251.486V20.96L251.55 20.32L251.486 20.256C251.273 20.576 251.006 20.8747 250.686 21.152C250.366 21.4293 250.003 21.6747 249.598 21.888C249.193 22.08 248.745 22.2293 248.254 22.336C247.763 22.464 247.241 22.528 246.686 22.528ZM271.42 22.208C271.569 22.208 271.665 22.0693 271.708 21.792C271.772 21.5147 271.676 21.0133 271.42 20.288C271.335 20.0107 271.143 19.52 270.844 18.816C270.567 18.112 270.236 17.3013 269.852 16.384C269.468 15.4667 269.073 14.5387 268.668 13.6C268.284 12.6613 267.932 11.7973 267.612 11.008C267.292 10.2187 267.047 9.62134 266.876 9.21601C266.599 8.49067 266.3 7.97867 265.98 7.68001C265.681 7.38134 265.436 7.23201 265.244 7.23201H271.772C271.644 7.23201 271.559 7.38134 271.516 7.68001C271.473 7.97867 271.559 8.49067 271.772 9.21601C271.879 9.60001 272.049 10.1653 272.284 10.912C272.54 11.6587 272.817 12.5013 273.116 13.44C273.436 14.3787 273.756 15.3387 274.076 16.32C274.417 17.3013 274.727 18.208 275.004 19.04H275.036C275.271 18.1867 275.527 17.2693 275.804 16.288C276.081 15.2853 276.348 14.3147 276.604 13.376C276.86 12.416 277.084 11.5627 277.276 10.816C277.489 10.0693 277.639 9.51467 277.724 9.15201C277.916 8.42667 277.991 7.92534 277.948 7.64801C277.905 7.37067 277.831 7.23201 277.724 7.23201H284.828C284.7 7.23201 284.615 7.38134 284.572 7.68001C284.529 7.97867 284.615 8.49067 284.828 9.21601C284.935 9.60001 285.095 10.1653 285.308 10.912C285.521 11.6587 285.756 12.5013 286.012 13.44C286.268 14.3787 286.535 15.3387 286.812 16.32C287.089 17.3013 287.335 18.208 287.548 19.04H287.58C287.9 18.1867 288.231 17.2693 288.572 16.288C288.935 15.2853 289.287 14.3147 289.628 13.376C289.969 12.416 290.268 11.5627 290.524 10.816C290.78 10.0693 290.951 9.51467 291.036 9.15201C291.228 8.46934 291.303 7.97867 291.26 7.68001C291.217 7.38134 291.143 7.23201 291.036 7.23201H297.404C297.255 7.23201 297.041 7.37067 296.764 7.64801C296.487 7.92534 296.199 8.41601 295.9 9.12001C295.751 9.50401 295.505 10.0693 295.164 10.816C294.823 11.5627 294.449 12.3947 294.044 13.312C293.639 14.2293 293.233 15.1467 292.828 16.064C292.423 16.9813 292.06 17.8133 291.74 18.56C291.441 19.3067 291.228 19.8827 291.1 20.288C290.887 20.9707 290.801 21.4613 290.844 21.76C290.887 22.0587 290.972 22.208 291.1 22.208H283.964C284.092 22.208 284.177 22.0587 284.22 21.76C284.263 21.4613 284.177 20.9707 283.964 20.288C283.9 20.096 283.772 19.6587 283.58 18.976C283.409 18.2933 283.196 17.472 282.94 16.512C282.684 15.5307 282.417 14.5173 282.14 13.472C281.863 12.4267 281.596 11.4347 281.34 10.496H281.244C280.988 11.392 280.721 12.352 280.444 13.376C280.167 14.3787 279.9 15.36 279.644 16.32C279.388 17.2587 279.153 18.0907 278.94 18.816C278.748 19.52 278.62 20.0107 278.556 20.288C278.364 20.992 278.289 21.4933 278.332 21.792C278.375 22.0693 278.449 22.208 278.556 22.208H271.42ZM304.242 22.528C302.322 22.528 300.786 22.1547 299.634 21.408C298.503 20.64 297.938 19.4133 297.938 17.728C297.938 16.5547 298.236 15.6053 298.834 14.88C299.431 14.1547 300.242 13.6213 301.266 13.28C302.311 12.9173 303.495 12.736 304.818 12.736C305.799 12.736 306.631 12.8213 307.314 12.992C308.018 13.1627 308.583 13.344 309.01 13.536C309.436 13.728 309.714 13.8667 309.842 13.952C309.842 13.056 309.746 12.3307 309.554 11.776C309.362 11.2 309.01 10.784 308.498 10.528C308.007 10.2507 307.314 10.112 306.418 10.112C305.116 10.112 303.964 10.24 302.962 10.496C301.959 10.752 301.138 11.0507 300.498 11.392C299.879 11.7333 299.452 12.0213 299.218 12.256V11.296L298.898 8.16001C299.047 8.07467 299.442 7.93601 300.082 7.74401C300.722 7.55201 301.596 7.37067 302.706 7.20001C303.815 7.00801 305.138 6.91201 306.674 6.91201C308.786 6.91201 310.396 7.22134 311.506 7.84001C312.615 8.43734 313.372 9.30134 313.778 10.432C314.204 11.5627 314.418 12.928 314.418 14.528V20.288C314.418 20.8853 314.482 21.3227 314.61 21.6C314.759 21.856 314.908 22.0587 315.058 22.208H309.874V21.536L309.938 20.928L309.874 20.864C309.703 21.056 309.458 21.248 309.138 21.44C308.818 21.632 308.423 21.8133 307.954 21.984C307.484 22.1333 306.94 22.2613 306.322 22.368C305.703 22.4747 305.01 22.528 304.242 22.528ZM305.746 19.296C306.642 19.296 307.388 19.232 307.986 19.104C308.604 18.9547 309.074 18.7627 309.394 18.528C309.714 18.272 309.874 17.9733 309.874 17.632C309.874 17.1413 309.5 16.736 308.754 16.416C308.028 16.096 307.036 15.936 305.778 15.936C304.562 15.936 303.698 16.1067 303.186 16.448C302.695 16.7893 302.45 17.216 302.45 17.728C302.45 18.368 302.738 18.7947 303.314 19.008C303.89 19.2 304.7 19.296 305.746 19.296ZM317.691 22.208C317.84 22.208 317.979 22.0587 318.107 21.76C318.256 21.4613 318.331 20.9707 318.331 20.288V9.47201C318.331 8.78934 318.256 8.30934 318.107 8.03201C317.979 7.73334 317.84 7.57334 317.691 7.55201C318.629 7.55201 319.589 7.48801 320.571 7.36001C321.552 7.21067 322.32 7.06134 322.875 6.91201V8.86401L322.811 9.28001L322.875 9.34401C322.939 9.19467 323.141 8.92801 323.483 8.54401C323.824 8.16001 324.315 7.79734 324.955 7.45601C325.595 7.09334 326.384 6.91201 327.323 6.91201C329.307 6.91201 330.821 7.47734 331.867 8.60801C332.933 9.73867 333.467 11.5093 333.467 13.92V20.288C333.467 20.9707 333.531 21.4613 333.659 21.76C333.808 22.0587 333.957 22.208 334.107 22.208H328.283C328.432 22.208 328.571 22.0587 328.699 21.76C328.848 21.4613 328.923 20.9707 328.923 20.288V14.016C328.923 13.0133 328.816 12.2347 328.603 11.68C328.389 11.104 328.091 10.6987 327.707 10.464C327.344 10.2293 326.917 10.112 326.427 10.112C325.829 10.112 325.253 10.2613 324.699 10.56C324.165 10.8373 323.728 11.2853 323.387 11.904C323.045 12.5013 322.875 13.3013 322.875 14.304V20.288C322.875 20.9707 322.939 21.4613 323.067 21.76C323.216 22.0587 323.365 22.208 323.515 22.208H317.691ZM343.026 22.528C341.554 22.528 340.487 22.2187 339.826 21.6C339.165 20.96 338.834 19.9253 338.834 18.496V10.432H335.954V7.23201C336.935 7.23201 337.703 7.11467 338.258 6.88001C338.813 6.62401 339.207 6.18667 339.442 5.56801C339.677 4.94934 339.794 4.08534 339.794 2.97601H343.378V7.23201H348.85C348.701 7.65867 348.551 8.19201 348.402 8.83201C348.274 9.45067 348.21 9.98401 348.21 10.432H343.378V16.736C343.378 17.7173 343.453 18.3893 343.602 18.752C343.751 19.1147 344.103 19.296 344.658 19.296C345.021 19.296 345.415 19.168 345.842 18.912C346.29 18.656 346.717 18.3467 347.122 17.984C347.549 17.6 347.901 17.2373 348.178 16.896V17.888L348.498 20.992C348.242 21.2053 347.858 21.44 347.346 21.696C346.834 21.9307 346.205 22.1227 345.458 22.272C344.733 22.4427 343.922 22.528 343.026 22.528ZM364.557 22.528C363.085 22.528 362.019 22.2187 361.357 21.6C360.696 20.96 360.365 19.9253 360.365 18.496V10.432H357.485V7.23201C358.467 7.23201 359.235 7.11467 359.789 6.88001C360.344 6.62401 360.739 6.18667 360.973 5.56801C361.208 4.94934 361.325 4.08534 361.325 2.97601H364.909V7.23201H370.381C370.232 7.65867 370.083 8.19201 369.933 8.83201C369.805 9.45067 369.741 9.98401 369.741 10.432H364.909V16.736C364.909 17.7173 364.984 18.3893 365.133 18.752C365.283 19.1147 365.635 19.296 366.189 19.296C366.552 19.296 366.947 19.168 367.373 18.912C367.821 18.656 368.248 18.3467 368.653 17.984C369.08 17.6 369.432 17.2373 369.709 16.896V17.888L370.029 20.992C369.773 21.2053 369.389 21.44 368.877 21.696C368.365 21.9307 367.736 22.1227 366.989 22.272C366.264 22.4427 365.453 22.528 364.557 22.528ZM379.905 22.528C377.772 22.528 376.097 22.1867 374.881 21.504C373.686 20.8213 372.844 19.8933 372.353 18.72C371.884 17.5467 371.649 16.224 371.649 14.752C371.649 13.2587 371.894 11.9253 372.385 10.752C372.897 9.57867 373.75 8.65067 374.945 7.96801C376.14 7.26401 377.793 6.91201 379.905 6.91201C382.017 6.91201 383.67 7.26401 384.865 7.96801C386.06 8.65067 386.902 9.57867 387.393 10.752C387.905 11.9253 388.161 13.2587 388.161 14.752C388.161 16.224 387.916 17.5467 387.425 18.72C386.956 19.8933 386.124 20.8213 384.929 21.504C383.734 22.1867 382.06 22.528 379.905 22.528ZM379.905 19.296C380.801 19.296 381.516 19.168 382.049 18.912C382.604 18.6347 382.998 18.1653 383.233 17.504C383.489 16.8427 383.617 15.9253 383.617 14.752C383.617 13.5787 383.489 12.6613 383.233 12C382.998 11.3173 382.604 10.8373 382.049 10.56C381.516 10.2613 380.801 10.112 379.905 10.112C379.009 10.112 378.284 10.2613 377.729 10.56C377.196 10.8587 376.801 11.3493 376.545 12.032C376.31 12.7147 376.193 13.632 376.193 14.784C376.193 15.9147 376.31 16.8107 376.545 17.472C376.801 18.1333 377.196 18.6027 377.729 18.88C378.284 19.1573 379.009 19.296 379.905 19.296ZM409.102 30.016C409.166 29.8453 409.23 29.536 409.294 29.088C409.379 28.6613 409.422 28.1173 409.422 27.456V21.792L409.486 21.184L409.422 21.152C409.102 21.4293 408.729 21.6747 408.302 21.888C407.875 22.08 407.395 22.2293 406.862 22.336C406.35 22.464 405.785 22.528 405.166 22.528C403.267 22.528 401.774 22.1867 400.686 21.504C399.619 20.8213 398.862 19.8933 398.414 18.72C397.987 17.5467 397.774 16.224 397.774 14.752C397.774 13.2587 397.987 11.9253 398.414 10.752C398.862 9.57867 399.619 8.65067 400.686 7.96801C401.774 7.26401 403.267 6.91201 405.166 6.91201C405.806 6.91201 406.382 6.96534 406.894 7.07201C407.427 7.17867 407.897 7.32801 408.302 7.52001C408.729 7.69067 409.102 7.91467 409.422 8.19201L409.486 8.16001L409.422 7.55201V7.23201H414.606C414.457 7.25334 414.307 7.41334 414.158 7.71201C414.03 8.01067 413.966 8.51201 413.966 9.21601V27.456C413.966 28.1387 414.03 28.6293 414.158 28.928C414.307 29.2267 414.446 29.376 414.574 29.376C413.593 29.376 412.59 29.44 411.566 29.568C410.542 29.7173 409.721 29.8667 409.102 30.016ZM405.71 19.296C406.414 19.296 407.001 19.1893 407.47 18.976C407.961 18.7627 408.345 18.464 408.622 18.08C408.921 17.6747 409.123 17.1947 409.23 16.64C409.358 16.064 409.422 15.4347 409.422 14.752C409.422 14.0693 409.358 13.4507 409.23 12.896C409.102 12.32 408.899 11.8293 408.622 11.424C408.345 10.9973 407.961 10.6773 407.47 10.464C407.001 10.2293 406.414 10.112 405.71 10.112C404.686 10.112 403.854 10.464 403.214 11.168C402.595 11.872 402.286 13.0773 402.286 14.784C402.286 15.9147 402.425 16.8107 402.702 17.472C402.979 18.1333 403.374 18.6027 403.886 18.88C404.398 19.1573 405.006 19.296 405.71 19.296ZM424.092 22.528C422.855 22.528 421.799 22.3147 420.924 21.888C420.05 21.44 419.388 20.6827 418.94 19.616C418.492 18.528 418.268 17.024 418.268 15.104V9.15201C418.268 8.46934 418.194 7.97867 418.044 7.68001C417.916 7.38134 417.778 7.23201 417.628 7.23201H423.516C423.367 7.23201 423.207 7.38134 423.036 7.68001C422.887 7.97867 422.812 8.46934 422.812 9.15201V15.552C422.812 16.896 423.058 17.856 423.548 18.432C424.06 19.008 424.647 19.296 425.308 19.296C426.247 19.296 426.972 19.0827 427.484 18.656C427.996 18.208 428.359 17.632 428.572 16.928C428.786 16.2027 428.892 15.4453 428.892 14.656V9.15201C428.892 8.46934 428.818 7.98934 428.668 7.71201C428.54 7.41334 428.402 7.25334 428.252 7.23201H433.436V20.288C433.436 20.9707 433.5 21.4613 433.628 21.76C433.778 22.0587 433.927 22.208 434.076 22.208H428.892V20.96L428.956 20.32L428.892 20.256C428.679 20.576 428.412 20.8747 428.092 21.152C427.772 21.4293 427.41 21.6747 427.004 21.888C426.599 22.08 426.151 22.2293 425.66 22.336C425.17 22.464 424.647 22.528 424.092 22.528ZM436.691 22.208C436.84 22.208 436.989 22.0587 437.139 21.76C437.288 21.4613 437.363 20.9707 437.363 20.288V9.15201C437.363 8.46934 437.288 7.97867 437.139 7.68001C437.011 7.38134 436.872 7.23201 436.723 7.23201H441.907V20.288C441.907 20.9707 441.971 21.4613 442.099 21.76C442.248 22.0587 442.397 22.208 442.547 22.208H436.691ZM439.283 4.80001C438.493 4.80001 437.864 4.58667 437.395 4.16001C436.925 3.73334 436.691 3.14667 436.691 2.40001C436.691 1.65334 436.915 1.06667 437.363 0.640007C437.832 0.213341 438.472 7.62939e-06 439.283 7.62939e-06C440.093 7.62939e-06 440.723 0.213341 441.171 0.640007C441.64 1.06667 441.875 1.65334 441.875 2.40001C441.875 3.14667 441.64 3.73334 441.171 4.16001C440.723 4.58667 440.093 4.80001 439.283 4.80001ZM451.745 22.528C450.273 22.528 449.206 22.2187 448.545 21.6C447.883 20.96 447.553 19.9253 447.553 18.496V10.432H444.673V7.23201C445.654 7.23201 446.422 7.11467 446.977 6.88001C447.531 6.62401 447.926 6.18667 448.161 5.56801C448.395 4.94934 448.513 4.08534 448.513 2.97601H452.097V7.23201H457.569C457.419 7.65867 457.27 8.19201 457.121 8.83201C456.993 9.45067 456.929 9.98401 456.929 10.432H452.097V16.736C452.097 17.7173 452.171 18.3893 452.321 18.752C452.47 19.1147 452.822 19.296 453.377 19.296C453.739 19.296 454.134 19.168 454.561 18.912C455.009 18.656 455.435 18.3467 455.841 17.984C456.267 17.6 456.619 17.2373 456.897 16.896V17.888L457.217 20.992C456.961 21.2053 456.577 21.44 456.065 21.696C455.553 21.9307 454.923 22.1227 454.177 22.272C453.451 22.4427 452.641 22.528 451.745 22.528ZM155.542 62.528C154.07 62.528 153.003 62.2187 152.342 61.6C151.68 60.96 151.35 59.9253 151.35 58.496V50.432H148.47V47.232C149.451 47.232 150.219 47.1147 150.774 46.88C151.328 46.624 151.723 46.1867 151.958 45.568C152.192 44.9493 152.31 44.0853 152.31 42.976H155.894V47.232H161.366C161.216 47.6587 161.067 48.192 160.918 48.832C160.79 49.4507 160.726 49.984 160.726 50.432H155.894V56.736C155.894 57.7173 155.968 58.3893 156.118 58.752C156.267 59.1147 156.619 59.296 157.174 59.296C157.536 59.296 157.931 59.168 158.358 58.912C158.806 58.656 159.232 58.3467 159.638 57.984C160.064 57.6 160.416 57.2373 160.694 56.896V57.888L161.014 60.992C160.758 61.2053 160.374 61.44 159.862 61.696C159.35 61.9307 158.72 62.1227 157.974 62.272C157.248 62.4427 156.438 62.528 155.542 62.528ZM163.081 62.208C163.231 62.208 163.369 62.0587 163.497 61.76C163.647 61.4613 163.721 60.9707 163.721 60.288V42.048C163.721 41.3653 163.647 40.8853 163.497 40.608C163.369 40.3093 163.231 40.1493 163.081 40.128H168.265V48.864L168.201 49.28L168.265 49.344C168.329 49.1947 168.532 48.928 168.873 48.544C169.215 48.16 169.705 47.7973 170.345 47.456C170.985 47.0933 171.775 46.912 172.713 46.912C174.697 46.912 176.212 47.4773 177.257 48.608C178.324 49.7387 178.857 51.5093 178.857 53.92V60.288C178.857 60.9707 178.921 61.4613 179.049 61.76C179.199 62.0587 179.348 62.208 179.497 62.208H173.673C173.823 62.208 173.961 62.0587 174.089 61.76C174.239 61.4613 174.313 60.9707 174.313 60.288V54.016C174.313 53.0133 174.207 52.2347 173.993 51.68C173.78 51.104 173.481 50.6987 173.097 50.464C172.735 50.2293 172.308 50.112 171.817 50.112C171.22 50.112 170.644 50.2613 170.089 50.56C169.556 50.8373 169.119 51.2853 168.777 51.904C168.436 52.5013 168.265 53.3013 168.265 54.304V60.288C168.265 60.9707 168.329 61.4613 168.457 61.76C168.607 62.0587 168.756 62.208 168.905 62.208H163.081ZM190.369 62.528C188.683 62.528 187.275 62.3573 186.145 62.016C185.035 61.6533 184.15 61.1413 183.489 60.48C182.827 59.7973 182.358 58.976 182.081 58.016C181.803 57.056 181.665 55.968 181.665 54.752C181.665 52.3413 182.337 50.432 183.681 49.024C185.025 47.616 187.083 46.912 189.857 46.912C191.478 46.912 192.79 47.136 193.793 47.584C194.817 48.032 195.595 48.6293 196.129 49.376C196.662 50.1227 197.025 50.9547 197.217 51.872C197.43 52.768 197.537 53.6747 197.537 54.592V56.096C197.537 56.032 197.238 55.968 196.641 55.904C196.065 55.8187 195.083 55.776 193.697 55.776H186.273C186.273 56.9493 186.625 57.8347 187.329 58.432C188.054 59.008 189.227 59.296 190.849 59.296C192.214 59.296 193.43 59.136 194.497 58.816C195.585 58.4747 196.374 58.1547 196.865 57.856V58.816L197.185 61.248C196.779 61.5253 196.001 61.8133 194.849 62.112C193.697 62.3893 192.203 62.528 190.369 62.528ZM187.457 53.024H192.993C192.993 52.5547 192.886 52.096 192.673 51.648C192.481 51.2 192.161 50.8373 191.713 50.56C191.265 50.2613 190.646 50.112 189.857 50.112C189.067 50.112 188.427 50.2293 187.937 50.464C187.467 50.6987 187.115 50.9867 186.881 51.328C186.667 51.6693 186.561 52.0213 186.561 52.384C186.561 52.5973 186.625 52.7573 186.753 52.864C186.881 52.9707 187.115 53.024 187.457 53.024ZM215.637 70.016C214.4 70.016 213.258 69.9307 212.213 69.76C211.189 69.5893 210.293 69.376 209.525 69.12C208.778 68.8853 208.202 68.6507 207.797 68.416L208.437 63.616V62.688C208.736 63.264 209.205 63.872 209.845 64.512C210.485 65.152 211.285 65.696 212.245 66.144C213.205 66.592 214.293 66.816 215.509 66.816C216.298 66.816 216.96 66.6453 217.493 66.304C218.026 65.984 218.432 65.4827 218.709 64.8C218.986 64.1173 219.125 63.2747 219.125 62.272V61.76L219.189 61.184L219.125 61.12C218.826 61.44 218.421 61.7067 217.909 61.92C217.418 62.112 216.874 62.2613 216.277 62.368C215.701 62.4747 215.125 62.528 214.549 62.528C212.821 62.528 211.434 62.1867 210.389 61.504C209.365 60.8213 208.618 59.8933 208.149 58.72C207.701 57.5467 207.477 56.224 207.477 54.752C207.477 53.2587 207.701 51.9253 208.149 50.752C208.597 49.5787 209.333 48.6507 210.357 47.968C211.402 47.264 212.8 46.912 214.549 46.912C215.146 46.912 215.733 46.9547 216.309 47.04C216.885 47.1253 217.418 47.2533 217.909 47.424C218.4 47.5733 218.805 47.7867 219.125 48.064L219.189 48.032L219.125 47.424V47.232H224.309C224.16 47.2533 224.01 47.4133 223.861 47.712C223.733 48.0107 223.669 48.512 223.669 49.216V61.472C223.669 64.5653 223.008 66.7627 221.685 68.064C220.384 69.3653 218.368 70.016 215.637 70.016ZM215.413 59.296C216.16 59.296 216.81 59.168 217.365 58.912C217.92 58.656 218.346 58.1973 218.645 57.536C218.965 56.8747 219.125 55.9467 219.125 54.752C219.125 53.5787 218.965 52.6613 218.645 52C218.346 51.3173 217.92 50.8373 217.365 50.56C216.81 50.2613 216.16 50.112 215.413 50.112C214.709 50.112 214.101 50.2613 213.589 50.56C213.077 50.8587 212.682 51.3493 212.405 52.032C212.128 52.7147 211.989 53.632 211.989 54.784C211.989 55.9147 212.117 56.8107 212.373 57.472C212.65 58.1333 213.045 58.6027 213.557 58.88C214.069 59.1573 214.688 59.296 215.413 59.296ZM233.507 62.528C231.587 62.528 230.051 62.1547 228.899 61.408C227.769 60.64 227.203 59.4133 227.203 57.728C227.203 56.5547 227.502 55.6053 228.099 54.88C228.697 54.1547 229.507 53.6213 230.531 53.28C231.577 52.9173 232.761 52.736 234.083 52.736C235.065 52.736 235.897 52.8213 236.579 52.992C237.283 53.1627 237.849 53.344 238.275 53.536C238.702 53.728 238.979 53.8667 239.107 53.952C239.107 53.056 239.011 52.3307 238.819 51.776C238.627 51.2 238.275 50.784 237.763 50.528C237.273 50.2507 236.579 50.112 235.683 50.112C234.382 50.112 233.23 50.24 232.227 50.496C231.225 50.752 230.403 51.0507 229.763 51.392C229.145 51.7333 228.718 52.0213 228.483 52.256V51.296L228.163 48.16C228.313 48.0747 228.707 47.936 229.347 47.744C229.987 47.552 230.862 47.3707 231.971 47.2C233.081 47.008 234.403 46.912 235.939 46.912C238.051 46.912 239.662 47.2213 240.771 47.84C241.881 48.4373 242.638 49.3013 243.043 50.432C243.47 51.5627 243.683 52.928 243.683 54.528V60.288C243.683 60.8853 243.747 61.3227 243.875 61.6C244.025 61.856 244.174 62.0587 244.323 62.208H239.139V61.536L239.203 60.928L239.139 60.864C238.969 61.056 238.723 61.248 238.403 61.44C238.083 61.632 237.689 61.8133 237.219 61.984C236.75 62.1333 236.206 62.2613 235.587 62.368C234.969 62.4747 234.275 62.528 233.507 62.528ZM235.011 59.296C235.907 59.296 236.654 59.232 237.251 59.104C237.87 58.9547 238.339 58.7627 238.659 58.528C238.979 58.272 239.139 57.9733 239.139 57.632C239.139 57.1413 238.766 56.736 238.019 56.416C237.294 56.096 236.302 55.936 235.043 55.936C233.827 55.936 232.963 56.1067 232.451 56.448C231.961 56.7893 231.715 57.216 231.715 57.728C231.715 58.368 232.003 58.7947 232.579 59.008C233.155 59.2 233.966 59.296 235.011 59.296ZM246.956 62.208C247.106 62.208 247.244 62.0587 247.372 61.76C247.522 61.4613 247.596 60.9707 247.596 60.288V49.472C247.596 48.7893 247.522 48.3093 247.372 48.032C247.244 47.7333 247.106 47.5733 246.956 47.552C247.895 47.552 248.855 47.488 249.836 47.36C250.818 47.2107 251.586 47.0613 252.14 46.912V48.864L252.076 49.28L252.14 49.344C252.204 49.1947 252.407 48.928 252.748 48.544C253.09 48.16 253.58 47.7973 254.22 47.456C254.86 47.0933 255.65 46.912 256.588 46.912C258.572 46.912 260.087 47.4773 261.132 48.608C262.199 49.7387 262.732 51.5093 262.732 53.92V60.288C262.732 60.9707 262.796 61.4613 262.924 61.76C263.074 62.0587 263.223 62.208 263.372 62.208H257.548C257.698 62.208 257.836 62.0587 257.964 61.76C258.114 61.4613 258.188 60.9707 258.188 60.288V54.016C258.188 53.0133 258.082 52.2347 257.868 51.68C257.655 51.104 257.356 50.6987 256.972 50.464C256.61 50.2293 256.183 50.112 255.692 50.112C255.095 50.112 254.519 50.2613 253.964 50.56C253.431 50.8373 252.994 51.2853 252.652 51.904C252.311 52.5013 252.14 53.3013 252.14 54.304V60.288C252.14 60.9707 252.204 61.4613 252.332 61.76C252.482 62.0587 252.631 62.208 252.78 62.208H246.956ZM268.108 62.208C268.258 62.1867 268.396 62.0267 268.524 61.728C268.674 61.4293 268.748 60.9493 268.748 60.288V54.304C268.748 53.4507 268.663 52.7147 268.492 52.096C268.343 51.456 268.087 50.9653 267.724 50.624C267.362 50.2827 266.871 50.112 266.252 50.112C265.207 50.112 264.354 50.4853 263.692 51.232C263.052 51.9787 262.732 53.1093 262.732 54.624H260.396C260.396 53.6 260.556 52.6293 260.876 51.712C261.196 50.7733 261.655 49.952 262.252 49.248C262.85 48.5227 263.564 47.9573 264.396 47.552C265.228 47.1253 266.146 46.912 267.148 46.912C268.428 46.912 269.527 47.1467 270.444 47.616C271.362 48.064 272.066 48.8213 272.556 49.888C273.047 50.9547 273.292 52.4053 273.292 54.24V60.288C273.292 60.9493 273.356 61.4293 273.484 61.728C273.634 62.0267 273.783 62.1867 273.932 62.208H268.108ZM284.806 62.528C283.121 62.528 281.713 62.3573 280.582 62.016C279.473 61.6533 278.587 61.1413 277.926 60.48C277.265 59.7973 276.795 58.976 276.518 58.016C276.241 57.056 276.102 55.968 276.102 54.752C276.102 52.3413 276.774 50.432 278.118 49.024C279.462 47.616 281.521 46.912 284.294 46.912C285.915 46.912 287.227 47.136 288.23 47.584C289.254 48.032 290.033 48.6293 290.566 49.376C291.099 50.1227 291.462 50.9547 291.654 51.872C291.867 52.768 291.974 53.6747 291.974 54.592V56.096C291.974 56.032 291.675 55.968 291.078 55.904C290.502 55.8187 289.521 55.776 288.134 55.776H280.71C280.71 56.9493 281.062 57.8347 281.766 58.432C282.491 59.008 283.665 59.296 285.286 59.296C286.651 59.296 287.867 59.136 288.934 58.816C290.022 58.4747 290.811 58.1547 291.302 57.856V58.816L291.622 61.248C291.217 61.5253 290.438 61.8133 289.286 62.112C288.134 62.3893 286.641 62.528 284.806 62.528ZM281.894 53.024H287.43C287.43 52.5547 287.323 52.096 287.11 51.648C286.918 51.2 286.598 50.8373 286.15 50.56C285.702 50.2613 285.083 50.112 284.294 50.112C283.505 50.112 282.865 50.2293 282.374 50.464C281.905 50.6987 281.553 50.9867 281.318 51.328C281.105 51.6693 280.998 52.0213 280.998 52.384C280.998 52.5973 281.062 52.7573 281.19 52.864C281.318 52.9707 281.553 53.024 281.894 53.024ZM300.083 56.416C299.87 56.416 299.592 55.9573 299.251 55.04C298.931 54.1227 298.771 52.8853 298.771 51.328C299.496 51.1147 300.147 50.816 300.723 50.432C301.32 50.0267 301.79 49.5787 302.131 49.088C302.494 48.576 302.675 48.064 302.675 47.552C302.675 47.0613 302.558 46.6773 302.323 46.4C302.088 46.1013 301.608 45.952 300.883 45.952C299.923 45.952 299.038 46.1867 298.227 46.656C297.438 47.104 296.851 47.5413 296.467 47.968V47.008L295.827 43.68C296.126 43.4667 296.734 43.2533 297.651 43.04C298.59 42.8267 299.827 42.72 301.363 42.72C302.814 42.72 303.987 42.9333 304.883 43.36C305.8 43.7867 306.472 44.3307 306.899 44.992C307.326 45.6533 307.539 46.3467 307.539 47.072C307.539 48.0533 307.272 48.928 306.739 49.696C306.206 50.464 305.491 51.1253 304.595 51.68C303.72 52.2133 302.75 52.6293 301.683 52.928C301.683 53.056 301.619 53.3013 301.491 53.664C301.384 54.0267 301.235 54.4213 301.043 54.848C300.872 55.2747 300.702 55.648 300.531 55.968C300.36 56.2667 300.211 56.416 300.083 56.416ZM300.211 62.528C299.422 62.528 298.792 62.368 298.323 62.048C297.854 61.728 297.619 61.1947 297.619 60.448C297.619 59.7013 297.843 59.168 298.291 58.848C298.76 58.528 299.4 58.368 300.211 58.368C301.022 58.368 301.651 58.528 302.099 58.848C302.568 59.168 302.803 59.7013 302.803 60.448C302.803 61.1947 302.568 61.728 302.099 62.048C301.651 62.368 301.022 62.528 300.211 62.528Z" fill="#303131"/>
</svg>
