<svg width="160" height="17" viewBox="0 0 160 17" fill="none" xmlns="http://www.w3.org/2000/svg">
<path d="M-7.45058e-07 16.656C0.111999 16.656 0.223999 16.544 0.335999 16.32C0.447999 16.096 0.503999 15.728 0.503999 15.216V3.69601C0.503999 3.18401 0.447999 2.82401 0.335999 2.616C0.223999 2.392 0.111999 2.27201 -7.45058e-07 2.25601H8.976C10.224 2.25601 11.2 2.40001 11.904 2.68801C12.608 2.97601 13.104 3.39201 13.392 3.93601C13.68 4.46401 13.824 5.08801 13.824 5.80801C13.824 6.38401 13.72 6.87201 13.512 7.27201C13.32 7.65601 13.072 7.96001 12.768 8.18401C12.464 8.40801 12.16 8.57601 11.856 8.68801V8.73601C12.896 8.97601 13.68 9.40801 14.208 10.032C14.736 10.64 15 11.456 15 12.48C15 13.168 14.864 13.832 14.592 14.472C14.32 15.112 13.816 15.64 13.08 16.056C12.36 16.456 11.312 16.656 9.936 16.656H-7.45058e-07ZM5.16 13.992H8.76C9.672 13.992 10.32 13.864 10.704 13.608C11.104 13.336 11.304 12.904 11.304 12.312C11.304 11.752 11.088 11.32 10.656 11.016C10.224 10.696 9.512 10.536 8.52 10.536H5.184C4.704 10.536 4.416 10.568 4.32 10.632C4.24 10.696 4.2 10.912 4.2 11.28V13.272C4.2 13.624 4.24 13.832 4.32 13.896C4.416 13.96 4.696 13.992 5.16 13.992ZM5.184 8.08801H8.016C8.784 8.08801 9.328 7.96001 9.648 7.70401C9.984 7.43201 10.152 7.03201 10.152 6.50401C10.152 5.97601 9.992 5.58401 9.672 5.32801C9.368 5.07201 8.824 4.94401 8.04 4.94401H5.16C4.68 4.94401 4.4 4.97601 4.32 5.04001C4.24 5.08801 4.2 5.29601 4.2 5.66401V7.36801C4.2 7.72001 4.24 7.92801 4.32 7.99201C4.416 8.05601 4.704 8.08801 5.184 8.08801ZM21.6259 16.896C20.6979 16.896 19.9059 16.736 19.2499 16.416C18.5939 16.08 18.0979 15.512 17.7619 14.712C17.4259 13.896 17.2579 12.768 17.2579 11.328V6.86401C17.2579 6.35201 17.2019 5.98401 17.0899 5.76001C16.9939 5.53601 16.8899 5.42401 16.7779 5.42401H21.1939C21.0819 5.42401 20.9619 5.53601 20.8339 5.76001C20.7219 5.98401 20.6659 6.35201 20.6659 6.86401V11.664C20.6659 12.672 20.8499 13.392 21.2179 13.824C21.6019 14.256 22.0419 14.472 22.5379 14.472C23.2419 14.472 23.7859 14.312 24.1699 13.992C24.5539 13.656 24.8259 13.224 24.9859 12.696C25.1459 12.152 25.2259 11.584 25.2259 10.992V6.86401C25.2259 6.35201 25.1699 5.99201 25.0579 5.78401C24.9619 5.56001 24.8579 5.44001 24.7459 5.42401H28.6339V15.216C28.6339 15.728 28.6819 16.096 28.7779 16.32C28.8899 16.544 29.0019 16.656 29.1139 16.656H25.2259V15.72L25.2739 15.24L25.2259 15.192C25.0659 15.432 24.8659 15.656 24.6259 15.864C24.3859 16.072 24.1139 16.256 23.8099 16.416C23.5059 16.56 23.1699 16.672 22.8019 16.752C22.4339 16.848 22.0419 16.896 21.6259 16.896ZM35.8027 16.896C34.6987 16.896 33.8987 16.664 33.4027 16.2C32.9067 15.72 32.6587 14.944 32.6587 13.872V7.82401H30.4987V5.42401C31.2347 5.42401 31.8107 5.33601 32.2267 5.16001C32.6427 4.96801 32.9387 4.64001 33.1147 4.176C33.2907 3.71201 33.3787 3.06401 33.3787 2.23201H36.0667V5.42401H40.1707C40.0587 5.74401 39.9467 6.14401 39.8347 6.62401C39.7387 7.08801 39.6907 7.48801 39.6907 7.82401H36.0667V12.552C36.0667 13.288 36.1227 13.792 36.2347 14.064C36.3467 14.336 36.6107 14.472 37.0267 14.472C37.2987 14.472 37.5947 14.376 37.9147 14.184C38.2507 13.992 38.5707 13.76 38.8747 13.488C39.1947 13.2 39.4587 12.928 39.6667 12.672V13.416L39.9067 15.744C39.7147 15.904 39.4267 16.08 39.0427 16.272C38.6587 16.448 38.1867 16.592 37.6267 16.704C37.0827 16.832 36.4747 16.896 35.8027 16.896ZM46.1856 16.896C45.0816 16.896 44.2816 16.664 43.7856 16.2C43.2896 15.72 43.0416 14.944 43.0416 13.872V7.82401H40.8816V5.42401C41.6176 5.42401 42.1936 5.33601 42.6096 5.16001C43.0256 4.96801 43.3216 4.64001 43.4976 4.176C43.6736 3.71201 43.7616 3.06401 43.7616 2.23201H46.4496V5.42401H50.5536C50.4416 5.74401 50.3296 6.14401 50.2176 6.62401C50.1216 7.08801 50.0736 7.48801 50.0736 7.82401H46.4496V12.552C46.4496 13.288 46.5056 13.792 46.6176 14.064C46.7296 14.336 46.9936 14.472 47.4096 14.472C47.6816 14.472 47.9776 14.376 48.2976 14.184C48.6336 13.992 48.9536 13.76 49.2576 13.488C49.5776 13.2 49.8416 12.928 50.0496 12.672V13.416L50.2896 15.744C50.0976 15.904 49.8096 16.08 49.4256 16.272C49.0416 16.448 48.5696 16.592 48.0096 16.704C47.4656 16.832 46.8576 16.896 46.1856 16.896ZM57.6964 16.896C56.0964 16.896 54.8404 16.64 53.9284 16.128C53.0324 15.616 52.4004 14.92 52.0324 14.04C51.6804 13.16 51.5044 12.168 51.5044 11.064C51.5044 9.94401 51.6884 8.94401 52.0564 8.06401C52.4404 7.18401 53.0804 6.48801 53.9764 5.97601C54.8724 5.44801 56.1124 5.18401 57.6964 5.18401C59.2804 5.18401 60.5204 5.44801 61.4164 5.97601C62.3124 6.48801 62.9444 7.18401 63.3124 8.06401C63.6964 8.94401 63.8884 9.94401 63.8884 11.064C63.8884 12.168 63.7044 13.16 63.3364 14.04C62.9844 14.92 62.3604 15.616 61.4644 16.128C60.5684 16.64 59.3124 16.896 57.6964 16.896ZM57.6964 14.472C58.3684 14.472 58.9044 14.376 59.3044 14.184C59.7204 13.976 60.0164 13.624 60.1924 13.128C60.3844 12.632 60.4804 11.944 60.4804 11.064C60.4804 10.184 60.3844 9.49601 60.1924 9.00001C60.0164 8.48801 59.7204 8.12801 59.3044 7.92001C58.9044 7.69601 58.3684 7.58401 57.6964 7.58401C57.0244 7.58401 56.4804 7.69601 56.0644 7.92001C55.6644 8.14401 55.3684 8.51201 55.1764 9.02401C55.0004 9.53601 54.9124 10.224 54.9124 11.088C54.9124 11.936 55.0004 12.608 55.1764 13.104C55.3684 13.6 55.6644 13.952 56.0644 14.16C56.4804 14.368 57.0244 14.472 57.6964 14.472ZM65.6685 16.656C65.7805 16.656 65.8845 16.544 65.9805 16.32C66.0925 16.096 66.1485 15.728 66.1485 15.216V7.10401C66.1485 6.59201 66.0925 6.23201 65.9805 6.02401C65.8845 5.80001 65.7805 5.68001 65.6685 5.66401C66.3725 5.66401 67.0925 5.61601 67.8285 5.52001C68.5645 5.40801 69.1405 5.29601 69.5565 5.18401V6.64801L69.5085 6.96001L69.5565 7.00801C69.6045 6.89601 69.7565 6.69601 70.0125 6.40801C70.2685 6.12001 70.6365 5.84801 71.1165 5.59201C71.5965 5.32001 72.1885 5.18401 72.8925 5.18401C74.3805 5.18401 75.5165 5.60801 76.3005 6.45601C77.1005 7.30401 77.5005 8.63201 77.5005 10.44V15.216C77.5005 15.728 77.5485 16.096 77.6445 16.32C77.7565 16.544 77.8685 16.656 77.9805 16.656H73.6125C73.7245 16.656 73.8285 16.544 73.9245 16.32C74.0365 16.096 74.0925 15.728 74.0925 15.216V10.512C74.0925 9.76001 74.0125 9.17601 73.8525 8.76001C73.6925 8.32801 73.4685 8.02401 73.1805 7.84801C72.9085 7.67201 72.5885 7.58401 72.2205 7.58401C71.7725 7.58401 71.3405 7.69601 70.9245 7.92001C70.5245 8.12801 70.1965 8.46401 69.9405 8.92801C69.6845 9.37601 69.5565 9.97601 69.5565 10.728V15.216C69.5565 15.728 69.6045 16.096 69.7005 16.32C69.8125 16.544 69.9245 16.656 70.0365 16.656H65.6685ZM85.9659 16.896C84.5419 16.896 83.3419 16.816 82.3659 16.656C81.3899 16.496 80.7179 16.336 80.3499 16.176V15.456L79.8459 13.104C80.2619 13.408 81.0379 13.712 82.1739 14.016C83.3099 14.32 84.7019 14.472 86.3499 14.472C86.8459 14.472 87.2379 14.44 87.5259 14.376C87.8299 14.312 88.0459 14.208 88.1739 14.064C88.3019 13.92 88.3659 13.736 88.3659 13.512C88.3659 13.24 88.2619 13.032 88.0539 12.888C87.8619 12.744 87.5099 12.632 86.9979 12.552C86.4859 12.456 85.7419 12.344 84.7659 12.216C83.5339 12.056 82.5579 11.832 81.8379 11.544C81.1179 11.24 80.6059 10.856 80.3019 10.392C80.0139 9.91201 79.8699 9.32801 79.8699 8.64001C79.8699 8.00001 80.0219 7.42401 80.3259 6.91201C80.6459 6.38401 81.1899 5.96801 81.9579 5.66401C82.7419 5.34401 83.8299 5.18401 85.2219 5.18401C86.5339 5.18401 87.6859 5.26401 88.6779 5.42401C89.6699 5.58401 90.3819 5.74401 90.8139 5.90401V6.62401L91.2939 8.73601C90.9259 8.49601 90.2059 8.24801 89.1339 7.99201C88.0619 7.73601 86.7019 7.60801 85.0539 7.60801C84.4139 7.60801 83.9579 7.67201 83.6859 7.80001C83.4139 7.92801 83.2779 8.15201 83.2779 8.47201C83.2779 8.63201 83.3179 8.76801 83.3979 8.88001C83.4939 8.99201 83.6699 9.09601 83.9259 9.19201C84.1819 9.28801 84.5499 9.38401 85.0299 9.48001C85.5099 9.56001 86.1419 9.64801 86.9259 9.74401C88.2859 9.92001 89.3099 10.168 89.9979 10.488C90.6859 10.792 91.1499 11.176 91.3899 11.64C91.6299 12.088 91.7499 12.632 91.7499 13.272C91.7499 14.088 91.5419 14.768 91.1259 15.312C90.7259 15.84 90.0939 16.24 89.2299 16.512C88.3819 16.768 87.2939 16.896 85.9659 16.896ZM106.166 16.896C105.542 16.896 104.958 16.816 104.414 16.656C103.886 16.512 103.462 16.296 103.142 16.008L103.094 16.056L103.142 16.512V16.656H99.2544C99.3664 16.656 99.4704 16.544 99.5664 16.32C99.6784 16.096 99.7344 15.728 99.7344 15.216V1.536C99.7344 1.024 99.6784 0.664005 99.5664 0.456006C99.4704 0.232006 99.3664 0.112005 99.2544 0.0960045H103.142V5.61601L103.094 6.07201L103.142 6.09601C103.302 5.95201 103.534 5.81601 103.838 5.68801C104.158 5.54401 104.518 5.42401 104.918 5.32801C105.334 5.23201 105.75 5.18401 106.166 5.18401C107.654 5.18401 108.806 5.44801 109.622 5.97601C110.454 6.48801 111.038 7.18401 111.374 8.06401C111.71 8.94401 111.878 9.94401 111.878 11.064C111.878 12.168 111.71 13.16 111.374 14.04C111.054 14.92 110.478 15.616 109.646 16.128C108.83 16.64 107.67 16.896 106.166 16.896ZM105.686 14.472C106.358 14.472 106.894 14.376 107.294 14.184C107.71 13.976 108.006 13.624 108.182 13.128C108.374 12.632 108.47 11.944 108.47 11.064C108.47 10.184 108.374 9.49601 108.182 9.00001C108.006 8.48801 107.71 8.12801 107.294 7.92001C106.894 7.69601 106.358 7.58401 105.686 7.58401C105.158 7.58401 104.702 7.71201 104.318 7.96801C103.934 8.20801 103.638 8.58401 103.43 9.09601C103.238 9.60801 103.142 10.272 103.142 11.088C103.142 12.336 103.366 13.216 103.814 13.728C104.278 14.224 104.902 14.472 105.686 14.472ZM118.277 16.896C116.837 16.896 115.685 16.616 114.821 16.056C113.973 15.48 113.549 14.56 113.549 13.296C113.549 12.416 113.773 11.704 114.221 11.16C114.669 10.616 115.277 10.216 116.045 9.96001C116.829 9.68801 117.717 9.55201 118.709 9.55201C119.445 9.55201 120.069 9.61601 120.581 9.74401C121.109 9.87201 121.533 10.008 121.853 10.152C122.173 10.296 122.381 10.4 122.477 10.464C122.477 9.79201 122.405 9.24801 122.261 8.83201C122.117 8.40001 121.853 8.08801 121.469 7.89601C121.101 7.68801 120.581 7.58401 119.909 7.58401C118.933 7.58401 118.069 7.68001 117.317 7.87201C116.565 8.06401 115.949 8.28801 115.469 8.54401C115.005 8.80001 114.685 9.01601 114.509 9.19201V8.47201L114.269 6.12001C114.381 6.05601 114.677 5.95201 115.157 5.80801C115.637 5.66401 116.293 5.52801 117.125 5.40001C117.957 5.25601 118.949 5.18401 120.101 5.18401C121.685 5.18401 122.893 5.41601 123.725 5.88001C124.557 6.32801 125.125 6.97601 125.429 7.82401C125.749 8.67201 125.909 9.69601 125.909 10.896V15.216C125.909 15.664 125.957 15.992 126.053 16.2C126.165 16.392 126.277 16.544 126.389 16.656H122.501V16.152L122.549 15.696L122.501 15.648C122.373 15.792 122.189 15.936 121.949 16.08C121.709 16.224 121.413 16.36 121.061 16.488C120.709 16.6 120.301 16.696 119.837 16.776C119.373 16.856 118.853 16.896 118.277 16.896ZM119.405 14.472C120.077 14.472 120.637 14.424 121.085 14.328C121.549 14.216 121.901 14.072 122.141 13.896C122.381 13.704 122.501 13.48 122.501 13.224C122.501 12.856 122.221 12.552 121.661 12.312C121.117 12.072 120.373 11.952 119.429 11.952C118.517 11.952 117.869 12.08 117.485 12.336C117.117 12.592 116.933 12.912 116.933 13.296C116.933 13.776 117.149 14.096 117.581 14.256C118.013 14.4 118.621 14.472 119.405 14.472ZM134.388 16.896C132.964 16.896 131.764 16.816 130.788 16.656C129.812 16.496 129.14 16.336 128.772 16.176V15.456L128.268 13.104C128.684 13.408 129.46 13.712 130.596 14.016C131.732 14.32 133.124 14.472 134.772 14.472C135.268 14.472 135.66 14.44 135.948 14.376C136.252 14.312 136.468 14.208 136.596 14.064C136.724 13.92 136.788 13.736 136.788 13.512C136.788 13.24 136.684 13.032 136.476 12.888C136.284 12.744 135.932 12.632 135.42 12.552C134.908 12.456 134.164 12.344 133.188 12.216C131.956 12.056 130.98 11.832 130.26 11.544C129.54 11.24 129.028 10.856 128.724 10.392C128.436 9.91201 128.292 9.32801 128.292 8.64001C128.292 8.00001 128.444 7.42401 128.748 6.91201C129.068 6.38401 129.612 5.96801 130.38 5.66401C131.164 5.34401 132.252 5.18401 133.644 5.18401C134.956 5.18401 136.108 5.26401 137.1 5.42401C138.092 5.58401 138.804 5.74401 139.236 5.90401V6.62401L139.716 8.73601C139.348 8.49601 138.628 8.24801 137.556 7.99201C136.484 7.73601 135.124 7.60801 133.476 7.60801C132.836 7.60801 132.38 7.67201 132.108 7.80001C131.836 7.92801 131.7 8.15201 131.7 8.47201C131.7 8.63201 131.74 8.76801 131.82 8.88001C131.916 8.99201 132.092 9.09601 132.348 9.19201C132.604 9.28801 132.972 9.38401 133.452 9.48001C133.932 9.56001 134.564 9.64801 135.348 9.74401C136.708 9.92001 137.732 10.168 138.42 10.488C139.108 10.792 139.572 11.176 139.812 11.64C140.052 12.088 140.172 12.632 140.172 13.272C140.172 14.088 139.964 14.768 139.548 15.312C139.148 15.84 138.516 16.24 137.652 16.512C136.804 16.768 135.716 16.896 134.388 16.896ZM141.911 16.656C142.023 16.656 142.135 16.544 142.247 16.32C142.359 16.096 142.415 15.728 142.415 15.216V6.86401C142.415 6.35201 142.359 5.98401 142.247 5.76001C142.151 5.53601 142.047 5.42401 141.935 5.42401H145.823V15.216C145.823 15.728 145.871 16.096 145.967 16.32C146.079 16.544 146.191 16.656 146.303 16.656H141.911ZM143.855 3.60001C143.263 3.60001 142.791 3.44001 142.439 3.12001C142.087 2.8 141.911 2.36 141.911 1.80001C141.911 1.24001 142.079 0.800005 142.415 0.480005C142.767 0.160006 143.247 5.72205e-06 143.855 5.72205e-06C144.463 5.72205e-06 144.935 0.160006 145.271 0.480005C145.623 0.800005 145.799 1.24001 145.799 1.80001C145.799 2.36 145.623 2.8 145.271 3.12001C144.935 3.44001 144.463 3.60001 143.855 3.60001ZM154.641 16.896C152.977 16.896 151.665 16.64 150.705 16.128C149.761 15.616 149.097 14.92 148.713 14.04C148.329 13.16 148.137 12.168 148.137 11.064C148.137 9.11201 148.665 7.64801 149.721 6.67201C150.793 5.69601 152.353 5.20801 154.401 5.20801C155.473 5.20801 156.449 5.28801 157.329 5.44801C158.225 5.60801 158.881 5.76001 159.297 5.90401V6.62401L159.777 9.19201C159.425 8.85601 158.785 8.51201 157.857 8.16001C156.945 7.79201 155.849 7.60801 154.569 7.60801C153.881 7.60801 153.305 7.73601 152.841 7.99201C152.393 8.23201 152.057 8.60801 151.833 9.12001C151.625 9.63201 151.521 10.288 151.521 11.088C151.521 11.872 151.641 12.512 151.881 13.008C152.121 13.504 152.513 13.864 153.057 14.088C153.601 14.312 154.321 14.424 155.217 14.424C156.353 14.424 157.289 14.28 158.025 13.992C158.777 13.688 159.281 13.392 159.537 13.104V13.824L159.777 15.744C159.473 16 158.873 16.256 157.977 16.512C157.097 16.768 155.985 16.896 154.641 16.896Z" fill="black"/>
</svg>
