<svg width="700" height="242" viewBox="0 0 700 242" fill="none" xmlns="http://www.w3.org/2000/svg">
<rect x="0.5" y="0.5" width="699" height="241" rx="4.5" stroke="#8A38F5" stroke-dasharray="10 5"/>
<rect width="492.082" height="81" transform="translate(20 20)" fill="#F6F6F6"/>
<path d="M46.96 54.8V67.5H45.14V54.8H40.42V53.18H51.64V54.8H46.96ZM53.3722 53.18H54.9922V58.66C55.4855 58.0467 55.9789 57.62 56.4722 57.38C56.9655 57.1267 57.5789 57 58.3122 57C59.3122 57 60.0989 57.2533 60.6722 57.76C61.2455 58.2533 61.5322 58.9333 61.5322 59.8V67.5H59.9122V60.46C59.9122 59.74 59.6922 59.2133 59.2522 58.88C58.8389 58.5733 58.3522 58.42 57.7922 58.42C56.9522 58.42 56.2722 58.7333 55.7522 59.36C55.2455 59.9867 54.9922 60.82 54.9922 61.86V67.5H53.3722V53.18ZM72.9702 62.84H65.3902C65.4035 63.72 65.5902 64.42 65.9502 64.94C66.5235 65.78 67.3502 66.2 68.4302 66.2C69.7635 66.2 70.6635 65.5667 71.1302 64.3H72.7702C72.5568 65.38 72.0635 66.22 71.2902 66.82C70.5168 67.42 69.5435 67.72 68.3702 67.72C66.8102 67.72 65.6168 67.1867 64.7902 66.12C64.0568 65.1867 63.6902 63.9533 63.6902 62.42C63.6902 60.6467 64.1702 59.2667 65.1302 58.28C65.9702 57.4267 67.0568 57 68.3902 57C69.3635 57 70.2168 57.2333 70.9502 57.7C71.6968 58.1667 72.2302 58.8067 72.5502 59.62C72.8302 60.3133 72.9702 61.3667 72.9702 62.78V62.84ZM71.2102 61.5C71.2102 60.6067 70.9435 59.8867 70.4102 59.34C69.8902 58.78 69.2168 58.5 68.3902 58.5C67.5502 58.5 66.8635 58.7733 66.3302 59.32C65.8102 59.8533 65.5168 60.58 65.4502 61.5H71.2102ZM75.2081 57.22H76.7281V58.7C77.5281 57.5667 78.5815 57 79.8881 57C81.1548 57 82.0748 57.5067 82.6481 58.52C83.1415 57.9467 83.6148 57.5533 84.0681 57.34C84.5348 57.1133 85.1081 57 85.7881 57C87.7881 57 88.7881 57.94 88.7881 59.82V67.5H87.1481V60.46C87.1481 59.1 86.5081 58.42 85.2281 58.42C84.5615 58.42 83.9948 58.68 83.5281 59.2C83.0615 59.72 82.8281 60.34 82.8281 61.06V67.5H81.1881V60.46C81.1881 59.1 80.5548 58.42 79.2881 58.42C78.6081 58.42 78.0281 58.68 77.5481 59.2C77.0815 59.7067 76.8481 60.3267 76.8481 61.06V67.5H75.2081V57.22ZM100.255 62.84H92.6753C92.6886 63.72 92.8753 64.42 93.2353 64.94C93.8086 65.78 94.6353 66.2 95.7153 66.2C97.0486 66.2 97.9486 65.5667 98.4153 64.3H100.055C99.842 65.38 99.3486 66.22 98.5753 66.82C97.802 67.42 96.8286 67.72 95.6553 67.72C94.0953 67.72 92.902 67.1867 92.0753 66.12C91.342 65.1867 90.9753 63.9533 90.9753 62.42C90.9753 60.6467 91.4553 59.2667 92.4153 58.28C93.2553 57.4267 94.342 57 95.6753 57C96.6486 57 97.502 57.2333 98.2353 57.7C98.982 58.1667 99.5153 58.8067 99.8353 59.62C100.115 60.3133 100.255 61.3667 100.255 62.78V62.84ZM98.4953 61.5C98.4953 60.6067 98.2286 59.8867 97.6953 59.34C97.1753 58.78 96.502 58.5 95.6753 58.5C94.8353 58.5 94.1486 58.7733 93.6153 59.32C93.0953 59.8533 92.802 60.58 92.7353 61.5H98.4953Z" fill="#303131"/>
<line x1="140.315" y1="35.4036" x2="121.774" y2="88.2452" stroke="#F0EA6E" stroke-width="8"/>
<path d="M156.141 61.44V67.5H154.321V53.18H160.241C161.748 53.18 162.881 53.5933 163.641 54.42C164.308 55.14 164.641 56.1267 164.641 57.38C164.641 58.6467 164.234 59.6533 163.421 60.4C162.674 61.0933 161.748 61.44 160.641 61.44H156.141ZM156.141 59.82H159.961C160.828 59.82 161.508 59.6 162.001 59.16C162.494 58.72 162.741 58.1 162.741 57.3C162.741 56.5133 162.494 55.9 162.001 55.46C161.508 55.02 160.828 54.8 159.961 54.8H156.141V59.82ZM168.626 53.18V67.5H166.986V53.18H168.626ZM180.502 66.12V67.44C180.049 67.6 179.695 67.68 179.442 67.68C178.375 67.68 177.795 67.1933 177.702 66.22C176.969 67.22 175.802 67.72 174.202 67.72C173.095 67.72 172.235 67.4133 171.622 66.8C171.089 66.2667 170.822 65.58 170.822 64.74C170.822 63.78 171.162 63.04 171.842 62.52C172.229 62.2267 173.035 61.94 174.262 61.66L177.622 60.9L177.642 60.04C177.642 59.0133 176.869 58.5 175.322 58.5C173.842 58.5 173.049 59.1 172.942 60.3H171.282C171.322 59.3933 171.549 58.7 171.962 58.22C172.669 57.4067 173.815 57 175.402 57C177.975 57 179.262 57.9333 179.262 59.8V65.54C179.262 66.0467 179.482 66.3 179.922 66.3C179.975 66.3 180.115 66.26 180.342 66.18C180.422 66.1533 180.475 66.1333 180.502 66.12ZM177.642 62.24L175.002 62.92C174.055 63.16 173.402 63.4067 173.042 63.66C172.695 63.9133 172.522 64.2667 172.522 64.72C172.522 65.7733 173.202 66.3 174.562 66.3C175.522 66.3 176.335 65.9867 177.002 65.36C177.429 64.9733 177.642 64.5333 177.642 64.04V62.24ZM188.56 57.22H190.32L185.74 69.66C185.206 71.0733 184.32 71.78 183.08 71.78C182.493 71.78 181.98 71.6467 181.54 71.38L181.86 69.96C182.193 70.0933 182.52 70.16 182.84 70.16C183.48 70.16 183.926 69.8267 184.18 69.16L184.8 67.52L181.32 57.22H183.08L185.7 65.22L188.56 57.22ZM200.804 62.84H193.224C193.237 63.72 193.424 64.42 193.784 64.94C194.357 65.78 195.184 66.2 196.264 66.2C197.597 66.2 198.497 65.5667 198.964 64.3H200.604C200.391 65.38 199.897 66.22 199.124 66.82C198.351 67.42 197.377 67.72 196.204 67.72C194.644 67.72 193.451 67.1867 192.624 66.12C191.891 65.1867 191.524 63.9533 191.524 62.42C191.524 60.6467 192.004 59.2667 192.964 58.28C193.804 57.4267 194.891 57 196.224 57C197.197 57 198.051 57.2333 198.784 57.7C199.531 58.1667 200.064 58.8067 200.384 59.62C200.664 60.3133 200.804 61.3667 200.804 62.78V62.84ZM199.044 61.5C199.044 60.6067 198.777 59.8867 198.244 59.34C197.724 58.78 197.051 58.5 196.224 58.5C195.384 58.5 194.697 58.7733 194.164 59.32C193.644 59.8533 193.351 60.58 193.284 61.5H199.044ZM203.022 57.22H204.542V59.1C205.142 57.6867 206.089 56.98 207.382 56.98C207.542 56.98 207.735 57 207.962 57.04V58.72C206.895 58.7333 206.162 58.8867 205.762 59.18C205.029 59.7133 204.662 60.7067 204.662 62.16V67.5H203.022V57.22Z" fill="#303131"/>
<line x1="246.856" y1="35.4036" x2="228.315" y2="88.2452" stroke="#F0EA6E" stroke-width="8"/>
<path d="M260.642 67.5V53.18H266.462C267.795 53.18 268.828 53.5133 269.562 54.18C270.322 54.8733 270.702 55.7533 270.702 56.82C270.702 58.2867 270.035 59.3267 268.702 59.94C270.448 60.6067 271.322 61.7667 271.322 63.42C271.322 64.5667 270.955 65.5267 270.222 66.3C269.462 67.1 268.415 67.5 267.082 67.5H260.642ZM262.462 59.34H266.002C266.935 59.34 267.628 59.1733 268.082 58.84C268.602 58.4533 268.862 57.8667 268.862 57.08C268.862 56.2933 268.602 55.7 268.082 55.3C267.628 54.9667 266.935 54.8 266.002 54.8H262.462V59.34ZM262.462 65.88H266.922C267.735 65.88 268.368 65.6667 268.822 65.24C269.275 64.8 269.502 64.1933 269.502 63.42C269.502 62.6467 269.275 62.0467 268.822 61.62C268.368 61.18 267.735 60.96 266.922 60.96H262.462V65.88ZM277.587 57C279.134 57 280.314 57.54 281.127 58.62C281.847 59.5533 282.207 60.82 282.207 62.42C282.207 64.2067 281.741 65.5667 280.807 66.5C280.007 67.3133 278.927 67.72 277.567 67.72C275.994 67.72 274.794 67.1933 273.967 66.14C273.247 65.22 272.887 63.98 272.887 62.42C272.887 60.6067 273.361 59.2133 274.307 58.24C275.121 57.4133 276.214 57 277.587 57ZM277.587 58.5C276.654 58.5 275.921 58.8533 275.387 59.56C274.854 60.2533 274.587 61.2067 274.587 62.42C274.587 63.6867 274.887 64.6533 275.487 65.32C276.007 65.9067 276.701 66.2 277.567 66.2C278.487 66.2 279.201 65.8667 279.707 65.2C280.227 64.5333 280.487 63.6067 280.487 62.42C280.487 61.1133 280.194 60.1133 279.607 59.42C279.101 58.8067 278.427 58.5 277.587 58.5ZM293.605 66.12V67.44C293.152 67.6 292.799 67.68 292.545 67.68C291.479 67.68 290.899 67.1933 290.805 66.22C290.072 67.22 288.905 67.72 287.305 67.72C286.199 67.72 285.339 67.4133 284.725 66.8C284.192 66.2667 283.925 65.58 283.925 64.74C283.925 63.78 284.265 63.04 284.945 62.52C285.332 62.2267 286.139 61.94 287.365 61.66L290.725 60.9L290.745 60.04C290.745 59.0133 289.972 58.5 288.425 58.5C286.945 58.5 286.152 59.1 286.045 60.3H284.385C284.425 59.3933 284.652 58.7 285.065 58.22C285.772 57.4067 286.919 57 288.505 57C291.079 57 292.365 57.9333 292.365 59.8V65.54C292.365 66.0467 292.585 66.3 293.025 66.3C293.079 66.3 293.219 66.26 293.445 66.18C293.525 66.1533 293.579 66.1333 293.605 66.12ZM290.745 62.24L288.105 62.92C287.159 63.16 286.505 63.4067 286.145 63.66C285.799 63.9133 285.625 64.2667 285.625 64.72C285.625 65.7733 286.305 66.3 287.665 66.3C288.625 66.3 289.439 65.9867 290.105 65.36C290.532 64.9733 290.745 64.5333 290.745 64.04V62.24ZM295.383 57.22H296.903V59.1C297.503 57.6867 298.45 56.98 299.743 56.98C299.903 56.98 300.097 57 300.323 57.04V58.72C299.257 58.7333 298.523 58.8867 298.123 59.18C297.39 59.7133 297.023 60.7067 297.023 62.16V67.5H295.383V57.22ZM310.306 53.18V67.5H308.666V66.08C308.013 67.1867 307 67.74 305.626 67.74C304.12 67.74 302.96 67.1933 302.146 66.1C301.44 65.14 301.086 63.8733 301.086 62.3C301.086 60.58 301.546 59.2333 302.466 58.26C303.253 57.42 304.273 57 305.526 57C306.913 57 307.96 57.52 308.666 58.56V53.18H310.306ZM305.806 58.52C304.9 58.52 304.166 58.88 303.606 59.6C303.06 60.3067 302.786 61.2467 302.786 62.42C302.786 63.6333 303.106 64.5867 303.746 65.28C304.293 65.8933 304.986 66.2 305.826 66.2C306.693 66.2 307.38 65.86 307.886 65.18C308.406 64.5 308.666 63.58 308.666 62.42C308.666 61.1533 308.373 60.1667 307.786 59.46C307.266 58.8333 306.606 58.52 305.806 58.52ZM323.836 60.04H322.036C321.983 59.0133 321.296 58.5 319.976 58.5C319.296 58.5 318.756 58.6333 318.356 58.9C317.969 59.1533 317.776 59.5 317.776 59.94C317.776 60.6067 318.409 61.0867 319.676 61.38L321.256 61.74C322.283 61.98 323.023 62.32 323.476 62.76C323.929 63.2 324.156 63.8 324.156 64.56C324.156 65.5333 323.776 66.3067 323.016 66.88C322.256 67.44 321.229 67.72 319.936 67.72C318.523 67.72 317.449 67.3867 316.716 66.72C316.103 66.1733 315.776 65.4467 315.736 64.54H317.596C317.703 65.0067 317.849 65.3467 318.036 65.56C318.396 65.9867 319.069 66.2 320.056 66.2C320.789 66.2 321.369 66.0667 321.796 65.8C322.236 65.52 322.456 65.1533 322.456 64.7C322.456 64.02 321.929 63.5533 320.876 63.3L319.336 62.94C318.163 62.66 317.343 62.3267 316.876 61.94C316.343 61.5 316.076 60.8667 316.076 60.04C316.076 59.1067 316.429 58.3667 317.136 57.82C317.856 57.2733 318.816 57 320.016 57C321.269 57 322.243 57.3133 322.936 57.94C323.536 58.4867 323.836 59.1867 323.836 60.04ZM327.9 57.22V67.5H326.28V57.22H327.9ZM327.12 53.2C327.4 53.2 327.634 53.3 327.82 53.5C328.02 53.6867 328.12 53.9133 328.12 54.18C328.12 54.46 328.02 54.7 327.82 54.9C327.634 55.0867 327.4 55.18 327.12 55.18C326.854 55.18 326.62 55.0867 326.42 54.9C326.234 54.7 326.14 54.46 326.14 54.18C326.14 53.9133 326.234 53.6867 326.42 53.5C326.62 53.3 326.854 53.2 327.12 53.2ZM338.036 57.22V58.68L331.916 66.06H338.296V67.5H329.936V66.02L336.076 58.66H330.356V57.22H338.036ZM349.22 62.84H341.64C341.653 63.72 341.84 64.42 342.2 64.94C342.773 65.78 343.6 66.2 344.68 66.2C346.013 66.2 346.913 65.5667 347.38 64.3H349.02C348.807 65.38 348.313 66.22 347.54 66.82C346.767 67.42 345.793 67.72 344.62 67.72C343.06 67.72 341.867 67.1867 341.04 66.12C340.307 65.1867 339.94 63.9533 339.94 62.42C339.94 60.6467 340.42 59.2667 341.38 58.28C342.22 57.4267 343.307 57 344.64 57C345.613 57 346.467 57.2333 347.2 57.7C347.947 58.1667 348.48 58.8067 348.8 59.62C349.08 60.3133 349.22 61.3667 349.22 62.78V62.84ZM347.46 61.5C347.46 60.6067 347.193 59.8867 346.66 59.34C346.14 58.78 345.467 58.5 344.64 58.5C343.8 58.5 343.113 58.7733 342.58 59.32C342.06 59.8533 341.767 60.58 341.7 61.5H347.46Z" fill="#303131"/>
<rect width="126" height="53" transform="translate(366.082 34)" fill="#DBDBD6"/>
<mask id="mask0_2062_2748" style="mask-type:alpha" maskUnits="userSpaceOnUse" x="386" y="48" width="25" height="25">
<rect x="386.082" y="48.5" width="24" height="24" fill="#D9D9D9"/>
</mask>
<g mask="url(#mask0_2062_2748)">
<path d="M396.357 64.5L401.932 60.925C402.082 60.825 402.157 60.6833 402.157 60.5C402.157 60.3167 402.082 60.175 401.932 60.075L396.357 56.5C396.19 56.3833 396.019 56.375 395.844 56.475C395.669 56.575 395.582 56.725 395.582 56.925V64.075C395.582 64.275 395.669 64.425 395.844 64.525C396.019 64.625 396.19 64.6167 396.357 64.5ZM390.082 68.5C389.532 68.5 389.061 68.3042 388.669 67.9125C388.278 67.5208 388.082 67.05 388.082 66.5V54.5C388.082 53.95 388.278 53.4792 388.669 53.0875C389.061 52.6958 389.532 52.5 390.082 52.5H406.082C406.632 52.5 407.103 52.6958 407.494 53.0875C407.886 53.4792 408.082 53.95 408.082 54.5V66.5C408.082 67.05 407.886 67.5208 407.494 67.9125C407.103 68.3042 406.632 68.5 406.082 68.5H390.082ZM390.082 66.5H406.082V54.5H390.082V66.5Z" fill="#A3A1A1"/>
</g>
<path d="M425.562 67.2C424.108 67.2 422.822 67.1333 421.702 67C420.582 66.8667 419.775 66.7333 419.282 66.6V66L418.882 63.46C419.135 63.6733 419.555 63.9 420.142 64.14C420.728 64.38 421.482 64.5867 422.402 64.76C423.322 64.92 424.388 65 425.602 65C426.348 65 426.922 64.9533 427.322 64.86C427.722 64.7533 427.995 64.6067 428.142 64.42C428.288 64.2333 428.362 64.0133 428.362 63.76C428.362 63.44 428.255 63.1933 428.042 63.02C427.828 62.8333 427.442 62.68 426.882 62.56C426.335 62.44 425.555 62.3133 424.542 62.18C423.328 62.02 422.315 61.8 421.502 61.52C420.688 61.24 420.082 60.8467 419.682 60.34C419.282 59.82 419.082 59.1333 419.082 58.28C419.082 57.5867 419.262 56.98 419.622 56.46C419.982 55.94 420.562 55.5333 421.362 55.24C422.162 54.9467 423.222 54.8 424.542 54.8C425.928 54.8 427.115 54.8667 428.102 55C429.088 55.1333 429.768 55.2667 430.142 55.4V56L430.742 58.2C430.408 58.0267 429.928 57.8467 429.302 57.66C428.675 57.4733 427.948 57.32 427.122 57.2C426.295 57.0667 425.402 57 424.442 57C423.842 57 423.375 57.0533 423.042 57.16C422.708 57.2533 422.468 57.3933 422.322 57.58C422.188 57.7533 422.122 57.9733 422.122 58.24C422.122 58.56 422.242 58.82 422.482 59.02C422.735 59.2067 423.142 59.36 423.702 59.48C424.262 59.6 425.015 59.7133 425.962 59.82C427.415 59.98 428.535 60.22 429.322 60.54C430.108 60.86 430.648 61.2733 430.942 61.78C431.248 62.2733 431.402 62.8733 431.402 63.58C431.402 64.1933 431.288 64.7333 431.062 65.2C430.835 65.6533 430.482 66.0267 430.002 66.32C429.535 66.6133 428.928 66.8333 428.182 66.98C427.448 67.1267 426.575 67.2 425.562 67.2ZM437.023 67.2C436.103 67.2 435.436 67.0067 435.023 66.62C434.61 66.22 434.403 65.5733 434.403 64.68V59.64H432.603V57.64C433.216 57.64 433.696 57.5667 434.043 57.42C434.39 57.26 434.636 56.9867 434.783 56.6C434.93 56.2133 435.003 55.6733 435.003 54.98H437.243V57.64H440.663C440.57 57.9067 440.476 58.24 440.383 58.64C440.303 59.0267 440.263 59.36 440.263 59.64H437.243V63.58C437.243 64.1933 437.29 64.6133 437.383 64.84C437.476 65.0667 437.696 65.18 438.043 65.18C438.27 65.18 438.516 65.1 438.783 64.94C439.063 64.78 439.33 64.5867 439.583 64.36C439.85 64.12 440.07 63.8933 440.243 63.68V64.3L440.443 66.24C440.283 66.3733 440.043 66.52 439.723 66.68C439.403 66.8267 439.01 66.9467 438.543 67.04C438.09 67.1467 437.583 67.2 437.023 67.2ZM445.595 67.2C444.395 67.2 443.435 66.9667 442.715 66.5C442.009 66.02 441.655 65.2533 441.655 64.2C441.655 63.4667 441.842 62.8733 442.215 62.42C442.589 61.9667 443.095 61.6333 443.735 61.42C444.389 61.1933 445.129 61.08 445.955 61.08C446.569 61.08 447.089 61.1333 447.515 61.24C447.955 61.3467 448.309 61.46 448.575 61.58C448.842 61.7 449.015 61.7867 449.095 61.84C449.095 61.28 449.035 60.8267 448.915 60.48C448.795 60.12 448.575 59.86 448.255 59.7C447.949 59.5267 447.515 59.44 446.955 59.44C446.142 59.44 445.422 59.52 444.795 59.68C444.169 59.84 443.655 60.0267 443.255 60.24C442.869 60.4533 442.602 60.6333 442.455 60.78V60.18L442.255 58.22C442.349 58.1667 442.595 58.08 442.995 57.96C443.395 57.84 443.942 57.7267 444.635 57.62C445.329 57.5 446.155 57.44 447.115 57.44C448.435 57.44 449.442 57.6333 450.135 58.02C450.829 58.3933 451.302 58.9333 451.555 59.64C451.822 60.3467 451.955 61.2 451.955 62.2V65.8C451.955 66.1733 451.995 66.4467 452.075 66.62C452.169 66.78 452.262 66.9067 452.355 67H449.115V66.58L449.155 66.2L449.115 66.16C449.009 66.28 448.855 66.4 448.655 66.52C448.455 66.64 448.209 66.7533 447.915 66.86C447.622 66.9533 447.282 67.0333 446.895 67.1C446.509 67.1667 446.075 67.2 445.595 67.2ZM446.535 65.18C447.095 65.18 447.562 65.14 447.935 65.06C448.322 64.9667 448.615 64.8467 448.815 64.7C449.015 64.54 449.115 64.3533 449.115 64.14C449.115 63.8333 448.882 63.58 448.415 63.38C447.962 63.18 447.342 63.08 446.555 63.08C445.795 63.08 445.255 63.1867 444.935 63.4C444.629 63.6133 444.475 63.88 444.475 64.2C444.475 64.6 444.655 64.8667 445.015 65C445.375 65.12 445.882 65.18 446.535 65.18ZM454.001 67C454.094 67 454.181 66.9067 454.261 66.72C454.354 66.5333 454.401 66.2267 454.401 65.8V59.04C454.401 58.6133 454.354 58.3133 454.261 58.14C454.181 57.9533 454.094 57.8533 454.001 57.84C454.588 57.84 455.188 57.8 455.801 57.72C456.414 57.6267 456.894 57.5333 457.241 57.44V58.24L457.201 58.58L457.241 58.62C457.334 58.4733 457.481 58.3133 457.681 58.14C457.894 57.9533 458.161 57.7933 458.481 57.66C458.814 57.5133 459.201 57.44 459.641 57.44C460.294 57.44 460.874 57.5333 461.381 57.72C461.888 57.8933 462.248 58.0733 462.461 58.26L461.861 60.94V61.54C461.661 61.26 461.388 60.9733 461.041 60.68C460.708 60.3867 460.334 60.14 459.921 59.94C459.521 59.74 459.108 59.64 458.681 59.64C458.201 59.64 457.841 59.8133 457.601 60.16C457.361 60.5067 457.241 61.0533 457.241 61.8V65.8C457.241 66.2267 457.281 66.5333 457.361 66.72C457.454 66.9067 457.548 67 457.641 67H454.001ZM467.687 67.2C466.767 67.2 466.1 67.0067 465.687 66.62C465.274 66.22 465.067 65.5733 465.067 64.68V59.64H463.267V57.64C463.88 57.64 464.36 57.5667 464.707 57.42C465.054 57.26 465.3 56.9867 465.447 56.6C465.594 56.2133 465.667 55.6733 465.667 54.98H467.907V57.64H471.327C471.234 57.9067 471.14 58.24 471.047 58.64C470.967 59.0267 470.927 59.36 470.927 59.64H467.907V63.58C467.907 64.1933 467.954 64.6133 468.047 64.84C468.14 65.0667 468.36 65.18 468.707 65.18C468.934 65.18 469.18 65.1 469.447 64.94C469.727 64.78 469.994 64.5867 470.247 64.36C470.514 64.12 470.734 63.8933 470.907 63.68V64.3L471.107 66.24C470.947 66.3733 470.707 66.52 470.387 66.68C470.067 66.8267 469.674 66.9467 469.207 67.04C468.754 67.1467 468.247 67.2 467.687 67.2Z" fill="#A3A1A1"/>
<rect width="660" height="81" transform="translate(20 141)" fill="#F6F6F6"/>
<path d="M53.92 180.96V188.5H52.76L52.3 186.48C50.94 187.973 49.3133 188.72 47.42 188.72C45.34 188.72 43.6867 187.953 42.46 186.42C41.3933 185.073 40.86 183.393 40.86 181.38C40.86 178.753 41.72 176.733 43.44 175.32C44.56 174.413 45.9933 173.96 47.74 173.96C49.8067 173.96 51.3933 174.587 52.5 175.84C53.1 176.52 53.5067 177.4 53.72 178.48H51.86C51.66 177.573 51.1933 176.867 50.46 176.36C49.7267 175.84 48.8067 175.58 47.7 175.58C46.0867 175.58 44.8133 176.167 43.88 177.34C43.08 178.367 42.68 179.68 42.68 181.28C42.68 183.147 43.1867 184.62 44.2 185.7C45.08 186.633 46.2867 187.1 47.82 187.1C49.2067 187.1 50.3267 186.647 51.18 185.74C51.9267 184.94 52.3 183.967 52.3 182.82V182.58H47.94V180.96H53.92ZM65.7734 187.12V188.44C65.3201 188.6 64.9668 188.68 64.7134 188.68C63.6468 188.68 63.0668 188.193 62.9734 187.22C62.2401 188.22 61.0734 188.72 59.4734 188.72C58.3668 188.72 57.5068 188.413 56.8934 187.8C56.3601 187.267 56.0934 186.58 56.0934 185.74C56.0934 184.78 56.4334 184.04 57.1134 183.52C57.5001 183.227 58.3068 182.94 59.5334 182.66L62.8934 181.9L62.9134 181.04C62.9134 180.013 62.1401 179.5 60.5934 179.5C59.1134 179.5 58.3201 180.1 58.2134 181.3H56.5534C56.5934 180.393 56.8201 179.7 57.2334 179.22C57.9401 178.407 59.0868 178 60.6734 178C63.2468 178 64.5334 178.933 64.5334 180.8V186.54C64.5334 187.047 64.7534 187.3 65.1934 187.3C65.2468 187.3 65.3868 187.26 65.6134 187.18C65.6934 187.153 65.7468 187.133 65.7734 187.12ZM62.9134 183.24L60.2734 183.92C59.3268 184.16 58.6734 184.407 58.3134 184.66C57.9668 184.913 57.7934 185.267 57.7934 185.72C57.7934 186.773 58.4734 187.3 59.8334 187.3C60.7934 187.3 61.6068 186.987 62.2734 186.36C62.7001 185.973 62.9134 185.533 62.9134 185.04V183.24ZM67.5714 178.22H69.0914V179.7C69.8914 178.567 70.9447 178 72.2514 178C73.5181 178 74.4381 178.507 75.0114 179.52C75.5047 178.947 75.9781 178.553 76.4314 178.34C76.8981 178.113 77.4714 178 78.1514 178C80.1514 178 81.1514 178.94 81.1514 180.82V188.5H79.5114V181.46C79.5114 180.1 78.8714 179.42 77.5914 179.42C76.9247 179.42 76.3581 179.68 75.8914 180.2C75.4247 180.72 75.1914 181.34 75.1914 182.06V188.5H73.5514V181.46C73.5514 180.1 72.9181 179.42 71.6514 179.42C70.9714 179.42 70.3914 179.68 69.9114 180.2C69.4447 180.707 69.2114 181.327 69.2114 182.06V188.5H67.5714V178.22ZM92.6186 183.84H85.0386C85.0519 184.72 85.2386 185.42 85.5986 185.94C86.1719 186.78 86.9986 187.2 88.0786 187.2C89.4119 187.2 90.3119 186.567 90.7786 185.3H92.4186C92.2053 186.38 91.7119 187.22 90.9386 187.82C90.1653 188.42 89.1919 188.72 88.0186 188.72C86.4586 188.72 85.2653 188.187 84.4386 187.12C83.7053 186.187 83.3386 184.953 83.3386 183.42C83.3386 181.647 83.8186 180.267 84.7786 179.28C85.6186 178.427 86.7053 178 88.0386 178C89.0119 178 89.8653 178.233 90.5986 178.7C91.3453 179.167 91.8786 179.807 92.1986 180.62C92.4786 181.313 92.6186 182.367 92.6186 183.78V183.84ZM90.8586 182.5C90.8586 181.607 90.5919 180.887 90.0586 180.34C89.5386 179.78 88.8653 179.5 88.0386 179.5C87.1986 179.5 86.5119 179.773 85.9786 180.32C85.4586 180.853 85.1653 181.58 85.0986 182.5H90.8586ZM102.548 178.22V179.54H100.448V186.38C100.448 186.62 100.528 186.827 100.688 187C100.862 187.16 101.082 187.24 101.348 187.24C101.602 187.24 101.988 187.18 102.508 187.06L102.688 188.5C101.862 188.647 101.235 188.72 100.808 188.72C99.4884 188.72 98.8284 188.18 98.8284 187.1V179.54H97.4284V178.22H98.8284V176.12L100.448 175.38V178.22H102.548ZM104.466 174.18H106.086V179.66C106.579 179.047 107.073 178.62 107.566 178.38C108.059 178.127 108.673 178 109.406 178C110.406 178 111.193 178.253 111.766 178.76C112.339 179.253 112.626 179.933 112.626 180.8V188.5H111.006V181.46C111.006 180.74 110.786 180.213 110.346 179.88C109.933 179.573 109.446 179.42 108.886 179.42C108.046 179.42 107.366 179.733 106.846 180.36C106.339 180.987 106.086 181.82 106.086 182.86V188.5H104.466V174.18ZM124.064 183.84H116.484C116.497 184.72 116.684 185.42 117.044 185.94C117.617 186.78 118.444 187.2 119.524 187.2C120.857 187.2 121.757 186.567 122.224 185.3H123.864C123.651 186.38 123.157 187.22 122.384 187.82C121.611 188.42 120.637 188.72 119.464 188.72C117.904 188.72 116.711 188.187 115.884 187.12C115.151 186.187 114.784 184.953 114.784 183.42C114.784 181.647 115.264 180.267 116.224 179.28C117.064 178.427 118.151 178 119.484 178C120.457 178 121.311 178.233 122.044 178.7C122.791 179.167 123.324 179.807 123.644 180.62C123.924 181.313 124.064 182.367 124.064 183.78V183.84ZM122.304 182.5C122.304 181.607 122.037 180.887 121.504 180.34C120.984 179.78 120.311 179.5 119.484 179.5C118.644 179.5 117.957 179.773 117.424 180.32C116.904 180.853 116.611 181.58 116.544 182.5H122.304ZM126.302 178.22H127.822V179.7C128.622 178.567 129.675 178 130.982 178C132.249 178 133.169 178.507 133.742 179.52C134.235 178.947 134.709 178.553 135.162 178.34C135.629 178.113 136.202 178 136.882 178C138.882 178 139.882 178.94 139.882 180.82V188.5H138.242V181.46C138.242 180.1 137.602 179.42 136.322 179.42C135.655 179.42 135.089 179.68 134.622 180.2C134.155 180.72 133.922 181.34 133.922 182.06V188.5H132.282V181.46C132.282 180.1 131.649 179.42 130.382 179.42C129.702 179.42 129.122 179.68 128.642 180.2C128.175 180.707 127.942 181.327 127.942 182.06V188.5H126.302V178.22ZM151.349 183.84H143.769C143.782 184.72 143.969 185.42 144.329 185.94C144.902 186.78 145.729 187.2 146.809 187.2C148.142 187.2 149.042 186.567 149.509 185.3H151.149C150.936 186.38 150.442 187.22 149.669 187.82C148.896 188.42 147.922 188.72 146.749 188.72C145.189 188.72 143.996 188.187 143.169 187.12C142.436 186.187 142.069 184.953 142.069 183.42C142.069 181.647 142.549 180.267 143.509 179.28C144.349 178.427 145.436 178 146.769 178C147.742 178 148.596 178.233 149.329 178.7C150.076 179.167 150.609 179.807 150.929 180.62C151.209 181.313 151.349 182.367 151.349 183.78V183.84ZM149.589 182.5C149.589 181.607 149.322 180.887 148.789 180.34C148.269 179.78 147.596 179.5 146.769 179.5C145.929 179.5 145.242 179.773 144.709 180.32C144.189 180.853 143.896 181.58 143.829 182.5H149.589Z" fill="#303131"/>
<path d="M163.836 215.828L179.328 210.664L174.164 195.172L158.672 200.336L163.836 215.828ZM193 157.5L191.211 156.606L167.211 204.606L169 205.5L170.789 206.394L194.789 158.394L193 157.5Z" fill="#F0EA6E"/>
<path d="M210.56 188.5V174.18H216.38C217.713 174.18 218.747 174.513 219.48 175.18C220.24 175.873 220.62 176.753 220.62 177.82C220.62 179.287 219.953 180.327 218.62 180.94C220.367 181.607 221.24 182.767 221.24 184.42C221.24 185.567 220.873 186.527 220.14 187.3C219.38 188.1 218.333 188.5 217 188.5H210.56ZM212.38 180.34H215.92C216.853 180.34 217.547 180.173 218 179.84C218.52 179.453 218.78 178.867 218.78 178.08C218.78 177.293 218.52 176.7 218 176.3C217.547 175.967 216.853 175.8 215.92 175.8H212.38V180.34ZM212.38 186.88H216.84C217.653 186.88 218.287 186.667 218.74 186.24C219.193 185.8 219.42 185.193 219.42 184.42C219.42 183.647 219.193 183.047 218.74 182.62C218.287 182.18 217.653 181.96 216.84 181.96H212.38V186.88ZM225.085 174.18V188.5H223.445V174.18H225.085ZM235.921 188.5H234.301V186.88C233.568 188.107 232.474 188.72 231.021 188.72C230.021 188.72 229.221 188.473 228.621 187.98C228.034 187.473 227.741 186.8 227.741 185.96V178.22H229.361V185.3C229.361 185.9 229.554 186.38 229.941 186.74C230.328 187.1 230.848 187.28 231.501 187.28C232.354 187.28 233.034 186.973 233.541 186.36C234.048 185.733 234.301 184.893 234.301 183.84V178.22H235.921V188.5ZM247.439 183.84H239.859C239.872 184.72 240.059 185.42 240.419 185.94C240.992 186.78 241.819 187.2 242.899 187.2C244.232 187.2 245.132 186.567 245.599 185.3H247.239C247.026 186.38 246.532 187.22 245.759 187.82C244.986 188.42 244.012 188.72 242.839 188.72C241.279 188.72 240.086 188.187 239.259 187.12C238.526 186.187 238.159 184.953 238.159 183.42C238.159 181.647 238.639 180.267 239.599 179.28C240.439 178.427 241.526 178 242.859 178C243.832 178 244.686 178.233 245.419 178.7C246.166 179.167 246.699 179.807 247.019 180.62C247.299 181.313 247.439 182.367 247.439 183.78V183.84ZM245.679 182.5C245.679 181.607 245.412 180.887 244.879 180.34C244.359 179.78 243.686 179.5 242.859 179.5C242.019 179.5 241.332 179.773 240.799 180.32C240.279 180.853 239.986 181.58 239.919 182.5H245.679ZM255.569 182.44V188.5H253.749V174.18H259.669C261.175 174.18 262.309 174.593 263.069 175.42C263.735 176.14 264.069 177.127 264.069 178.38C264.069 179.647 263.662 180.653 262.849 181.4C262.102 182.093 261.175 182.44 260.069 182.44H255.569ZM255.569 180.82H259.389C260.255 180.82 260.935 180.6 261.429 180.16C261.922 179.72 262.169 179.1 262.169 178.3C262.169 177.513 261.922 176.9 261.429 176.46C260.935 176.02 260.255 175.8 259.389 175.8H255.569V180.82ZM268.054 174.18V188.5H266.414V174.18H268.054ZM279.93 187.12V188.44C279.476 188.6 279.123 188.68 278.87 188.68C277.803 188.68 277.223 188.193 277.13 187.22C276.396 188.22 275.23 188.72 273.63 188.72C272.523 188.72 271.663 188.413 271.05 187.8C270.516 187.267 270.25 186.58 270.25 185.74C270.25 184.78 270.59 184.04 271.27 183.52C271.656 183.227 272.463 182.94 273.69 182.66L277.05 181.9L277.07 181.04C277.07 180.013 276.296 179.5 274.75 179.5C273.27 179.5 272.476 180.1 272.37 181.3H270.71C270.75 180.393 270.976 179.7 271.39 179.22C272.096 178.407 273.243 178 274.83 178C277.403 178 278.69 178.933 278.69 180.8V186.54C278.69 187.047 278.91 187.3 279.35 187.3C279.403 187.3 279.543 187.26 279.77 187.18C279.85 187.153 279.903 187.133 279.93 187.12ZM277.07 183.24L274.43 183.92C273.483 184.16 272.83 184.407 272.47 184.66C272.123 184.913 271.95 185.267 271.95 185.72C271.95 186.773 272.63 187.3 273.99 187.3C274.95 187.3 275.763 186.987 276.43 186.36C276.856 185.973 277.07 185.533 277.07 185.04V183.24ZM287.988 178.22H289.748L285.168 190.66C284.634 192.073 283.748 192.78 282.508 192.78C281.921 192.78 281.408 192.647 280.968 192.38L281.288 190.96C281.621 191.093 281.948 191.16 282.268 191.16C282.908 191.16 283.354 190.827 283.608 190.16L284.228 188.52L280.748 178.22H282.508L285.128 186.22L287.988 178.22ZM300.232 183.84H292.652C292.665 184.72 292.852 185.42 293.212 185.94C293.785 186.78 294.612 187.2 295.692 187.2C297.025 187.2 297.925 186.567 298.392 185.3H300.032C299.819 186.38 299.325 187.22 298.552 187.82C297.779 188.42 296.805 188.72 295.632 188.72C294.072 188.72 292.879 188.187 292.052 187.12C291.319 186.187 290.952 184.953 290.952 183.42C290.952 181.647 291.432 180.267 292.392 179.28C293.232 178.427 294.319 178 295.652 178C296.625 178 297.479 178.233 298.212 178.7C298.959 179.167 299.492 179.807 299.812 180.62C300.092 181.313 300.232 182.367 300.232 183.78V183.84ZM298.472 182.5C298.472 181.607 298.205 180.887 297.672 180.34C297.152 179.78 296.479 179.5 295.652 179.5C294.812 179.5 294.125 179.773 293.592 180.32C293.072 180.853 292.779 181.58 292.712 182.5H298.472ZM302.45 178.22H303.97V180.1C304.57 178.687 305.517 177.98 306.81 177.98C306.97 177.98 307.163 178 307.39 178.04V179.72C306.323 179.733 305.59 179.887 305.19 180.18C304.457 180.713 304.09 181.707 304.09 183.16V188.5H302.45V178.22Z" fill="#303131"/>
<path d="M318.836 215.828L334.328 210.664L329.164 195.172L313.672 200.336L318.836 215.828ZM348 157.5L346.211 156.606L322.211 204.606L324 205.5L325.789 206.394L349.789 158.394L348 157.5Z" fill="#F0EA6E"/>
<path d="M365.56 188.5V174.18H371.38C372.713 174.18 373.747 174.513 374.48 175.18C375.24 175.873 375.62 176.753 375.62 177.82C375.62 179.287 374.953 180.327 373.62 180.94C375.367 181.607 376.24 182.767 376.24 184.42C376.24 185.567 375.873 186.527 375.14 187.3C374.38 188.1 373.333 188.5 372 188.5H365.56ZM367.38 180.34H370.92C371.853 180.34 372.547 180.173 373 179.84C373.52 179.453 373.78 178.867 373.78 178.08C373.78 177.293 373.52 176.7 373 176.3C372.547 175.967 371.853 175.8 370.92 175.8H367.38V180.34ZM367.38 186.88H371.84C372.653 186.88 373.287 186.667 373.74 186.24C374.193 185.8 374.42 185.193 374.42 184.42C374.42 183.647 374.193 183.047 373.74 182.62C373.287 182.18 372.653 181.96 371.84 181.96H367.38V186.88ZM382.505 178C384.052 178 385.232 178.54 386.045 179.62C386.765 180.553 387.125 181.82 387.125 183.42C387.125 185.207 386.659 186.567 385.725 187.5C384.925 188.313 383.845 188.72 382.485 188.72C380.912 188.72 379.712 188.193 378.885 187.14C378.165 186.22 377.805 184.98 377.805 183.42C377.805 181.607 378.279 180.213 379.225 179.24C380.039 178.413 381.132 178 382.505 178ZM382.505 179.5C381.572 179.5 380.839 179.853 380.305 180.56C379.772 181.253 379.505 182.207 379.505 183.42C379.505 184.687 379.805 185.653 380.405 186.32C380.925 186.907 381.619 187.2 382.485 187.2C383.405 187.2 384.119 186.867 384.625 186.2C385.145 185.533 385.405 184.607 385.405 183.42C385.405 182.113 385.112 181.113 384.525 180.42C384.019 179.807 383.345 179.5 382.505 179.5ZM398.523 187.12V188.44C398.07 188.6 397.717 188.68 397.463 188.68C396.397 188.68 395.817 188.193 395.723 187.22C394.99 188.22 393.823 188.72 392.223 188.72C391.117 188.72 390.257 188.413 389.643 187.8C389.11 187.267 388.843 186.58 388.843 185.74C388.843 184.78 389.183 184.04 389.863 183.52C390.25 183.227 391.057 182.94 392.283 182.66L395.643 181.9L395.663 181.04C395.663 180.013 394.89 179.5 393.343 179.5C391.863 179.5 391.07 180.1 390.963 181.3H389.303C389.343 180.393 389.57 179.7 389.983 179.22C390.69 178.407 391.837 178 393.423 178C395.997 178 397.283 178.933 397.283 180.8V186.54C397.283 187.047 397.503 187.3 397.943 187.3C397.997 187.3 398.137 187.26 398.363 187.18C398.443 187.153 398.497 187.133 398.523 187.12ZM395.663 183.24L393.023 183.92C392.077 184.16 391.423 184.407 391.063 184.66C390.717 184.913 390.543 185.267 390.543 185.72C390.543 186.773 391.223 187.3 392.583 187.3C393.543 187.3 394.357 186.987 395.023 186.36C395.45 185.973 395.663 185.533 395.663 185.04V183.24ZM400.301 178.22H401.821V180.1C402.421 178.687 403.368 177.98 404.661 177.98C404.821 177.98 405.015 178 405.241 178.04V179.72C404.175 179.733 403.441 179.887 403.041 180.18C402.308 180.713 401.941 181.707 401.941 183.16V188.5H400.301V178.22ZM415.224 174.18V188.5H413.584V187.08C412.931 188.187 411.918 188.74 410.544 188.74C409.038 188.74 407.878 188.193 407.064 187.1C406.358 186.14 406.004 184.873 406.004 183.3C406.004 181.58 406.464 180.233 407.384 179.26C408.171 178.42 409.191 178 410.444 178C411.831 178 412.878 178.52 413.584 179.56V174.18H415.224ZM410.724 179.52C409.818 179.52 409.084 179.88 408.524 180.6C407.978 181.307 407.704 182.247 407.704 183.42C407.704 184.633 408.024 185.587 408.664 186.28C409.211 186.893 409.904 187.2 410.744 187.2C411.611 187.2 412.298 186.86 412.804 186.18C413.324 185.5 413.584 184.58 413.584 183.42C413.584 182.153 413.291 181.167 412.704 180.46C412.184 179.833 411.524 179.52 410.724 179.52ZM422.082 183.24V184.68H417.142V183.24H422.082ZM428.548 174.18V187.74L427.688 188.5H426.848V176.22L424.368 178.3L423.468 177.18L427.028 174.18H428.548ZM432.577 181.34C433.431 180.233 434.438 179.68 435.598 179.68C436.944 179.68 437.971 180.167 438.678 181.14C439.238 181.927 439.518 182.92 439.518 184.12C439.518 185.587 439.098 186.747 438.258 187.6C437.484 188.36 436.471 188.74 435.217 188.74C432.378 188.74 430.958 186.873 430.958 183.14V182.38C430.958 179.953 431.438 177.98 432.398 176.46C433.424 174.82 434.904 174 436.838 174C437.078 174 437.371 174.013 437.718 174.04L438.398 174.88V175.5C437.864 175.42 437.424 175.38 437.078 175.38C434.504 175.38 433.004 177.367 432.577 181.34ZM437.798 184.04C437.798 183.2 437.571 182.507 437.118 181.96C436.678 181.4 436.111 181.12 435.418 181.12C434.671 181.12 433.984 181.433 433.358 182.06C432.811 182.607 432.538 183.2 432.538 183.84C432.538 184.827 432.791 185.64 433.298 186.28C433.791 186.893 434.444 187.2 435.258 187.2C436.004 187.2 436.611 186.913 437.078 186.34C437.558 185.753 437.798 184.987 437.798 184.04ZM456.863 178.56H454.983C454.783 177.6 454.437 176.9 453.943 176.46C453.303 175.873 452.37 175.58 451.143 175.58C449.65 175.58 448.497 176.167 447.683 177.34C446.977 178.367 446.623 179.713 446.623 181.38C446.623 183.26 447.097 184.72 448.043 185.76C448.883 186.653 449.963 187.1 451.283 187.1C452.897 187.1 454.01 186.507 454.623 185.32C454.903 184.773 455.123 184.047 455.283 183.14H457.163C456.723 186.86 454.77 188.72 451.303 188.72C449.437 188.72 447.963 188.173 446.883 187.08C445.497 185.68 444.803 183.8 444.803 181.44C444.803 179.147 445.47 177.26 446.803 175.78C447.897 174.567 449.403 173.96 451.323 173.96C454.443 173.96 456.29 175.493 456.863 178.56ZM468.543 187.12V188.44C468.09 188.6 467.736 188.68 467.483 188.68C466.416 188.68 465.836 188.193 465.743 187.22C465.01 188.22 463.843 188.72 462.243 188.72C461.136 188.72 460.276 188.413 459.663 187.8C459.13 187.267 458.863 186.58 458.863 185.74C458.863 184.78 459.203 184.04 459.883 183.52C460.27 183.227 461.076 182.94 462.303 182.66L465.663 181.9L465.683 181.04C465.683 180.013 464.91 179.5 463.363 179.5C461.883 179.5 461.09 180.1 460.983 181.3H459.323C459.363 180.393 459.59 179.7 460.003 179.22C460.71 178.407 461.856 178 463.443 178C466.016 178 467.303 178.933 467.303 180.8V186.54C467.303 187.047 467.523 187.3 467.963 187.3C468.016 187.3 468.156 187.26 468.383 187.18C468.463 187.153 468.516 187.133 468.543 187.12ZM465.683 183.24L463.043 183.92C462.096 184.16 461.443 184.407 461.083 184.66C460.736 184.913 460.563 185.267 460.563 185.72C460.563 186.773 461.243 187.3 462.603 187.3C463.563 187.3 464.376 186.987 465.043 186.36C465.47 185.973 465.683 185.533 465.683 185.04V183.24ZM470.321 178.22H471.841V180.1C472.441 178.687 473.388 177.98 474.681 177.98C474.841 177.98 475.034 178 475.261 178.04V179.72C474.194 179.733 473.461 179.887 473.061 180.18C472.328 180.713 471.961 181.707 471.961 183.16V188.5H470.321V178.22ZM485.244 174.18V188.5H483.604V187.08C482.951 188.187 481.937 188.74 480.564 188.74C479.057 188.74 477.897 188.193 477.084 187.1C476.377 186.14 476.024 184.873 476.024 183.3C476.024 181.58 476.484 180.233 477.404 179.26C478.191 178.42 479.211 178 480.464 178C481.851 178 482.897 178.52 483.604 179.56V174.18H485.244ZM480.744 179.52C479.837 179.52 479.104 179.88 478.544 180.6C477.997 181.307 477.724 182.247 477.724 183.42C477.724 184.633 478.044 185.587 478.684 186.28C479.231 186.893 479.924 187.2 480.764 187.2C481.631 187.2 482.317 186.86 482.824 186.18C483.344 185.5 483.604 184.58 483.604 183.42C483.604 182.153 483.311 181.167 482.724 180.46C482.204 179.833 481.544 179.52 480.744 179.52ZM495.102 181.04H493.302C493.249 180.013 492.562 179.5 491.242 179.5C490.562 179.5 490.022 179.633 489.622 179.9C489.235 180.153 489.042 180.5 489.042 180.94C489.042 181.607 489.675 182.087 490.942 182.38L492.522 182.74C493.549 182.98 494.289 183.32 494.742 183.76C495.195 184.2 495.422 184.8 495.422 185.56C495.422 186.533 495.042 187.307 494.282 187.88C493.522 188.44 492.495 188.72 491.202 188.72C489.789 188.72 488.715 188.387 487.982 187.72C487.369 187.173 487.042 186.447 487.002 185.54H488.862C488.969 186.007 489.115 186.347 489.302 186.56C489.662 186.987 490.335 187.2 491.322 187.2C492.055 187.2 492.635 187.067 493.062 186.8C493.502 186.52 493.722 186.153 493.722 185.7C493.722 185.02 493.195 184.553 492.142 184.3L490.602 183.94C489.429 183.66 488.609 183.327 488.142 182.94C487.609 182.5 487.342 181.867 487.342 181.04C487.342 180.107 487.695 179.367 488.402 178.82C489.122 178.273 490.082 178 491.282 178C492.535 178 493.509 178.313 494.202 178.94C494.802 179.487 495.102 180.187 495.102 181.04Z" fill="#303131"/>
<rect width="126" height="53" transform="translate(534 155)" fill="#F0EA6E"/>
<mask id="mask1_2062_2748" style="mask-type:alpha" maskUnits="userSpaceOnUse" x="554" y="169" width="24" height="25">
<rect x="554" y="169.5" width="24" height="24" fill="#D9D9D9"/>
</mask>
<g mask="url(#mask1_2062_2748)">
<path d="M564.275 185.5L569.85 181.925C570 181.825 570.075 181.683 570.075 181.5C570.075 181.317 570 181.175 569.85 181.075L564.275 177.5C564.108 177.383 563.938 177.375 563.763 177.475C563.588 177.575 563.5 177.725 563.5 177.925V185.075C563.5 185.275 563.588 185.425 563.763 185.525C563.938 185.625 564.108 185.617 564.275 185.5ZM558 189.5C557.45 189.5 556.979 189.304 556.588 188.913C556.196 188.521 556 188.05 556 187.5V175.5C556 174.95 556.196 174.479 556.588 174.088C556.979 173.696 557.45 173.5 558 173.5H574C574.55 173.5 575.021 173.696 575.413 174.088C575.804 174.479 576 174.95 576 175.5V187.5C576 188.05 575.804 188.521 575.413 188.913C575.021 189.304 574.55 189.5 574 189.5H558ZM558 187.5H574V175.5H558V187.5Z" fill="#303131"/>
</g>
<path d="M593.48 188.2C592.027 188.2 590.74 188.133 589.62 188C588.5 187.867 587.693 187.733 587.2 187.6V187L586.8 184.46C587.053 184.673 587.473 184.9 588.06 185.14C588.647 185.38 589.4 185.587 590.32 185.76C591.24 185.92 592.307 186 593.52 186C594.267 186 594.84 185.953 595.24 185.86C595.64 185.753 595.913 185.607 596.06 185.42C596.207 185.233 596.28 185.013 596.28 184.76C596.28 184.44 596.173 184.193 595.96 184.02C595.747 183.833 595.36 183.68 594.8 183.56C594.253 183.44 593.473 183.313 592.46 183.18C591.247 183.02 590.233 182.8 589.42 182.52C588.607 182.24 588 181.847 587.6 181.34C587.2 180.82 587 180.133 587 179.28C587 178.587 587.18 177.98 587.54 177.46C587.9 176.94 588.48 176.533 589.28 176.24C590.08 175.947 591.14 175.8 592.46 175.8C593.847 175.8 595.033 175.867 596.02 176C597.007 176.133 597.687 176.267 598.06 176.4V177L598.66 179.2C598.327 179.027 597.847 178.847 597.22 178.66C596.593 178.473 595.867 178.32 595.04 178.2C594.213 178.067 593.32 178 592.36 178C591.76 178 591.293 178.053 590.96 178.16C590.627 178.253 590.387 178.393 590.24 178.58C590.107 178.753 590.04 178.973 590.04 179.24C590.04 179.56 590.16 179.82 590.4 180.02C590.653 180.207 591.06 180.36 591.62 180.48C592.18 180.6 592.933 180.713 593.88 180.82C595.333 180.98 596.453 181.22 597.24 181.54C598.027 181.86 598.567 182.273 598.86 182.78C599.167 183.273 599.32 183.873 599.32 184.58C599.32 185.193 599.207 185.733 598.98 186.2C598.753 186.653 598.4 187.027 597.92 187.32C597.453 187.613 596.847 187.833 596.1 187.98C595.367 188.127 594.493 188.2 593.48 188.2ZM604.941 188.2C604.021 188.2 603.354 188.007 602.941 187.62C602.528 187.22 602.321 186.573 602.321 185.68V180.64H600.521V178.64C601.134 178.64 601.614 178.567 601.961 178.42C602.308 178.26 602.554 177.987 602.701 177.6C602.848 177.213 602.921 176.673 602.921 175.98H605.161V178.64H608.581C608.488 178.907 608.394 179.24 608.301 179.64C608.221 180.027 608.181 180.36 608.181 180.64H605.161V184.58C605.161 185.193 605.208 185.613 605.301 185.84C605.394 186.067 605.614 186.18 605.961 186.18C606.188 186.18 606.434 186.1 606.701 185.94C606.981 185.78 607.248 185.587 607.501 185.36C607.768 185.12 607.988 184.893 608.161 184.68V185.3L608.361 187.24C608.201 187.373 607.961 187.52 607.641 187.68C607.321 187.827 606.928 187.947 606.461 188.04C606.008 188.147 605.501 188.2 604.941 188.2ZM613.513 188.2C612.313 188.2 611.353 187.967 610.633 187.5C609.927 187.02 609.573 186.253 609.573 185.2C609.573 184.467 609.76 183.873 610.133 183.42C610.507 182.967 611.013 182.633 611.653 182.42C612.307 182.193 613.047 182.08 613.873 182.08C614.487 182.08 615.007 182.133 615.433 182.24C615.873 182.347 616.227 182.46 616.493 182.58C616.76 182.7 616.933 182.787 617.013 182.84C617.013 182.28 616.953 181.827 616.833 181.48C616.713 181.12 616.493 180.86 616.173 180.7C615.867 180.527 615.433 180.44 614.873 180.44C614.06 180.44 613.34 180.52 612.713 180.68C612.087 180.84 611.573 181.027 611.173 181.24C610.787 181.453 610.52 181.633 610.373 181.78V181.18L610.173 179.22C610.267 179.167 610.513 179.08 610.913 178.96C611.313 178.84 611.86 178.727 612.553 178.62C613.247 178.5 614.073 178.44 615.033 178.44C616.353 178.44 617.36 178.633 618.053 179.02C618.747 179.393 619.22 179.933 619.473 180.64C619.74 181.347 619.873 182.2 619.873 183.2V186.8C619.873 187.173 619.913 187.447 619.993 187.62C620.087 187.78 620.18 187.907 620.273 188H617.033V187.58L617.073 187.2L617.033 187.16C616.927 187.28 616.773 187.4 616.573 187.52C616.373 187.64 616.127 187.753 615.833 187.86C615.54 187.953 615.2 188.033 614.813 188.1C614.427 188.167 613.993 188.2 613.513 188.2ZM614.453 186.18C615.013 186.18 615.48 186.14 615.853 186.06C616.24 185.967 616.533 185.847 616.733 185.7C616.933 185.54 617.033 185.353 617.033 185.14C617.033 184.833 616.8 184.58 616.333 184.38C615.88 184.18 615.26 184.08 614.473 184.08C613.713 184.08 613.173 184.187 612.853 184.4C612.547 184.613 612.393 184.88 612.393 185.2C612.393 185.6 612.573 185.867 612.933 186C613.293 186.12 613.8 186.18 614.453 186.18ZM621.919 188C622.012 188 622.099 187.907 622.179 187.72C622.272 187.533 622.319 187.227 622.319 186.8V180.04C622.319 179.613 622.272 179.313 622.179 179.14C622.099 178.953 622.012 178.853 621.919 178.84C622.506 178.84 623.106 178.8 623.719 178.72C624.332 178.627 624.812 178.533 625.159 178.44V179.24L625.119 179.58L625.159 179.62C625.252 179.473 625.399 179.313 625.599 179.14C625.812 178.953 626.079 178.793 626.399 178.66C626.732 178.513 627.119 178.44 627.559 178.44C628.212 178.44 628.792 178.533 629.299 178.72C629.806 178.893 630.166 179.073 630.379 179.26L629.779 181.94V182.54C629.579 182.26 629.306 181.973 628.959 181.68C628.626 181.387 628.252 181.14 627.839 180.94C627.439 180.74 627.026 180.64 626.599 180.64C626.119 180.64 625.759 180.813 625.519 181.16C625.279 181.507 625.159 182.053 625.159 182.8V186.8C625.159 187.227 625.199 187.533 625.279 187.72C625.372 187.907 625.466 188 625.559 188H621.919ZM635.605 188.2C634.685 188.2 634.018 188.007 633.605 187.62C633.192 187.22 632.985 186.573 632.985 185.68V180.64H631.185V178.64C631.798 178.64 632.278 178.567 632.625 178.42C632.972 178.26 633.218 177.987 633.365 177.6C633.512 177.213 633.585 176.673 633.585 175.98H635.825V178.64H639.245C639.152 178.907 639.058 179.24 638.965 179.64C638.885 180.027 638.845 180.36 638.845 180.64H635.825V184.58C635.825 185.193 635.872 185.613 635.965 185.84C636.058 186.067 636.278 186.18 636.625 186.18C636.852 186.18 637.098 186.1 637.365 185.94C637.645 185.78 637.912 185.587 638.165 185.36C638.432 185.12 638.652 184.893 638.825 184.68V185.3L639.025 187.24C638.865 187.373 638.625 187.52 638.305 187.68C637.985 187.827 637.592 187.947 637.125 188.04C636.672 188.147 636.165 188.2 635.605 188.2Z" fill="#303131"/>
</svg>
