<svg width="283" height="23" viewBox="0 0 283 23" fill="none" xmlns="http://www.w3.org/2000/svg">
<path d="M6.504 16.896C4.84 16.896 3.528 16.64 2.568 16.128C1.624 15.616 0.960001 14.92 0.576001 14.04C0.192001 13.16 7.15256e-07 12.168 7.15256e-07 11.064C7.15256e-07 9.11201 0.528001 7.64801 1.584 6.67201C2.656 5.69601 4.216 5.20801 6.264 5.20801C7.336 5.20801 8.312 5.28801 9.192 5.44801C10.088 5.60801 10.744 5.76001 11.16 5.90401V6.62401L11.64 9.19201C11.288 8.85601 10.648 8.51201 9.72 8.16001C8.808 7.79201 7.712 7.60801 6.432 7.60801C5.744 7.60801 5.168 7.73601 4.704 7.99201C4.256 8.23201 3.92 8.60801 3.696 9.12001C3.488 9.63201 3.384 10.288 3.384 11.088C3.384 11.872 3.504 12.512 3.744 13.008C3.984 13.504 4.376 13.864 4.92 14.088C5.464 14.312 6.184 14.424 7.08 14.424C8.216 14.424 9.152 14.28 9.888 13.992C10.64 13.688 11.144 13.392 11.4 13.104V13.824L11.64 15.744C11.336 16 10.736 16.256 9.84 16.512C8.96 16.768 7.848 16.896 6.504 16.896ZM13.6485 16.656C13.7605 16.656 13.8645 16.544 13.9605 16.32C14.0725 16.096 14.1285 15.728 14.1285 15.216V1.536C14.1285 1.024 14.0725 0.664005 13.9605 0.456006C13.8645 0.232006 13.7605 0.112005 13.6485 0.0960045H17.5365V6.64801L17.4885 6.96001L17.5365 7.00801C17.5845 6.89601 17.7365 6.69601 17.9925 6.40801C18.2485 6.12001 18.6165 5.84801 19.0965 5.59201C19.5765 5.32001 20.1685 5.18401 20.8725 5.18401C22.3605 5.18401 23.4965 5.60801 24.2805 6.45601C25.0805 7.30401 25.4805 8.63201 25.4805 10.44V15.216C25.4805 15.728 25.5285 16.096 25.6245 16.32C25.7365 16.544 25.8485 16.656 25.9605 16.656H21.5925C21.7045 16.656 21.8085 16.544 21.9045 16.32C22.0165 16.096 22.0725 15.728 22.0725 15.216V10.512C22.0725 9.76001 21.9925 9.17601 21.8325 8.76001C21.6725 8.32801 21.4485 8.02401 21.1605 7.84801C20.8885 7.67201 20.5685 7.58401 20.2005 7.58401C19.7525 7.58401 19.3205 7.69601 18.9045 7.92001C18.5045 8.12801 18.1765 8.46401 17.9205 8.92801C17.6645 9.37601 17.5365 9.97601 17.5365 10.728V15.216C17.5365 15.728 17.5845 16.096 17.6805 16.32C17.7925 16.544 17.9045 16.656 18.0165 16.656H13.6485ZM33.7779 16.896C32.1779 16.896 30.9219 16.64 30.0099 16.128C29.1139 15.616 28.4819 14.92 28.1139 14.04C27.7619 13.16 27.5859 12.168 27.5859 11.064C27.5859 9.94401 27.7699 8.94401 28.1379 8.06401C28.5219 7.18401 29.1619 6.48801 30.0579 5.97601C30.9539 5.44801 32.1939 5.18401 33.7779 5.18401C35.3619 5.18401 36.6019 5.44801 37.4979 5.97601C38.3939 6.48801 39.0259 7.18401 39.3939 8.06401C39.7779 8.94401 39.9699 9.94401 39.9699 11.064C39.9699 12.168 39.7859 13.16 39.4179 14.04C39.0659 14.92 38.4419 15.616 37.5459 16.128C36.6499 16.64 35.3939 16.896 33.7779 16.896ZM33.7779 14.472C34.4499 14.472 34.9859 14.376 35.3859 14.184C35.8019 13.976 36.0979 13.624 36.2739 13.128C36.4659 12.632 36.5619 11.944 36.5619 11.064C36.5619 10.184 36.4659 9.49601 36.2739 9.00001C36.0979 8.48801 35.8019 8.12801 35.3859 7.92001C34.9859 7.69601 34.4499 7.58401 33.7779 7.58401C33.1059 7.58401 32.5619 7.69601 32.1459 7.92001C31.7459 8.14401 31.4499 8.51201 31.2579 9.02401C31.0819 9.53601 30.9939 10.224 30.9939 11.088C30.9939 11.936 31.0819 12.608 31.2579 13.104C31.4499 13.6 31.7459 13.952 32.1459 14.16C32.5619 14.368 33.1059 14.472 33.7779 14.472ZM47.7741 16.896C46.3501 16.896 45.1501 16.816 44.1741 16.656C43.1981 16.496 42.5261 16.336 42.1581 16.176V15.456L41.6541 13.104C42.0701 13.408 42.8461 13.712 43.9821 14.016C45.1181 14.32 46.5101 14.472 48.1581 14.472C48.6541 14.472 49.0461 14.44 49.3341 14.376C49.6381 14.312 49.8541 14.208 49.9821 14.064C50.1101 13.92 50.1741 13.736 50.1741 13.512C50.1741 13.24 50.0701 13.032 49.8621 12.888C49.6701 12.744 49.3181 12.632 48.8061 12.552C48.2941 12.456 47.5501 12.344 46.5741 12.216C45.3421 12.056 44.3661 11.832 43.6461 11.544C42.9261 11.24 42.4141 10.856 42.1101 10.392C41.8221 9.91201 41.6781 9.32801 41.6781 8.64001C41.6781 8.00001 41.8301 7.42401 42.1341 6.91201C42.4541 6.38401 42.9981 5.96801 43.7661 5.66401C44.5501 5.34401 45.6381 5.18401 47.0301 5.18401C48.3421 5.18401 49.4941 5.26401 50.4861 5.42401C51.4781 5.58401 52.1901 5.74401 52.6221 5.90401V6.62401L53.1021 8.73601C52.7341 8.49601 52.0141 8.24801 50.9421 7.99201C49.8701 7.73601 48.5101 7.60801 46.8621 7.60801C46.2221 7.60801 45.7661 7.67201 45.4941 7.80001C45.2221 7.92801 45.0861 8.15201 45.0861 8.47201C45.0861 8.63201 45.1261 8.76801 45.2061 8.88001C45.3021 8.99201 45.4781 9.09601 45.7341 9.19201C45.9901 9.28801 46.3581 9.38401 46.8381 9.48001C47.3181 9.56001 47.9501 9.64801 48.7341 9.74401C50.0941 9.92001 51.1181 10.168 51.8061 10.488C52.4941 10.792 52.9581 11.176 53.1981 11.64C53.4381 12.088 53.5581 12.632 53.5581 13.272C53.5581 14.088 53.3501 14.768 52.9341 15.312C52.5341 15.84 51.9021 16.24 51.0381 16.512C50.1901 16.768 49.1021 16.896 47.7741 16.896ZM61.4889 16.896C60.2249 16.896 59.1689 16.768 58.3209 16.512C57.4889 16.24 56.8249 15.856 56.3289 15.36C55.8329 14.848 55.4809 14.232 55.2729 13.512C55.0649 12.792 54.9609 11.976 54.9609 11.064C54.9609 9.25601 55.4649 7.82401 56.4729 6.76801C57.4809 5.71201 59.0249 5.18401 61.1049 5.18401C62.3209 5.18401 63.3049 5.35201 64.0569 5.68801C64.8249 6.02401 65.4089 6.47201 65.8089 7.03201C66.2089 7.59201 66.4809 8.21601 66.6249 8.90401C66.7849 9.57601 66.8649 10.256 66.8649 10.944V12.072C66.8649 12.024 66.6409 11.976 66.1929 11.928C65.7609 11.864 65.0249 11.832 63.9849 11.832H58.4169C58.4169 12.712 58.6809 13.376 59.2089 13.824C59.7529 14.256 60.6329 14.472 61.8489 14.472C62.8729 14.472 63.7849 14.352 64.5849 14.112C65.4009 13.856 65.9929 13.616 66.3609 13.392V14.112L66.6009 15.936C66.2969 16.144 65.7129 16.36 64.8489 16.584C63.9849 16.792 62.8649 16.896 61.4889 16.896ZM59.3049 9.76801H63.4569C63.4569 9.41601 63.3769 9.07201 63.2169 8.73601C63.0729 8.40001 62.8329 8.12801 62.4969 7.92001C62.1609 7.69601 61.6969 7.58401 61.1049 7.58401C60.5129 7.58401 60.0329 7.67201 59.6649 7.84801C59.3129 8.02401 59.0489 8.24001 58.8729 8.49601C58.7129 8.75201 58.6329 9.01601 58.6329 9.28801C58.6329 9.44801 58.6809 9.56801 58.7769 9.64801C58.8729 9.72801 59.0489 9.76801 59.3049 9.76801ZM68.8907 16.656C69.0027 16.656 69.1067 16.544 69.2027 16.32C69.3147 16.096 69.3707 15.728 69.3707 15.216V7.10401C69.3707 6.59201 69.3147 6.23201 69.2027 6.02401C69.1067 5.80001 69.0027 5.68001 68.8907 5.66401C69.5947 5.66401 70.3147 5.61601 71.0507 5.52001C71.7867 5.40801 72.3627 5.29601 72.7787 5.18401V6.64801L72.7307 6.96001L72.7787 7.00801C72.8267 6.89601 72.9787 6.69601 73.2347 6.40801C73.4907 6.12001 73.8587 5.84801 74.3387 5.59201C74.8187 5.32001 75.4107 5.18401 76.1147 5.18401C77.6027 5.18401 78.7387 5.60801 79.5227 6.45601C80.3227 7.30401 80.7227 8.63201 80.7227 10.44V15.216C80.7227 15.728 80.7707 16.096 80.8667 16.32C80.9787 16.544 81.0907 16.656 81.2027 16.656H76.8347C76.9467 16.656 77.0507 16.544 77.1467 16.32C77.2587 16.096 77.3147 15.728 77.3147 15.216V10.512C77.3147 9.76001 77.2347 9.17601 77.0747 8.76001C76.9147 8.32801 76.6907 8.02401 76.4027 7.84801C76.1307 7.67201 75.8107 7.58401 75.4427 7.58401C74.9947 7.58401 74.5627 7.69601 74.1467 7.92001C73.7467 8.12801 73.4187 8.46401 73.1627 8.92801C72.9067 9.37601 72.7787 9.97601 72.7787 10.728V15.216C72.7787 15.728 72.8267 16.096 72.9227 16.32C73.0347 16.544 73.1467 16.656 73.2587 16.656H68.8907ZM94.9538 16.896C93.5298 16.896 92.3298 16.816 91.3538 16.656C90.3778 16.496 89.7058 16.336 89.3378 16.176V15.456L88.8338 13.104C89.2498 13.408 90.0258 13.712 91.1618 14.016C92.2978 14.32 93.6898 14.472 95.3378 14.472C95.8338 14.472 96.2258 14.44 96.5138 14.376C96.8178 14.312 97.0338 14.208 97.1618 14.064C97.2898 13.92 97.3538 13.736 97.3538 13.512C97.3538 13.24 97.2498 13.032 97.0418 12.888C96.8498 12.744 96.4978 12.632 95.9858 12.552C95.4738 12.456 94.7298 12.344 93.7538 12.216C92.5218 12.056 91.5458 11.832 90.8258 11.544C90.1058 11.24 89.5938 10.856 89.2898 10.392C89.0018 9.91201 88.8578 9.32801 88.8578 8.64001C88.8578 8.00001 89.0098 7.42401 89.3138 6.91201C89.6338 6.38401 90.1778 5.96801 90.9458 5.66401C91.7298 5.34401 92.8178 5.18401 94.2098 5.18401C95.5218 5.18401 96.6738 5.26401 97.6658 5.42401C98.6578 5.58401 99.3698 5.74401 99.8018 5.90401V6.62401L100.282 8.73601C99.9138 8.49601 99.1938 8.24801 98.1218 7.99201C97.0498 7.73601 95.6898 7.60801 94.0418 7.60801C93.4018 7.60801 92.9458 7.67201 92.6738 7.80001C92.4018 7.92801 92.2658 8.15201 92.2658 8.47201C92.2658 8.63201 92.3058 8.76801 92.3858 8.88001C92.4818 8.99201 92.6578 9.09601 92.9138 9.19201C93.1698 9.28801 93.5378 9.38401 94.0178 9.48001C94.4978 9.56001 95.1298 9.64801 95.9138 9.74401C97.2738 9.92001 98.2978 10.168 98.9858 10.488C99.6738 10.792 100.138 11.176 100.378 11.64C100.618 12.088 100.738 12.632 100.738 13.272C100.738 14.088 100.53 14.768 100.114 15.312C99.7138 15.84 99.0818 16.24 98.2178 16.512C97.3698 16.768 96.2818 16.896 94.9538 16.896ZM108.669 16.896C107.405 16.896 106.349 16.768 105.501 16.512C104.669 16.24 104.005 15.856 103.509 15.36C103.013 14.848 102.661 14.232 102.453 13.512C102.245 12.792 102.141 11.976 102.141 11.064C102.141 9.25601 102.645 7.82401 103.653 6.76801C104.661 5.71201 106.205 5.18401 108.285 5.18401C109.501 5.18401 110.485 5.35201 111.237 5.68801C112.005 6.02401 112.589 6.47201 112.989 7.03201C113.389 7.59201 113.661 8.21601 113.805 8.90401C113.965 9.57601 114.045 10.256 114.045 10.944V12.072C114.045 12.024 113.821 11.976 113.373 11.928C112.941 11.864 112.205 11.832 111.165 11.832H105.597C105.597 12.712 105.861 13.376 106.389 13.824C106.933 14.256 107.813 14.472 109.029 14.472C110.053 14.472 110.965 14.352 111.765 14.112C112.581 13.856 113.173 13.616 113.541 13.392V14.112L113.781 15.936C113.477 16.144 112.893 16.36 112.029 16.584C111.165 16.792 110.045 16.896 108.669 16.896ZM106.485 9.76801H110.637C110.637 9.41601 110.557 9.07201 110.397 8.73601C110.253 8.40001 110.013 8.12801 109.677 7.92001C109.341 7.69601 108.877 7.58401 108.285 7.58401C107.693 7.58401 107.213 7.67201 106.845 7.84801C106.493 8.02401 106.229 8.24001 106.053 8.49601C105.893 8.75201 105.813 9.01601 105.813 9.28801C105.813 9.44801 105.861 9.56801 105.957 9.64801C106.053 9.72801 106.229 9.76801 106.485 9.76801ZM120.798 16.896C119.694 16.896 118.894 16.664 118.398 16.2C117.902 15.72 117.654 14.944 117.654 13.872V7.82401H115.494V5.42401C116.23 5.42401 116.806 5.33601 117.222 5.16001C117.638 4.96801 117.934 4.64001 118.11 4.176C118.286 3.71201 118.374 3.06401 118.374 2.23201H121.062V5.42401H125.166C125.054 5.74401 124.942 6.14401 124.83 6.62401C124.734 7.08801 124.686 7.48801 124.686 7.82401H121.062V12.552C121.062 13.288 121.118 13.792 121.23 14.064C121.342 14.336 121.606 14.472 122.022 14.472C122.294 14.472 122.59 14.376 122.91 14.184C123.246 13.992 123.566 13.76 123.87 13.488C124.19 13.2 124.454 12.928 124.662 12.672V13.416L124.902 15.744C124.71 15.904 124.422 16.08 124.038 16.272C123.654 16.448 123.182 16.592 122.622 16.704C122.078 16.832 121.47 16.896 120.798 16.896ZM131.181 16.896C130.077 16.896 129.277 16.664 128.781 16.2C128.285 15.72 128.037 14.944 128.037 13.872V7.82401H125.877V5.42401C126.613 5.42401 127.189 5.33601 127.605 5.16001C128.021 4.96801 128.317 4.64001 128.493 4.176C128.669 3.71201 128.757 3.06401 128.757 2.23201H131.445V5.42401H135.549C135.437 5.74401 135.325 6.14401 135.213 6.62401C135.117 7.08801 135.069 7.48801 135.069 7.82401H131.445V12.552C131.445 13.288 131.501 13.792 131.613 14.064C131.725 14.336 131.989 14.472 132.405 14.472C132.677 14.472 132.973 14.376 133.293 14.184C133.629 13.992 133.949 13.76 134.253 13.488C134.573 13.2 134.837 12.928 135.045 12.672V13.416L135.285 15.744C135.093 15.904 134.805 16.08 134.421 16.272C134.037 16.448 133.565 16.592 133.005 16.704C132.461 16.832 131.853 16.896 131.181 16.896ZM136.836 16.656C136.948 16.656 137.06 16.544 137.172 16.32C137.284 16.096 137.34 15.728 137.34 15.216V6.86401C137.34 6.35201 137.284 5.98401 137.172 5.76001C137.076 5.53601 136.972 5.42401 136.86 5.42401H140.748V15.216C140.748 15.728 140.796 16.096 140.892 16.32C141.004 16.544 141.116 16.656 141.228 16.656H136.836ZM138.78 3.60001C138.188 3.60001 137.716 3.44001 137.364 3.12001C137.012 2.8 136.836 2.36 136.836 1.80001C136.836 1.24001 137.004 0.800005 137.34 0.480005C137.692 0.160006 138.172 5.72205e-06 138.78 5.72205e-06C139.388 5.72205e-06 139.86 0.160006 140.196 0.480005C140.548 0.800005 140.724 1.24001 140.724 1.80001C140.724 2.36 140.548 2.8 140.196 3.12001C139.86 3.44001 139.388 3.60001 138.78 3.60001ZM143.399 16.656C143.511 16.656 143.615 16.544 143.711 16.32C143.823 16.096 143.879 15.728 143.879 15.216V7.10401C143.879 6.59201 143.823 6.23201 143.711 6.02401C143.615 5.80001 143.511 5.68001 143.399 5.66401C144.103 5.66401 144.823 5.61601 145.559 5.52001C146.295 5.40801 146.871 5.29601 147.287 5.18401V6.64801L147.239 6.96001L147.287 7.00801C147.335 6.89601 147.487 6.69601 147.743 6.40801C147.999 6.12001 148.367 5.84801 148.847 5.59201C149.327 5.32001 149.919 5.18401 150.623 5.18401C152.111 5.18401 153.247 5.60801 154.031 6.45601C154.831 7.30401 155.231 8.63201 155.231 10.44V15.216C155.231 15.728 155.279 16.096 155.375 16.32C155.487 16.544 155.599 16.656 155.711 16.656H151.343C151.455 16.656 151.559 16.544 151.655 16.32C151.767 16.096 151.823 15.728 151.823 15.216V10.512C151.823 9.76001 151.743 9.17601 151.583 8.76001C151.423 8.32801 151.199 8.02401 150.911 7.84801C150.639 7.67201 150.319 7.58401 149.951 7.58401C149.503 7.58401 149.071 7.69601 148.655 7.92001C148.255 8.12801 147.927 8.46401 147.671 8.92801C147.415 9.37601 147.287 9.97601 147.287 10.728V15.216C147.287 15.728 147.335 16.096 147.431 16.32C147.543 16.544 147.655 16.656 147.767 16.656H143.399ZM163.456 22.512C162.528 22.512 161.672 22.448 160.888 22.32C160.12 22.192 159.448 22.032 158.872 21.84C158.312 21.664 157.88 21.488 157.576 21.312L158.056 17.712V17.016C158.28 17.448 158.632 17.904 159.112 18.384C159.592 18.864 160.192 19.272 160.912 19.608C161.632 19.944 162.448 20.112 163.36 20.112C163.952 20.112 164.448 19.984 164.848 19.728C165.248 19.488 165.552 19.112 165.76 18.6C165.968 18.088 166.072 17.456 166.072 16.704V16.32L166.12 15.888L166.072 15.84C165.848 16.08 165.544 16.28 165.16 16.44C164.792 16.584 164.384 16.696 163.936 16.776C163.504 16.856 163.072 16.896 162.64 16.896C161.344 16.896 160.304 16.64 159.52 16.128C158.752 15.616 158.192 14.92 157.84 14.04C157.504 13.16 157.336 12.168 157.336 11.064C157.336 9.94401 157.504 8.94401 157.84 8.06401C158.176 7.18401 158.728 6.48801 159.496 5.97601C160.28 5.44801 161.328 5.18401 162.64 5.18401C163.088 5.18401 163.528 5.21601 163.96 5.28C164.392 5.34401 164.792 5.44001 165.16 5.56801C165.528 5.68001 165.832 5.84001 166.072 6.04801L166.12 6.02401L166.072 5.56801V5.42401H169.96C169.848 5.44001 169.736 5.56001 169.624 5.78401C169.528 6.00801 169.48 6.38401 169.48 6.91201V16.104C169.48 18.424 168.984 20.072 167.992 21.048C167.016 22.024 165.504 22.512 163.456 22.512ZM163.288 14.472C163.848 14.472 164.336 14.376 164.752 14.184C165.168 13.992 165.488 13.648 165.712 13.152C165.952 12.656 166.072 11.96 166.072 11.064C166.072 10.184 165.952 9.49601 165.712 9.00001C165.488 8.48801 165.168 8.12801 164.752 7.92001C164.336 7.69601 163.848 7.58401 163.288 7.58401C162.76 7.58401 162.304 7.69601 161.92 7.92001C161.536 8.14401 161.24 8.51201 161.032 9.02401C160.824 9.53601 160.72 10.224 160.72 11.088C160.72 11.936 160.816 12.608 161.008 13.104C161.216 13.6 161.512 13.952 161.896 14.16C162.28 14.368 162.744 14.472 163.288 14.472ZM178.251 16.896C176.827 16.896 175.627 16.816 174.651 16.656C173.675 16.496 173.003 16.336 172.635 16.176V15.456L172.131 13.104C172.547 13.408 173.323 13.712 174.459 14.016C175.595 14.32 176.987 14.472 178.635 14.472C179.131 14.472 179.523 14.44 179.811 14.376C180.115 14.312 180.331 14.208 180.459 14.064C180.587 13.92 180.651 13.736 180.651 13.512C180.651 13.24 180.547 13.032 180.339 12.888C180.147 12.744 179.795 12.632 179.283 12.552C178.771 12.456 178.027 12.344 177.051 12.216C175.819 12.056 174.843 11.832 174.123 11.544C173.403 11.24 172.891 10.856 172.587 10.392C172.299 9.91201 172.155 9.32801 172.155 8.64001C172.155 8.00001 172.307 7.42401 172.611 6.91201C172.931 6.38401 173.475 5.96801 174.243 5.66401C175.027 5.34401 176.115 5.18401 177.507 5.18401C178.819 5.18401 179.971 5.26401 180.963 5.42401C181.955 5.58401 182.667 5.74401 183.099 5.90401V6.62401L183.579 8.73601C183.211 8.49601 182.491 8.24801 181.419 7.99201C180.347 7.73601 178.987 7.60801 177.339 7.60801C176.699 7.60801 176.243 7.67201 175.971 7.80001C175.699 7.92801 175.563 8.15201 175.563 8.47201C175.563 8.63201 175.603 8.76801 175.683 8.88001C175.779 8.99201 175.955 9.09601 176.211 9.19201C176.467 9.28801 176.835 9.38401 177.315 9.48001C177.795 9.56001 178.427 9.64801 179.211 9.74401C180.571 9.92001 181.595 10.168 182.283 10.488C182.971 10.792 183.435 11.176 183.675 11.64C183.915 12.088 184.035 12.632 184.035 13.272C184.035 14.088 183.827 14.768 183.411 15.312C183.011 15.84 182.379 16.24 181.515 16.512C180.667 16.768 179.579 16.896 178.251 16.896ZM194.083 13.536V5.37601H196.483V13.536H194.083ZM191.203 10.656V8.25601H199.363V10.656H191.203ZM213.826 16.896C213.202 16.896 212.618 16.816 212.074 16.656C211.546 16.512 211.122 16.296 210.802 16.008L210.754 16.056L210.802 16.512V16.656H206.914C207.026 16.656 207.13 16.544 207.226 16.32C207.338 16.096 207.394 15.728 207.394 15.216V1.536C207.394 1.024 207.338 0.664005 207.226 0.456006C207.13 0.232006 207.026 0.112005 206.914 0.0960045H210.802V5.61601L210.754 6.07201L210.802 6.09601C210.962 5.95201 211.194 5.81601 211.498 5.68801C211.818 5.54401 212.178 5.42401 212.578 5.32801C212.994 5.23201 213.41 5.18401 213.826 5.18401C215.314 5.18401 216.466 5.44801 217.282 5.97601C218.114 6.48801 218.698 7.18401 219.034 8.06401C219.37 8.94401 219.538 9.94401 219.538 11.064C219.538 12.168 219.37 13.16 219.034 14.04C218.714 14.92 218.138 15.616 217.306 16.128C216.49 16.64 215.33 16.896 213.826 16.896ZM213.346 14.472C214.018 14.472 214.554 14.376 214.954 14.184C215.37 13.976 215.666 13.624 215.842 13.128C216.034 12.632 216.13 11.944 216.13 11.064C216.13 10.184 216.034 9.49601 215.842 9.00001C215.666 8.48801 215.37 8.12801 214.954 7.92001C214.554 7.69601 214.018 7.58401 213.346 7.58401C212.818 7.58401 212.362 7.71201 211.978 7.96801C211.594 8.20801 211.298 8.58401 211.09 9.09601C210.898 9.60801 210.802 10.272 210.802 11.088C210.802 12.336 211.026 13.216 211.474 13.728C211.938 14.224 212.562 14.472 213.346 14.472ZM226.153 16.896C225.225 16.896 224.433 16.736 223.777 16.416C223.121 16.08 222.625 15.512 222.289 14.712C221.953 13.896 221.785 12.768 221.785 11.328V6.86401C221.785 6.35201 221.729 5.98401 221.617 5.76001C221.521 5.53601 221.417 5.42401 221.305 5.42401H225.721C225.609 5.42401 225.489 5.53601 225.361 5.76001C225.249 5.98401 225.193 6.35201 225.193 6.86401V11.664C225.193 12.672 225.377 13.392 225.745 13.824C226.129 14.256 226.569 14.472 227.065 14.472C227.769 14.472 228.313 14.312 228.697 13.992C229.081 13.656 229.353 13.224 229.513 12.696C229.673 12.152 229.753 11.584 229.753 10.992V6.86401C229.753 6.35201 229.697 5.99201 229.585 5.78401C229.489 5.56001 229.385 5.44001 229.273 5.42401H233.161V15.216C233.161 15.728 233.209 16.096 233.305 16.32C233.417 16.544 233.529 16.656 233.641 16.656H229.753V15.72L229.801 15.24L229.753 15.192C229.593 15.432 229.393 15.656 229.153 15.864C228.913 16.072 228.641 16.256 228.337 16.416C228.033 16.56 227.697 16.672 227.329 16.752C226.961 16.848 226.569 16.896 226.153 16.896ZM240.33 16.896C239.226 16.896 238.426 16.664 237.93 16.2C237.434 15.72 237.186 14.944 237.186 13.872V7.82401H235.026V5.42401C235.762 5.42401 236.338 5.33601 236.754 5.16001C237.17 4.96801 237.466 4.64001 237.642 4.176C237.818 3.71201 237.906 3.06401 237.906 2.23201H240.594V5.42401H244.698C244.586 5.74401 244.474 6.14401 244.362 6.62401C244.266 7.08801 244.218 7.48801 244.218 7.82401H240.594V12.552C240.594 13.288 240.65 13.792 240.762 14.064C240.874 14.336 241.138 14.472 241.554 14.472C241.826 14.472 242.122 14.376 242.442 14.184C242.778 13.992 243.098 13.76 243.402 13.488C243.722 13.2 243.986 12.928 244.194 12.672V13.416L244.434 15.744C244.242 15.904 243.954 16.08 243.57 16.272C243.186 16.448 242.714 16.592 242.154 16.704C241.61 16.832 241.002 16.896 240.33 16.896ZM250.712 16.896C249.608 16.896 248.808 16.664 248.312 16.2C247.816 15.72 247.568 14.944 247.568 13.872V7.82401H245.408V5.42401C246.144 5.42401 246.72 5.33601 247.136 5.16001C247.552 4.96801 247.848 4.64001 248.024 4.176C248.2 3.71201 248.288 3.06401 248.288 2.23201H250.976V5.42401H255.08C254.968 5.74401 254.856 6.14401 254.744 6.62401C254.648 7.08801 254.6 7.48801 254.6 7.82401H250.976V12.552C250.976 13.288 251.032 13.792 251.144 14.064C251.256 14.336 251.52 14.472 251.936 14.472C252.208 14.472 252.504 14.376 252.824 14.184C253.16 13.992 253.48 13.76 253.784 13.488C254.104 13.2 254.368 12.928 254.576 12.672V13.416L254.816 15.744C254.624 15.904 254.336 16.08 253.952 16.272C253.568 16.448 253.096 16.592 252.536 16.704C251.992 16.832 251.384 16.896 250.712 16.896ZM262.223 16.896C260.623 16.896 259.367 16.64 258.455 16.128C257.559 15.616 256.927 14.92 256.559 14.04C256.207 13.16 256.031 12.168 256.031 11.064C256.031 9.94401 256.215 8.94401 256.583 8.06401C256.967 7.18401 257.607 6.48801 258.503 5.97601C259.399 5.44801 260.639 5.18401 262.223 5.18401C263.807 5.18401 265.047 5.44801 265.943 5.97601C266.839 6.48801 267.471 7.18401 267.839 8.06401C268.223 8.94401 268.415 9.94401 268.415 11.064C268.415 12.168 268.231 13.16 267.863 14.04C267.511 14.92 266.887 15.616 265.991 16.128C265.095 16.64 263.839 16.896 262.223 16.896ZM262.223 14.472C262.895 14.472 263.431 14.376 263.831 14.184C264.247 13.976 264.543 13.624 264.719 13.128C264.911 12.632 265.007 11.944 265.007 11.064C265.007 10.184 264.911 9.49601 264.719 9.00001C264.543 8.48801 264.247 8.12801 263.831 7.92001C263.431 7.69601 262.895 7.58401 262.223 7.58401C261.551 7.58401 261.007 7.69601 260.591 7.92001C260.191 8.14401 259.895 8.51201 259.703 9.02401C259.527 9.53601 259.439 10.224 259.439 11.088C259.439 11.936 259.527 12.608 259.703 13.104C259.895 13.6 260.191 13.952 260.591 14.16C261.007 14.368 261.551 14.472 262.223 14.472ZM270.195 16.656C270.307 16.656 270.411 16.544 270.507 16.32C270.619 16.096 270.675 15.728 270.675 15.216V7.10401C270.675 6.59201 270.619 6.23201 270.507 6.02401C270.411 5.80001 270.307 5.68001 270.195 5.66401C270.899 5.66401 271.619 5.61601 272.355 5.52001C273.091 5.40801 273.667 5.29601 274.083 5.18401V6.64801L274.035 6.96001L274.083 7.00801C274.131 6.89601 274.283 6.69601 274.539 6.40801C274.795 6.12001 275.163 5.84801 275.643 5.59201C276.123 5.32001 276.715 5.18401 277.419 5.18401C278.907 5.18401 280.043 5.60801 280.827 6.45601C281.627 7.30401 282.027 8.63201 282.027 10.44V15.216C282.027 15.728 282.075 16.096 282.171 16.32C282.283 16.544 282.395 16.656 282.507 16.656H278.139C278.251 16.656 278.355 16.544 278.451 16.32C278.563 16.096 278.619 15.728 278.619 15.216V10.512C278.619 9.76001 278.539 9.17601 278.379 8.76001C278.219 8.32801 277.995 8.02401 277.707 7.84801C277.435 7.67201 277.115 7.58401 276.747 7.58401C276.299 7.58401 275.867 7.69601 275.451 7.92001C275.051 8.12801 274.723 8.46401 274.467 8.92801C274.211 9.37601 274.083 9.97601 274.083 10.728V15.216C274.083 15.728 274.131 16.096 274.227 16.32C274.339 16.544 274.451 16.656 274.563 16.656H270.195Z" fill="black"/>
</svg>
