<svg width="283" height="22" viewBox="0 0 283 22" fill="none" xmlns="http://www.w3.org/2000/svg">
<path d="M7.032 16.8C4.856 16.8 3.136 16.2 1.872 15C0.623999 13.784 -9.23872e-07 11.92 -9.23872e-07 9.408C-9.23872e-07 7.936 0.279999 6.64 0.839999 5.52C1.4 4.384 2.288 3.504 3.504 2.88C4.72 2.24 6.296 1.92 8.232 1.92C9.752 1.92 11.008 2 12 2.16C13.008 2.32 13.696 2.48 14.064 2.64V3.36L14.544 6C14.112 5.68 13.352 5.36 12.264 5.04C11.176 4.72 9.848 4.56 8.28 4.56C7.208 4.56 6.328 4.744 5.64 5.112C4.952 5.464 4.448 6 4.128 6.72C3.808 7.44 3.648 8.336 3.648 9.408C3.648 10.56 3.792 11.488 4.08 12.192C4.368 12.88 4.832 13.376 5.472 13.68C6.112 13.984 6.96 14.136 8.016 14.136C8.816 14.136 9.464 14.056 9.96 13.896C10.456 13.72 10.824 13.488 11.064 13.2C11.304 12.896 11.424 12.56 11.424 12.192V11.808C11.424 11.44 11.392 11.232 11.328 11.184C11.28 11.12 11.072 11.088 10.704 11.088H9.936C9.392 11.088 8.928 11.144 8.544 11.256C8.16 11.368 7.888 11.48 7.728 11.592L7.968 9.216V8.496H15.528C15.416 8.512 15.304 8.632 15.192 8.856C15.096 9.064 15.048 9.424 15.048 9.936V15.12C15.048 15.632 15.096 16 15.192 16.224C15.304 16.448 15.416 16.56 15.528 16.56H11.424V16.248L11.472 15.576L11.424 15.528C11.312 15.688 11.088 15.872 10.752 16.08C10.416 16.272 9.944 16.44 9.336 16.584C8.744 16.728 7.976 16.8 7.032 16.8ZM22.4233 16.8C20.9833 16.8 19.8313 16.52 18.9673 15.96C18.1193 15.384 17.6953 14.464 17.6953 13.2C17.6953 12.32 17.9193 11.608 18.3673 11.064C18.8153 10.52 19.4233 10.12 20.1913 9.864C20.9753 9.592 21.8633 9.456 22.8553 9.456C23.5913 9.456 24.2153 9.52 24.7273 9.648C25.2553 9.776 25.6793 9.912 25.9993 10.056C26.3193 10.2 26.5273 10.304 26.6233 10.368C26.6233 9.696 26.5513 9.152 26.4073 8.736C26.2633 8.304 25.9993 7.992 25.6153 7.8C25.2473 7.592 24.7273 7.488 24.0553 7.488C23.0793 7.488 22.2153 7.584 21.4633 7.776C20.7113 7.968 20.0953 8.192 19.6153 8.448C19.1513 8.704 18.8313 8.92 18.6553 9.096V8.376L18.4153 6.024C18.5273 5.96 18.8233 5.856 19.3033 5.712C19.7833 5.568 20.4393 5.432 21.2713 5.304C22.1033 5.16 23.0953 5.088 24.2473 5.088C25.8313 5.088 27.0393 5.32 27.8713 5.784C28.7033 6.232 29.2713 6.88 29.5753 7.728C29.8953 8.576 30.0553 9.6 30.0553 10.8V15.12C30.0553 15.568 30.1033 15.896 30.1993 16.104C30.3113 16.296 30.4233 16.448 30.5353 16.56H26.6473V16.056L26.6953 15.6L26.6473 15.552C26.5193 15.696 26.3353 15.84 26.0953 15.984C25.8553 16.128 25.5593 16.264 25.2073 16.392C24.8553 16.504 24.4473 16.6 23.9833 16.68C23.5193 16.76 22.9993 16.8 22.4233 16.8ZM23.5513 14.376C24.2233 14.376 24.7833 14.328 25.2313 14.232C25.6953 14.12 26.0473 13.976 26.2873 13.8C26.5273 13.608 26.6473 13.384 26.6473 13.128C26.6473 12.76 26.3673 12.456 25.8073 12.216C25.2633 11.976 24.5193 11.856 23.5753 11.856C22.6633 11.856 22.0153 11.984 21.6313 12.24C21.2633 12.496 21.0793 12.816 21.0793 13.2C21.0793 13.68 21.2953 14 21.7273 14.16C22.1593 14.304 22.7673 14.376 23.5513 14.376ZM32.5101 16.56C32.6221 16.56 32.7261 16.448 32.8221 16.224C32.9341 16 32.9901 15.632 32.9901 15.12V7.008C32.9901 6.496 32.9341 6.136 32.8221 5.928C32.7261 5.704 32.6221 5.584 32.5101 5.568C33.2141 5.568 33.9341 5.52 34.6701 5.424C35.4061 5.312 35.9821 5.2 36.3981 5.088V6.552L36.3501 6.864L36.3981 6.912C36.4461 6.8 36.5981 6.6 36.8541 6.312C37.1101 6.024 37.4781 5.752 37.9581 5.496C38.4381 5.224 39.0301 5.088 39.7341 5.088C41.2221 5.088 42.3581 5.512 43.1421 6.36C43.9421 7.208 44.3421 8.536 44.3421 10.344V15.12C44.3421 15.632 44.3901 16 44.4861 16.224C44.5981 16.448 44.7101 16.56 44.8221 16.56H40.4541C40.5661 16.56 40.6701 16.448 40.7661 16.224C40.8781 16 40.9341 15.632 40.9341 15.12V10.416C40.9341 9.664 40.8541 9.08 40.6941 8.664C40.5341 8.232 40.3101 7.928 40.0221 7.752C39.7501 7.576 39.4301 7.488 39.0621 7.488C38.6141 7.488 38.1821 7.6 37.7661 7.824C37.3661 8.032 37.0381 8.368 36.7821 8.832C36.5261 9.28 36.3981 9.88 36.3981 10.632V15.12C36.3981 15.632 36.4461 16 36.5421 16.224C36.6541 16.448 36.7661 16.56 36.8781 16.56H32.5101ZM48.3741 16.56C48.4861 16.544 48.5901 16.424 48.6861 16.2C48.7981 15.976 48.8541 15.616 48.8541 15.12V10.632C48.8541 9.992 48.7901 9.44 48.6621 8.976C48.5501 8.496 48.3581 8.128 48.0861 7.872C47.8141 7.616 47.4461 7.488 46.9821 7.488C46.1981 7.488 45.5581 7.768 45.0621 8.328C44.5821 8.888 44.3421 9.736 44.3421 10.872H42.5901C42.5901 10.104 42.7101 9.376 42.9501 8.688C43.1901 7.984 43.5341 7.368 43.9821 6.84C44.4301 6.296 44.9661 5.872 45.5901 5.568C46.2141 5.248 46.9021 5.088 47.6541 5.088C48.6141 5.088 49.4381 5.264 50.1261 5.616C50.8141 5.952 51.3421 6.52 51.7101 7.32C52.0781 8.12 52.2621 9.208 52.2621 10.584V15.12C52.2621 15.616 52.3101 15.976 52.4061 16.2C52.5181 16.424 52.6301 16.544 52.7421 16.56H48.3741ZM60.8974 16.8C59.6334 16.8 58.5774 16.672 57.7294 16.416C56.8974 16.144 56.2334 15.76 55.7374 15.264C55.2414 14.752 54.8894 14.136 54.6814 13.416C54.4734 12.696 54.3694 11.88 54.3694 10.968C54.3694 9.16 54.8734 7.728 55.8814 6.672C56.8894 5.616 58.4334 5.088 60.5134 5.088C61.7294 5.088 62.7134 5.256 63.4654 5.592C64.2334 5.928 64.8174 6.376 65.2174 6.936C65.6174 7.496 65.8894 8.12 66.0334 8.808C66.1934 9.48 66.2734 10.16 66.2734 10.848V11.976C66.2734 11.928 66.0494 11.88 65.6014 11.832C65.1694 11.768 64.4334 11.736 63.3934 11.736H57.8254C57.8254 12.616 58.0894 13.28 58.6174 13.728C59.1614 14.16 60.0414 14.376 61.2574 14.376C62.2814 14.376 63.1934 14.256 63.9934 14.016C64.8094 13.76 65.4014 13.52 65.7694 13.296V14.016L66.0094 15.84C65.7054 16.048 65.1214 16.264 64.2574 16.488C63.3934 16.696 62.2734 16.8 60.8974 16.8ZM58.7134 9.672H62.8654C62.8654 9.32 62.7854 8.976 62.6254 8.64C62.4814 8.304 62.2414 8.032 61.9054 7.824C61.5694 7.6 61.1054 7.488 60.5134 7.488C59.9214 7.488 59.4414 7.576 59.0734 7.752C58.7214 7.928 58.4574 8.144 58.2814 8.4C58.1214 8.656 58.0414 8.92 58.0414 9.192C58.0414 9.352 58.0894 9.472 58.1854 9.552C58.2814 9.632 58.4574 9.672 58.7134 9.672ZM78.7927 16.8C77.6887 16.8 76.8887 16.568 76.3927 16.104C75.8967 15.624 75.6487 14.848 75.6487 13.776V7.728H73.4887V5.328C74.2247 5.328 74.8007 5.24 75.2167 5.064C75.6327 4.872 75.9287 4.544 76.1047 4.08C76.2807 3.616 76.3687 2.968 76.3687 2.136H79.0567V5.328H83.1607C83.0487 5.648 82.9367 6.048 82.8247 6.528C82.7287 6.992 82.6807 7.392 82.6807 7.728H79.0567V12.456C79.0567 13.192 79.1127 13.696 79.2247 13.968C79.3367 14.24 79.6007 14.376 80.0167 14.376C80.2887 14.376 80.5847 14.28 80.9047 14.088C81.2407 13.896 81.5607 13.664 81.8647 13.392C82.1847 13.104 82.4487 12.832 82.6567 12.576V13.32L82.8967 15.648C82.7047 15.808 82.4167 15.984 82.0327 16.176C81.6487 16.352 81.1767 16.496 80.6167 16.608C80.0727 16.736 79.4647 16.8 78.7927 16.8ZM84.4476 16.56C84.5596 16.56 84.6636 16.448 84.7596 16.224C84.8716 16 84.9276 15.632 84.9276 15.12V1.44C84.9276 0.927996 84.8716 0.567997 84.7596 0.359997C84.6636 0.135997 84.5596 0.0159969 84.4476 -3.8147e-06H88.3356V6.552L88.2876 6.864L88.3356 6.912C88.3836 6.8 88.5356 6.6 88.7916 6.312C89.0476 6.024 89.4156 5.752 89.8956 5.496C90.3756 5.224 90.9676 5.088 91.6716 5.088C93.1596 5.088 94.2956 5.512 95.0796 6.36C95.8796 7.208 96.2796 8.536 96.2796 10.344V15.12C96.2796 15.632 96.3276 16 96.4236 16.224C96.5356 16.448 96.6476 16.56 96.7596 16.56H92.3916C92.5036 16.56 92.6076 16.448 92.7036 16.224C92.8156 16 92.8716 15.632 92.8716 15.12V10.416C92.8716 9.664 92.7916 9.08 92.6316 8.664C92.4716 8.232 92.2476 7.928 91.9596 7.752C91.6876 7.576 91.3676 7.488 90.9996 7.488C90.5516 7.488 90.1196 7.6 89.7036 7.824C89.3036 8.032 88.9756 8.368 88.7196 8.832C88.4636 9.28 88.3356 9.88 88.3356 10.632V15.12C88.3356 15.632 88.3836 16 88.4796 16.224C88.5916 16.448 88.7036 16.56 88.8156 16.56H84.4476ZM104.913 16.8C103.649 16.8 102.593 16.672 101.745 16.416C100.913 16.144 100.249 15.76 99.753 15.264C99.257 14.752 98.905 14.136 98.697 13.416C98.489 12.696 98.385 11.88 98.385 10.968C98.385 9.16 98.889 7.728 99.897 6.672C100.905 5.616 102.449 5.088 104.529 5.088C105.745 5.088 106.729 5.256 107.481 5.592C108.249 5.928 108.833 6.376 109.233 6.936C109.633 7.496 109.905 8.12 110.049 8.808C110.209 9.48 110.289 10.16 110.289 10.848V11.976C110.289 11.928 110.065 11.88 109.617 11.832C109.185 11.768 108.449 11.736 107.409 11.736H101.841C101.841 12.616 102.105 13.28 102.633 13.728C103.177 14.16 104.057 14.376 105.273 14.376C106.297 14.376 107.209 14.256 108.009 14.016C108.825 13.76 109.417 13.52 109.785 13.296V14.016L110.025 15.84C109.721 16.048 109.137 16.264 108.273 16.488C107.409 16.696 106.289 16.8 104.913 16.8ZM102.729 9.672H106.881C106.881 9.32 106.801 8.976 106.641 8.64C106.497 8.304 106.257 8.032 105.921 7.824C105.585 7.6 105.121 7.488 104.529 7.488C103.937 7.488 103.457 7.576 103.089 7.752C102.737 7.928 102.473 8.144 102.297 8.4C102.137 8.656 102.057 8.92 102.057 9.192C102.057 9.352 102.105 9.472 102.201 9.552C102.297 9.632 102.473 9.672 102.729 9.672ZM112.315 16.56C112.427 16.56 112.531 16.448 112.627 16.224C112.739 16 112.795 15.632 112.795 15.12V7.008C112.795 6.496 112.739 6.136 112.627 5.928C112.531 5.704 112.427 5.584 112.315 5.568C113.019 5.568 113.739 5.52 114.475 5.424C115.211 5.312 115.787 5.2 116.203 5.088V6.552L116.155 6.864L116.203 6.912C116.251 6.8 116.403 6.6 116.659 6.312C116.915 6.024 117.283 5.752 117.763 5.496C118.243 5.224 118.835 5.088 119.539 5.088C121.027 5.088 122.163 5.512 122.947 6.36C123.747 7.208 124.147 8.536 124.147 10.344V15.12C124.147 15.632 124.195 16 124.291 16.224C124.403 16.448 124.515 16.56 124.627 16.56H120.259C120.371 16.56 120.475 16.448 120.571 16.224C120.683 16 120.739 15.632 120.739 15.12V10.416C120.739 9.664 120.659 9.08 120.499 8.664C120.339 8.232 120.115 7.928 119.827 7.752C119.555 7.576 119.235 7.488 118.867 7.488C118.419 7.488 117.987 7.6 117.571 7.824C117.171 8.032 116.843 8.368 116.587 8.832C116.331 9.28 116.203 9.88 116.203 10.632V15.12C116.203 15.632 116.251 16 116.347 16.224C116.459 16.448 116.571 16.56 116.683 16.56H112.315ZM128.179 16.56C128.291 16.544 128.395 16.424 128.491 16.2C128.603 15.976 128.659 15.616 128.659 15.12V10.632C128.659 9.992 128.595 9.44 128.467 8.976C128.355 8.496 128.163 8.128 127.891 7.872C127.619 7.616 127.251 7.488 126.787 7.488C126.003 7.488 125.363 7.768 124.867 8.328C124.387 8.888 124.147 9.736 124.147 10.872H122.395C122.395 10.104 122.515 9.376 122.755 8.688C122.995 7.984 123.339 7.368 123.787 6.84C124.235 6.296 124.771 5.872 125.395 5.568C126.019 5.248 126.707 5.088 127.459 5.088C128.419 5.088 129.243 5.264 129.931 5.616C130.619 5.952 131.147 6.52 131.515 7.32C131.883 8.12 132.067 9.208 132.067 10.584V15.12C132.067 15.616 132.115 15.976 132.211 16.2C132.323 16.424 132.435 16.544 132.547 16.56H128.179ZM140.702 16.8C139.438 16.8 138.382 16.672 137.534 16.416C136.702 16.144 136.038 15.76 135.542 15.264C135.046 14.752 134.694 14.136 134.486 13.416C134.278 12.696 134.174 11.88 134.174 10.968C134.174 9.16 134.678 7.728 135.686 6.672C136.694 5.616 138.238 5.088 140.318 5.088C141.534 5.088 142.518 5.256 143.27 5.592C144.038 5.928 144.622 6.376 145.022 6.936C145.422 7.496 145.694 8.12 145.838 8.808C145.998 9.48 146.078 10.16 146.078 10.848V11.976C146.078 11.928 145.854 11.88 145.406 11.832C144.974 11.768 144.238 11.736 143.198 11.736H137.63C137.63 12.616 137.894 13.28 138.422 13.728C138.966 14.16 139.846 14.376 141.062 14.376C142.086 14.376 142.998 14.256 143.798 14.016C144.614 13.76 145.206 13.52 145.574 13.296V14.016L145.814 15.84C145.51 16.048 144.926 16.264 144.062 16.488C143.198 16.696 142.078 16.8 140.702 16.8ZM138.518 9.672H142.67C142.67 9.32 142.59 8.976 142.43 8.64C142.286 8.304 142.046 8.032 141.71 7.824C141.374 7.6 140.91 7.488 140.318 7.488C139.726 7.488 139.246 7.576 138.878 7.752C138.526 7.928 138.262 8.144 138.086 8.4C137.926 8.656 137.846 8.92 137.846 9.192C137.846 9.352 137.894 9.472 137.99 9.552C138.086 9.632 138.262 9.672 138.518 9.672ZM160.037 16.8C158.373 16.8 157.061 16.544 156.101 16.032C155.157 15.52 154.493 14.824 154.109 13.944C153.725 13.064 153.533 12.072 153.533 10.968C153.533 9.016 154.061 7.552 155.117 6.576C156.189 5.6 157.749 5.112 159.797 5.112C160.869 5.112 161.845 5.192 162.725 5.352C163.621 5.512 164.277 5.664 164.693 5.808V6.528L165.173 9.096C164.821 8.76 164.181 8.416 163.253 8.064C162.341 7.696 161.245 7.512 159.965 7.512C159.277 7.512 158.701 7.64 158.237 7.896C157.789 8.136 157.453 8.512 157.229 9.024C157.021 9.536 156.917 10.192 156.917 10.992C156.917 11.776 157.037 12.416 157.277 12.912C157.517 13.408 157.909 13.768 158.453 13.992C158.997 14.216 159.717 14.328 160.613 14.328C161.749 14.328 162.685 14.184 163.421 13.896C164.173 13.592 164.677 13.296 164.933 13.008V13.728L165.173 15.648C164.869 15.904 164.269 16.16 163.373 16.416C162.493 16.672 161.381 16.8 160.037 16.8ZM173.038 16.8C171.438 16.8 170.182 16.544 169.27 16.032C168.374 15.52 167.742 14.824 167.374 13.944C167.022 13.064 166.846 12.072 166.846 10.968C166.846 9.848 167.03 8.848 167.398 7.968C167.782 7.088 168.422 6.392 169.318 5.88C170.214 5.352 171.454 5.088 173.038 5.088C174.622 5.088 175.862 5.352 176.758 5.88C177.654 6.392 178.286 7.088 178.654 7.968C179.038 8.848 179.23 9.848 179.23 10.968C179.23 12.072 179.046 13.064 178.678 13.944C178.326 14.824 177.702 15.52 176.806 16.032C175.91 16.544 174.654 16.8 173.038 16.8ZM173.038 14.376C173.71 14.376 174.246 14.28 174.646 14.088C175.062 13.88 175.358 13.528 175.534 13.032C175.726 12.536 175.822 11.848 175.822 10.968C175.822 10.088 175.726 9.4 175.534 8.904C175.358 8.392 175.062 8.032 174.646 7.824C174.246 7.6 173.71 7.488 173.038 7.488C172.366 7.488 171.822 7.6 171.406 7.824C171.006 8.048 170.71 8.416 170.518 8.928C170.342 9.44 170.254 10.128 170.254 10.992C170.254 11.84 170.342 12.512 170.518 13.008C170.71 13.504 171.006 13.856 171.406 14.064C171.822 14.272 172.366 14.376 173.038 14.376ZM181.01 16.56C181.122 16.56 181.226 16.448 181.322 16.224C181.434 16 181.49 15.632 181.49 15.12V7.008C181.49 6.496 181.434 6.136 181.322 5.928C181.226 5.704 181.122 5.584 181.01 5.568C181.714 5.568 182.434 5.52 183.17 5.424C183.906 5.312 184.482 5.2 184.898 5.088V6.552L184.85 6.864L184.898 6.912C184.946 6.8 185.098 6.6 185.354 6.312C185.61 6.024 185.978 5.752 186.458 5.496C186.938 5.224 187.53 5.088 188.234 5.088C189.722 5.088 190.858 5.512 191.642 6.36C192.442 7.208 192.842 8.536 192.842 10.344V15.12C192.842 15.632 192.89 16 192.986 16.224C193.098 16.448 193.21 16.56 193.322 16.56H188.954C189.066 16.56 189.17 16.448 189.266 16.224C189.378 16 189.434 15.632 189.434 15.12V10.416C189.434 9.664 189.354 9.08 189.194 8.664C189.034 8.232 188.81 7.928 188.522 7.752C188.25 7.576 187.93 7.488 187.562 7.488C187.114 7.488 186.682 7.6 186.266 7.824C185.866 8.032 185.538 8.368 185.282 8.832C185.026 9.28 184.898 9.88 184.898 10.632V15.12C184.898 15.632 184.946 16 185.042 16.224C185.154 16.448 185.266 16.56 185.378 16.56H181.01ZM196.874 16.56C196.986 16.544 197.09 16.424 197.186 16.2C197.298 15.976 197.354 15.616 197.354 15.12V10.632C197.354 9.992 197.29 9.44 197.162 8.976C197.05 8.496 196.858 8.128 196.586 7.872C196.314 7.616 195.946 7.488 195.482 7.488C194.698 7.488 194.058 7.768 193.562 8.328C193.082 8.888 192.842 9.736 192.842 10.872H191.09C191.09 10.104 191.21 9.376 191.45 8.688C191.69 7.984 192.034 7.368 192.482 6.84C192.93 6.296 193.466 5.872 194.09 5.568C194.714 5.248 195.402 5.088 196.154 5.088C197.114 5.088 197.938 5.264 198.626 5.616C199.314 5.952 199.842 6.52 200.21 7.32C200.578 8.12 200.762 9.208 200.762 10.584V15.12C200.762 15.616 200.81 15.976 200.906 16.2C201.018 16.424 201.13 16.544 201.242 16.56H196.874ZM203.205 21.888C203.317 21.888 203.421 21.776 203.517 21.552C203.629 21.328 203.685 20.96 203.685 20.448V6.768C203.685 6.256 203.629 5.896 203.517 5.688C203.421 5.464 203.317 5.344 203.205 5.328H207.093V5.52L207.045 5.976L207.093 6C207.253 5.856 207.485 5.72 207.789 5.592C208.109 5.448 208.469 5.328 208.869 5.232C209.285 5.136 209.701 5.088 210.117 5.088C211.605 5.088 212.757 5.352 213.573 5.88C214.405 6.392 214.989 7.088 215.325 7.968C215.661 8.848 215.829 9.848 215.829 10.968C215.829 12.072 215.661 13.064 215.325 13.944C215.005 14.824 214.429 15.52 213.597 16.032C212.781 16.544 211.621 16.8 210.117 16.8C209.493 16.8 208.909 16.72 208.365 16.56C207.837 16.416 207.413 16.2 207.093 15.912L207.045 15.936L207.093 16.416V20.448C207.093 20.96 207.141 21.328 207.237 21.552C207.349 21.776 207.461 21.888 207.573 21.888H203.205ZM209.637 14.376C210.309 14.376 210.845 14.28 211.245 14.088C211.661 13.88 211.957 13.528 212.133 13.032C212.325 12.536 212.421 11.848 212.421 10.968C212.421 10.088 212.325 9.4 212.133 8.904C211.957 8.392 211.661 8.032 211.245 7.824C210.845 7.6 210.309 7.488 209.637 7.488C209.109 7.488 208.653 7.616 208.269 7.872C207.885 8.112 207.589 8.488 207.381 9C207.189 9.512 207.093 10.176 207.093 10.992C207.093 11.824 207.197 12.488 207.405 12.984C207.613 13.48 207.901 13.84 208.269 14.064C208.653 14.272 209.109 14.376 209.637 14.376ZM223.452 16.8C221.852 16.8 220.596 16.544 219.684 16.032C218.788 15.52 218.156 14.824 217.788 13.944C217.436 13.064 217.26 12.072 217.26 10.968C217.26 9.848 217.444 8.848 217.812 7.968C218.196 7.088 218.836 6.392 219.732 5.88C220.628 5.352 221.868 5.088 223.452 5.088C225.036 5.088 226.276 5.352 227.172 5.88C228.068 6.392 228.7 7.088 229.068 7.968C229.452 8.848 229.644 9.848 229.644 10.968C229.644 12.072 229.46 13.064 229.092 13.944C228.74 14.824 228.116 15.52 227.22 16.032C226.324 16.544 225.068 16.8 223.452 16.8ZM223.452 14.376C224.124 14.376 224.66 14.28 225.06 14.088C225.476 13.88 225.772 13.528 225.948 13.032C226.14 12.536 226.236 11.848 226.236 10.968C226.236 10.088 226.14 9.4 225.948 8.904C225.772 8.392 225.476 8.032 225.06 7.824C224.66 7.6 224.124 7.488 223.452 7.488C222.78 7.488 222.236 7.6 221.82 7.824C221.42 8.048 221.124 8.416 220.932 8.928C220.756 9.44 220.668 10.128 220.668 10.992C220.668 11.84 220.756 12.512 220.932 13.008C221.124 13.504 221.42 13.856 221.82 14.064C222.236 14.272 222.78 14.376 223.452 14.376ZM231.424 16.56C231.536 16.56 231.64 16.448 231.736 16.224C231.848 16 231.904 15.632 231.904 15.12V7.008C231.904 6.496 231.848 6.136 231.736 5.928C231.64 5.704 231.536 5.584 231.424 5.568C232.128 5.568 232.848 5.52 233.584 5.424C234.32 5.312 234.896 5.2 235.312 5.088V6.552L235.264 6.864L235.312 6.912C235.36 6.8 235.512 6.6 235.768 6.312C236.024 6.024 236.392 5.752 236.872 5.496C237.352 5.224 237.944 5.088 238.648 5.088C240.136 5.088 241.272 5.512 242.056 6.36C242.856 7.208 243.256 8.536 243.256 10.344V15.12C243.256 15.632 243.304 16 243.4 16.224C243.512 16.448 243.624 16.56 243.736 16.56H239.368C239.48 16.56 239.584 16.448 239.68 16.224C239.792 16 239.848 15.632 239.848 15.12V10.416C239.848 9.664 239.768 9.08 239.608 8.664C239.448 8.232 239.224 7.928 238.936 7.752C238.664 7.576 238.344 7.488 237.976 7.488C237.528 7.488 237.096 7.6 236.68 7.824C236.28 8.032 235.952 8.368 235.696 8.832C235.44 9.28 235.312 9.88 235.312 10.632V15.12C235.312 15.632 235.36 16 235.456 16.224C235.568 16.448 235.68 16.56 235.792 16.56H231.424ZM251.89 16.8C250.626 16.8 249.57 16.672 248.722 16.416C247.89 16.144 247.226 15.76 246.73 15.264C246.234 14.752 245.882 14.136 245.674 13.416C245.466 12.696 245.362 11.88 245.362 10.968C245.362 9.16 245.866 7.728 246.874 6.672C247.882 5.616 249.426 5.088 251.506 5.088C252.722 5.088 253.706 5.256 254.458 5.592C255.226 5.928 255.81 6.376 256.21 6.936C256.61 7.496 256.882 8.12 257.026 8.808C257.186 9.48 257.266 10.16 257.266 10.848V11.976C257.266 11.928 257.042 11.88 256.594 11.832C256.162 11.768 255.426 11.736 254.386 11.736H248.818C248.818 12.616 249.082 13.28 249.61 13.728C250.154 14.16 251.034 14.376 252.25 14.376C253.274 14.376 254.186 14.256 254.986 14.016C255.802 13.76 256.394 13.52 256.762 13.296V14.016L257.002 15.84C256.698 16.048 256.114 16.264 255.25 16.488C254.386 16.696 253.266 16.8 251.89 16.8ZM249.706 9.672H253.858C253.858 9.32 253.778 8.976 253.618 8.64C253.474 8.304 253.234 8.032 252.898 7.824C252.562 7.6 252.098 7.488 251.506 7.488C250.914 7.488 250.434 7.576 250.066 7.752C249.714 7.928 249.45 8.144 249.274 8.4C249.114 8.656 249.034 8.92 249.034 9.192C249.034 9.352 249.082 9.472 249.178 9.552C249.274 9.632 249.45 9.672 249.706 9.672ZM259.291 16.56C259.403 16.56 259.507 16.448 259.603 16.224C259.715 16 259.771 15.632 259.771 15.12V7.008C259.771 6.496 259.715 6.136 259.603 5.928C259.507 5.704 259.403 5.584 259.291 5.568C259.995 5.568 260.715 5.52 261.451 5.424C262.187 5.312 262.763 5.2 263.179 5.088V6.552L263.131 6.864L263.179 6.912C263.227 6.8 263.379 6.6 263.635 6.312C263.891 6.024 264.259 5.752 264.739 5.496C265.219 5.224 265.811 5.088 266.515 5.088C268.003 5.088 269.139 5.512 269.923 6.36C270.723 7.208 271.123 8.536 271.123 10.344V15.12C271.123 15.632 271.171 16 271.267 16.224C271.379 16.448 271.491 16.56 271.603 16.56H267.235C267.347 16.56 267.451 16.448 267.547 16.224C267.659 16 267.715 15.632 267.715 15.12V10.416C267.715 9.664 267.635 9.08 267.475 8.664C267.315 8.232 267.091 7.928 266.803 7.752C266.531 7.576 266.211 7.488 265.843 7.488C265.395 7.488 264.963 7.6 264.547 7.824C264.147 8.032 263.819 8.368 263.563 8.832C263.307 9.28 263.179 9.88 263.179 10.632V15.12C263.179 15.632 263.227 16 263.323 16.224C263.435 16.448 263.547 16.56 263.659 16.56H259.291ZM278.293 16.8C277.189 16.8 276.389 16.568 275.893 16.104C275.397 15.624 275.149 14.848 275.149 13.776V7.728H272.989V5.328C273.725 5.328 274.301 5.24 274.717 5.064C275.133 4.872 275.429 4.544 275.605 4.08C275.781 3.616 275.869 2.968 275.869 2.136H278.557V5.328H282.661C282.549 5.648 282.437 6.048 282.325 6.528C282.229 6.992 282.181 7.392 282.181 7.728H278.557V12.456C278.557 13.192 278.613 13.696 278.725 13.968C278.837 14.24 279.101 14.376 279.517 14.376C279.789 14.376 280.085 14.28 280.405 14.088C280.741 13.896 281.061 13.664 281.365 13.392C281.685 13.104 281.949 12.832 282.157 12.576V13.32L282.397 15.648C282.205 15.808 281.917 15.984 281.533 16.176C281.149 16.352 280.677 16.496 280.117 16.608C279.573 16.736 278.965 16.8 278.293 16.8Z" fill="black"/>
</svg>
