<svg width="310" height="260" viewBox="0 0 310 260" fill="none" xmlns="http://www.w3.org/2000/svg">
<rect x="0.5" y="0.5" width="308.229" height="258.942" rx="4.5" fill="#303131"/>
<rect x="0.5" y="0.5" width="308.229" height="258.942" rx="4.5" stroke="#8A38F5" stroke-dasharray="10 5"/>
<rect width="250" height="98" transform="translate(29.6144 20)" fill="#F0EA6E"/>
<path d="M60.9896 85C58.9827 85 57.2686 84.2833 55.8471 82.85C54.4255 81.4167 53.6813 79.6833 53.6144 77.65C53.6144 77.35 53.6312 77.05 53.6646 76.75C53.6981 76.45 53.7482 76.15 53.8151 75.85L58.0295 59.05C58.4978 57.25 59.451 55.7917 60.8892 54.675C62.3275 53.5583 63.9664 53 65.806 53H85.3727C87.2123 53 88.8512 53.5583 90.2895 54.675C91.7277 55.7917 92.681 57.25 93.1492 59.05L97.3636 75.85C97.4305 76.15 97.489 76.4583 97.5392 76.775C97.5894 77.0917 97.6144 77.4 97.6144 77.7C97.6144 79.7333 96.887 81.4583 95.432 82.875C93.977 84.2917 92.2294 85 90.1891 85C88.7843 85 87.4799 84.6333 86.2758 83.9C85.0717 83.1667 84.1686 82.1667 83.5666 80.9L82.1618 78C81.9945 77.6667 81.7437 77.4167 81.4092 77.25C81.0747 77.0833 80.7235 77 80.3556 77H70.8231C70.4552 77 70.104 77.0833 69.7695 77.25C69.435 77.4167 69.1842 77.6667 69.017 78L67.6122 80.9C67.0101 82.1667 66.107 83.1667 64.9029 83.9C63.6988 84.6333 62.3944 85 60.9896 85ZM61.1401 81C61.7756 81 62.3526 80.8333 62.871 80.5C63.3894 80.1667 63.7824 79.7167 64.05 79.15L65.4548 76.3C65.9565 75.2667 66.6924 74.4583 67.6623 73.875C68.6323 73.2917 69.6859 73 70.8231 73H80.3556C81.4928 73 82.5464 73.3 83.5164 73.9C84.4864 74.5 85.2389 75.3 85.7741 76.3L87.1789 79.15C87.4464 79.7167 87.8395 80.1667 88.3579 80.5C88.8763 80.8333 89.4533 81 90.0888 81C91.0253 81 91.8281 80.6917 92.497 80.075C93.1659 79.4583 93.5171 78.6833 93.5506 77.75C93.5506 77.7833 93.5171 77.4667 93.4502 76.8L89.2359 60.05C89.0018 59.15 88.5335 58.4167 87.8311 57.85C87.1287 57.2833 86.3092 57 85.3727 57H65.806C64.8695 57 64.0417 57.2833 63.3225 57.85C62.6034 58.4167 62.1435 59.15 61.9428 60.05L57.7285 76.8C57.6616 77 57.6281 77.3 57.6281 77.7C57.6281 78.6333 57.971 79.4167 58.6566 80.05C59.3423 80.6833 60.1701 81 61.1401 81ZM78.5996 67C79.1682 67 79.6448 66.8083 80.0295 66.425C80.4141 66.0417 80.6065 65.5667 80.6065 65C80.6065 64.4333 80.4141 63.9583 80.0295 63.575C79.6448 63.1917 79.1682 63 78.5996 63C78.031 63 77.5544 63.1917 77.1697 63.575C76.7851 63.9583 76.5928 64.4333 76.5928 65C76.5928 65.5667 76.7851 66.0417 77.1697 66.425C77.5544 66.8083 78.031 67 78.5996 67ZM82.6133 63C83.1819 63 83.6585 62.8083 84.0432 62.425C84.4278 62.0417 84.6201 61.5667 84.6201 61C84.6201 60.4333 84.4278 59.9583 84.0432 59.575C83.6585 59.1917 83.1819 59 82.6133 59C82.0447 59 81.5681 59.1917 81.1834 59.575C80.7988 59.9583 80.6065 60.4333 80.6065 61C80.6065 61.5667 80.7988 62.0417 81.1834 62.425C81.5681 62.8083 82.0447 63 82.6133 63ZM82.6133 71C83.1819 71 83.6585 70.8083 84.0432 70.425C84.4278 70.0417 84.6201 69.5667 84.6201 69C84.6201 68.4333 84.4278 67.9583 84.0432 67.575C83.6585 67.1917 83.1819 67 82.6133 67C82.0447 67 81.5681 67.1917 81.1834 67.575C80.7988 67.9583 80.6065 68.4333 80.6065 69C80.6065 69.5667 80.7988 70.0417 81.1834 70.425C81.5681 70.8083 82.0447 71 82.6133 71ZM86.627 67C87.1956 67 87.6722 66.8083 88.0569 66.425C88.4415 66.0417 88.6338 65.5667 88.6338 65C88.6338 64.4333 88.4415 63.9583 88.0569 63.575C87.6722 63.1917 87.1956 63 86.627 63C86.0584 63 85.5818 63.1917 85.1971 63.575C84.8125 63.9583 84.6201 64.4333 84.6201 65C84.6201 65.5667 84.8125 66.0417 85.1971 66.425C85.5818 66.8083 86.0584 67 86.627 67ZM68.5654 70C69.0002 70 69.3598 69.8583 69.6441 69.575C69.9284 69.2917 70.0705 68.9333 70.0705 68.5V66.5H72.0774C72.5122 66.5 72.8718 66.3583 73.1561 66.075C73.4404 65.7917 73.5825 65.4333 73.5825 65C73.5825 64.5667 73.4404 64.2083 73.1561 63.925C72.8718 63.6417 72.5122 63.5 72.0774 63.5H70.0705V61.5C70.0705 61.0667 69.9284 60.7083 69.6441 60.425C69.3598 60.1417 69.0002 60 68.5654 60C68.1306 60 67.771 60.1417 67.4867 60.425C67.2024 60.7083 67.0603 61.0667 67.0603 61.5V63.5H65.0534C64.6186 63.5 64.2591 63.6417 63.9748 63.925C63.6905 64.2083 63.5483 64.5667 63.5483 65C63.5483 65.4333 63.6905 65.7917 63.9748 66.075C64.2591 66.3583 64.6186 66.5 65.0534 66.5H67.0603V68.5C67.0603 68.9333 67.2024 69.2917 67.4867 69.575C67.771 69.8583 68.1306 70 68.5654 70Z" fill="#303131"/>
<path d="M119.654 82C119.841 82 120.014 81.8133 120.174 81.44C120.361 81.0667 120.454 80.4533 120.454 79.6V60.4C120.454 59.5467 120.361 58.9467 120.174 58.6C119.988 58.2267 119.801 58.0267 119.614 58H132.734C135.001 58 136.828 58.3333 138.214 59C139.628 59.64 140.668 60.5733 141.334 61.8C142.001 63 142.334 64.44 142.334 66.12C142.334 67.8267 142.001 69.3067 141.334 70.56C140.668 71.7867 139.628 72.7333 138.214 73.4C136.828 74.04 135.001 74.36 132.734 74.36H126.614V79.6C126.614 80.4533 126.708 81.0667 126.894 81.44C127.081 81.8133 127.268 82 127.454 82H119.654ZM128.254 69.96H130.254C131.828 69.96 133.041 69.8267 133.894 69.56C134.774 69.2933 135.388 68.88 135.734 68.32C136.081 67.76 136.254 67.0267 136.254 66.12C136.254 65.24 136.068 64.5333 135.694 64C135.348 63.4667 134.761 63.0933 133.934 62.88C133.134 62.64 132.041 62.52 130.654 62.52H128.254C127.428 62.52 126.948 62.5733 126.814 62.68C126.681 62.76 126.614 63.0667 126.614 63.6V68.84C126.614 69.3733 126.681 69.6933 126.814 69.8C126.948 69.9067 127.428 69.96 128.254 69.96ZM145.747 82C145.934 82 146.121 81.8133 146.307 81.44C146.494 81.0667 146.587 80.4533 146.587 79.6V56.8C146.587 55.9467 146.494 55.3333 146.307 54.96C146.147 54.5867 145.974 54.4 145.787 54.4C147.547 54.4 148.974 54.32 150.067 54.16C151.187 53.9733 151.921 53.7867 152.267 53.6V79.6C152.267 80.4533 152.347 81.0667 152.507 81.44C152.694 81.8133 152.881 82 153.067 82H145.747ZM164.555 82.4C162.155 82.4 160.235 81.9333 158.795 81C157.382 80.04 156.675 78.5067 156.675 76.4C156.675 74.9333 157.049 73.7467 157.795 72.84C158.542 71.9333 159.555 71.2667 160.835 70.84C162.142 70.3867 163.622 70.16 165.275 70.16C166.502 70.16 167.542 70.2667 168.395 70.48C169.275 70.6933 169.982 70.92 170.515 71.16C171.049 71.4 171.395 71.5733 171.555 71.68C171.555 70.56 171.435 69.6533 171.195 68.96C170.955 68.24 170.515 67.72 169.875 67.4C169.262 67.0533 168.395 66.88 167.275 66.88C165.649 66.88 164.209 67.04 162.955 67.36C161.702 67.68 160.675 68.0533 159.875 68.48C159.102 68.9067 158.569 69.2667 158.275 69.56V68.36L157.875 64.44C158.062 64.3333 158.555 64.16 159.355 63.92C160.155 63.68 161.249 63.4533 162.635 63.24C164.022 63 165.675 62.88 167.595 62.88C170.235 62.88 172.249 63.2667 173.635 64.04C175.022 64.7867 175.969 65.8667 176.475 67.28C177.009 68.6933 177.275 70.4 177.275 72.4V79.6C177.275 80.3467 177.355 80.8933 177.515 81.24C177.702 81.56 177.889 81.8133 178.075 82H171.595V81.16L171.675 80.4L171.595 80.32C171.382 80.56 171.075 80.8 170.675 81.04C170.275 81.28 169.782 81.5067 169.195 81.72C168.609 81.9067 167.929 82.0667 167.155 82.2C166.382 82.3333 165.515 82.4 164.555 82.4ZM166.435 78.36C167.555 78.36 168.489 78.28 169.235 78.12C170.009 77.9333 170.595 77.6933 170.995 77.4C171.395 77.08 171.595 76.7067 171.595 76.28C171.595 75.6667 171.129 75.16 170.195 74.76C169.289 74.36 168.049 74.16 166.475 74.16C164.955 74.16 163.875 74.3733 163.235 74.8C162.622 75.2267 162.315 75.76 162.315 76.4C162.315 77.2 162.675 77.7333 163.395 78C164.115 78.24 165.129 78.36 166.435 78.36ZM181.847 91.76C180.247 91.76 178.98 91.6 178.047 91.28C177.113 90.96 176.513 90.6533 176.247 90.36L177.047 84.16V82.96C177.367 83.6533 177.807 84.3733 178.367 85.12C178.9 85.8667 179.527 86.4933 180.247 87C180.967 87.5067 181.713 87.76 182.487 87.76C183.02 87.76 183.5 87.64 183.927 87.4C184.38 87.1867 184.793 86.84 185.167 86.36C185.567 85.88 185.953 85.28 186.327 84.56C186.86 83.4933 187.193 82.76 187.327 82.36C187.167 82.1467 186.9 81.6533 186.527 80.88C186.18 80.1067 185.753 79.1733 185.247 78.08C184.767 76.96 184.247 75.7867 183.687 74.56C183.153 73.3067 182.633 72.0933 182.127 70.92C181.647 69.7467 181.207 68.7067 180.807 67.8C180.433 66.8933 180.153 66.2267 179.967 65.8C179.593 64.8933 179.22 64.2533 178.847 63.88C178.447 63.48 178.14 63.28 177.927 63.28H186.127C185.993 63.28 185.9 63.4667 185.847 63.84C185.793 64.2133 185.887 64.8667 186.127 65.8C186.26 66.3067 186.473 67.0267 186.767 67.96C187.06 68.8667 187.393 69.8667 187.767 70.96C188.167 72.0533 188.567 73.16 188.967 74.28C189.393 75.4 189.78 76.4267 190.127 77.36H190.167C190.54 76.3733 190.927 75.3067 191.327 74.16C191.753 72.9867 192.167 71.84 192.567 70.72C192.993 69.6 193.353 68.6 193.647 67.72C193.967 66.84 194.207 66.1733 194.367 65.72C194.66 64.8133 194.78 64.1867 194.727 63.84C194.673 63.4667 194.553 63.28 194.367 63.28H202.327C202.113 63.28 201.82 63.4667 201.447 63.84C201.1 64.1867 200.767 64.8 200.447 65.68C200.26 66.16 199.953 66.9467 199.527 68.04C199.1 69.1333 198.593 70.3867 198.007 71.8C197.42 73.2133 196.807 74.6667 196.167 76.16C195.527 77.6533 194.9 79.0667 194.287 80.4C193.7 81.7067 193.18 82.7867 192.727 83.64C191.82 85.4 190.873 86.88 189.887 88.08C188.9 89.28 187.767 90.1867 186.487 90.8C185.207 91.44 183.66 91.76 181.847 91.76Z" fill="#303131"/>
<path d="M222.614 68C222.062 68 221.614 68.4477 221.614 69C221.614 69.5523 222.062 70 222.614 70V69V68ZM256.322 69.7071C256.712 69.3166 256.712 68.6834 256.322 68.2929L249.958 61.9289C249.567 61.5384 248.934 61.5384 248.543 61.9289C248.153 62.3195 248.153 62.9526 248.543 63.3431L254.2 69L248.543 74.6569C248.153 75.0474 248.153 75.6805 248.543 76.0711C248.934 76.4616 249.567 76.4616 249.958 76.0711L256.322 69.7071ZM222.614 69V70H255.614V69V68H222.614V69Z" fill="#303131"/>
<rect width="269.229" height="101.942" transform="translate(20 138)" fill="#F0EA6E"/>
<path d="M67.1245 212.334C65.0913 213.316 63.0042 213.428 60.8629 212.671C58.7217 211.915 57.1199 210.523 56.0575 208.495C55.9108 208.191 55.781 207.879 55.6681 207.559C55.5552 207.239 55.4593 206.91 55.3804 206.574L51.4322 187.492C51.0261 185.44 51.2785 183.496 52.1894 181.661C53.1002 179.826 54.4875 178.459 56.3512 177.559L76.1741 167.988C78.0378 167.088 79.9713 166.852 81.9746 167.28C83.9778 167.708 85.6569 168.719 87.0118 170.313L99.499 185.272C99.7135 185.543 99.9237 185.827 100.129 186.123C100.335 186.419 100.511 186.719 100.658 187.023C101.653 189.083 101.759 191.187 100.978 193.334C100.197 195.481 98.7733 197.053 96.7063 198.051C95.2832 198.738 93.7823 199.005 92.2037 198.851C90.6251 198.697 89.2211 198.126 87.9915 197.137L85.1498 194.886C84.8173 194.63 84.4409 194.5 84.0205 194.494C83.6002 194.489 83.2036 194.576 82.8309 194.756L73.1736 199.419C72.8008 199.599 72.4858 199.855 72.2285 200.188C71.9711 200.52 71.8393 200.896 71.8329 201.316L71.8282 204.941C71.8379 206.519 71.4121 207.973 70.551 209.305C69.6898 210.637 68.5476 211.647 67.1245 212.334ZM65.3204 208.208C65.9642 207.897 66.4672 207.446 66.8293 206.855C67.1915 206.264 67.3696 205.615 67.3635 204.91L67.3926 201.336C67.3954 200.044 67.7455 198.865 68.4428 197.799C69.1401 196.734 70.0649 195.923 71.217 195.367L80.8743 190.704C82.0264 190.148 83.2405 189.936 84.5167 190.07C85.7928 190.203 86.9466 190.645 87.9779 191.397L90.7951 193.597C91.3434 194.04 91.9617 194.304 92.6499 194.388C93.3382 194.472 94.0043 194.359 94.6481 194.048C95.5969 193.59 96.2593 192.885 96.6354 191.933C97.0114 190.981 96.9881 190.024 96.5655 189.062C96.5818 189.096 96.393 188.791 95.9991 188.149L83.5364 173.241C82.8589 172.443 82.0258 171.93 81.037 171.699C80.0483 171.469 79.0795 171.582 78.1307 172.04L58.3078 181.611C57.359 182.07 56.6589 182.762 56.2076 183.687C55.7562 184.613 55.649 185.581 55.8859 186.591L59.8096 205.622C59.8397 205.857 59.9525 206.177 60.1482 206.583C60.6047 207.528 61.3352 208.154 62.3397 208.46C63.3441 208.767 64.3377 208.682 65.3204 208.208ZM76.1604 185.484C76.7365 185.206 77.1256 184.779 77.3277 184.202C77.5299 183.626 77.4924 183.051 77.2152 182.477C76.938 181.902 76.5109 181.515 75.9337 181.315C75.3565 181.115 74.7799 181.154 74.2038 181.432C73.6278 181.71 73.2386 182.137 73.0365 182.714C72.8343 183.29 72.8718 183.866 73.149 184.44C73.4262 185.014 73.8534 185.401 74.4305 185.601C75.0077 185.801 75.5844 185.763 76.1604 185.484ZM78.27 179.469C78.8461 179.191 79.2352 178.763 79.4374 178.187C79.6396 177.61 79.6021 177.035 79.3249 176.461C79.0477 175.887 78.6205 175.5 78.0433 175.299C77.4661 175.099 76.8895 175.138 76.3135 175.416C75.7374 175.694 75.3483 176.122 75.1461 176.698C74.9439 177.275 74.9814 177.85 75.2586 178.424C75.5358 178.998 75.963 179.385 76.5402 179.586C77.1174 179.786 77.694 179.747 78.27 179.469ZM82.1832 187.573C82.7593 187.295 83.1484 186.868 83.3506 186.292C83.5527 185.715 83.5152 185.14 83.2381 184.566C82.9609 183.992 82.5337 183.604 81.9565 183.404C81.3793 183.204 80.8027 183.243 80.2266 183.521C79.6506 183.799 79.2615 184.227 79.0593 184.803C78.8571 185.38 78.8946 185.955 79.1718 186.529C79.449 187.103 79.8762 187.49 80.4534 187.69C81.0306 187.891 81.6072 187.852 82.1832 187.573ZM84.2929 181.558C84.8689 181.28 85.258 180.852 85.4602 180.276C85.6624 179.699 85.6249 179.124 85.3477 178.55C85.0705 177.976 84.6433 177.589 84.0661 177.389C83.489 177.188 82.9123 177.227 82.3363 177.505C81.7602 177.784 81.3711 178.211 81.1689 178.787C80.9668 179.364 81.0043 179.939 81.2815 180.513C81.5586 181.087 81.9858 181.475 82.563 181.675C83.1402 181.875 83.7168 181.836 84.2929 181.558ZM67.4623 193.432C67.9028 193.219 68.1977 192.9 68.3472 192.474C68.4966 192.048 68.4653 191.615 68.2534 191.176L67.2751 189.15L69.3082 188.168C69.7487 187.956 70.0437 187.636 70.1931 187.21C70.3425 186.784 70.3113 186.351 70.0993 185.912C69.8873 185.473 69.5681 185.18 69.1414 185.032C68.7148 184.884 68.2813 184.916 67.8407 185.129L65.8076 186.111L64.8293 184.084C64.6174 183.645 64.2981 183.352 63.8715 183.204C63.4448 183.056 63.0113 183.088 62.5708 183.301C62.1303 183.514 61.8353 183.833 61.6859 184.259C61.5364 184.685 61.5677 185.118 61.7797 185.557L62.758 187.583L60.7248 188.565C60.2843 188.777 59.9894 189.097 59.8399 189.523C59.6905 189.949 59.7218 190.382 59.9337 190.821C60.1457 191.26 60.465 191.553 60.8916 191.701C61.3182 191.849 61.7518 191.817 62.1923 191.604L64.2254 190.622L65.2037 192.648C65.4157 193.087 65.735 193.381 66.1616 193.529C66.5882 193.677 67.0217 193.645 67.4623 193.432Z" fill="#303131"/>
<path d="M126.269 201.971C126.456 201.971 126.629 201.784 126.789 201.411C126.976 201.037 127.069 200.424 127.069 199.571V180.371C127.069 179.517 126.976 178.917 126.789 178.571C126.602 178.197 126.416 177.997 126.229 177.971H139.349C141.616 177.971 143.442 178.304 144.829 178.971C146.242 179.611 147.282 180.544 147.949 181.771C148.616 182.971 148.949 184.411 148.949 186.091C148.949 187.797 148.616 189.277 147.949 190.531C147.282 191.757 146.242 192.704 144.829 193.371C143.442 194.011 141.616 194.331 139.349 194.331H133.229V199.571C133.229 200.424 133.322 201.037 133.509 201.411C133.696 201.784 133.882 201.971 134.069 201.971H126.269ZM134.869 189.931H136.869C138.442 189.931 139.656 189.797 140.509 189.531C141.389 189.264 142.002 188.851 142.349 188.291C142.696 187.731 142.869 186.997 142.869 186.091C142.869 185.211 142.682 184.504 142.309 183.971C141.962 183.437 141.376 183.064 140.549 182.851C139.749 182.611 138.656 182.491 137.269 182.491H134.869C134.042 182.491 133.562 182.544 133.429 182.651C133.296 182.731 133.229 183.037 133.229 183.571V188.811C133.229 189.344 133.296 189.664 133.429 189.771C133.562 189.877 134.042 189.931 134.869 189.931ZM152.362 201.971C152.548 201.971 152.735 201.784 152.922 201.411C153.108 201.037 153.202 200.424 153.202 199.571V176.771C153.202 175.917 153.108 175.304 152.922 174.931C152.762 174.557 152.588 174.371 152.402 174.371C154.162 174.371 155.588 174.291 156.682 174.131C157.802 173.944 158.535 173.757 158.882 173.571V199.571C158.882 200.424 158.962 201.037 159.122 201.411C159.308 201.784 159.495 201.971 159.682 201.971H152.362ZM171.17 202.371C168.77 202.371 166.85 201.904 165.41 200.971C163.996 200.011 163.29 198.477 163.29 196.371C163.29 194.904 163.663 193.717 164.41 192.811C165.156 191.904 166.17 191.237 167.45 190.811C168.756 190.357 170.236 190.131 171.89 190.131C173.116 190.131 174.156 190.237 175.01 190.451C175.89 190.664 176.596 190.891 177.13 191.131C177.663 191.371 178.01 191.544 178.17 191.651C178.17 190.531 178.05 189.624 177.81 188.931C177.57 188.211 177.13 187.691 176.49 187.371C175.876 187.024 175.01 186.851 173.89 186.851C172.263 186.851 170.823 187.011 169.57 187.331C168.316 187.651 167.29 188.024 166.49 188.451C165.716 188.877 165.183 189.237 164.89 189.531V188.331L164.49 184.411C164.676 184.304 165.17 184.131 165.97 183.891C166.77 183.651 167.863 183.424 169.25 183.211C170.636 182.971 172.29 182.851 174.21 182.851C176.85 182.851 178.863 183.237 180.25 184.011C181.636 184.757 182.583 185.837 183.09 187.251C183.623 188.664 183.89 190.371 183.89 192.371V199.571C183.89 200.317 183.97 200.864 184.13 201.211C184.316 201.531 184.503 201.784 184.69 201.971H178.21V201.131L178.29 200.371L178.21 200.291C177.996 200.531 177.69 200.771 177.29 201.011C176.89 201.251 176.396 201.477 175.81 201.691C175.223 201.877 174.543 202.037 173.77 202.171C172.996 202.304 172.13 202.371 171.17 202.371ZM173.05 198.331C174.17 198.331 175.103 198.251 175.85 198.091C176.623 197.904 177.21 197.664 177.61 197.371C178.01 197.051 178.21 196.677 178.21 196.251C178.21 195.637 177.743 195.131 176.81 194.731C175.903 194.331 174.663 194.131 173.09 194.131C171.57 194.131 170.49 194.344 169.85 194.771C169.236 195.197 168.93 195.731 168.93 196.371C168.93 197.171 169.29 197.704 170.01 197.971C170.73 198.211 171.743 198.331 173.05 198.331ZM188.461 211.731C186.861 211.731 185.594 211.571 184.661 211.251C183.728 210.931 183.128 210.624 182.861 210.331L183.661 204.131V202.931C183.981 203.624 184.421 204.344 184.981 205.091C185.514 205.837 186.141 206.464 186.861 206.971C187.581 207.477 188.328 207.731 189.101 207.731C189.634 207.731 190.114 207.611 190.541 207.371C190.994 207.157 191.408 206.811 191.781 206.331C192.181 205.851 192.568 205.251 192.941 204.531C193.474 203.464 193.808 202.731 193.941 202.331C193.781 202.117 193.514 201.624 193.141 200.851C192.794 200.077 192.368 199.144 191.861 198.051C191.381 196.931 190.861 195.757 190.301 194.531C189.768 193.277 189.248 192.064 188.741 190.891C188.261 189.717 187.821 188.677 187.421 187.771C187.048 186.864 186.768 186.197 186.581 185.771C186.208 184.864 185.834 184.224 185.461 183.851C185.061 183.451 184.754 183.251 184.541 183.251H192.741C192.608 183.251 192.514 183.437 192.461 183.811C192.408 184.184 192.501 184.837 192.741 185.771C192.874 186.277 193.088 186.997 193.381 187.931C193.674 188.837 194.008 189.837 194.381 190.931C194.781 192.024 195.181 193.131 195.581 194.251C196.008 195.371 196.394 196.397 196.741 197.331H196.781C197.154 196.344 197.541 195.277 197.941 194.131C198.368 192.957 198.781 191.811 199.181 190.691C199.608 189.571 199.968 188.571 200.261 187.691C200.581 186.811 200.821 186.144 200.981 185.691C201.274 184.784 201.394 184.157 201.341 183.811C201.288 183.437 201.168 183.251 200.981 183.251H208.941C208.728 183.251 208.434 183.437 208.061 183.811C207.714 184.157 207.381 184.771 207.061 185.651C206.874 186.131 206.568 186.917 206.141 188.011C205.714 189.104 205.208 190.357 204.621 191.771C204.034 193.184 203.421 194.637 202.781 196.131C202.141 197.624 201.514 199.037 200.901 200.371C200.314 201.677 199.794 202.757 199.341 203.611C198.434 205.371 197.488 206.851 196.501 208.051C195.514 209.251 194.381 210.157 193.101 210.771C191.821 211.411 190.274 211.731 188.461 211.731Z" fill="#303131"/>
<path d="M229.229 186.971C228.124 186.971 227.229 187.866 227.229 188.971C227.229 190.075 228.124 190.971 229.229 190.971V188.971V186.971ZM266.643 190.385C267.424 189.604 267.424 188.338 266.643 187.557L253.915 174.829C253.134 174.048 251.868 174.048 251.087 174.829C250.306 175.61 250.306 176.876 251.087 177.657L262.4 188.971L251.087 200.284C250.306 201.066 250.306 202.332 251.087 203.113C251.868 203.894 253.134 203.894 253.915 203.113L266.643 190.385ZM229.229 188.971V190.971H265.229V188.971V186.971H229.229V188.971Z" fill="#303131"/>
</svg>
