<svg width="170" height="18" viewBox="0 0 170 18" fill="none" xmlns="http://www.w3.org/2000/svg">
<path d="M0.0239879 17.04C0.135988 17.04 0.239988 16.928 0.335988 16.704C0.447988 16.48 0.503988 16.112 0.503988 15.6V4.08001C0.503988 3.56801 0.447988 3.20801 0.335988 3.00001C0.223988 2.77601 0.111988 2.65601 -1.21891e-05 2.64001H7.87199C9.27999 2.64001 10.4 2.81601 11.232 3.16801C12.08 3.52001 12.688 4.04001 13.056 4.72801C13.44 5.40001 13.632 6.24001 13.632 7.24801C13.632 7.96801 13.496 8.60801 13.224 9.16801C12.968 9.72801 12.608 10.184 12.144 10.536C11.68 10.888 11.16 11.144 10.584 11.304V11.376C11.224 11.632 11.896 12.136 12.6 12.888C13.304 13.624 13.936 14.448 14.496 15.36C14.864 15.952 15.2 16.376 15.504 16.632C15.808 16.888 16.04 17.024 16.2 17.04H10.152C10.344 17.024 10.496 16.92 10.608 16.728C10.736 16.52 10.696 16.184 10.488 15.72C10.152 14.952 9.74399 14.288 9.26399 13.728C8.78399 13.168 8.22399 12.744 7.58399 12.456C6.95999 12.152 6.23999 12 5.42399 12H5.15999C4.66399 12 4.37599 12.04 4.29599 12.12C4.21599 12.2 4.17599 12.4 4.17599 12.72V15.6C4.17599 16.112 4.23199 16.48 4.34399 16.704C4.45599 16.928 4.56799 17.04 4.67999 17.04H0.0239879ZM5.15999 9.57601H7.12799C8.13599 9.57601 8.86399 9.40001 9.31199 9.04801C9.75999 8.68001 9.98399 8.08001 9.98399 7.24801C9.98399 6.88001 9.90399 6.55201 9.74399 6.26401C9.58399 5.97601 9.31199 5.75201 8.92799 5.59201C8.55999 5.43201 8.03999 5.35201 7.36799 5.35201H5.15999C4.66399 5.35201 4.37599 5.37601 4.29599 5.42401C4.21599 5.47201 4.17599 5.65601 4.17599 5.97601V8.92801C4.17599 9.24801 4.21599 9.44001 4.29599 9.50401C4.37599 9.55201 4.66399 9.57601 5.15999 9.57601ZM21.1755 17.28C19.7355 17.28 18.5835 17 17.7195 16.44C16.8715 15.864 16.4475 14.944 16.4475 13.68C16.4475 12.8 16.6715 12.088 17.1195 11.544C17.5675 11 18.1755 10.6 18.9435 10.344C19.7275 10.072 20.6155 9.93601 21.6075 9.93601C22.3435 9.93601 22.9675 10 23.4795 10.128C24.0075 10.256 24.4315 10.392 24.7515 10.536C25.0715 10.68 25.2795 10.784 25.3755 10.848C25.3755 10.176 25.3035 9.63201 25.1595 9.21601C25.0155 8.78401 24.7515 8.47201 24.3675 8.28001C23.9995 8.07201 23.4795 7.96801 22.8075 7.96801C21.8315 7.96801 20.9675 8.06401 20.2155 8.25601C19.4635 8.44801 18.8475 8.67201 18.3675 8.92801C17.9035 9.18401 17.5835 9.40001 17.4075 9.57601V8.85601L17.1675 6.50401C17.2795 6.44001 17.5755 6.33601 18.0555 6.19201C18.5355 6.04801 19.1915 5.91201 20.0235 5.78401C20.8555 5.64001 21.8475 5.56801 22.9995 5.56801C24.5835 5.56801 25.7915 5.80001 26.6235 6.26401C27.4555 6.71201 28.0235 7.36001 28.3275 8.20801C28.6475 9.05601 28.8075 10.08 28.8075 11.28V15.6C28.8075 16.048 28.8555 16.376 28.9515 16.584C29.0635 16.776 29.1755 16.928 29.2875 17.04H25.3995V16.536L25.4475 16.08L25.3995 16.032C25.2715 16.176 25.0875 16.32 24.8475 16.464C24.6075 16.608 24.3115 16.744 23.9595 16.872C23.6075 16.984 23.1995 17.08 22.7355 17.16C22.2715 17.24 21.7515 17.28 21.1755 17.28ZM22.3035 14.856C22.9755 14.856 23.5355 14.808 23.9835 14.712C24.4475 14.6 24.7995 14.456 25.0395 14.28C25.2795 14.088 25.3995 13.864 25.3995 13.608C25.3995 13.24 25.1195 12.936 24.5595 12.696C24.0155 12.456 23.2715 12.336 22.3275 12.336C21.4155 12.336 20.7675 12.464 20.3835 12.72C20.0155 12.976 19.8315 13.296 19.8315 13.68C19.8315 14.16 20.0475 14.48 20.4795 14.64C20.9115 14.784 21.5195 14.856 22.3035 14.856ZM36.4702 17.28C35.0462 17.28 33.9262 17.024 33.1102 16.512C32.3102 16 31.7422 15.304 31.4062 14.424C31.0862 13.544 30.9262 12.552 30.9262 11.448C30.9262 10.328 31.0862 9.32801 31.4062 8.44801C31.7422 7.56801 32.3102 6.87201 33.1102 6.36001C33.9262 5.83201 35.0462 5.56801 36.4702 5.56801C36.9502 5.56801 37.3822 5.60801 37.7662 5.68801C38.1662 5.76801 38.5182 5.88001 38.8222 6.02401C39.1422 6.15201 39.4222 6.32001 39.6622 6.52801L39.7102 6.50401L39.6622 6.04801V1.92001C39.6622 1.40801 39.6062 1.04801 39.4942 0.840008C39.3982 0.616008 39.2942 0.496008 39.1822 0.480007H43.0702V15.6C43.0702 16.112 43.1182 16.48 43.2142 16.704C43.3262 16.928 43.4382 17.04 43.5502 17.04H39.6622V16.728L39.7342 16.272L39.6622 16.248C39.4222 16.456 39.1422 16.64 38.8222 16.8C38.5022 16.944 38.1422 17.056 37.7422 17.136C37.3582 17.232 36.9342 17.28 36.4702 17.28ZM36.8782 14.856C37.4062 14.856 37.8462 14.776 38.1982 14.616C38.5662 14.456 38.8542 14.232 39.0622 13.944C39.2862 13.64 39.4382 13.28 39.5182 12.864C39.6142 12.432 39.6622 11.96 39.6622 11.448C39.6622 10.936 39.6142 10.472 39.5182 10.056C39.4222 9.62401 39.2702 9.25601 39.0622 8.95201C38.8542 8.63201 38.5662 8.39201 38.1982 8.23201C37.8462 8.05601 37.4062 7.96801 36.8782 7.96801C36.1102 7.96801 35.4862 8.23201 35.0062 8.76001C34.5422 9.28801 34.3102 10.192 34.3102 11.472C34.3102 12.32 34.4142 12.992 34.6222 13.488C34.8302 13.984 35.1262 14.336 35.5102 14.544C35.8942 14.752 36.3502 14.856 36.8782 14.856ZM45.8169 17.04C45.9289 17.04 46.0409 16.928 46.1529 16.704C46.2649 16.48 46.3209 16.112 46.3209 15.6V7.24801C46.3209 6.73601 46.2649 6.36801 46.1529 6.14401C46.0569 5.92001 45.9529 5.80801 45.8409 5.80801H49.7289V15.6C49.7289 16.112 49.7769 16.48 49.8729 16.704C49.9849 16.928 50.0969 17.04 50.2089 17.04H45.8169ZM47.7609 3.98401C47.1689 3.98401 46.6969 3.82401 46.3449 3.50401C45.9929 3.18401 45.8169 2.74401 45.8169 2.18401C45.8169 1.62401 45.9849 1.18401 46.3209 0.864008C46.6729 0.544008 47.1529 0.384008 47.7609 0.384008C48.3689 0.384008 48.8409 0.544008 49.1769 0.864008C49.5289 1.18401 49.7049 1.62401 49.7049 2.18401C49.7049 2.74401 49.5289 3.18401 49.1769 3.50401C48.8409 3.82401 48.3689 3.98401 47.7609 3.98401ZM57.0114 17.28C55.5714 17.28 54.4194 17 53.5554 16.44C52.7074 15.864 52.2834 14.944 52.2834 13.68C52.2834 12.8 52.5074 12.088 52.9554 11.544C53.4034 11 54.0114 10.6 54.7794 10.344C55.5634 10.072 56.4514 9.93601 57.4434 9.93601C58.1794 9.93601 58.8034 10 59.3154 10.128C59.8434 10.256 60.2674 10.392 60.5874 10.536C60.9074 10.68 61.1154 10.784 61.2114 10.848C61.2114 10.176 61.1394 9.63201 60.9954 9.21601C60.8514 8.78401 60.5874 8.47201 60.2034 8.28001C59.8354 8.07201 59.3154 7.96801 58.6434 7.96801C57.6674 7.96801 56.8034 8.06401 56.0514 8.25601C55.2994 8.44801 54.6834 8.67201 54.2034 8.92801C53.7394 9.18401 53.4194 9.40001 53.2434 9.57601V8.85601L53.0034 6.50401C53.1154 6.44001 53.4114 6.33601 53.8914 6.19201C54.3714 6.04801 55.0274 5.91201 55.8594 5.78401C56.6914 5.64001 57.6834 5.56801 58.8354 5.56801C60.4194 5.56801 61.6274 5.80001 62.4594 6.26401C63.2914 6.71201 63.8594 7.36001 64.1634 8.20801C64.4834 9.05601 64.6434 10.08 64.6434 11.28V15.6C64.6434 16.048 64.6914 16.376 64.7874 16.584C64.8994 16.776 65.0114 16.928 65.1234 17.04H61.2354V16.536L61.2834 16.08L61.2354 16.032C61.1074 16.176 60.9234 16.32 60.6834 16.464C60.4434 16.608 60.1474 16.744 59.7954 16.872C59.4434 16.984 59.0354 17.08 58.5714 17.16C58.1074 17.24 57.5874 17.28 57.0114 17.28ZM58.1394 14.856C58.8114 14.856 59.3714 14.808 59.8194 14.712C60.2834 14.6 60.6354 14.456 60.8754 14.28C61.1154 14.088 61.2354 13.864 61.2354 13.608C61.2354 13.24 60.9554 12.936 60.3954 12.696C59.8514 12.456 59.1074 12.336 58.1634 12.336C57.2514 12.336 56.6034 12.464 56.2194 12.72C55.8514 12.976 55.6674 13.296 55.6674 13.68C55.6674 14.16 55.8834 14.48 56.3154 14.64C56.7474 14.784 57.3554 14.856 58.1394 14.856ZM67.2422 17.04C67.3542 17.04 67.4662 16.928 67.5782 16.704C67.6902 16.48 67.7462 16.112 67.7462 15.6V1.92001C67.7462 1.40801 67.6902 1.04001 67.5782 0.816007C67.4822 0.592007 67.3782 0.480007 67.2662 0.480007C68.3222 0.480007 69.1782 0.432007 69.8342 0.336008C70.5062 0.224008 70.9462 0.112008 71.1542 7.62939e-06V15.6C71.1542 16.112 71.2022 16.48 71.2982 16.704C71.4102 16.928 71.5222 17.04 71.6342 17.04H67.2422ZM86.5727 17.28C85.9487 17.28 85.3647 17.2 84.8207 17.04C84.2927 16.896 83.8687 16.68 83.5487 16.392L83.5007 16.44L83.5487 16.896V17.04H79.6607C79.7727 17.04 79.8767 16.928 79.9727 16.704C80.0847 16.48 80.1407 16.112 80.1407 15.6V1.92001C80.1407 1.40801 80.0847 1.04801 79.9727 0.840008C79.8767 0.616008 79.7727 0.496008 79.6607 0.480007H83.5487V6.00001L83.5007 6.45601L83.5487 6.48001C83.7087 6.33601 83.9407 6.20001 84.2447 6.07201C84.5647 5.92801 84.9247 5.80801 85.3247 5.71201C85.7407 5.61601 86.1567 5.56801 86.5727 5.56801C88.0607 5.56801 89.2127 5.83201 90.0287 6.36001C90.8607 6.87201 91.4447 7.56801 91.7807 8.44801C92.1167 9.32801 92.2847 10.328 92.2847 11.448C92.2847 12.552 92.1167 13.544 91.7807 14.424C91.4607 15.304 90.8847 16 90.0527 16.512C89.2367 17.024 88.0767 17.28 86.5727 17.28ZM86.0927 14.856C86.7647 14.856 87.3007 14.76 87.7007 14.568C88.1167 14.36 88.4127 14.008 88.5887 13.512C88.7807 13.016 88.8767 12.328 88.8767 11.448C88.8767 10.568 88.7807 9.88001 88.5887 9.38401C88.4127 8.87201 88.1167 8.51201 87.7007 8.30401C87.3007 8.08001 86.7647 7.96801 86.0927 7.96801C85.5647 7.96801 85.1087 8.09601 84.7247 8.35201C84.3407 8.59201 84.0447 8.96801 83.8367 9.48001C83.6447 9.99201 83.5487 10.656 83.5487 11.472C83.5487 12.72 83.7727 13.6 84.2207 14.112C84.6847 14.608 85.3087 14.856 86.0927 14.856ZM98.8993 17.28C97.9713 17.28 97.1793 17.12 96.5233 16.8C95.8673 16.464 95.3713 15.896 95.0353 15.096C94.6993 14.28 94.5313 13.152 94.5313 11.712V7.24801C94.5313 6.73601 94.4753 6.36801 94.3633 6.14401C94.2673 5.92001 94.1633 5.80801 94.0513 5.80801H98.4673C98.3553 5.80801 98.2353 5.92001 98.1073 6.14401C97.9953 6.36801 97.9393 6.73601 97.9393 7.24801V12.048C97.9393 13.056 98.1233 13.776 98.4913 14.208C98.8753 14.64 99.3153 14.856 99.8113 14.856C100.515 14.856 101.059 14.696 101.443 14.376C101.827 14.04 102.099 13.608 102.259 13.08C102.419 12.536 102.499 11.968 102.499 11.376V7.24801C102.499 6.73601 102.443 6.37601 102.331 6.16801C102.235 5.94401 102.131 5.82401 102.019 5.80801H105.907V15.6C105.907 16.112 105.955 16.48 106.051 16.704C106.163 16.928 106.275 17.04 106.387 17.04H102.499V16.104L102.547 15.624L102.499 15.576C102.339 15.816 102.139 16.04 101.899 16.248C101.659 16.456 101.387 16.64 101.083 16.8C100.779 16.944 100.443 17.056 100.075 17.136C99.7073 17.232 99.3153 17.28 98.8993 17.28ZM113.076 17.28C111.972 17.28 111.172 17.048 110.676 16.584C110.18 16.104 109.932 15.328 109.932 14.256V8.20801H107.772V5.80801C108.508 5.80801 109.084 5.72001 109.5 5.54401C109.916 5.35201 110.212 5.02401 110.388 4.56001C110.564 4.09601 110.652 3.44801 110.652 2.61601H113.34V5.80801H117.444C117.332 6.12801 117.22 6.52801 117.108 7.00801C117.012 7.47201 116.964 7.87201 116.964 8.20801H113.34V12.936C113.34 13.672 113.396 14.176 113.508 14.448C113.62 14.72 113.884 14.856 114.3 14.856C114.572 14.856 114.868 14.76 115.188 14.568C115.524 14.376 115.844 14.144 116.148 13.872C116.468 13.584 116.732 13.312 116.94 13.056V13.8L117.18 16.128C116.988 16.288 116.7 16.464 116.316 16.656C115.932 16.832 115.46 16.976 114.9 17.088C114.356 17.216 113.748 17.28 113.076 17.28ZM123.459 17.28C122.355 17.28 121.555 17.048 121.059 16.584C120.563 16.104 120.315 15.328 120.315 14.256V8.20801H118.155V5.80801C118.891 5.80801 119.467 5.72001 119.883 5.54401C120.299 5.35201 120.595 5.02401 120.771 4.56001C120.947 4.09601 121.035 3.44801 121.035 2.61601H123.723V5.80801H127.827C127.715 6.12801 127.603 6.52801 127.491 7.00801C127.395 7.47201 127.347 7.87201 127.347 8.20801H123.723V12.936C123.723 13.672 123.779 14.176 123.891 14.448C124.003 14.72 124.267 14.856 124.683 14.856C124.955 14.856 125.251 14.76 125.571 14.568C125.907 14.376 126.227 14.144 126.531 13.872C126.851 13.584 127.115 13.312 127.323 13.056V13.8L127.563 16.128C127.371 16.288 127.083 16.464 126.699 16.656C126.315 16.832 125.843 16.976 125.283 17.088C124.739 17.216 124.131 17.28 123.459 17.28ZM134.97 17.28C133.37 17.28 132.114 17.024 131.202 16.512C130.306 16 129.674 15.304 129.306 14.424C128.954 13.544 128.778 12.552 128.778 11.448C128.778 10.328 128.962 9.32801 129.33 8.44801C129.714 7.56801 130.354 6.87201 131.25 6.36001C132.146 5.83201 133.386 5.56801 134.97 5.56801C136.554 5.56801 137.794 5.83201 138.69 6.36001C139.586 6.87201 140.218 7.56801 140.586 8.44801C140.97 9.32801 141.162 10.328 141.162 11.448C141.162 12.552 140.978 13.544 140.61 14.424C140.258 15.304 139.634 16 138.738 16.512C137.842 17.024 136.586 17.28 134.97 17.28ZM134.97 14.856C135.642 14.856 136.178 14.76 136.578 14.568C136.994 14.36 137.29 14.008 137.466 13.512C137.658 13.016 137.754 12.328 137.754 11.448C137.754 10.568 137.658 9.88001 137.466 9.38401C137.29 8.87201 136.994 8.51201 136.578 8.30401C136.178 8.08001 135.642 7.96801 134.97 7.96801C134.298 7.96801 133.754 8.08001 133.338 8.30401C132.938 8.52801 132.642 8.89601 132.45 9.40801C132.274 9.92001 132.186 10.608 132.186 11.472C132.186 12.32 132.274 12.992 132.45 13.488C132.642 13.984 132.938 14.336 133.338 14.544C133.754 14.752 134.298 14.856 134.97 14.856ZM142.942 17.04C143.054 17.04 143.158 16.928 143.254 16.704C143.366 16.48 143.422 16.112 143.422 15.6V7.48801C143.422 6.97601 143.366 6.61601 143.254 6.40801C143.158 6.18401 143.054 6.06401 142.942 6.04801C143.646 6.04801 144.366 6.00001 145.102 5.90401C145.838 5.79201 146.414 5.68001 146.83 5.56801V7.03201L146.782 7.34401L146.83 7.39201C146.878 7.28001 147.03 7.08001 147.286 6.79201C147.542 6.50401 147.91 6.23201 148.39 5.97601C148.87 5.70401 149.462 5.56801 150.166 5.56801C151.654 5.56801 152.79 5.99201 153.574 6.84001C154.374 7.68801 154.774 9.01601 154.774 10.824V15.6C154.774 16.112 154.822 16.48 154.918 16.704C155.03 16.928 155.142 17.04 155.254 17.04H150.886C150.998 17.04 151.102 16.928 151.198 16.704C151.31 16.48 151.366 16.112 151.366 15.6V10.896C151.366 10.144 151.286 9.56001 151.126 9.14401C150.966 8.71201 150.742 8.40801 150.454 8.23201C150.182 8.05601 149.862 7.96801 149.494 7.96801C149.046 7.96801 148.614 8.08001 148.198 8.30401C147.798 8.51201 147.47 8.84801 147.214 9.31201C146.958 9.76001 146.83 10.36 146.83 11.112V15.6C146.83 16.112 146.878 16.48 146.974 16.704C147.086 16.928 147.198 17.04 147.31 17.04H142.942ZM163.239 17.28C161.815 17.28 160.615 17.2 159.639 17.04C158.663 16.88 157.991 16.72 157.623 16.56V15.84L157.119 13.488C157.535 13.792 158.311 14.096 159.447 14.4C160.583 14.704 161.975 14.856 163.623 14.856C164.119 14.856 164.511 14.824 164.799 14.76C165.103 14.696 165.319 14.592 165.447 14.448C165.575 14.304 165.639 14.12 165.639 13.896C165.639 13.624 165.535 13.416 165.327 13.272C165.135 13.128 164.783 13.016 164.271 12.936C163.759 12.84 163.015 12.728 162.039 12.6C160.807 12.44 159.831 12.216 159.111 11.928C158.391 11.624 157.879 11.24 157.575 10.776C157.287 10.296 157.143 9.71201 157.143 9.02401C157.143 8.38401 157.295 7.80801 157.599 7.29601C157.919 6.76801 158.463 6.35201 159.231 6.04801C160.015 5.72801 161.103 5.56801 162.495 5.56801C163.807 5.56801 164.959 5.64801 165.951 5.80801C166.943 5.96801 167.655 6.12801 168.087 6.28801V7.00801L168.567 9.12001C168.199 8.88001 167.479 8.63201 166.407 8.37601C165.335 8.12001 163.975 7.99201 162.327 7.99201C161.687 7.99201 161.231 8.05601 160.959 8.18401C160.687 8.31201 160.551 8.53601 160.551 8.85601C160.551 9.01601 160.591 9.15201 160.671 9.26401C160.767 9.37601 160.943 9.48001 161.199 9.57601C161.455 9.67201 161.823 9.76801 162.303 9.86401C162.783 9.94401 163.415 10.032 164.199 10.128C165.559 10.304 166.583 10.552 167.271 10.872C167.959 11.176 168.423 11.56 168.663 12.024C168.903 12.472 169.023 13.016 169.023 13.656C169.023 14.472 168.815 15.152 168.399 15.696C167.999 16.224 167.367 16.624 166.503 16.896C165.655 17.152 164.567 17.28 163.239 17.28Z" fill="black"/>
</svg>
