<svg width="267" height="128" viewBox="0 0 267 128" fill="none" xmlns="http://www.w3.org/2000/svg">
<rect x="0.5" y="0.5" width="266" height="127" rx="4.5" stroke="#8A38F5" stroke-dasharray="10 5"/>
<mask id="mask0_2030_108" style="mask-type:alpha" maskUnits="userSpaceOnUse" x="20" y="20" width="24" height="24">
<rect x="20" y="20" width="24" height="24" fill="#D9D9D9"/>
</mask>
<g mask="url(#mask0_2030_108)">
<path d="M32 42C29.2381 42 26.881 41.0238 24.9286 39.0714C22.9762 37.119 22 34.7619 22 32C22 29.2381 22.9762 26.881 24.9286 24.9286C26.881 22.9762 29.2381 22 32 22C34.7619 22 37.119 22.9762 39.0714 24.9286C41.0238 26.881 42 29.2381 42 32C42 34.7619 41.0238 37.119 39.0714 39.0714C37.119 41.0238 34.7619 42 32 42ZM32 39.1429C33.9762 39.1429 35.6607 38.4464 37.0536 37.0536C38.4464 35.6607 39.1429 33.9762 39.1429 32C39.1429 30.0238 38.4464 28.3393 37.0536 26.9464C35.6607 25.5536 33.9762 24.8571 32 24.8571C30.0238 24.8571 28.3393 25.5536 26.9464 26.9464C25.5536 28.3393 24.8571 30.0238 24.8571 32C24.8571 33.9762 25.5536 35.6607 26.9464 37.0536C28.3393 38.4464 30.0238 39.1429 32 39.1429Z" fill="#303131"/>
</g>
<path d="M60.96 26.3V39H59.14V26.3H54.42V24.68H65.64V26.3H60.96ZM67.3722 24.68H68.9922V30.16C69.4855 29.5467 69.9789 29.12 70.4722 28.88C70.9655 28.6267 71.5789 28.5 72.3122 28.5C73.3122 28.5 74.0989 28.7533 74.6722 29.26C75.2455 29.7533 75.5322 30.4333 75.5322 31.3V39H73.9122V31.96C73.9122 31.24 73.6922 30.7133 73.2522 30.38C72.8389 30.0733 72.3522 29.92 71.7922 29.92C70.9522 29.92 70.2722 30.2333 69.7522 30.86C69.2455 31.4867 68.9922 32.32 68.9922 33.36V39H67.3722V24.68ZM86.9702 34.34H79.3902C79.4035 35.22 79.5902 35.92 79.9502 36.44C80.5235 37.28 81.3502 37.7 82.4302 37.7C83.7635 37.7 84.6635 37.0667 85.1302 35.8H86.7702C86.5568 36.88 86.0635 37.72 85.2902 38.32C84.5168 38.92 83.5435 39.22 82.3702 39.22C80.8102 39.22 79.6168 38.6867 78.7902 37.62C78.0568 36.6867 77.6902 35.4533 77.6902 33.92C77.6902 32.1467 78.1702 30.7667 79.1302 29.78C79.9702 28.9267 81.0568 28.5 82.3902 28.5C83.3635 28.5 84.2168 28.7333 84.9502 29.2C85.6968 29.6667 86.2302 30.3067 86.5502 31.12C86.8302 31.8133 86.9702 32.8667 86.9702 34.28V34.34ZM85.2102 33C85.2102 32.1067 84.9435 31.3867 84.4102 30.84C83.8902 30.28 83.2168 30 82.3902 30C81.5502 30 80.8635 30.2733 80.3302 30.82C79.8102 31.3533 79.5168 32.08 79.4502 33H85.2102ZM89.2081 28.72H90.7281V30.2C91.5281 29.0667 92.5815 28.5 93.8881 28.5C95.1548 28.5 96.0748 29.0067 96.6481 30.02C97.1415 29.4467 97.6148 29.0533 98.0681 28.84C98.5348 28.6133 99.1081 28.5 99.7881 28.5C101.788 28.5 102.788 29.44 102.788 31.32V39H101.148V31.96C101.148 30.6 100.508 29.92 99.2281 29.92C98.5615 29.92 97.9948 30.18 97.5281 30.7C97.0615 31.22 96.8281 31.84 96.8281 32.56V39H95.1881V31.96C95.1881 30.6 94.5548 29.92 93.2881 29.92C92.6081 29.92 92.0281 30.18 91.5481 30.7C91.0815 31.2067 90.8481 31.8267 90.8481 32.56V39H89.2081V28.72ZM114.255 34.34H106.675C106.689 35.22 106.875 35.92 107.235 36.44C107.809 37.28 108.635 37.7 109.715 37.7C111.049 37.7 111.949 37.0667 112.415 35.8H114.055C113.842 36.88 113.349 37.72 112.575 38.32C111.802 38.92 110.829 39.22 109.655 39.22C108.095 39.22 106.902 38.6867 106.075 37.62C105.342 36.6867 104.975 35.4533 104.975 33.92C104.975 32.1467 105.455 30.7667 106.415 29.78C107.255 28.9267 108.342 28.5 109.675 28.5C110.649 28.5 111.502 28.7333 112.235 29.2C112.982 29.6667 113.515 30.3067 113.835 31.12C114.115 31.8133 114.255 32.8667 114.255 34.28V34.34ZM112.495 33C112.495 32.1067 112.229 31.3867 111.695 30.84C111.175 30.28 110.502 30 109.675 30C108.835 30 108.149 30.2733 107.615 30.82C107.095 31.3533 106.802 32.08 106.735 33H112.495ZM120.165 28.72H121.685V30.46C122.512 29.1533 123.645 28.5 125.085 28.5C126.085 28.5 126.878 28.7533 127.465 29.26C128.052 29.7533 128.345 30.42 128.345 31.26V39H126.725V31.92C126.725 31.3067 126.532 30.82 126.145 30.46C125.772 30.1 125.258 29.92 124.605 29.92C123.752 29.92 123.072 30.2333 122.565 30.86C122.058 31.4867 121.805 32.32 121.805 33.36V39H120.165V28.72ZM140.203 37.62V38.94C139.75 39.1 139.396 39.18 139.143 39.18C138.076 39.18 137.496 38.6933 137.403 37.72C136.67 38.72 135.503 39.22 133.903 39.22C132.796 39.22 131.936 38.9133 131.323 38.3C130.79 37.7667 130.523 37.08 130.523 36.24C130.523 35.28 130.863 34.54 131.543 34.02C131.93 33.7267 132.736 33.44 133.963 33.16L137.323 32.4L137.343 31.54C137.343 30.5133 136.57 30 135.023 30C133.543 30 132.75 30.6 132.643 31.8H130.983C131.023 30.8933 131.25 30.2 131.663 29.72C132.37 28.9067 133.516 28.5 135.103 28.5C137.676 28.5 138.963 29.4333 138.963 31.3V37.04C138.963 37.5467 139.183 37.8 139.623 37.8C139.676 37.8 139.816 37.76 140.043 37.68C140.123 37.6533 140.176 37.6333 140.203 37.62ZM137.343 33.74L134.703 34.42C133.756 34.66 133.103 34.9067 132.743 35.16C132.396 35.4133 132.223 35.7667 132.223 36.22C132.223 37.2733 132.903 37.8 134.263 37.8C135.223 37.8 136.036 37.4867 136.703 36.86C137.13 36.4733 137.343 36.0333 137.343 35.54V33.74ZM142.001 28.72H143.521V30.2C144.321 29.0667 145.374 28.5 146.681 28.5C147.948 28.5 148.868 29.0067 149.441 30.02C149.934 29.4467 150.408 29.0533 150.861 28.84C151.328 28.6133 151.901 28.5 152.581 28.5C154.581 28.5 155.581 29.44 155.581 31.32V39H153.941V31.96C153.941 30.6 153.301 29.92 152.021 29.92C151.354 29.92 150.788 30.18 150.321 30.7C149.854 31.22 149.621 31.84 149.621 32.56V39H147.981V31.96C147.981 30.6 147.348 29.92 146.081 29.92C145.401 29.92 144.821 30.18 144.341 30.7C143.874 31.2067 143.641 31.8267 143.641 32.56V39H142.001V28.72ZM167.048 34.34H159.468C159.482 35.22 159.668 35.92 160.028 36.44C160.602 37.28 161.428 37.7 162.508 37.7C163.842 37.7 164.742 37.0667 165.208 35.8H166.848C166.635 36.88 166.142 37.72 165.368 38.32C164.595 38.92 163.622 39.22 162.448 39.22C160.888 39.22 159.695 38.6867 158.868 37.62C158.135 36.6867 157.768 35.4533 157.768 33.92C157.768 32.1467 158.248 30.7667 159.208 29.78C160.048 28.9267 161.135 28.5 162.468 28.5C163.442 28.5 164.295 28.7333 165.028 29.2C165.775 29.6667 166.308 30.3067 166.628 31.12C166.908 31.8133 167.048 32.8667 167.048 34.28V34.34ZM165.288 33C165.288 32.1067 165.022 31.3867 164.488 30.84C163.968 30.28 163.295 30 162.468 30C161.628 30 160.942 30.2733 160.408 30.82C159.888 31.3533 159.595 32.08 159.528 33H165.288ZM176.858 39.26C175.085 39.26 173.818 38.3333 173.058 36.48C172.565 35.2933 172.318 33.82 172.318 32.06C172.318 29.8467 172.705 28.02 173.478 26.58C174.238 25.14 175.365 24.42 176.858 24.42C178.311 24.42 179.425 25.12 180.198 26.52C181.011 27.9467 181.418 29.7733 181.418 32C181.418 34.0933 181.085 35.7733 180.418 37.04C179.631 38.52 178.445 39.26 176.858 39.26ZM179.678 32.04C179.678 27.9733 178.738 25.94 176.858 25.94C174.991 25.94 174.058 27.96 174.058 32C174.058 33.6933 174.211 34.9667 174.518 35.82C174.958 37.0867 175.738 37.72 176.858 37.72C178.738 37.72 179.678 35.8267 179.678 32.04ZM187.865 24.68V38.24L187.005 39H186.165V26.72L183.685 28.8L182.785 27.68L186.345 24.68H187.865Z" fill="#303131"/>
<mask id="mask1_2030_108" style="mask-type:alpha" maskUnits="userSpaceOnUse" x="19" y="84" width="25" height="24">
<rect x="19.8855" y="84" width="24" height="24" fill="#303131"/>
</mask>
<g mask="url(#mask1_2030_108)">
<path d="M31.8855 99C32.7188 99 33.4272 98.7083 34.0105 98.125C34.5938 97.5417 34.8855 96.8333 34.8855 96C34.8855 95.1667 34.5938 94.4583 34.0105 93.875C33.4272 93.2917 32.7188 93 31.8855 93C31.0522 93 30.3438 93.2917 29.7605 93.875C29.1772 94.4583 28.8855 95.1667 28.8855 96C28.8855 96.8333 29.1772 97.5417 29.7605 98.125C30.3438 98.7083 31.0522 99 31.8855 99ZM31.8855 106C30.5022 106 29.2022 105.737 27.9855 105.212C26.7688 104.688 25.7105 103.975 24.8105 103.075C23.9105 102.175 23.198 101.117 22.673 99.9C22.148 98.6833 21.8855 97.3833 21.8855 96C21.8855 94.6167 22.148 93.3167 22.673 92.1C23.198 90.8833 23.9105 89.825 24.8105 88.925C25.7105 88.025 26.7688 87.3125 27.9855 86.7875C29.2022 86.2625 30.5022 86 31.8855 86C33.2688 86 34.5688 86.2625 35.7855 86.7875C37.0022 87.3125 38.0605 88.025 38.9605 88.925C39.8605 89.825 40.573 90.8833 41.098 92.1C41.623 93.3167 41.8855 94.6167 41.8855 96C41.8855 97.3833 41.623 98.6833 41.098 99.9C40.573 101.117 39.8605 102.175 38.9605 103.075C38.0605 103.975 37.0022 104.688 35.7855 105.212C34.5688 105.737 33.2688 106 31.8855 106ZM31.8855 104C34.1188 104 36.0105 103.225 37.5605 101.675C39.1105 100.125 39.8855 98.2333 39.8855 96C39.8855 93.7667 39.1105 91.875 37.5605 90.325C36.0105 88.775 34.1188 88 31.8855 88C29.6522 88 27.7605 88.775 26.2105 90.325C24.6605 91.875 23.8855 93.7667 23.8855 96C23.8855 98.2333 24.6605 100.125 26.2105 101.675C27.7605 103.225 29.6522 104 31.8855 104Z" fill="#303131"/>
</g>
<path d="M61.64 91.14V103H58.7V91.14H54.34V88.68H65.8V91.14H61.64ZM67.3103 88.68H70.0703V93.9C70.817 92.7533 71.8503 92.18 73.1703 92.18C74.1036 92.18 74.8903 92.4533 75.5303 93C76.2636 93.6 76.6303 94.5533 76.6303 95.86V103H73.8703V96.42C73.8703 95.1533 73.3103 94.52 72.1903 94.52C71.5636 94.52 71.0503 94.7133 70.6503 95.1C70.2636 95.4867 70.0703 95.9867 70.0703 96.6V103H67.3103V88.68ZM88.3663 98.42H81.2463C81.2863 99.2733 81.4196 99.88 81.6463 100.24C82.0329 100.827 82.6396 101.12 83.4663 101.12C84.4929 101.12 85.1796 100.693 85.5263 99.84H88.2463C87.9396 100.88 87.3396 101.707 86.4463 102.32C85.5663 102.92 84.5329 103.22 83.3463 103.22C81.7329 103.22 80.4929 102.68 79.6263 101.6C78.8663 100.653 78.4863 99.4067 78.4863 97.86C78.4863 95.98 78.9796 94.5267 79.9663 93.5C80.8329 92.62 81.9729 92.18 83.3863 92.18C84.4663 92.18 85.4129 92.4467 86.2263 92.98C87.0396 93.5133 87.6196 94.26 87.9663 95.22C88.2463 95.9667 88.3863 96.8667 88.3863 97.92C88.3863 98.0533 88.3796 98.22 88.3663 98.42ZM85.5063 96.6C85.3729 95.0533 84.6596 94.28 83.3663 94.28C82.1529 94.28 81.4596 95.0533 81.2863 96.6H85.5063ZM90.3181 92.4H93.0581V93.68C93.8715 92.68 94.8381 92.18 95.9581 92.18C97.3315 92.18 98.2915 92.7 98.8381 93.74C99.6381 92.7 100.671 92.18 101.938 92.18C103.005 92.18 103.831 92.4733 104.418 93.06C105.018 93.6333 105.318 94.4333 105.318 95.46V103H102.578V95.9C102.578 94.98 102.078 94.52 101.078 94.52C100.491 94.52 100.031 94.7067 99.6981 95.08C99.3648 95.44 99.1981 95.9467 99.1981 96.6V103H96.4381V95.9C96.4381 94.98 95.9448 94.52 94.9581 94.52C94.3715 94.52 93.9115 94.7067 93.5781 95.08C93.2448 95.44 93.0781 95.9467 93.0781 96.6V103H90.3181V92.4ZM117.077 98.42H109.957C109.997 99.2733 110.131 99.88 110.357 100.24C110.744 100.827 111.351 101.12 112.177 101.12C113.204 101.12 113.891 100.693 114.237 99.84H116.957C116.651 100.88 116.051 101.707 115.157 102.32C114.277 102.92 113.244 103.22 112.057 103.22C110.444 103.22 109.204 102.68 108.337 101.6C107.577 100.653 107.197 99.4067 107.197 97.86C107.197 95.98 107.691 94.5267 108.677 93.5C109.544 92.62 110.684 92.18 112.097 92.18C113.177 92.18 114.124 92.4467 114.937 92.98C115.751 93.5133 116.331 94.26 116.677 95.22C116.957 95.9667 117.097 96.8667 117.097 97.92C117.097 98.0533 117.091 98.22 117.077 98.42ZM114.217 96.6C114.084 95.0533 113.371 94.28 112.077 94.28C110.864 94.28 110.171 95.0533 109.997 96.6H114.217ZM122.701 92.4H125.461V93.9C126.208 92.7533 127.261 92.18 128.621 92.18C129.834 92.18 130.754 92.54 131.381 93.26C131.914 93.9 132.181 94.7667 132.181 95.86V103H129.441V96.42C129.441 95.1533 128.848 94.52 127.661 94.52C126.994 94.52 126.461 94.7133 126.061 95.1C125.661 95.4733 125.461 95.9733 125.461 96.6V103H122.701V92.4ZM143.773 102.3V103H140.773C140.573 102.747 140.466 102.387 140.453 101.92C139.719 102.787 138.653 103.22 137.253 103.22C136.226 103.22 135.399 102.907 134.773 102.28C134.266 101.773 134.013 101.073 134.013 100.18C134.013 98.8467 134.546 97.9 135.613 97.34C136.066 97.1 136.966 96.86 138.313 96.62L140.473 96.22L140.453 95.46C140.439 94.7533 139.906 94.4 138.853 94.4C138.173 94.4 137.693 94.5067 137.413 94.72C137.146 94.92 136.979 95.2933 136.913 95.84H134.273C134.433 93.4 135.939 92.18 138.793 92.18C140.366 92.18 141.499 92.46 142.193 93.02C142.819 93.5533 143.133 94.36 143.133 95.44V101.36C143.133 101.84 143.346 102.153 143.773 102.3ZM140.473 97.88L138.453 98.34C137.879 98.4733 137.453 98.6667 137.173 98.92C136.906 99.1733 136.773 99.4867 136.773 99.86C136.773 100.62 137.266 101 138.253 101C139.679 101 140.413 100.22 140.453 98.66L140.473 97.88ZM145.631 92.4H148.371V93.68C149.184 92.68 150.151 92.18 151.271 92.18C152.644 92.18 153.604 92.7 154.151 93.74C154.951 92.7 155.984 92.18 157.251 92.18C158.317 92.18 159.144 92.4733 159.731 93.06C160.331 93.6333 160.631 94.4333 160.631 95.46V103H157.891V95.9C157.891 94.98 157.391 94.52 156.391 94.52C155.804 94.52 155.344 94.7067 155.011 95.08C154.677 95.44 154.511 95.9467 154.511 96.6V103H151.751V95.9C151.751 94.98 151.257 94.52 150.271 94.52C149.684 94.52 149.224 94.7067 148.891 95.08C148.557 95.44 148.391 95.9467 148.391 96.6V103H145.631V92.4ZM172.39 98.42H165.27C165.31 99.2733 165.443 99.88 165.67 100.24C166.056 100.827 166.663 101.12 167.49 101.12C168.516 101.12 169.203 100.693 169.55 99.84H172.27C171.963 100.88 171.363 101.707 170.47 102.32C169.59 102.92 168.556 103.22 167.37 103.22C165.756 103.22 164.516 102.68 163.65 101.6C162.89 100.653 162.51 99.4067 162.51 97.86C162.51 95.98 163.003 94.5267 163.99 93.5C164.856 92.62 165.996 92.18 167.41 92.18C168.49 92.18 169.436 92.4467 170.25 92.98C171.063 93.5133 171.643 94.26 171.99 95.22C172.27 95.9667 172.41 96.8667 172.41 97.92C172.41 98.0533 172.403 98.22 172.39 98.42ZM169.53 96.6C169.396 95.0533 168.683 94.28 167.39 94.28C166.176 94.28 165.483 95.0533 165.31 96.6H169.53ZM182.293 88.36C183.827 88.3733 185.013 89.0933 185.853 90.52C186.68 91.9333 187.093 93.7467 187.093 95.96C187.093 98.2 186.68 99.9733 185.853 101.28C185.04 102.573 183.86 103.22 182.313 103.22C180.713 103.22 179.507 102.54 178.693 101.18C177.907 99.8467 177.513 98.1133 177.513 95.98C177.513 93.7933 177.907 91.9933 178.693 90.58C179.52 89.1 180.72 88.36 182.293 88.36ZM184.653 96C184.653 94.5733 184.507 93.38 184.213 92.42C183.813 91.1 183.173 90.4333 182.293 90.42C181.507 90.42 180.92 90.9467 180.533 92C180.147 93.0667 179.953 94.3933 179.953 95.98C179.953 97.4067 180.107 98.58 180.413 99.5C180.773 100.593 181.4 101.14 182.293 101.14C183.867 101.14 184.653 99.4267 184.653 96ZM194.388 88.68V101.92L193.148 103H191.948V91.46L189.628 93.42L188.468 91.96L192.348 88.68H194.388Z" fill="#303131"/>
<path d="M255.66 96L247 87.3397L238.34 96L247 104.66L255.66 96ZM206 96V97.5L247 97.5V96V94.5L206 94.5V96Z" fill="#F0EA6E"/>
</svg>
