<svg width="243" height="178" viewBox="0 0 243 178" fill="none" xmlns="http://www.w3.org/2000/svg">
<rect x="0.5" y="0.5" width="242" height="177" rx="4.5" fill="#303131"/>
<rect x="0.5" y="0.5" width="242" height="177" rx="4.5" stroke="#8A38F5" stroke-dasharray="10 5"/>
<rect x="18.5" y="16.5" width="206" height="61" fill="#F0EA6E" fill-opacity="0.1"/>
<rect x="18.5" y="16.5" width="206" height="61" stroke="#F0EA6E"/>
<mask id="mask0_2030_398" style="mask-type:alpha" maskUnits="userSpaceOnUse" x="42" y="32" width="30" height="30">
<rect x="42" y="32" width="30" height="30" fill="#D9D9D9"/>
</mask>
<g mask="url(#mask0_2030_398)">
<path d="M67.1875 48.25H53.25C52.8958 48.25 52.599 48.1302 52.3594 47.8906C52.1198 47.651 52 47.3542 52 47C52 46.6458 52.1198 46.349 52.3594 46.1094C52.599 45.8698 52.8958 45.75 53.25 45.75H67.1875L66.125 44.6875C65.875 44.4375 65.7552 44.1458 65.7656 43.8125C65.776 43.4792 65.8958 43.1875 66.125 42.9375C66.375 42.6875 66.6719 42.5573 67.0156 42.5469C67.3594 42.5365 67.6562 42.6562 67.9062 42.9062L71.125 46.125C71.375 46.375 71.5 46.6667 71.5 47C71.5 47.3333 71.375 47.625 71.125 47.875L67.9062 51.0938C67.6562 51.3438 67.3594 51.4635 67.0156 51.4531C66.6719 51.4427 66.375 51.3125 66.125 51.0625C65.8958 50.8125 65.776 50.5208 65.7656 50.1875C65.7552 49.8542 65.875 49.5625 66.125 49.3125L67.1875 48.25ZM60.75 42V38.25H48.25V55.75H60.75V52C60.75 51.6458 60.8698 51.349 61.1094 51.1094C61.349 50.8698 61.6458 50.75 62 50.75C62.3542 50.75 62.651 50.8698 62.8906 51.1094C63.1302 51.349 63.25 51.6458 63.25 52V55.75C63.25 56.4375 63.0052 57.026 62.5156 57.5156C62.026 58.0052 61.4375 58.25 60.75 58.25H48.25C47.5625 58.25 46.974 58.0052 46.4844 57.5156C45.9948 57.026 45.75 56.4375 45.75 55.75V38.25C45.75 37.5625 45.9948 36.974 46.4844 36.4844C46.974 35.9948 47.5625 35.75 48.25 35.75H60.75C61.4375 35.75 62.026 35.9948 62.5156 36.4844C63.0052 36.974 63.25 37.5625 63.25 38.25V42C63.25 42.3542 63.1302 42.651 62.8906 42.8906C62.651 43.1302 62.3542 43.25 62 43.25C61.6458 43.25 61.349 43.1302 61.1094 42.8906C60.8698 42.651 60.75 42.3542 60.75 42Z" fill="white"/>
</g>
<path d="M83.2 55C83.312 55 83.424 54.888 83.536 54.664C83.648 54.44 83.704 54.072 83.704 53.56V42.04C83.704 41.528 83.648 41.168 83.536 40.96C83.424 40.736 83.312 40.616 83.2 40.6H97.216V41.32L97.696 44.104C97.296 43.928 96.592 43.744 95.584 43.552C94.576 43.344 93.36 43.24 91.936 43.24H88.384C87.904 43.24 87.616 43.28 87.52 43.36C87.44 43.424 87.4 43.624 87.4 43.96V45.736C87.4 46.088 87.44 46.296 87.52 46.36C87.616 46.424 87.896 46.456 88.36 46.456H91.816C92.744 46.456 93.488 46.408 94.048 46.312C94.624 46.2 95 46.088 95.176 45.976C95.112 46.28 95.04 46.632 94.96 47.032C94.88 47.432 94.816 47.816 94.768 48.184C94.72 48.552 94.696 48.856 94.696 49.096H88.36C87.896 49.096 87.616 49.128 87.52 49.192C87.44 49.24 87.4 49.448 87.4 49.816V51.592C87.4 51.96 87.44 52.176 87.52 52.24C87.6 52.304 87.88 52.336 88.36 52.336H94.84C95.768 52.336 96.512 52.232 97.072 52.024C97.648 51.8 98.024 51.584 98.2 51.376L97.72 54.256V55H83.2ZM98.4955 55C98.6395 55 98.8795 54.888 99.2155 54.664C99.5515 54.44 99.9355 54.08 100.368 53.584C100.672 53.216 101.032 52.784 101.448 52.288C101.864 51.776 102.28 51.256 102.696 50.728C103.128 50.2 103.496 49.744 103.8 49.36C103.544 49.072 103.256 48.744 102.936 48.376C102.616 48.008 102.288 47.632 101.952 47.248C101.632 46.864 101.312 46.504 100.992 46.168C100.688 45.816 100.424 45.512 100.2 45.256C99.7195 44.712 99.3355 44.328 99.0475 44.104C98.7595 43.88 98.5755 43.768 98.4955 43.768H103.68C103.568 43.784 103.528 43.904 103.56 44.128C103.608 44.352 103.816 44.728 104.184 45.256C104.344 45.48 104.528 45.736 104.736 46.024C104.944 46.312 105.152 46.6 105.36 46.888C105.568 47.176 105.744 47.424 105.888 47.632H105.936C106.064 47.44 106.216 47.208 106.392 46.936C106.584 46.664 106.784 46.376 106.992 46.072C107.2 45.768 107.392 45.48 107.568 45.208C107.904 44.68 108.088 44.312 108.12 44.104C108.168 43.88 108.144 43.768 108.048 43.768H113.304C113.16 43.768 112.928 43.88 112.608 44.104C112.288 44.312 111.904 44.672 111.456 45.184C111.152 45.536 110.776 45.968 110.328 46.48C109.896 46.976 109.464 47.48 109.032 47.992C108.6 48.504 108.216 48.96 107.88 49.36C108.296 49.824 108.712 50.288 109.128 50.752C109.544 51.2 109.952 51.656 110.352 52.12C110.768 52.584 111.184 53.048 111.6 53.512C112.08 54.056 112.464 54.44 112.752 54.664C113.056 54.888 113.248 55 113.328 55H108.144C108.256 55 108.296 54.888 108.264 54.664C108.232 54.44 108.032 54.056 107.664 53.512C107.504 53.256 107.312 52.976 107.088 52.672C106.864 52.368 106.64 52.064 106.416 51.76C106.192 51.456 106 51.2 105.84 50.992H105.792C105.664 51.2 105.504 51.456 105.312 51.76C105.136 52.064 104.944 52.376 104.736 52.696C104.544 53.016 104.36 53.304 104.184 53.56C103.832 54.088 103.632 54.464 103.584 54.688C103.536 54.896 103.568 55 103.68 55H98.4955ZM114.181 55C114.293 55 114.405 54.888 114.517 54.664C114.629 54.44 114.685 54.072 114.685 53.56V45.208C114.685 44.696 114.629 44.328 114.517 44.104C114.421 43.88 114.317 43.768 114.205 43.768H118.093V53.56C118.093 54.072 118.141 54.44 118.237 54.664C118.349 54.888 118.461 55 118.573 55H114.181ZM116.125 41.944C115.533 41.944 115.061 41.784 114.709 41.464C114.357 41.144 114.181 40.704 114.181 40.144C114.181 39.584 114.349 39.144 114.685 38.824C115.037 38.504 115.517 38.344 116.125 38.344C116.733 38.344 117.205 38.504 117.541 38.824C117.893 39.144 118.069 39.584 118.069 40.144C118.069 40.704 117.893 41.144 117.541 41.464C117.205 41.784 116.733 41.944 116.125 41.944ZM125.472 55.24C124.368 55.24 123.568 55.008 123.072 54.544C122.576 54.064 122.328 53.288 122.328 52.216V46.168H120.168V43.768C120.904 43.768 121.48 43.68 121.896 43.504C122.312 43.312 122.608 42.984 122.784 42.52C122.96 42.056 123.048 41.408 123.048 40.576H125.736V43.768H129.84C129.728 44.088 129.616 44.488 129.504 44.968C129.408 45.432 129.36 45.832 129.36 46.168H125.736V50.896C125.736 51.632 125.792 52.136 125.904 52.408C126.016 52.68 126.28 52.816 126.696 52.816C126.968 52.816 127.264 52.72 127.584 52.528C127.92 52.336 128.24 52.104 128.544 51.832C128.864 51.544 129.128 51.272 129.336 51.016V51.76L129.576 54.088C129.384 54.248 129.096 54.424 128.712 54.616C128.328 54.792 127.856 54.936 127.296 55.048C126.752 55.176 126.144 55.24 125.472 55.24ZM142.676 60.856C141.748 60.856 140.892 60.792 140.108 60.664C139.34 60.536 138.668 60.376 138.092 60.184C137.532 60.008 137.1 59.832 136.796 59.656L137.276 56.056V55.36C137.5 55.792 137.852 56.248 138.332 56.728C138.812 57.208 139.412 57.616 140.132 57.952C140.852 58.288 141.668 58.456 142.58 58.456C143.172 58.456 143.668 58.328 144.068 58.072C144.468 57.832 144.772 57.456 144.98 56.944C145.188 56.432 145.292 55.8 145.292 55.048V54.664L145.34 54.232L145.292 54.184C145.068 54.424 144.764 54.624 144.38 54.784C144.012 54.928 143.604 55.04 143.156 55.12C142.724 55.2 142.292 55.24 141.86 55.24C140.564 55.24 139.524 54.984 138.74 54.472C137.972 53.96 137.412 53.264 137.06 52.384C136.724 51.504 136.556 50.512 136.556 49.408C136.556 48.288 136.724 47.288 137.06 46.408C137.396 45.528 137.948 44.832 138.716 44.32C139.5 43.792 140.548 43.528 141.86 43.528C142.308 43.528 142.748 43.56 143.18 43.624C143.612 43.688 144.012 43.784 144.38 43.912C144.748 44.024 145.052 44.184 145.292 44.392L145.34 44.368L145.292 43.912V43.768H149.18C149.068 43.784 148.956 43.904 148.844 44.128C148.748 44.352 148.7 44.728 148.7 45.256V54.448C148.7 56.768 148.204 58.416 147.212 59.392C146.236 60.368 144.724 60.856 142.676 60.856ZM142.508 52.816C143.068 52.816 143.556 52.72 143.972 52.528C144.388 52.336 144.708 51.992 144.932 51.496C145.172 51 145.292 50.304 145.292 49.408C145.292 48.528 145.172 47.84 144.932 47.344C144.708 46.832 144.388 46.472 143.972 46.264C143.556 46.04 143.068 45.928 142.508 45.928C141.98 45.928 141.524 46.04 141.14 46.264C140.756 46.488 140.46 46.856 140.252 47.368C140.044 47.88 139.94 48.568 139.94 49.432C139.94 50.28 140.036 50.952 140.228 51.448C140.436 51.944 140.732 52.296 141.116 52.504C141.5 52.712 141.964 52.816 142.508 52.816ZM156.079 55.24C154.639 55.24 153.487 54.96 152.623 54.4C151.775 53.824 151.351 52.904 151.351 51.64C151.351 50.76 151.575 50.048 152.023 49.504C152.471 48.96 153.079 48.56 153.847 48.304C154.631 48.032 155.519 47.896 156.511 47.896C157.247 47.896 157.871 47.96 158.383 48.088C158.911 48.216 159.335 48.352 159.655 48.496C159.975 48.64 160.183 48.744 160.279 48.808C160.279 48.136 160.207 47.592 160.063 47.176C159.919 46.744 159.655 46.432 159.271 46.24C158.903 46.032 158.383 45.928 157.711 45.928C156.735 45.928 155.871 46.024 155.119 46.216C154.367 46.408 153.751 46.632 153.271 46.888C152.807 47.144 152.487 47.36 152.311 47.536V46.816L152.071 44.464C152.183 44.4 152.479 44.296 152.959 44.152C153.439 44.008 154.095 43.872 154.927 43.744C155.759 43.6 156.751 43.528 157.903 43.528C159.487 43.528 160.695 43.76 161.527 44.224C162.359 44.672 162.927 45.32 163.231 46.168C163.551 47.016 163.711 48.04 163.711 49.24V53.56C163.711 54.008 163.759 54.336 163.855 54.544C163.967 54.736 164.079 54.888 164.191 55H160.303V54.496L160.351 54.04L160.303 53.992C160.175 54.136 159.991 54.28 159.751 54.424C159.511 54.568 159.215 54.704 158.863 54.832C158.511 54.944 158.103 55.04 157.639 55.12C157.175 55.2 156.655 55.24 156.079 55.24ZM157.207 52.816C157.879 52.816 158.439 52.768 158.887 52.672C159.351 52.56 159.703 52.416 159.943 52.24C160.183 52.048 160.303 51.824 160.303 51.568C160.303 51.2 160.023 50.896 159.463 50.656C158.919 50.416 158.175 50.296 157.231 50.296C156.319 50.296 155.671 50.424 155.287 50.68C154.919 50.936 154.735 51.256 154.735 51.64C154.735 52.12 154.951 52.44 155.383 52.6C155.815 52.744 156.423 52.816 157.207 52.816ZM166.165 55C166.277 55 166.381 54.888 166.477 54.664C166.589 54.44 166.645 54.072 166.645 53.56V45.448C166.645 44.936 166.589 44.576 166.477 44.368C166.381 44.144 166.277 44.024 166.165 44.008C166.869 44.008 167.589 43.96 168.325 43.864C169.061 43.752 169.637 43.64 170.053 43.528V44.992L170.005 45.304L170.053 45.352C170.101 45.24 170.253 45.04 170.509 44.752C170.765 44.464 171.133 44.192 171.613 43.936C172.093 43.664 172.685 43.528 173.389 43.528C174.877 43.528 176.013 43.952 176.797 44.8C177.597 45.648 177.997 46.976 177.997 48.784V53.56C177.997 54.072 178.045 54.44 178.141 54.664C178.253 54.888 178.365 55 178.477 55H174.109C174.221 55 174.325 54.888 174.421 54.664C174.533 54.44 174.589 54.072 174.589 53.56V48.856C174.589 48.104 174.509 47.52 174.349 47.104C174.189 46.672 173.965 46.368 173.677 46.192C173.405 46.016 173.085 45.928 172.717 45.928C172.269 45.928 171.837 46.04 171.421 46.264C171.021 46.472 170.693 46.808 170.437 47.272C170.181 47.72 170.053 48.32 170.053 49.072V53.56C170.053 54.072 170.101 54.44 170.197 54.664C170.309 54.888 170.421 55 170.533 55H166.165ZM182.029 55C182.141 54.984 182.245 54.864 182.341 54.64C182.453 54.416 182.509 54.056 182.509 53.56V49.072C182.509 48.432 182.445 47.88 182.317 47.416C182.205 46.936 182.013 46.568 181.741 46.312C181.469 46.056 181.101 45.928 180.637 45.928C179.853 45.928 179.213 46.208 178.717 46.768C178.237 47.328 177.997 48.176 177.997 49.312H176.245C176.245 48.544 176.365 47.816 176.605 47.128C176.845 46.424 177.189 45.808 177.637 45.28C178.085 44.736 178.621 44.312 179.245 44.008C179.869 43.688 180.557 43.528 181.309 43.528C182.269 43.528 183.093 43.704 183.781 44.056C184.469 44.392 184.997 44.96 185.365 45.76C185.733 46.56 185.917 47.648 185.917 49.024V53.56C185.917 54.056 185.965 54.416 186.061 54.64C186.173 54.864 186.285 54.984 186.397 55H182.029ZM194.553 55.24C193.289 55.24 192.233 55.112 191.385 54.856C190.553 54.584 189.889 54.2 189.393 53.704C188.897 53.192 188.545 52.576 188.337 51.856C188.129 51.136 188.025 50.32 188.025 49.408C188.025 47.6 188.529 46.168 189.537 45.112C190.545 44.056 192.089 43.528 194.169 43.528C195.385 43.528 196.369 43.696 197.121 44.032C197.889 44.368 198.473 44.816 198.873 45.376C199.273 45.936 199.545 46.56 199.689 47.248C199.849 47.92 199.929 48.6 199.929 49.288V50.416C199.929 50.368 199.705 50.32 199.257 50.272C198.825 50.208 198.089 50.176 197.049 50.176H191.481C191.481 51.056 191.745 51.72 192.273 52.168C192.817 52.6 193.697 52.816 194.913 52.816C195.937 52.816 196.849 52.696 197.649 52.456C198.465 52.2 199.057 51.96 199.425 51.736V52.456L199.665 54.28C199.361 54.488 198.777 54.704 197.913 54.928C197.049 55.136 195.929 55.24 194.553 55.24ZM192.369 48.112H196.521C196.521 47.76 196.441 47.416 196.281 47.08C196.137 46.744 195.897 46.472 195.561 46.264C195.225 46.04 194.761 45.928 194.169 45.928C193.577 45.928 193.097 46.016 192.729 46.192C192.377 46.368 192.113 46.584 191.937 46.84C191.777 47.096 191.697 47.36 191.697 47.632C191.697 47.792 191.745 47.912 191.841 47.992C191.937 48.072 192.113 48.112 192.369 48.112Z" fill="white"/>
<g filter="url(#filter0_d_2030_398)">
<rect x="18" y="100" width="207" height="62" fill="#F0EA6E" fill-opacity="0.1" shape-rendering="crispEdges"/>
<rect x="19.5" y="101.5" width="204" height="59" stroke="#F0EA6E" stroke-width="3" shape-rendering="crispEdges"/>
<mask id="mask1_2030_398" style="mask-type:alpha" maskUnits="userSpaceOnUse" x="42" y="116" width="30" height="30">
<rect x="42" y="116" width="30" height="30" fill="#D9D9D9"/>
</mask>
<g mask="url(#mask1_2030_398)">
<g filter="url(#filter1_d_2030_398)">
<path d="M67.1875 132.25H53.25C52.8958 132.25 52.599 132.13 52.3594 131.891C52.1198 131.651 52 131.354 52 131C52 130.646 52.1198 130.349 52.3594 130.109C52.599 129.87 52.8958 129.75 53.25 129.75H67.1875L66.125 128.688C65.875 128.438 65.7552 128.146 65.7656 127.812C65.776 127.479 65.8958 127.188 66.125 126.938C66.375 126.688 66.6719 126.557 67.0156 126.547C67.3594 126.536 67.6562 126.656 67.9062 126.906L71.125 130.125C71.375 130.375 71.5 130.667 71.5 131C71.5 131.333 71.375 131.625 71.125 131.875L67.9062 135.094C67.6562 135.344 67.3594 135.464 67.0156 135.453C66.6719 135.443 66.375 135.312 66.125 135.062C65.8958 134.812 65.776 134.521 65.7656 134.188C65.7552 133.854 65.875 133.563 66.125 133.312L67.1875 132.25ZM60.75 126V122.25H48.25V139.75H60.75V136C60.75 135.646 60.8698 135.349 61.1094 135.109C61.349 134.87 61.6458 134.75 62 134.75C62.3542 134.75 62.651 134.87 62.8906 135.109C63.1302 135.349 63.25 135.646 63.25 136V139.75C63.25 140.438 63.0052 141.026 62.5156 141.516C62.026 142.005 61.4375 142.25 60.75 142.25H48.25C47.5625 142.25 46.974 142.005 46.4844 141.516C45.9948 141.026 45.75 140.438 45.75 139.75V122.25C45.75 121.562 45.9948 120.974 46.4844 120.484C46.974 119.995 47.5625 119.75 48.25 119.75H60.75C61.4375 119.75 62.026 119.995 62.5156 120.484C63.0052 120.974 63.25 121.562 63.25 122.25V126C63.25 126.354 63.1302 126.651 62.8906 126.891C62.651 127.13 62.3542 127.25 62 127.25C61.6458 127.25 61.349 127.13 61.1094 126.891C60.8698 126.651 60.75 126.354 60.75 126Z" fill="white"/>
</g>
</g>
<path d="M83.2 139C83.312 139 83.424 138.888 83.536 138.664C83.648 138.44 83.704 138.072 83.704 137.56V126.04C83.704 125.528 83.648 125.168 83.536 124.96C83.424 124.736 83.312 124.616 83.2 124.6H97.216V125.32L97.696 128.104C97.296 127.928 96.592 127.744 95.584 127.552C94.576 127.344 93.36 127.24 91.936 127.24H88.384C87.904 127.24 87.616 127.28 87.52 127.36C87.44 127.424 87.4 127.624 87.4 127.96V129.736C87.4 130.088 87.44 130.296 87.52 130.36C87.616 130.424 87.896 130.456 88.36 130.456H91.816C92.744 130.456 93.488 130.408 94.048 130.312C94.624 130.2 95 130.088 95.176 129.976C95.112 130.28 95.04 130.632 94.96 131.032C94.88 131.432 94.816 131.816 94.768 132.184C94.72 132.552 94.696 132.856 94.696 133.096H88.36C87.896 133.096 87.616 133.128 87.52 133.192C87.44 133.24 87.4 133.448 87.4 133.816V135.592C87.4 135.96 87.44 136.176 87.52 136.24C87.6 136.304 87.88 136.336 88.36 136.336H94.84C95.768 136.336 96.512 136.232 97.072 136.024C97.648 135.8 98.024 135.584 98.2 135.376L97.72 138.256V139H83.2ZM98.4955 139C98.6395 139 98.8795 138.888 99.2155 138.664C99.5515 138.44 99.9355 138.08 100.368 137.584C100.672 137.216 101.032 136.784 101.448 136.288C101.864 135.776 102.28 135.256 102.696 134.728C103.128 134.2 103.496 133.744 103.8 133.36C103.544 133.072 103.256 132.744 102.936 132.376C102.616 132.008 102.288 131.632 101.952 131.248C101.632 130.864 101.312 130.504 100.992 130.168C100.688 129.816 100.424 129.512 100.2 129.256C99.7195 128.712 99.3355 128.328 99.0475 128.104C98.7595 127.88 98.5755 127.768 98.4955 127.768H103.68C103.568 127.784 103.528 127.904 103.56 128.128C103.608 128.352 103.816 128.728 104.184 129.256C104.344 129.48 104.528 129.736 104.736 130.024C104.944 130.312 105.152 130.6 105.36 130.888C105.568 131.176 105.744 131.424 105.888 131.632H105.936C106.064 131.44 106.216 131.208 106.392 130.936C106.584 130.664 106.784 130.376 106.992 130.072C107.2 129.768 107.392 129.48 107.568 129.208C107.904 128.68 108.088 128.312 108.12 128.104C108.168 127.88 108.144 127.768 108.048 127.768H113.304C113.16 127.768 112.928 127.88 112.608 128.104C112.288 128.312 111.904 128.672 111.456 129.184C111.152 129.536 110.776 129.968 110.328 130.48C109.896 130.976 109.464 131.48 109.032 131.992C108.6 132.504 108.216 132.96 107.88 133.36C108.296 133.824 108.712 134.288 109.128 134.752C109.544 135.2 109.952 135.656 110.352 136.12C110.768 136.584 111.184 137.048 111.6 137.512C112.08 138.056 112.464 138.44 112.752 138.664C113.056 138.888 113.248 139 113.328 139H108.144C108.256 139 108.296 138.888 108.264 138.664C108.232 138.44 108.032 138.056 107.664 137.512C107.504 137.256 107.312 136.976 107.088 136.672C106.864 136.368 106.64 136.064 106.416 135.76C106.192 135.456 106 135.2 105.84 134.992H105.792C105.664 135.2 105.504 135.456 105.312 135.76C105.136 136.064 104.944 136.376 104.736 136.696C104.544 137.016 104.36 137.304 104.184 137.56C103.832 138.088 103.632 138.464 103.584 138.688C103.536 138.896 103.568 139 103.68 139H98.4955ZM114.181 139C114.293 139 114.405 138.888 114.517 138.664C114.629 138.44 114.685 138.072 114.685 137.56V129.208C114.685 128.696 114.629 128.328 114.517 128.104C114.421 127.88 114.317 127.768 114.205 127.768H118.093V137.56C118.093 138.072 118.141 138.44 118.237 138.664C118.349 138.888 118.461 139 118.573 139H114.181ZM116.125 125.944C115.533 125.944 115.061 125.784 114.709 125.464C114.357 125.144 114.181 124.704 114.181 124.144C114.181 123.584 114.349 123.144 114.685 122.824C115.037 122.504 115.517 122.344 116.125 122.344C116.733 122.344 117.205 122.504 117.541 122.824C117.893 123.144 118.069 123.584 118.069 124.144C118.069 124.704 117.893 125.144 117.541 125.464C117.205 125.784 116.733 125.944 116.125 125.944ZM125.472 139.24C124.368 139.24 123.568 139.008 123.072 138.544C122.576 138.064 122.328 137.288 122.328 136.216V130.168H120.168V127.768C120.904 127.768 121.48 127.68 121.896 127.504C122.312 127.312 122.608 126.984 122.784 126.52C122.96 126.056 123.048 125.408 123.048 124.576H125.736V127.768H129.84C129.728 128.088 129.616 128.488 129.504 128.968C129.408 129.432 129.36 129.832 129.36 130.168H125.736V134.896C125.736 135.632 125.792 136.136 125.904 136.408C126.016 136.68 126.28 136.816 126.696 136.816C126.968 136.816 127.264 136.72 127.584 136.528C127.92 136.336 128.24 136.104 128.544 135.832C128.864 135.544 129.128 135.272 129.336 135.016V135.76L129.576 138.088C129.384 138.248 129.096 138.424 128.712 138.616C128.328 138.792 127.856 138.936 127.296 139.048C126.752 139.176 126.144 139.24 125.472 139.24ZM142.676 144.856C141.748 144.856 140.892 144.792 140.108 144.664C139.34 144.536 138.668 144.376 138.092 144.184C137.532 144.008 137.1 143.832 136.796 143.656L137.276 140.056V139.36C137.5 139.792 137.852 140.248 138.332 140.728C138.812 141.208 139.412 141.616 140.132 141.952C140.852 142.288 141.668 142.456 142.58 142.456C143.172 142.456 143.668 142.328 144.068 142.072C144.468 141.832 144.772 141.456 144.98 140.944C145.188 140.432 145.292 139.8 145.292 139.048V138.664L145.34 138.232L145.292 138.184C145.068 138.424 144.764 138.624 144.38 138.784C144.012 138.928 143.604 139.04 143.156 139.12C142.724 139.2 142.292 139.24 141.86 139.24C140.564 139.24 139.524 138.984 138.74 138.472C137.972 137.96 137.412 137.264 137.06 136.384C136.724 135.504 136.556 134.512 136.556 133.408C136.556 132.288 136.724 131.288 137.06 130.408C137.396 129.528 137.948 128.832 138.716 128.32C139.5 127.792 140.548 127.528 141.86 127.528C142.308 127.528 142.748 127.56 143.18 127.624C143.612 127.688 144.012 127.784 144.38 127.912C144.748 128.024 145.052 128.184 145.292 128.392L145.34 128.368L145.292 127.912V127.768H149.18C149.068 127.784 148.956 127.904 148.844 128.128C148.748 128.352 148.7 128.728 148.7 129.256V138.448C148.7 140.768 148.204 142.416 147.212 143.392C146.236 144.368 144.724 144.856 142.676 144.856ZM142.508 136.816C143.068 136.816 143.556 136.72 143.972 136.528C144.388 136.336 144.708 135.992 144.932 135.496C145.172 135 145.292 134.304 145.292 133.408C145.292 132.528 145.172 131.84 144.932 131.344C144.708 130.832 144.388 130.472 143.972 130.264C143.556 130.04 143.068 129.928 142.508 129.928C141.98 129.928 141.524 130.04 141.14 130.264C140.756 130.488 140.46 130.856 140.252 131.368C140.044 131.88 139.94 132.568 139.94 133.432C139.94 134.28 140.036 134.952 140.228 135.448C140.436 135.944 140.732 136.296 141.116 136.504C141.5 136.712 141.964 136.816 142.508 136.816ZM156.079 139.24C154.639 139.24 153.487 138.96 152.623 138.4C151.775 137.824 151.351 136.904 151.351 135.64C151.351 134.76 151.575 134.048 152.023 133.504C152.471 132.96 153.079 132.56 153.847 132.304C154.631 132.032 155.519 131.896 156.511 131.896C157.247 131.896 157.871 131.96 158.383 132.088C158.911 132.216 159.335 132.352 159.655 132.496C159.975 132.64 160.183 132.744 160.279 132.808C160.279 132.136 160.207 131.592 160.063 131.176C159.919 130.744 159.655 130.432 159.271 130.24C158.903 130.032 158.383 129.928 157.711 129.928C156.735 129.928 155.871 130.024 155.119 130.216C154.367 130.408 153.751 130.632 153.271 130.888C152.807 131.144 152.487 131.36 152.311 131.536V130.816L152.071 128.464C152.183 128.4 152.479 128.296 152.959 128.152C153.439 128.008 154.095 127.872 154.927 127.744C155.759 127.6 156.751 127.528 157.903 127.528C159.487 127.528 160.695 127.76 161.527 128.224C162.359 128.672 162.927 129.32 163.231 130.168C163.551 131.016 163.711 132.04 163.711 133.24V137.56C163.711 138.008 163.759 138.336 163.855 138.544C163.967 138.736 164.079 138.888 164.191 139H160.303V138.496L160.351 138.04L160.303 137.992C160.175 138.136 159.991 138.28 159.751 138.424C159.511 138.568 159.215 138.704 158.863 138.832C158.511 138.944 158.103 139.04 157.639 139.12C157.175 139.2 156.655 139.24 156.079 139.24ZM157.207 136.816C157.879 136.816 158.439 136.768 158.887 136.672C159.351 136.56 159.703 136.416 159.943 136.24C160.183 136.048 160.303 135.824 160.303 135.568C160.303 135.2 160.023 134.896 159.463 134.656C158.919 134.416 158.175 134.296 157.231 134.296C156.319 134.296 155.671 134.424 155.287 134.68C154.919 134.936 154.735 135.256 154.735 135.64C154.735 136.12 154.951 136.44 155.383 136.6C155.815 136.744 156.423 136.816 157.207 136.816ZM166.165 139C166.277 139 166.381 138.888 166.477 138.664C166.589 138.44 166.645 138.072 166.645 137.56V129.448C166.645 128.936 166.589 128.576 166.477 128.368C166.381 128.144 166.277 128.024 166.165 128.008C166.869 128.008 167.589 127.96 168.325 127.864C169.061 127.752 169.637 127.64 170.053 127.528V128.992L170.005 129.304L170.053 129.352C170.101 129.24 170.253 129.04 170.509 128.752C170.765 128.464 171.133 128.192 171.613 127.936C172.093 127.664 172.685 127.528 173.389 127.528C174.877 127.528 176.013 127.952 176.797 128.8C177.597 129.648 177.997 130.976 177.997 132.784V137.56C177.997 138.072 178.045 138.44 178.141 138.664C178.253 138.888 178.365 139 178.477 139H174.109C174.221 139 174.325 138.888 174.421 138.664C174.533 138.44 174.589 138.072 174.589 137.56V132.856C174.589 132.104 174.509 131.52 174.349 131.104C174.189 130.672 173.965 130.368 173.677 130.192C173.405 130.016 173.085 129.928 172.717 129.928C172.269 129.928 171.837 130.04 171.421 130.264C171.021 130.472 170.693 130.808 170.437 131.272C170.181 131.72 170.053 132.32 170.053 133.072V137.56C170.053 138.072 170.101 138.44 170.197 138.664C170.309 138.888 170.421 139 170.533 139H166.165ZM182.029 139C182.141 138.984 182.245 138.864 182.341 138.64C182.453 138.416 182.509 138.056 182.509 137.56V133.072C182.509 132.432 182.445 131.88 182.317 131.416C182.205 130.936 182.013 130.568 181.741 130.312C181.469 130.056 181.101 129.928 180.637 129.928C179.853 129.928 179.213 130.208 178.717 130.768C178.237 131.328 177.997 132.176 177.997 133.312H176.245C176.245 132.544 176.365 131.816 176.605 131.128C176.845 130.424 177.189 129.808 177.637 129.28C178.085 128.736 178.621 128.312 179.245 128.008C179.869 127.688 180.557 127.528 181.309 127.528C182.269 127.528 183.093 127.704 183.781 128.056C184.469 128.392 184.997 128.96 185.365 129.76C185.733 130.56 185.917 131.648 185.917 133.024V137.56C185.917 138.056 185.965 138.416 186.061 138.64C186.173 138.864 186.285 138.984 186.397 139H182.029ZM194.553 139.24C193.289 139.24 192.233 139.112 191.385 138.856C190.553 138.584 189.889 138.2 189.393 137.704C188.897 137.192 188.545 136.576 188.337 135.856C188.129 135.136 188.025 134.32 188.025 133.408C188.025 131.6 188.529 130.168 189.537 129.112C190.545 128.056 192.089 127.528 194.169 127.528C195.385 127.528 196.369 127.696 197.121 128.032C197.889 128.368 198.473 128.816 198.873 129.376C199.273 129.936 199.545 130.56 199.689 131.248C199.849 131.92 199.929 132.6 199.929 133.288V134.416C199.929 134.368 199.705 134.32 199.257 134.272C198.825 134.208 198.089 134.176 197.049 134.176H191.481C191.481 135.056 191.745 135.72 192.273 136.168C192.817 136.6 193.697 136.816 194.913 136.816C195.937 136.816 196.849 136.696 197.649 136.456C198.465 136.2 199.057 135.96 199.425 135.736V136.456L199.665 138.28C199.361 138.488 198.777 138.704 197.913 138.928C197.049 139.136 195.929 139.24 194.553 139.24ZM192.369 132.112H196.521C196.521 131.76 196.441 131.416 196.281 131.08C196.137 130.744 195.897 130.472 195.561 130.264C195.225 130.04 194.761 129.928 194.169 129.928C193.577 129.928 193.097 130.016 192.729 130.192C192.377 130.368 192.113 130.584 191.937 130.84C191.777 131.096 191.697 131.36 191.697 131.632C191.697 131.792 191.745 131.912 191.841 131.992C191.937 132.072 192.113 132.112 192.369 132.112Z" fill="white"/>
</g>
<defs>
<filter id="filter0_d_2030_398" x="18" y="100" width="215" height="70" filterUnits="userSpaceOnUse" color-interpolation-filters="sRGB">
<feFlood flood-opacity="0" result="BackgroundImageFix"/>
<feColorMatrix in="SourceAlpha" type="matrix" values="0 0 0 0 0 0 0 0 0 0 0 0 0 0 0 0 0 0 127 0" result="hardAlpha"/>
<feOffset dx="4" dy="4"/>
<feGaussianBlur stdDeviation="2"/>
<feComposite in2="hardAlpha" operator="out"/>
<feColorMatrix type="matrix" values="0 0 0 0 0.941176 0 0 0 0 0.917647 0 0 0 0 0.431373 0 0 0 0.2 0"/>
<feBlend mode="normal" in2="BackgroundImageFix" result="effect1_dropShadow_2030_398"/>
<feBlend mode="normal" in="SourceGraphic" in2="effect1_dropShadow_2030_398" result="shape"/>
</filter>
<filter id="filter1_d_2030_398" x="44.75" y="118.75" width="31.75" height="28.5" filterUnits="userSpaceOnUse" color-interpolation-filters="sRGB">
<feFlood flood-opacity="0" result="BackgroundImageFix"/>
<feColorMatrix in="SourceAlpha" type="matrix" values="0 0 0 0 0 0 0 0 0 0 0 0 0 0 0 0 0 0 127 0" result="hardAlpha"/>
<feOffset dx="2" dy="2"/>
<feGaussianBlur stdDeviation="1.5"/>
<feComposite in2="hardAlpha" operator="out"/>
<feColorMatrix type="matrix" values="0 0 0 0 0 0 0 0 0 0 0 0 0 0 0 0 0 0 0.25 0"/>
<feBlend mode="normal" in2="BackgroundImageFix" result="effect1_dropShadow_2030_398"/>
<feBlend mode="normal" in="SourceGraphic" in2="effect1_dropShadow_2030_398" result="shape"/>
</filter>
</defs>
</svg>
