<svg width="180" height="263" viewBox="0 0 180 263" fill="none" xmlns="http://www.w3.org/2000/svg">
<rect x="0.5" y="0.5" width="178.657" height="261.657" rx="4.5" stroke="#8A38F5" stroke-dasharray="10 5"/>
<rect width="126" height="53" transform="translate(26.8283 20)" fill="#F0EA6E"/>
<mask id="mask0_2034_416" style="mask-type:alpha" maskUnits="userSpaceOnUse" x="46" y="34" width="25" height="25">
<rect x="46.8283" y="34.5" width="24" height="24" fill="#D9D9D9"/>
</mask>
<g mask="url(#mask0_2034_416)">
<path d="M57.1033 50.5L62.6783 46.925C62.8283 46.825 62.9033 46.6833 62.9033 46.5C62.9033 46.3167 62.8283 46.175 62.6783 46.075L57.1033 42.5C56.9366 42.3833 56.7658 42.375 56.5908 42.475C56.4158 42.575 56.3283 42.725 56.3283 42.925V50.075C56.3283 50.275 56.4158 50.425 56.5908 50.525C56.7658 50.625 56.9366 50.6167 57.1033 50.5ZM50.8283 54.5C50.2783 54.5 49.8075 54.3042 49.4158 53.9125C49.0241 53.5208 48.8283 53.05 48.8283 52.5V40.5C48.8283 39.95 49.0241 39.4792 49.4158 39.0875C49.8075 38.6958 50.2783 38.5 50.8283 38.5H66.8283C67.3783 38.5 67.8491 38.6958 68.2408 39.0875C68.6325 39.4792 68.8283 39.95 68.8283 40.5V52.5C68.8283 53.05 68.6325 53.5208 68.2408 53.9125C67.8491 54.3042 67.3783 54.5 66.8283 54.5H50.8283ZM50.8283 52.5H66.8283V40.5H50.8283V52.5Z" fill="#303131"/>
</g>
<path d="M86.3083 53.2C84.855 53.2 83.5683 53.1333 82.4483 53C81.3283 52.8667 80.5216 52.7333 80.0283 52.6V52L79.6283 49.46C79.8816 49.6733 80.3016 49.9 80.8883 50.14C81.475 50.38 82.2283 50.5867 83.1483 50.76C84.0683 50.92 85.135 51 86.3483 51C87.095 51 87.6683 50.9533 88.0683 50.86C88.4683 50.7533 88.7416 50.6067 88.8883 50.42C89.035 50.2333 89.1083 50.0133 89.1083 49.76C89.1083 49.44 89.0016 49.1933 88.7883 49.02C88.575 48.8333 88.1883 48.68 87.6283 48.56C87.0816 48.44 86.3016 48.3133 85.2883 48.18C84.075 48.02 83.0616 47.8 82.2483 47.52C81.435 47.24 80.8283 46.8467 80.4283 46.34C80.0283 45.82 79.8283 45.1333 79.8283 44.28C79.8283 43.5867 80.0083 42.98 80.3683 42.46C80.7283 41.94 81.3083 41.5333 82.1083 41.24C82.9083 40.9467 83.9683 40.8 85.2883 40.8C86.675 40.8 87.8616 40.8667 88.8483 41C89.835 41.1333 90.515 41.2667 90.8883 41.4V42L91.4883 44.2C91.155 44.0267 90.675 43.8467 90.0483 43.66C89.4216 43.4733 88.695 43.32 87.8683 43.2C87.0416 43.0667 86.1483 43 85.1883 43C84.5883 43 84.1216 43.0533 83.7883 43.16C83.455 43.2533 83.215 43.3933 83.0683 43.58C82.935 43.7533 82.8683 43.9733 82.8683 44.24C82.8683 44.56 82.9883 44.82 83.2283 45.02C83.4816 45.2067 83.8883 45.36 84.4483 45.48C85.0083 45.6 85.7616 45.7133 86.7083 45.82C88.1616 45.98 89.2816 46.22 90.0683 46.54C90.855 46.86 91.395 47.2733 91.6883 47.78C91.995 48.2733 92.1483 48.8733 92.1483 49.58C92.1483 50.1933 92.035 50.7333 91.8083 51.2C91.5816 51.6533 91.2283 52.0267 90.7483 52.32C90.2816 52.6133 89.675 52.8333 88.9283 52.98C88.195 53.1267 87.3216 53.2 86.3083 53.2ZM97.7694 53.2C96.8494 53.2 96.1827 53.0067 95.7694 52.62C95.3561 52.22 95.1494 51.5733 95.1494 50.68V45.64H93.3494V43.64C93.9627 43.64 94.4427 43.5667 94.7894 43.42C95.1361 43.26 95.3827 42.9867 95.5294 42.6C95.6761 42.2133 95.7494 41.6733 95.7494 40.98H97.9894V43.64H101.409C101.316 43.9067 101.223 44.24 101.129 44.64C101.049 45.0267 101.009 45.36 101.009 45.64H97.9894V49.58C97.9894 50.1933 98.0361 50.6133 98.1294 50.84C98.2227 51.0667 98.4427 51.18 98.7894 51.18C99.0161 51.18 99.2627 51.1 99.5294 50.94C99.8094 50.78 100.076 50.5867 100.329 50.36C100.596 50.12 100.816 49.8933 100.989 49.68V50.3L101.189 52.24C101.029 52.3733 100.789 52.52 100.469 52.68C100.149 52.8267 99.7561 52.9467 99.2894 53.04C98.8361 53.1467 98.3294 53.2 97.7694 53.2ZM106.342 53.2C105.142 53.2 104.182 52.9667 103.462 52.5C102.755 52.02 102.402 51.2533 102.402 50.2C102.402 49.4667 102.588 48.8733 102.962 48.42C103.335 47.9667 103.842 47.6333 104.482 47.42C105.135 47.1933 105.875 47.08 106.702 47.08C107.315 47.08 107.835 47.1333 108.262 47.24C108.702 47.3467 109.055 47.46 109.322 47.58C109.588 47.7 109.762 47.7867 109.842 47.84C109.842 47.28 109.782 46.8267 109.662 46.48C109.542 46.12 109.322 45.86 109.002 45.7C108.695 45.5267 108.262 45.44 107.702 45.44C106.888 45.44 106.168 45.52 105.542 45.68C104.915 45.84 104.402 46.0267 104.002 46.24C103.615 46.4533 103.348 46.6333 103.202 46.78V46.18L103.002 44.22C103.095 44.1667 103.342 44.08 103.742 43.96C104.142 43.84 104.688 43.7267 105.382 43.62C106.075 43.5 106.902 43.44 107.862 43.44C109.182 43.44 110.188 43.6333 110.882 44.02C111.575 44.3933 112.048 44.9333 112.302 45.64C112.568 46.3467 112.702 47.2 112.702 48.2V51.8C112.702 52.1733 112.742 52.4467 112.822 52.62C112.915 52.78 113.008 52.9067 113.102 53H109.862V52.58L109.902 52.2L109.862 52.16C109.755 52.28 109.602 52.4 109.402 52.52C109.202 52.64 108.955 52.7533 108.662 52.86C108.368 52.9533 108.028 53.0333 107.642 53.1C107.255 53.1667 106.822 53.2 106.342 53.2ZM107.282 51.18C107.842 51.18 108.308 51.14 108.682 51.06C109.068 50.9667 109.362 50.8467 109.562 50.7C109.762 50.54 109.862 50.3533 109.862 50.14C109.862 49.8333 109.628 49.58 109.162 49.38C108.708 49.18 108.088 49.08 107.302 49.08C106.542 49.08 106.002 49.1867 105.682 49.4C105.375 49.6133 105.222 49.88 105.222 50.2C105.222 50.6 105.402 50.8667 105.762 51C106.122 51.12 106.628 51.18 107.282 51.18ZM114.747 53C114.841 53 114.927 52.9067 115.007 52.72C115.101 52.5333 115.147 52.2267 115.147 51.8V45.04C115.147 44.6133 115.101 44.3133 115.007 44.14C114.927 43.9533 114.841 43.8533 114.747 43.84C115.334 43.84 115.934 43.8 116.547 43.72C117.161 43.6267 117.641 43.5333 117.987 43.44V44.24L117.947 44.58L117.987 44.62C118.081 44.4733 118.227 44.3133 118.427 44.14C118.641 43.9533 118.907 43.7933 119.227 43.66C119.561 43.5133 119.947 43.44 120.387 43.44C121.041 43.44 121.621 43.5333 122.127 43.72C122.634 43.8933 122.994 44.0733 123.207 44.26L122.607 46.94V47.54C122.407 47.26 122.134 46.9733 121.787 46.68C121.454 46.3867 121.081 46.14 120.667 45.94C120.267 45.74 119.854 45.64 119.427 45.64C118.947 45.64 118.587 45.8133 118.347 46.16C118.107 46.5067 117.987 47.0533 117.987 47.8V51.8C117.987 52.2267 118.027 52.5333 118.107 52.72C118.201 52.9067 118.294 53 118.387 53H114.747ZM128.433 53.2C127.513 53.2 126.847 53.0067 126.433 52.62C126.02 52.22 125.813 51.5733 125.813 50.68V45.64H124.013V43.64C124.627 43.64 125.107 43.5667 125.453 43.42C125.8 43.26 126.047 42.9867 126.193 42.6C126.34 42.2133 126.413 41.6733 126.413 40.98H128.653V43.64H132.073C131.98 43.9067 131.887 44.24 131.793 44.64C131.713 45.0267 131.673 45.36 131.673 45.64H128.653V49.58C128.653 50.1933 128.7 50.6133 128.793 50.84C128.887 51.0667 129.107 51.18 129.453 51.18C129.68 51.18 129.927 51.1 130.193 50.94C130.473 50.78 130.74 50.5867 130.993 50.36C131.26 50.12 131.48 49.8933 131.653 49.68V50.3L131.853 52.24C131.693 52.3733 131.453 52.52 131.133 52.68C130.813 52.8267 130.42 52.9467 129.953 53.04C129.5 53.1467 128.993 53.2 128.433 53.2Z" fill="#303131"/>
<rect width="139.657" height="60.6566" transform="translate(20 101)" fill="#F0EA6E"/>
<mask id="mask1_2034_416" style="mask-type:alpha" maskUnits="userSpaceOnUse" x="40" y="115" width="33" height="33">
<rect x="40" y="117.786" width="30" height="30" transform="rotate(-5.32904 40 117.786)" fill="#D9D9D9"/>
</mask>
<g mask="url(#mask1_2034_416)">
<path d="M54.6457 136.507L61.1693 131.41C61.3444 131.268 61.4213 131.083 61.4 130.855C61.3787 130.627 61.2689 130.459 61.0706 130.352L53.717 126.55C53.496 126.424 53.2824 126.434 53.0762 126.579C52.87 126.723 52.7785 126.92 52.8017 127.169L53.6318 136.068C53.655 136.317 53.7814 136.493 54.0108 136.598C54.2402 136.702 54.4518 136.672 54.6457 136.507ZM47.3003 142.214C46.6157 142.278 46.007 142.089 45.4741 141.647C44.9411 141.205 44.6427 140.641 44.5789 139.957L43.1857 125.022C43.1219 124.337 43.311 123.728 43.753 123.195C44.195 122.663 44.7582 122.364 45.4427 122.3L65.3563 120.443C66.0408 120.379 66.6496 120.568 67.1825 121.01C67.7154 121.452 68.0138 122.015 68.0777 122.7L69.4708 137.635C69.5347 138.319 69.3456 138.928 68.9036 139.461C68.4616 139.994 67.8983 140.292 67.2138 140.356L47.3003 142.214ZM47.0681 139.725L66.9816 137.867L65.5885 122.932L45.6749 124.789L47.0681 139.725Z" fill="#303131"/>
</g>
<path d="M88.8846 138.048C87.2859 138.048 85.8706 137.975 84.6386 137.828C83.4066 137.682 82.5193 137.535 81.9766 137.388V136.728L81.5366 133.934C81.8153 134.169 82.2773 134.418 82.9226 134.682C83.5679 134.946 84.3966 135.174 85.4086 135.364C86.4206 135.54 87.594 135.628 88.9286 135.628C89.7499 135.628 90.3806 135.577 90.8206 135.474C91.2606 135.357 91.5613 135.196 91.7226 134.99C91.8839 134.785 91.9646 134.543 91.9646 134.264C91.9646 133.912 91.8473 133.641 91.6126 133.45C91.378 133.245 90.9526 133.076 90.3366 132.944C89.7353 132.812 88.8773 132.673 87.7626 132.526C86.4279 132.35 85.3133 132.108 84.4186 131.8C83.5239 131.492 82.8566 131.06 82.4166 130.502C81.9766 129.93 81.7566 129.175 81.7566 128.236C81.7566 127.474 81.9546 126.806 82.3506 126.234C82.7466 125.662 83.3846 125.215 84.2646 124.892C85.1446 124.57 86.3106 124.408 87.7626 124.408C89.2879 124.408 90.5933 124.482 91.6786 124.628C92.764 124.775 93.512 124.922 93.9226 125.068V125.728L94.5826 128.148C94.216 127.958 93.688 127.76 92.9986 127.554C92.3093 127.349 91.5099 127.18 90.6006 127.048C89.6913 126.902 88.7086 126.828 87.6526 126.828C86.9926 126.828 86.4793 126.887 86.1126 127.004C85.7459 127.107 85.4819 127.261 85.3206 127.466C85.1739 127.657 85.1006 127.899 85.1006 128.192C85.1006 128.544 85.2326 128.83 85.4966 129.05C85.7753 129.256 86.2226 129.424 86.8386 129.556C87.4546 129.688 88.2833 129.813 89.3246 129.93C90.9233 130.106 92.1553 130.37 93.0206 130.722C93.886 131.074 94.48 131.529 94.8026 132.086C95.1399 132.629 95.3086 133.289 95.3086 134.066C95.3086 134.741 95.184 135.335 94.9346 135.848C94.6853 136.347 94.2966 136.758 93.7686 137.08C93.2553 137.403 92.588 137.645 91.7666 137.806C90.9599 137.968 89.9993 138.048 88.8846 138.048ZM101.492 138.048C100.48 138.048 99.7465 137.836 99.2918 137.41C98.8372 136.97 98.6098 136.259 98.6098 135.276V129.732H96.6298V127.532C97.3045 127.532 97.8325 127.452 98.2138 127.29C98.5952 127.114 98.8665 126.814 99.0278 126.388C99.1892 125.963 99.2698 125.369 99.2698 124.606H101.734V127.532H105.496C105.393 127.826 105.29 128.192 105.188 128.632C105.1 129.058 105.056 129.424 105.056 129.732H101.734V134.066C101.734 134.741 101.785 135.203 101.888 135.452C101.99 135.702 102.232 135.826 102.614 135.826C102.863 135.826 103.134 135.738 103.428 135.562C103.736 135.386 104.029 135.174 104.308 134.924C104.601 134.66 104.843 134.411 105.034 134.176V134.858L105.254 136.992C105.078 137.139 104.814 137.3 104.462 137.476C104.11 137.638 103.677 137.77 103.164 137.872C102.665 137.99 102.108 138.048 101.492 138.048ZM110.921 138.048C109.601 138.048 108.545 137.792 107.753 137.278C106.976 136.75 106.587 135.907 106.587 134.748C106.587 133.942 106.793 133.289 107.203 132.79C107.614 132.292 108.171 131.925 108.875 131.69C109.594 131.441 110.408 131.316 111.317 131.316C111.992 131.316 112.564 131.375 113.033 131.492C113.517 131.61 113.906 131.734 114.199 131.866C114.493 131.998 114.683 132.094 114.771 132.152C114.771 131.536 114.705 131.038 114.573 130.656C114.441 130.26 114.199 129.974 113.847 129.798C113.51 129.608 113.033 129.512 112.417 129.512C111.523 129.512 110.731 129.6 110.041 129.776C109.352 129.952 108.787 130.158 108.347 130.392C107.922 130.627 107.629 130.825 107.467 130.986V130.326L107.247 128.17C107.35 128.112 107.621 128.016 108.061 127.884C108.501 127.752 109.103 127.628 109.865 127.51C110.628 127.378 111.537 127.312 112.593 127.312C114.045 127.312 115.153 127.525 115.915 127.95C116.678 128.361 117.199 128.955 117.477 129.732C117.771 130.51 117.917 131.448 117.917 132.548V136.508C117.917 136.919 117.961 137.22 118.049 137.41C118.152 137.586 118.255 137.726 118.357 137.828H114.793V137.366L114.837 136.948L114.793 136.904C114.676 137.036 114.507 137.168 114.287 137.3C114.067 137.432 113.796 137.557 113.473 137.674C113.151 137.777 112.777 137.865 112.351 137.938C111.926 138.012 111.449 138.048 110.921 138.048ZM111.955 135.826C112.571 135.826 113.085 135.782 113.495 135.694C113.921 135.592 114.243 135.46 114.463 135.298C114.683 135.122 114.793 134.917 114.793 134.682C114.793 134.345 114.537 134.066 114.023 133.846C113.525 133.626 112.843 133.516 111.977 133.516C111.141 133.516 110.547 133.634 110.195 133.868C109.858 134.103 109.689 134.396 109.689 134.748C109.689 135.188 109.887 135.482 110.283 135.628C110.679 135.76 111.237 135.826 111.955 135.826ZM120.168 137.828C120.27 137.828 120.366 137.726 120.454 137.52C120.556 137.315 120.608 136.978 120.608 136.508V129.072C120.608 128.603 120.556 128.273 120.454 128.082C120.366 127.877 120.27 127.767 120.168 127.752C120.813 127.752 121.473 127.708 122.148 127.62C122.822 127.518 123.35 127.415 123.732 127.312V128.192L123.688 128.566L123.732 128.61C123.834 128.449 123.996 128.273 124.216 128.082C124.45 127.877 124.744 127.701 125.096 127.554C125.462 127.393 125.888 127.312 126.372 127.312C127.09 127.312 127.728 127.415 128.286 127.62C128.843 127.811 129.239 128.009 129.474 128.214L128.814 131.162V131.822C128.594 131.514 128.293 131.199 127.912 130.876C127.545 130.554 127.134 130.282 126.68 130.062C126.24 129.842 125.785 129.732 125.316 129.732C124.788 129.732 124.392 129.923 124.128 130.304C123.864 130.686 123.732 131.287 123.732 132.108V136.508C123.732 136.978 123.776 137.315 123.864 137.52C123.966 137.726 124.069 137.828 124.172 137.828H120.168ZM135.222 138.048C134.21 138.048 133.477 137.836 133.022 137.41C132.568 136.97 132.34 136.259 132.34 135.276V129.732H130.36V127.532C131.035 127.532 131.563 127.452 131.944 127.29C132.326 127.114 132.597 126.814 132.758 126.388C132.92 125.963 133 125.369 133 124.606H135.464V127.532H139.226C139.124 127.826 139.021 128.192 138.918 128.632C138.83 129.058 138.786 129.424 138.786 129.732H135.464V134.066C135.464 134.741 135.516 135.203 135.618 135.452C135.721 135.702 135.963 135.826 136.344 135.826C136.594 135.826 136.865 135.738 137.158 135.562C137.466 135.386 137.76 135.174 138.038 134.924C138.332 134.66 138.574 134.411 138.764 134.176V134.858L138.984 136.992C138.808 137.139 138.544 137.3 138.192 137.476C137.84 137.638 137.408 137.77 136.894 137.872C136.396 137.99 135.838 138.048 135.222 138.048Z" fill="#303131"/>
<rect width="126" height="53" transform="translate(26.8283 189.657)" fill="#DBDBD6"/>
<mask id="mask2_2034_416" style="mask-type:alpha" maskUnits="userSpaceOnUse" x="46" y="204" width="25" height="25">
<rect x="46.8283" y="204.157" width="24" height="24" fill="#D9D9D9"/>
</mask>
<g mask="url(#mask2_2034_416)">
<path d="M57.1033 220.157L62.6783 216.582C62.8283 216.482 62.9033 216.34 62.9033 216.157C62.9033 215.973 62.8283 215.832 62.6783 215.732L57.1033 212.157C56.9366 212.04 56.7658 212.032 56.5908 212.132C56.4158 212.232 56.3283 212.382 56.3283 212.582V219.732C56.3283 219.932 56.4158 220.082 56.5908 220.182C56.7658 220.282 56.9366 220.273 57.1033 220.157ZM50.8283 224.157C50.2783 224.157 49.8075 223.961 49.4158 223.569C49.0241 223.177 48.8283 222.707 48.8283 222.157V210.157C48.8283 209.607 49.0241 209.136 49.4158 208.744C49.8075 208.352 50.2783 208.157 50.8283 208.157H66.8283C67.3783 208.157 67.8491 208.352 68.2408 208.744C68.6325 209.136 68.8283 209.607 68.8283 210.157V222.157C68.8283 222.707 68.6325 223.177 68.2408 223.569C67.8491 223.961 67.3783 224.157 66.8283 224.157H50.8283ZM50.8283 222.157H66.8283V210.157H50.8283V222.157Z" fill="#A3A1A1"/>
</g>
<path d="M86.3083 222.857C84.855 222.857 83.5683 222.79 82.4483 222.657C81.3283 222.523 80.5216 222.39 80.0283 222.257V221.657L79.6283 219.117C79.8816 219.33 80.3016 219.557 80.8883 219.797C81.475 220.037 82.2283 220.243 83.1483 220.417C84.0683 220.577 85.135 220.657 86.3483 220.657C87.095 220.657 87.6683 220.61 88.0683 220.517C88.4683 220.41 88.7416 220.263 88.8883 220.077C89.035 219.89 89.1083 219.67 89.1083 219.417C89.1083 219.097 89.0016 218.85 88.7883 218.677C88.575 218.49 88.1883 218.337 87.6283 218.217C87.0816 218.097 86.3016 217.97 85.2883 217.837C84.075 217.677 83.0616 217.457 82.2483 217.177C81.435 216.897 80.8283 216.503 80.4283 215.997C80.0283 215.477 79.8283 214.79 79.8283 213.937C79.8283 213.243 80.0083 212.637 80.3683 212.117C80.7283 211.597 81.3083 211.19 82.1083 210.897C82.9083 210.603 83.9683 210.457 85.2883 210.457C86.675 210.457 87.8616 210.523 88.8483 210.657C89.835 210.79 90.515 210.923 90.8883 211.057V211.657L91.4883 213.857C91.155 213.683 90.675 213.503 90.0483 213.317C89.4216 213.13 88.695 212.977 87.8683 212.857C87.0416 212.723 86.1483 212.657 85.1883 212.657C84.5883 212.657 84.1216 212.71 83.7883 212.817C83.455 212.91 83.215 213.05 83.0683 213.237C82.935 213.41 82.8683 213.63 82.8683 213.897C82.8683 214.217 82.9883 214.477 83.2283 214.677C83.4816 214.863 83.8883 215.017 84.4483 215.137C85.0083 215.257 85.7616 215.37 86.7083 215.477C88.1616 215.637 89.2816 215.877 90.0683 216.197C90.855 216.517 91.395 216.93 91.6883 217.437C91.995 217.93 92.1483 218.53 92.1483 219.237C92.1483 219.85 92.035 220.39 91.8083 220.857C91.5816 221.31 91.2283 221.683 90.7483 221.977C90.2816 222.27 89.675 222.49 88.9283 222.637C88.195 222.783 87.3216 222.857 86.3083 222.857ZM97.7694 222.857C96.8494 222.857 96.1827 222.663 95.7694 222.277C95.3561 221.877 95.1494 221.23 95.1494 220.337V215.297H93.3494V213.297C93.9627 213.297 94.4427 213.223 94.7894 213.077C95.1361 212.917 95.3827 212.643 95.5294 212.257C95.6761 211.87 95.7494 211.33 95.7494 210.637H97.9894V213.297H101.409C101.316 213.563 101.223 213.897 101.129 214.297C101.049 214.683 101.009 215.017 101.009 215.297H97.9894V219.237C97.9894 219.85 98.0361 220.27 98.1294 220.497C98.2227 220.723 98.4427 220.837 98.7894 220.837C99.0161 220.837 99.2627 220.757 99.5294 220.597C99.8094 220.437 100.076 220.243 100.329 220.017C100.596 219.777 100.816 219.55 100.989 219.337V219.957L101.189 221.897C101.029 222.03 100.789 222.177 100.469 222.337C100.149 222.483 99.7561 222.603 99.2894 222.697C98.8361 222.803 98.3294 222.857 97.7694 222.857ZM106.342 222.857C105.142 222.857 104.182 222.623 103.462 222.157C102.755 221.677 102.402 220.91 102.402 219.857C102.402 219.123 102.588 218.53 102.962 218.077C103.335 217.623 103.842 217.29 104.482 217.077C105.135 216.85 105.875 216.737 106.702 216.737C107.315 216.737 107.835 216.79 108.262 216.897C108.702 217.003 109.055 217.117 109.322 217.237C109.588 217.357 109.762 217.443 109.842 217.497C109.842 216.937 109.782 216.483 109.662 216.137C109.542 215.777 109.322 215.517 109.002 215.357C108.695 215.183 108.262 215.097 107.702 215.097C106.888 215.097 106.168 215.177 105.542 215.337C104.915 215.497 104.402 215.683 104.002 215.897C103.615 216.11 103.348 216.29 103.202 216.437V215.837L103.002 213.877C103.095 213.823 103.342 213.737 103.742 213.617C104.142 213.497 104.688 213.383 105.382 213.277C106.075 213.157 106.902 213.097 107.862 213.097C109.182 213.097 110.188 213.29 110.882 213.677C111.575 214.05 112.048 214.59 112.302 215.297C112.568 216.003 112.702 216.857 112.702 217.857V221.457C112.702 221.83 112.742 222.103 112.822 222.277C112.915 222.437 113.008 222.563 113.102 222.657H109.862V222.237L109.902 221.857L109.862 221.817C109.755 221.937 109.602 222.057 109.402 222.177C109.202 222.297 108.955 222.41 108.662 222.517C108.368 222.61 108.028 222.69 107.642 222.757C107.255 222.823 106.822 222.857 106.342 222.857ZM107.282 220.837C107.842 220.837 108.308 220.797 108.682 220.717C109.068 220.623 109.362 220.503 109.562 220.357C109.762 220.197 109.862 220.01 109.862 219.797C109.862 219.49 109.628 219.237 109.162 219.037C108.708 218.837 108.088 218.737 107.302 218.737C106.542 218.737 106.002 218.843 105.682 219.057C105.375 219.27 105.222 219.537 105.222 219.857C105.222 220.257 105.402 220.523 105.762 220.657C106.122 220.777 106.628 220.837 107.282 220.837ZM114.747 222.657C114.841 222.657 114.927 222.563 115.007 222.377C115.101 222.19 115.147 221.883 115.147 221.457V214.697C115.147 214.27 115.101 213.97 115.007 213.797C114.927 213.61 114.841 213.51 114.747 213.497C115.334 213.497 115.934 213.457 116.547 213.377C117.161 213.283 117.641 213.19 117.987 213.097V213.897L117.947 214.237L117.987 214.277C118.081 214.13 118.227 213.97 118.427 213.797C118.641 213.61 118.907 213.45 119.227 213.317C119.561 213.17 119.947 213.097 120.387 213.097C121.041 213.097 121.621 213.19 122.127 213.377C122.634 213.55 122.994 213.73 123.207 213.917L122.607 216.597V217.197C122.407 216.917 122.134 216.63 121.787 216.337C121.454 216.043 121.081 215.797 120.667 215.597C120.267 215.397 119.854 215.297 119.427 215.297C118.947 215.297 118.587 215.47 118.347 215.817C118.107 216.163 117.987 216.71 117.987 217.457V221.457C117.987 221.883 118.027 222.19 118.107 222.377C118.201 222.563 118.294 222.657 118.387 222.657H114.747ZM128.433 222.857C127.513 222.857 126.847 222.663 126.433 222.277C126.02 221.877 125.813 221.23 125.813 220.337V215.297H124.013V213.297C124.627 213.297 125.107 213.223 125.453 213.077C125.8 212.917 126.047 212.643 126.193 212.257C126.34 211.87 126.413 211.33 126.413 210.637H128.653V213.297H132.073C131.98 213.563 131.887 213.897 131.793 214.297C131.713 214.683 131.673 215.017 131.673 215.297H128.653V219.237C128.653 219.85 128.7 220.27 128.793 220.497C128.887 220.723 129.107 220.837 129.453 220.837C129.68 220.837 129.927 220.757 130.193 220.597C130.473 220.437 130.74 220.243 130.993 220.017C131.26 219.777 131.48 219.55 131.653 219.337V219.957L131.853 221.897C131.693 222.03 131.453 222.177 131.133 222.337C130.813 222.483 130.42 222.603 129.953 222.697C129.5 222.803 128.993 222.857 128.433 222.857Z" fill="#A3A1A1"/>
</svg>
