<svg width="176" height="49" viewBox="0 0 176 49" fill="none" xmlns="http://www.w3.org/2000/svg">
<path d="M0.658966 11.4912C0.658966 5.96836 5.13612 1.49121 10.659 1.49121H163.659C169.182 1.49121 173.659 5.96836 173.659 11.4912V37.4912C173.659 43.0141 169.182 47.4912 163.659 47.4912H10.659C5.13612 47.4912 0.658966 43.0141 0.658966 37.4912V11.4912Z" fill="#FFF9F2"/>
<path d="M171.171 2.78352C173.352 4.70026 174.855 7.30048 175.079 10.7516C175.079 10.7534 175.079 10.7553 175.079 10.7571C175.092 10.9993 175.098 11.2412 175.095 11.4912C175.093 11.7175 175.09 11.9473 175.088 12.181C175.049 15.8723 175.003 20.6686 174.977 27.9007C174.964 31.4455 174.936 34.6663 174.901 37.4912C174.854 41.5336 172.699 44.4394 170.875 45.9043C170.243 46.3841 169.62 46.984 167.688 47.7783C166.716 48.1491 165.414 48.5213 163.659 48.5221C163.167 48.5204 162.639 48.5186 162.068 48.5167C160.784 48.5124 159.29 48.5075 157.541 48.5014C151.751 48.481 142.676 48.4873 134.315 48.4933C129.24 48.4969 124.427 48.5004 120.77 48.4975C115.424 48.4933 110.265 48.4745 104.656 48.4539C99.5196 48.4351 94.0058 48.4148 87.6263 48.4032C82.7313 48.3943 77.9757 48.3182 73.1427 48.2331C72.5277 48.2223 71.91 48.2113 71.2918 48.2003C67.027 48.1244 62.6673 48.0467 57.9529 48.0022C49.5493 47.9229 42.8434 47.9557 35.4185 47.9919C32.5145 48.0061 29.5001 48.0209 26.231 48.0297C22.1036 48.0407 16.5344 48.0412 10.659 48.0389C9.09415 48.0409 7.50576 47.6855 6.07727 46.9921C5.47357 46.7001 4.89729 46.3497 4.36095 45.9492C4.35823 45.9472 4.35552 45.9452 4.35281 45.9432C1.6364 43.9437 0.0809406 40.6132 0.118229 37.4912C0.118822 34.0981 0.117853 30.9616 0.113554 28.3345C0.100763 20.5179 0.0705391 17.5769 0.0452539 15.124C0.0357491 14.2019 0.026873 13.3483 0.0199846 12.3307C0.0181577 12.0607 0.0164904 11.7807 0.0149708 11.4912C-0.253608 7.65354 3.10788 1.86506 8.81238 0.996218C8.83487 0.992287 8.85738 0.988427 8.87991 0.984638C9.86379 0.818117 10.6656 0.925165 10.6589 1.02582C10.651 1.1321 9.86944 1.19575 8.92589 1.35775C5.89067 1.84941 3.30096 3.79692 1.91893 6.07259C1.92148 6.2381 1.60165 6.87527 1.28247 7.66028C1.00231 8.35842 0.546598 9.6383 0.556068 11.4912C0.584433 14.7687 0.637315 19.7281 0.707748 26.1849C0.723986 25.4963 0.739787 24.9196 0.754808 24.4142C0.772439 23.821 0.787599 23.3665 0.800585 22.9758C0.827653 22.1614 0.845514 21.6195 0.858631 20.6577C0.873208 18.4798 0.876499 15.0847 0.879484 11.4912C0.879553 11.4102 0.880607 11.3292 0.882641 11.2485C0.903477 10.3348 1.14637 9.62812 1.24412 9.65533C1.34687 9.68107 1.27537 10.3986 1.25755 11.2727C1.25716 11.2899 1.25682 11.307 1.25652 11.3242C1.2555 11.3797 1.25497 11.4354 1.25492 11.4912C1.25195 15.0802 1.24873 18.6152 1.23309 20.9049C1.22905 21.497 1.22426 22.0069 1.21991 22.3898C1.21643 22.696 1.21171 23.0781 1.20563 23.2904C1.20482 23.3186 1.20318 23.3724 1.20068 23.4365C1.20062 23.4376 1.20056 23.4387 1.2005 23.4397C1.19912 23.4756 1.19212 23.6586 1.17688 23.8539C1.1738 23.8934 1.16693 23.9791 1.15582 24.0787C1.15497 24.1044 1.15411 24.13 1.15326 24.1557C1.14139 24.5138 1.1293 24.8792 1.11755 25.2747C1.07166 26.8188 1.01382 29.2645 0.952567 34.3578C0.941476 35.2801 0.93159 36.3278 0.92286 37.4912C0.650901 41.2592 4.12977 47.2627 10.659 47.2783C11.8403 47.2791 13.0553 47.2796 14.3016 47.2796C13.6341 47.2719 12.965 47.2644 12.2965 47.2571C11.7514 47.2512 11.2055 47.2455 10.659 47.2399C9.54532 47.2288 8.43713 47.0283 7.39449 46.6446C6.80404 46.4274 6.24279 46.1567 5.70324 45.8287C4.83462 45.3006 4.04878 44.634 3.38572 43.8639C2.93752 43.3436 2.54418 42.7751 2.21637 42.1726C2.21561 42.1713 2.21486 42.1699 2.21411 42.1686C1.75933 41.3323 1.42892 40.4276 1.23963 39.4869C1.17365 39.1581 1.12559 38.83 1.09433 38.5015C1.06249 38.1663 1.04813 37.8307 1.05134 37.4912C1.06069 36.4783 1.07145 35.4465 1.08825 34.3032C1.092 34.1159 1.09685 33.9124 1.10089 33.7606C1.10514 33.5974 1.10948 33.4403 1.11389 33.2918C1.11778 33.1608 1.12174 33.0359 1.12542 32.9162C1.12591 32.9001 1.1264 32.8841 1.12689 32.868C1.13101 32.734 1.13482 32.6059 1.13842 32.4827C1.14202 32.3598 1.14549 32.2414 1.1485 32.1247C1.1485 32.1237 1.1485 32.1226 1.1485 32.1215C1.15158 31.9996 1.1539 31.9071 1.15655 31.778C1.15988 31.6158 1.16244 31.4764 1.16498 31.3076C1.16744 31.1443 1.16964 30.9739 1.17157 30.8019C1.17349 30.6299 1.17517 30.4548 1.17669 30.277C1.17822 30.0991 1.17964 29.9182 1.18091 29.736C1.18217 29.5538 1.18327 29.3693 1.18439 29.1837C1.1855 28.9981 1.18662 28.8104 1.18768 28.6218C1.19016 28.1877 1.21096 27.7715 1.24628 27.466C1.2816 27.1606 1.32831 26.9904 1.37665 26.9924C1.425 26.9945 1.47147 27.1688 1.50629 27.4772C1.5411 27.7858 1.5613 28.2036 1.56306 28.6379C1.56353 28.7561 1.56406 28.875 1.56452 28.9943C1.5648 29.0651 1.56499 29.1366 1.56526 29.2078C1.56596 29.3992 1.56674 29.5927 1.56727 29.7873C1.5678 29.9818 1.56815 30.1781 1.56837 30.3765C1.56859 30.5755 1.56866 30.7772 1.56837 30.9817C1.56808 31.1858 1.56746 31.3943 1.56635 31.6062C1.56532 31.8129 1.5635 32.0487 1.56123 32.2596C1.55963 32.4137 1.55691 32.6036 1.55445 32.7621C1.55188 32.9274 1.54902 33.09 1.54603 33.2469C1.54304 33.4041 1.53986 33.5561 1.53687 33.7012C1.53657 33.7167 1.53626 33.7322 1.53596 33.7477C1.53331 33.876 1.53074 33.9999 1.52845 34.117C1.52589 34.2478 1.52372 34.3717 1.52186 34.4894C1.51977 34.619 1.51894 34.6978 1.51801 34.7944C1.51419 35.604 1.51329 36.5348 1.51343 37.4912C1.51331 37.9984 1.55598 38.5116 1.6395 39.0084C1.66818 39.1794 1.70127 39.3473 1.73897 39.5138C1.93849 40.3948 2.27063 41.2437 2.71974 42.0256C3.04589 42.5937 3.43394 43.1274 3.87489 43.6145C4.52348 44.3314 5.28829 44.9472 6.12857 45.427C6.65054 45.725 7.1914 45.9671 7.75957 46.1572C8.69013 46.4685 9.67089 46.6269 10.659 46.6272C11.3007 46.6276 11.9429 46.6282 12.5855 46.6291C14.3047 46.6313 16.0347 46.6352 17.7659 46.6419C19.4905 46.6485 21.2822 46.6584 23.0123 46.6735C24.2841 46.6848 25.5881 46.7045 26.7945 46.7248C27.4428 46.7358 28.0777 46.7469 28.7032 46.758C28.7054 46.758 28.7075 46.7581 28.7097 46.7581C29.2587 46.7679 29.8008 46.7775 30.3391 46.7867C31.4931 46.8065 32.6266 46.8241 33.7601 46.8389C34.8918 46.8537 36.0187 46.8659 37.1538 46.8752C38.2805 46.8844 39.4261 46.891 40.5604 46.8951C41.7004 46.8992 42.8197 46.9009 43.9959 46.9008C45.5423 46.9004 47.078 46.8971 48.6546 46.8931C50.2197 46.889 51.7973 46.884 53.3792 46.8788C53.9321 46.877 54.4861 46.8753 55.0407 46.8735C55.0429 46.8735 55.045 46.8735 55.0472 46.8735C56.0732 46.8701 57.1016 46.8667 58.1311 46.8634C59.7203 46.8584 61.3138 46.8536 62.9134 46.8497C64.5126 46.8458 66.1217 46.8428 67.7391 46.8416C69.3567 46.8406 71.018 46.8412 72.6868 46.8473C74.1756 46.8526 75.6762 46.8596 77.1433 46.8665C77.5307 46.8684 77.9181 46.8702 78.3056 46.872C80.1439 46.8806 81.9236 46.8874 83.6835 46.8887C85.4422 46.8901 87.1996 46.8862 88.9732 46.8781C90.7413 46.87 92.5318 46.8578 94.3367 46.8431C96.1494 46.8284 97.9387 46.8114 99.7644 46.7928C101.576 46.7742 103.396 46.7543 105.239 46.7332C106.263 46.7216 107.352 46.7109 108.382 46.7017C109.421 46.6925 110.454 46.6844 111.474 46.6768C111.888 46.6738 112.299 46.6708 112.708 46.6679C113.305 46.6635 113.896 46.6593 114.477 46.6549C115.459 46.6474 116.417 46.6394 117.348 46.63C118.278 46.6206 119.181 46.6096 120.053 46.5963C120.956 46.5824 121.699 46.5683 122.589 46.5481C124.757 46.5092 126.099 46.4973 127.592 46.4838C127.886 46.4812 128.186 46.4784 128.499 46.4754C130.288 46.4604 132.076 46.4491 133.84 46.4406C135.621 46.4321 137.374 46.4264 139.15 46.423C140.909 46.4197 142.68 46.4189 144.445 46.4203C146.206 46.4217 147.965 46.4253 149.728 46.4311C151.49 46.4369 153.288 46.4452 155.014 46.4553C156.012 46.4611 157.072 46.4688 158.057 46.4767C158.767 46.4824 159.467 46.4884 160.153 46.4943C160.433 46.4967 160.712 46.4991 160.988 46.5014C161.904 46.5092 162.796 46.5164 163.659 46.522C163.689 46.5222 163.719 46.5223 163.748 46.5222C164.558 46.5201 165.336 46.4103 166.074 46.2079C166.813 46.0052 167.508 45.7109 168.157 45.3341C168.826 44.9396 169.346 44.5475 169.935 43.9707C170.316 43.5926 170.655 43.1891 170.957 42.7617C171.408 42.1216 171.772 41.4292 172.041 40.6975C172.31 39.966 172.478 39.2124 172.549 38.4439C172.572 38.198 172.585 37.9351 172.586 37.6872C172.587 37.622 172.586 37.5566 172.585 37.4912C172.575 36.7068 172.565 35.9299 172.553 35.1537C172.541 34.3072 172.529 33.4685 172.515 32.6333C172.502 31.7946 172.488 30.9699 172.472 30.1289C172.446 28.6995 172.434 27.3313 172.426 26.1332C172.418 24.9207 172.414 23.7877 172.41 22.6849C172.409 22.4783 172.408 22.2718 172.407 22.0652C172.404 21.1757 172.401 20.3007 172.397 19.4389C172.392 18.3767 172.387 17.3338 172.38 16.2876C172.373 15.2504 172.366 14.203 172.357 13.1716C172.352 12.6045 172.347 12.051 172.341 11.4912C172.336 11.082 172.304 10.6737 172.238 10.2545C172.096 9.34645 171.81 8.44709 171.33 7.54872C170.854 6.65938 170.192 5.81346 169.387 5.1117C168.584 4.40939 167.639 3.85024 166.633 3.48851C165.68 3.14378 164.666 2.97288 163.659 2.97908C163.592 2.97938 163.526 2.97968 163.46 2.97998C162.211 2.9855 160.969 2.98873 159.734 2.99023C158.501 2.99174 157.228 2.99147 156.036 2.98968C154.107 2.98678 152.186 2.98268 150.262 2.97814C148.348 2.97359 146.429 2.9685 144.513 2.96313C142.601 2.95775 140.687 2.95214 138.776 2.94628C136.864 2.94043 134.952 2.93441 133.043 2.92834C132.621 2.927 132.198 2.92565 131.776 2.92431C130.29 2.91957 128.803 2.91483 127.323 2.91021C127.313 2.91015 127.303 2.91009 127.293 2.91003C125.387 2.90415 123.517 2.89843 121.627 2.89355C120.934 2.8918 120.267 2.89016 119.59 2.88879C118.912 2.88742 118.247 2.88631 117.575 2.88549C116.903 2.88468 116.235 2.88422 115.577 2.88421C114.911 2.88422 114.263 2.88465 113.608 2.88586C113.009 2.88692 112.413 2.88882 111.762 2.8908C111.703 2.89098 111.643 2.89117 111.584 2.89135C110.872 2.89353 110.062 2.89491 109.309 2.89391C107.315 2.89096 105.372 2.88956 103.394 2.8897C101.414 2.88984 99.4389 2.89145 97.4473 2.89373C96.6696 2.89461 95.8883 2.89569 95.1067 2.89666C93.8908 2.89817 92.6705 2.89969 91.4465 2.90087C89.4325 2.90283 87.4143 2.90372 85.383 2.90252C83.3595 2.90132 81.323 2.89793 79.2955 2.89208C77.2697 2.88626 75.2263 2.878 73.2096 2.86755C70.9627 2.85585 68.7287 2.84294 66.4848 2.82946C64.2444 2.81596 62.0028 2.80183 59.7712 2.78734C57.5313 2.77283 55.2972 2.75793 53.0624 2.74266C50.8262 2.72739 48.5915 2.71176 46.3552 2.69579C45.0168 2.68623 43.6788 2.67649 42.3402 2.66667C41.632 2.67548 40.9529 2.68412 40.2998 2.69231C35.4734 2.75282 31.9838 2.79647 27.3799 2.82653C26.939 2.83108 26.5802 2.83757 26.1437 2.84539C26.0605 2.84688 25.9721 2.84838 25.8821 2.84997C25.3117 2.86004 24.6566 2.87058 23.7453 2.87725C21.9275 2.89055 19.1411 2.88766 15.5404 2.79998C14.6308 2.77783 14.052 2.67785 14.248 2.57658C14.3859 2.50555 14.869 2.45277 15.4585 2.43522C14.3693 2.42317 13.2831 2.41057 12.1996 2.39805C11.7671 2.39303 11.3612 2.36973 11.0726 2.33268C10.7843 2.29562 10.6368 2.24801 10.6617 2.19974C10.6866 2.15146 10.8829 2.10618 11.2075 2.07321C11.532 2.04028 11.9578 2.02244 12.3923 2.02322C13.5447 2.02537 14.6933 2.02755 15.8422 2.02908C16.9919 2.03064 18.1363 2.03154 19.2841 2.03201C20.4315 2.03248 21.5785 2.03243 22.7291 2.03201C23.8753 2.03158 25.0237 2.03088 26.1742 2.02981C27.3321 2.02877 28.468 2.02731 29.6226 2.02579C30.3143 2.02485 31.0143 2.02393 31.7015 2.02286C31.9576 2.02249 32.2076 2.02198 32.4576 2.02157C32.662 2.02124 32.8674 2.02098 33.0789 2.02066C35.3034 2.01698 37.5492 2.01286 39.7748 2.00839C42.011 2.00394 44.245 1.99924 46.4788 1.99429C48.7139 1.98935 50.9471 1.98408 53.1812 1.97873C55.4142 1.97337 57.646 1.96784 59.8819 1.96206C62.1097 1.95627 64.3465 1.95034 66.5779 1.94394C68.3039 1.93899 70.0153 1.93367 71.7295 1.928C72.4043 1.91832 73.0722 1.90917 73.7314 1.90035C75.65 1.87471 77.5714 1.84105 79.4641 1.8077C76.0953 1.82428 73.3892 1.85018 70.8128 1.8749C70.4674 1.87822 70.1243 1.88155 69.7822 1.88479C66.2902 1.91791 62.9167 1.94595 58.3793 1.93972C45.4745 1.92201 37.9919 1.90909 33.3293 1.88497C28.6676 1.86086 26.6646 1.82511 24.7952 1.75405C22.1538 1.65362 17.0556 1.5965 14.4937 1.59438C13.563 1.59361 12.8118 1.50888 12.8161 1.40522C12.8206 1.30154 13.5789 1.21805 14.5097 1.21882C17.2149 1.22106 22.7316 1.27912 25.8756 1.39863C27.276 1.45187 28.8863 1.48622 33.477 1.50996C38.0682 1.53371 45.4819 1.54642 58.4114 1.56416C62.7855 1.57017 66.0319 1.54346 69.4868 1.5107C69.8256 1.50748 70.1668 1.50411 70.511 1.50081C70.5131 1.50081 70.5153 1.50081 70.5174 1.50081C73.691 1.47034 77.1465 1.43713 81.8063 1.42244C92.5465 1.38856 106.994 1.32288 110.423 1.28584C111.096 1.27856 111.747 1.2704 112.433 1.26185C115.067 1.22903 118.248 1.18944 125.414 1.16315C126.982 1.1574 128.818 1.15406 130.821 1.15253C133.828 1.102 136.746 1.05512 139.285 1.02728C141.475 1.00326 143.495 0.959062 145.452 0.910642C146.016 0.896701 146.583 0.882124 147.149 0.867611C148.515 0.832606 149.881 0.79762 151.212 0.770562C152.274 0.748993 153.385 0.723074 154.559 0.69567C157.211 0.63381 160.188 0.564349 163.659 0.520089C165.985 0.483271 168.597 1.24569 170.746 3.05655C173.377 5.253 174.696 8.50481 174.666 11.4912C174.658 14.9959 174.646 18.2035 174.635 21.147C174.659 17.3062 174.688 14.3411 174.714 11.8712C174.716 11.7431 174.717 11.6164 174.718 11.4912C174.722 11.1252 174.707 10.7717 174.678 10.4287C174.34 7.07139 172.887 4.81483 170.943 3.08284C168.602 1.06058 165.895 0.364866 163.659 0.375458C157.393 0.390552 154.093 0.425708 150.482 0.495164C149.223 0.519377 147.834 0.551635 146.338 0.586353C143.348 0.655742 139.928 0.735076 136.254 0.78045C132.831 0.822707 129.003 0.88509 124.947 0.951109C124.945 0.951109 124.944 0.951109 124.942 0.951109C124.15 0.96401 123.348 0.977048 122.539 0.990112C117.608 1.06977 112.421 1.14986 107.372 1.20032C106.832 1.20572 106.185 1.21316 105.442 1.22175C101.155 1.27129 93.6294 1.35827 84.4391 1.3025C82.4205 1.29024 80.323 1.26429 77.9294 1.23456C77.2003 1.22551 76.4433 1.216 75.653 1.20655C72.241 1.16575 68.0955 1.1224 62.5757 1.09632C58.0203 1.07479 52.4685 1.06447 46.7036 1.05365C43.8639 1.04832 40.9725 1.04279 38.1229 1.03589C29.5154 1.01505 21.6262 0.982004 13.752 0.948912C13.7504 0.948912 13.7488 0.948912 13.7472 0.948912C12.8169 0.945002 12.0883 0.857697 12.1209 0.754082C12.154 0.65052 12.9346 0.569656 13.8644 0.573535C21.7432 0.606647 29.6083 0.639746 38.1871 0.660513C40.9934 0.667306 43.8621 0.672781 46.6907 0.678091C52.4837 0.688967 58.1127 0.699396 62.7106 0.721122C68.3243 0.747651 72.5457 0.791823 76.0045 0.833186C76.8376 0.843148 77.6208 0.85289 78.3644 0.862117C80.7315 0.891494 82.6994 0.91605 84.6141 0.927671C93.5126 0.981676 100.754 0.898154 105.057 0.848567C105.82 0.839772 106.491 0.83212 107.062 0.826411C112.012 0.776938 117.119 0.69816 122.046 0.61858C122.846 0.605669 123.641 0.592792 124.43 0.579944C124.432 0.579883 124.433 0.579822 124.435 0.579761C128.49 0.513749 132.387 0.450314 135.873 0.407271C139.412 0.36358 142.498 0.291617 145.385 0.224343C146.934 0.188245 148.426 0.153624 149.899 0.12528C153.746 0.0512834 157.247 0.0151675 163.659 -4.00543e-05C165.984 -0.0113556 168.772 0.71889 171.171 2.78352ZM17.1425 2.45335C19.3813 2.5004 21.2054 2.51032 22.5638 2.50718C21.4101 2.49649 20.2592 2.48528 19.1075 2.47367C18.4519 2.46707 17.7971 2.4603 17.1425 2.45335ZM131.096 1.52772C130.733 1.53383 130.367 1.54001 130.001 1.54622C131.013 1.54328 132.026 1.54054 133.036 1.5378C134.278 1.53443 135.519 1.53124 136.759 1.52809C134.787 1.52686 132.875 1.5265 131.096 1.52772ZM170.517 3.35498C168.415 1.58033 165.894 0.861932 163.659 0.89805C160.591 0.939419 157.918 1.00161 155.407 1.06006C154.184 1.08853 152.999 1.11605 151.826 1.1399C151.339 1.14978 150.853 1.16071 150.363 1.17231C153.217 1.17819 155.84 1.18438 157.987 1.18952C160.167 1.19474 162.027 1.20189 163.659 1.21015C166.938 1.26381 169.146 2.60474 170.694 4.06922C171.376 4.72804 171.943 5.4507 172.415 6.2495C172.821 6.90094 173.167 7.62659 173.422 8.3946C173.743 9.35349 173.928 10.4361 173.937 11.4912C173.939 11.6136 173.94 11.7355 173.941 11.8568C173.954 12.9981 173.966 14.1579 173.975 15.297C173.985 16.4456 173.993 17.5836 174 18.7165C174.006 19.7824 174.012 20.8447 174.017 21.8726C174.018 21.9315 174.018 21.9903 174.018 22.0492C174.024 23.1356 174.03 24.1925 174.037 25.1636C174.045 26.1521 174.054 26.9739 174.068 27.7033C174.085 28.6141 174.102 29.5485 174.118 30.4725C174.133 31.3975 174.147 32.3186 174.161 33.2369C174.174 34.1572 174.187 35.0684 174.199 35.9821C174.203 36.2775 174.207 36.5865 174.211 36.8795C174.212 37.0145 174.214 37.1495 174.216 37.284C174.217 35.4967 174.219 33.641 174.222 31.7231C174.227 28.9523 174.239 25.9943 174.252 22.7315C174.266 19.3547 174.282 15.6514 174.291 11.4912C174.319 8.63403 173.072 5.4983 170.517 3.35498ZM152.483 48.0815C153.26 48.0805 154.398 48.0776 155.865 48.0738C156.212 48.0729 156.578 48.0718 156.962 48.0709C156.953 48.0708 156.943 48.0708 156.934 48.0707C155.984 48.0611 155.106 48.0528 154.159 48.045C152.47 48.0313 150.829 48.0196 149.172 48.0095C147.509 47.9994 145.85 47.9912 144.189 47.9846C142.526 47.9781 140.858 47.9733 139.205 47.9705C137.535 47.9677 135.89 47.9666 134.228 47.968C133.699 47.9684 133.168 47.9691 132.637 47.97C133.822 47.9794 135.053 47.9872 136.352 47.9954C137.39 48.002 138.473 48.0088 139.611 48.017C140.047 48.0202 140.574 48.025 141.189 48.0306C143.627 48.0528 147.452 48.0878 152.483 48.0815ZM119.383 48.0734C118.998 48.0759 118.615 48.0782 118.236 48.08C117.157 48.0853 116.105 48.0883 115.075 48.0906C114.351 48.0923 113.635 48.0934 112.93 48.0947C112.632 48.0952 112.335 48.0958 112.041 48.0963C111.547 48.0972 111.058 48.0983 110.572 48.0994C113.981 48.1107 117.313 48.1194 120.787 48.1221C120.832 48.1222 120.878 48.1221 120.925 48.1221C120.399 48.1056 119.885 48.0893 119.383 48.0734Z" fill="#F3832D"/>
<mask id="mask0_2247_7683" style="mask-type:alpha" maskUnits="userSpaceOnUse" x="20" y="13" width="23" height="23">
<rect x="20.659" y="13.4912" width="22" height="22" fill="#D9D9D9"/>
</mask>
<g mask="url(#mask0_2247_7683)">
<path d="M39.1298 25.4079H28.909C28.6492 25.4079 28.4315 25.32 28.2558 25.1443C28.0801 24.9686 27.9923 24.7509 27.9923 24.4912C27.9923 24.2315 28.0801 24.0138 28.2558 23.8381C28.4315 23.6624 28.6492 23.5745 28.909 23.5745H39.1298L38.3506 22.7954C38.1673 22.612 38.0795 22.3982 38.0871 22.1537C38.0947 21.9093 38.1826 21.6954 38.3506 21.512C38.534 21.3287 38.7517 21.2332 39.0038 21.2256C39.2558 21.2179 39.4735 21.3058 39.6569 21.4891L42.0173 23.8495C42.2006 24.0329 42.2923 24.2468 42.2923 24.4912C42.2923 24.7357 42.2006 24.9495 42.0173 25.1329L39.6569 27.4933C39.4735 27.6766 39.2558 27.7645 39.0038 27.7568C38.7517 27.7492 38.534 27.6537 38.3506 27.4704C38.1826 27.287 38.0947 27.0732 38.0871 26.8287C38.0795 26.5843 38.1673 26.3704 38.3506 26.187L39.1298 25.4079ZM34.409 20.8245V18.0745H25.2423V30.9079H34.409V28.1579C34.409 27.8982 34.4968 27.6804 34.6725 27.5048C34.8482 27.3291 35.0659 27.2412 35.3256 27.2412C35.5854 27.2412 35.8031 27.3291 35.9788 27.5048C36.1545 27.6804 36.2423 27.8982 36.2423 28.1579V30.9079C36.2423 31.412 36.0628 31.8436 35.7038 32.2027C35.3447 32.5617 34.9131 32.7412 34.409 32.7412H25.2423C24.7381 32.7412 24.3065 32.5617 23.9475 32.2027C23.5885 31.8436 23.409 31.412 23.409 30.9079V18.0745C23.409 17.5704 23.5885 17.1388 23.9475 16.7798C24.3065 16.4207 24.7381 16.2412 25.2423 16.2412H34.409C34.9131 16.2412 35.3447 16.4207 35.7038 16.7798C36.0628 17.1388 36.2423 17.5704 36.2423 18.0745V20.8245C36.2423 21.0843 36.1545 21.302 35.9788 21.4777C35.8031 21.6534 35.5854 21.7412 35.3256 21.7412C35.0659 21.7412 34.8482 21.6534 34.6725 21.4777C34.4968 21.302 34.409 21.0843 34.409 20.8245Z" fill="#F3832D"/>
<path d="M39.1279 25.846C38.8668 25.8993 38.606 25.922 38.3374 25.8988C38.2762 25.8936 38.282 25.8524 38.2568 25.8458C38.2106 25.8335 38.133 25.8779 38.1221 25.8779C38.0546 25.8785 38.081 25.8065 38.0719 25.8037C37.9706 25.7744 37.9998 25.8565 37.9029 25.8643C37.7768 25.8746 37.6149 25.86 37.463 25.8559C37.4096 25.8543 37.4334 25.7995 37.3182 25.8041C37.2366 25.8073 36.9863 25.8698 36.871 25.8031C36.8704 25.7779 36.8849 25.75 36.891 25.724C36.7258 25.8291 36.6667 25.8245 36.4324 25.7989C36.3954 25.7948 36.3603 25.838 36.295 25.8221C36.2298 25.8061 36.227 25.7396 36.0958 25.7404C36.0493 25.7408 36.021 25.7877 35.9497 25.7898C35.7467 25.7956 35.3601 25.7373 35.1935 25.7353C34.8655 25.7313 34.687 25.8114 34.3956 25.7835C34.3732 25.7815 34.4224 25.7301 34.3813 25.7291C34.3398 25.7281 34.2966 25.7962 34.2864 25.7978C34.1763 25.8154 33.9435 25.7241 33.8823 25.7351C33.7334 25.7622 33.8801 25.7922 33.6737 25.8051C33.4772 25.8174 33.2059 25.7287 33.0111 25.7113C32.7854 25.6912 32.7126 25.82 32.5426 25.6855C31.9456 25.6934 31.3463 25.6982 30.7486 25.705C30.7503 25.6782 30.7523 25.6514 30.7543 25.6246C30.7071 25.6431 30.6598 25.6617 30.6125 25.6801C30.6197 25.6601 30.6264 25.6401 30.6336 25.6204C30.4116 25.6974 30.2138 25.7371 29.9544 25.716C29.9494 25.7156 29.9627 25.6621 29.9585 25.6607C29.9 25.6506 29.8347 25.6918 29.7833 25.6821C29.6592 25.6589 29.4484 25.5423 29.5413 25.6849C29.342 25.6646 29.1187 25.6812 28.909 25.6844C28.7915 25.6861 28.672 25.6692 28.5666 25.6303C28.4186 25.5729 28.4174 25.4705 28.361 25.4347C28.3052 25.3957 28.2964 25.4748 28.2733 25.4636C28.21 25.4315 28.1359 25.376 28.0847 25.3155C28.0225 25.2434 27.9912 25.1638 28.0196 25.1274C27.9762 25.1227 27.9309 25.1137 27.8862 25.1024C27.9528 25.0795 27.7556 24.6593 27.7807 24.5342C27.7805 24.5126 27.82 24.5092 27.8195 24.4936C27.8195 24.4928 27.8195 24.492 27.8195 24.4912C27.8186 24.3196 27.765 24.2642 27.7942 24.0968C27.808 24.039 27.8382 24.1463 27.8679 23.999C27.8732 23.9874 27.8026 23.962 27.905 23.8035C27.9417 23.7501 27.9894 23.6891 28.0471 23.6294C28.236 23.4072 28.6517 23.2484 28.909 23.2862C28.9158 23.2869 28.9225 23.2877 28.9291 23.2884C28.9509 23.2908 28.8846 23.359 28.9841 23.3431C29.0202 23.3375 29.0029 23.2891 29.0903 23.2887C29.4289 23.2867 29.79 23.3423 30.1354 23.2961C30.1228 23.3508 29.9998 23.4121 30.1847 23.3778C30.2143 23.3721 30.1922 23.3233 30.2055 23.3215C30.3129 23.3074 30.406 23.3423 30.5223 23.3235C30.5566 23.3179 30.5651 23.2796 30.608 23.2705C30.6712 23.257 30.6992 23.3116 30.7726 23.2884C30.8874 23.2519 30.9052 23.2001 31.0476 23.3017C31.8547 23.2953 32.6581 23.2667 33.4624 23.3114C33.695 23.2824 33.9096 23.25 34.152 23.2389C34.2234 23.2356 34.237 23.305 34.3509 23.282C34.3764 23.277 34.5583 23.2025 34.5848 23.3427C34.6355 23.3306 34.6675 23.3302 34.711 23.3227C34.678 23.3022 34.644 23.2814 34.6124 23.2606C34.7959 23.283 34.9459 23.2336 35.1084 23.2102C35.228 23.193 35.1431 23.2531 35.2165 23.2471C35.2899 23.2413 35.3233 23.2277 35.4151 23.2997C35.4872 23.2167 35.5351 23.2749 35.668 23.2771C35.6823 23.2773 35.7648 23.2451 35.8338 23.2516C35.8834 23.2562 35.8982 23.308 35.977 23.3C35.9899 23.2988 36.1565 23.2346 36.2096 23.2287C36.2922 23.2195 36.4235 23.2859 36.4395 23.2867C36.6716 23.2983 36.7611 23.2328 36.926 23.3407C36.9593 23.2766 37.0969 23.239 37.2081 23.2453C37.3485 23.2531 37.63 23.3842 37.6685 23.2457C37.8309 23.3074 37.8133 23.2693 38.006 23.2681C38.1814 23.2669 38.6458 23.3199 38.788 23.3122C38.9301 23.3048 38.8609 23.2277 38.9173 23.2174C39.0097 23.2003 38.9598 23.2572 39.023 23.2564C39.0595 23.2559 39.095 23.255 39.1298 23.2538L38.903 23.8013C38.8034 23.7086 38.7064 23.6271 38.5964 23.545C38.6181 23.5102 38.6395 23.4749 38.661 23.44C38.6454 23.4431 38.6297 23.4463 38.6141 23.4495C38.5884 23.4232 38.5587 23.3947 38.5355 23.3698C38.6145 23.6966 38.3488 23.1647 38.2322 23.0419C38.2135 23.0222 38.1901 23.0023 38.1637 22.9823C38.0278 22.8805 37.841 22.6973 37.7785 22.5185C37.7593 22.4667 37.8112 22.4919 37.8072 22.4814C37.7666 22.3605 37.7301 22.3412 37.7313 22.169C37.7316 22.1603 37.7325 22.1515 37.7338 22.1427C37.7465 22.0642 37.7993 21.9912 37.8152 21.9188C37.8638 21.6887 37.9765 21.4717 38.1215 21.302L38.1308 21.2922C38.3336 21.062 38.6658 20.8875 38.9932 20.8771C39.0453 20.8744 39.0987 20.875 39.1527 20.8795C39.2643 20.8891 39.3428 20.9761 39.4245 21.0071C39.5419 21.0531 39.6408 21.0468 39.7416 21.1179C39.792 21.1541 39.8379 21.2154 39.8735 21.2725C39.8982 21.3177 39.9214 21.3593 39.9457 21.3767C39.9951 21.4124 39.9664 21.2954 40.0322 21.3854C40.0624 21.4268 39.9663 21.3965 40.0095 21.4417C40.1444 21.5828 40.3799 21.7368 40.4873 21.9232C40.4906 21.9068 40.4906 21.8891 40.4921 21.8718C40.6447 22.0321 40.7593 22.1941 40.9174 22.359C40.9727 22.4168 41.1035 22.4898 41.1588 22.5455C41.2142 22.6011 41.2081 22.6577 41.2517 22.7031C41.2696 22.7218 41.2905 22.6865 41.3022 22.6994C41.4481 22.8601 41.4823 22.9943 41.6485 23.1491C41.8316 23.3197 42.016 23.4921 42.2012 23.6656C42.4158 23.8598 42.5747 24.1792 42.5752 24.4912C42.5902 24.8017 42.4446 25.1366 42.2331 25.3487C42.1545 25.4323 42.0761 25.5159 41.9978 25.5992C41.9745 25.624 41.995 25.6768 41.9653 25.7173C41.9196 25.7797 41.8846 25.75 41.8763 25.756C41.822 25.796 41.8712 25.8068 41.808 25.87C41.6688 26.0092 41.4177 26.2072 41.2813 26.3482C40.9668 26.6732 40.7266 26.9705 40.4275 27.2984C40.406 27.3221 40.378 27.2635 40.3383 27.3021C40.1401 27.4938 40.0734 27.6 39.9263 27.7627C39.8426 27.8514 39.7254 27.9567 39.5305 28.038C39.3832 28.0997 39.1884 28.1378 38.9926 28.1253C38.6925 28.1173 38.3273 27.957 38.1082 27.7128L38.0979 27.702C37.8796 27.4625 37.7615 27.1132 37.7644 26.8388C37.7633 26.7693 37.7678 26.7011 37.7776 26.6361C37.7777 26.6361 37.7779 26.6361 37.778 26.6362C37.6945 26.3852 37.8896 26.0551 38.1137 25.9501C38.1263 25.9447 38.1389 25.9395 38.1516 25.9347C38.1449 25.9458 38.1382 25.9569 38.1315 25.9679C37.952 26.2212 37.8597 26.5525 37.9024 26.8345C37.9343 27.1103 38.0625 27.375 38.2484 27.5641C38.4447 27.758 38.7201 27.8872 38.9996 27.8955C39.2704 27.914 39.5681 27.8011 39.7643 27.6007C39.8676 27.4999 39.9712 27.3973 40.0747 27.2918C40.734 26.6203 41.3492 25.8382 42.0039 25.1194C42.1656 24.9457 42.2584 24.7204 42.2558 24.4912C42.2559 24.4209 42.2488 24.3512 42.2335 24.2832C42.207 24.175 42.2439 24.1031 42.1794 24.0206C42.1686 24.0077 42.1492 24.0698 42.118 24.0304C42.0761 23.9789 42.0299 23.9311 41.9804 23.8865C41.4962 23.448 41.077 22.9019 40.6091 22.4741C40.4694 22.3465 40.4092 22.3647 40.2816 22.2573C40.3208 22.2594 40.3536 22.2536 40.3903 22.2529C40.168 21.9768 39.9275 21.7186 39.68 21.466C39.509 21.2851 39.2537 21.1796 39.0028 21.1925C38.8303 21.1972 38.6571 21.2466 38.5088 21.3388C38.4785 21.3577 38.4438 21.3156 38.4103 21.3378C38.3618 21.3703 38.3402 21.4308 38.3174 21.4788C38.3081 21.4987 38.2997 21.5156 38.2887 21.5297C38.2375 21.5975 38.1934 21.5854 38.1529 21.6576C38.1348 21.6936 38.175 21.7018 38.1335 21.775C38.1304 21.7813 38.0873 21.7679 38.0722 21.8251C38.0507 21.9061 38.0361 22.0343 38.0465 22.1524C38.0542 22.2621 38.0843 22.3618 38.1062 22.4171C38.1614 22.5625 38.1858 22.7022 38.2233 22.7561C38.2541 22.7996 38.2825 22.8231 38.3078 22.8383C38.3618 22.8695 38.4037 22.8664 38.4696 22.9322C38.689 23.1515 38.8997 23.3733 39.1078 23.5965L39.1298 23.5435C38.4881 23.521 37.85 23.4861 37.1819 23.4865C37.12 23.4865 36.891 23.5613 36.7764 23.5583C36.738 23.5571 36.5372 23.5373 36.5071 23.5357C36.3851 23.5294 36.2796 23.4843 36.2123 23.4748C36.0817 23.4562 35.9359 23.5268 35.8648 23.5339C35.74 23.5464 35.5185 23.5371 35.4661 23.5353C35.3396 23.5308 35.3814 23.4435 35.2906 23.4639C35.2638 23.47 35.2919 23.5369 35.1974 23.5369C35.1182 23.5367 35.0862 23.4863 35.0321 23.4772C34.9781 23.4682 34.8789 23.5461 34.8453 23.5442C34.6691 23.5333 34.5912 23.4822 34.3994 23.4796C34.2402 23.4776 33.5042 23.5133 33.443 23.5317C33.169 23.6137 33.6254 23.5769 33.6511 23.5796C33.7902 23.5956 33.7698 23.627 33.9085 23.5669C34.0326 23.7523 34.4651 23.4637 34.576 23.6835C34.6905 23.5371 34.7868 23.6109 34.9075 23.6404C35.0743 23.6811 34.9473 23.5957 35.069 23.5951C35.117 23.595 35.256 23.6615 35.328 23.6522C35.4001 23.6429 35.4304 23.5919 35.527 23.5891C35.6993 23.5839 35.838 23.6077 35.9828 23.6687C36.0093 23.6417 36.0341 23.6147 36.0603 23.5877C36.1602 23.6167 36.2606 23.6456 36.3605 23.6744C36.3445 23.6508 36.3285 23.627 36.3126 23.6034C36.3418 23.6 36.3711 23.5968 36.4004 23.5936C36.4976 23.629 36.5905 23.6619 36.6904 23.6986C36.962 23.5621 36.8832 23.6802 37.0341 23.698C37.185 23.7157 37.2724 23.6367 37.3889 23.6363C37.546 23.6357 37.6181 23.6258 37.7766 23.6315C37.8684 23.6347 38.0241 23.7109 37.8962 23.5901C38.1828 23.5805 38.5752 23.5467 38.8316 23.5957C38.9073 23.61 38.8064 23.6481 38.8193 23.6528C38.8835 23.6752 38.9376 23.6135 39.0039 23.6224C39.0381 23.6269 39.0824 23.6347 39.1298 23.6436L39.2954 23.6463L39.1786 23.5257C39.1182 23.4374 39.0509 23.3343 39.0141 23.2865C38.9374 23.1867 38.7422 23.1045 38.7239 23.0945C38.6217 23.0381 38.6473 22.97 38.6186 22.9478C38.47 22.8333 38.4137 22.8126 38.4443 22.7017C38.4479 22.6908 38.4526 22.6791 38.4584 22.6665C38.3837 22.6871 38.1719 22.561 38.2515 22.47C38.165 22.5089 38.1162 22.3334 38.0948 22.2219C38.1204 22.1999 38.1468 22.1793 38.1741 22.1609C38.173 22.1594 38.172 22.1579 38.1709 22.1563C38.0544 21.9969 38.1683 21.6878 38.3715 21.5312C38.4555 21.4656 38.5458 21.4186 38.6241 21.3845C38.6305 21.3818 38.6113 21.3131 38.661 21.3083C38.6642 21.3084 38.6722 21.3383 38.7014 21.3309C38.7539 21.316 38.8921 21.3049 39.0068 21.3264C39.1023 21.3417 39.1756 21.3733 39.1923 21.3773C39.3254 21.4133 39.368 21.3842 39.4509 21.4272C39.5325 21.4757 39.539 21.5197 39.5769 21.5692C39.5894 21.5856 39.6051 21.603 39.6267 21.6225C39.6712 21.6627 39.7529 21.658 39.8133 21.7306C39.8492 21.7736 39.8191 21.8114 39.8476 21.8454C39.9489 21.9663 40.0518 22.0264 40.1062 22.1692C40.2398 22.087 40.2074 22.2137 40.2481 22.2706C40.4129 22.5019 40.7054 22.7032 40.8655 22.883C41.214 23.2747 41.5159 23.6544 41.8375 24.0293C41.945 24.1603 41.9964 24.2939 42.0006 24.4443C42.0012 24.4623 42.0047 24.4773 42.01 24.4912C42.028 24.5391 42.0727 24.5736 42.0537 24.6441C42.0415 24.6851 41.9775 24.7061 41.9497 24.7595C41.9275 24.8026 41.908 24.8816 41.8577 24.9341C41.8491 24.9433 41.8292 24.9309 41.8113 24.9269C41.801 24.9259 41.7909 24.9276 41.7822 24.9361C41.5868 25.1272 41.4242 25.3421 41.247 25.5552C41.1813 25.6342 41.0878 25.6302 41.1849 25.7028C41.1365 25.7096 41.0915 25.7184 41.045 25.7238C40.9989 25.8768 40.8619 25.9024 40.741 26.0507C40.7281 26.0668 40.6851 26.2271 40.5851 26.2425C40.6112 26.2768 40.6458 26.2935 40.6715 26.3225C40.6261 26.3911 40.5037 26.4437 40.4616 26.4786C40.4197 26.5134 40.4332 26.5784 40.422 26.5904C40.379 26.6354 40.3376 26.5735 40.3334 26.576C40.0789 26.7315 40.128 26.7375 40.0816 26.9387C40.0701 26.9892 39.8029 27.143 39.8215 27.2467C39.7946 27.2237 39.7844 27.19 39.764 27.1628C39.6943 27.2197 39.624 27.2768 39.5542 27.3338C39.5916 27.3443 39.6317 27.3521 39.6681 27.364C39.6401 27.3842 39.6155 27.4064 39.5934 27.4298C39.5068 27.5219 39.437 27.6303 39.3244 27.6707C39.2455 27.6964 39.2362 27.619 39.1969 27.6451C39.1888 27.65 39.2143 27.6967 39.1877 27.7059C39.1196 27.7284 39.0591 27.7325 39.0046 27.7284C38.8832 27.7171 38.7907 27.6754 38.6563 27.6063C38.5748 27.562 38.4483 27.5769 38.3737 27.4473C38.3704 27.4399 38.3666 27.4309 38.3632 27.4214C38.3539 27.4037 38.3355 27.2522 38.1936 27.2203C38.2136 27.1768 38.2218 27.146 38.2433 27.1155C38.0471 27.0115 38.1602 26.9813 38.2057 26.825C38.2122 26.8049 38.2184 26.7826 38.2243 26.7576C38.2345 26.6627 38.3064 26.4067 38.4355 26.2719C38.4657 26.2361 38.491 26.2051 38.5087 26.1825C38.5638 26.1114 38.5144 26.0643 38.5238 26.0511C38.5799 25.9726 38.6268 26.0194 38.6813 25.9494C38.7359 25.8795 38.7616 25.7479 38.8304 25.6888C38.8832 25.6435 38.9027 25.7403 38.9548 25.6477C38.9654 25.6283 38.8732 25.6218 38.9689 25.5649C38.9839 25.5558 39.1592 25.4873 39.1957 25.4738C39.1625 25.5689 39.0168 25.7954 38.9594 25.8779C38.8461 26.0408 38.714 26.217 38.5668 26.4032C38.4677 26.5406 38.4373 26.6677 38.4617 26.817C38.4855 26.9684 38.5474 27.079 38.662 27.185L38.6493 27.1717C38.7693 27.2706 38.8753 27.3043 39.0176 27.3005C39.1506 27.2924 39.2219 27.2548 39.318 27.1544C40.1635 26.2659 41.0383 25.4015 41.6745 24.7901C41.687 24.7784 41.6985 24.7669 41.7089 24.7556C41.7672 24.6916 41.85 24.6787 41.8738 24.622C41.8933 24.5675 41.8191 24.6002 41.8326 24.5541C41.8381 24.5327 41.8503 24.513 41.862 24.4912C41.8758 24.4654 41.8889 24.4391 41.8868 24.4114C41.8791 24.3089 41.8398 24.2137 41.7524 24.1144C41.4546 23.7903 41.1554 23.4673 40.8539 23.1534C40.7415 23.0364 40.6121 22.9826 40.5078 22.8782C40.4672 22.8376 40.5147 22.7876 40.4854 22.7592C40.1707 22.4522 39.8363 22.2116 39.5328 21.8967C39.4874 21.8496 39.4457 21.7961 39.4052 21.7408C39.3613 21.6705 39.3107 21.6051 39.2454 21.5743C39.1745 21.5404 39.0899 21.5551 39.0141 21.5672C38.9987 21.5695 38.984 21.5716 38.9698 21.5731C38.9237 21.5782 38.8895 21.5327 38.8703 21.5329C38.8059 21.5358 38.8462 21.5918 38.8188 21.6011C38.7471 21.6288 38.6695 21.5843 38.6013 21.6456C38.5758 21.6703 38.6114 21.7039 38.5819 21.7433L38.5918 21.7331C38.5917 21.7331 38.5917 21.7331 38.5917 21.7332C38.5582 21.7858 38.5383 21.7393 38.5093 21.7743C38.5076 21.7762 38.5407 21.7904 38.5288 21.8095C38.4648 21.9122 38.4434 22.0415 38.4464 22.1649C38.4469 22.1895 38.4482 22.2121 38.4498 22.233C38.4587 22.347 38.4911 22.4514 38.5794 22.5666C38.7182 22.7337 38.853 22.8994 38.9937 23.05C39.0619 23.1227 39.0757 23.0715 39.0997 23.0923C39.2138 23.1918 39.2143 23.2687 39.338 23.3663L39.8356 23.8806L39.1298 23.869C39.1285 23.8691 39.1273 23.8693 39.126 23.8694C39.0995 23.8727 38.9927 23.9364 38.8907 23.9202C38.8356 23.9115 38.7731 23.8718 38.7262 23.8625C38.6793 23.8533 38.6718 23.9118 38.6154 23.9118C38.5127 23.912 38.5426 23.8715 38.3957 23.8787C38.3366 23.8815 38.1391 23.937 37.9868 23.9327C37.7379 23.9259 37.4295 23.8752 37.136 23.8744C37.0354 23.874 36.9061 23.9341 36.7501 23.9347C36.5594 23.9355 36.2079 23.9219 36.0125 23.9211C35.9125 23.9207 35.9053 23.8577 35.8934 23.8551C35.8169 23.8376 35.8478 23.9079 35.7965 23.9051C35.7262 23.9013 35.6605 23.8494 35.5966 23.846C35.5558 23.8438 35.5493 23.8956 35.5405 23.896C35.2134 23.9132 34.9244 23.9083 34.5994 23.914C32.8563 23.9438 31.0966 24.0104 29.3569 23.9803C29.211 23.9779 29.2055 23.9126 29.0774 23.9228C29.0199 23.9274 28.9634 23.9582 28.909 23.9768C28.8644 24 28.8347 24.0073 28.7835 23.9291C28.7872 23.9605 28.7916 23.9825 28.7951 24.0109C28.6938 24.0003 28.6153 24.054 28.5522 24.1345C28.5203 24.175 28.4988 24.2146 28.4803 24.2524C28.4459 24.3241 28.4266 24.3961 28.423 24.4912C28.4225 24.5069 28.4225 24.5222 28.423 24.5371C28.4287 24.6245 28.3772 24.6363 28.4666 24.6784C28.4804 24.7362 28.5079 24.7907 28.5549 24.8453C28.6474 24.9506 28.7485 25.0005 28.909 25.0111C29.2221 25.0229 29.5344 25.0391 29.8439 25.0735C30.001 24.9563 30.1516 25.0302 30.3688 25.0475C30.3956 25.0497 30.3669 25.0069 30.4464 25.0106C30.5463 25.015 30.598 25.0803 30.7662 25.0767C30.8107 25.0757 31.1406 25.0033 31.2627 25.0404C31.3847 25.0775 31.5615 25.0993 31.6883 25.1348C31.6703 25.1067 31.6475 25.0799 31.6274 25.0523C31.6907 25.0475 31.7542 25.0428 31.8175 25.038C31.8266 25.0716 31.8358 25.1054 31.8447 25.1392C31.8814 25.1072 31.9181 25.0755 31.9552 25.043C32.0351 25.216 31.9532 25.1596 32.131 25.1159C32.22 25.0941 32.2907 25.1243 32.3822 25.1068C32.4152 25.1003 32.4362 25.0494 32.4726 25.0429C32.5616 25.0271 32.5097 25.0972 32.5647 25.0969C32.6202 25.0963 32.6997 25.0193 32.799 25.0535C32.6953 25.1908 32.9949 25.146 33.0092 25.0394C33.0448 25.0392 33.0747 25.0436 33.1141 25.0406C33.0777 25.31 33.2645 25.1188 33.3386 25.0819C33.4127 25.0451 33.4097 25.1175 33.427 25.1146C33.477 25.1068 33.4406 25.0767 33.4756 25.0757C33.7074 25.0696 33.9258 25.1138 34.1546 25.1179C34.1875 25.1184 34.1583 25.0775 34.1967 25.0816C34.2351 25.0856 34.2719 25.1263 34.3287 25.1235C34.3439 25.1228 34.3487 25.0868 34.3724 25.0868C34.8698 25.0884 35.3421 25.119 35.8494 25.1237C35.8953 25.1241 35.9313 25.0602 36.02 25.0624C36.1087 25.0646 36.2434 25.1223 36.3535 25.1267C36.3828 25.1279 36.3907 25.0747 36.4294 25.0761C36.5613 25.081 36.6749 25.1243 36.8119 25.1314C37.0434 25.1432 37.2858 25.1108 37.5207 25.1422C37.5652 25.1481 37.5581 25.1925 37.6224 25.205C37.7332 25.2265 37.6915 25.1618 37.7139 25.1531C37.7873 25.1251 37.8104 25.2112 37.8814 25.189C37.8923 25.1856 37.8768 25.1346 37.8865 25.1338C38.0375 25.1249 38.0454 25.2445 38.2059 25.1804C38.3486 25.2491 38.1102 25.2725 38.0857 25.309C38.026 25.3977 38.184 25.502 38.2771 25.5355C38.3574 25.5643 38.3568 25.5091 38.3887 25.5091C38.5577 25.5089 38.8093 25.4984 38.9378 25.5246C39.0157 25.5403 38.8753 25.5633 38.9151 25.5814C38.9545 25.5996 38.9801 25.5581 39.0205 25.6034C39.061 25.6488 39.1435 25.7823 39.1279 25.846ZM29.9888 23.4336C29.7781 23.6107 29.2844 23.6288 28.909 23.6182C28.8259 23.6156 28.749 23.6215 28.6835 23.6332C28.4783 23.663 28.2584 23.735 28.2356 23.8178C28.2266 23.8494 28.2486 23.8788 28.3091 23.9143C28.3129 23.9104 28.3167 23.9066 28.3205 23.9028C28.4841 23.7401 28.674 23.6527 28.909 23.6496C28.9751 23.6489 29.0435 23.6491 29.1154 23.6506C29.1518 23.6514 29.3687 23.674 29.4442 23.678C29.4867 23.6803 29.4881 23.7204 29.5459 23.72C29.5584 23.7198 29.6282 23.6673 29.6537 23.6687C29.741 23.6734 30.0008 23.754 30.0371 23.7516C30.1377 23.7448 30.0991 23.6823 30.1425 23.671C30.2883 23.6335 30.3044 23.7273 30.4489 23.6968C30.4747 23.6914 30.5604 23.6097 30.6675 23.6203C30.711 23.6248 30.7851 23.667 30.8185 23.665C31 23.6541 31.2027 23.5982 31.3689 23.6075C31.5052 23.6151 31.4685 23.6782 31.5406 23.6867C31.6127 23.6949 31.6997 23.6218 31.749 23.6175C31.8279 23.6109 31.9237 23.6524 31.9482 23.6518C32.4303 23.6395 32.859 23.5914 33.3241 23.574C33.0083 23.5452 32.6928 23.5187 32.379 23.4889C32.2008 23.5542 32.2895 23.4929 32.1722 23.4726C32.0794 23.4564 32.057 23.5671 31.935 23.5549C31.9351 23.5549 31.9352 23.5549 31.9353 23.5549C31.8724 23.5484 31.7361 23.4718 31.6021 23.5038C31.5973 23.505 31.5854 23.5625 31.4851 23.5645C31.2597 23.5689 30.9144 23.5984 30.6607 23.5861C30.5863 23.5825 30.6014 23.5222 30.5134 23.5147C30.4492 23.5093 30.3747 23.5651 30.2742 23.5526C30.148 23.5367 30.0875 23.4407 30.0008 23.574C29.9937 23.5264 29.9973 23.48 29.9888 23.4336ZM31.9005 25.4328C31.9182 25.4381 32.1555 25.5869 32.0851 25.428C31.7662 25.359 31.4214 25.3933 31.0858 25.3546C31.2004 25.5117 31.3943 25.4497 31.6295 25.4383C31.6296 25.4383 31.6297 25.4383 31.6298 25.4383C31.6409 25.4377 31.5945 25.4788 31.6576 25.4713C31.6882 25.4677 31.8056 25.4048 31.9005 25.4328ZM33.9708 20.8201C33.9176 20.2195 33.8948 19.6198 33.918 19.0021C33.9233 18.8613 33.9644 18.8746 33.971 18.8167C33.9833 18.7104 33.9389 18.5319 33.9389 18.5068C33.9384 18.3516 34.0104 18.4122 34.0132 18.3913C34.0387 18.1879 33.9794 18.2132 33.9587 18.0745L34.409 18.5248C34.3888 18.5278 34.3653 18.53 34.3371 18.531C34.047 18.5413 33.6747 18.5266 33.3252 18.5226C33.2024 18.521 33.2571 18.4662 32.9921 18.4708C32.8045 18.474 32.2288 18.5365 31.9637 18.4697C31.9621 18.4445 31.9956 18.4167 32.0097 18.3907C31.6296 18.4957 31.4936 18.4911 30.9549 18.4655C30.8696 18.4615 30.7889 18.5046 30.6388 18.4887C30.4887 18.4728 30.4824 18.4062 30.1806 18.407C30.0735 18.4075 30.0086 18.4544 29.8444 18.4564C29.3776 18.4623 28.4885 18.404 28.1053 18.402C27.3507 18.398 26.9401 18.478 26.27 18.4502C26.2184 18.4482 26.3318 18.3968 26.2371 18.3958C26.1417 18.3947 26.0424 18.4629 26.0189 18.4645C25.8243 18.478 25.4631 18.4272 25.2423 18.408L25.5757 18.0745C25.5699 18.1411 25.567 18.1949 25.5696 18.2275C25.5966 18.57 25.6266 18.2325 25.6395 18.7072C25.6518 19.1591 25.5631 19.7832 25.5458 20.2312C25.5256 20.7504 25.6544 20.9178 25.5199 21.3088C25.5278 22.6819 25.5326 24.0605 25.5395 25.4352C25.5127 25.4313 25.4858 25.4267 25.459 25.422C25.4776 25.5307 25.4961 25.6395 25.5145 25.7481C25.4945 25.7317 25.4746 25.7162 25.4548 25.6997C25.5318 26.2103 25.5715 26.6653 25.5504 27.2618C25.55 27.2735 25.4965 27.2428 25.4952 27.2525C25.4851 27.387 25.5262 27.5373 25.5165 27.6554C25.4933 27.9408 25.3768 28.4256 25.5193 28.2122C25.4899 28.8776 25.5381 29.6595 25.5105 30.2937C25.4986 30.5681 25.4141 30.6503 25.4092 30.7816C25.4044 30.9128 25.477 30.8461 25.4798 30.8926C25.4801 30.8977 25.4803 30.9027 25.4806 30.9079L25.2423 30.6696C25.5234 30.6544 25.9686 30.6587 26.0162 30.7385C26.0725 30.7061 26.1321 30.6732 26.1891 30.6406C26.1557 30.7307 27.0208 30.6934 27.2477 30.6956C27.2892 30.696 27.2949 30.7355 27.3262 30.7351C27.6748 30.73 27.7601 30.6681 28.0587 30.6476C28.1635 30.6403 28.001 30.7099 28.27 30.6799C28.2934 30.6772 28.281 30.6147 28.6023 30.6151C29.1153 30.6157 30.0966 30.5909 30.7074 30.6218C30.7574 30.6242 30.605 30.6923 30.8339 30.6764C30.9168 30.6708 30.8771 30.6224 31.0781 30.622C31.8569 30.62 32.6874 30.6756 33.4819 30.6295C33.4529 30.6841 33.17 30.7454 33.5953 30.7111C33.6633 30.7055 33.6126 30.6567 33.6431 30.6548C33.8901 30.6407 34.1043 30.6756 34.3717 30.6569C34.3857 30.6559 34.3979 30.6538 34.409 30.6511L34.1522 30.9079C34.1396 30.8567 34.1124 30.829 34.1049 30.748C34.0914 30.6026 34.146 30.5382 34.1228 30.3693C34.0864 30.1052 34.0346 30.0644 34.1362 29.7368C34.1343 29.2099 34.1307 28.6837 34.1275 28.1579C34.119 27.8591 34.2461 27.5187 34.4707 27.3029C34.6849 27.0767 35.0257 26.9468 35.3256 26.9536C35.6257 26.9462 35.967 27.0757 36.1815 27.302C36.4066 27.5179 36.5335 27.8592 36.5239 28.1579C36.52 28.5177 36.5141 28.8776 36.5054 29.2376C36.5344 29.7725 36.5669 30.266 36.578 30.8235C36.5786 30.8559 36.5764 30.8831 36.5727 30.9079C36.5548 31.0256 36.519 31.0923 36.4945 31.335C36.504 31.4006 36.3981 31.9088 36.2268 31.8949C36.1724 32.0161 36.1246 32.0855 36.0611 32.1794C36.1304 32.1247 36.1991 32.0622 36.2612 31.9994C36.1528 32.1616 36.0409 32.3 35.9264 32.4253C35.7486 32.6189 35.5511 32.7928 35.3043 32.9198C35 33.0602 35.2004 32.9195 35.0108 32.9875C34.82 33.0439 34.723 33.0758 34.479 33.015C34.455 33.0264 34.432 33.0351 34.409 33.0415C34.2734 33.085 34.1555 33.0406 33.8892 33.0386C33.8563 33.0384 33.6664 33.0706 33.5077 33.0642C33.3936 33.0596 33.3598 33.0078 33.1785 33.0158C33.1488 33.017 32.7655 33.0812 32.6435 33.087C32.4535 33.0963 32.1515 33.0299 32.1147 33.0291C31.5807 33.0174 31.3749 33.083 30.9957 32.9751C30.919 33.0392 30.6026 33.0767 30.3469 33.0705C30.0239 33.0626 29.3764 32.9315 29.288 33.0701C28.9142 33.0084 28.9548 33.0464 28.5116 33.0477C28.1081 33.0489 27.0399 32.9959 26.713 33.0035C26.3861 33.011 26.5454 33.088 26.4155 33.0983C26.2031 33.1154 26.3178 33.0586 26.1724 33.0594C25.8431 33.0613 25.5483 33.0687 25.2423 33.0843C25.1538 33.0881 25.0633 33.0878 24.9705 33.082C24.9501 33.0394 24.9294 32.9962 24.9109 32.953C24.8863 32.9627 24.8612 32.972 24.8358 32.9807C24.7401 32.9628 24.6335 32.9351 24.548 32.904C25.1757 33.2243 24.0899 32.8876 23.7576 32.3926C23.6993 32.3258 23.6507 32.2646 23.6134 32.2182C23.3635 31.9498 23.0486 31.3462 23.0535 30.9142C23.0534 30.912 23.0533 30.9099 23.0533 30.9079C23.0509 30.8284 23.0922 30.8856 23.0912 30.868C23.0789 30.6569 23.0495 30.6248 23.0535 30.341C23.0557 30.1909 23.1097 30.0376 23.1108 29.8914C23.118 28.8178 23.0638 27.7816 23.0579 26.715C23.0569 26.5336 23.1228 26.3771 23.1243 26.2246C23.1263 26.0065 23.0723 25.8688 23.0715 25.664C23.0706 25.4599 23.1352 25.1658 23.1253 25.0274C23.1156 24.889 23.0531 25.1258 23.0702 24.8724C23.0781 24.7561 23.1247 24.9616 23.1261 24.8178C23.1305 24.369 23.0729 23.7356 23.1287 23.2578C23.1148 23.2789 23.1023 23.3077 23.089 23.3335C23.0944 22.8245 23.1279 22.3747 23.1327 21.8492C23.1345 21.6655 23.0937 21.3341 23.0939 21.1534C23.0941 20.9728 23.1384 20.8907 23.1396 20.7461C23.1402 20.6866 23.1005 20.7099 23.1013 20.67C23.1118 20.1712 23.1825 19.8975 23.1745 19.3752C23.1679 18.9443 23.1614 18.5104 23.1551 18.0745C23.1375 17.5384 23.3664 16.9676 23.7537 16.586C24.1234 16.1915 24.6939 15.9431 25.2423 15.9476C25.7921 15.9401 26.3416 15.9327 26.8887 15.9252C26.9669 15.9242 27.0195 15.8724 27.1336 15.8648C27.3094 15.8529 27.318 15.8987 27.3414 15.9003C27.4946 15.9104 27.4321 15.868 27.6378 15.868C28.0906 15.868 28.821 15.9055 29.2722 15.9023C30.3122 15.8948 31.1864 15.8545 32.2061 15.8341C32.2796 15.8325 32.2298 15.8938 32.3573 15.8946C33.2124 15.9007 33.4259 15.8479 34.409 15.857C34.4677 15.8575 34.529 15.8602 34.593 15.8658C35.0067 15.8925 35.566 16.1031 35.9599 16.5236C36.3425 16.8967 36.6042 17.5068 36.5828 18.0745C36.5736 18.7292 36.5658 19.3691 36.5625 19.8846C36.5623 19.8846 36.5622 19.8846 36.562 19.8846C36.6389 20.1642 36.6507 20.4996 36.6235 20.8245C36.6121 21.0291 36.542 21.2433 36.4255 21.404C36.5071 21.213 36.5307 21.0081 36.5164 20.8245C36.4315 19.9027 36.3956 18.9923 36.383 18.0745C36.385 17.5645 36.169 17.0437 35.8 16.6835C35.451 16.3187 34.9313 16.0889 34.409 16.0938C33.872 16.0893 33.3265 16.0859 32.7691 16.0882C30.3274 16.098 27.7483 16.2469 25.2423 16.2737C24.8137 16.2739 24.3946 16.4287 24.0759 16.7063C24.0355 16.7408 23.9995 16.7709 23.966 16.7983C23.8329 16.9096 23.7314 16.9705 23.6418 17.1354C23.6241 17.1699 23.7167 17.1099 23.6623 17.2138C23.5278 17.4779 23.4642 17.775 23.4674 18.0745C23.4773 19.4402 23.4065 20.848 23.4322 22.1636C23.4407 22.5984 23.4961 22.6665 23.5104 23.0489C23.4842 22.9817 23.4568 22.9377 23.4304 22.8791C23.3485 24.6245 23.385 26.3724 23.3733 28.1405C23.3727 28.2202 23.3185 28.2304 23.3165 28.3141C23.3122 28.4814 23.3719 28.6417 23.374 28.7879C23.3766 28.9787 23.3334 29.0117 23.3362 29.1876C23.3377 29.2735 23.3792 29.2478 23.3721 29.4346C23.3715 29.4502 23.328 29.4604 23.3336 29.5846C23.3491 29.9248 23.3856 30.62 23.3965 30.9015C23.3966 30.9037 23.3967 30.9058 23.3968 30.9079C23.4067 31.264 23.4485 31.5606 23.5049 31.6919C23.6696 32.0352 23.7338 31.989 23.9385 32.2116C23.9403 32.2134 23.9421 32.2152 23.9439 32.217C24.2834 32.5639 24.7612 32.7644 25.2423 32.7629C26.9511 32.7831 28.6332 32.8297 30.4071 32.8293C30.5495 32.8292 31.0762 32.7545 31.3397 32.7575C31.4281 32.7587 31.8899 32.7784 31.9591 32.7801C32.2399 32.7863 32.4825 32.8315 32.6373 32.841C32.9375 32.8595 33.2731 32.789 33.4365 32.7819C33.7234 32.7694 34.2331 32.7787 34.3536 32.7805C34.3739 32.7808 34.3922 32.7815 34.409 32.7826C34.6367 32.7898 34.574 32.8687 34.7752 32.8198C34.8374 32.7996 34.7617 32.7558 34.9747 32.6959C35.1506 32.6387 35.2398 32.6481 35.3596 32.5918C35.4828 32.5353 35.6205 32.3256 35.675 32.2728C35.6931 32.2567 35.7102 32.2412 35.7269 32.2258C35.983 31.9739 36.1461 31.833 36.2743 31.4119C36.2999 31.3181 36.3366 31.1328 36.3324 30.9079C36.3223 30.2705 36.2989 29.2982 36.2852 29.193C36.2032 28.5627 36.24 29.6124 36.2372 29.6716C36.2213 29.9914 36.1898 29.9446 36.2499 30.2637C36.1704 30.3861 36.1781 30.6389 36.1955 30.9079C36.2302 31.257 36.1198 31.6564 35.938 31.7128C35.945 31.9254 35.823 32.0657 35.677 32.1759C35.6233 32.2167 35.5654 32.2547 35.505 32.2936C35.1827 32.4771 35.465 32.3899 35.2271 32.5299C35.1297 32.5879 34.8147 32.6256 34.6601 32.6473C34.5613 32.6658 34.4986 32.6915 34.409 32.7085C34.3562 32.7181 34.2951 32.7256 34.2136 32.7267C33.8172 32.7319 33.4981 32.7081 33.165 32.647C33.104 32.674 33.0471 32.701 32.9869 32.7281C32.757 32.699 32.5262 32.6702 32.2963 32.6413C32.3331 32.6649 32.3699 32.6887 32.4066 32.7123C32.3394 32.7157 32.2719 32.719 32.2047 32.7222C31.981 32.6867 31.7674 32.6539 31.5376 32.6172C30.9129 32.7536 31.0942 32.6355 30.747 32.6178C30.3999 32.6 30.199 32.6791 29.9309 32.6795C29.5696 32.6801 29.4037 32.6899 29.0393 32.6843C28.8282 32.6811 28.47 32.6048 28.764 32.7256C28.1048 32.7353 27.2023 32.769 26.6127 32.72C26.4386 32.7057 26.6707 32.6677 26.641 32.6629C26.4933 32.6406 26.3688 32.7022 26.2164 32.6934C25.963 32.6787 25.4696 32.6307 25.2702 32.6194C25.261 32.6188 25.2517 32.6184 25.2423 32.6181C24.9737 32.6227 24.5702 32.5659 24.5275 32.544C24.2844 32.466 24.2698 32.3589 24.2039 32.3185C24.1163 32.2599 24.0482 32.2052 23.9935 32.1567C23.8165 31.9949 23.7758 31.9081 23.8104 31.7646C23.6868 31.7214 23.4221 31.2673 23.5285 31.1302C23.4844 31.1346 23.4516 31.0394 23.4411 30.9079C23.4297 30.7666 23.4281 30.5889 23.4163 30.4544C23.4429 30.4059 23.4693 30.3566 23.4962 30.3081C23.3316 29.7631 23.4511 28.6777 23.4707 27.9607C23.4711 27.9427 23.4022 27.9105 23.4177 27.8026C23.419 27.7958 23.45 27.8069 23.454 27.7345C23.4669 27.496 23.5442 26.5859 23.5449 26.4812C23.5475 26.0957 23.4961 26.0283 23.4913 25.7937C23.4848 25.4849 23.5312 25.4402 23.5246 25.1463C23.5216 25.0087 23.4605 24.8835 23.4691 24.667C23.4742 24.5388 23.5221 24.5261 23.526 24.4246C23.5399 24.0633 23.5096 23.798 23.5721 23.4774C23.4195 23.3937 23.532 23.2405 23.5435 23.0818C23.5905 22.4374 23.526 21.6344 23.5399 21.0815C23.5665 20.0333 23.6117 19.0572 23.6478 18.0745C23.6621 17.65 23.8365 17.2702 24.1468 16.979C24.2492 16.8813 24.3604 16.7967 24.4805 16.729C24.6799 16.6254 24.7072 16.5314 24.9569 16.4859C25.0403 16.4739 25.1292 16.4956 25.2423 16.5116C25.2878 16.5173 25.3373 16.5212 25.392 16.5214C25.5616 16.5222 25.8047 16.494 26.0166 16.4942C26.0729 16.4942 26.0779 16.5462 26.1608 16.5466C26.7894 16.5496 27.4033 16.5127 28.0383 16.4873C28.2736 16.4778 28.4191 16.5468 28.3792 16.4268C28.4692 16.4562 28.5566 16.4819 28.641 16.5109C28.9648 16.4353 29.2292 16.5141 29.6671 16.4947C29.7143 16.4924 30.0449 16.4095 30.2325 16.4693C30.2458 16.4266 30.2167 16.3903 30.2221 16.3516C30.4074 16.3353 30.6922 16.3846 30.8173 16.3897C30.9423 16.3947 31.0259 16.3392 31.0635 16.3386C31.2066 16.3372 31.1733 16.4103 31.1842 16.4115C31.8512 16.4814 31.7809 16.4425 32.1837 16.333C32.2845 16.3054 32.9692 16.3856 33.1077 16.2992C33.1139 16.3344 33.0758 16.3655 33.0648 16.3991C33.2705 16.4082 33.4777 16.4175 33.6842 16.4266C33.6404 16.3927 33.5878 16.3588 33.5479 16.3247C33.866 16.347 34.1437 16.3069 34.409 16.2871C34.4934 16.2806 34.5771 16.2814 34.6594 16.2927C34.8511 16.3239 34.8093 16.3965 34.9186 16.4089C34.9402 16.4123 34.9195 16.3524 34.9832 16.3687C35.3201 16.4639 35.4978 16.6238 35.6702 16.8134C35.763 16.9191 35.8548 17.0395 35.9459 17.2013C36.0597 17.4112 36.2358 17.6061 36.198 17.9784C36.1968 17.9879 36.1909 18.0237 36.1833 18.0745C36.1642 18.2054 36.1464 18.4359 36.2299 18.5957C36.193 18.6669 36.1737 18.7297 36.1426 18.7828C36.3162 19.2356 36.1461 19.1105 36.1057 19.7228C36.0928 19.9191 36.0995 20.4029 36.1109 20.8245C36.1221 21.0561 36.0303 21.2441 35.9605 21.3363C35.9398 21.3651 35.9233 21.3889 35.9106 21.4096C35.8574 21.4932 35.8781 21.5286 35.8573 21.548C35.6857 21.6783 35.6547 21.6144 35.4772 21.664C35.4305 21.6741 35.3798 21.685 35.3256 21.6936C35.1684 21.7215 34.9716 21.7147 34.8378 21.6248C34.7176 21.5369 34.8337 21.54 34.7083 21.4419C34.6979 21.4329 34.6861 21.4229 34.6726 21.4113C34.6391 21.3775 34.6662 21.5373 34.541 21.3181C34.4994 21.2841 34.4633 20.8952 34.5022 20.8245C34.5233 20.9577 34.6218 21.2217 34.8023 21.3478C34.8853 21.4138 34.9663 21.4493 35.0194 21.4671C35.1128 21.4988 35.2151 21.5093 35.3256 21.4996C35.5099 21.484 35.6596 21.4127 35.7763 21.2752C35.8857 21.147 35.9303 21.0048 35.9191 20.8245C35.8799 19.9813 35.8486 19.0514 35.824 18.0745C35.8138 17.694 35.6684 17.3648 35.3859 17.0976C35.1123 16.8344 34.7867 16.7053 34.409 16.713C31.2907 16.7531 28.0877 16.7444 25.8993 16.7242C25.6308 16.7218 25.4265 16.6868 25.2423 16.6634C25.1763 16.6529 25.1133 16.6484 25.0519 16.6539C24.8559 16.6788 25.0289 16.7126 24.8616 16.7461C24.6994 16.7869 24.566 16.8013 24.4247 16.8958C24.3555 16.9431 24.2891 16.9974 24.2257 17.0579C23.9388 17.3285 23.7817 17.6748 23.7756 18.0745C23.7602 18.9399 23.7469 19.8043 23.7393 20.6606C23.7361 21.0336 23.7896 21.3318 23.7896 21.6711C23.7895 21.8032 23.7206 21.8073 23.7212 21.9011C23.7266 22.9122 23.793 23.8475 23.7849 24.8531C23.7815 25.2706 23.7234 25.7218 23.718 26.1354C23.7133 26.4763 23.753 26.8297 23.7538 27.1362C23.7545 27.3026 23.702 27.3904 23.6978 27.4506C23.6841 27.6601 23.7482 27.5869 23.7482 27.694C23.748 27.9896 23.6706 28.1365 23.6766 28.4133C23.6791 28.522 23.7284 28.508 23.7361 28.6658C23.7458 28.8659 23.7002 28.7919 23.6986 28.9348C23.6984 28.9434 23.7337 28.9154 23.7351 28.9912C23.7444 29.4792 23.7722 30.0884 23.7698 30.5592C23.7692 30.6756 23.7677 30.7919 23.7655 30.9079C23.7532 31.313 23.8869 31.6849 24.1645 31.9856C24.3702 32.2132 24.6258 32.3716 24.9102 32.4339C25.1016 32.4709 25.0565 32.4124 25.1169 32.417C25.1625 32.4187 25.2037 32.4199 25.2423 32.4209C25.4885 32.4264 25.6259 32.463 25.9355 32.4463C25.9966 32.4431 26.2422 32.3794 26.4768 32.3955C26.6034 32.4042 26.7472 32.4439 26.8551 32.4532C26.963 32.4625 26.9803 32.404 27.11 32.404C27.3461 32.4038 27.2774 32.4443 27.6152 32.437C27.7513 32.4342 28.2055 32.3788 28.5559 32.383C29.1283 32.3899 29.8377 32.4405 30.5125 32.4413C30.744 32.4417 31.0413 32.3816 31.4003 32.381C31.839 32.3802 32.6473 32.3939 33.0969 32.3947C33.3268 32.3951 33.3434 32.458 33.3708 32.4607C33.5466 32.4782 33.4756 32.4078 33.5935 32.4106C33.7554 32.4144 33.9064 32.4663 34.0534 32.4698C34.1472 32.472 34.1621 32.4201 34.1824 32.4197C34.2588 32.418 34.3342 32.4165 34.409 32.4151C34.8287 32.4073 35.1778 32.2556 35.4656 31.9645C35.5623 31.8669 35.6467 31.7597 35.714 31.6412C35.8397 31.421 35.8984 31.1719 35.8952 30.9079C35.8873 29.9925 35.878 29.0755 35.8689 28.1579C35.8653 27.9926 35.8169 27.8791 35.7097 27.7738C35.6008 27.6699 35.4878 27.6276 35.3256 27.6285C35.1632 27.6321 35.0543 27.6786 34.9509 27.7831C34.8492 27.8897 34.8081 27.9982 34.8085 28.1579C34.8153 29.0753 34.8203 29.9923 34.8219 30.9079L34.8173 31.3253L34.409 31.3208C33.5013 31.3223 32.5951 31.3205 31.6912 31.3137C31.3558 31.3113 31.3431 31.2459 31.0483 31.2562C30.7535 31.2663 30.4687 31.4074 30.2263 31.2515C30.2185 31.283 30.2193 31.3054 30.2114 31.3341C29.6023 31.2897 28.9931 31.3356 28.3972 31.3413C27.9563 31.3455 27.5652 31.3405 27.1578 31.3371C26.7967 31.3338 26.8279 31.279 26.5153 31.3505C26.0919 31.3383 25.6672 31.3303 25.2423 31.3235L24.8222 31.3189L24.8267 30.9079C24.8448 29.7734 24.8538 28.6368 24.9079 27.516C24.7908 27.1547 24.8646 26.8084 24.8819 26.3087C24.8841 26.247 24.8414 26.3132 24.845 26.1303C24.8495 25.9005 24.9148 25.7816 24.9112 25.3947C24.9101 25.2923 24.8377 24.5335 24.8748 24.2528C24.9119 23.9721 24.9337 23.5654 24.9692 23.2738C24.9412 23.3152 24.9144 23.3677 24.8867 23.4138C24.8819 23.2684 24.8772 23.1222 24.8724 22.9767C24.9061 22.9556 24.9398 22.9344 24.9737 22.9141C24.9416 22.8297 24.9099 22.7452 24.8775 22.6599C25.0505 22.4762 24.994 22.6646 24.9503 22.2557C24.9285 22.0508 24.9587 21.8881 24.9412 21.6778C24.9347 21.602 24.8838 21.5535 24.8773 21.4699C24.8615 21.2651 24.9317 21.3845 24.9313 21.258C24.9307 21.1305 24.8537 20.9475 24.888 20.7192C25.0253 20.9575 24.9805 20.2685 24.8738 20.2357C24.8736 20.1537 24.878 20.0849 24.875 19.9943C25.1444 20.078 24.9532 19.6485 24.9163 19.478C24.8795 19.3076 24.9519 19.3145 24.9491 19.2747C24.9412 19.1598 24.9111 19.2434 24.9101 19.163C24.9059 18.7912 24.9261 18.4347 24.9401 18.0745L24.9434 17.769L25.2423 17.7723C25.3989 17.7784 25.5562 17.7833 25.7156 17.7845C25.7913 17.7851 25.7242 17.7442 25.8125 17.7482C25.9008 17.7523 25.9855 17.793 26.1161 17.7901C26.1511 17.7894 26.1622 17.7535 26.2167 17.7535C27.3608 17.7551 28.4471 17.7857 29.6138 17.7903C29.7193 17.7907 29.8022 17.7268 30.0063 17.7291C30.2103 17.7313 30.52 17.7889 30.7733 17.7934C30.8406 17.7946 30.8588 17.7414 30.948 17.7428C31.2513 17.7476 31.5126 17.791 31.8277 17.798C32.3602 17.8099 32.9177 17.7774 33.458 17.8089C33.5604 17.8147 33.544 17.8591 33.6917 17.8716C33.9467 17.8932 33.8507 17.8285 33.9024 17.8198C34.0712 17.7918 34.1243 17.8778 34.2876 17.8557C34.3126 17.8523 34.277 17.8013 34.2994 17.8005C34.34 17.7994 34.3762 17.8001 34.409 17.8021L34.6843 17.8052L34.6814 18.0745C34.6664 18.3212 34.5799 18.3736 34.6365 18.6995C34.5677 19.0277 34.5443 18.4795 34.5078 18.4232C34.4191 18.2857 34.3148 18.6491 34.2814 18.8634C34.2525 19.0479 34.3078 19.0465 34.3078 19.12C34.308 19.5086 34.3185 20.0873 34.2923 20.3829C34.2766 20.562 34.2535 20.2392 34.2354 20.3307C34.2173 20.4214 34.2588 20.4801 34.2134 20.5731C34.1681 20.6662 34.0345 20.856 33.9708 20.8201ZM33.1447 30.767C32.5489 30.9847 30.9686 30.962 30.1201 30.9412C29.4164 30.9239 28.8096 30.7561 28.9551 30.9993C29.7159 31.0009 30.3312 30.9765 31.1358 30.984C31.2195 30.9848 31.7185 31.0073 31.8921 31.0114C31.9899 31.0136 31.993 31.0538 32.1259 31.0534C32.1549 31.0531 32.3152 31.0007 32.3739 31.0021C32.5748 31.0067 33.1723 31.0873 33.2557 31.085C33.4871 31.0781 33.3983 31.0157 33.4982 31.0043C33.8336 30.9668 33.8706 31.0606 34.2029 31.0302C34.2354 31.0272 34.3089 31.0015 34.409 30.9805L34.4808 30.9813L34.4816 30.9079C34.4641 30.8246 34.4499 30.7229 34.4548 30.6111C34.4592 30.511 34.5014 30.3405 34.4994 30.2639C34.4885 29.8463 34.4326 29.3802 34.4419 28.9978C34.4496 28.6843 34.5126 28.7686 34.5211 28.6029C34.5286 28.4527 34.4693 28.2744 34.4549 28.1579C34.4534 28.1461 34.4525 28.1352 34.4525 28.1248C34.4452 27.9441 34.5694 27.7649 34.5972 27.7259C34.6323 27.6646 34.6756 27.6082 34.725 27.5572C34.882 27.3909 35.0999 27.3038 35.3256 27.2999C35.5569 27.2908 35.7849 27.3706 35.952 27.5315C36.1241 27.6884 36.2223 27.9185 36.2259 28.1579C36.2327 28.4088 36.2386 28.6617 36.2428 28.9194C36.2529 28.6654 36.2627 28.4115 36.2724 28.1579C36.2857 27.9107 36.1976 27.6488 36.0198 27.4637C35.8568 27.2824 35.6107 27.1697 35.3639 27.1561C35.3504 27.1577 35.3378 27.1594 35.3256 27.1611C34.9469 27.2523 35.1343 27.1614 34.8543 27.2467C34.7263 27.3035 34.6851 27.3836 34.6365 27.4687C34.6018 27.5325 34.5611 27.6008 34.4983 27.7038C34.4984 27.7036 34.4985 27.7034 34.4987 27.7032C34.4474 27.7846 34.3475 27.9472 34.3358 28.1579C34.3289 28.2554 34.3276 28.3587 34.3382 28.4614C34.3395 28.4724 34.3969 28.4998 34.3989 28.7305C34.4034 29.2489 34.4328 30.0433 34.4205 30.6266C34.4173 30.7795 34.3689 30.7681 34.3532 30.9079L34.409 30.8521C34.3921 30.8502 34.3731 30.8488 34.3513 30.848C34.2036 30.8426 34.0324 30.8984 33.8011 30.8859C33.511 30.87 33.3718 30.7741 33.1724 30.9074C33.156 30.8598 33.1643 30.8133 33.1447 30.767ZM25.2672 22.7858C25.2725 22.7451 25.4213 22.1993 25.2624 22.3611C25.1935 23.0946 25.2277 23.8877 25.189 24.6595C25.3461 24.396 25.2842 23.9501 25.2727 23.409C25.2727 23.4088 25.2727 23.4085 25.2727 23.4083C25.2721 23.3827 25.3132 23.4895 25.3058 23.3443C25.3021 23.2739 25.2392 23.004 25.2672 22.7858Z" fill="#F3832D"/>
</g>
<path d="M58.195 30.9912L55.763 31.0872C55.3683 31.0872 55.0376 30.9592 54.771 30.7032C54.515 30.4472 54.387 30.1059 54.387 29.6792L54.483 25.6632C53.8216 25.5672 53.491 25.2205 53.491 24.6232C53.491 24.3352 53.5816 24.1005 53.763 23.9192C53.9443 23.7379 54.179 23.6205 54.467 23.5672L54.387 20.6392C54.2696 20.4152 54.211 20.1539 54.211 19.8552C54.211 19.2152 54.7176 18.8952 55.731 18.8952L58.163 18.9912L60.675 18.8952C61.0803 18.8952 61.4003 18.9965 61.635 19.1992C61.8803 19.3912 62.003 19.6525 62.003 19.9832C62.003 20.3139 61.8803 20.5752 61.635 20.7672C61.4003 20.9485 61.0803 21.0392 60.675 21.0392L58.163 20.9432C57.587 20.9432 57.0856 20.9592 56.659 20.9912V23.6472C56.8296 23.6579 57.059 23.6632 57.347 23.6632L59.923 23.5512C60.307 23.5512 60.6216 23.6525 60.867 23.8552C61.1123 24.0472 61.235 24.3085 61.235 24.6392C61.235 24.9592 61.1123 25.2152 60.867 25.4072C60.6216 25.5885 60.307 25.6792 59.923 25.6792L57.395 25.5832H57.171C57.0216 25.5939 56.851 25.5992 56.659 25.5992C56.659 27.0819 56.6696 28.2179 56.691 29.0072C56.979 29.0285 57.4803 29.0392 58.195 29.0392L60.707 28.9432C61.1123 28.9432 61.4323 29.0392 61.667 29.2312C61.9123 29.4125 62.035 29.6685 62.035 29.9992C62.035 30.3299 61.9123 30.5965 61.667 30.7992C61.4323 30.9912 61.1123 31.0872 60.707 31.0872L58.195 30.9912ZM66.9455 24.7032C65.9108 23.0499 65.1428 21.9352 64.6415 21.3592C64.3961 21.0499 64.0975 20.8685 63.7455 20.8152C63.6495 20.7939 63.5748 20.7725 63.5215 20.7512C63.3935 20.6872 63.3295 20.4899 63.3295 20.1592C63.3295 19.8285 63.4468 19.5192 63.6815 19.2312C63.9268 18.9432 64.2255 18.7992 64.5775 18.7992C65.1855 18.7992 65.7508 19.1779 66.2735 19.9352L68.1775 22.9272C68.4975 22.4472 68.8281 21.9032 69.1695 21.2952C69.5108 20.6765 69.7668 20.2232 69.9375 19.9352C70.1081 19.6365 70.3108 19.3805 70.5455 19.1672C70.7801 18.9432 71.0308 18.8312 71.2975 18.8312C71.5748 18.8312 71.8095 18.9379 72.0015 19.1512C72.2041 19.3539 72.3055 19.5939 72.3055 19.8712C72.3055 20.1379 72.2201 20.4152 72.0495 20.7032C71.8788 20.9912 71.5215 21.5245 70.9775 22.3032C70.4441 23.0819 69.9161 23.9139 69.3935 24.7992C70.6095 26.6552 71.5215 27.9352 72.1295 28.6392C72.3748 28.9485 72.6735 29.1352 73.0255 29.1992C73.1215 29.2099 73.1961 29.2259 73.2495 29.2472C73.3775 29.3112 73.4415 29.5085 73.4415 29.8392C73.4415 30.1699 73.3188 30.4792 73.0735 30.7672C72.8388 31.0552 72.5455 31.1992 72.1935 31.1992C71.5961 31.1992 71.0361 30.8205 70.5135 30.0632L68.1295 26.5752C67.8095 27.0552 67.4201 27.7059 66.9615 28.5272C66.5028 29.3379 66.1668 29.9032 65.9535 30.2232C65.5481 30.8312 65.1428 31.1352 64.7375 31.1352C64.4495 31.1352 64.2041 31.0339 64.0015 30.8312C63.8095 30.6179 63.7135 30.3779 63.7135 30.1112C63.7135 29.8445 63.8255 29.5245 64.0495 29.1512C64.2735 28.7779 64.6788 28.1645 65.2655 27.3112C65.8628 26.4579 66.4228 25.5885 66.9455 24.7032ZM76.0496 18.8952L78.0016 18.9912L79.9536 18.8952C80.3483 18.8952 80.6629 18.9912 80.8976 19.1832C81.1429 19.3752 81.2656 19.6365 81.2656 19.9672C81.2656 20.2872 81.1429 20.5432 80.8976 20.7352C80.6629 20.9272 80.3483 21.0232 79.9536 21.0232L79.2016 20.9752C79.1269 22.5539 79.0896 23.8979 79.0896 25.0072C79.0896 26.1059 79.1269 27.4445 79.2016 29.0232C79.5856 28.9805 79.8363 28.9592 79.9536 28.9592C80.3483 28.9592 80.6629 29.0552 80.8976 29.2472C81.1429 29.4392 81.2656 29.7005 81.2656 30.0312C81.2656 30.3512 81.1429 30.6072 80.8976 30.7992C80.6629 30.9912 80.3483 31.0872 79.9536 31.0872L78.0016 30.9912L76.0496 31.1032C75.6443 31.1032 75.3189 31.0072 75.0736 30.8152C74.8389 30.6232 74.7216 30.3619 74.7216 30.0312C74.7216 29.7005 74.8389 29.4445 75.0736 29.2632C75.3189 29.0712 75.6443 28.9752 76.0496 28.9752L76.8016 29.0392C76.8763 27.4605 76.9136 26.1165 76.9136 25.0072C76.9136 23.8979 76.8763 22.5539 76.8016 20.9752C76.4816 21.0072 76.1723 21.0232 75.8736 21.0232C75.5856 21.0232 75.3189 20.9325 75.0736 20.7512C74.8389 20.5592 74.7216 20.2979 74.7216 19.9672C74.7216 19.6365 74.8389 19.3752 75.0736 19.1832C75.3189 18.9912 75.6443 18.8952 76.0496 18.8952ZM83.7333 18.8952L86.7733 18.9912L89.8133 18.8952C90.2187 18.8952 90.5387 18.9912 90.7733 19.1832C91.0187 19.3752 91.1413 19.6365 91.1413 19.9672C91.1413 20.2979 91.0187 20.5592 90.7733 20.7512C90.5387 20.9432 90.2187 21.0392 89.8133 21.0392L88.0053 20.9432C87.952 22.3512 87.9253 23.7272 87.9253 25.0712L88.0533 29.4232C88.0533 30.5752 87.648 31.1512 86.8373 31.1512C86.0267 31.1512 85.6213 30.5752 85.6213 29.4232L85.7493 25.0712C85.7493 24.1965 85.712 22.8205 85.6373 20.9432L83.7333 21.0392C83.328 21.0392 83.0027 20.9432 82.7573 20.7512C82.5227 20.5592 82.4053 20.2979 82.4053 19.9672C82.4053 19.6365 82.5227 19.3752 82.7573 19.1832C83.0027 18.9912 83.328 18.8952 83.7333 18.8952ZM102.996 24.1912L104.82 24.2872L106.692 24.1912C107.076 24.1912 107.391 24.3139 107.636 24.5592C107.882 24.8045 108.004 25.1139 108.004 25.4872C108.004 27.2365 107.535 28.6339 106.596 29.6792C105.668 30.7139 104.452 31.2312 102.948 31.2312C101.444 31.2312 100.18 30.6232 99.1565 29.4072C98.1325 28.1912 97.6205 26.7139 97.6205 24.9752C97.6205 23.2365 98.1485 21.7645 99.2045 20.5592C100.26 19.3539 101.594 18.7512 103.204 18.7512C104.239 18.7512 105.178 18.9752 106.02 19.4232C106.863 19.8712 107.284 20.3565 107.284 20.8792C107.284 21.1779 107.188 21.4179 106.996 21.5992C106.804 21.7699 106.559 21.8552 106.26 21.8552C105.962 21.8552 105.679 21.7699 105.412 21.5992C105.146 21.4179 104.836 21.2365 104.484 21.0552C104.132 20.8739 103.706 20.7832 103.204 20.7832C102.244 20.7832 101.45 21.1939 100.82 22.0152C100.202 22.8365 99.8925 23.8179 99.8925 24.9592C99.8925 26.1005 100.186 27.0979 100.772 27.9512C101.37 28.7939 102.122 29.2152 103.028 29.2152C103.711 29.2152 104.292 28.9592 104.772 28.4472C105.252 27.9245 105.54 27.1939 105.636 26.2552C105.519 26.2445 105.231 26.2392 104.772 26.2392L102.996 26.3192C102.602 26.3192 102.282 26.2232 102.036 26.0312C101.791 25.8285 101.668 25.5672 101.668 25.2472C101.668 24.9165 101.791 24.6605 102.036 24.4792C102.282 24.2872 102.602 24.1912 102.996 24.1912ZM118.478 18.7512C118.916 18.7512 119.257 18.9325 119.502 19.2952C119.758 19.6472 119.886 20.0952 119.886 20.6392C119.886 21.1725 119.737 22.6712 119.438 25.1352C119.438 25.7112 119.497 26.4739 119.614 27.4232C119.742 28.3619 119.908 28.9005 120.11 29.0392C120.302 29.1672 120.441 29.2472 120.526 29.2792C120.612 29.3112 120.67 29.3379 120.702 29.3592C120.756 29.4125 120.782 29.5192 120.782 29.6792C120.782 30.0845 120.644 30.4419 120.366 30.7512C120.089 31.0605 119.726 31.2152 119.278 31.2152C118.841 31.2152 118.478 31.0285 118.19 30.6552C117.902 30.2712 117.705 29.7859 117.598 29.1992C116.606 30.5539 115.444 31.2312 114.11 31.2312C113.396 31.2312 112.756 31.0499 112.19 30.6872C111.625 30.3139 111.177 29.8285 110.846 29.2312C110.174 28.0152 109.838 26.6659 109.838 25.1832C109.838 23.4339 110.308 21.9245 111.246 20.6552C112.185 19.3859 113.401 18.7512 114.894 18.7512C115.769 18.7512 116.601 18.9859 117.39 19.4552C117.55 18.9859 117.913 18.7512 118.478 18.7512ZM117.422 25.2792L117.342 21.7592C116.585 21.1085 115.769 20.7832 114.894 20.7832C114.158 20.7832 113.508 21.2045 112.942 22.0472C112.388 22.8792 112.11 23.8872 112.11 25.0712C112.11 26.2552 112.292 27.2419 112.654 28.0312C113.028 28.8099 113.54 29.1992 114.19 29.1992C114.852 29.1992 115.518 28.7619 116.19 27.8872C116.873 27.0125 117.284 26.1432 117.422 25.2792ZM125.384 24.7192L125.48 29.4232C125.48 30.5752 125.08 31.1512 124.28 31.1512C123.384 31.1512 122.936 30.4739 122.936 29.1192C122.936 28.0525 123.075 26.6072 123.352 24.7832C123.352 24.2819 123.294 23.5192 123.176 22.4952C123.059 21.4712 123 20.7245 123 20.2552C123 19.7752 123.107 19.4125 123.32 19.1672C123.534 18.9112 123.832 18.7832 124.216 18.7832C124.995 18.7832 125.384 19.3859 125.384 20.5912C126.27 19.4179 127.358 18.8312 128.648 18.8312C129.416 18.8312 130.083 19.0179 130.648 19.3912C131.224 19.7645 131.667 20.2605 131.976 20.8792C132.36 20.3032 132.862 19.8179 133.48 19.4232C134.099 19.0285 134.766 18.8312 135.48 18.8312C136.686 18.8312 137.619 19.2525 138.28 20.0952C138.952 20.9272 139.288 21.9459 139.288 23.1512L139.192 27.2312C139.192 28.2552 139.256 28.8259 139.384 28.9432C139.491 29.0392 139.63 29.1032 139.8 29.1352C139.971 29.1672 140.083 29.2205 140.136 29.2952C140.2 29.3592 140.232 29.4552 140.232 29.5832C140.232 30.0312 140.078 30.4099 139.768 30.7192C139.47 31.0285 139.118 31.1832 138.712 31.1832C138.04 31.1832 137.576 30.9539 137.32 30.4952C137.064 30.0259 136.936 29.3379 136.936 28.4312L137.016 24.1432C137.016 23.1619 136.867 22.3725 136.568 21.7752C136.28 21.1779 135.843 20.8792 135.256 20.8792C134.68 20.8792 134.088 21.2685 133.48 22.0472C132.883 22.8152 132.462 23.7059 132.216 24.7192L132.312 29.4232C132.312 30.5752 131.912 31.1512 131.112 31.1512C130.216 31.1512 129.768 30.4739 129.768 29.1192C129.768 28.0525 129.907 26.6072 130.184 24.7832C130.184 23.5672 130.04 22.6125 129.752 21.9192C129.464 21.2259 129.027 20.8792 128.44 20.8792C127.854 20.8792 127.256 21.2685 126.648 22.0472C126.051 22.8152 125.63 23.7059 125.384 24.7192ZM150.009 22.3192C150.009 21.9352 149.855 21.5832 149.545 21.2632C149.236 20.9432 148.793 20.7832 148.217 20.7832C147.46 20.7832 146.815 21.1032 146.281 21.7432C145.759 22.3832 145.391 23.1512 145.177 24.0472C145.817 24.1965 146.532 24.2712 147.321 24.2712C148.121 24.2712 148.767 24.1005 149.257 23.7592C149.759 23.4179 150.009 22.9379 150.009 22.3192ZM151.913 29.0552C151.913 29.4712 151.519 29.9405 150.729 30.4632C149.94 30.9752 149.097 31.2312 148.201 31.2312C147.305 31.2312 146.532 31.0765 145.881 30.7672C145.241 30.4472 144.713 30.0205 144.297 29.4872C143.423 28.3885 142.932 27.0925 142.825 25.5992C142.1 25.3112 141.737 24.8685 141.737 24.2712C141.737 23.9725 141.833 23.7325 142.025 23.5512C142.228 23.3592 142.473 23.2632 142.761 23.2632C142.847 23.2632 142.943 23.2792 143.049 23.3112C143.423 21.9885 144.057 20.9005 144.953 20.0472C145.849 19.1832 146.895 18.7512 148.089 18.7512C149.295 18.7512 150.292 19.0979 151.081 19.7912C151.881 20.4739 152.281 21.2952 152.281 22.2552C152.281 23.2045 152.041 23.9832 151.561 24.5912C150.655 25.7005 149.252 26.2552 147.353 26.2552C146.724 26.2552 145.993 26.1859 145.161 26.0472C145.321 26.9432 145.657 27.6952 146.169 28.3032C146.681 28.9112 147.268 29.2152 147.929 29.2152C148.665 29.2152 149.449 28.9645 150.281 28.4632C150.559 28.2925 150.815 28.2072 151.049 28.2072C151.284 28.2072 151.487 28.2872 151.657 28.4472C151.828 28.6072 151.913 28.8099 151.913 29.0552Z" fill="#F3832D"/>
</svg>
