<svg width="16" height="16" viewBox="0 0 16 16" fill="none" xmlns="http://www.w3.org/2000/svg">
<rect width="16" height="16" rx="4" fill="#097FC5"/>
<path d="M4.625 14C4.31563 14 4.05078 13.8825 3.83047 13.6475C3.61016 13.4125 3.5 13.13 3.5 12.8V11.615C3.5 11.415 3.54219 11.23 3.62656 11.06C3.71094 10.89 3.82344 10.745 3.96406 10.625C4.61094 10.065 5.09609 9.5 5.41953 8.93C5.74297 8.36 5.97031 7.85 6.10156 7.4H5.1875C5.02813 7.4 4.89453 7.3425 4.78672 7.2275C4.67891 7.1125 4.625 6.97 4.625 6.8C4.625 6.63 4.67891 6.4875 4.78672 6.3725C4.89453 6.2575 5.02813 6.2 5.1875 6.2H5.89062C5.75938 5.98 5.65625 5.745 5.58125 5.495C5.50625 5.245 5.46875 4.98 5.46875 4.7C5.46875 3.95 5.71484 3.3125 6.20703 2.7875C6.69922 2.2625 7.29688 2 8 2C8.70312 2 9.30078 2.2625 9.79297 2.7875C10.2852 3.3125 10.5312 3.95 10.5312 4.7C10.5312 4.98 10.4938 5.245 10.4188 5.495C10.3438 5.745 10.2406 5.98 10.1094 6.2H10.8125C10.9719 6.2 11.1055 6.2575 11.2133 6.3725C11.3211 6.4875 11.375 6.63 11.375 6.8C11.375 6.97 11.3211 7.1125 11.2133 7.2275C11.1055 7.3425 10.9719 7.4 10.8125 7.4H9.89844C10.0297 7.85 10.257 8.36 10.5805 8.93C10.9039 9.5 11.3891 10.065 12.0359 10.625C12.1766 10.745 12.2891 10.89 12.3734 11.06C12.4578 11.23 12.5 11.415 12.5 11.615V12.8C12.5 13.13 12.3898 13.4125 12.1695 13.6475C11.9492 13.8825 11.6844 14 11.375 14H4.625ZM4.625 12.8H11.375V11.6C10.5125 10.88 9.88906 10.1375 9.50469 9.3725C9.12031 8.6075 8.8625 7.95 8.73125 7.4H7.26875C7.1375 7.95 6.87969 8.6075 6.49531 9.3725C6.11094 10.1375 5.4875 10.88 4.625 11.6V12.8ZM8 6.2C8.39375 6.2 8.72656 6.055 8.99844 5.765C9.27031 5.475 9.40625 5.12 9.40625 4.7C9.40625 4.28 9.27031 3.925 8.99844 3.635C8.72656 3.345 8.39375 3.2 8 3.2C7.60625 3.2 7.27344 3.345 7.00156 3.635C6.72969 3.925 6.59375 4.28 6.59375 4.7C6.59375 5.12 6.72969 5.475 7.00156 5.765C7.27344 6.055 7.60625 6.2 8 6.2Z" fill="white"/>
</svg>
