<svg width="204" height="62" viewBox="0 0 204 62" fill="none" xmlns="http://www.w3.org/2000/svg">
<rect x="0.5" y="0.5" width="203" height="61" fill="#86E9D6" fill-opacity="0.2"/>
<rect x="0.5" y="0.5" width="203" height="61" stroke="#4DD5BC"/>
<path d="M25.2 39C25.312 39 25.424 38.888 25.536 38.664C25.648 38.44 25.704 38.072 25.704 37.56V26.04C25.704 25.528 25.648 25.168 25.536 24.96C25.424 24.736 25.312 24.616 25.2 24.6H34.176C35.424 24.6 36.4 24.744 37.104 25.032C37.808 25.32 38.304 25.736 38.592 26.28C38.88 26.808 39.024 27.432 39.024 28.152C39.024 28.728 38.92 29.216 38.712 29.616C38.52 30 38.272 30.304 37.968 30.528C37.664 30.752 37.36 30.92 37.056 31.032V31.08C38.096 31.32 38.88 31.752 39.408 32.376C39.936 32.984 40.2 33.8 40.2 34.824C40.2 35.512 40.064 36.176 39.792 36.816C39.52 37.456 39.016 37.984 38.28 38.4C37.56 38.8 36.512 39 35.136 39H25.2ZM30.36 36.336H33.96C34.872 36.336 35.52 36.208 35.904 35.952C36.304 35.68 36.504 35.248 36.504 34.656C36.504 34.096 36.288 33.664 35.856 33.36C35.424 33.04 34.712 32.88 33.72 32.88H30.384C29.904 32.88 29.616 32.912 29.52 32.976C29.44 33.04 29.4 33.256 29.4 33.624V35.616C29.4 35.968 29.44 36.176 29.52 36.24C29.616 36.304 29.896 36.336 30.36 36.336ZM30.384 30.432H33.216C33.984 30.432 34.528 30.304 34.848 30.048C35.184 29.776 35.352 29.376 35.352 28.848C35.352 28.32 35.192 27.928 34.872 27.672C34.568 27.416 34.024 27.288 33.24 27.288H30.36C29.88 27.288 29.6 27.32 29.52 27.384C29.44 27.432 29.4 27.64 29.4 28.008V29.712C29.4 30.064 29.44 30.272 29.52 30.336C29.616 30.4 29.904 30.432 30.384 30.432ZM46.6099 39.24C45.1699 39.24 44.0179 38.96 43.1539 38.4C42.3059 37.824 41.8819 36.904 41.8819 35.64C41.8819 34.76 42.1059 34.048 42.5539 33.504C43.0019 32.96 43.6099 32.56 44.3779 32.304C45.1619 32.032 46.0499 31.896 47.0419 31.896C47.7779 31.896 48.4019 31.96 48.9139 32.088C49.4419 32.216 49.8659 32.352 50.1859 32.496C50.5059 32.64 50.7139 32.744 50.8099 32.808C50.8099 32.136 50.7379 31.592 50.5939 31.176C50.4499 30.744 50.1859 30.432 49.8019 30.24C49.4339 30.032 48.9139 29.928 48.2419 29.928C47.2659 29.928 46.4019 30.024 45.6499 30.216C44.8979 30.408 44.2819 30.632 43.8019 30.888C43.3379 31.144 43.0179 31.36 42.8419 31.536V30.816L42.6019 28.464C42.7139 28.4 43.0099 28.296 43.4899 28.152C43.9699 28.008 44.6259 27.872 45.4579 27.744C46.2899 27.6 47.2819 27.528 48.4339 27.528C50.0179 27.528 51.2259 27.76 52.0579 28.224C52.8899 28.672 53.4579 29.32 53.7619 30.168C54.0819 31.016 54.2419 32.04 54.2419 33.24V37.56C54.2419 38.008 54.2899 38.336 54.3859 38.544C54.4979 38.736 54.6099 38.888 54.7219 39H50.8339V38.496L50.8819 38.04L50.8339 37.992C50.7059 38.136 50.5219 38.28 50.2819 38.424C50.0419 38.568 49.7459 38.704 49.3939 38.832C49.0419 38.944 48.6339 39.04 48.1699 39.12C47.7059 39.2 47.1859 39.24 46.6099 39.24ZM47.7379 36.816C48.4099 36.816 48.9699 36.768 49.4179 36.672C49.8819 36.56 50.2339 36.416 50.4739 36.24C50.7139 36.048 50.8339 35.824 50.8339 35.568C50.8339 35.2 50.5539 34.896 49.9939 34.656C49.4499 34.416 48.7059 34.296 47.7619 34.296C46.8499 34.296 46.2019 34.424 45.8179 34.68C45.4499 34.936 45.2659 35.256 45.2659 35.64C45.2659 36.12 45.4819 36.44 45.9139 36.6C46.3459 36.744 46.9539 36.816 47.7379 36.816ZM62.8646 39.24C61.2006 39.24 59.8886 38.984 58.9286 38.472C57.9846 37.96 57.3206 37.264 56.9366 36.384C56.5526 35.504 56.3606 34.512 56.3606 33.408C56.3606 31.456 56.8886 29.992 57.9446 29.016C59.0166 28.04 60.5766 27.552 62.6246 27.552C63.6966 27.552 64.6726 27.632 65.5526 27.792C66.4486 27.952 67.1046 28.104 67.5206 28.248V28.968L68.0006 31.536C67.6486 31.2 67.0086 30.856 66.0806 30.504C65.1686 30.136 64.0726 29.952 62.7926 29.952C62.1046 29.952 61.5286 30.08 61.0646 30.336C60.6166 30.576 60.2806 30.952 60.0566 31.464C59.8486 31.976 59.7446 32.632 59.7446 33.432C59.7446 34.216 59.8646 34.856 60.1046 35.352C60.3446 35.848 60.7366 36.208 61.2806 36.432C61.8246 36.656 62.5446 36.768 63.4406 36.768C64.5766 36.768 65.5126 36.624 66.2486 36.336C67.0006 36.032 67.5046 35.736 67.7606 35.448V36.168L68.0006 38.088C67.6966 38.344 67.0966 38.6 66.2006 38.856C65.3206 39.112 64.2086 39.24 62.8646 39.24ZM70.0091 39C70.1211 39 70.2251 38.888 70.3211 38.664C70.4331 38.44 70.4891 38.072 70.4891 37.56V23.88C70.4891 23.368 70.4331 23.008 70.3211 22.8C70.2251 22.576 70.1211 22.456 70.0091 22.44H73.8971V31.512C73.8971 31.864 73.9211 32.08 73.9691 32.16C74.0171 32.224 74.1611 32.256 74.4011 32.256C74.7691 32.256 75.1451 32.136 75.5291 31.896C75.9131 31.656 76.2651 31.312 76.5851 30.864C76.9051 30.4 77.1291 29.856 77.2571 29.232C77.3691 28.704 77.4171 28.328 77.4011 28.104C77.3851 27.88 77.3371 27.768 77.2571 27.768H82.1291C82.0171 27.768 81.8491 27.88 81.6251 28.104C81.4171 28.312 81.1771 28.688 80.9051 29.232C80.5851 29.888 80.2571 30.48 79.9211 31.008C79.5851 31.52 79.2331 31.96 78.8651 32.328C78.4971 32.68 78.0971 32.968 77.6651 33.192C78.4171 33.512 79.0491 33.92 79.5611 34.416C80.0731 34.896 80.5131 35.416 80.8811 35.976C81.2651 36.52 81.6171 37.048 81.9371 37.56C82.2571 38.072 82.5371 38.44 82.7771 38.664C83.0331 38.888 83.2171 39 83.3291 39H78.4811C78.5771 38.984 78.6091 38.848 78.5771 38.592C78.5611 38.336 78.4011 37.912 78.0971 37.32C77.7931 36.712 77.4331 36.2 77.0171 35.784C76.6171 35.352 76.1851 35.024 75.7211 34.8C75.2731 34.576 74.8331 34.464 74.4011 34.464C74.1451 34.464 73.9931 34.496 73.9451 34.56C73.9131 34.608 73.8971 34.816 73.8971 35.184V37.56C73.8971 38.072 73.9451 38.44 74.0411 38.664C74.1531 38.888 74.2651 39 74.3771 39H70.0091ZM94.6356 39.24C93.5316 39.24 92.7316 39.008 92.2356 38.544C91.7396 38.064 91.4916 37.288 91.4916 36.216V30.168H89.3316V27.768C90.0676 27.768 90.6436 27.68 91.0596 27.504C91.4756 27.312 91.7716 26.984 91.9476 26.52C92.1236 26.056 92.2116 25.408 92.2116 24.576H94.8996V27.768H99.0036C98.8916 28.088 98.7796 28.488 98.6676 28.968C98.5716 29.432 98.5236 29.832 98.5236 30.168H94.8996V34.896C94.8996 35.632 94.9556 36.136 95.0676 36.408C95.1796 36.68 95.4436 36.816 95.8596 36.816C96.1316 36.816 96.4276 36.72 96.7476 36.528C97.0836 36.336 97.4036 36.104 97.7076 35.832C98.0276 35.544 98.2916 35.272 98.4996 35.016V35.76L98.7396 38.088C98.5476 38.248 98.2596 38.424 97.8756 38.616C97.4916 38.792 97.0196 38.936 96.4596 39.048C95.9156 39.176 95.3076 39.24 94.6356 39.24ZM106.146 39.24C104.546 39.24 103.29 38.984 102.378 38.472C101.482 37.96 100.85 37.264 100.482 36.384C100.13 35.504 99.9544 34.512 99.9544 33.408C99.9544 32.288 100.138 31.288 100.506 30.408C100.89 29.528 101.53 28.832 102.426 28.32C103.322 27.792 104.562 27.528 106.146 27.528C107.73 27.528 108.97 27.792 109.866 28.32C110.762 28.832 111.394 29.528 111.762 30.408C112.146 31.288 112.338 32.288 112.338 33.408C112.338 34.512 112.154 35.504 111.786 36.384C111.434 37.264 110.81 37.96 109.914 38.472C109.018 38.984 107.762 39.24 106.146 39.24ZM106.146 36.816C106.818 36.816 107.354 36.72 107.754 36.528C108.17 36.32 108.466 35.968 108.642 35.472C108.834 34.976 108.93 34.288 108.93 33.408C108.93 32.528 108.834 31.84 108.642 31.344C108.466 30.832 108.17 30.472 107.754 30.264C107.354 30.04 106.818 29.928 106.146 29.928C105.474 29.928 104.93 30.04 104.514 30.264C104.114 30.488 103.818 30.856 103.626 31.368C103.45 31.88 103.362 32.568 103.362 33.432C103.362 34.28 103.45 34.952 103.626 35.448C103.818 35.944 104.114 36.296 104.514 36.504C104.93 36.712 105.474 36.816 106.146 36.816ZM125.908 39.24C124.484 39.24 123.284 39.16 122.308 39C121.332 38.84 120.66 38.68 120.292 38.52V37.8L119.788 35.448C120.204 35.752 120.98 36.056 122.116 36.36C123.252 36.664 124.644 36.816 126.292 36.816C126.788 36.816 127.18 36.784 127.468 36.72C127.772 36.656 127.988 36.552 128.116 36.408C128.244 36.264 128.308 36.08 128.308 35.856C128.308 35.584 128.204 35.376 127.996 35.232C127.804 35.088 127.452 34.976 126.94 34.896C126.428 34.8 125.684 34.688 124.708 34.56C123.476 34.4 122.5 34.176 121.78 33.888C121.06 33.584 120.548 33.2 120.244 32.736C119.956 32.256 119.812 31.672 119.812 30.984C119.812 30.344 119.964 29.768 120.268 29.256C120.588 28.728 121.132 28.312 121.9 28.008C122.684 27.688 123.772 27.528 125.164 27.528C126.476 27.528 127.628 27.608 128.62 27.768C129.612 27.928 130.324 28.088 130.756 28.248V28.968L131.236 31.08C130.868 30.84 130.148 30.592 129.076 30.336C128.004 30.08 126.644 29.952 124.996 29.952C124.356 29.952 123.9 30.016 123.628 30.144C123.356 30.272 123.22 30.496 123.22 30.816C123.22 30.976 123.26 31.112 123.34 31.224C123.436 31.336 123.612 31.44 123.868 31.536C124.124 31.632 124.492 31.728 124.972 31.824C125.452 31.904 126.084 31.992 126.868 32.088C128.228 32.264 129.252 32.512 129.94 32.832C130.628 33.136 131.092 33.52 131.332 33.984C131.572 34.432 131.692 34.976 131.692 35.616C131.692 36.432 131.484 37.112 131.068 37.656C130.668 38.184 130.036 38.584 129.172 38.856C128.324 39.112 127.236 39.24 125.908 39.24ZM138.159 39.24C137.055 39.24 136.255 39.008 135.759 38.544C135.263 38.064 135.015 37.288 135.015 36.216V30.168H132.855V27.768C133.591 27.768 134.167 27.68 134.583 27.504C134.999 27.312 135.295 26.984 135.471 26.52C135.647 26.056 135.735 25.408 135.735 24.576H138.423V27.768H142.527C142.415 28.088 142.303 28.488 142.191 28.968C142.095 29.432 142.047 29.832 142.047 30.168H138.423V34.896C138.423 35.632 138.479 36.136 138.591 36.408C138.703 36.68 138.967 36.816 139.383 36.816C139.655 36.816 139.951 36.72 140.271 36.528C140.607 36.336 140.927 36.104 141.231 35.832C141.551 35.544 141.815 35.272 142.023 35.016V35.76L142.263 38.088C142.071 38.248 141.783 38.424 141.399 38.616C141.015 38.792 140.543 38.936 139.983 39.048C139.439 39.176 138.831 39.24 138.159 39.24ZM148.446 39.24C147.006 39.24 145.854 38.96 144.99 38.4C144.142 37.824 143.718 36.904 143.718 35.64C143.718 34.76 143.942 34.048 144.39 33.504C144.838 32.96 145.446 32.56 146.214 32.304C146.998 32.032 147.886 31.896 148.878 31.896C149.614 31.896 150.238 31.96 150.75 32.088C151.278 32.216 151.702 32.352 152.022 32.496C152.342 32.64 152.55 32.744 152.646 32.808C152.646 32.136 152.574 31.592 152.43 31.176C152.286 30.744 152.022 30.432 151.638 30.24C151.27 30.032 150.75 29.928 150.078 29.928C149.102 29.928 148.238 30.024 147.486 30.216C146.734 30.408 146.118 30.632 145.638 30.888C145.174 31.144 144.854 31.36 144.678 31.536V30.816L144.438 28.464C144.55 28.4 144.846 28.296 145.326 28.152C145.806 28.008 146.462 27.872 147.294 27.744C148.126 27.6 149.118 27.528 150.27 27.528C151.854 27.528 153.062 27.76 153.894 28.224C154.726 28.672 155.294 29.32 155.598 30.168C155.918 31.016 156.078 32.04 156.078 33.24V37.56C156.078 38.008 156.126 38.336 156.222 38.544C156.334 38.736 156.446 38.888 156.558 39H152.67V38.496L152.718 38.04L152.67 37.992C152.542 38.136 152.358 38.28 152.118 38.424C151.878 38.568 151.582 38.704 151.23 38.832C150.878 38.944 150.47 39.04 150.006 39.12C149.542 39.2 149.022 39.24 148.446 39.24ZM149.574 36.816C150.246 36.816 150.806 36.768 151.254 36.672C151.718 36.56 152.07 36.416 152.31 36.24C152.55 36.048 152.67 35.824 152.67 35.568C152.67 35.2 152.39 34.896 151.83 34.656C151.286 34.416 150.542 34.296 149.598 34.296C148.686 34.296 148.038 34.424 147.654 34.68C147.286 34.936 147.102 35.256 147.102 35.64C147.102 36.12 147.318 36.44 147.75 36.6C148.182 36.744 148.79 36.816 149.574 36.816ZM158.533 39C158.645 39 158.749 38.888 158.845 38.664C158.957 38.44 159.013 38.072 159.013 37.56V29.448C159.013 28.936 158.957 28.576 158.845 28.368C158.749 28.144 158.645 28.024 158.533 28.008C159.237 28.008 159.957 27.96 160.693 27.864C161.429 27.752 162.005 27.64 162.421 27.528V28.488L162.373 28.896L162.421 28.944C162.533 28.768 162.709 28.576 162.949 28.368C163.205 28.144 163.525 27.952 163.909 27.792C164.309 27.616 164.773 27.528 165.301 27.528C166.085 27.528 166.781 27.64 167.389 27.864C167.997 28.072 168.429 28.288 168.685 28.512L167.965 31.728V32.448C167.725 32.112 167.397 31.768 166.981 31.416C166.581 31.064 166.133 30.768 165.637 30.528C165.157 30.288 164.661 30.168 164.149 30.168C163.573 30.168 163.141 30.376 162.853 30.792C162.565 31.208 162.421 31.864 162.421 32.76V37.56C162.421 38.072 162.469 38.44 162.565 38.664C162.677 38.888 162.789 39 162.901 39H158.533ZM174.956 39.24C173.852 39.24 173.052 39.008 172.556 38.544C172.06 38.064 171.812 37.288 171.812 36.216V30.168H169.652V27.768C170.388 27.768 170.964 27.68 171.38 27.504C171.796 27.312 172.092 26.984 172.268 26.52C172.444 26.056 172.532 25.408 172.532 24.576H175.22V27.768H179.324C179.212 28.088 179.1 28.488 178.988 28.968C178.892 29.432 178.844 29.832 178.844 30.168H175.22V34.896C175.22 35.632 175.276 36.136 175.388 36.408C175.5 36.68 175.764 36.816 176.18 36.816C176.452 36.816 176.748 36.72 177.068 36.528C177.404 36.336 177.724 36.104 178.028 35.832C178.348 35.544 178.612 35.272 178.82 35.016V35.76L179.06 38.088C178.868 38.248 178.58 38.424 178.196 38.616C177.812 38.792 177.34 38.936 176.78 39.048C176.236 39.176 175.628 39.24 174.956 39.24Z" fill="white"/>
</svg>
