<svg width="660" height="81" viewBox="0 0 660 81" fill="none" xmlns="http://www.w3.org/2000/svg">
<rect width="660" height="81" fill="#F6F6F6"/>
<path d="M33.92 39.96V47.5H32.76L32.3 45.48C30.94 46.9733 29.3133 47.72 27.42 47.72C25.34 47.72 23.6867 46.9533 22.46 45.42C21.3933 44.0733 20.86 42.3933 20.86 40.38C20.86 37.7533 21.72 35.7333 23.44 34.32C24.56 33.4133 25.9933 32.96 27.74 32.96C29.8067 32.96 31.3933 33.5867 32.5 34.84C33.1 35.52 33.5067 36.4 33.72 37.48H31.86C31.66 36.5733 31.1933 35.8667 30.46 35.36C29.7267 34.84 28.8067 34.58 27.7 34.58C26.0867 34.58 24.8133 35.1667 23.88 36.34C23.08 37.3667 22.68 38.68 22.68 40.28C22.68 42.1467 23.1867 43.62 24.2 44.7C25.08 45.6333 26.2867 46.1 27.82 46.1C29.2067 46.1 30.3267 45.6467 31.18 44.74C31.9267 43.94 32.3 42.9667 32.3 41.82V41.58H27.94V39.96H33.92ZM45.7734 46.12V47.44C45.3201 47.6 44.9668 47.68 44.7134 47.68C43.6468 47.68 43.0668 47.1933 42.9734 46.22C42.2401 47.22 41.0734 47.72 39.4734 47.72C38.3668 47.72 37.5068 47.4133 36.8934 46.8C36.3601 46.2667 36.0934 45.58 36.0934 44.74C36.0934 43.78 36.4334 43.04 37.1134 42.52C37.5001 42.2267 38.3068 41.94 39.5334 41.66L42.8934 40.9L42.9134 40.04C42.9134 39.0133 42.1401 38.5 40.5934 38.5C39.1134 38.5 38.3201 39.1 38.2134 40.3H36.5534C36.5934 39.3933 36.8201 38.7 37.2334 38.22C37.9401 37.4067 39.0868 37 40.6734 37C43.2468 37 44.5334 37.9333 44.5334 39.8V45.54C44.5334 46.0467 44.7534 46.3 45.1934 46.3C45.2468 46.3 45.3868 46.26 45.6134 46.18C45.6934 46.1533 45.7468 46.1333 45.7734 46.12ZM42.9134 42.24L40.2734 42.92C39.3268 43.16 38.6734 43.4067 38.3134 43.66C37.9668 43.9133 37.7934 44.2667 37.7934 44.72C37.7934 45.7733 38.4734 46.3 39.8334 46.3C40.7934 46.3 41.6068 45.9867 42.2734 45.36C42.7001 44.9733 42.9134 44.5333 42.9134 44.04V42.24ZM47.5714 37.22H49.0914V38.7C49.8914 37.5667 50.9447 37 52.2514 37C53.5181 37 54.4381 37.5067 55.0114 38.52C55.5047 37.9467 55.9781 37.5533 56.4314 37.34C56.8981 37.1133 57.4714 37 58.1514 37C60.1514 37 61.1514 37.94 61.1514 39.82V47.5H59.5114V40.46C59.5114 39.1 58.8714 38.42 57.5914 38.42C56.9247 38.42 56.3581 38.68 55.8914 39.2C55.4247 39.72 55.1914 40.34 55.1914 41.06V47.5H53.5514V40.46C53.5514 39.1 52.9181 38.42 51.6514 38.42C50.9714 38.42 50.3914 38.68 49.9114 39.2C49.4447 39.7067 49.2114 40.3267 49.2114 41.06V47.5H47.5714V37.22ZM72.6186 42.84H65.0386C65.0519 43.72 65.2386 44.42 65.5986 44.94C66.1719 45.78 66.9986 46.2 68.0786 46.2C69.4119 46.2 70.3119 45.5667 70.7786 44.3H72.4186C72.2053 45.38 71.7119 46.22 70.9386 46.82C70.1653 47.42 69.1919 47.72 68.0186 47.72C66.4586 47.72 65.2653 47.1867 64.4386 46.12C63.7053 45.1867 63.3386 43.9533 63.3386 42.42C63.3386 40.6467 63.8186 39.2667 64.7786 38.28C65.6186 37.4267 66.7053 37 68.0386 37C69.0119 37 69.8653 37.2333 70.5986 37.7C71.3453 38.1667 71.8786 38.8067 72.1986 39.62C72.4786 40.3133 72.6186 41.3667 72.6186 42.78V42.84ZM70.8586 41.5C70.8586 40.6067 70.5919 39.8867 70.0586 39.34C69.5386 38.78 68.8653 38.5 68.0386 38.5C67.1986 38.5 66.5119 38.7733 65.9786 39.32C65.4586 39.8533 65.1653 40.58 65.0986 41.5H70.8586ZM82.5484 37.22V38.54H80.4484V45.38C80.4484 45.62 80.5284 45.8267 80.6884 46C80.8618 46.16 81.0818 46.24 81.3484 46.24C81.6018 46.24 81.9884 46.18 82.5084 46.06L82.6884 47.5C81.8618 47.6467 81.2351 47.72 80.8084 47.72C79.4884 47.72 78.8284 47.18 78.8284 46.1V38.54H77.4284V37.22H78.8284V35.12L80.4484 34.38V37.22H82.5484ZM84.4659 33.18H86.0859V38.66C86.5793 38.0467 87.0726 37.62 87.5659 37.38C88.0593 37.1267 88.6726 37 89.4059 37C90.4059 37 91.1926 37.2533 91.7659 37.76C92.3393 38.2533 92.6259 38.9333 92.6259 39.8V47.5H91.0059V40.46C91.0059 39.74 90.7859 39.2133 90.3459 38.88C89.9326 38.5733 89.4459 38.42 88.8859 38.42C88.0459 38.42 87.3659 38.7333 86.8459 39.36C86.3393 39.9867 86.0859 40.82 86.0859 41.86V47.5H84.4659V33.18ZM104.064 42.84H96.4839C96.4972 43.72 96.6839 44.42 97.0439 44.94C97.6172 45.78 98.4439 46.2 99.5239 46.2C100.857 46.2 101.757 45.5667 102.224 44.3H103.864C103.651 45.38 103.157 46.22 102.384 46.82C101.611 47.42 100.637 47.72 99.4639 47.72C97.9039 47.72 96.7106 47.1867 95.8839 46.12C95.1506 45.1867 94.7839 43.9533 94.7839 42.42C94.7839 40.6467 95.2639 39.2667 96.2239 38.28C97.0639 37.4267 98.1506 37 99.4839 37C100.457 37 101.311 37.2333 102.044 37.7C102.791 38.1667 103.324 38.8067 103.644 39.62C103.924 40.3133 104.064 41.3667 104.064 42.78V42.84ZM102.304 41.5C102.304 40.6067 102.037 39.8867 101.504 39.34C100.984 38.78 100.311 38.5 99.4839 38.5C98.6439 38.5 97.9572 38.7733 97.4239 39.32C96.9039 39.8533 96.6106 40.58 96.5439 41.5H102.304ZM106.302 37.22H107.822V38.7C108.622 37.5667 109.675 37 110.982 37C112.249 37 113.169 37.5067 113.742 38.52C114.235 37.9467 114.709 37.5533 115.162 37.34C115.629 37.1133 116.202 37 116.882 37C118.882 37 119.882 37.94 119.882 39.82V47.5H118.242V40.46C118.242 39.1 117.602 38.42 116.322 38.42C115.655 38.42 115.089 38.68 114.622 39.2C114.155 39.72 113.922 40.34 113.922 41.06V47.5H112.282V40.46C112.282 39.1 111.649 38.42 110.382 38.42C109.702 38.42 109.122 38.68 108.642 39.2C108.175 39.7067 107.942 40.3267 107.942 41.06V47.5H106.302V37.22ZM131.349 42.84H123.769C123.782 43.72 123.969 44.42 124.329 44.94C124.902 45.78 125.729 46.2 126.809 46.2C128.142 46.2 129.042 45.5667 129.509 44.3H131.149C130.936 45.38 130.442 46.22 129.669 46.82C128.896 47.42 127.922 47.72 126.749 47.72C125.189 47.72 123.996 47.1867 123.169 46.12C122.436 45.1867 122.069 43.9533 122.069 42.42C122.069 40.6467 122.549 39.2667 123.509 38.28C124.349 37.4267 125.436 37 126.769 37C127.742 37 128.596 37.2333 129.329 37.7C130.076 38.1667 130.609 38.8067 130.929 39.62C131.209 40.3133 131.349 41.3667 131.349 42.78V42.84ZM129.589 41.5C129.589 40.6067 129.322 39.8867 128.789 39.34C128.269 38.78 127.596 38.5 126.769 38.5C125.929 38.5 125.242 38.7733 124.709 39.32C124.189 39.8533 123.896 40.58 123.829 41.5H129.589Z" fill="#303131"/>
<path d="M143.836 74.828L159.328 69.664L154.164 54.172L138.672 59.336L143.836 74.828ZM173 16.5L171.211 15.6056L147.211 63.6056L149 64.5L150.789 65.3944L174.789 17.3944L173 16.5Z" fill="#F0EA6E"/>
<path d="M190.56 47.5V33.18H196.38C197.713 33.18 198.747 33.5133 199.48 34.18C200.24 34.8733 200.62 35.7533 200.62 36.82C200.62 38.2867 199.953 39.3267 198.62 39.94C200.367 40.6067 201.24 41.7667 201.24 43.42C201.24 44.5667 200.873 45.5267 200.14 46.3C199.38 47.1 198.333 47.5 197 47.5H190.56ZM192.38 39.34H195.92C196.853 39.34 197.547 39.1733 198 38.84C198.52 38.4533 198.78 37.8667 198.78 37.08C198.78 36.2933 198.52 35.7 198 35.3C197.547 34.9667 196.853 34.8 195.92 34.8H192.38V39.34ZM192.38 45.88H196.84C197.653 45.88 198.287 45.6667 198.74 45.24C199.193 44.8 199.42 44.1933 199.42 43.42C199.42 42.6467 199.193 42.0467 198.74 41.62C198.287 41.18 197.653 40.96 196.84 40.96H192.38V45.88ZM205.085 33.18V47.5H203.445V33.18H205.085ZM215.921 47.5H214.301V45.88C213.568 47.1067 212.474 47.72 211.021 47.72C210.021 47.72 209.221 47.4733 208.621 46.98C208.034 46.4733 207.741 45.8 207.741 44.96V37.22H209.361V44.3C209.361 44.9 209.554 45.38 209.941 45.74C210.328 46.1 210.848 46.28 211.501 46.28C212.354 46.28 213.034 45.9733 213.541 45.36C214.048 44.7333 214.301 43.8933 214.301 42.84V37.22H215.921V47.5ZM227.439 42.84H219.859C219.872 43.72 220.059 44.42 220.419 44.94C220.992 45.78 221.819 46.2 222.899 46.2C224.232 46.2 225.132 45.5667 225.599 44.3H227.239C227.026 45.38 226.532 46.22 225.759 46.82C224.986 47.42 224.012 47.72 222.839 47.72C221.279 47.72 220.086 47.1867 219.259 46.12C218.526 45.1867 218.159 43.9533 218.159 42.42C218.159 40.6467 218.639 39.2667 219.599 38.28C220.439 37.4267 221.526 37 222.859 37C223.832 37 224.686 37.2333 225.419 37.7C226.166 38.1667 226.699 38.8067 227.019 39.62C227.299 40.3133 227.439 41.3667 227.439 42.78V42.84ZM225.679 41.5C225.679 40.6067 225.412 39.8867 224.879 39.34C224.359 38.78 223.686 38.5 222.859 38.5C222.019 38.5 221.332 38.7733 220.799 39.32C220.279 39.8533 219.986 40.58 219.919 41.5H225.679ZM235.569 41.44V47.5H233.749V33.18H239.669C241.175 33.18 242.309 33.5933 243.069 34.42C243.735 35.14 244.069 36.1267 244.069 37.38C244.069 38.6467 243.662 39.6533 242.849 40.4C242.102 41.0933 241.175 41.44 240.069 41.44H235.569ZM235.569 39.82H239.389C240.255 39.82 240.935 39.6 241.429 39.16C241.922 38.72 242.169 38.1 242.169 37.3C242.169 36.5133 241.922 35.9 241.429 35.46C240.935 35.02 240.255 34.8 239.389 34.8H235.569V39.82ZM248.054 33.18V47.5H246.414V33.18H248.054ZM259.93 46.12V47.44C259.476 47.6 259.123 47.68 258.87 47.68C257.803 47.68 257.223 47.1933 257.13 46.22C256.396 47.22 255.23 47.72 253.63 47.72C252.523 47.72 251.663 47.4133 251.05 46.8C250.516 46.2667 250.25 45.58 250.25 44.74C250.25 43.78 250.59 43.04 251.27 42.52C251.656 42.2267 252.463 41.94 253.69 41.66L257.05 40.9L257.07 40.04C257.07 39.0133 256.296 38.5 254.75 38.5C253.27 38.5 252.476 39.1 252.37 40.3H250.71C250.75 39.3933 250.976 38.7 251.39 38.22C252.096 37.4067 253.243 37 254.83 37C257.403 37 258.69 37.9333 258.69 39.8V45.54C258.69 46.0467 258.91 46.3 259.35 46.3C259.403 46.3 259.543 46.26 259.77 46.18C259.85 46.1533 259.903 46.1333 259.93 46.12ZM257.07 42.24L254.43 42.92C253.483 43.16 252.83 43.4067 252.47 43.66C252.123 43.9133 251.95 44.2667 251.95 44.72C251.95 45.7733 252.63 46.3 253.99 46.3C254.95 46.3 255.763 45.9867 256.43 45.36C256.856 44.9733 257.07 44.5333 257.07 44.04V42.24ZM267.988 37.22H269.748L265.168 49.66C264.634 51.0733 263.748 51.78 262.508 51.78C261.921 51.78 261.408 51.6467 260.968 51.38L261.288 49.96C261.621 50.0933 261.948 50.16 262.268 50.16C262.908 50.16 263.354 49.8267 263.608 49.16L264.228 47.52L260.748 37.22H262.508L265.128 45.22L267.988 37.22ZM280.232 42.84H272.652C272.665 43.72 272.852 44.42 273.212 44.94C273.785 45.78 274.612 46.2 275.692 46.2C277.025 46.2 277.925 45.5667 278.392 44.3H280.032C279.819 45.38 279.325 46.22 278.552 46.82C277.779 47.42 276.805 47.72 275.632 47.72C274.072 47.72 272.879 47.1867 272.052 46.12C271.319 45.1867 270.952 43.9533 270.952 42.42C270.952 40.6467 271.432 39.2667 272.392 38.28C273.232 37.4267 274.319 37 275.652 37C276.625 37 277.479 37.2333 278.212 37.7C278.959 38.1667 279.492 38.8067 279.812 39.62C280.092 40.3133 280.232 41.3667 280.232 42.78V42.84ZM278.472 41.5C278.472 40.6067 278.205 39.8867 277.672 39.34C277.152 38.78 276.479 38.5 275.652 38.5C274.812 38.5 274.125 38.7733 273.592 39.32C273.072 39.8533 272.779 40.58 272.712 41.5H278.472ZM282.45 37.22H283.97V39.1C284.57 37.6867 285.517 36.98 286.81 36.98C286.97 36.98 287.163 37 287.39 37.04V38.72C286.323 38.7333 285.59 38.8867 285.19 39.18C284.457 39.7133 284.09 40.7067 284.09 42.16V47.5H282.45V37.22Z" fill="#303131"/>
<path d="M298.836 74.828L314.328 69.664L309.164 54.172L293.672 59.336L298.836 74.828ZM328 16.5L326.211 15.6056L302.211 63.6056L304 64.5L305.789 65.3944L329.789 17.3944L328 16.5Z" fill="#F0EA6E"/>
<path d="M345.56 47.5V33.18H351.38C352.713 33.18 353.747 33.5133 354.48 34.18C355.24 34.8733 355.62 35.7533 355.62 36.82C355.62 38.2867 354.953 39.3267 353.62 39.94C355.367 40.6067 356.24 41.7667 356.24 43.42C356.24 44.5667 355.873 45.5267 355.14 46.3C354.38 47.1 353.333 47.5 352 47.5H345.56ZM347.38 39.34H350.92C351.853 39.34 352.547 39.1733 353 38.84C353.52 38.4533 353.78 37.8667 353.78 37.08C353.78 36.2933 353.52 35.7 353 35.3C352.547 34.9667 351.853 34.8 350.92 34.8H347.38V39.34ZM347.38 45.88H351.84C352.653 45.88 353.287 45.6667 353.74 45.24C354.193 44.8 354.42 44.1933 354.42 43.42C354.42 42.6467 354.193 42.0467 353.74 41.62C353.287 41.18 352.653 40.96 351.84 40.96H347.38V45.88ZM362.505 37C364.052 37 365.232 37.54 366.045 38.62C366.765 39.5533 367.125 40.82 367.125 42.42C367.125 44.2067 366.659 45.5667 365.725 46.5C364.925 47.3133 363.845 47.72 362.485 47.72C360.912 47.72 359.712 47.1933 358.885 46.14C358.165 45.22 357.805 43.98 357.805 42.42C357.805 40.6067 358.279 39.2133 359.225 38.24C360.039 37.4133 361.132 37 362.505 37ZM362.505 38.5C361.572 38.5 360.839 38.8533 360.305 39.56C359.772 40.2533 359.505 41.2067 359.505 42.42C359.505 43.6867 359.805 44.6533 360.405 45.32C360.925 45.9067 361.619 46.2 362.485 46.2C363.405 46.2 364.119 45.8667 364.625 45.2C365.145 44.5333 365.405 43.6067 365.405 42.42C365.405 41.1133 365.112 40.1133 364.525 39.42C364.019 38.8067 363.345 38.5 362.505 38.5ZM378.523 46.12V47.44C378.07 47.6 377.717 47.68 377.463 47.68C376.397 47.68 375.817 47.1933 375.723 46.22C374.99 47.22 373.823 47.72 372.223 47.72C371.117 47.72 370.257 47.4133 369.643 46.8C369.11 46.2667 368.843 45.58 368.843 44.74C368.843 43.78 369.183 43.04 369.863 42.52C370.25 42.2267 371.057 41.94 372.283 41.66L375.643 40.9L375.663 40.04C375.663 39.0133 374.89 38.5 373.343 38.5C371.863 38.5 371.07 39.1 370.963 40.3H369.303C369.343 39.3933 369.57 38.7 369.983 38.22C370.69 37.4067 371.837 37 373.423 37C375.997 37 377.283 37.9333 377.283 39.8V45.54C377.283 46.0467 377.503 46.3 377.943 46.3C377.997 46.3 378.137 46.26 378.363 46.18C378.443 46.1533 378.497 46.1333 378.523 46.12ZM375.663 42.24L373.023 42.92C372.077 43.16 371.423 43.4067 371.063 43.66C370.717 43.9133 370.543 44.2667 370.543 44.72C370.543 45.7733 371.223 46.3 372.583 46.3C373.543 46.3 374.357 45.9867 375.023 45.36C375.45 44.9733 375.663 44.5333 375.663 44.04V42.24ZM380.301 37.22H381.821V39.1C382.421 37.6867 383.368 36.98 384.661 36.98C384.821 36.98 385.015 37 385.241 37.04V38.72C384.175 38.7333 383.441 38.8867 383.041 39.18C382.308 39.7133 381.941 40.7067 381.941 42.16V47.5H380.301V37.22ZM395.224 33.18V47.5H393.584V46.08C392.931 47.1867 391.918 47.74 390.544 47.74C389.038 47.74 387.878 47.1933 387.064 46.1C386.358 45.14 386.004 43.8733 386.004 42.3C386.004 40.58 386.464 39.2333 387.384 38.26C388.171 37.42 389.191 37 390.444 37C391.831 37 392.878 37.52 393.584 38.56V33.18H395.224ZM390.724 38.52C389.818 38.52 389.084 38.88 388.524 39.6C387.978 40.3067 387.704 41.2467 387.704 42.42C387.704 43.6333 388.024 44.5867 388.664 45.28C389.211 45.8933 389.904 46.2 390.744 46.2C391.611 46.2 392.298 45.86 392.804 45.18C393.324 44.5 393.584 43.58 393.584 42.42C393.584 41.1533 393.291 40.1667 392.704 39.46C392.184 38.8333 391.524 38.52 390.724 38.52ZM402.082 42.24V43.68H397.142V42.24H402.082ZM408.548 33.18V46.74L407.688 47.5H406.848V35.22L404.368 37.3L403.468 36.18L407.028 33.18H408.548ZM412.577 40.34C413.431 39.2333 414.438 38.68 415.598 38.68C416.944 38.68 417.971 39.1667 418.678 40.14C419.238 40.9267 419.518 41.92 419.518 43.12C419.518 44.5867 419.098 45.7467 418.258 46.6C417.484 47.36 416.471 47.74 415.217 47.74C412.378 47.74 410.958 45.8733 410.958 42.14V41.38C410.958 38.9533 411.438 36.98 412.398 35.46C413.424 33.82 414.904 33 416.838 33C417.078 33 417.371 33.0133 417.718 33.04L418.398 33.88V34.5C417.864 34.42 417.424 34.38 417.078 34.38C414.504 34.38 413.004 36.3667 412.577 40.34ZM417.798 43.04C417.798 42.2 417.571 41.5067 417.118 40.96C416.678 40.4 416.111 40.12 415.418 40.12C414.671 40.12 413.984 40.4333 413.358 41.06C412.811 41.6067 412.538 42.2 412.538 42.84C412.538 43.8267 412.791 44.64 413.298 45.28C413.791 45.8933 414.444 46.2 415.258 46.2C416.004 46.2 416.611 45.9133 417.078 45.34C417.558 44.7533 417.798 43.9867 417.798 43.04ZM436.863 37.56H434.983C434.783 36.6 434.437 35.9 433.943 35.46C433.303 34.8733 432.37 34.58 431.143 34.58C429.65 34.58 428.497 35.1667 427.683 36.34C426.977 37.3667 426.623 38.7133 426.623 40.38C426.623 42.26 427.097 43.72 428.043 44.76C428.883 45.6533 429.963 46.1 431.283 46.1C432.897 46.1 434.01 45.5067 434.623 44.32C434.903 43.7733 435.123 43.0467 435.283 42.14H437.163C436.723 45.86 434.77 47.72 431.303 47.72C429.437 47.72 427.963 47.1733 426.883 46.08C425.497 44.68 424.803 42.8 424.803 40.44C424.803 38.1467 425.47 36.26 426.803 34.78C427.897 33.5667 429.403 32.96 431.323 32.96C434.443 32.96 436.29 34.4933 436.863 37.56ZM448.543 46.12V47.44C448.09 47.6 447.736 47.68 447.483 47.68C446.416 47.68 445.836 47.1933 445.743 46.22C445.01 47.22 443.843 47.72 442.243 47.72C441.136 47.72 440.276 47.4133 439.663 46.8C439.13 46.2667 438.863 45.58 438.863 44.74C438.863 43.78 439.203 43.04 439.883 42.52C440.27 42.2267 441.076 41.94 442.303 41.66L445.663 40.9L445.683 40.04C445.683 39.0133 444.91 38.5 443.363 38.5C441.883 38.5 441.09 39.1 440.983 40.3H439.323C439.363 39.3933 439.59 38.7 440.003 38.22C440.71 37.4067 441.856 37 443.443 37C446.016 37 447.303 37.9333 447.303 39.8V45.54C447.303 46.0467 447.523 46.3 447.963 46.3C448.016 46.3 448.156 46.26 448.383 46.18C448.463 46.1533 448.516 46.1333 448.543 46.12ZM445.683 42.24L443.043 42.92C442.096 43.16 441.443 43.4067 441.083 43.66C440.736 43.9133 440.563 44.2667 440.563 44.72C440.563 45.7733 441.243 46.3 442.603 46.3C443.563 46.3 444.376 45.9867 445.043 45.36C445.47 44.9733 445.683 44.5333 445.683 44.04V42.24ZM450.321 37.22H451.841V39.1C452.441 37.6867 453.388 36.98 454.681 36.98C454.841 36.98 455.034 37 455.261 37.04V38.72C454.194 38.7333 453.461 38.8867 453.061 39.18C452.328 39.7133 451.961 40.7067 451.961 42.16V47.5H450.321V37.22ZM465.244 33.18V47.5H463.604V46.08C462.951 47.1867 461.937 47.74 460.564 47.74C459.057 47.74 457.897 47.1933 457.084 46.1C456.377 45.14 456.024 43.8733 456.024 42.3C456.024 40.58 456.484 39.2333 457.404 38.26C458.191 37.42 459.211 37 460.464 37C461.851 37 462.897 37.52 463.604 38.56V33.18H465.244ZM460.744 38.52C459.837 38.52 459.104 38.88 458.544 39.6C457.997 40.3067 457.724 41.2467 457.724 42.42C457.724 43.6333 458.044 44.5867 458.684 45.28C459.231 45.8933 459.924 46.2 460.764 46.2C461.631 46.2 462.317 45.86 462.824 45.18C463.344 44.5 463.604 43.58 463.604 42.42C463.604 41.1533 463.311 40.1667 462.724 39.46C462.204 38.8333 461.544 38.52 460.744 38.52ZM475.102 40.04H473.302C473.249 39.0133 472.562 38.5 471.242 38.5C470.562 38.5 470.022 38.6333 469.622 38.9C469.235 39.1533 469.042 39.5 469.042 39.94C469.042 40.6067 469.675 41.0867 470.942 41.38L472.522 41.74C473.549 41.98 474.289 42.32 474.742 42.76C475.195 43.2 475.422 43.8 475.422 44.56C475.422 45.5333 475.042 46.3067 474.282 46.88C473.522 47.44 472.495 47.72 471.202 47.72C469.789 47.72 468.715 47.3867 467.982 46.72C467.369 46.1733 467.042 45.4467 467.002 44.54H468.862C468.969 45.0067 469.115 45.3467 469.302 45.56C469.662 45.9867 470.335 46.2 471.322 46.2C472.055 46.2 472.635 46.0667 473.062 45.8C473.502 45.52 473.722 45.1533 473.722 44.7C473.722 44.02 473.195 43.5533 472.142 43.3L470.602 42.94C469.429 42.66 468.609 42.3267 468.142 41.94C467.609 41.5 467.342 40.8667 467.342 40.04C467.342 39.1067 467.695 38.3667 468.402 37.82C469.122 37.2733 470.082 37 471.282 37C472.535 37 473.509 37.3133 474.202 37.94C474.802 38.4867 475.102 39.1867 475.102 40.04Z" fill="#303131"/>
<rect width="126" height="53" transform="translate(514 14)" fill="#F0EA6E"/>
<mask id="mask0_2062_2746" style="mask-type:alpha" maskUnits="userSpaceOnUse" x="534" y="28" width="24" height="25">
<rect x="534" y="28.5" width="24" height="24" fill="#D9D9D9"/>
</mask>
<g mask="url(#mask0_2062_2746)">
<path d="M544.275 44.5L549.85 40.925C550 40.825 550.075 40.6833 550.075 40.5C550.075 40.3167 550 40.175 549.85 40.075L544.275 36.5C544.108 36.3833 543.938 36.375 543.763 36.475C543.588 36.575 543.5 36.725 543.5 36.925V44.075C543.5 44.275 543.588 44.425 543.763 44.525C543.938 44.625 544.108 44.6167 544.275 44.5ZM538 48.5C537.45 48.5 536.979 48.3042 536.588 47.9125C536.196 47.5208 536 47.05 536 46.5V34.5C536 33.95 536.196 33.4792 536.588 33.0875C536.979 32.6958 537.45 32.5 538 32.5H554C554.55 32.5 555.021 32.6958 555.413 33.0875C555.804 33.4792 556 33.95 556 34.5V46.5C556 47.05 555.804 47.5208 555.413 47.9125C555.021 48.3042 554.55 48.5 554 48.5H538ZM538 46.5H554V34.5H538V46.5Z" fill="#303131"/>
</g>
<path d="M573.48 47.2C572.027 47.2 570.74 47.1333 569.62 47C568.5 46.8667 567.693 46.7333 567.2 46.6V46L566.8 43.46C567.053 43.6733 567.473 43.9 568.06 44.14C568.647 44.38 569.4 44.5867 570.32 44.76C571.24 44.92 572.307 45 573.52 45C574.267 45 574.84 44.9533 575.24 44.86C575.64 44.7533 575.913 44.6067 576.06 44.42C576.207 44.2333 576.28 44.0133 576.28 43.76C576.28 43.44 576.173 43.1933 575.96 43.02C575.747 42.8333 575.36 42.68 574.8 42.56C574.253 42.44 573.473 42.3133 572.46 42.18C571.247 42.02 570.233 41.8 569.42 41.52C568.607 41.24 568 40.8467 567.6 40.34C567.2 39.82 567 39.1333 567 38.28C567 37.5867 567.18 36.98 567.54 36.46C567.9 35.94 568.48 35.5333 569.28 35.24C570.08 34.9467 571.14 34.8 572.46 34.8C573.847 34.8 575.033 34.8667 576.02 35C577.007 35.1333 577.687 35.2667 578.06 35.4V36L578.66 38.2C578.327 38.0267 577.847 37.8467 577.22 37.66C576.593 37.4733 575.867 37.32 575.04 37.2C574.213 37.0667 573.32 37 572.36 37C571.76 37 571.293 37.0533 570.96 37.16C570.627 37.2533 570.387 37.3933 570.24 37.58C570.107 37.7533 570.04 37.9733 570.04 38.24C570.04 38.56 570.16 38.82 570.4 39.02C570.653 39.2067 571.06 39.36 571.62 39.48C572.18 39.6 572.933 39.7133 573.88 39.82C575.333 39.98 576.453 40.22 577.24 40.54C578.027 40.86 578.567 41.2733 578.86 41.78C579.167 42.2733 579.32 42.8733 579.32 43.58C579.32 44.1933 579.207 44.7333 578.98 45.2C578.753 45.6533 578.4 46.0267 577.92 46.32C577.453 46.6133 576.847 46.8333 576.1 46.98C575.367 47.1267 574.493 47.2 573.48 47.2ZM584.941 47.2C584.021 47.2 583.354 47.0067 582.941 46.62C582.528 46.22 582.321 45.5733 582.321 44.68V39.64H580.521V37.64C581.134 37.64 581.614 37.5667 581.961 37.42C582.308 37.26 582.554 36.9867 582.701 36.6C582.848 36.2133 582.921 35.6733 582.921 34.98H585.161V37.64H588.581C588.488 37.9067 588.394 38.24 588.301 38.64C588.221 39.0267 588.181 39.36 588.181 39.64H585.161V43.58C585.161 44.1933 585.208 44.6133 585.301 44.84C585.394 45.0667 585.614 45.18 585.961 45.18C586.188 45.18 586.434 45.1 586.701 44.94C586.981 44.78 587.248 44.5867 587.501 44.36C587.768 44.12 587.988 43.8933 588.161 43.68V44.3L588.361 46.24C588.201 46.3733 587.961 46.52 587.641 46.68C587.321 46.8267 586.928 46.9467 586.461 47.04C586.008 47.1467 585.501 47.2 584.941 47.2ZM593.513 47.2C592.313 47.2 591.353 46.9667 590.633 46.5C589.927 46.02 589.573 45.2533 589.573 44.2C589.573 43.4667 589.76 42.8733 590.133 42.42C590.507 41.9667 591.013 41.6333 591.653 41.42C592.307 41.1933 593.047 41.08 593.873 41.08C594.487 41.08 595.007 41.1333 595.433 41.24C595.873 41.3467 596.227 41.46 596.493 41.58C596.76 41.7 596.933 41.7867 597.013 41.84C597.013 41.28 596.953 40.8267 596.833 40.48C596.713 40.12 596.493 39.86 596.173 39.7C595.867 39.5267 595.433 39.44 594.873 39.44C594.06 39.44 593.34 39.52 592.713 39.68C592.087 39.84 591.573 40.0267 591.173 40.24C590.787 40.4533 590.52 40.6333 590.373 40.78V40.18L590.173 38.22C590.267 38.1667 590.513 38.08 590.913 37.96C591.313 37.84 591.86 37.7267 592.553 37.62C593.247 37.5 594.073 37.44 595.033 37.44C596.353 37.44 597.36 37.6333 598.053 38.02C598.747 38.3933 599.22 38.9333 599.473 39.64C599.74 40.3467 599.873 41.2 599.873 42.2V45.8C599.873 46.1733 599.913 46.4467 599.993 46.62C600.087 46.78 600.18 46.9067 600.273 47H597.033V46.58L597.073 46.2L597.033 46.16C596.927 46.28 596.773 46.4 596.573 46.52C596.373 46.64 596.127 46.7533 595.833 46.86C595.54 46.9533 595.2 47.0333 594.813 47.1C594.427 47.1667 593.993 47.2 593.513 47.2ZM594.453 45.18C595.013 45.18 595.48 45.14 595.853 45.06C596.24 44.9667 596.533 44.8467 596.733 44.7C596.933 44.54 597.033 44.3533 597.033 44.14C597.033 43.8333 596.8 43.58 596.333 43.38C595.88 43.18 595.26 43.08 594.473 43.08C593.713 43.08 593.173 43.1867 592.853 43.4C592.547 43.6133 592.393 43.88 592.393 44.2C592.393 44.6 592.573 44.8667 592.933 45C593.293 45.12 593.8 45.18 594.453 45.18ZM601.919 47C602.012 47 602.099 46.9067 602.179 46.72C602.272 46.5333 602.319 46.2267 602.319 45.8V39.04C602.319 38.6133 602.272 38.3133 602.179 38.14C602.099 37.9533 602.012 37.8533 601.919 37.84C602.506 37.84 603.106 37.8 603.719 37.72C604.332 37.6267 604.812 37.5333 605.159 37.44V38.24L605.119 38.58L605.159 38.62C605.252 38.4733 605.399 38.3133 605.599 38.14C605.812 37.9533 606.079 37.7933 606.399 37.66C606.732 37.5133 607.119 37.44 607.559 37.44C608.212 37.44 608.792 37.5333 609.299 37.72C609.806 37.8933 610.166 38.0733 610.379 38.26L609.779 40.94V41.54C609.579 41.26 609.306 40.9733 608.959 40.68C608.626 40.3867 608.252 40.14 607.839 39.94C607.439 39.74 607.026 39.64 606.599 39.64C606.119 39.64 605.759 39.8133 605.519 40.16C605.279 40.5067 605.159 41.0533 605.159 41.8V45.8C605.159 46.2267 605.199 46.5333 605.279 46.72C605.372 46.9067 605.466 47 605.559 47H601.919ZM615.605 47.2C614.685 47.2 614.018 47.0067 613.605 46.62C613.192 46.22 612.985 45.5733 612.985 44.68V39.64H611.185V37.64C611.798 37.64 612.278 37.5667 612.625 37.42C612.972 37.26 613.218 36.9867 613.365 36.6C613.512 36.2133 613.585 35.6733 613.585 34.98H615.825V37.64H619.245C619.152 37.9067 619.058 38.24 618.965 38.64C618.885 39.0267 618.845 39.36 618.845 39.64H615.825V43.58C615.825 44.1933 615.872 44.6133 615.965 44.84C616.058 45.0667 616.278 45.18 616.625 45.18C616.852 45.18 617.098 45.1 617.365 44.94C617.645 44.78 617.912 44.5867 618.165 44.36C618.432 44.12 618.652 43.8933 618.825 43.68V44.3L619.025 46.24C618.865 46.3733 618.625 46.52 618.305 46.68C617.985 46.8267 617.592 46.9467 617.125 47.04C616.672 47.1467 616.165 47.2 615.605 47.2Z" fill="#303131"/>
</svg>
