<svg width="160" height="52" viewBox="0 0 160 52" fill="none" xmlns="http://www.w3.org/2000/svg">
  <rect x="0.5" y="0.5" width="159" height="51" fill="#86E9D6" fill-opacity="0.5"/>
  <rect x="0.5" y="0.5" width="159" height="51" stroke="#4DD5BC"/>
  <path d="M43.14 34V19.6H45.78V25.46H55.22V19.6H57.86V34H55.22V28.14H45.78V34H43.14ZM62.6597 34V22.4H66.8197C67.3264 22.4 67.7864 22.5267 68.1997 22.78C68.613 23.0333 68.9397 23.3667 69.1797 23.78C69.433 24.1933 69.5597 24.6533 69.5597 25.16V31.24C69.5597 31.7467 69.433 32.2067 69.1797 32.62C68.9397 33.0333 68.6130 33.3667 68.1997 33.62C67.7864 33.8733 67.3264 34 66.8197 34H62.6597ZM65.2797 31.38H66.7197C66.7864 31.38 66.8397 31.36 66.8797 31.32C66.933 31.2667 66.9597 31.2067 66.9597 31.14V25.26C66.9597 25.1933 66.933 25.14 66.8797 25.1C66.8397 25.0467 66.7864 25.02 66.7197 25.02H65.2797V31.38ZM72.2073 34V22.4H80.7073C81.2273 22.4 81.694 22.5267 82.1073 22.78C82.5207 23.0333 82.8473 23.3667 83.0873 23.78C83.3407 24.1933 83.4673 24.6533 83.4673 25.16V34H80.8673V25.26C80.8673 25.1933 80.8407 25.14 80.7873 25.1C80.734 25.0467 80.674 25.02 80.6073 25.02H74.8273V34H72.2073ZM87.0752 34V22.4H89.6952V27.5H96.3552V22.4H98.9752V34H96.3552V29.88H89.6952V34H87.0752ZM103.293 34C102.787 34 102.327 33.8733 101.913 33.62C101.5 33.3667 101.167 33.0333 100.913 32.62C100.66 32.2067 100.533 31.7467 100.533 31.24V25.16C100.533 24.6533 100.66 24.1933 100.913 23.78C101.167 23.3667 101.5 23.0333 101.913 22.78C102.327 22.5267 102.787 22.4 103.293 22.4H109.553C110.06 22.4 110.52 22.5267 110.933 22.78C111.36 23.0333 111.693 23.3667 111.933 23.78C112.187 24.1933 112.313 24.6533 112.313 25.16V31.24C112.313 31.7467 112.187 32.2067 111.933 32.62C111.693 33.0333 111.36 33.3667 110.947 33.62C110.533 33.8733 110.067 34 109.547 34H103.293ZM103.393 31.38H109.453C109.52 31.38 109.573 31.36 109.613 31.32C109.667 31.2667 109.693 31.2067 109.693 31.14V25.26C109.693 25.1933 109.667 25.14 109.613 25.1C109.573 25.0467 109.52 25.02 109.453 25.02H103.393C103.327 25.02 103.267 25.0467 103.213 25.1C103.173 25.14 103.153 25.1933 103.153 25.26V31.14C103.153 31.2067 103.173 31.2667 103.213 31.32C103.267 31.36 103.327 31.38 103.393 31.38Z" fill="white"/>
</svg>
