<svg width="24" height="20" viewBox="0 0 24 20" fill="none" xmlns="http://www.w3.org/2000/svg">
<path d="M2.46154 20C1.78462 20 1.20513 19.7552 0.723077 19.2656C0.241026 18.776 0 18.1875 0 17.5V2.5C0 1.8125 0.241026 1.22396 0.723077 0.734375C1.20513 0.244792 1.78462 0 2.46154 0H16C16.3897 0 16.759 0.0885417 17.1077 0.265625C17.4564 0.442708 17.7436 0.6875 17.9692 1L23.5077 8.5C23.8359 8.9375 24 9.4375 24 10C24 10.5625 23.8359 11.0625 23.5077 11.5L17.9692 19C17.7436 19.3125 17.4564 19.5573 17.1077 19.7344C16.759 19.9115 16.3897 20 16 20H2.46154Z" fill="#2BB1FF"/>
</svg>
