<svg width="32" height="32" viewBox="0 0 32 32" fill="none" xmlns="http://www.w3.org/2000/svg">
<mask id="mask0_2290_4600" style="mask-type:alpha" maskUnits="userSpaceOnUse" x="0" y="0" width="32" height="32">
<rect width="32" height="32" fill="#0635C9"/>
</mask>
<g mask="url(#mask0_2290_4600)">
<path d="M5.29997 26.4L4.16663 25.9333C3.47775 25.6444 3.01663 25.1444 2.7833 24.4333C2.54997 23.7222 2.58886 23.0222 2.89997 22.3333L5.29997 17.1333V26.4ZM10.6333 29.3333C9.89997 29.3333 9.27219 29.0722 8.74997 28.5499C8.22775 28.0277 7.96663 27.4 7.96663 26.6666V18.6666L11.5 28.4666C11.5666 28.6222 11.6333 28.7722 11.7 28.9166C11.7666 29.0611 11.8555 29.1999 11.9666 29.3333H10.6333ZM17.5 29.1999C16.7889 29.4666 16.1 29.4333 15.4333 29.1C14.7666 28.7666 14.3 28.2444 14.0333 27.5333L8.09997 11.2666C7.8333 10.5555 7.85552 9.86106 8.16663 9.18328C8.47775 8.50551 8.98886 8.04439 9.69997 7.79995L19.7666 4.13328C20.4777 3.86662 21.1666 3.89995 21.8333 4.23328C22.5 4.56662 22.9666 5.08884 23.2333 5.79995L29.1666 22.0666C29.4333 22.7777 29.4111 23.4722 29.1 24.15C28.7889 24.8277 28.2777 25.2888 27.5666 25.5333L17.5 29.1999ZM14.6333 13.3333C15.0111 13.3333 15.3277 13.2055 15.5833 12.95C15.8389 12.6944 15.9666 12.3777 15.9666 12C15.9666 11.6222 15.8389 11.3055 15.5833 11.0499C15.3277 10.7944 15.0111 10.6666 14.6333 10.6666C14.2555 10.6666 13.9389 10.7944 13.6833 11.0499C13.4277 11.3055 13.3 11.6222 13.3 12C13.3 12.3777 13.4277 12.6944 13.6833 12.95C13.9389 13.2055 14.2555 13.3333 14.6333 13.3333ZM16.5666 26.6666L26.6333 23L20.7 6.66662L10.6333 10.3333L16.5666 26.6666Z" fill="#0635C9"/>
</g>
</svg>
