<svg width="998" height="138" viewBox="0 0 998 138" fill="none" xmlns="http://www.w3.org/2000/svg">
<path d="M909.815 125.245C910.728 125.245 911.575 124.333 912.357 122.509C913.269 120.684 913.725 117.687 913.725 113.516V47.4429C913.725 43.2726 913.269 40.3403 912.357 38.6461C911.575 36.8216 910.728 35.8442 909.815 35.7139C915.55 35.7139 921.414 35.3229 927.409 34.541C933.404 33.6287 938.095 32.7165 941.484 31.8042V39.6235L941.093 42.9468L941.484 43.3377C942.396 41.9042 943.829 40.3403 945.784 38.6461C947.869 36.8216 950.476 35.2577 953.604 33.9545C956.862 32.521 960.641 31.8042 964.942 31.8042C971.328 31.8042 976.997 32.7165 981.949 34.541C986.901 36.2352 990.42 37.9945 992.505 39.819L986.64 66.0138V71.8783C984.686 69.1416 982.014 66.3396 978.626 63.4725C975.368 60.6054 971.718 58.1945 967.678 56.2396C963.769 54.2848 959.729 53.3074 955.559 53.3074C950.867 53.3074 947.348 55.0016 945.002 58.39C942.657 61.7783 941.484 67.1216 941.484 74.4196V113.516C941.484 117.687 941.875 120.684 942.657 122.509C943.569 124.333 944.481 125.245 945.393 125.245H909.815Z" fill="white"/>
<path d="M853.436 127.2C843.141 127.2 834.539 126.158 827.632 124.072C820.856 121.857 815.447 118.729 811.407 114.689C807.367 110.519 804.5 105.502 802.806 99.637C801.112 93.7725 800.265 87.1261 800.265 79.6977C800.265 64.9712 804.37 53.3074 812.58 44.7061C820.79 36.1048 833.366 31.8042 850.308 31.8042C860.213 31.8042 868.228 33.1726 874.353 35.9093C880.608 38.6461 885.365 42.2951 888.623 46.8564C891.881 51.4177 894.097 56.5003 895.27 62.1042C896.573 67.5777 897.225 73.1164 897.225 78.7203V87.908C897.225 87.517 895.4 87.1261 891.751 86.7351C888.232 86.2138 882.237 85.9531 873.766 85.9531H828.414C828.414 93.1209 830.565 98.5293 834.865 102.178C839.296 105.697 846.464 107.456 856.368 107.456C864.709 107.456 872.137 106.479 878.654 104.524C885.3 102.439 890.122 100.484 893.119 98.6596V104.524L895.074 119.381C892.598 121.075 887.841 122.834 880.804 124.659C873.766 126.353 864.644 127.2 853.436 127.2ZM835.647 69.1416H869.466C869.466 66.2745 868.814 63.4725 867.511 60.7358C866.338 57.999 864.383 55.7835 861.646 54.0893C858.91 52.2648 855.13 51.3526 850.308 51.3526C845.486 51.3526 841.577 52.0693 838.579 53.5029C835.712 54.9364 833.562 56.6958 832.128 58.7809C830.825 60.8661 830.174 63.0164 830.174 65.2319C830.174 66.5351 830.565 67.5125 831.347 68.1641C832.128 68.8158 833.562 69.1416 835.647 69.1416Z" fill="white"/>
<path d="M724.893 125.245C725.805 125.245 726.391 124.398 726.652 122.704C727.043 120.879 726.456 117.817 724.893 113.516C724.371 111.822 723.198 108.824 721.374 104.524C719.68 100.223 717.66 95.2709 715.314 89.6671C712.968 84.0632 710.557 78.3942 708.081 72.66C705.735 66.7955 703.52 61.5175 701.435 56.8259C699.48 52.0039 697.981 48.3549 696.938 45.8788C695.114 41.4478 693.224 38.3201 691.269 36.4956C689.445 34.671 688.011 33.7588 686.969 33.7588H726.652C725.74 33.7588 725.153 34.671 724.893 36.4956C724.632 38.3201 725.218 41.4478 726.652 45.8788C727.434 48.0943 728.542 51.4826 729.975 56.0439C731.539 60.6052 733.298 65.8181 735.253 71.6826C737.208 77.4168 739.163 83.2813 741.118 89.2761C743.203 95.271 745.093 100.81 746.787 105.892H746.982C748.676 100.81 750.371 95.7922 752.065 90.84C753.759 85.7574 755.453 80.74 757.147 75.7878C758.842 70.7052 760.536 65.6878 762.23 60.7355C763.924 55.653 765.618 50.5704 767.313 45.4878C768.746 41.3175 769.333 38.3201 769.072 36.4956C768.811 34.671 768.225 33.7588 767.313 33.7588H806.214C805.301 33.7588 803.998 34.671 802.304 36.4956C800.61 38.1898 798.851 41.122 797.026 45.2923C796.114 47.6381 794.68 51.1568 792.725 55.8484C790.771 60.4097 788.555 65.5574 786.079 71.2916C783.733 76.8955 781.322 82.4994 778.846 88.1032C776.5 93.7071 774.415 98.7897 772.591 103.351C770.766 107.912 769.463 111.301 768.681 113.516C767.247 117.947 766.661 121.01 766.922 122.704C767.182 124.398 767.769 125.245 768.681 125.245H724.893Z" fill="white"/>
<path d="M642.419 127.2C629.386 127.2 619.156 125.115 611.728 120.945C604.43 116.774 599.282 111.105 596.284 103.938C593.417 96.7699 591.984 88.6899 591.984 79.6977C591.984 70.5751 593.483 62.43 596.48 55.2622C599.608 48.0945 604.821 42.4255 612.119 38.2552C619.417 33.9545 629.517 31.8042 642.419 31.8042C655.321 31.8042 665.421 33.9545 672.719 38.2552C680.017 42.4255 685.164 48.0945 688.162 55.2622C691.29 62.43 692.853 70.5751 692.853 79.6977C692.853 88.6899 691.355 96.7699 688.357 103.938C685.49 111.105 680.408 116.774 673.11 120.945C665.811 125.115 655.581 127.2 642.419 127.2ZM642.419 107.456C647.892 107.456 652.258 106.674 655.516 105.111C658.904 103.416 661.315 100.549 662.749 96.5093C664.313 92.4693 665.095 86.8654 665.095 79.6977C665.095 72.5299 664.313 66.9261 662.749 62.8861C661.315 58.7158 658.904 55.7835 655.516 54.0893C652.258 52.2648 647.892 51.3526 642.419 51.3526C636.945 51.3526 632.514 52.2648 629.126 54.0893C625.868 55.9138 623.457 58.9112 621.893 63.0816C620.459 67.2519 619.743 72.8557 619.743 79.8932C619.743 86.8002 620.459 92.2738 621.893 96.3138C623.457 100.354 625.868 103.221 629.126 104.915C632.514 106.609 636.945 107.456 642.419 107.456Z" fill="white"/>
<path d="M495.289 127.2C484.994 127.2 476.392 126.158 469.485 124.072C462.709 121.857 457.3 118.729 453.26 114.689C449.22 110.519 446.353 105.502 444.659 99.637C442.965 93.7725 442.118 87.1261 442.118 79.6977C442.118 64.9712 446.223 53.3074 454.433 44.7061C462.643 36.1048 475.22 31.8042 492.161 31.8042C502.066 31.8042 510.081 33.1726 516.206 35.9093C522.461 38.6461 527.218 42.2951 530.476 46.8564C533.734 51.4177 535.95 56.5003 537.123 62.1042C538.426 67.5777 539.078 73.1164 539.078 78.7203V87.908C539.078 87.517 537.253 87.1261 533.604 86.7351C530.085 86.2138 524.09 85.9531 515.619 85.9531H470.267C470.267 93.1209 472.418 98.5293 476.718 102.178C481.149 105.697 488.317 107.456 498.221 107.456C506.562 107.456 513.99 106.479 520.507 104.524C527.153 102.439 531.975 100.484 534.972 98.6596V104.524L536.927 119.381C534.451 121.075 529.694 122.834 522.657 124.659C515.619 126.353 506.497 127.2 495.289 127.2ZM477.5 69.1416H511.319C511.319 66.2745 510.667 63.4725 509.364 60.7358C508.191 57.999 506.236 55.7835 503.5 54.0893C500.763 52.2648 496.983 51.3526 492.161 51.3526C487.34 51.3526 483.43 52.0693 480.432 53.5029C477.565 54.9364 475.415 56.6958 473.981 58.7809C472.678 60.8661 472.027 63.0164 472.027 65.2319C472.027 66.5351 472.418 67.5125 473.2 68.1641C473.981 68.8158 475.415 69.1416 477.5 69.1416Z" fill="white"/>
<path d="M267.98 125.245C268.893 125.245 269.74 124.333 270.522 122.509C271.434 120.684 271.89 117.687 271.89 113.516V47.4429C271.89 43.2726 271.434 40.3403 270.522 38.6461C269.74 36.8216 268.893 35.8442 267.98 35.7139C273.715 35.7139 279.579 35.3229 285.574 34.541C291.569 33.6287 296.26 32.7165 299.649 31.8042V43.7287L299.258 46.27L299.649 46.661C300.04 45.7487 301.278 44.1197 303.363 41.7739C305.448 39.4281 308.446 37.2126 312.355 35.1274C316.265 32.9119 321.087 31.8042 326.821 31.8042C338.941 31.8042 348.194 35.2577 354.58 42.1648C361.096 49.0719 364.354 59.8887 364.354 74.6151V113.516C364.354 117.687 364.745 120.684 365.527 122.509C366.439 124.333 367.351 125.245 368.264 125.245H332.686C333.598 125.245 334.445 124.333 335.227 122.509C336.139 120.684 336.595 117.687 336.595 113.516V75.2015C336.595 69.0764 335.944 64.3196 334.64 60.9312C333.337 57.4125 331.513 54.9364 329.167 53.5029C326.951 52.0693 324.345 51.3526 321.347 51.3526C317.698 51.3526 314.18 52.2648 310.791 54.0893C307.533 55.7835 304.862 58.5203 302.777 62.2996C300.691 65.9487 299.649 70.8358 299.649 76.9609V113.516C299.649 117.687 300.04 120.684 300.822 122.509C301.734 124.333 302.646 125.245 303.558 125.245H267.98ZM397.195 125.245C398.107 125.115 398.954 124.138 399.736 122.313C400.649 120.489 401.105 117.556 401.105 113.516V76.9609C401.105 71.748 400.583 67.2519 399.541 63.4725C398.629 59.5629 397.065 56.5654 394.849 54.4803C392.634 52.3951 389.636 51.3526 385.857 51.3526C379.471 51.3526 374.258 53.6332 370.218 58.1945C366.309 62.7558 364.354 69.6628 364.354 78.9157H350.084C350.084 72.6603 351.061 66.7306 353.016 61.1267C354.971 55.3925 357.773 50.3751 361.422 46.0745C365.071 41.6435 369.436 38.19 374.519 35.7139C379.602 33.1074 385.205 31.8042 391.331 31.8042C399.15 31.8042 405.862 33.2377 411.465 36.1048C417.069 38.8416 421.37 43.468 424.367 49.9842C427.365 56.5003 428.863 65.3622 428.863 76.5699V113.516C428.863 117.556 429.254 120.489 430.036 122.313C430.949 124.138 431.861 125.115 432.773 125.245H397.195Z" fill="white"/>
<path d="M189.732 127.2C178.003 127.2 168.62 124.92 161.582 120.358C154.675 115.667 151.222 108.173 151.222 97.8776C151.222 90.7099 153.046 84.9106 156.695 80.4796C160.344 76.0486 165.296 72.7906 171.552 70.7054C177.938 68.4899 185.171 67.3822 193.251 67.3822C199.245 67.3822 204.328 67.9035 208.498 68.9461C212.799 69.9887 216.253 71.0964 218.859 72.2693C221.465 73.4422 223.16 74.2893 223.942 74.8106C223.942 69.337 223.355 64.9061 222.182 61.5177C221.009 57.999 218.859 55.4577 215.731 53.8938C212.734 52.1996 208.498 51.3526 203.025 51.3526C195.075 51.3526 188.038 52.1345 181.913 53.6984C175.787 55.2622 170.77 57.0867 166.86 59.1719C163.081 61.257 160.475 63.0164 159.041 64.45V58.5854L157.086 39.4281C157.998 38.9068 160.409 38.0597 164.319 36.8868C168.229 35.7139 173.572 34.6061 180.349 33.5635C187.125 32.3906 195.205 31.8042 204.589 31.8042C217.491 31.8042 227.33 33.6939 234.107 37.4732C240.883 41.1222 245.51 46.4003 247.986 53.3074C250.592 60.2145 251.896 68.5551 251.896 78.3293V113.516C251.896 117.165 252.287 119.837 253.069 121.531C253.981 123.095 254.893 124.333 255.805 125.245H224.137V121.14L224.528 117.426L224.137 117.035C223.094 118.208 221.596 119.381 219.641 120.554C217.686 121.727 215.275 122.834 212.408 123.877C209.541 124.789 206.218 125.571 202.438 126.223C198.659 126.874 194.424 127.2 189.732 127.2ZM198.92 107.456C204.393 107.456 208.954 107.065 212.604 106.283C216.383 105.371 219.25 104.198 221.205 102.765C223.16 101.201 224.137 99.3764 224.137 97.2912C224.137 94.2938 221.856 91.8177 217.295 89.8628C212.864 87.908 206.804 86.9306 199.115 86.9306C191.687 86.9306 186.409 87.9731 183.281 90.0583C180.284 92.1435 178.785 94.7499 178.785 97.8776C178.785 101.787 180.544 104.394 184.063 105.697C187.582 106.87 192.534 107.456 198.92 107.456Z" fill="white"/>
<path d="M68.2767 127.2C50.5528 127.2 36.5432 122.313 26.2477 112.539C16.0826 102.634 11 87.4515 11 66.9909C11 55.0012 13.2806 44.4451 17.8419 35.3225C22.4032 26.0696 29.6361 18.9019 39.5406 13.8193C49.4451 8.60644 62.2819 6 78.0509 6C90.4315 6 100.662 6.65161 108.742 7.95483C116.952 9.25805 122.556 10.5613 125.553 11.8645V17.729L129.463 39.2322C125.944 36.6258 119.754 34.0193 110.892 31.4129C102.03 28.8064 91.2134 27.5032 78.4418 27.5032C69.7102 27.5032 62.5425 29.0019 56.9386 31.9993C51.3348 34.8664 47.2296 39.2322 44.6232 45.0967C42.0167 50.9612 40.7135 58.2593 40.7135 66.9909C40.7135 76.3741 41.8864 83.9328 44.2322 89.667C46.578 95.2708 50.3574 99.3108 55.5703 101.787C60.7832 104.263 67.6902 105.501 76.2915 105.501C82.8076 105.501 88.0857 104.85 92.1257 103.546C96.1657 102.113 99.1631 100.223 101.118 97.8773C103.073 95.4011 104.05 92.6644 104.05 89.667V86.5392C104.05 83.5418 103.79 81.8476 103.268 81.4567C102.877 80.9354 101.183 80.6747 98.1857 80.6747H91.9302C87.4992 80.6747 83.7199 81.1308 80.5922 82.0431C77.4644 82.9554 75.2489 83.8676 73.9457 84.7799L75.9005 65.427V59.5625H137.478C136.566 59.6928 135.653 60.6702 134.741 62.4947C133.959 64.1889 133.568 67.1212 133.568 71.2915V113.516C133.568 117.686 133.959 120.684 134.741 122.508C135.653 124.333 136.566 125.245 137.478 125.245H104.05V122.704L104.441 117.23L104.05 116.839C103.138 118.142 101.313 119.641 98.5767 121.335C95.8399 122.899 91.9954 124.268 87.0431 125.44C82.2212 126.613 75.9657 127.2 68.2767 127.2Z" fill="white"/>
<g filter="url(#filter0_d_2184_2502)">
<path d="M913.815 127.245C914.728 127.245 915.575 126.333 916.357 124.509C917.269 122.684 917.725 119.687 917.725 115.516V49.4429C917.725 45.2726 917.269 42.3403 916.357 40.6461C915.575 38.8216 914.728 37.8442 913.815 37.7139C919.55 37.7139 925.414 37.3229 931.409 36.541C937.404 35.6287 942.095 34.7165 945.484 33.8042V41.6235L945.093 44.9468L945.484 45.3377C946.396 43.9042 947.829 42.3403 949.784 40.6461C951.869 38.8216 954.476 37.2577 957.604 35.9545C960.862 34.521 964.641 33.8042 968.942 33.8042C975.328 33.8042 980.997 34.7165 985.949 36.541C990.901 38.2352 994.42 39.9945 996.505 41.819L990.64 68.0138V73.8783C988.686 71.1416 986.014 68.3396 982.626 65.4725C979.368 62.6054 975.718 60.1945 971.678 58.2396C967.769 56.2848 963.729 55.3074 959.559 55.3074C954.867 55.3074 951.348 57.0016 949.002 60.39C946.657 63.7783 945.484 69.1216 945.484 76.4196V115.516C945.484 119.687 945.875 122.684 946.657 124.509C947.569 126.333 948.481 127.245 949.393 127.245H913.815Z" fill="#4DD5BC"/>
<path d="M857.436 129.2C847.141 129.2 838.539 128.158 831.632 126.072C824.856 123.857 819.447 120.729 815.407 116.689C811.367 112.519 808.5 107.502 806.806 101.637C805.112 95.7725 804.265 89.1261 804.265 81.6977C804.265 66.9712 808.37 55.3074 816.58 46.7061C824.79 38.1048 837.366 33.8042 854.308 33.8042C864.213 33.8042 872.228 35.1726 878.353 37.9093C884.608 40.6461 889.365 44.2951 892.623 48.8564C895.881 53.4177 898.097 58.5003 899.27 64.1042C900.573 69.5777 901.225 75.1164 901.225 80.7203V89.908C901.225 89.517 899.4 89.1261 895.751 88.7351C892.232 88.2138 886.237 87.9531 877.766 87.9531H832.414C832.414 95.1209 834.565 100.529 838.865 104.178C843.296 107.697 850.464 109.456 860.368 109.456C868.709 109.456 876.137 108.479 882.654 106.524C889.3 104.439 894.122 102.484 897.119 100.66V106.524L899.074 121.381C896.598 123.075 891.841 124.834 884.804 126.659C877.766 128.353 868.644 129.2 857.436 129.2ZM839.647 71.1416H873.466C873.466 68.2745 872.814 65.4725 871.511 62.7358C870.338 59.999 868.383 57.7835 865.646 56.0893C862.91 54.2648 859.13 53.3526 854.308 53.3526C849.486 53.3526 845.577 54.0693 842.579 55.5029C839.712 56.9364 837.562 58.6958 836.128 60.7809C834.825 62.8661 834.174 65.0164 834.174 67.2319C834.174 68.5351 834.565 69.5125 835.347 70.1641C836.128 70.8158 837.562 71.1416 839.647 71.1416Z" fill="#4DD5BC"/>
<path d="M728.893 127.245C729.805 127.245 730.391 126.398 730.652 124.704C731.043 122.879 730.456 119.817 728.893 115.516C728.371 113.822 727.198 110.824 725.374 106.524C723.68 102.223 721.66 97.2709 719.314 91.6671C716.968 86.0632 714.557 80.3942 712.081 74.66C709.735 68.7955 707.52 63.5175 705.435 58.8259C703.48 54.0039 701.981 50.3549 700.938 47.8788C699.114 43.4478 697.224 40.3201 695.269 38.4956C693.445 36.671 692.011 35.7588 690.969 35.7588H730.652C729.74 35.7588 729.153 36.671 728.893 38.4956C728.632 40.3201 729.218 43.4478 730.652 47.8788C731.434 50.0943 732.542 53.4826 733.975 58.0439C735.539 62.6052 737.298 67.8181 739.253 73.6826C741.208 79.4168 743.163 85.2813 745.118 91.2761C747.203 97.271 749.093 102.81 750.787 107.892H750.982C752.676 102.81 754.371 97.7922 756.065 92.84C757.759 87.7574 759.453 82.74 761.147 77.7878C762.842 72.7052 764.536 67.6878 766.23 62.7355C767.924 57.653 769.618 52.5704 771.313 47.4878C772.746 43.3175 773.333 40.3201 773.072 38.4956C772.811 36.671 772.225 35.7588 771.313 35.7588H810.214C809.301 35.7588 807.998 36.671 806.304 38.4956C804.61 40.1898 802.851 43.122 801.026 47.2923C800.114 49.6381 798.68 53.1568 796.725 57.8484C794.771 62.4097 792.555 67.5574 790.079 73.2916C787.733 78.8955 785.322 84.4994 782.846 90.1032C780.5 95.7071 778.415 100.79 776.591 105.351C774.766 109.912 773.463 113.301 772.681 115.516C771.247 119.947 770.661 123.01 770.922 124.704C771.182 126.398 771.769 127.245 772.681 127.245H728.893Z" fill="#4DD5BC"/>
<path d="M646.419 129.2C633.386 129.2 623.156 127.115 615.728 122.945C608.43 118.774 603.282 113.105 600.284 105.938C597.417 98.7699 595.984 90.6899 595.984 81.6977C595.984 72.5751 597.483 64.43 600.48 57.2622C603.608 50.0945 608.821 44.4255 616.119 40.2552C623.417 35.9545 633.517 33.8042 646.419 33.8042C659.321 33.8042 669.421 35.9545 676.719 40.2552C684.017 44.4255 689.164 50.0945 692.162 57.2622C695.29 64.43 696.853 72.5751 696.853 81.6977C696.853 90.6899 695.355 98.7699 692.357 105.938C689.49 113.105 684.408 118.774 677.11 122.945C669.811 127.115 659.581 129.2 646.419 129.2ZM646.419 109.456C651.892 109.456 656.258 108.674 659.516 107.111C662.904 105.416 665.315 102.549 666.749 98.5093C668.313 94.4693 669.095 88.8654 669.095 81.6977C669.095 74.5299 668.313 68.9261 666.749 64.8861C665.315 60.7158 662.904 57.7835 659.516 56.0893C656.258 54.2648 651.892 53.3526 646.419 53.3526C640.945 53.3526 636.514 54.2648 633.126 56.0893C629.868 57.9138 627.457 60.9112 625.893 65.0816C624.459 69.2519 623.743 74.8557 623.743 81.8932C623.743 88.8002 624.459 94.2738 625.893 98.3138C627.457 102.354 629.868 105.221 633.126 106.915C636.514 108.609 640.945 109.456 646.419 109.456Z" fill="#4DD5BC"/>
<path d="M499.289 129.2C488.994 129.2 480.392 128.158 473.485 126.072C466.709 123.857 461.3 120.729 457.26 116.689C453.22 112.519 450.353 107.502 448.659 101.637C446.965 95.7725 446.118 89.1261 446.118 81.6977C446.118 66.9712 450.223 55.3074 458.433 46.7061C466.643 38.1048 479.22 33.8042 496.161 33.8042C506.066 33.8042 514.081 35.1726 520.206 37.9093C526.461 40.6461 531.218 44.2951 534.476 48.8564C537.734 53.4177 539.95 58.5003 541.123 64.1042C542.426 69.5777 543.078 75.1164 543.078 80.7203V89.908C543.078 89.517 541.253 89.1261 537.604 88.7351C534.085 88.2138 528.09 87.9531 519.619 87.9531H474.267C474.267 95.1209 476.418 100.529 480.718 104.178C485.149 107.697 492.317 109.456 502.221 109.456C510.562 109.456 517.99 108.479 524.507 106.524C531.153 104.439 535.975 102.484 538.972 100.66V106.524L540.927 121.381C538.451 123.075 533.694 124.834 526.657 126.659C519.619 128.353 510.497 129.2 499.289 129.2ZM481.5 71.1416H515.319C515.319 68.2745 514.667 65.4725 513.364 62.7358C512.191 59.999 510.236 57.7835 507.5 56.0893C504.763 54.2648 500.983 53.3526 496.161 53.3526C491.34 53.3526 487.43 54.0693 484.432 55.5029C481.565 56.9364 479.415 58.6958 477.981 60.7809C476.678 62.8661 476.027 65.0164 476.027 67.2319C476.027 68.5351 476.418 69.5125 477.2 70.1641C477.981 70.8158 479.415 71.1416 481.5 71.1416Z" fill="#4DD5BC"/>
<path d="M271.98 127.245C272.893 127.245 273.74 126.333 274.522 124.509C275.434 122.684 275.89 119.687 275.89 115.516V49.4429C275.89 45.2726 275.434 42.3403 274.522 40.6461C273.74 38.8216 272.893 37.8442 271.98 37.7139C277.715 37.7139 283.579 37.3229 289.574 36.541C295.569 35.6287 300.26 34.7165 303.649 33.8042V45.7287L303.258 48.27L303.649 48.661C304.04 47.7487 305.278 46.1197 307.363 43.7739C309.448 41.4281 312.446 39.2126 316.355 37.1274C320.265 34.9119 325.087 33.8042 330.821 33.8042C342.941 33.8042 352.194 37.2577 358.58 44.1648C365.096 51.0719 368.354 61.8887 368.354 76.6151V115.516C368.354 119.687 368.745 122.684 369.527 124.509C370.439 126.333 371.351 127.245 372.264 127.245H336.686C337.598 127.245 338.445 126.333 339.227 124.509C340.139 122.684 340.595 119.687 340.595 115.516V77.2015C340.595 71.0764 339.944 66.3196 338.64 62.9312C337.337 59.4125 335.513 56.9364 333.167 55.5029C330.951 54.0693 328.345 53.3526 325.347 53.3526C321.698 53.3526 318.18 54.2648 314.791 56.0893C311.533 57.7835 308.862 60.5203 306.777 64.2996C304.691 67.9487 303.649 72.8358 303.649 78.9609V115.516C303.649 119.687 304.04 122.684 304.822 124.509C305.734 126.333 306.646 127.245 307.558 127.245H271.98ZM401.195 127.245C402.107 127.115 402.954 126.138 403.736 124.313C404.649 122.489 405.105 119.556 405.105 115.516V78.9609C405.105 73.748 404.583 69.2519 403.541 65.4725C402.629 61.5629 401.065 58.5654 398.849 56.4803C396.634 54.3951 393.636 53.3526 389.857 53.3526C383.471 53.3526 378.258 55.6332 374.218 60.1945C370.309 64.7558 368.354 71.6628 368.354 80.9157H354.084C354.084 74.6603 355.061 68.7306 357.016 63.1267C358.971 57.3925 361.773 52.3751 365.422 48.0745C369.071 43.6435 373.436 40.19 378.519 37.7139C383.602 35.1074 389.205 33.8042 395.331 33.8042C403.15 33.8042 409.862 35.2377 415.465 38.1048C421.069 40.8416 425.37 45.468 428.367 51.9842C431.365 58.5003 432.863 67.3622 432.863 78.5699V115.516C432.863 119.556 433.254 122.489 434.036 124.313C434.949 126.138 435.861 127.115 436.773 127.245H401.195Z" fill="#4DD5BC"/>
<path d="M193.732 129.2C182.003 129.2 172.62 126.92 165.582 122.358C158.675 117.667 155.222 110.173 155.222 99.8776C155.222 92.7099 157.046 86.9106 160.695 82.4796C164.344 78.0486 169.296 74.7906 175.552 72.7054C181.938 70.4899 189.171 69.3822 197.251 69.3822C203.245 69.3822 208.328 69.9035 212.498 70.9461C216.799 71.9887 220.253 73.0964 222.859 74.2693C225.465 75.4422 227.16 76.2893 227.942 76.8106C227.942 71.337 227.355 66.9061 226.182 63.5177C225.009 59.999 222.859 57.4577 219.731 55.8938C216.734 54.1996 212.498 53.3526 207.025 53.3526C199.075 53.3526 192.038 54.1345 185.913 55.6984C179.787 57.2622 174.77 59.0867 170.86 61.1719C167.081 63.257 164.475 65.0164 163.041 66.45V60.5854L161.086 41.4281C161.998 40.9068 164.409 40.0597 168.319 38.8868C172.229 37.7139 177.572 36.6061 184.349 35.5635C191.125 34.3906 199.205 33.8042 208.589 33.8042C221.491 33.8042 231.33 35.6939 238.107 39.4732C244.883 43.1222 249.51 48.4003 251.986 55.3074C254.592 62.2145 255.896 70.5551 255.896 80.3293V115.516C255.896 119.165 256.287 121.837 257.069 123.531C257.981 125.095 258.893 126.333 259.805 127.245H228.137V123.14L228.528 119.426L228.137 119.035C227.094 120.208 225.596 121.381 223.641 122.554C221.686 123.727 219.275 124.834 216.408 125.877C213.541 126.789 210.218 127.571 206.438 128.223C202.659 128.874 198.424 129.2 193.732 129.2ZM202.92 109.456C208.393 109.456 212.954 109.065 216.604 108.283C220.383 107.371 223.25 106.198 225.205 104.765C227.16 103.201 228.137 101.376 228.137 99.2912C228.137 96.2938 225.856 93.8177 221.295 91.8628C216.864 89.908 210.804 88.9306 203.115 88.9306C195.687 88.9306 190.409 89.9731 187.281 92.0583C184.284 94.1435 182.785 96.7499 182.785 99.8776C182.785 103.787 184.544 106.394 188.063 107.697C191.582 108.87 196.534 109.456 202.92 109.456Z" fill="#4DD5BC"/>
<path d="M72.2767 129.2C54.5528 129.2 40.5432 124.313 30.2477 114.539C20.0826 104.634 15 89.4515 15 68.9909C15 57.0012 17.2806 46.4451 21.8419 37.3225C26.4032 28.0696 33.6361 20.9019 43.5406 15.8193C53.4451 10.6064 66.2819 8 82.0509 8C94.4315 8 104.662 8.65161 112.742 9.95483C120.952 11.2581 126.556 12.5613 129.553 13.8645V19.729L133.463 41.2322C129.944 38.6258 123.754 36.0193 114.892 33.4129C106.03 30.8064 95.2134 29.5032 82.4418 29.5032C73.7102 29.5032 66.5425 31.0019 60.9386 33.9993C55.3348 36.8664 51.2296 41.2322 48.6232 47.0967C46.0167 52.9612 44.7135 60.2593 44.7135 68.9909C44.7135 78.3741 45.8864 85.9328 48.2322 91.667C50.578 97.2708 54.3574 101.311 59.5703 103.787C64.7832 106.263 71.6902 107.501 80.2915 107.501C86.8076 107.501 92.0857 106.85 96.1257 105.546C100.166 104.113 103.163 102.223 105.118 99.8773C107.073 97.4011 108.05 94.6644 108.05 91.667V88.5392C108.05 85.5418 107.79 83.8476 107.268 83.4567C106.877 82.9354 105.183 82.6747 102.186 82.6747H95.9302C91.4992 82.6747 87.7199 83.1308 84.5922 84.0431C81.4644 84.9554 79.2489 85.8676 77.9457 86.7799L79.9005 67.427V61.5625H141.478C140.566 61.6928 139.653 62.6702 138.741 64.4947C137.959 66.1889 137.568 69.1212 137.568 73.2915V115.516C137.568 119.686 137.959 122.684 138.741 124.508C139.653 126.333 140.566 127.245 141.478 127.245H108.05V124.704L108.441 119.23L108.05 118.839C107.138 120.142 105.313 121.641 102.577 123.335C99.8399 124.899 95.9954 126.268 91.0431 127.44C86.2212 128.613 79.9657 129.2 72.2767 129.2Z" fill="#4DD5BC"/>
</g>
<defs>
<filter id="filter0_d_2184_2502" x="0" y="0" width="997.505" height="137.2" filterUnits="userSpaceOnUse" color-interpolation-filters="sRGB">
<feFlood flood-opacity="0" result="BackgroundImageFix"/>
<feColorMatrix in="SourceAlpha" type="matrix" values="0 0 0 0 0 0 0 0 0 0 0 0 0 0 0 0 0 0 127 0" result="hardAlpha"/>
<feOffset dx="-7"/>
<feGaussianBlur stdDeviation="4"/>
<feComposite in2="hardAlpha" operator="out"/>
<feColorMatrix type="matrix" values="0 0 0 0 0.301961 0 0 0 0 0.835294 0 0 0 0 0.737255 0 0 0 0.5 0"/>
<feBlend mode="normal" in2="BackgroundImageFix" result="effect1_dropShadow_2184_2502"/>
<feBlend mode="normal" in="SourceGraphic" in2="effect1_dropShadow_2184_2502" result="shape"/>
</filter>
</defs>
</svg>
