<svg width="241" height="148" viewBox="0 0 241 148" fill="none" xmlns="http://www.w3.org/2000/svg">
<rect x="0.5" y="0.5" width="240" height="147" rx="4.5" stroke="#8A38F5" stroke-dasharray="10 5"/>
<rect x="20.5" y="20.5" width="200" height="43" rx="9.5" fill="#ED1B76"/>
<rect x="20.5" y="20.5" width="200" height="43" rx="9.5" stroke="#E71C4F"/>
<path d="M40.896 48V36.48H43.216L50.288 44.896V36.48H52.416V48H50.096L43.008 39.568V48H40.896ZM56.9765 48C56.5712 48 56.2032 47.8987 55.8725 47.696C55.5418 47.4933 55.2752 47.2267 55.0725 46.896C54.8698 46.5653 54.7685 46.1973 54.7685 45.792V40.928C54.7685 40.5227 54.8698 40.1547 55.0725 39.824C55.2752 39.4933 55.5418 39.2267 55.8725 39.024C56.2032 38.8213 56.5712 38.72 56.9765 38.72H61.9845C62.3898 38.72 62.7578 38.8213 63.0885 39.024C63.4298 39.2267 63.6965 39.4933 63.8885 39.824C64.0912 40.1547 64.1925 40.5227 64.1925 40.928V45.792C64.1925 46.1973 64.0912 46.5653 63.8885 46.896C63.6965 47.2267 63.4352 47.4933 63.1045 47.696C62.7738 47.8987 62.4005 48 61.9845 48H56.9765ZM57.0565 45.904H61.9045C61.9578 45.904 62.0005 45.888 62.0325 45.856C62.0752 45.8133 62.0965 45.7653 62.0965 45.712V41.008C62.0965 40.9547 62.0752 40.912 62.0325 40.88C62.0005 40.8373 61.9578 40.816 61.9045 40.816H57.0565C57.0032 40.816 56.9552 40.8373 56.9125 40.88C56.8805 40.912 56.8645 40.9547 56.8645 41.008V45.712C56.8645 45.7653 56.8805 45.8133 56.9125 45.856C56.9552 45.888 57.0032 45.904 57.0565 45.904ZM66.5346 50.112V46.032H68.6306V47.904C68.6306 48.256 68.54 48.5813 68.3586 48.88C68.1773 49.1893 67.9266 49.4507 67.6066 49.664C67.2866 49.888 66.9293 50.0373 66.5346 50.112ZM76.3303 48V35.68H78.4263V38.72H83.5463C83.9516 38.72 84.3196 38.8213 84.6503 39.024C84.9916 39.2267 85.2583 39.4933 85.4503 39.824C85.6529 40.1547 85.7543 40.5227 85.7543 40.928V45.792C85.7543 46.1973 85.6529 46.5653 85.4503 46.896C85.2583 47.2267 84.9916 47.4933 84.6503 47.696C84.3196 47.8987 83.9516 48 83.5463 48H76.3303ZM78.6183 45.904H83.4663C83.5196 45.904 83.5623 45.888 83.5943 45.856C83.6369 45.8133 83.6583 45.7653 83.6583 45.712V41.008C83.6583 40.9547 83.6369 40.912 83.5943 40.88C83.5623 40.8373 83.5196 40.816 83.4663 40.816H78.6183C78.5649 40.816 78.5169 40.8373 78.4743 40.88C78.4423 40.912 78.4263 40.9547 78.4263 41.008V45.712C78.4263 45.7653 78.4423 45.8133 78.4743 45.856C78.5169 45.888 78.5649 45.904 78.6183 45.904ZM89.7088 48C89.3034 48 88.9301 47.8987 88.5888 47.696C88.2581 47.4933 87.9914 47.2267 87.7888 46.896C87.5968 46.5653 87.5008 46.1973 87.5008 45.792V42.304H94.8288V41.008C94.8288 40.9547 94.8074 40.912 94.7648 40.88C94.7328 40.8373 94.6901 40.816 94.6368 40.816H87.5008V38.72H94.7168C95.1221 38.72 95.4901 38.8213 95.8208 39.024C96.1621 39.2267 96.4288 39.4933 96.6208 39.824C96.8234 40.1547 96.9248 40.5227 96.9248 40.928V48H89.7088ZM89.7888 45.904H94.8288V44.192H89.5968V45.712C89.5968 45.7653 89.6128 45.8133 89.6448 45.856C89.6874 45.888 89.7354 45.904 89.7888 45.904ZM101.005 48C100.599 48 100.231 47.8987 99.9006 47.696C99.57 47.4933 99.3033 47.2267 99.1006 46.896C98.898 46.5653 98.7966 46.1973 98.7966 45.792V40.928C98.7966 40.5227 98.898 40.1547 99.1006 39.824C99.3033 39.4933 99.57 39.2267 99.9006 39.024C100.231 38.8213 100.599 38.72 101.005 38.72H108.205V40.816H101.085C101.031 40.816 100.983 40.8373 100.941 40.88C100.909 40.912 100.893 40.9547 100.893 41.008V45.712C100.893 45.7653 100.909 45.8133 100.941 45.856C100.983 45.888 101.031 45.904 101.085 45.904H108.221V48H101.005ZM110.203 48V35.68H112.299V42.304H113.947L117.259 38.72H119.499V39.296L115.803 43.36L119.483 47.424V48H117.259L113.947 44.416H112.299V48H110.203ZM128.91 48C128.504 48 128.136 47.8987 127.806 47.696C127.475 47.4933 127.208 47.2267 127.006 46.896C126.803 46.5653 126.702 46.1973 126.702 45.792V35.872H128.798V38.72H132.414V40.816H128.798V45.712C128.798 45.7653 128.814 45.8133 128.846 45.856C128.888 45.888 128.936 45.904 128.99 45.904H132.414V48H128.91ZM136.533 48C136.128 48 135.76 47.8987 135.429 47.696C135.099 47.4933 134.832 47.2267 134.629 46.896C134.427 46.5653 134.325 46.1973 134.325 45.792V40.928C134.325 40.5227 134.427 40.1547 134.629 39.824C134.832 39.4933 135.099 39.2267 135.429 39.024C135.76 38.8213 136.128 38.72 136.533 38.72H141.541C141.947 38.72 142.315 38.8213 142.645 39.024C142.987 39.2267 143.253 39.4933 143.445 39.824C143.648 40.1547 143.749 40.5227 143.749 40.928V45.792C143.749 46.1973 143.648 46.5653 143.445 46.896C143.253 47.2267 142.992 47.4933 142.661 47.696C142.331 47.8987 141.957 48 141.541 48H136.533ZM136.613 45.904H141.461C141.515 45.904 141.557 45.888 141.589 45.856C141.632 45.8133 141.653 45.7653 141.653 45.712V41.008C141.653 40.9547 141.632 40.912 141.589 40.88C141.557 40.8373 141.515 40.816 141.461 40.816H136.613C136.56 40.816 136.512 40.8373 136.469 40.88C136.437 40.912 136.421 40.9547 136.421 41.008V45.712C136.421 45.7653 136.437 45.8133 136.469 45.856C136.512 45.888 136.56 45.904 136.613 45.904ZM152.966 51.664V49.552H158.55C158.603 49.552 158.646 49.5307 158.678 49.488C158.721 49.456 158.742 49.4133 158.742 49.36V48H153.622C153.227 48 152.859 47.8987 152.518 47.696C152.187 47.4933 151.921 47.2267 151.718 46.896C151.515 46.5653 151.414 46.1973 151.414 45.792V40.928C151.414 40.5227 151.515 40.1547 151.718 39.824C151.921 39.4933 152.187 39.2267 152.518 39.024C152.859 38.8213 153.227 38.72 153.622 38.72H158.646C159.051 38.72 159.419 38.8213 159.75 39.024C160.081 39.2267 160.342 39.4933 160.534 39.824C160.737 40.1547 160.838 40.5227 160.838 40.928V49.456C160.838 49.872 160.742 50.2453 160.55 50.576C160.358 50.9067 160.091 51.168 159.75 51.36C159.419 51.5627 159.051 51.664 158.646 51.664H152.966ZM153.702 45.904H158.55C158.603 45.904 158.646 45.888 158.678 45.856C158.721 45.8133 158.742 45.7653 158.742 45.712V41.008C158.742 40.9547 158.721 40.912 158.678 40.88C158.646 40.8373 158.603 40.816 158.55 40.816H153.702C153.649 40.816 153.601 40.8373 153.558 40.88C153.526 40.912 153.51 40.9547 153.51 41.008V45.712C153.51 45.7653 153.526 45.8133 153.558 45.856C153.601 45.888 153.649 45.904 153.702 45.904ZM165.016 48C164.611 48 164.238 47.8987 163.896 47.696C163.566 47.4933 163.299 47.2267 163.096 46.896C162.904 46.5653 162.808 46.1973 162.808 45.792V42.304H170.136V41.008C170.136 40.9547 170.115 40.912 170.072 40.88C170.04 40.8373 169.998 40.816 169.944 40.816H162.808V38.72H170.024C170.43 38.72 170.798 38.8213 171.128 39.024C171.47 39.2267 171.736 39.4933 171.928 39.824C172.131 40.1547 172.232 40.5227 172.232 40.928V48H165.016ZM165.096 45.904H170.136V44.192H164.904V45.712C164.904 45.7653 164.92 45.8133 164.952 45.856C164.995 45.888 165.043 45.904 165.096 45.904ZM174.183 48V38.72H185.687C186.103 38.72 186.477 38.8213 186.807 39.024C187.138 39.2267 187.399 39.4933 187.591 39.824C187.794 40.1547 187.895 40.5227 187.895 40.928V48H185.815V41.008C185.815 40.9547 185.794 40.912 185.751 40.88C185.709 40.8373 185.661 40.816 185.607 40.816H182.295C182.242 40.816 182.194 40.8373 182.151 40.88C182.119 40.912 182.103 40.9547 182.103 41.008V48H179.991V41.008C179.991 40.9547 179.97 40.912 179.927 40.88C179.895 40.8373 179.853 40.816 179.799 40.816H176.471C176.418 40.816 176.37 40.8373 176.327 40.88C176.295 40.912 176.279 40.9547 176.279 41.008V48H174.183ZM192.187 48C191.781 48 191.413 47.8987 191.083 47.696C190.752 47.4933 190.485 47.2267 190.283 46.896C190.08 46.5653 189.979 46.1973 189.979 45.792V40.928C189.979 40.5227 190.08 40.1547 190.283 39.824C190.485 39.4933 190.752 39.2267 191.083 39.024C191.413 38.8213 191.781 38.72 192.187 38.72H197.195C197.6 38.72 197.968 38.8213 198.299 39.024C198.64 39.2267 198.907 39.4933 199.099 39.824C199.301 40.1547 199.403 40.5227 199.403 40.928V44.416H192.075V45.712C192.075 45.7653 192.091 45.8133 192.123 45.856C192.165 45.888 192.213 45.904 192.267 45.904H199.403V48H192.187ZM192.075 42.528H197.307V41.008C197.307 40.9547 197.285 40.912 197.243 40.88C197.211 40.8373 197.168 40.816 197.115 40.816H192.267C192.213 40.816 192.165 40.8373 192.123 40.88C192.091 40.912 192.075 40.9547 192.075 41.008V42.528Z" fill="white"/>
<g filter="url(#filter0_d_2168_2043)">
<rect x="20" y="84" width="201" height="44" rx="10" fill="#F2C7DA" fill-opacity="0.08" shape-rendering="crispEdges"/>
<rect x="21" y="85" width="199" height="42" rx="9" stroke="#E71C4F" stroke-width="2" shape-rendering="crispEdges"/>
<path d="M40.896 112V100.48H43.216L50.288 108.896V100.48H52.416V112H50.096L43.008 103.568V112H40.896ZM56.9765 112C56.5712 112 56.2032 111.899 55.8725 111.696C55.5418 111.493 55.2752 111.227 55.0725 110.896C54.8698 110.565 54.7685 110.197 54.7685 109.792V104.928C54.7685 104.523 54.8698 104.155 55.0725 103.824C55.2752 103.493 55.5418 103.227 55.8725 103.024C56.2032 102.821 56.5712 102.72 56.9765 102.72H61.9845C62.3898 102.72 62.7578 102.821 63.0885 103.024C63.4298 103.227 63.6965 103.493 63.8885 103.824C64.0912 104.155 64.1925 104.523 64.1925 104.928V109.792C64.1925 110.197 64.0912 110.565 63.8885 110.896C63.6965 111.227 63.4352 111.493 63.1045 111.696C62.7738 111.899 62.4005 112 61.9845 112H56.9765ZM57.0565 109.904H61.9045C61.9578 109.904 62.0005 109.888 62.0325 109.856C62.0752 109.813 62.0965 109.765 62.0965 109.712V105.008C62.0965 104.955 62.0752 104.912 62.0325 104.88C62.0005 104.837 61.9578 104.816 61.9045 104.816H57.0565C57.0032 104.816 56.9552 104.837 56.9125 104.88C56.8805 104.912 56.8645 104.955 56.8645 105.008V109.712C56.8645 109.765 56.8805 109.813 56.9125 109.856C56.9552 109.888 57.0032 109.904 57.0565 109.904ZM66.5346 114.112V110.032H68.6306V111.904C68.6306 112.256 68.54 112.581 68.3586 112.88C68.1773 113.189 67.9266 113.451 67.6066 113.664C67.2866 113.888 66.9293 114.037 66.5346 114.112ZM76.3303 112V99.68H78.4263V102.72H83.5463C83.9516 102.72 84.3196 102.821 84.6503 103.024C84.9916 103.227 85.2583 103.493 85.4503 103.824C85.6529 104.155 85.7543 104.523 85.7543 104.928V109.792C85.7543 110.197 85.6529 110.565 85.4503 110.896C85.2583 111.227 84.9916 111.493 84.6503 111.696C84.3196 111.899 83.9516 112 83.5463 112H76.3303ZM78.6183 109.904H83.4663C83.5196 109.904 83.5623 109.888 83.5943 109.856C83.6369 109.813 83.6583 109.765 83.6583 109.712V105.008C83.6583 104.955 83.6369 104.912 83.5943 104.88C83.5623 104.837 83.5196 104.816 83.4663 104.816H78.6183C78.5649 104.816 78.5169 104.837 78.4743 104.88C78.4423 104.912 78.4263 104.955 78.4263 105.008V109.712C78.4263 109.765 78.4423 109.813 78.4743 109.856C78.5169 109.888 78.5649 109.904 78.6183 109.904ZM89.7088 112C89.3034 112 88.9301 111.899 88.5888 111.696C88.2581 111.493 87.9914 111.227 87.7888 110.896C87.5968 110.565 87.5008 110.197 87.5008 109.792V106.304H94.8288V105.008C94.8288 104.955 94.8074 104.912 94.7648 104.88C94.7328 104.837 94.6901 104.816 94.6368 104.816H87.5008V102.72H94.7168C95.1221 102.72 95.4901 102.821 95.8208 103.024C96.1621 103.227 96.4288 103.493 96.6208 103.824C96.8234 104.155 96.9248 104.523 96.9248 104.928V112H89.7088ZM89.7888 109.904H94.8288V108.192H89.5968V109.712C89.5968 109.765 89.6128 109.813 89.6448 109.856C89.6874 109.888 89.7354 109.904 89.7888 109.904ZM101.005 112C100.599 112 100.231 111.899 99.9006 111.696C99.57 111.493 99.3033 111.227 99.1006 110.896C98.898 110.565 98.7966 110.197 98.7966 109.792V104.928C98.7966 104.523 98.898 104.155 99.1006 103.824C99.3033 103.493 99.57 103.227 99.9006 103.024C100.231 102.821 100.599 102.72 101.005 102.72H108.205V104.816H101.085C101.031 104.816 100.983 104.837 100.941 104.88C100.909 104.912 100.893 104.955 100.893 105.008V109.712C100.893 109.765 100.909 109.813 100.941 109.856C100.983 109.888 101.031 109.904 101.085 109.904H108.221V112H101.005ZM110.203 112V99.68H112.299V106.304H113.947L117.259 102.72H119.499V103.296L115.803 107.36L119.483 111.424V112H117.259L113.947 108.416H112.299V112H110.203ZM128.91 112C128.504 112 128.136 111.899 127.806 111.696C127.475 111.493 127.208 111.227 127.006 110.896C126.803 110.565 126.702 110.197 126.702 109.792V99.872H128.798V102.72H132.414V104.816H128.798V109.712C128.798 109.765 128.814 109.813 128.846 109.856C128.888 109.888 128.936 109.904 128.99 109.904H132.414V112H128.91ZM136.533 112C136.128 112 135.76 111.899 135.429 111.696C135.099 111.493 134.832 111.227 134.629 110.896C134.427 110.565 134.325 110.197 134.325 109.792V104.928C134.325 104.523 134.427 104.155 134.629 103.824C134.832 103.493 135.099 103.227 135.429 103.024C135.76 102.821 136.128 102.72 136.533 102.72H141.541C141.947 102.72 142.315 102.821 142.645 103.024C142.987 103.227 143.253 103.493 143.445 103.824C143.648 104.155 143.749 104.523 143.749 104.928V109.792C143.749 110.197 143.648 110.565 143.445 110.896C143.253 111.227 142.992 111.493 142.661 111.696C142.331 111.899 141.957 112 141.541 112H136.533ZM136.613 109.904H141.461C141.515 109.904 141.557 109.888 141.589 109.856C141.632 109.813 141.653 109.765 141.653 109.712V105.008C141.653 104.955 141.632 104.912 141.589 104.88C141.557 104.837 141.515 104.816 141.461 104.816H136.613C136.56 104.816 136.512 104.837 136.469 104.88C136.437 104.912 136.421 104.955 136.421 105.008V109.712C136.421 109.765 136.437 109.813 136.469 109.856C136.512 109.888 136.56 109.904 136.613 109.904ZM152.966 115.664V113.552H158.55C158.603 113.552 158.646 113.531 158.678 113.488C158.721 113.456 158.742 113.413 158.742 113.36V112H153.622C153.227 112 152.859 111.899 152.518 111.696C152.187 111.493 151.921 111.227 151.718 110.896C151.515 110.565 151.414 110.197 151.414 109.792V104.928C151.414 104.523 151.515 104.155 151.718 103.824C151.921 103.493 152.187 103.227 152.518 103.024C152.859 102.821 153.227 102.72 153.622 102.72H158.646C159.051 102.72 159.419 102.821 159.75 103.024C160.081 103.227 160.342 103.493 160.534 103.824C160.737 104.155 160.838 104.523 160.838 104.928V113.456C160.838 113.872 160.742 114.245 160.55 114.576C160.358 114.907 160.091 115.168 159.75 115.36C159.419 115.563 159.051 115.664 158.646 115.664H152.966ZM153.702 109.904H158.55C158.603 109.904 158.646 109.888 158.678 109.856C158.721 109.813 158.742 109.765 158.742 109.712V105.008C158.742 104.955 158.721 104.912 158.678 104.88C158.646 104.837 158.603 104.816 158.55 104.816H153.702C153.649 104.816 153.601 104.837 153.558 104.88C153.526 104.912 153.51 104.955 153.51 105.008V109.712C153.51 109.765 153.526 109.813 153.558 109.856C153.601 109.888 153.649 109.904 153.702 109.904ZM165.016 112C164.611 112 164.238 111.899 163.896 111.696C163.566 111.493 163.299 111.227 163.096 110.896C162.904 110.565 162.808 110.197 162.808 109.792V106.304H170.136V105.008C170.136 104.955 170.115 104.912 170.072 104.88C170.04 104.837 169.998 104.816 169.944 104.816H162.808V102.72H170.024C170.43 102.72 170.798 102.821 171.128 103.024C171.47 103.227 171.736 103.493 171.928 103.824C172.131 104.155 172.232 104.523 172.232 104.928V112H165.016ZM165.096 109.904H170.136V108.192H164.904V109.712C164.904 109.765 164.92 109.813 164.952 109.856C164.995 109.888 165.043 109.904 165.096 109.904ZM174.183 112V102.72H185.687C186.103 102.72 186.477 102.821 186.807 103.024C187.138 103.227 187.399 103.493 187.591 103.824C187.794 104.155 187.895 104.523 187.895 104.928V112H185.815V105.008C185.815 104.955 185.794 104.912 185.751 104.88C185.709 104.837 185.661 104.816 185.607 104.816H182.295C182.242 104.816 182.194 104.837 182.151 104.88C182.119 104.912 182.103 104.955 182.103 105.008V112H179.991V105.008C179.991 104.955 179.97 104.912 179.927 104.88C179.895 104.837 179.853 104.816 179.799 104.816H176.471C176.418 104.816 176.37 104.837 176.327 104.88C176.295 104.912 176.279 104.955 176.279 105.008V112H174.183ZM192.187 112C191.781 112 191.413 111.899 191.083 111.696C190.752 111.493 190.485 111.227 190.283 110.896C190.08 110.565 189.979 110.197 189.979 109.792V104.928C189.979 104.523 190.08 104.155 190.283 103.824C190.485 103.493 190.752 103.227 191.083 103.024C191.413 102.821 191.781 102.72 192.187 102.72H197.195C197.6 102.72 197.968 102.821 198.299 103.024C198.64 103.227 198.907 103.493 199.099 103.824C199.301 104.155 199.403 104.523 199.403 104.928V108.416H192.075V109.712C192.075 109.765 192.091 109.813 192.123 109.856C192.165 109.888 192.213 109.904 192.267 109.904H199.403V112H192.187ZM192.075 106.528H197.307V105.008C197.307 104.955 197.285 104.912 197.243 104.88C197.211 104.837 197.168 104.816 197.115 104.816H192.267C192.213 104.816 192.165 104.837 192.123 104.88C192.091 104.912 192.075 104.955 192.075 105.008V106.528Z" fill="#ED1B76"/>
</g>
<defs>
<filter id="filter0_d_2168_2043" x="18" y="82" width="211" height="54" filterUnits="userSpaceOnUse" color-interpolation-filters="sRGB">
<feFlood flood-opacity="0" result="BackgroundImageFix"/>
<feColorMatrix in="SourceAlpha" type="matrix" values="0 0 0 0 0 0 0 0 0 0 0 0 0 0 0 0 0 0 127 0" result="hardAlpha"/>
<feOffset dx="3" dy="3"/>
<feGaussianBlur stdDeviation="2.5"/>
<feComposite in2="hardAlpha" operator="out"/>
<feColorMatrix type="matrix" values="0 0 0 0 0.182749 0 0 0 0 0.18106 0 0 0 0 0.18106 0 0 0 0.2 0"/>
<feBlend mode="normal" in2="BackgroundImageFix" result="effect1_dropShadow_2168_2043"/>
<feBlend mode="normal" in="SourceGraphic" in2="effect1_dropShadow_2168_2043" result="shape"/>
</filter>
</defs>
</svg>
