<svg width="130" height="17" viewBox="0 0 130 17" fill="none" xmlns="http://www.w3.org/2000/svg">
<path d="M3.06964e-06 16.656C0.112003 16.656 0.224003 16.544 0.336003 16.32C0.448003 16.096 0.504003 15.728 0.504003 15.216V3.69601C0.504003 3.18401 0.448003 2.82401 0.336003 2.616C0.224003 2.392 0.112003 2.27201 3.06964e-06 2.25601H14.016V2.976L14.496 5.76001C14.096 5.58401 13.392 5.40001 12.384 5.20801C11.376 5.00001 10.16 4.89601 8.736 4.89601H5.184C4.704 4.89601 4.416 4.93601 4.32 5.01601C4.24 5.08001 4.2 5.28001 4.2 5.61601V7.39201C4.2 7.74401 4.24 7.95201 4.32 8.01601C4.416 8.08001 4.696 8.11201 5.16 8.11201H8.616C9.544 8.11201 10.288 8.06401 10.848 7.96801C11.424 7.85601 11.8 7.74401 11.976 7.63201C11.912 7.93601 11.84 8.28801 11.76 8.68801C11.68 9.08801 11.616 9.47201 11.568 9.84001C11.52 10.208 11.496 10.512 11.496 10.752H5.16C4.696 10.752 4.416 10.784 4.32 10.848C4.24 10.896 4.2 11.104 4.2 11.472V13.248C4.2 13.616 4.24 13.832 4.32 13.896C4.4 13.96 4.68 13.992 5.16 13.992H11.64C12.568 13.992 13.312 13.888 13.872 13.68C14.448 13.456 14.824 13.24 15 13.032L14.52 15.912V16.656H3.06964e-06ZM15.2955 16.656C15.4395 16.656 15.6795 16.544 16.0155 16.32C16.3515 16.096 16.7355 15.736 17.1675 15.24C17.4715 14.872 17.8315 14.44 18.2475 13.944C18.6635 13.432 19.0795 12.912 19.4955 12.384C19.9275 11.856 20.2955 11.4 20.5995 11.016C20.3435 10.728 20.0555 10.4 19.7355 10.032C19.4155 9.66401 19.0875 9.28801 18.7515 8.90401C18.4315 8.52001 18.1115 8.16001 17.7915 7.82401C17.4875 7.47201 17.2235 7.16801 16.9995 6.91201C16.5195 6.36801 16.1355 5.98401 15.8475 5.76001C15.5595 5.53601 15.3755 5.42401 15.2955 5.42401H20.4795C20.3675 5.44001 20.3275 5.56001 20.3595 5.78401C20.4075 6.00801 20.6155 6.38401 20.9835 6.91201C21.1435 7.13601 21.3275 7.39201 21.5355 7.68001C21.7435 7.96801 21.9515 8.25601 22.1595 8.54401C22.3675 8.83201 22.5435 9.08001 22.6875 9.28801H22.7355C22.8635 9.09601 23.0155 8.86401 23.1915 8.59201C23.3835 8.32001 23.5835 8.03201 23.7915 7.72801C23.9995 7.42401 24.1915 7.13601 24.3675 6.86401C24.7035 6.33601 24.8875 5.96801 24.9195 5.76001C24.9675 5.53601 24.9435 5.42401 24.8475 5.42401H30.1035C29.9595 5.42401 29.7275 5.53601 29.4075 5.76001C29.0875 5.96801 28.7035 6.32801 28.2555 6.84001C27.9515 7.19201 27.5755 7.62401 27.1275 8.13601C26.6955 8.63201 26.2635 9.13601 25.8315 9.64801C25.3995 10.16 25.0155 10.616 24.6795 11.016C25.0955 11.48 25.5115 11.944 25.9275 12.408C26.3435 12.856 26.7515 13.312 27.1515 13.776C27.5675 14.24 27.9835 14.704 28.3995 15.168C28.8795 15.712 29.2635 16.096 29.5515 16.32C29.8555 16.544 30.0475 16.656 30.1275 16.656H24.9435C25.0555 16.656 25.0955 16.544 25.0635 16.32C25.0315 16.096 24.8315 15.712 24.4635 15.168C24.3035 14.912 24.1115 14.632 23.8875 14.328C23.6635 14.024 23.4395 13.72 23.2155 13.416C22.9915 13.112 22.7995 12.856 22.6395 12.648H22.5915C22.4635 12.856 22.3035 13.112 22.1115 13.416C21.9355 13.72 21.7435 14.032 21.5355 14.352C21.3435 14.672 21.1595 14.96 20.9835 15.216C20.6315 15.744 20.4315 16.12 20.3835 16.344C20.3355 16.552 20.3675 16.656 20.4795 16.656H15.2955ZM30.981 16.656C31.093 16.656 31.205 16.544 31.317 16.32C31.429 16.096 31.485 15.728 31.485 15.216V6.86401C31.485 6.35201 31.429 5.98401 31.317 5.76001C31.221 5.53601 31.117 5.42401 31.005 5.42401H34.893V15.216C34.893 15.728 34.941 16.096 35.037 16.32C35.149 16.544 35.261 16.656 35.373 16.656H30.981ZM32.925 3.60001C32.333 3.60001 31.861 3.44001 31.509 3.12001C31.157 2.8 30.981 2.36 30.981 1.80001C30.981 1.24001 31.149 0.800005 31.485 0.480005C31.837 0.160006 32.317 5.72205e-06 32.925 5.72205e-06C33.533 5.72205e-06 34.005 0.160006 34.341 0.480005C34.693 0.800005 34.869 1.24001 34.869 1.80001C34.869 2.36 34.693 2.8 34.341 3.12001C34.005 3.44001 33.533 3.60001 32.925 3.60001ZM42.2715 16.896C41.1675 16.896 40.3675 16.664 39.8715 16.2C39.3755 15.72 39.1275 14.944 39.1275 13.872V7.82401H36.9675V5.42401C37.7035 5.42401 38.2795 5.33601 38.6955 5.16001C39.1115 4.96801 39.4075 4.64001 39.5835 4.176C39.7595 3.71201 39.8475 3.06401 39.8475 2.23201H42.5355V5.42401H46.6395C46.5275 5.74401 46.4155 6.14401 46.3035 6.62401C46.2075 7.08801 46.1595 7.48801 46.1595 7.82401H42.5355V12.552C42.5355 13.288 42.5915 13.792 42.7035 14.064C42.8155 14.336 43.0795 14.472 43.4955 14.472C43.7675 14.472 44.0635 14.376 44.3835 14.184C44.7195 13.992 45.0395 13.76 45.3435 13.488C45.6635 13.2 45.9275 12.928 46.1355 12.672V13.416L46.3755 15.744C46.1835 15.904 45.8955 16.08 45.5115 16.272C45.1275 16.448 44.6555 16.592 44.0955 16.704C43.5515 16.832 42.9435 16.896 42.2715 16.896ZM60.6039 16.896C59.9799 16.896 59.3959 16.816 58.8519 16.656C58.3239 16.512 57.8999 16.296 57.5799 16.008L57.5319 16.056L57.5799 16.512V16.656H53.6919C53.8039 16.656 53.9079 16.544 54.0039 16.32C54.1159 16.096 54.1719 15.728 54.1719 15.216V1.536C54.1719 1.024 54.1159 0.664005 54.0039 0.456006C53.9079 0.232006 53.8039 0.112005 53.6919 0.0960045H57.5799V5.61601L57.5319 6.07201L57.5799 6.09601C57.7399 5.95201 57.9719 5.81601 58.2759 5.68801C58.5959 5.54401 58.9559 5.42401 59.3559 5.32801C59.7719 5.23201 60.1879 5.18401 60.6039 5.18401C62.0919 5.18401 63.2439 5.44801 64.0599 5.97601C64.8919 6.48801 65.4759 7.18401 65.8119 8.06401C66.1479 8.94401 66.3159 9.94401 66.3159 11.064C66.3159 12.168 66.1479 13.16 65.8119 14.04C65.4919 14.92 64.9159 15.616 64.0839 16.128C63.2679 16.64 62.1079 16.896 60.6039 16.896ZM60.1239 14.472C60.7959 14.472 61.3319 14.376 61.7319 14.184C62.1479 13.976 62.4439 13.624 62.6199 13.128C62.8119 12.632 62.9079 11.944 62.9079 11.064C62.9079 10.184 62.8119 9.49601 62.6199 9.00001C62.4439 8.48801 62.1479 8.12801 61.7319 7.92001C61.3319 7.69601 60.7959 7.58401 60.1239 7.58401C59.5959 7.58401 59.1399 7.71201 58.7559 7.96801C58.3719 8.20801 58.0759 8.58401 57.8679 9.09601C57.6759 9.60801 57.5799 10.272 57.5799 11.088C57.5799 12.336 57.8039 13.216 58.2519 13.728C58.7159 14.224 59.3399 14.472 60.1239 14.472ZM72.9306 16.896C72.0026 16.896 71.2106 16.736 70.5546 16.416C69.8986 16.08 69.4026 15.512 69.0666 14.712C68.7306 13.896 68.5626 12.768 68.5626 11.328V6.86401C68.5626 6.35201 68.5066 5.98401 68.3946 5.76001C68.2986 5.53601 68.1946 5.42401 68.0826 5.42401H72.4986C72.3866 5.42401 72.2666 5.53601 72.1386 5.76001C72.0266 5.98401 71.9706 6.35201 71.9706 6.86401V11.664C71.9706 12.672 72.1546 13.392 72.5226 13.824C72.9066 14.256 73.3466 14.472 73.8426 14.472C74.5466 14.472 75.0906 14.312 75.4746 13.992C75.8586 13.656 76.1306 13.224 76.2906 12.696C76.4506 12.152 76.5306 11.584 76.5306 10.992V6.86401C76.5306 6.35201 76.4746 5.99201 76.3626 5.78401C76.2666 5.56001 76.1626 5.44001 76.0506 5.42401H79.9386V15.216C79.9386 15.728 79.9866 16.096 80.0826 16.32C80.1946 16.544 80.3066 16.656 80.4186 16.656H76.5306V15.72L76.5786 15.24L76.5306 15.192C76.3706 15.432 76.1706 15.656 75.9306 15.864C75.6906 16.072 75.4186 16.256 75.1146 16.416C74.8106 16.56 74.4746 16.672 74.1066 16.752C73.7386 16.848 73.3466 16.896 72.9306 16.896ZM87.1074 16.896C86.0034 16.896 85.2034 16.664 84.7074 16.2C84.2114 15.72 83.9634 14.944 83.9634 13.872V7.82401H81.8034V5.42401C82.5394 5.42401 83.1154 5.33601 83.5314 5.16001C83.9474 4.96801 84.2434 4.64001 84.4194 4.176C84.5954 3.71201 84.6834 3.06401 84.6834 2.23201H87.3714V5.42401H91.4754C91.3634 5.74401 91.2514 6.14401 91.1394 6.62401C91.0434 7.08801 90.9954 7.48801 90.9954 7.82401H87.3714V12.552C87.3714 13.288 87.4274 13.792 87.5394 14.064C87.6514 14.336 87.9154 14.472 88.3314 14.472C88.6034 14.472 88.8994 14.376 89.2194 14.184C89.5554 13.992 89.8754 13.76 90.1794 13.488C90.4994 13.2 90.7634 12.928 90.9714 12.672V13.416L91.2114 15.744C91.0194 15.904 90.7314 16.08 90.3474 16.272C89.9634 16.448 89.4914 16.592 88.9314 16.704C88.3874 16.832 87.7794 16.896 87.1074 16.896ZM97.4903 16.896C96.3863 16.896 95.5863 16.664 95.0903 16.2C94.5943 15.72 94.3463 14.944 94.3463 13.872V7.82401H92.1863V5.42401C92.9223 5.42401 93.4983 5.33601 93.9143 5.16001C94.3303 4.96801 94.6263 4.64001 94.8023 4.176C94.9783 3.71201 95.0663 3.06401 95.0663 2.23201H97.7543V5.42401H101.858C101.746 5.74401 101.634 6.14401 101.522 6.62401C101.426 7.08801 101.378 7.48801 101.378 7.82401H97.7543V12.552C97.7543 13.288 97.8103 13.792 97.9223 14.064C98.0343 14.336 98.2983 14.472 98.7143 14.472C98.9863 14.472 99.2823 14.376 99.6023 14.184C99.9383 13.992 100.258 13.76 100.562 13.488C100.882 13.2 101.146 12.928 101.354 12.672V13.416L101.594 15.744C101.402 15.904 101.114 16.08 100.73 16.272C100.346 16.448 99.8743 16.592 99.3143 16.704C98.7703 16.832 98.1623 16.896 97.4903 16.896ZM109.001 16.896C107.401 16.896 106.145 16.64 105.233 16.128C104.337 15.616 103.705 14.92 103.337 14.04C102.985 13.16 102.809 12.168 102.809 11.064C102.809 9.94401 102.993 8.94401 103.361 8.06401C103.745 7.18401 104.385 6.48801 105.281 5.97601C106.177 5.44801 107.417 5.18401 109.001 5.18401C110.585 5.18401 111.825 5.44801 112.721 5.97601C113.617 6.48801 114.249 7.18401 114.617 8.06401C115.001 8.94401 115.193 9.94401 115.193 11.064C115.193 12.168 115.009 13.16 114.641 14.04C114.289 14.92 113.665 15.616 112.769 16.128C111.873 16.64 110.617 16.896 109.001 16.896ZM109.001 14.472C109.673 14.472 110.209 14.376 110.609 14.184C111.025 13.976 111.321 13.624 111.497 13.128C111.689 12.632 111.785 11.944 111.785 11.064C111.785 10.184 111.689 9.49601 111.497 9.00001C111.321 8.48801 111.025 8.12801 110.609 7.92001C110.209 7.69601 109.673 7.58401 109.001 7.58401C108.329 7.58401 107.785 7.69601 107.369 7.92001C106.969 8.14401 106.673 8.51201 106.481 9.02401C106.305 9.53601 106.217 10.224 106.217 11.088C106.217 11.936 106.305 12.608 106.481 13.104C106.673 13.6 106.969 13.952 107.369 14.16C107.785 14.368 108.329 14.472 109.001 14.472ZM116.973 16.656C117.085 16.656 117.189 16.544 117.285 16.32C117.397 16.096 117.453 15.728 117.453 15.216V7.10401C117.453 6.59201 117.397 6.23201 117.285 6.02401C117.189 5.80001 117.085 5.68001 116.973 5.66401C117.677 5.66401 118.397 5.61601 119.133 5.52001C119.869 5.40801 120.445 5.29601 120.861 5.18401V6.64801L120.813 6.96001L120.861 7.00801C120.909 6.89601 121.061 6.69601 121.317 6.40801C121.573 6.12001 121.941 5.84801 122.421 5.59201C122.901 5.32001 123.493 5.18401 124.197 5.18401C125.685 5.18401 126.821 5.60801 127.605 6.45601C128.405 7.30401 128.805 8.63201 128.805 10.44V15.216C128.805 15.728 128.853 16.096 128.949 16.32C129.061 16.544 129.173 16.656 129.285 16.656H124.917C125.029 16.656 125.133 16.544 125.229 16.32C125.341 16.096 125.397 15.728 125.397 15.216V10.512C125.397 9.76001 125.317 9.17601 125.157 8.76001C124.997 8.32801 124.773 8.02401 124.485 7.84801C124.213 7.67201 123.893 7.58401 123.525 7.58401C123.077 7.58401 122.645 7.69601 122.229 7.92001C121.829 8.12801 121.501 8.46401 121.245 8.92801C120.989 9.37601 120.861 9.97601 120.861 10.728V15.216C120.861 15.728 120.909 16.096 121.005 16.32C121.117 16.544 121.229 16.656 121.341 16.656H116.973Z" fill="black"/>
</svg>
