<svg width="233" height="17" viewBox="0 0 233 17" fill="none" xmlns="http://www.w3.org/2000/svg">
<path d="M7.032 16.8001C4.856 16.8001 3.136 16.2001 1.872 15.0001C0.623999 13.7841 -9.23872e-07 11.9201 -9.23872e-07 9.40806C-9.23872e-07 7.93606 0.279999 6.64006 0.839999 5.52006C1.4 4.38406 2.288 3.50406 3.504 2.88006C4.72 2.24006 6.296 1.92006 8.232 1.92006C9.752 1.92006 11.008 2.00006 12 2.16006C13.008 2.32006 13.696 2.48006 14.064 2.64006V3.36006L14.544 6.00006C14.112 5.68006 13.352 5.36006 12.264 5.04006C11.176 4.72006 9.848 4.56006 8.28 4.56006C7.208 4.56006 6.328 4.74406 5.64 5.11206C4.952 5.46406 4.448 6.00006 4.128 6.72006C3.808 7.44006 3.648 8.33606 3.648 9.40806C3.648 10.5601 3.792 11.4881 4.08 12.1921C4.368 12.8801 4.832 13.3761 5.472 13.6801C6.112 13.9841 6.96 14.1361 8.016 14.1361C8.816 14.1361 9.464 14.0561 9.96 13.8961C10.456 13.7201 10.824 13.4881 11.064 13.2001C11.304 12.8961 11.424 12.5601 11.424 12.1921V11.8081C11.424 11.4401 11.392 11.2321 11.328 11.1841C11.28 11.1201 11.072 11.0881 10.704 11.0881H9.936C9.392 11.0881 8.928 11.1441 8.544 11.2561C8.16 11.3681 7.888 11.4801 7.728 11.5921L7.968 9.21606V8.49606H15.528C15.416 8.51206 15.304 8.63206 15.192 8.85606C15.096 9.06406 15.048 9.42406 15.048 9.93606V15.1201C15.048 15.6321 15.096 16.0001 15.192 16.2241C15.304 16.4481 15.416 16.5601 15.528 16.5601H11.424V16.2481L11.472 15.5761L11.424 15.5281C11.312 15.6881 11.088 15.8721 10.752 16.0801C10.416 16.2721 9.944 16.4401 9.336 16.5841C8.744 16.7281 7.976 16.8001 7.032 16.8001ZM22.4233 16.8001C20.9833 16.8001 19.8313 16.5201 18.9673 15.9601C18.1193 15.3841 17.6953 14.4641 17.6953 13.2001C17.6953 12.3201 17.9193 11.6081 18.3673 11.0641C18.8153 10.5201 19.4233 10.1201 20.1913 9.86406C20.9753 9.59206 21.8633 9.45606 22.8553 9.45606C23.5913 9.45606 24.2153 9.52006 24.7273 9.64806C25.2553 9.77606 25.6793 9.91206 25.9993 10.0561C26.3193 10.2001 26.5273 10.3041 26.6233 10.3681C26.6233 9.69606 26.5513 9.15206 26.4073 8.73606C26.2633 8.30406 25.9993 7.99206 25.6153 7.80006C25.2473 7.59206 24.7273 7.48806 24.0553 7.48806C23.0793 7.48806 22.2153 7.58406 21.4633 7.77606C20.7113 7.96806 20.0953 8.19206 19.6153 8.44806C19.1513 8.70406 18.8313 8.92006 18.6553 9.09606V8.37606L18.4153 6.02406C18.5273 5.96006 18.8233 5.85606 19.3033 5.71206C19.7833 5.56806 20.4393 5.43206 21.2713 5.30406C22.1033 5.16006 23.0953 5.08806 24.2473 5.08806C25.8313 5.08806 27.0393 5.32006 27.8713 5.78406C28.7033 6.23206 29.2713 6.88006 29.5753 7.72806C29.8953 8.57606 30.0553 9.60006 30.0553 10.8001V15.1201C30.0553 15.5681 30.1033 15.8961 30.1993 16.1041C30.3113 16.2961 30.4233 16.4481 30.5353 16.5601H26.6473V16.0561L26.6953 15.6001L26.6473 15.5521C26.5193 15.6961 26.3353 15.8401 26.0953 15.9841C25.8553 16.1281 25.5593 16.2641 25.2073 16.3921C24.8553 16.5041 24.4473 16.6001 23.9833 16.6801C23.5193 16.7601 22.9993 16.8001 22.4233 16.8001ZM23.5513 14.3761C24.2233 14.3761 24.7833 14.3281 25.2313 14.2321C25.6953 14.1201 26.0473 13.9761 26.2873 13.8001C26.5273 13.6081 26.6473 13.3841 26.6473 13.1281C26.6473 12.7601 26.3673 12.4561 25.8073 12.2161C25.2633 11.9761 24.5193 11.8561 23.5753 11.8561C22.6633 11.8561 22.0153 11.9841 21.6313 12.2401C21.2633 12.4961 21.0793 12.8161 21.0793 13.2001C21.0793 13.6801 21.2953 14.0001 21.7273 14.1601C22.1593 14.3041 22.7673 14.3761 23.5513 14.3761ZM32.5101 16.5601C32.6221 16.5601 32.7261 16.4481 32.8221 16.2241C32.9341 16.0001 32.9901 15.6321 32.9901 15.1201V7.00806C32.9901 6.49606 32.9341 6.13606 32.8221 5.92806C32.7261 5.70406 32.6221 5.58406 32.5101 5.56806C33.2141 5.56806 33.9341 5.52006 34.6701 5.42406C35.4061 5.31206 35.9821 5.20006 36.3981 5.08806V6.55206L36.3501 6.86406L36.3981 6.91206C36.4461 6.80006 36.5981 6.60006 36.8541 6.31206C37.1101 6.02406 37.4781 5.75206 37.9581 5.49606C38.4381 5.22406 39.0301 5.08806 39.7341 5.08806C41.2221 5.08806 42.3581 5.51206 43.1421 6.36006C43.9421 7.20806 44.3421 8.53606 44.3421 10.3441V15.1201C44.3421 15.6321 44.3901 16.0001 44.4861 16.2241C44.5981 16.4481 44.7101 16.5601 44.8221 16.5601H40.4541C40.5661 16.5601 40.6701 16.4481 40.7661 16.2241C40.8781 16.0001 40.9341 15.6321 40.9341 15.1201V10.4161C40.9341 9.66406 40.8541 9.08006 40.6941 8.66406C40.5341 8.23206 40.3101 7.92806 40.0221 7.75206C39.7501 7.57606 39.4301 7.48806 39.0621 7.48806C38.6141 7.48806 38.1821 7.60006 37.7661 7.82406C37.3661 8.03206 37.0381 8.36806 36.7821 8.83206C36.5261 9.28006 36.3981 9.88006 36.3981 10.6321V15.1201C36.3981 15.6321 36.4461 16.0001 36.5421 16.2241C36.6541 16.4481 36.7661 16.5601 36.8781 16.5601H32.5101ZM48.3741 16.5601C48.4861 16.5441 48.5901 16.4241 48.6861 16.2001C48.7981 15.9761 48.8541 15.6161 48.8541 15.1201V10.6321C48.8541 9.99206 48.7901 9.44006 48.6621 8.97606C48.5501 8.49606 48.3581 8.12806 48.0861 7.87206C47.8141 7.61606 47.4461 7.48806 46.9821 7.48806C46.1981 7.48806 45.5581 7.76806 45.0621 8.32806C44.5821 8.88806 44.3421 9.73606 44.3421 10.8721H42.5901C42.5901 10.1041 42.7101 9.37606 42.9501 8.68806C43.1901 7.98406 43.5341 7.36806 43.9821 6.84006C44.4301 6.29606 44.9661 5.87206 45.5901 5.56806C46.2141 5.24806 46.9021 5.08806 47.6541 5.08806C48.6141 5.08806 49.4381 5.26406 50.1261 5.61606C50.8141 5.95206 51.3421 6.52006 51.7101 7.32006C52.0781 8.12006 52.2621 9.20806 52.2621 10.5841V15.1201C52.2621 15.6161 52.3101 15.9761 52.4061 16.2001C52.5181 16.4241 52.6301 16.5441 52.7421 16.5601H48.3741ZM60.8974 16.8001C59.6334 16.8001 58.5774 16.6721 57.7294 16.4161C56.8974 16.1441 56.2334 15.7601 55.7374 15.2641C55.2414 14.7521 54.8894 14.1361 54.6814 13.4161C54.4734 12.6961 54.3694 11.8801 54.3694 10.9681C54.3694 9.16006 54.8734 7.72806 55.8814 6.67206C56.8894 5.61606 58.4334 5.08806 60.5134 5.08806C61.7294 5.08806 62.7134 5.25606 63.4654 5.59206C64.2334 5.92806 64.8174 6.37606 65.2174 6.93606C65.6174 7.49606 65.8894 8.12006 66.0334 8.80806C66.1934 9.48006 66.2734 10.1601 66.2734 10.8481V11.9761C66.2734 11.9281 66.0494 11.8801 65.6014 11.8321C65.1694 11.7681 64.4334 11.7361 63.3934 11.7361H57.8254C57.8254 12.6161 58.0894 13.2801 58.6174 13.7281C59.1614 14.1601 60.0414 14.3761 61.2574 14.3761C62.2814 14.3761 63.1934 14.2561 63.9934 14.0161C64.8094 13.7601 65.4014 13.5201 65.7694 13.2961V14.0161L66.0094 15.8401C65.7054 16.0481 65.1214 16.2641 64.2574 16.4881C63.3934 16.6961 62.2734 16.8001 60.8974 16.8001ZM58.7134 9.67206H62.8654C62.8654 9.32006 62.7854 8.97606 62.6254 8.64006C62.4814 8.30406 62.2414 8.03206 61.9054 7.82406C61.5694 7.60006 61.1054 7.48806 60.5134 7.48806C59.9214 7.48806 59.4414 7.57606 59.0734 7.75206C58.7214 7.92806 58.4574 8.14406 58.2814 8.40006C58.1214 8.65606 58.0414 8.92006 58.0414 9.19206C58.0414 9.35206 58.0894 9.47206 58.1854 9.55206C58.2814 9.63206 58.4574 9.67206 58.7134 9.67206ZM74.3231 16.8001C72.8991 16.8001 71.6991 16.7201 70.7231 16.5601C69.7471 16.4001 69.0751 16.2401 68.7071 16.0801V15.3601L68.2031 13.0081C68.6191 13.3121 69.3951 13.6161 70.5311 13.9201C71.6671 14.2241 73.0591 14.3761 74.7071 14.3761C75.2031 14.3761 75.5951 14.3441 75.8831 14.2801C76.1871 14.2161 76.4031 14.1121 76.5311 13.9681C76.6591 13.8241 76.7231 13.6401 76.7231 13.4161C76.7231 13.1441 76.6191 12.9361 76.4111 12.7921C76.2191 12.6481 75.8671 12.5361 75.3551 12.4561C74.8431 12.3601 74.0991 12.2481 73.1231 12.1201C71.8911 11.9601 70.9151 11.7361 70.1951 11.4481C69.4751 11.1441 68.9631 10.7601 68.6591 10.2961C68.3711 9.81606 68.2271 9.23206 68.2271 8.54406C68.2271 7.90406 68.3791 7.32806 68.6831 6.81606C69.0031 6.28806 69.5471 5.87206 70.3151 5.56806C71.0991 5.24806 72.1871 5.08806 73.5791 5.08806C74.8911 5.08806 76.0431 5.16806 77.0351 5.32806C78.0271 5.48806 78.7391 5.64806 79.1711 5.80806V6.52806L79.6511 8.64006C79.2831 8.40006 78.5631 8.15206 77.4911 7.89606C76.4191 7.64006 75.0591 7.51206 73.4111 7.51206C72.7711 7.51206 72.3151 7.57606 72.0431 7.70406C71.7711 7.83206 71.6351 8.05606 71.6351 8.37606C71.6351 8.53606 71.6751 8.67206 71.7551 8.78406C71.8511 8.89606 72.0271 9.00006 72.2831 9.09606C72.5391 9.19206 72.9071 9.28806 73.3871 9.38406C73.8671 9.46406 74.4991 9.55206 75.2831 9.64806C76.6431 9.82406 77.6671 10.0721 78.3551 10.3921C79.0431 10.6961 79.5071 11.0801 79.7471 11.5441C79.9871 11.9921 80.1071 12.5361 80.1071 13.1761C80.1071 13.9921 79.8991 14.6721 79.4831 15.2161C79.0831 15.7441 78.4511 16.1441 77.5871 16.4161C76.7391 16.6721 75.6511 16.8001 74.3231 16.8001ZM92.3396 16.8001C91.2356 16.8001 90.4356 16.5681 89.9396 16.1041C89.4436 15.6241 89.1956 14.8481 89.1956 13.7761V7.72806H87.0356V5.32806C87.7716 5.32806 88.3476 5.24006 88.7636 5.06406C89.1796 4.87206 89.4756 4.54406 89.6516 4.08006C89.8276 3.61606 89.9156 2.96806 89.9156 2.13606H92.6036V5.32806H96.7076C96.5956 5.64806 96.4836 6.04806 96.3716 6.52806C96.2756 6.99206 96.2276 7.39206 96.2276 7.72806H92.6036V12.4561C92.6036 13.1921 92.6596 13.6961 92.7716 13.9681C92.8836 14.2401 93.1476 14.3761 93.5636 14.3761C93.8356 14.3761 94.1316 14.2801 94.4516 14.0881C94.7876 13.8961 95.1076 13.6641 95.4116 13.3921C95.7316 13.1041 95.9956 12.8321 96.2036 12.5761V13.3201L96.4436 15.6481C96.2516 15.8081 95.9636 15.9841 95.5796 16.1761C95.1956 16.3521 94.7236 16.4961 94.1636 16.6081C93.6196 16.7361 93.0116 16.8001 92.3396 16.8001ZM97.9944 16.5601C98.1064 16.5601 98.2104 16.4481 98.3064 16.2241C98.4184 16.0001 98.4744 15.6321 98.4744 15.1201V1.44006C98.4744 0.928057 98.4184 0.568058 98.3064 0.360058C98.2104 0.136058 98.1064 0.016058 97.9944 5.72205e-05H101.882V6.55206L101.834 6.86406L101.882 6.91206C101.93 6.80006 102.082 6.60006 102.338 6.31206C102.594 6.02406 102.962 5.75206 103.442 5.49606C103.922 5.22406 104.514 5.08806 105.218 5.08806C106.706 5.08806 107.842 5.51206 108.626 6.36006C109.426 7.20806 109.826 8.53606 109.826 10.3441V15.1201C109.826 15.6321 109.874 16.0001 109.97 16.2241C110.082 16.4481 110.194 16.5601 110.306 16.5601H105.938C106.05 16.5601 106.154 16.4481 106.25 16.2241C106.362 16.0001 106.418 15.6321 106.418 15.1201V10.4161C106.418 9.66406 106.338 9.08006 106.178 8.66406C106.018 8.23206 105.794 7.92806 105.506 7.75206C105.234 7.57606 104.914 7.48806 104.546 7.48806C104.098 7.48806 103.666 7.60006 103.25 7.82406C102.85 8.03206 102.522 8.36806 102.266 8.83206C102.01 9.28006 101.882 9.88006 101.882 10.6321V15.1201C101.882 15.6321 101.93 16.0001 102.026 16.2241C102.138 16.4481 102.25 16.5601 102.362 16.5601H97.9944ZM118.46 16.8001C117.196 16.8001 116.14 16.6721 115.292 16.4161C114.46 16.1441 113.796 15.7601 113.3 15.2641C112.804 14.7521 112.452 14.1361 112.244 13.4161C112.036 12.6961 111.932 11.8801 111.932 10.9681C111.932 9.16006 112.436 7.72806 113.444 6.67206C114.452 5.61606 115.996 5.08806 118.076 5.08806C119.292 5.08806 120.276 5.25606 121.028 5.59206C121.796 5.92806 122.38 6.37606 122.78 6.93606C123.18 7.49606 123.452 8.12006 123.596 8.80806C123.756 9.48006 123.836 10.1601 123.836 10.8481V11.9761C123.836 11.9281 123.612 11.8801 123.164 11.8321C122.732 11.7681 121.996 11.7361 120.956 11.7361H115.388C115.388 12.6161 115.652 13.2801 116.18 13.7281C116.724 14.1601 117.604 14.3761 118.82 14.3761C119.844 14.3761 120.756 14.2561 121.556 14.0161C122.372 13.7601 122.964 13.5201 123.332 13.2961V14.0161L123.572 15.8401C123.268 16.0481 122.684 16.2641 121.82 16.4881C120.956 16.6961 119.836 16.8001 118.46 16.8001ZM116.276 9.67206H120.428C120.428 9.32006 120.348 8.97606 120.188 8.64006C120.044 8.30406 119.804 8.03206 119.468 7.82406C119.132 7.60006 118.668 7.48806 118.076 7.48806C117.484 7.48806 117.004 7.57606 116.636 7.75206C116.284 7.92806 116.02 8.14406 115.844 8.40006C115.684 8.65606 115.604 8.92006 115.604 9.19206C115.604 9.35206 115.652 9.47206 115.748 9.55206C115.844 9.63206 116.02 9.67206 116.276 9.67206ZM125.862 16.5601C125.974 16.5601 126.078 16.4481 126.174 16.2241C126.286 16.0001 126.342 15.6321 126.342 15.1201V7.00806C126.342 6.49606 126.286 6.13606 126.174 5.92806C126.078 5.70406 125.974 5.58406 125.862 5.56806C126.566 5.56806 127.286 5.52006 128.022 5.42406C128.758 5.31206 129.334 5.20006 129.75 5.08806V6.55206L129.702 6.86406L129.75 6.91206C129.798 6.80006 129.95 6.60006 130.206 6.31206C130.462 6.02406 130.83 5.75206 131.31 5.49606C131.79 5.22406 132.382 5.08806 133.086 5.08806C134.574 5.08806 135.71 5.51206 136.494 6.36006C137.294 7.20806 137.694 8.53606 137.694 10.3441V15.1201C137.694 15.6321 137.742 16.0001 137.838 16.2241C137.95 16.4481 138.062 16.5601 138.174 16.5601H133.806C133.918 16.5601 134.022 16.4481 134.118 16.2241C134.23 16.0001 134.286 15.6321 134.286 15.1201V10.4161C134.286 9.66406 134.206 9.08006 134.046 8.66406C133.886 8.23206 133.662 7.92806 133.374 7.75206C133.102 7.57606 132.782 7.48806 132.414 7.48806C131.966 7.48806 131.534 7.60006 131.118 7.82406C130.718 8.03206 130.39 8.36806 130.134 8.83206C129.878 9.28006 129.75 9.88006 129.75 10.6321V15.1201C129.75 15.6321 129.798 16.0001 129.894 16.2241C130.006 16.4481 130.118 16.5601 130.23 16.5601H125.862ZM141.726 16.5601C141.838 16.5441 141.942 16.4241 142.038 16.2001C142.15 15.9761 142.206 15.6161 142.206 15.1201V10.6321C142.206 9.99206 142.142 9.44006 142.014 8.97606C141.902 8.49606 141.71 8.12806 141.438 7.87206C141.166 7.61606 140.798 7.48806 140.334 7.48806C139.55 7.48806 138.91 7.76806 138.414 8.32806C137.934 8.88806 137.694 9.73606 137.694 10.8721H135.942C135.942 10.1041 136.062 9.37606 136.302 8.68806C136.542 7.98406 136.886 7.36806 137.334 6.84006C137.782 6.29606 138.318 5.87206 138.942 5.56806C139.566 5.24806 140.254 5.08806 141.006 5.08806C141.966 5.08806 142.79 5.26406 143.478 5.61606C144.166 5.95206 144.694 6.52006 145.062 7.32006C145.43 8.12006 145.614 9.20806 145.614 10.5841V15.1201C145.614 15.6161 145.662 15.9761 145.758 16.2001C145.87 16.4241 145.982 16.5441 146.094 16.5601H141.726ZM154.249 16.8001C152.985 16.8001 151.929 16.6721 151.081 16.4161C150.249 16.1441 149.585 15.7601 149.089 15.2641C148.593 14.7521 148.241 14.1361 148.033 13.4161C147.825 12.6961 147.721 11.8801 147.721 10.9681C147.721 9.16006 148.225 7.72806 149.233 6.67206C150.241 5.61606 151.785 5.08806 153.865 5.08806C155.081 5.08806 156.065 5.25606 156.817 5.59206C157.585 5.92806 158.169 6.37606 158.569 6.93606C158.969 7.49606 159.241 8.12006 159.385 8.80806C159.545 9.48006 159.625 10.1601 159.625 10.8481V11.9761C159.625 11.9281 159.401 11.8801 158.953 11.8321C158.521 11.7681 157.785 11.7361 156.745 11.7361H151.177C151.177 12.6161 151.441 13.2801 151.969 13.7281C152.513 14.1601 153.393 14.3761 154.609 14.3761C155.633 14.3761 156.545 14.2561 157.345 14.0161C158.161 13.7601 158.753 13.5201 159.121 13.2961V14.0161L159.361 15.8401C159.057 16.0481 158.473 16.2641 157.609 16.4881C156.745 16.6961 155.625 16.8001 154.249 16.8001ZM152.065 9.67206H156.217C156.217 9.32006 156.137 8.97606 155.977 8.64006C155.833 8.30406 155.593 8.03206 155.257 7.82406C154.921 7.60006 154.457 7.48806 153.865 7.48806C153.273 7.48806 152.793 7.57606 152.425 7.75206C152.073 7.92806 151.809 8.14406 151.633 8.40006C151.473 8.65606 151.393 8.92006 151.393 9.19206C151.393 9.35206 151.441 9.47206 151.537 9.55206C151.633 9.63206 151.809 9.67206 152.065 9.67206ZM173.584 16.8001C171.92 16.8001 170.608 16.5441 169.648 16.0321C168.704 15.5201 168.04 14.8241 167.656 13.9441C167.272 13.0641 167.08 12.0721 167.08 10.9681C167.08 9.01606 167.608 7.55206 168.664 6.57606C169.736 5.60006 171.296 5.11206 173.344 5.11206C174.416 5.11206 175.392 5.19206 176.272 5.35206C177.168 5.51206 177.824 5.66406 178.24 5.80806V6.52806L178.72 9.09606C178.368 8.76006 177.728 8.41606 176.8 8.06406C175.888 7.69606 174.792 7.51206 173.512 7.51206C172.824 7.51206 172.248 7.64006 171.784 7.89606C171.336 8.13606 171 8.51206 170.776 9.02406C170.568 9.53606 170.464 10.1921 170.464 10.9921C170.464 11.7761 170.584 12.4161 170.824 12.9121C171.064 13.4081 171.456 13.7681 172 13.9921C172.544 14.2161 173.264 14.3281 174.16 14.3281C175.296 14.3281 176.232 14.1841 176.968 13.8961C177.72 13.5921 178.224 13.2961 178.48 13.0081V13.7281L178.72 15.6481C178.416 15.9041 177.816 16.1601 176.92 16.4161C176.04 16.6721 174.928 16.8001 173.584 16.8001ZM185.361 16.8001C183.921 16.8001 182.769 16.5201 181.905 15.9601C181.057 15.3841 180.633 14.4641 180.633 13.2001C180.633 12.3201 180.857 11.6081 181.305 11.0641C181.753 10.5201 182.361 10.1201 183.129 9.86406C183.913 9.59206 184.801 9.45606 185.793 9.45606C186.529 9.45606 187.153 9.52006 187.665 9.64806C188.193 9.77606 188.617 9.91206 188.937 10.0561C189.257 10.2001 189.465 10.3041 189.561 10.3681C189.561 9.69606 189.489 9.15206 189.345 8.73606C189.201 8.30406 188.937 7.99206 188.553 7.80006C188.185 7.59206 187.665 7.48806 186.993 7.48806C186.017 7.48806 185.153 7.58406 184.401 7.77606C183.649 7.96806 183.033 8.19206 182.553 8.44806C182.089 8.70406 181.769 8.92006 181.593 9.09606V8.37606L181.353 6.02406C181.465 5.96006 181.761 5.85606 182.241 5.71206C182.721 5.56806 183.377 5.43206 184.209 5.30406C185.041 5.16006 186.033 5.08806 187.185 5.08806C188.769 5.08806 189.977 5.32006 190.809 5.78406C191.641 6.23206 192.209 6.88006 192.513 7.72806C192.833 8.57606 192.993 9.60006 192.993 10.8001V15.1201C192.993 15.5681 193.041 15.8961 193.137 16.1041C193.249 16.2961 193.361 16.4481 193.473 16.5601H189.585V16.0561L189.633 15.6001L189.585 15.5521C189.457 15.6961 189.273 15.8401 189.033 15.9841C188.793 16.1281 188.497 16.2641 188.145 16.3921C187.793 16.5041 187.385 16.6001 186.921 16.6801C186.457 16.7601 185.937 16.8001 185.361 16.8001ZM186.489 14.3761C187.161 14.3761 187.721 14.3281 188.169 14.2321C188.633 14.1201 188.985 13.9761 189.225 13.8001C189.465 13.6081 189.585 13.3841 189.585 13.1281C189.585 12.7601 189.305 12.4561 188.745 12.2161C188.201 11.9761 187.457 11.8561 186.513 11.8561C185.601 11.8561 184.953 11.9841 184.569 12.2401C184.201 12.4961 184.017 12.8161 184.017 13.2001C184.017 13.6801 184.233 14.0001 184.665 14.1601C185.097 14.3041 185.705 14.3761 186.489 14.3761ZM195.448 16.5601C195.56 16.5601 195.664 16.4481 195.76 16.2241C195.872 16.0001 195.928 15.6321 195.928 15.1201V7.00806C195.928 6.49606 195.872 6.13606 195.76 5.92806C195.664 5.70406 195.56 5.58406 195.448 5.56806C196.152 5.56806 196.872 5.52006 197.608 5.42406C198.344 5.31206 198.92 5.20006 199.336 5.08806V6.04806L199.288 6.45606L199.336 6.50406C199.448 6.32806 199.624 6.13606 199.864 5.92806C200.12 5.70406 200.44 5.51206 200.824 5.35206C201.224 5.17606 201.688 5.08806 202.216 5.08806C203 5.08806 203.696 5.20006 204.304 5.42406C204.912 5.63206 205.344 5.84806 205.6 6.07206L204.88 9.28806V10.0081C204.64 9.67206 204.312 9.32806 203.896 8.97606C203.496 8.62406 203.048 8.32806 202.552 8.08806C202.072 7.84806 201.576 7.72806 201.064 7.72806C200.488 7.72806 200.056 7.93606 199.768 8.35206C199.48 8.76806 199.336 9.42406 199.336 10.3201V15.1201C199.336 15.6321 199.384 16.0001 199.48 16.2241C199.592 16.4481 199.704 16.5601 199.816 16.5601H195.448ZM211.624 16.8001C210.2 16.8001 209.08 16.5441 208.264 16.0321C207.464 15.5201 206.896 14.8241 206.56 13.9441C206.24 13.0641 206.08 12.0721 206.08 10.9681C206.08 9.84806 206.24 8.84806 206.56 7.96806C206.896 7.08806 207.464 6.39206 208.264 5.88006C209.08 5.35206 210.2 5.08806 211.624 5.08806C212.104 5.08806 212.536 5.12806 212.92 5.20806C213.32 5.28806 213.672 5.40006 213.976 5.54406C214.296 5.67206 214.576 5.84006 214.816 6.04806L214.864 6.02406L214.816 5.56806V1.44006C214.816 0.928057 214.76 0.568058 214.648 0.360058C214.552 0.136058 214.448 0.016058 214.336 5.72205e-05H218.224V15.1201C218.224 15.6321 218.272 16.0001 218.368 16.2241C218.48 16.4481 218.592 16.5601 218.704 16.5601H214.816V16.2481L214.888 15.7921L214.816 15.7681C214.576 15.9761 214.296 16.1601 213.976 16.3201C213.656 16.4641 213.296 16.5761 212.896 16.6561C212.512 16.7521 212.088 16.8001 211.624 16.8001ZM212.032 14.3761C212.56 14.3761 213 14.2961 213.352 14.1361C213.72 13.9761 214.008 13.7521 214.216 13.4641C214.44 13.1601 214.592 12.8001 214.672 12.3841C214.768 11.9521 214.816 11.4801 214.816 10.9681C214.816 10.4561 214.768 9.99206 214.672 9.57606C214.576 9.14406 214.424 8.77606 214.216 8.47206C214.008 8.15206 213.72 7.91206 213.352 7.75206C213 7.57606 212.56 7.48806 212.032 7.48806C211.264 7.48806 210.64 7.75206 210.16 8.28006C209.696 8.80806 209.464 9.71206 209.464 10.9921C209.464 11.8401 209.568 12.5121 209.776 13.0081C209.984 13.5041 210.28 13.8561 210.664 14.0641C211.048 14.2721 211.504 14.3761 212.032 14.3761ZM226.995 16.8001C225.571 16.8001 224.371 16.7201 223.395 16.5601C222.419 16.4001 221.747 16.2401 221.379 16.0801V15.3601L220.875 13.0081C221.291 13.3121 222.067 13.6161 223.203 13.9201C224.339 14.2241 225.731 14.3761 227.379 14.3761C227.875 14.3761 228.267 14.3441 228.555 14.2801C228.859 14.2161 229.075 14.1121 229.203 13.9681C229.331 13.8241 229.395 13.6401 229.395 13.4161C229.395 13.1441 229.291 12.9361 229.083 12.7921C228.891 12.6481 228.539 12.5361 228.027 12.4561C227.515 12.3601 226.771 12.2481 225.795 12.1201C224.563 11.9601 223.587 11.7361 222.867 11.4481C222.147 11.1441 221.635 10.7601 221.331 10.2961C221.043 9.81606 220.899 9.23206 220.899 8.54406C220.899 7.90406 221.051 7.32806 221.355 6.81606C221.675 6.28806 222.219 5.87206 222.987 5.56806C223.771 5.24806 224.859 5.08806 226.251 5.08806C227.563 5.08806 228.715 5.16806 229.707 5.32806C230.699 5.48806 231.411 5.64806 231.843 5.80806V6.52806L232.323 8.64006C231.955 8.40006 231.235 8.15206 230.163 7.89606C229.091 7.64006 227.731 7.51206 226.083 7.51206C225.443 7.51206 224.987 7.57606 224.715 7.70406C224.443 7.83206 224.307 8.05606 224.307 8.37606C224.307 8.53606 224.347 8.67206 224.427 8.78406C224.523 8.89606 224.699 9.00006 224.955 9.09606C225.211 9.19206 225.579 9.28806 226.059 9.38406C226.539 9.46406 227.171 9.55206 227.955 9.64806C229.315 9.82406 230.339 10.0721 231.027 10.3921C231.715 10.6961 232.179 11.0801 232.419 11.5441C232.659 11.9921 232.779 12.5361 232.779 13.1761C232.779 13.9921 232.571 14.6721 232.155 15.2161C231.755 15.7441 231.123 16.1441 230.259 16.4161C229.411 16.6721 228.323 16.8001 226.995 16.8001Z" fill="black"/>
</svg>
