<svg width="160" height="22" viewBox="0 0 160 22" fill="none" xmlns="http://www.w3.org/2000/svg">
<path d="M0.0239879 16.5601C0.135988 16.5601 0.239988 16.4481 0.335988 16.2241C0.447988 16.0001 0.503988 15.6321 0.503988 15.1201V3.60006C0.503988 3.08806 0.447988 2.72806 0.335988 2.52006C0.223988 2.29606 0.111988 2.17606 -1.21891e-05 2.16006H7.87199C9.23199 2.16006 10.328 2.36006 11.16 2.76006C12.008 3.14406 12.632 3.70406 13.032 4.44006C13.432 5.16006 13.632 6.02406 13.632 7.03206C13.632 8.05606 13.432 8.94406 13.032 9.69606C12.632 10.4321 12.008 11.0001 11.16 11.4001C10.328 11.7841 9.23199 11.9761 7.87199 11.9761H4.19999V15.1201C4.19999 15.6321 4.25599 16.0001 4.36799 16.2241C4.47999 16.4481 4.59199 16.5601 4.70399 16.5601H0.0239879ZM5.18399 9.33606H6.38399C7.32799 9.33606 8.05599 9.25606 8.56799 9.09606C9.09599 8.93606 9.46399 8.68806 9.67199 8.35206C9.87999 8.01606 9.98399 7.57606 9.98399 7.03206C9.98399 6.50406 9.87199 6.08006 9.64799 5.76006C9.43999 5.44006 9.08799 5.21606 8.59199 5.08806C8.11199 4.94406 7.45599 4.87206 6.62399 4.87206H5.18399C4.68799 4.87206 4.39999 4.90406 4.31999 4.96806C4.23999 5.01606 4.19999 5.20006 4.19999 5.52006V8.66406C4.19999 8.98406 4.23999 9.17606 4.31999 9.24006C4.39999 9.30406 4.68799 9.33606 5.18399 9.33606ZM21.3917 16.8001C19.7917 16.8001 18.5357 16.5441 17.6237 16.0321C16.7277 15.5201 16.0957 14.8241 15.7277 13.9441C15.3757 13.0641 15.1997 12.0721 15.1997 10.9681C15.1997 9.84806 15.3837 8.84806 15.7517 7.96806C16.1357 7.08806 16.7757 6.39206 17.6717 5.88006C18.5677 5.35206 19.8077 5.08806 21.3917 5.08806C22.9757 5.08806 24.2157 5.35206 25.1117 5.88006C26.0077 6.39206 26.6397 7.08806 27.0077 7.96806C27.3917 8.84806 27.5837 9.84806 27.5837 10.9681C27.5837 12.0721 27.3997 13.0641 27.0317 13.9441C26.6797 14.8241 26.0557 15.5201 25.1597 16.0321C24.2637 16.5441 23.0077 16.8001 21.3917 16.8001ZM21.3917 14.3761C22.0637 14.3761 22.5997 14.2801 22.9997 14.0881C23.4157 13.8801 23.7117 13.5281 23.8877 13.0321C24.0797 12.5361 24.1757 11.8481 24.1757 10.9681C24.1757 10.0881 24.0797 9.40006 23.8877 8.90406C23.7117 8.39206 23.4157 8.03206 22.9997 7.82406C22.5997 7.60006 22.0637 7.48806 21.3917 7.48806C20.7197 7.48806 20.1757 7.60006 19.7597 7.82406C19.3597 8.04806 19.0637 8.41606 18.8717 8.92806C18.6957 9.44006 18.6077 10.1281 18.6077 10.9921C18.6077 11.8401 18.6957 12.5121 18.8717 13.0081C19.0637 13.5041 19.3597 13.8561 19.7597 14.0641C20.1757 14.2721 20.7197 14.3761 21.3917 14.3761ZM29.3638 21.8881C29.4758 21.8881 29.5798 21.7761 29.6758 21.5521C29.7878 21.3281 29.8438 20.9601 29.8438 20.4481V6.76806C29.8438 6.25606 29.7878 5.89606 29.6758 5.68806C29.5798 5.46406 29.4758 5.34406 29.3638 5.32806H33.2518V5.52006L33.2038 5.97606L33.2518 6.00006C33.4118 5.85606 33.6438 5.72006 33.9478 5.59206C34.2678 5.44806 34.6278 5.32806 35.0278 5.23206C35.4438 5.13606 35.8598 5.08806 36.2758 5.08806C37.7638 5.08806 38.9158 5.35206 39.7318 5.88006C40.5638 6.39206 41.1478 7.08806 41.4838 7.96806C41.8198 8.84806 41.9878 9.84806 41.9878 10.9681C41.9878 12.0721 41.8198 13.0641 41.4838 13.9441C41.1638 14.8241 40.5878 15.5201 39.7558 16.0321C38.9398 16.5441 37.7798 16.8001 36.2758 16.8001C35.6518 16.8001 35.0678 16.7201 34.5238 16.5601C33.9958 16.4161 33.5718 16.2001 33.2518 15.9121L33.2038 15.9361L33.2518 16.4161V20.4481C33.2518 20.9601 33.2998 21.3281 33.3958 21.5521C33.5078 21.7761 33.6198 21.8881 33.7318 21.8881H29.3638ZM35.7958 14.3761C36.4678 14.3761 37.0038 14.2801 37.4038 14.0881C37.8198 13.8801 38.1158 13.5281 38.2918 13.0321C38.4838 12.5361 38.5798 11.8481 38.5798 10.9681C38.5798 10.0881 38.4838 9.40006 38.2918 8.90406C38.1158 8.39206 37.8198 8.03206 37.4038 7.82406C37.0038 7.60006 36.4678 7.48806 35.7958 7.48806C35.2678 7.48806 34.8118 7.61606 34.4278 7.87206C34.0438 8.11206 33.7478 8.48806 33.5398 9.00006C33.3478 9.51206 33.2518 10.1761 33.2518 10.9921C33.2518 11.8241 33.3558 12.4881 33.5638 12.9841C33.7718 13.4801 34.0598 13.8401 34.4278 14.0641C34.8118 14.2721 35.2678 14.3761 35.7958 14.3761ZM54.3681 16.8001C53.4401 16.8001 52.6481 16.6401 51.9921 16.3201C51.3361 15.9841 50.8401 15.4161 50.5041 14.6161C50.1681 13.8001 50.0001 12.6721 50.0001 11.2321V6.76806C50.0001 6.25606 49.9441 5.88806 49.8321 5.66406C49.7361 5.44006 49.6321 5.32806 49.5201 5.32806H53.9361C53.8241 5.32806 53.7041 5.44006 53.5761 5.66406C53.4641 5.88806 53.4081 6.25606 53.4081 6.76806V11.5681C53.4081 12.5761 53.5921 13.2961 53.9601 13.7281C54.3441 14.1601 54.7841 14.3761 55.2801 14.3761C55.9841 14.3761 56.5281 14.2161 56.9121 13.8961C57.2961 13.5601 57.5681 13.1281 57.7281 12.6001C57.8881 12.0561 57.9681 11.4881 57.9681 10.8961V6.76806C57.9681 6.25606 57.9121 5.89606 57.8001 5.68806C57.7041 5.46406 57.6001 5.34406 57.4881 5.32806H61.3761V15.1201C61.3761 15.6321 61.4241 16.0001 61.5201 16.2241C61.6321 16.4481 61.7441 16.5601 61.8561 16.5601H57.9681V15.6241L58.0161 15.1441L57.9681 15.0961C57.8081 15.3361 57.6081 15.5601 57.3681 15.7681C57.1281 15.9761 56.8561 16.1601 56.5521 16.3201C56.2481 16.4641 55.9121 16.5761 55.5441 16.6561C55.1761 16.7521 54.7841 16.8001 54.3681 16.8001ZM63.8169 21.8881C63.9289 21.8881 64.0329 21.7761 64.1289 21.5521C64.2409 21.3281 64.2969 20.9601 64.2969 20.4481V6.76806C64.2969 6.25606 64.2409 5.89606 64.1289 5.68806C64.0329 5.46406 63.9289 5.34406 63.8169 5.32806H67.7049V5.52006L67.6569 5.97606L67.7049 6.00006C67.8649 5.85606 68.0969 5.72006 68.4009 5.59206C68.7209 5.44806 69.0809 5.32806 69.4809 5.23206C69.8969 5.13606 70.3129 5.08806 70.7289 5.08806C72.2169 5.08806 73.3689 5.35206 74.1849 5.88006C75.0169 6.39206 75.6009 7.08806 75.9369 7.96806C76.2729 8.84806 76.4409 9.84806 76.4409 10.9681C76.4409 12.0721 76.2729 13.0641 75.9369 13.9441C75.6169 14.8241 75.0409 15.5201 74.2089 16.0321C73.3929 16.5441 72.2329 16.8001 70.7289 16.8001C70.1049 16.8001 69.5209 16.7201 68.9769 16.5601C68.4489 16.4161 68.0249 16.2001 67.7049 15.9121L67.6569 15.9361L67.7049 16.4161V20.4481C67.7049 20.9601 67.7529 21.3281 67.8489 21.5521C67.9609 21.7761 68.0729 21.8881 68.1849 21.8881H63.8169ZM70.2489 14.3761C70.9209 14.3761 71.4569 14.2801 71.8569 14.0881C72.2729 13.8801 72.5689 13.5281 72.7449 13.0321C72.9369 12.5361 73.0329 11.8481 73.0329 10.9681C73.0329 10.0881 72.9369 9.40006 72.7449 8.90406C72.5689 8.39206 72.2729 8.03206 71.8569 7.82406C71.4569 7.60006 70.9209 7.48806 70.2489 7.48806C69.7209 7.48806 69.2649 7.61606 68.8809 7.87206C68.4969 8.11206 68.2009 8.48806 67.9929 9.00006C67.8009 9.51206 67.7049 10.1761 67.7049 10.9921C67.7049 11.8241 67.8089 12.4881 68.0169 12.9841C68.2249 13.4801 68.5129 13.8401 68.8809 14.0641C69.2649 14.2721 69.7209 14.3761 70.2489 14.3761ZM90.8852 16.8001C90.2612 16.8001 89.6772 16.7201 89.1332 16.5601C88.6052 16.4161 88.1812 16.2001 87.8612 15.9121L87.8132 15.9601L87.8612 16.4161V16.5601H83.9732C84.0852 16.5601 84.1892 16.4481 84.2852 16.2241C84.3972 16.0001 84.4532 15.6321 84.4532 15.1201V1.44006C84.4532 0.928057 84.3972 0.568058 84.2852 0.360058C84.1892 0.136058 84.0852 0.016058 83.9732 5.72205e-05H87.8612V5.52006L87.8132 5.97606L87.8612 6.00006C88.0212 5.85606 88.2532 5.72006 88.5572 5.59206C88.8772 5.44806 89.2372 5.32806 89.6372 5.23206C90.0532 5.13606 90.4692 5.08806 90.8852 5.08806C92.3732 5.08806 93.5252 5.35206 94.3412 5.88006C95.1732 6.39206 95.7572 7.08806 96.0932 7.96806C96.4292 8.84806 96.5972 9.84806 96.5972 10.9681C96.5972 12.0721 96.4292 13.0641 96.0932 13.9441C95.7732 14.8241 95.1972 15.5201 94.3652 16.0321C93.5492 16.5441 92.3892 16.8001 90.8852 16.8001ZM90.4052 14.3761C91.0772 14.3761 91.6132 14.2801 92.0132 14.0881C92.4292 13.8801 92.7252 13.5281 92.9012 13.0321C93.0932 12.5361 93.1892 11.8481 93.1892 10.9681C93.1892 10.0881 93.0932 9.40006 92.9012 8.90406C92.7252 8.39206 92.4292 8.03206 92.0132 7.82406C91.6132 7.60006 91.0772 7.48806 90.4052 7.48806C89.8772 7.48806 89.4212 7.61606 89.0372 7.87206C88.6532 8.11206 88.3572 8.48806 88.1492 9.00006C87.9572 9.51206 87.8612 10.1761 87.8612 10.9921C87.8612 12.2401 88.0852 13.1201 88.5332 13.6321C88.9972 14.1281 89.6212 14.3761 90.4052 14.3761ZM103.212 16.8001C102.284 16.8001 101.492 16.6401 100.836 16.3201C100.18 15.9841 99.6838 15.4161 99.3478 14.6161C99.0118 13.8001 98.8438 12.6721 98.8438 11.2321V6.76806C98.8438 6.25606 98.7878 5.88806 98.6758 5.66406C98.5798 5.44006 98.4758 5.32806 98.3638 5.32806H102.78C102.668 5.32806 102.548 5.44006 102.42 5.66406C102.308 5.88806 102.252 6.25606 102.252 6.76806V11.5681C102.252 12.5761 102.436 13.2961 102.804 13.7281C103.188 14.1601 103.628 14.3761 104.124 14.3761C104.828 14.3761 105.372 14.2161 105.756 13.8961C106.14 13.5601 106.412 13.1281 106.572 12.6001C106.732 12.0561 106.812 11.4881 106.812 10.8961V6.76806C106.812 6.25606 106.756 5.89606 106.644 5.68806C106.548 5.46406 106.444 5.34406 106.332 5.32806H110.22V15.1201C110.22 15.6321 110.268 16.0001 110.364 16.2241C110.476 16.4481 110.588 16.5601 110.7 16.5601H106.812V15.6241L106.86 15.1441L106.812 15.0961C106.652 15.3361 106.452 15.5601 106.212 15.7681C105.972 15.9761 105.7 16.1601 105.396 16.3201C105.092 16.4641 104.756 16.5761 104.388 16.6561C104.02 16.7521 103.628 16.8001 103.212 16.8001ZM117.389 16.8001C116.285 16.8001 115.485 16.5681 114.989 16.1041C114.493 15.6241 114.245 14.8481 114.245 13.7761V7.72806H112.085V5.32806C112.821 5.32806 113.397 5.24006 113.813 5.06406C114.229 4.87206 114.525 4.54406 114.701 4.08006C114.877 3.61606 114.965 2.96806 114.965 2.13606H117.653V5.32806H121.757C121.645 5.64806 121.533 6.04806 121.421 6.52806C121.325 6.99206 121.277 7.39206 121.277 7.72806H117.653V12.4561C117.653 13.1921 117.709 13.6961 117.821 13.9681C117.933 14.2401 118.197 14.3761 118.613 14.3761C118.885 14.3761 119.181 14.2801 119.501 14.0881C119.837 13.8961 120.157 13.6641 120.461 13.3921C120.781 13.1041 121.045 12.8321 121.253 12.5761V13.3201L121.493 15.6481C121.301 15.8081 121.013 15.9841 120.629 16.1761C120.245 16.3521 119.773 16.4961 119.213 16.6081C118.669 16.7361 118.061 16.8001 117.389 16.8001ZM127.771 16.8001C126.667 16.8001 125.867 16.5681 125.371 16.1041C124.875 15.6241 124.627 14.8481 124.627 13.7761V7.72806H122.467V5.32806C123.203 5.32806 123.779 5.24006 124.195 5.06406C124.611 4.87206 124.907 4.54406 125.083 4.08006C125.259 3.61606 125.347 2.96806 125.347 2.13606H128.035V5.32806H132.139C132.027 5.64806 131.915 6.04806 131.803 6.52806C131.707 6.99206 131.659 7.39206 131.659 7.72806H128.035V12.4561C128.035 13.1921 128.091 13.6961 128.203 13.9681C128.315 14.2401 128.579 14.3761 128.995 14.3761C129.267 14.3761 129.563 14.2801 129.883 14.0881C130.219 13.8961 130.539 13.6641 130.843 13.3921C131.163 13.1041 131.427 12.8321 131.635 12.5761V13.3201L131.875 15.6481C131.683 15.8081 131.395 15.9841 131.011 16.1761C130.627 16.3521 130.155 16.4961 129.595 16.6081C129.051 16.7361 128.443 16.8001 127.771 16.8001ZM139.282 16.8001C137.682 16.8001 136.426 16.5441 135.514 16.0321C134.618 15.5201 133.986 14.8241 133.618 13.9441C133.266 13.0641 133.09 12.0721 133.09 10.9681C133.09 9.84806 133.274 8.84806 133.642 7.96806C134.026 7.08806 134.666 6.39206 135.562 5.88006C136.458 5.35206 137.698 5.08806 139.282 5.08806C140.866 5.08806 142.106 5.35206 143.002 5.88006C143.898 6.39206 144.53 7.08806 144.898 7.96806C145.282 8.84806 145.474 9.84806 145.474 10.9681C145.474 12.0721 145.29 13.0641 144.922 13.9441C144.57 14.8241 143.946 15.5201 143.05 16.0321C142.154 16.5441 140.898 16.8001 139.282 16.8001ZM139.282 14.3761C139.954 14.3761 140.49 14.2801 140.89 14.0881C141.306 13.8801 141.602 13.5281 141.778 13.0321C141.97 12.5361 142.066 11.8481 142.066 10.9681C142.066 10.0881 141.97 9.40006 141.778 8.90406C141.602 8.39206 141.306 8.03206 140.89 7.82406C140.49 7.60006 139.954 7.48806 139.282 7.48806C138.61 7.48806 138.066 7.60006 137.65 7.82406C137.25 8.04806 136.954 8.41606 136.762 8.92806C136.586 9.44006 136.498 10.1281 136.498 10.9921C136.498 11.8401 136.586 12.5121 136.762 13.0081C136.954 13.5041 137.25 13.8561 137.65 14.0641C138.066 14.2721 138.61 14.3761 139.282 14.3761ZM147.254 16.5601C147.366 16.5601 147.47 16.4481 147.566 16.2241C147.678 16.0001 147.734 15.6321 147.734 15.1201V7.00806C147.734 6.49606 147.678 6.13606 147.566 5.92806C147.47 5.70406 147.366 5.58406 147.254 5.56806C147.958 5.56806 148.678 5.52006 149.414 5.42406C150.15 5.31206 150.726 5.20006 151.142 5.08806V6.55206L151.094 6.86406L151.142 6.91206C151.19 6.80006 151.342 6.60006 151.598 6.31206C151.854 6.02406 152.222 5.75206 152.702 5.49606C153.182 5.22406 153.774 5.08806 154.478 5.08806C155.966 5.08806 157.102 5.51206 157.886 6.36006C158.686 7.20806 159.086 8.53606 159.086 10.3441V15.1201C159.086 15.6321 159.134 16.0001 159.23 16.2241C159.342 16.4481 159.454 16.5601 159.566 16.5601H155.198C155.31 16.5601 155.414 16.4481 155.51 16.2241C155.622 16.0001 155.678 15.6321 155.678 15.1201V10.4161C155.678 9.66406 155.598 9.08006 155.438 8.66406C155.278 8.23206 155.054 7.92806 154.766 7.75206C154.494 7.57606 154.174 7.48806 153.806 7.48806C153.358 7.48806 152.926 7.60006 152.51 7.82406C152.11 8.03206 151.782 8.36806 151.526 8.83206C151.27 9.28006 151.142 9.88006 151.142 10.6321V15.1201C151.142 15.6321 151.19 16.0001 151.286 16.2241C151.398 16.4481 151.51 16.5601 151.622 16.5601H147.254Z" fill="black"/>
</svg>
