<svg width="10" height="12" viewBox="0 0 10 12" fill="none" xmlns="http://www.w3.org/2000/svg">
<path d="M1.25 12C0.90625 12 0.611979 11.8825 0.367188 11.6475C0.122396 11.4125 0 11.13 0 10.8V9.615C0 9.415 0.046875 9.23 0.140625 9.06C0.234375 8.89 0.359375 8.745 0.515625 8.625C1.23438 8.065 1.77344 7.5 2.13281 6.93C2.49219 6.36 2.74479 5.85 2.89062 5.4H1.875C1.69792 5.4 1.54948 5.3425 1.42969 5.2275C1.3099 5.1125 1.25 4.97 1.25 4.8C1.25 4.63 1.3099 4.4875 1.42969 4.3725C1.54948 4.2575 1.69792 4.2 1.875 4.2H2.65625C2.51042 3.98 2.39583 3.745 2.3125 3.495C2.22917 3.245 2.1875 2.98 2.1875 2.7C2.1875 1.95 2.46094 1.3125 3.00781 0.7875C3.55469 0.2625 4.21875 0 5 0C5.78125 0 6.44531 0.2625 6.99219 0.7875C7.53906 1.3125 7.8125 1.95 7.8125 2.7C7.8125 2.98 7.77083 3.245 7.6875 3.495C7.60417 3.745 7.48958 3.98 7.34375 4.2H8.125C8.30208 4.2 8.45052 4.2575 8.57031 4.3725C8.6901 4.4875 8.75 4.63 8.75 4.8C8.75 4.97 8.6901 5.1125 8.57031 5.2275C8.45052 5.3425 8.30208 5.4 8.125 5.4H7.10938C7.25521 5.85 7.50781 6.36 7.86719 6.93C8.22656 7.5 8.76562 8.065 9.48438 8.625C9.64062 8.745 9.76562 8.89 9.85938 9.06C9.95312 9.23 10 9.415 10 9.615V10.8C10 11.13 9.8776 11.4125 9.63281 11.6475C9.38802 11.8825 9.09375 12 8.75 12H1.25ZM1.25 10.8H8.75V9.6C7.79167 8.88 7.09896 8.1375 6.67188 7.3725C6.24479 6.6075 5.95833 5.95 5.8125 5.4H4.1875C4.04167 5.95 3.75521 6.6075 3.32813 7.3725C2.90104 8.1375 2.20833 8.88 1.25 9.6V10.8ZM5 4.2C5.4375 4.2 5.80729 4.055 6.10938 3.765C6.41146 3.475 6.5625 3.12 6.5625 2.7C6.5625 2.28 6.41146 1.925 6.10938 1.635C5.80729 1.345 5.4375 1.2 5 1.2C4.5625 1.2 4.19271 1.345 3.89062 1.635C3.58854 1.925 3.4375 2.28 3.4375 2.7C3.4375 3.12 3.58854 3.475 3.89062 3.765C4.19271 4.055 4.5625 4.2 5 4.2Z" fill="#EA6900"/>
</svg>
