<svg width="20" height="20" viewBox="0 0 20 20" fill="none" xmlns="http://www.w3.org/2000/svg">
<path d="M10 20C7.2381 20 4.88095 19.0238 2.92857 17.0714C0.97619 15.119 0 12.7619 0 10C0 7.2381 0.97619 4.88095 2.92857 2.92857C4.88095 0.97619 7.2381 0 10 0C12.7619 0 15.119 0.97619 17.0714 2.92857C19.0238 4.88095 20 7.2381 20 10C20 12.7619 19.0238 15.119 17.0714 17.0714C15.119 19.0238 12.7619 20 10 20ZM10 17.1429C11.9762 17.1429 13.6607 16.4464 15.0536 15.0536C16.4464 13.6607 17.1429 11.9762 17.1429 10C17.1429 8.02381 16.4464 6.33929 15.0536 4.94643C13.6607 3.55357 11.9762 2.85714 10 2.85714C8.02381 2.85714 6.33929 3.55357 4.94643 4.94643C3.55357 6.33929 2.85714 8.02381 2.85714 10C2.85714 11.9762 3.55357 13.6607 4.94643 15.0536C6.33929 16.4464 8.02381 17.1429 10 17.1429Z" fill="#303131"/>
</svg>
