<svg width="177" height="66" viewBox="0 0 177 66" fill="none" xmlns="http://www.w3.org/2000/svg">
<path d="M11.5631 27.5311V23.2835C12.8479 23.2835 14.054 23.0475 15.1815 22.5755C16.3089 22.0773 17.2922 21.3956 18.1312 20.5304C18.9703 19.6651 19.6258 18.6556 20.0977 17.5019C20.5697 16.3482 20.8057 15.1028 20.8057 13.7656C20.8057 12.4283 20.5697 11.1829 20.0977 10.0292C19.6258 8.87551 18.9703 7.86604 18.1312 7.00077C17.2922 6.13551 16.3089 5.4669 15.1815 4.99493C14.054 4.49675 12.8479 4.24766 11.5631 4.24766V0C14.2637 0 16.6498 0.589953 18.7212 1.76986C20.8188 2.92354 22.4575 4.53608 23.6374 6.60747C24.8436 8.67886 25.4466 11.0649 25.4466 13.7656C25.4466 16.44 24.8436 18.8129 23.6374 20.8843C22.4575 22.9557 20.8188 24.5814 18.7212 25.7613C16.6498 26.9412 14.2637 27.5311 11.5631 27.5311ZM5.8602 27.5311V23.2835H11.5631V27.5311H5.8602ZM2.91043 27.5311V0H7.47273V27.5311H2.91043ZM5.8602 4.24766V0H11.5631V4.24766H5.8602Z" fill="white"/>
<path d="M37.6513 28.0031C35.7372 28.0031 34.0329 27.5705 32.5383 26.7052C31.0438 25.8137 29.877 24.5945 29.038 23.0475C28.1989 21.5005 27.7794 19.7175 27.7794 17.6986C27.7794 15.6796 28.212 13.8967 29.0773 12.3497C29.9426 10.8027 31.1225 9.59656 32.617 8.7313C34.1116 7.83982 35.8421 7.39408 37.8086 7.39408C39.5391 7.39408 41.1123 7.85293 42.5282 8.77063C43.9441 9.66212 45.0585 10.96 45.8713 12.6643C46.7103 14.3686 47.1298 16.4007 47.1298 18.7605H42.6855C42.7118 17.0562 42.5151 15.6534 42.0956 14.5522C41.7023 13.4509 41.1254 12.6381 40.3651 12.1137C39.6047 11.5631 38.7001 11.2878 37.6513 11.2878C36.55 11.2878 35.6061 11.5369 34.8195 12.035C34.0591 12.5332 33.4692 13.2674 33.0496 14.2375C32.6301 15.1815 32.4204 16.3745 32.4204 17.8166C32.4204 19.1014 32.6695 20.2026 33.1676 21.1203C33.6658 22.038 34.3344 22.746 35.1735 23.2441C36.0387 23.7161 36.9958 23.9521 38.0446 23.9521C39.1983 23.9521 40.1553 23.6899 40.9157 23.1655C41.6761 22.6149 42.266 21.92 42.6855 21.081L46.7365 22.8115C46.1859 23.8603 45.4911 24.778 44.652 25.5646C43.813 26.3512 42.8035 26.9543 41.6236 27.3738C40.4437 27.7933 39.1196 28.0031 37.6513 28.0031ZM30.6505 18.7605L30.6898 15.2601H44.8487V18.7605H30.6505Z" fill="white"/>
<path d="M55.5453 27.5311L63.2147 7.86604H67.777L59.6749 27.5311H55.5453ZM55.2306 27.5311L47.0893 7.86604H51.6123L59.321 27.5311H55.2306Z" fill="white"/>
<path d="M78.2121 28.0031C76.298 28.0031 74.5937 27.5705 73.0991 26.7052C71.6046 25.8137 70.4378 24.5945 69.5987 23.0475C68.7597 21.5005 68.3402 19.7175 68.3402 17.6986C68.3402 15.6796 68.7728 13.8967 69.6381 12.3497C70.5033 10.8027 71.6832 9.59656 73.1778 8.7313C74.6723 7.83982 76.4029 7.39408 78.3694 7.39408C80.0999 7.39408 81.6731 7.85293 83.089 8.77063C84.5049 9.66212 85.6192 10.96 86.4321 12.6643C87.2711 14.3686 87.6906 16.4007 87.6906 18.7605H83.2463C83.2725 17.0562 83.0759 15.6534 82.6564 14.5522C82.2631 13.4509 81.6862 12.6381 80.9258 12.1137C80.1655 11.5631 79.2609 11.2878 78.2121 11.2878C77.1108 11.2878 76.1669 11.5369 75.3803 12.035C74.6199 12.5332 74.0299 13.2674 73.6104 14.2375C73.1909 15.1815 72.9811 16.3745 72.9811 17.8166C72.9811 19.1014 73.2302 20.2026 73.7284 21.1203C74.2266 22.038 74.8952 22.746 75.7343 23.2441C76.5995 23.7161 77.5565 23.9521 78.6054 23.9521C79.759 23.9521 80.7161 23.6899 81.4765 23.1655C82.2368 22.6149 82.8268 21.92 83.2463 21.081L87.2973 22.8115C86.7467 23.8603 86.0519 24.778 85.2128 25.5646C84.3738 26.3512 83.3643 26.9543 82.1844 27.3738C81.0045 27.7933 79.6804 28.0031 78.2121 28.0031ZM71.2113 18.7605L71.2506 15.2601H85.4095V18.7605H71.2113Z" fill="white"/>
<path d="M90.5037 27.5311L90.543 0H94.948L94.9086 27.5311H90.5037Z" fill="white"/>
<path d="M108.372 28.0031C106.379 28.0031 104.609 27.5705 103.062 26.7052C101.541 25.8137 100.348 24.5945 99.4829 23.0475C98.6177 21.5005 98.185 19.7175 98.185 17.6986C98.185 15.6796 98.6045 13.8967 99.4436 12.3497C100.309 10.8027 101.502 9.59656 103.023 8.7313C104.57 7.83982 106.326 7.39408 108.293 7.39408C110.286 7.39408 112.042 7.83982 113.563 8.7313C115.084 9.59656 116.277 10.8027 117.142 12.3497C118.007 13.8967 118.44 15.6796 118.44 17.6986C118.44 19.7175 118.007 21.5005 117.142 23.0475C116.277 24.5945 115.084 25.8137 113.563 26.7052C112.069 27.5705 110.338 28.0031 108.372 28.0031ZM108.372 23.7554C109.42 23.7554 110.338 23.5063 111.125 23.0082C111.937 22.4838 112.567 21.7627 113.012 20.845C113.484 19.9273 113.72 18.8785 113.72 17.6986C113.72 16.5187 113.484 15.4699 113.012 14.5522C112.567 13.6345 111.924 12.9265 111.085 12.4283C110.272 11.9039 109.342 11.6417 108.293 11.6417C107.244 11.6417 106.313 11.9039 105.5 12.4283C104.688 12.9265 104.045 13.6345 103.573 14.5522C103.128 15.4699 102.905 16.5187 102.905 17.6986C102.905 18.8785 103.128 19.9273 103.573 20.845C104.045 21.7627 104.688 22.4838 105.5 23.0082C106.339 23.5063 107.297 23.7554 108.372 23.7554Z" fill="white"/>
<path d="M121.851 35.3972V7.86604H125.981L126.256 11.4844V35.3972H121.851ZM132.47 28.0031C130.818 28.0031 129.389 27.5836 128.183 26.7445C127.003 25.8793 126.099 24.6731 125.469 23.1261C124.84 21.5792 124.526 19.77 124.526 17.6986C124.526 15.601 124.84 13.7918 125.469 12.271C126.099 10.724 127.003 9.53101 128.183 8.69197C129.389 7.82671 130.818 7.39408 132.47 7.39408C134.253 7.39408 135.8 7.82671 137.111 8.69197C138.448 9.53101 139.484 10.724 140.218 12.271C140.979 13.7918 141.359 15.601 141.359 17.6986C141.359 19.77 140.979 21.5792 140.218 23.1261C139.484 24.6731 138.448 25.8793 137.111 26.7445C135.8 27.5836 134.253 28.0031 132.47 28.0031ZM131.369 23.9914C132.418 23.9914 133.349 23.7292 134.161 23.2048C134.974 22.6542 135.617 21.9069 136.089 20.963C136.587 20.0191 136.836 18.9309 136.836 17.6986C136.836 16.4662 136.6 15.3781 136.128 14.4342C135.682 13.4903 135.053 12.7561 134.24 12.2317C133.427 11.7073 132.483 11.4451 131.408 11.4451C130.412 11.4451 129.52 11.7073 128.734 12.2317C127.947 12.7561 127.331 13.4903 126.885 14.4342C126.466 15.3781 126.256 16.4662 126.256 17.6986C126.256 18.9309 126.466 20.0191 126.885 20.963C127.331 21.9069 127.934 22.6542 128.694 23.2048C129.481 23.7292 130.373 23.9914 131.369 23.9914Z" fill="white"/>
<path d="M153.342 28.0031C151.428 28.0031 149.724 27.5705 148.229 26.7052C146.734 25.8137 145.568 24.5945 144.729 23.0475C143.89 21.5005 143.47 19.7175 143.47 17.6986C143.47 15.6796 143.903 13.8967 144.768 12.3497C145.633 10.8027 146.813 9.59656 148.308 8.7313C149.802 7.83982 151.533 7.39408 153.499 7.39408C155.23 7.39408 156.803 7.85293 158.219 8.77063C159.635 9.66212 160.749 10.96 161.562 12.6643C162.401 14.3686 162.82 16.4007 162.82 18.7605H158.376C158.402 17.0562 158.206 15.6534 157.786 14.5522C157.393 13.4509 156.816 12.6381 156.056 12.1137C155.295 11.5631 154.391 11.2878 153.342 11.2878C152.241 11.2878 151.297 11.5369 150.51 12.035C149.75 12.5332 149.16 13.2674 148.74 14.2375C148.321 15.1815 148.111 16.3745 148.111 17.8166C148.111 19.1014 148.36 20.2026 148.858 21.1203C149.356 22.038 150.025 22.746 150.864 23.2441C151.729 23.7161 152.686 23.9521 153.735 23.9521C154.889 23.9521 155.846 23.6899 156.606 23.1655C157.367 22.6149 157.957 21.92 158.376 21.081L162.427 22.8115C161.877 23.8603 161.182 24.778 160.343 25.5646C159.504 26.3512 158.494 26.9543 157.314 27.3738C156.134 27.7933 154.81 28.0031 153.342 28.0031ZM146.341 18.7605L146.38 15.2601H160.539V18.7605H146.341Z" fill="white"/>
<path d="M168.544 17.0693C168.544 14.9455 168.95 13.2018 169.763 11.8384C170.576 10.4749 171.625 9.46546 172.91 8.80996C174.221 8.12824 175.584 7.78738 177 7.78738V11.9957C175.794 11.9957 174.653 12.1661 173.578 12.507C172.529 12.8216 171.677 13.346 171.022 14.0802C170.366 14.8144 170.039 15.7845 170.039 16.9906L168.544 17.0693ZM165.634 27.5311V7.86604H170.039V27.5311H165.634Z" fill="white"/>
<path d="M21.9856 65.0736L11.2484 37.5424H15.8107L26.8232 65.0736H21.9856ZM0 65.0736L10.9731 37.5424H15.5748L4.83761 65.0736H0ZM5.15225 58.3088V54.2578H21.6316V58.3088H5.15225Z" fill="white"/>
<path d="M33.0066 59.5673L30.3322 56.5389L40.558 45.4085H45.8676L33.0066 59.5673ZM28.7983 65.0736V37.5424H33.2033V65.0736H28.7983ZM41.3053 65.0736L34.3832 54.8871L37.2543 51.8193L46.5362 65.0736H41.3053Z" fill="white"/>
<path d="M59.6753 65.0736L59.4786 54.9657C59.4786 53.6285 59.3344 52.5141 59.046 51.6227C58.7575 50.7312 58.3118 50.0494 57.7087 49.5775C57.1057 49.1055 56.2929 48.8695 55.2703 48.8695C54.3526 48.8695 53.5397 49.0662 52.8318 49.4595C52.1239 49.8528 51.5339 50.4559 51.0619 51.2687L47.1289 49.8921C47.5747 49.0269 48.1515 48.214 48.8595 47.4537C49.5674 46.6933 50.4589 46.0902 51.5339 45.6445C52.6089 45.1725 53.8937 44.9365 55.3883 44.9365C57.2761 44.9365 58.8493 45.2905 60.1079 45.9984C61.3927 46.7064 62.3497 47.7552 62.979 49.1449C63.6083 50.5345 63.9229 52.2519 63.9229 54.2971V65.0736H59.6753ZM54.0904 65.5455C51.7568 65.5455 49.9345 65.0211 48.6235 63.9723C47.3387 62.9235 46.6963 61.4421 46.6963 59.528C46.6963 57.4828 47.378 55.9228 48.7415 54.8477C50.1311 53.7727 52.0583 53.2352 54.523 53.2352H60.6978L60.7372 56.6176H55.8996C54.1428 56.6176 52.9105 56.8667 52.2025 57.3649C51.5208 57.8368 51.1799 58.5185 51.1799 59.41C51.1799 60.1704 51.4815 60.7735 52.0845 61.2192C52.7138 61.6387 53.5791 61.8485 54.6803 61.8485C55.6505 61.8485 56.4895 61.6256 57.1975 61.1799C57.9316 60.7079 58.4953 60.1049 58.8886 59.3707C59.2819 58.6103 59.4786 57.7975 59.4786 56.9322H61.1305C61.1305 59.6067 60.5536 61.7174 59.3999 63.2644C58.2725 64.7852 56.5026 65.5455 54.0904 65.5455Z" fill="white"/>
<path d="M81.8289 65.0736L81.6322 61.4159V37.5424H85.9979V65.0736H81.8289ZM75.4181 65.5455C73.6351 65.5455 72.075 65.126 70.7378 64.287C69.4268 63.4217 68.3911 62.2156 67.6307 60.6686C66.8965 59.1216 66.5295 57.3124 66.5295 55.241C66.5295 53.1434 66.8965 51.3342 67.6307 49.8135C68.3911 48.2665 69.4268 47.0735 70.7378 46.2344C72.075 45.3692 73.6351 44.9365 75.4181 44.9365C77.0699 44.9365 78.4858 45.3692 79.6657 46.2344C80.8719 47.0735 81.7896 48.2665 82.4188 49.8135C83.0481 51.3342 83.3628 53.1434 83.3628 55.241C83.3628 57.3124 83.0481 59.1216 82.4188 60.6686C81.7896 62.2156 80.8719 63.4217 79.6657 64.287C78.4858 65.126 77.0699 65.5455 75.4181 65.5455ZM76.5193 61.5339C77.5157 61.5339 78.3941 61.2717 79.1544 60.7473C79.9411 60.1966 80.5441 59.4494 80.9636 58.5054C81.4094 57.5615 81.6322 56.4734 81.6322 55.241C81.6322 54.0087 81.4094 52.9206 80.9636 51.9766C80.5441 51.0327 79.9411 50.2985 79.1544 49.7741C78.3941 49.2497 77.5026 48.9875 76.48 48.9875C75.4312 48.9875 74.5004 49.2497 73.6875 49.7741C72.8747 50.2985 72.2323 51.0327 71.7604 51.9766C71.3146 52.9206 71.0786 54.0087 71.0524 55.241C71.0786 56.4734 71.3146 57.5615 71.7604 58.5054C72.2323 59.4494 72.8747 60.1966 73.6875 60.7473C74.5266 61.2717 75.4705 61.5339 76.5193 61.5339Z" fill="white"/>
<path d="M99.0878 65.5455C97.1737 65.5455 95.4694 65.1129 93.9749 64.2476C92.4803 63.3562 91.3135 62.1369 90.4745 60.5899C89.6354 59.043 89.2159 57.26 89.2159 55.241C89.2159 53.2221 89.6485 51.4391 90.5138 49.8921C91.3791 48.3451 92.559 47.139 94.0535 46.2737C95.5481 45.3823 97.2786 44.9365 99.2451 44.9365C100.976 44.9365 102.549 45.3954 103.965 46.3131C105.381 47.2046 106.495 48.5025 107.308 50.2068C108.147 51.9111 108.566 53.9431 108.566 56.3029H104.122C104.148 54.5986 103.952 53.1959 103.532 52.0946C103.139 50.9934 102.562 50.1805 101.802 49.6561C101.041 49.1055 100.137 48.8302 99.0878 48.8302C97.9865 48.8302 97.0426 49.0793 96.256 49.5775C95.4956 50.0757 94.9057 50.8098 94.4861 51.78C94.0666 52.7239 93.8569 53.9169 93.8569 55.359C93.8569 56.6438 94.106 57.7451 94.6041 58.6628C95.1023 59.5805 95.7709 60.2884 96.61 60.7866C97.4752 61.2586 98.4323 61.4945 99.4811 61.4945C100.635 61.4945 101.592 61.2323 102.352 60.7079C103.113 60.1573 103.703 59.4625 104.122 58.6234L108.173 60.354C107.622 61.4028 106.928 62.3205 106.089 63.1071C105.25 63.8937 104.24 64.4967 103.06 64.9163C101.88 65.3358 100.556 65.5455 99.0878 65.5455ZM92.087 56.3029L92.1263 52.8026H106.285V56.3029H92.087Z" fill="white"/>
<path d="M111.379 65.0736V45.4085H115.509L115.784 49.0269V65.0736H111.379ZM124.712 65.0736V55.005L129.117 53.8251V65.0736H124.712ZM138.085 65.0736V55.005L142.45 53.8251V65.0736H138.085ZM124.712 55.005C124.712 53.4318 124.529 52.2257 124.162 51.3867C123.821 50.5214 123.323 49.9183 122.667 49.5775C122.038 49.2366 121.291 49.0662 120.425 49.0662C118.957 49.04 117.816 49.525 117.004 50.5214C116.191 51.5178 115.784 52.9468 115.784 54.8084H114.132C114.132 52.737 114.434 50.9672 115.037 49.4988C115.64 48.0043 116.505 46.8768 117.633 46.1164C118.76 45.3298 120.098 44.9365 121.645 44.9365C124.031 44.9365 125.866 45.6707 127.151 47.139C128.462 48.5811 129.117 50.8098 129.117 53.8251L124.712 55.005ZM138.085 55.005C138.085 53.4318 137.901 52.2257 137.534 51.3867C137.167 50.5214 136.656 49.9183 136 49.5775C135.371 49.2366 134.637 49.0662 133.798 49.0662C132.303 49.04 131.149 49.525 130.337 50.5214C129.524 51.5178 129.117 52.9468 129.117 54.8084H127.465C127.465 52.737 127.767 50.9672 128.37 49.4988C128.973 48.0043 129.838 46.8768 130.966 46.1164C132.093 45.3298 133.431 44.9365 134.977 44.9365C137.364 44.9365 139.212 45.6707 140.523 47.139C141.834 48.5811 142.476 50.8098 142.45 53.8251L138.085 55.005Z" fill="white"/>
<path d="M146.434 65.0736L146.474 45.4085H150.839L150.8 65.0736H146.434ZM148.637 41.6721C147.929 41.6721 147.313 41.423 146.788 40.9248C146.29 40.4004 146.041 39.7843 146.041 39.0763C146.041 38.3684 146.29 37.7653 146.788 37.2671C147.313 36.769 147.929 36.5199 148.637 36.5199C149.345 36.5199 149.948 36.769 150.446 37.2671C150.97 37.7653 151.233 38.3684 151.233 39.0763C151.233 39.7843 150.97 40.4004 150.446 40.9248C149.948 41.423 149.345 41.6721 148.637 41.6721Z" fill="white"/>
<path d="M164.211 65.5455C162.297 65.5455 160.593 65.1129 159.099 64.2476C157.604 63.3562 156.437 62.1369 155.598 60.5899C154.759 59.043 154.34 57.26 154.34 55.241C154.34 53.2221 154.772 51.4391 155.638 49.8921C156.503 48.3451 157.683 47.139 159.177 46.2737C160.672 45.3823 162.402 44.9365 164.369 44.9365C166.099 44.9365 167.673 45.3954 169.088 46.3131C170.504 47.2046 171.619 48.5025 172.432 50.2068C173.271 51.9111 173.69 53.9431 173.69 56.3029H169.246C169.272 54.5986 169.075 53.1959 168.656 52.0946C168.263 50.9934 167.686 50.1805 166.925 49.6561C166.165 49.1055 165.26 48.8302 164.211 48.8302C163.11 48.8302 162.166 49.0793 161.38 49.5775C160.619 50.0757 160.029 50.8098 159.61 51.78C159.19 52.7239 158.981 53.9169 158.981 55.359C158.981 56.6438 159.23 57.7451 159.728 58.6628C160.226 59.5805 160.895 60.2884 161.734 60.7866C162.599 61.2586 163.556 61.4945 164.605 61.4945C165.758 61.4945 166.715 61.2323 167.476 60.7079C168.236 60.1573 168.826 59.4625 169.246 58.6234L173.297 60.354C172.746 61.4028 172.051 62.3205 171.212 63.1071C170.373 63.8937 169.364 64.4967 168.184 64.9163C167.004 65.3358 165.68 65.5455 164.211 65.5455ZM157.211 56.3029L157.25 52.8026H171.409V56.3029H157.211Z" fill="white"/>
</svg>
