<svg width="77" height="63" viewBox="0 0 77 63" fill="none" xmlns="http://www.w3.org/2000/svg">
<path d="M40.8835 40.3442C40.9006 40.457 40.9704 40.555 41.0715 40.6079C41.1727 40.6609 41.293 40.6624 41.3955 40.6121L56.3262 33.2826C56.421 33.2361 56.4904 33.1502 56.5159 33.0478C56.7044 32.2918 56.7654 31.5421 56.7654 30.7335C56.7654 29.8397 56.6415 29.0244 56.5217 28.3035C56.5027 28.189 56.4293 28.0909 56.325 28.0401L41.3942 20.7825C41.2926 20.7331 41.1736 20.7346 41.0733 20.7864C40.9729 20.8383 40.9029 20.9344 40.8843 21.0459L40.8821 21.0591C40.8253 21.4007 40.7633 21.7741 40.7602 22.153C40.7003 22.5352 40.7003 22.9785 40.7003 23.3855V23.4041C40.7003 23.5561 40.715 23.7228 40.7286 23.8782L40.7315 23.9113C40.7466 24.0829 40.76 24.2481 40.76 24.4101C40.76 24.4297 40.7617 24.4494 40.7649 24.4688C40.7909 24.6253 40.8047 24.7833 40.8192 24.9496L40.8211 24.9712C40.8357 25.1383 40.8521 25.3211 40.887 25.4889C40.9104 25.6017 40.9866 25.6963 41.0918 25.7432L52.1383 30.6683L41.0868 35.798C40.9841 35.8457 40.91 35.9391 40.887 36.05C40.8269 36.339 40.7633 36.7143 40.7602 37.0993C40.7003 37.478 40.7003 37.854 40.7003 38.2622V38.2786C40.7003 38.8777 40.7625 39.5436 40.8835 40.3442Z" fill="#FD5B4F"/>
<path fill-rule="evenodd" clip-rule="evenodd" d="M35.9288 13.1129C36.03 13.1658 36.0998 13.2638 36.1169 13.3767C36.2379 14.1772 36.3001 14.8431 36.3001 15.4422V15.4588C36.3001 15.8669 36.3001 16.2429 36.2402 16.6215C36.2371 17.0066 36.1735 17.3818 36.1134 17.6708C36.0904 17.7817 36.0163 17.8751 35.9135 17.9228L24.8621 23.0526L35.9086 27.9777C36.0138 28.0246 36.09 28.1192 36.1134 28.2319C36.1483 28.3997 36.1646 28.5826 36.1793 28.7496L36.1811 28.7711C36.1957 28.9375 36.2095 29.0955 36.2355 29.2521C36.2387 29.2715 36.2404 29.2911 36.2404 29.3108C36.2404 29.4728 36.2538 29.6379 36.2688 29.8095L36.2717 29.8426C36.2854 29.9979 36.3001 30.1647 36.3001 30.3168V30.3355C36.3001 30.7425 36.3001 31.1857 36.2402 31.5678C36.2371 31.9467 36.1751 32.32 36.1183 32.6616L36.116 32.675C36.0975 32.7864 36.0275 32.8826 35.9271 32.9344C35.8268 32.9863 35.7078 32.9877 35.6062 32.9383L20.6754 25.6807C20.571 25.63 20.4977 25.5318 20.4787 25.4173C20.3589 24.6964 20.235 23.8812 20.235 22.9873C20.235 22.1787 20.296 21.429 20.4845 20.6731C20.51 20.5707 20.5794 20.4847 20.6742 20.4382L35.6049 13.1087C35.7074 13.0584 35.8277 13.06 35.9288 13.1129Z" fill="#FD5B4F"/>
<path fill-rule="evenodd" clip-rule="evenodd" d="M68.9418 0H8.05814C3.60775 0 0 3.60775 0 8.05813V45.6628C0 50.1132 3.60775 53.7209 8.05813 53.7209H68.9418C73.3922 53.7209 77 50.1132 77 45.6628V8.05814C77 3.60775 73.3922 0 68.9418 0ZM4.47674 8.05813C4.47674 6.08019 6.08019 4.47674 8.05814 4.47674H68.9418C70.9198 4.47674 72.5232 6.08019 72.5232 8.05814V45.6628C72.5232 47.6407 70.9198 49.2442 68.9418 49.2442H8.05813C6.08019 49.2442 4.47674 47.6407 4.47674 45.6628V8.05813Z" fill="#FD5B4F"/>
<path d="M8.50581 58.1976C7.26959 58.1976 6.26744 59.1998 6.26744 60.436C6.26744 61.6722 7.26959 62.6744 8.50581 62.6744H68.4942C69.7304 62.6744 70.7325 61.6722 70.7325 60.436C70.7325 59.1998 69.7304 58.1976 68.4942 58.1976H8.50581Z" fill="#FD5B4F"/>
</svg>
