<svg width="26" height="23" viewBox="0 0 26 23" fill="none" xmlns="http://www.w3.org/2000/svg">
<path d="M21.6456 12.6214H7.57282C7.21521 12.6214 6.91545 12.5004 6.67354 12.2585C6.43163 12.0166 6.31068 11.7168 6.31068 11.3592C6.31068 11.0016 6.43163 10.7019 6.67354 10.46C6.91545 10.218 7.21521 10.0971 7.57282 10.0971H21.6456L20.5728 9.02427C20.3204 8.77184 20.1994 8.47735 20.21 8.14078C20.2205 7.80421 20.3414 7.50971 20.5728 7.25728C20.8252 7.00485 21.125 6.87338 21.4721 6.86286C21.8192 6.85235 22.1189 6.9733 22.3714 7.22573L25.6214 10.4757C25.8738 10.7282 26 11.0227 26 11.3592C26 11.6958 25.8738 11.9903 25.6214 12.2427L22.3714 15.4927C22.1189 15.7451 21.8192 15.8661 21.4721 15.8556C21.125 15.8451 20.8252 15.7136 20.5728 15.4612C20.3414 15.2087 20.2205 14.9142 20.21 14.5777C20.1994 14.2411 20.3204 13.9466 20.5728 13.6942L21.6456 12.6214ZM15.1456 6.31068V2.52427H2.52427V20.1942H15.1456V16.4078C15.1456 16.0502 15.2666 15.7504 15.5085 15.5085C15.7504 15.2666 16.0502 15.1456 16.4078 15.1456C16.7654 15.1456 17.0651 15.2666 17.307 15.5085C17.5489 15.7504 17.6699 16.0502 17.6699 16.4078V20.1942C17.6699 20.8883 17.4227 21.4826 16.9284 21.9769C16.4341 22.4713 15.8398 22.7184 15.1456 22.7184H2.52427C1.8301 22.7184 1.23584 22.4713 0.741505 21.9769C0.247168 21.4826 0 20.8883 0 20.1942V2.52427C0 1.8301 0.247168 1.23584 0.741505 0.741505C1.23584 0.247168 1.8301 0 2.52427 0H15.1456C15.8398 0 16.4341 0.247168 16.9284 0.741505C17.4227 1.23584 17.6699 1.8301 17.6699 2.52427V6.31068C17.6699 6.66828 17.5489 6.96804 17.307 7.20995C17.0651 7.45186 16.7654 7.57282 16.4078 7.57282C16.0502 7.57282 15.7504 7.45186 15.5085 7.20995C15.2666 6.96804 15.1456 6.66828 15.1456 6.31068Z" fill="#1E7594"/>
</svg>
