<svg width="27" height="27" viewBox="0 0 27 27" fill="none" xmlns="http://www.w3.org/2000/svg">
<mask id="mask0_2285_4025" style="mask-type:alpha" maskUnits="userSpaceOnUse" x="-3" y="-3" width="33" height="33">
<rect x="-2.7" y="-2.70002" width="32.4" height="32.4" fill="#D9D9D9"/>
</mask>
<g mask="url(#mask0_2285_4025)">
<path d="M13.5 27C11.655 27 9.91124 26.6456 8.26874 25.9369C6.62624 25.2281 5.19187 24.2606 3.96562 23.0344C2.73937 21.8081 1.77187 20.3737 1.06312 18.7312C0.354375 17.0887 0 15.345 0 13.5C0 11.6325 0.365625 9.87749 1.09687 8.23499C1.82812 6.59249 2.81812 5.16375 4.06687 3.94875C5.31562 2.73375 6.77249 1.77187 8.43749 1.06312C10.1025 0.354375 11.88 0 13.77 0C15.57 0 17.2687 0.309375 18.8662 0.928124C20.4637 1.54687 21.8644 2.40187 23.0681 3.49312C24.2719 4.58437 25.2281 5.87812 25.9369 7.37437C26.6456 8.87062 27 10.485 27 12.2175C27 14.805 26.2125 16.7906 24.6375 18.1744C23.0625 19.5581 21.15 20.25 18.9 20.25H16.4025C16.2 20.25 16.0594 20.3062 15.9806 20.4187C15.9019 20.5312 15.8625 20.655 15.8625 20.79C15.8625 21.06 16.0312 21.4481 16.3687 21.9544C16.7062 22.4606 16.875 23.04 16.875 23.6925C16.875 24.8175 16.5656 25.65 15.9469 26.19C15.3281 26.73 14.5125 27 13.5 27ZM6.07499 14.85C6.65999 14.85 7.14374 14.6587 7.52624 14.2762C7.90874 13.8937 8.09999 13.41 8.09999 12.825C8.09999 12.24 7.90874 11.7562 7.52624 11.3737C7.14374 10.9912 6.65999 10.8 6.07499 10.8C5.49 10.8 5.00625 10.9912 4.62375 11.3737C4.24125 11.7562 4.05 12.24 4.05 12.825C4.05 13.41 4.24125 13.8937 4.62375 14.2762C5.00625 14.6587 5.49 14.85 6.07499 14.85ZM10.125 9.44999C10.71 9.44999 11.1937 9.25874 11.5762 8.87624C11.9587 8.49374 12.15 8.00999 12.15 7.42499C12.15 6.83999 11.9587 6.35625 11.5762 5.97375C11.1937 5.59125 10.71 5.4 10.125 5.4C9.53999 5.4 9.05624 5.59125 8.67374 5.97375C8.29124 6.35625 8.09999 6.83999 8.09999 7.42499C8.09999 8.00999 8.29124 8.49374 8.67374 8.87624C9.05624 9.25874 9.53999 9.44999 10.125 9.44999ZM16.875 9.44999C17.46 9.44999 17.9437 9.25874 18.3262 8.87624C18.7087 8.49374 18.9 8.00999 18.9 7.42499C18.9 6.83999 18.7087 6.35625 18.3262 5.97375C17.9437 5.59125 17.46 5.4 16.875 5.4C16.29 5.4 15.8062 5.59125 15.4237 5.97375C15.0412 6.35625 14.85 6.83999 14.85 7.42499C14.85 8.00999 15.0412 8.49374 15.4237 8.87624C15.8062 9.25874 16.29 9.44999 16.875 9.44999ZM20.925 14.85C21.51 14.85 21.9937 14.6587 22.3762 14.2762C22.7587 13.8937 22.95 13.41 22.95 12.825C22.95 12.24 22.7587 11.7562 22.3762 11.3737C21.9937 10.9912 21.51 10.8 20.925 10.8C20.34 10.8 19.8562 10.9912 19.4737 11.3737C19.0912 11.7562 18.9 12.24 18.9 12.825C18.9 13.41 19.0912 13.8937 19.4737 14.2762C19.8562 14.6587 20.34 14.85 20.925 14.85ZM13.5 24.3C13.7025 24.3 13.8656 24.2437 13.9894 24.1312C14.1131 24.0187 14.175 23.8725 14.175 23.6925C14.175 23.3775 14.0062 23.0062 13.6687 22.5787C13.3312 22.1512 13.1625 21.51 13.1625 20.655C13.1625 19.71 13.4887 18.9562 14.1412 18.3937C14.7937 17.8312 15.5925 17.55 16.5375 17.55H18.9C20.385 17.55 21.6562 17.1169 22.7137 16.2506C23.7712 15.3844 24.3 14.04 24.3 12.2175C24.3 9.49499 23.2594 7.22812 21.1781 5.41687C19.0969 3.60562 16.6275 2.7 13.77 2.7C10.71 2.7 8.09999 3.74625 5.94 5.83875C3.78 7.93124 2.7 10.485 2.7 13.5C2.7 16.4925 3.75187 19.0406 5.85562 21.1444C7.95937 23.2481 10.5075 24.3 13.5 24.3Z" fill="#DA1EBA"/>
</g>
</svg>
