<svg width="422" height="410" viewBox="0 0 422 410" fill="none" xmlns="http://www.w3.org/2000/svg">
<path opacity="0.05" d="M26.8104 227.364C11.8021 215.882 3.08292 200.714 0.652912 181.862C-1.77708 163.009 2.57469 145.788 13.7082 130.199C15.4247 127.956 17.2662 125.808 19.2328 123.755C21.1994 121.703 23.2911 119.747 25.5078 117.886L153.147 16.3587C166.948 5.57643 182.421 0.124243 199.566 0.00211043C216.711 -0.120021 232.162 5.08161 245.92 15.607L392.251 127.559C406.008 138.084 415.071 151.637 419.438 168.217C423.804 184.797 422.589 201.157 415.793 217.298L351.188 367.05C349.972 369.677 348.645 372.318 347.209 374.973C345.772 377.628 344.196 380.078 342.479 382.321C330.845 397.528 315.535 406.266 296.549 408.536C277.562 410.806 260.44 406.104 245.181 394.43C234.675 386.393 227.018 376.187 222.209 363.814C217.4 351.44 216.367 338.794 219.112 325.877L225.199 296.151C225.855 292.702 225.41 289.397 223.862 286.237C222.314 283.077 220.164 280.444 217.413 278.339L146.123 223.798C143.372 221.693 140.269 220.307 136.814 219.64C133.359 218.972 130.052 219.407 126.894 220.943L99.7961 234.593C88.0463 240.621 75.571 242.933 62.3703 241.528C49.1695 240.123 37.3162 235.401 26.8104 227.364ZM50.8222 198.311C55.5748 201.947 60.8433 204.001 66.6276 204.475C72.4119 204.948 77.9258 203.832 83.1691 201.125L109.981 187.848C119.646 182.991 129.774 181.156 140.365 182.343C150.957 183.53 160.505 187.377 169.01 193.884L240.299 248.425C248.804 254.931 254.967 263.203 258.788 273.24C262.609 283.277 263.66 293.565 261.94 304.106L256.14 333.457C254.899 339.226 255.263 344.84 257.233 350.299C259.203 355.758 262.564 360.306 267.317 363.942C274.321 369.3 282.088 371.587 290.619 370.803C299.15 370.019 306.211 366.232 311.801 359.444C311.611 359.693 313.172 357.133 316.486 351.765L380.805 202.386C384.203 194.316 384.897 186.152 382.886 177.896C380.876 169.639 376.368 162.831 369.365 157.473L223.034 45.5213C216.03 40.1629 208.218 37.5454 199.598 37.6688C190.977 37.7922 183.342 40.6451 176.692 46.2276L49.3385 147.381C47.694 148.494 45.7274 150.546 43.4387 153.538C38.0986 160.518 36.1807 168.337 37.6849 176.997C39.1891 185.656 43.5682 192.761 50.8222 198.311ZM261.496 193.506C265.748 196.76 270.41 198.053 275.479 197.387C280.549 196.721 284.705 194.269 287.947 190.031C291.19 185.793 292.469 181.141 291.786 176.073C291.102 171.006 288.635 166.845 284.382 163.592C280.13 160.339 275.469 159.045 270.399 159.711C265.329 160.377 261.173 162.829 257.931 167.067C254.689 171.305 253.409 175.957 254.093 181.025C254.776 186.092 257.244 190.253 261.496 193.506ZM314.399 186.556C318.651 189.81 323.312 191.103 328.382 190.437C333.452 189.771 337.608 187.319 340.85 183.082C344.092 178.844 345.372 174.191 344.689 169.123C344.005 164.056 341.537 159.895 337.285 156.642C333.033 153.389 328.372 152.095 323.302 152.761C318.232 153.427 314.076 155.879 310.834 160.117C307.591 164.355 306.312 169.008 306.995 174.075C307.679 179.143 310.147 183.303 314.399 186.556ZM268.626 246.385C272.879 249.638 277.54 250.932 282.61 250.266C287.68 249.6 291.836 247.148 295.078 242.91C298.32 238.672 299.6 234.02 298.916 228.952C298.233 223.884 295.765 219.724 291.513 216.471C287.26 213.217 282.599 211.924 277.529 212.59C272.46 213.256 268.303 215.708 265.061 219.946C261.819 224.183 260.54 228.836 261.223 233.904C261.906 238.971 264.374 243.132 268.626 246.385ZM321.529 239.435C325.782 242.688 330.443 243.982 335.513 243.316C340.582 242.65 344.738 240.198 347.981 235.96C351.223 231.722 352.502 227.07 351.819 222.002C351.136 216.935 348.668 212.774 344.415 209.521C340.163 206.268 335.502 204.974 330.432 205.64C325.362 206.306 321.206 208.758 317.964 212.996C314.722 217.234 313.442 221.886 314.126 226.954C314.809 232.021 317.277 236.182 321.529 239.435ZM169.29 158.531C172.542 161.019 176.041 162.016 179.789 161.524C183.536 161.032 186.649 159.165 189.128 155.925L200.572 140.967L215.58 152.45C218.832 154.937 222.331 155.935 226.078 155.443C229.826 154.951 232.939 153.084 235.418 149.843C237.898 146.603 238.885 143.11 238.38 139.364C237.875 135.618 235.996 132.502 232.744 130.014L217.736 118.532L229.179 103.575C231.659 100.334 232.646 96.8407 232.141 93.0951C231.636 89.3496 229.757 86.2329 226.505 83.745C223.254 81.2572 219.754 80.2595 216.007 80.7517C212.259 81.244 209.146 83.1105 206.667 86.3512L195.224 101.308L180.215 89.8261C176.964 87.3383 173.464 86.3405 169.717 86.8328C165.97 87.3251 162.856 89.1916 160.377 92.4323C157.898 95.673 156.91 99.1662 157.415 102.912C157.921 106.657 159.799 109.774 163.051 112.262L178.059 123.744L166.616 138.701C164.137 141.942 163.15 145.435 163.655 149.181C164.16 152.926 166.038 156.043 169.29 158.531Z" fill="#F0EA6E"/>
</svg>
