<svg width="219" height="74" viewBox="0 0 219 74" fill="none" xmlns="http://www.w3.org/2000/svg">
<g filter="url(#filter0_d_2106_1789)">
<rect x="2" y="2" width="207" height="62" fill="#86E9D6" fill-opacity="0.26" shape-rendering="crispEdges"/>
<rect x="3.5" y="3.5" width="204" height="59" stroke="#4DD5BC" stroke-width="3" shape-rendering="crispEdges"/>
<g filter="url(#filter1_d_2106_1789)">
<mask id="mask0_2106_1789" style="mask-type:alpha" maskUnits="userSpaceOnUse" x="26" y="18" width="30" height="30">
<rect x="26" y="18" width="30" height="30" fill="#D9D9D9"/>
</mask>
<g mask="url(#mask0_2106_1789)">
<path d="M51.1875 34.25H37.25C36.8958 34.25 36.599 34.1302 36.3594 33.8906C36.1198 33.651 36 33.3542 36 33C36 32.6458 36.1198 32.349 36.3594 32.1094C36.599 31.8698 36.8958 31.75 37.25 31.75H51.1875L50.125 30.6875C49.875 30.4375 49.7552 30.1458 49.7656 29.8125C49.776 29.4792 49.8958 29.1875 50.125 28.9375C50.375 28.6875 50.6719 28.5573 51.0156 28.5469C51.3594 28.5365 51.6562 28.6562 51.9062 28.9062L55.125 32.125C55.375 32.375 55.5 32.6667 55.5 33C55.5 33.3333 55.375 33.625 55.125 33.875L51.9062 37.0938C51.6562 37.3438 51.3594 37.4635 51.0156 37.4531C50.6719 37.4427 50.375 37.3125 50.125 37.0625C49.8958 36.8125 49.776 36.5208 49.7656 36.1875C49.7552 35.8542 49.875 35.5625 50.125 35.3125L51.1875 34.25ZM44.75 28V24.25H32.25V41.75H44.75V38C44.75 37.6458 44.8698 37.349 45.1094 37.1094C45.349 36.8698 45.6458 36.75 46 36.75C46.3542 36.75 46.651 36.8698 46.8906 37.1094C47.1302 37.349 47.25 37.6458 47.25 38V41.75C47.25 42.4375 47.0052 43.026 46.5156 43.5156C46.026 44.0052 45.4375 44.25 44.75 44.25H32.25C31.5625 44.25 30.974 44.0052 30.4844 43.5156C29.9948 43.026 29.75 42.4375 29.75 41.75V24.25C29.75 23.5625 29.9948 22.974 30.4844 22.4844C30.974 21.9948 31.5625 21.75 32.25 21.75H44.75C45.4375 21.75 46.026 21.9948 46.5156 22.4844C47.0052 22.974 47.25 23.5625 47.25 24.25V28C47.25 28.3542 47.1302 28.651 46.8906 28.8906C46.651 29.1302 46.3542 29.25 46 29.25C45.6458 29.25 45.349 29.1302 45.1094 28.8906C44.8698 28.651 44.75 28.3542 44.75 28Z" fill="white"/>
</g>
</g>
<path d="M67.2 41C67.312 41 67.424 40.888 67.536 40.664C67.648 40.44 67.704 40.072 67.704 39.56V28.04C67.704 27.528 67.648 27.168 67.536 26.96C67.424 26.736 67.312 26.616 67.2 26.6H81.216V27.32L81.696 30.104C81.296 29.928 80.592 29.744 79.584 29.552C78.576 29.344 77.36 29.24 75.936 29.24H72.384C71.904 29.24 71.616 29.28 71.52 29.36C71.44 29.424 71.4 29.624 71.4 29.96V31.736C71.4 32.088 71.44 32.296 71.52 32.36C71.616 32.424 71.896 32.456 72.36 32.456H75.816C76.744 32.456 77.488 32.408 78.048 32.312C78.624 32.2 79 32.088 79.176 31.976C79.112 32.28 79.04 32.632 78.96 33.032C78.88 33.432 78.816 33.816 78.768 34.184C78.72 34.552 78.696 34.856 78.696 35.096H72.36C71.896 35.096 71.616 35.128 71.52 35.192C71.44 35.24 71.4 35.448 71.4 35.816V37.592C71.4 37.96 71.44 38.176 71.52 38.24C71.6 38.304 71.88 38.336 72.36 38.336H78.84C79.768 38.336 80.512 38.232 81.072 38.024C81.648 37.8 82.024 37.584 82.2 37.376L81.72 40.256V41H67.2ZM82.4955 41C82.6395 41 82.8795 40.888 83.2155 40.664C83.5515 40.44 83.9355 40.08 84.3675 39.584C84.6715 39.216 85.0315 38.784 85.4475 38.288C85.8635 37.776 86.2795 37.256 86.6955 36.728C87.1275 36.2 87.4955 35.744 87.7995 35.36C87.5435 35.072 87.2555 34.744 86.9355 34.376C86.6155 34.008 86.2875 33.632 85.9515 33.248C85.6315 32.864 85.3115 32.504 84.9915 32.168C84.6875 31.816 84.4235 31.512 84.1995 31.256C83.7195 30.712 83.3355 30.328 83.0475 30.104C82.7595 29.88 82.5755 29.768 82.4955 29.768H87.6795C87.5675 29.784 87.5275 29.904 87.5595 30.128C87.6075 30.352 87.8155 30.728 88.1835 31.256C88.3435 31.48 88.5275 31.736 88.7355 32.024C88.9435 32.312 89.1515 32.6 89.3595 32.888C89.5675 33.176 89.7435 33.424 89.8875 33.632H89.9355C90.0635 33.44 90.2155 33.208 90.3915 32.936C90.5835 32.664 90.7835 32.376 90.9915 32.072C91.1995 31.768 91.3915 31.48 91.5675 31.208C91.9035 30.68 92.0875 30.312 92.1195 30.104C92.1675 29.88 92.1435 29.768 92.0475 29.768H97.3035C97.1595 29.768 96.9275 29.88 96.6075 30.104C96.2875 30.312 95.9035 30.672 95.4555 31.184C95.1515 31.536 94.7755 31.968 94.3275 32.48C93.8955 32.976 93.4635 33.48 93.0315 33.992C92.5995 34.504 92.2155 34.96 91.8795 35.36C92.2955 35.824 92.7115 36.288 93.1275 36.752C93.5435 37.2 93.9515 37.656 94.3515 38.12C94.7675 38.584 95.1835 39.048 95.5995 39.512C96.0795 40.056 96.4635 40.44 96.7515 40.664C97.0555 40.888 97.2475 41 97.3275 41H92.1435C92.2555 41 92.2955 40.888 92.2635 40.664C92.2315 40.44 92.0315 40.056 91.6635 39.512C91.5035 39.256 91.3115 38.976 91.0875 38.672C90.8635 38.368 90.6395 38.064 90.4155 37.76C90.1915 37.456 89.9995 37.2 89.8395 36.992H89.7915C89.6635 37.2 89.5035 37.456 89.3115 37.76C89.1355 38.064 88.9435 38.376 88.7355 38.696C88.5435 39.016 88.3595 39.304 88.1835 39.56C87.8315 40.088 87.6315 40.464 87.5835 40.688C87.5355 40.896 87.5675 41 87.6795 41H82.4955ZM98.181 41C98.293 41 98.405 40.888 98.517 40.664C98.629 40.44 98.685 40.072 98.685 39.56V31.208C98.685 30.696 98.629 30.328 98.517 30.104C98.421 29.88 98.317 29.768 98.205 29.768H102.093V39.56C102.093 40.072 102.141 40.44 102.237 40.664C102.349 40.888 102.461 41 102.573 41H98.181ZM100.125 27.944C99.533 27.944 99.061 27.784 98.709 27.464C98.357 27.144 98.181 26.704 98.181 26.144C98.181 25.584 98.349 25.144 98.685 24.824C99.037 24.504 99.517 24.344 100.125 24.344C100.733 24.344 101.205 24.504 101.541 24.824C101.893 25.144 102.069 25.584 102.069 26.144C102.069 26.704 101.893 27.144 101.541 27.464C101.205 27.784 100.733 27.944 100.125 27.944ZM109.472 41.24C108.368 41.24 107.568 41.008 107.072 40.544C106.576 40.064 106.328 39.288 106.328 38.216V32.168H104.168V29.768C104.904 29.768 105.48 29.68 105.896 29.504C106.312 29.312 106.608 28.984 106.784 28.52C106.96 28.056 107.048 27.408 107.048 26.576H109.736V29.768H113.84C113.728 30.088 113.616 30.488 113.504 30.968C113.408 31.432 113.36 31.832 113.36 32.168H109.736V36.896C109.736 37.632 109.792 38.136 109.904 38.408C110.016 38.68 110.28 38.816 110.696 38.816C110.968 38.816 111.264 38.72 111.584 38.528C111.92 38.336 112.24 38.104 112.544 37.832C112.864 37.544 113.128 37.272 113.336 37.016V37.76L113.576 40.088C113.384 40.248 113.096 40.424 112.712 40.616C112.328 40.792 111.856 40.936 111.296 41.048C110.752 41.176 110.144 41.24 109.472 41.24ZM126.676 46.856C125.748 46.856 124.892 46.792 124.108 46.664C123.34 46.536 122.668 46.376 122.092 46.184C121.532 46.008 121.1 45.832 120.796 45.656L121.276 42.056V41.36C121.5 41.792 121.852 42.248 122.332 42.728C122.812 43.208 123.412 43.616 124.132 43.952C124.852 44.288 125.668 44.456 126.58 44.456C127.172 44.456 127.668 44.328 128.068 44.072C128.468 43.832 128.772 43.456 128.98 42.944C129.188 42.432 129.292 41.8 129.292 41.048V40.664L129.34 40.232L129.292 40.184C129.068 40.424 128.764 40.624 128.38 40.784C128.012 40.928 127.604 41.04 127.156 41.12C126.724 41.2 126.292 41.24 125.86 41.24C124.564 41.24 123.524 40.984 122.74 40.472C121.972 39.96 121.412 39.264 121.06 38.384C120.724 37.504 120.556 36.512 120.556 35.408C120.556 34.288 120.724 33.288 121.06 32.408C121.396 31.528 121.948 30.832 122.716 30.32C123.5 29.792 124.548 29.528 125.86 29.528C126.308 29.528 126.748 29.56 127.18 29.624C127.612 29.688 128.012 29.784 128.38 29.912C128.748 30.024 129.052 30.184 129.292 30.392L129.34 30.368L129.292 29.912V29.768H133.18C133.068 29.784 132.956 29.904 132.844 30.128C132.748 30.352 132.7 30.728 132.7 31.256V40.448C132.7 42.768 132.204 44.416 131.212 45.392C130.236 46.368 128.724 46.856 126.676 46.856ZM126.508 38.816C127.068 38.816 127.556 38.72 127.972 38.528C128.388 38.336 128.708 37.992 128.932 37.496C129.172 37 129.292 36.304 129.292 35.408C129.292 34.528 129.172 33.84 128.932 33.344C128.708 32.832 128.388 32.472 127.972 32.264C127.556 32.04 127.068 31.928 126.508 31.928C125.98 31.928 125.524 32.04 125.14 32.264C124.756 32.488 124.46 32.856 124.252 33.368C124.044 33.88 123.94 34.568 123.94 35.432C123.94 36.28 124.036 36.952 124.228 37.448C124.436 37.944 124.732 38.296 125.116 38.504C125.5 38.712 125.964 38.816 126.508 38.816ZM140.079 41.24C138.639 41.24 137.487 40.96 136.623 40.4C135.775 39.824 135.351 38.904 135.351 37.64C135.351 36.76 135.575 36.048 136.023 35.504C136.471 34.96 137.079 34.56 137.847 34.304C138.631 34.032 139.519 33.896 140.511 33.896C141.247 33.896 141.871 33.96 142.383 34.088C142.911 34.216 143.335 34.352 143.655 34.496C143.975 34.64 144.183 34.744 144.279 34.808C144.279 34.136 144.207 33.592 144.063 33.176C143.919 32.744 143.655 32.432 143.271 32.24C142.903 32.032 142.383 31.928 141.711 31.928C140.735 31.928 139.871 32.024 139.119 32.216C138.367 32.408 137.751 32.632 137.271 32.888C136.807 33.144 136.487 33.36 136.311 33.536V32.816L136.071 30.464C136.183 30.4 136.479 30.296 136.959 30.152C137.439 30.008 138.095 29.872 138.927 29.744C139.759 29.6 140.751 29.528 141.903 29.528C143.487 29.528 144.695 29.76 145.527 30.224C146.359 30.672 146.927 31.32 147.231 32.168C147.551 33.016 147.711 34.04 147.711 35.24V39.56C147.711 40.008 147.759 40.336 147.855 40.544C147.967 40.736 148.079 40.888 148.191 41H144.303V40.496L144.351 40.04L144.303 39.992C144.175 40.136 143.991 40.28 143.751 40.424C143.511 40.568 143.215 40.704 142.863 40.832C142.511 40.944 142.103 41.04 141.639 41.12C141.175 41.2 140.655 41.24 140.079 41.24ZM141.207 38.816C141.879 38.816 142.439 38.768 142.887 38.672C143.351 38.56 143.703 38.416 143.943 38.24C144.183 38.048 144.303 37.824 144.303 37.568C144.303 37.2 144.023 36.896 143.463 36.656C142.919 36.416 142.175 36.296 141.231 36.296C140.319 36.296 139.671 36.424 139.287 36.68C138.919 36.936 138.735 37.256 138.735 37.64C138.735 38.12 138.951 38.44 139.383 38.6C139.815 38.744 140.423 38.816 141.207 38.816ZM150.165 41C150.277 41 150.381 40.888 150.477 40.664C150.589 40.44 150.645 40.072 150.645 39.56V31.448C150.645 30.936 150.589 30.576 150.477 30.368C150.381 30.144 150.277 30.024 150.165 30.008C150.869 30.008 151.589 29.96 152.325 29.864C153.061 29.752 153.637 29.64 154.053 29.528V30.992L154.005 31.304L154.053 31.352C154.101 31.24 154.253 31.04 154.509 30.752C154.765 30.464 155.133 30.192 155.613 29.936C156.093 29.664 156.685 29.528 157.389 29.528C158.877 29.528 160.013 29.952 160.797 30.8C161.597 31.648 161.997 32.976 161.997 34.784V39.56C161.997 40.072 162.045 40.44 162.141 40.664C162.253 40.888 162.365 41 162.477 41H158.109C158.221 41 158.325 40.888 158.421 40.664C158.533 40.44 158.589 40.072 158.589 39.56V34.856C158.589 34.104 158.509 33.52 158.349 33.104C158.189 32.672 157.965 32.368 157.677 32.192C157.405 32.016 157.085 31.928 156.717 31.928C156.269 31.928 155.837 32.04 155.421 32.264C155.021 32.472 154.693 32.808 154.437 33.272C154.181 33.72 154.053 34.32 154.053 35.072V39.56C154.053 40.072 154.101 40.44 154.197 40.664C154.309 40.888 154.421 41 154.533 41H150.165ZM166.029 41C166.141 40.984 166.245 40.864 166.341 40.64C166.453 40.416 166.509 40.056 166.509 39.56V35.072C166.509 34.432 166.445 33.88 166.317 33.416C166.205 32.936 166.013 32.568 165.741 32.312C165.469 32.056 165.101 31.928 164.637 31.928C163.853 31.928 163.213 32.208 162.717 32.768C162.237 33.328 161.997 34.176 161.997 35.312H160.245C160.245 34.544 160.365 33.816 160.605 33.128C160.845 32.424 161.189 31.808 161.637 31.28C162.085 30.736 162.621 30.312 163.245 30.008C163.869 29.688 164.557 29.528 165.309 29.528C166.269 29.528 167.093 29.704 167.781 30.056C168.469 30.392 168.997 30.96 169.365 31.76C169.733 32.56 169.917 33.648 169.917 35.024V39.56C169.917 40.056 169.965 40.416 170.061 40.64C170.173 40.864 170.285 40.984 170.397 41H166.029ZM178.553 41.24C177.289 41.24 176.233 41.112 175.385 40.856C174.553 40.584 173.889 40.2 173.393 39.704C172.897 39.192 172.545 38.576 172.337 37.856C172.129 37.136 172.025 36.32 172.025 35.408C172.025 33.6 172.529 32.168 173.537 31.112C174.545 30.056 176.089 29.528 178.169 29.528C179.385 29.528 180.369 29.696 181.121 30.032C181.889 30.368 182.473 30.816 182.873 31.376C183.273 31.936 183.545 32.56 183.689 33.248C183.849 33.92 183.929 34.6 183.929 35.288V36.416C183.929 36.368 183.705 36.32 183.257 36.272C182.825 36.208 182.089 36.176 181.049 36.176H175.481C175.481 37.056 175.745 37.72 176.273 38.168C176.817 38.6 177.697 38.816 178.913 38.816C179.937 38.816 180.849 38.696 181.649 38.456C182.465 38.2 183.057 37.96 183.425 37.736V38.456L183.665 40.28C183.361 40.488 182.777 40.704 181.913 40.928C181.049 41.136 179.929 41.24 178.553 41.24ZM176.369 34.112H180.521C180.521 33.76 180.441 33.416 180.281 33.08C180.137 32.744 179.897 32.472 179.561 32.264C179.225 32.04 178.761 31.928 178.169 31.928C177.577 31.928 177.097 32.016 176.729 32.192C176.377 32.368 176.113 32.584 175.937 32.84C175.777 33.096 175.697 33.36 175.697 33.632C175.697 33.792 175.745 33.912 175.841 33.992C175.937 34.072 176.113 34.112 176.369 34.112Z" fill="white"/>
</g>
<defs>
<filter id="filter0_d_2106_1789" x="0" y="0" width="219" height="74" filterUnits="userSpaceOnUse" color-interpolation-filters="sRGB">
<feFlood flood-opacity="0" result="BackgroundImageFix"/>
<feColorMatrix in="SourceAlpha" type="matrix" values="0 0 0 0 0 0 0 0 0 0 0 0 0 0 0 0 0 0 127 0" result="hardAlpha"/>
<feOffset dx="4" dy="4"/>
<feGaussianBlur stdDeviation="3"/>
<feComposite in2="hardAlpha" operator="out"/>
<feColorMatrix type="matrix" values="0 0 0 0 0.301961 0 0 0 0 0.835294 0 0 0 0 0.737255 0 0 0 0.2 0"/>
<feBlend mode="normal" in2="BackgroundImageFix" result="effect1_dropShadow_2106_1789"/>
<feBlend mode="normal" in="SourceGraphic" in2="effect1_dropShadow_2106_1789" result="shape"/>
</filter>
<filter id="filter1_d_2106_1789" x="28.75" y="20.75" width="33.75" height="30.5" filterUnits="userSpaceOnUse" color-interpolation-filters="sRGB">
<feFlood flood-opacity="0" result="BackgroundImageFix"/>
<feColorMatrix in="SourceAlpha" type="matrix" values="0 0 0 0 0 0 0 0 0 0 0 0 0 0 0 0 0 0 127 0" result="hardAlpha"/>
<feOffset dx="3" dy="3"/>
<feGaussianBlur stdDeviation="2"/>
<feComposite in2="hardAlpha" operator="out"/>
<feColorMatrix type="matrix" values="0 0 0 0 0 0 0 0 0 0 0 0 0 0 0 0 0 0 0.25 0"/>
<feBlend mode="normal" in2="BackgroundImageFix" result="effect1_dropShadow_2106_1789"/>
<feBlend mode="normal" in="SourceGraphic" in2="effect1_dropShadow_2106_1789" result="shape"/>
</filter>
</defs>
</svg>
